<?xml version="1.0" encoding="UTF-8"?>
<svg width="10px" height="9px" viewBox="0 0 10 9" version="1.1" xmlns="http://www.w3.org/2000/svg" xmlns:xlink="http://www.w3.org/1999/xlink">
    <!-- Generator: Sketch 60 (88103) - https://sketch.com -->
    <title>形状</title>
    <desc>Created with Sketch.</desc>
    <g id="楼房厂区概览" stroke="none" stroke-width="1" fill="#EDCB33" fill-rule="evenodd">
        <g transform="translate(-1594.000000, -205.000000)" fill="#EDCB33" fill-rule="nonzero" id="形状">
            <path d="M1598.54505,213.052938 L1598.54505,214 L1595.81757,214 L1595.81757,213.052938 L1598.54505,213.052938 Z M1594.90879,205 L1594.90879,209.263526 C1594.90879,210.569376 1595.92935,211.631763 1597.18243,211.631763 C1598.38329,211.631763 1599.36959,210.656064 1599.4497,209.42543 L1599.45495,209.263526 L1599.45495,208.789412 C1599.45495,208.007766 1600.06863,207.368237 1600.81869,207.368237 C1601.52462,207.368237 1602.10976,207.93474 1602.17709,208.653051 L1602.18355,208.789412 L1602.18355,213.052938 L1601.27476,213.052938 L1601.27476,208.789412 C1601.27476,208.53197 1601.06573,208.315299 1600.81981,208.315299 C1600.60022,208.315299 1600.41154,208.487416 1600.37232,208.705656 L1600.36486,208.789412 L1600.36486,209.263526 C1600.36486,211.087756 1598.93293,212.57999 1597.18243,212.57999 C1595.49229,212.57999 1594.09913,211.188894 1594.00506,209.451007 L1594,209.263526 L1594,205 L1594.90879,205 Z M1596.72636,205 L1596.72636,209.263526 C1596.72636,209.520968 1596.93539,209.737639 1597.18131,209.737639 C1597.4009,209.737639 1597.58958,209.565522 1597.62879,209.347282 L1597.63626,209.263526 L1597.63626,208.789412 C1597.63626,206.965183 1599.06819,205.472948 1600.81869,205.472948 C1602.50775,205.472948 1603.90087,206.864044 1603.99494,208.601931 L1604,208.789412 L1604,213.052938 L1603.09121,213.052938 L1603.09121,208.789412 C1603.09121,207.483562 1602.07065,206.421175 1600.81757,206.421175 C1599.61671,206.421175 1598.63041,207.396874 1598.5503,208.627508 L1598.54505,208.789412 L1598.54505,209.263526 C1598.54505,210.045172 1597.93137,210.684701 1597.18131,210.684701 C1596.47538,210.684701 1595.89024,210.118198 1595.82385,209.399887 L1595.81757,209.263526 L1595.81757,205 L1596.72636,205 Z"></path>
        </g>
    </g>
</svg>