<?xml version="1.0" encoding="UTF-8"?>
<svg width="26px" height="26px" viewBox="0 0 26 26" version="1.1" xmlns="http://www.w3.org/2000/svg" xmlns:xlink="http://www.w3.org/1999/xlink">
    <!-- Generator: Sketch 60 (88103) - https://sketch.com -->
    <title>形状结合</title>
    <desc>Created with Sketch.</desc>
    <g id="页面-1" stroke="none" stroke-width="1" fill="none" fill-rule="evenodd">
        <g id="集团运维地图备份-3" transform="translate(-905.000000, -578.000000)" fill="#FF4D4D" fill-rule="nonzero">
            <g id="编组-33">
                <g id="编组-7备份-6" transform="translate(690.000000, 496.000000)">
                    <g id="编组-12" transform="translate(215.000000, 75.000000)">
                        <g id="编组-9" transform="translate(0.000000, 7.000000)">
                            <path d="M13,0 C20.1797017,0 26,5.82029825 26,13 C26,20.1797017 20.1797017,26 13,26 C5.82029825,26 0,20.1797017 0,13 C0,5.82029825 5.82029825,0 13,0 Z M13,1 C6.372583,1 1,6.372583 1,13 C1,19.627417 6.372583,25 13,25 C19.627417,25 25,19.627417 25,13 C25,6.372583 19.627417,1 13,1 Z M17.0334595,17.3722132 C17.4909206,17.3722132 17.8616121,17.7363554 17.8616121,18.1861066 C17.8616121,18.6358578 17.4909048,19 17.0334436,19 L8.78414574,19 C8.3266846,19 7.95599316,18.6358578 7.95599316,18.1861066 C7.95599316,17.7363554 8.3266846,17.3722132 8.78414574,17.3722132 L17.0334595,17.3722132 Z M13.0255988,9.06215439 C14.9957256,9.06215439 16.5926111,10.6322353 16.5926111,12.5692922 L16.5926111,12.5692922 L16.5926111,16.8786142 L9.40713287,16.8786142 L9.40713287,12.5692922 C9.40713287,10.6322508 11.0043827,9.06215439 12.9744936,9.06215439 L12.9744936,9.06215439 Z M19.3314708,10.4506936 C19.6485706,10.4029375 19.9450984,10.6173806 19.9933372,10.9295002 C20.0415444,11.2415732 19.8234561,11.5328277 19.5060238,11.5802413 L19.5060238,11.5802413 L17.8101584,11.8342968 C17.492726,11.8817104 17.1961665,11.6672673 17.1479277,11.3551788 C17.0997206,11.0430591 17.3178088,10.7518357 17.635257,10.7044222 L17.635257,10.7044222 Z M6.60173109,10.1472139 L6.69562327,10.1580688 L8.37780572,10.4899791 C8.69235578,10.5522629 8.89642849,10.853405 8.83308138,11.1626752 C8.77009852,11.4723034 8.46381525,11.6725925 8.14891678,11.6106513 L8.14891678,11.6106513 L6.46673434,11.278741 C6.22056748,11.2299261 6.04205533,11.0352892 6.00642258,10.8045745 C5.99641491,10.73861 5.99811347,10.671439 6.01144284,10.6060449 C6.0744257,10.2967748 6.38107321,10.0961431 6.69562327,10.1580688 Z M16.8441783,6.78999507 C17.0561694,6.55326996 17.4232659,6.5302561 17.6644125,6.7386888 C17.905179,6.9471215 17.9285858,7.30805605 17.7165947,7.54515486 L17.7165947,7.54515486 L16.5832516,8.81161785 C16.3712605,9.0483741 16.0038156,9.07135682 15.7630174,8.86292412 C15.6564834,8.77057284 15.5920594,8.64848104 15.5722951,8.52037886 C15.5474472,8.3590327 15.5924395,8.18846855 15.7105026,8.0564892 L15.7105026,8.0564892 Z M8.53832729,6.52742219 C8.78918183,6.3306677 9.15485301,6.37066946 9.35495069,6.61693956 L9.35495069,6.61693956 L10.4267362,7.93403927 C10.6271982,8.1806675 10.5865293,8.54020067 10.336039,8.73731329 C10.0851845,8.93441034 9.71951329,8.89440858 9.51906721,8.64812291 L9.51906721,8.64812291 L8.44763007,7.33069621 C8.38366617,7.25270497 8.34193195,7.15940115 8.32670044,7.06033785 C8.29646803,6.86501589 8.36988733,6.65977524 8.53832729,6.52742219 Z M13.0961358,5.00016141 C13.4167989,5.00758875 13.6709,5.26944537 13.66333,5.58474147 L13.66333,5.58474147 L13.6672892,7.2712619 C13.6597509,7.58654244 13.3937722,7.83637829 13.0727449,7.82895095 C12.7866219,7.82256686 12.5533937,7.6134179 12.5116479,7.34450764 C12.506596,7.31194879 12.5044422,7.27833111 12.5051548,7.24433974 L12.5051548,7.24433974 L12.5011956,5.55785045 C12.5087656,5.24256991 12.7750927,4.99273406 13.0961358,5.00016141 Z" id="形状结合"></path>
                        </g>
                    </g>
                </g>
            </g>
        </g>
    </g>
</svg>