<?xml version="1.0" encoding="UTF-8"?>
<svg width="24px" height="24px" viewBox="0 0 24 24" version="1.1" xmlns="http://www.w3.org/2000/svg" xmlns:xlink="http://www.w3.org/1999/xlink">
    <title>本地灰</title>
    <g id="页面-1" stroke="none" stroke-width="1" fill="none" fill-rule="evenodd">
        <g id="编组-62" transform="translate(-578.000000, -84.000000)" fill="#CDD8F7" fill-rule="nonzero">
            <path d="M581.639867,102.622612 L581.796807,102.412098 L581.796807,102.412098 L581.934024,102.258674 C582.237568,101.934995 582.588223,101.684045 583.113961,101.816166 C583.518375,101.921494 583.841345,102.198671 583.984575,102.559002 C584.116571,102.888844 584.077253,103.254718 583.875046,103.565157 L583.537152,104.059643 L583.537152,104.059643 L582.783463,105.126656 L582.783463,105.126656 L582.400619,105.663392 L598.543486,105.663392 L597.884421,104.718788 L597.884421,104.718788 L597.071867,103.579016 L597.071867,103.579016 C596.807875,103.127217 596.8163,102.694819 597.077484,102.306771 C597.296542,101.954755 597.720615,101.7441 598.147497,101.788448 C598.503887,101.803416 598.739711,101.997995 598.955289,102.22872 L599.026536,102.306771 L601.666095,106.066178 L601.666095,106.066178 L601.792841,106.253781 C602.006282,106.625199 602.00909,107.052052 601.809692,107.398524 C601.611463,107.73645 601.245684,107.948607 600.818353,107.981619 L600.700361,107.986141 L584.264782,107.981864 L582.318679,107.986761 L582.318679,107.986761 L580.972105,107.994462 L580.972105,107.994462 L580.263403,108 C579.76631,108 579.33662,107.769943 579.111946,107.384666 C578.905994,107.034036 578.90535,106.613534 579.103525,106.2171 L579.162497,106.109648 L580.488873,104.229636 L580.488873,104.229636 L581.639867,102.622612 L581.639867,102.622612 Z M588.576361,84.2070685 C591.912778,83.4476017 595.510379,84.8196312 597.526833,87.627441 C598.62493,89.1491464 599.19785,90.8870505 599.228743,92.7912611 C599.214701,93.9692662 598.900156,95.1167818 598.206474,96.5193008 C598.028367,96.878407 597.683431,97.37873 597.236866,97.9569368 L596.924816,98.3532514 L596.924816,98.3532514 L596.586946,98.7684727 L596.586946,98.7684727 L596.227551,99.1984306 L596.227551,99.1984306 L595.850922,99.638955 L595.850922,99.638955 L595.263058,100.310432 L595.263058,100.310432 L594.862128,100.759129 L594.862128,100.759129 L594.257936,101.423317 L594.257936,101.423317 L593.663266,102.064367 L593.663266,102.064367 L592.910227,102.858782 L592.910227,102.858782 L592.39412,103.39111 L592.39412,103.39111 L592.081276,103.707946 L592.081276,103.707946 L591.669584,104.115703 L591.669584,104.115703 L591.439765,104.336461 C591.404736,104.369559 591.371404,104.400751 591.339858,104.429952 C591.047781,104.701586 590.747279,104.837403 590.443968,104.837403 C590.149083,104.837403 589.857006,104.712673 589.570546,104.457669 C587.368969,102.513268 584.64638,99.4157064 582.836423,96.8067954 L582.605635,96.4694088 L582.5607,96.3723966 C582.434321,95.9011946 582.355684,95.2304246 583.139237,94.8728654 C583.422889,94.7398201 583.757092,94.7259612 584.051977,94.8368323 C584.349671,94.9477034 584.588388,95.1749891 584.711959,95.4632538 C584.944037,95.8797763 585.363074,96.4736008 585.880081,97.1413262 L586.238289,97.59629 L586.238289,97.59629 L586.619667,98.0663421 C586.750003,98.2247843 586.883225,98.3846066 587.018354,98.5446741 L587.428492,99.0244777 C587.497477,99.1041893 587.566695,99.1836786 587.636024,99.2628037 L588.052351,99.7320492 L588.052351,99.7320492 L588.46548,100.185745 L588.46548,100.185745 L588.869552,100.617084 L588.869552,100.617084 L589.258708,101.019257 C589.701743,101.468798 590.102361,101.844892 590.418692,102.098887 L590.724086,101.793913 L590.724086,101.793913 L591.313112,101.197996 L591.313112,101.197996 L591.873393,100.620488 L591.873393,100.620488 L592.405245,100.061032 L592.405245,100.061032 L592.908989,99.5192692 C592.990622,99.43043 593.071097,99.3423132 593.15042,99.2549114 L593.6126,98.7390192 L593.6126,98.7390192 L594.04747,98.239927 C594.32835,97.9127193 594.591237,97.5964732 594.836555,97.2907117 L595.191409,96.8398734 C595.476229,96.4706284 595.73393,96.1173932 595.965345,95.7792364 C596.409077,95.1334124 596.706771,94.3157383 596.824725,93.4176826 C596.993231,92.1703831 596.754514,90.9535731 596.119809,89.7949704 C594.906566,87.5803208 593.05581,86.4161746 590.618091,86.3302495 C587.792808,86.2193784 585.276454,87.9933156 584.363713,90.7124285 C584.139039,91.3831985 584.018276,92.0816862 584.009851,92.7857175 C584.001426,93.4952924 583.50995,94.0108428 582.835926,94.0108428 C582.16752,94.0108428 581.662002,93.4786617 581.664787,92.7774022 C581.670427,88.6613137 584.51256,85.1383855 588.576361,84.2070685 Z M590.443968,88.993927 C592.488506,88.993927 594.153907,90.6375906 594.153907,92.655444 C594.151098,93.636653 593.763535,94.5568829 593.058618,95.249827 C592.405939,95.891401 591.55265,96.2649625 590.638036,96.3119193 L590.429926,96.3169611 C588.396621,96.305874 586.739647,94.6649821 586.736838,92.6582158 C586.736838,90.6375906 588.39943,88.993927 590.443968,88.993927 Z M590.455202,91.3166759 C589.699734,91.3166759 589.084687,91.9153796 589.084687,92.655444 C589.084687,93.0130032 589.227917,93.35116 589.486293,93.6061634 C589.747477,93.8639387 590.101339,93.9942122 590.472052,93.9997557 C591.199436,93.9942122 591.808866,93.376106 591.806077,92.6499005 C591.800441,91.9209232 591.193819,91.3222194 590.455202,91.3166759 Z" id="本地灰"></path>
        </g>
    </g>
</svg>