<?xml version="1.0" encoding="UTF-8"?>
<svg width="24px" height="24px" viewBox="0 0 24 24" version="1.1" xmlns="http://www.w3.org/2000/svg" xmlns:xlink="http://www.w3.org/1999/xlink">
    <title>本地红</title>
    <g id="页面-1" stroke="none" stroke-width="1" fill="none" fill-rule="evenodd">
        <g id="编组-62" transform="translate(-578.000000, -4.000000)" fill="#FF3939" fill-rule="nonzero">
            <path d="M581.639867,22.6226119 L581.796807,22.4120981 L581.796807,22.4120981 L581.934024,22.2586739 C582.237568,21.9349953 582.588223,21.6840448 583.113961,21.8161661 C583.518375,21.9214936 583.841345,22.1986713 583.984575,22.5590023 C584.116571,22.8888437 584.077253,23.2547182 583.875046,23.5651572 L583.537152,24.0596432 L583.537152,24.0596432 L582.783463,25.1266556 L582.783463,25.1266556 L582.400619,25.6633922 L598.543486,25.6633922 L597.884421,24.7187879 L597.884421,24.7187879 L597.071867,23.5790161 L597.071867,23.5790161 C596.807875,23.1272165 596.8163,22.6948193 597.077484,22.3067706 C597.296542,21.9547549 597.720615,21.7440999 598.147497,21.7884483 C598.503887,21.8034159 598.739711,21.9979947 598.955289,22.2287201 L599.026536,22.3067706 L601.666095,26.0661781 L601.666095,26.0661781 L601.792841,26.2537807 C602.006282,26.6251987 602.00909,27.0520524 601.809692,27.3985244 C601.611463,27.7364502 601.245684,27.9486066 600.818353,27.9816193 L600.700361,27.9861411 L584.264782,27.9818637 L582.318679,27.9867613 L582.318679,27.9867613 L580.972105,27.9944623 L580.972105,27.9944623 L580.263403,28 C579.76631,28 579.33662,27.7699425 579.111946,27.3846656 C578.905994,27.0340358 578.90535,26.6135342 579.103525,26.2170995 L579.162497,26.1096483 L580.488873,24.2296357 L580.488873,24.2296357 L581.639867,22.6226119 L581.639867,22.6226119 Z M588.576361,4.20706854 C591.912778,3.44760171 595.510379,4.8196312 597.526833,7.62744102 C598.62493,9.14914645 599.19785,10.8870505 599.228743,12.7912611 C599.214701,13.9692662 598.900156,15.1167818 598.206474,16.5193008 C598.028367,16.878407 597.683431,17.37873 597.236866,17.9569368 L596.924816,18.3532514 L596.924816,18.3532514 L596.586946,18.7684727 L596.586946,18.7684727 L596.227551,19.1984306 L596.227551,19.1984306 L595.850922,19.638955 L595.850922,19.638955 L595.263058,20.3104319 L595.263058,20.3104319 L594.862128,20.7591287 L594.862128,20.7591287 L594.257936,21.423317 L594.257936,21.423317 L593.663266,22.0643668 L593.663266,22.0643668 L592.910227,22.8587815 L592.910227,22.8587815 L592.39412,23.3911097 L592.39412,23.3911097 L592.081276,23.7079464 L592.081276,23.7079464 L591.669584,24.1157031 L591.669584,24.1157031 L591.439765,24.3364606 C591.404736,24.3695586 591.371404,24.4007512 591.339858,24.4299516 C591.047781,24.7015857 590.747279,24.8374027 590.443968,24.8374027 C590.149083,24.8374027 589.857006,24.7126728 589.570546,24.4576693 C587.368969,22.513268 584.64638,19.4157064 582.836423,16.8067954 L582.605635,16.4694088 L582.5607,16.3723966 C582.434321,15.9011946 582.355684,15.2304246 583.139237,14.8728654 C583.422889,14.7398201 583.757092,14.7259612 584.051977,14.8368323 C584.349671,14.9477034 584.588388,15.1749891 584.711959,15.4632538 C584.944037,15.8797763 585.363074,16.4736008 585.880081,17.1413262 L586.238289,17.59629 L586.238289,17.59629 L586.619667,18.0663421 C586.750003,18.2247843 586.883225,18.3846066 587.018354,18.5446741 L587.428492,19.0244777 C587.497477,19.1041893 587.566695,19.1836786 587.636024,19.2628037 L588.052351,19.7320492 L588.052351,19.7320492 L588.46548,20.1857454 L588.46548,20.1857454 L588.869552,20.6170843 L588.869552,20.6170843 L589.258708,21.0192573 C589.701743,21.4687981 590.102361,21.8448918 590.418692,22.0988873 L590.724086,21.7939135 L590.724086,21.7939135 L591.313112,21.1979962 L591.313112,21.1979962 L591.873393,20.6204882 L591.873393,20.6204882 L592.405245,20.0610317 L592.405245,20.0610317 L592.908989,19.5192692 C592.990622,19.43043 593.071097,19.3423132 593.15042,19.2549114 L593.6126,18.7390192 L593.6126,18.7390192 L594.04747,18.239927 C594.32835,17.9127193 594.591237,17.5964732 594.836555,17.2907117 L595.191409,16.8398734 C595.476229,16.4706284 595.73393,16.1173932 595.965345,15.7792364 C596.409077,15.1334124 596.706771,14.3157383 596.824725,13.4176826 C596.993231,12.1703831 596.754514,10.9535731 596.119809,9.79497043 C594.906566,7.58032082 593.05581,6.41617459 590.618091,6.33024951 C587.792808,6.21937844 585.276454,7.99331555 584.363713,10.7124285 C584.139039,11.3831985 584.018276,12.0816862 584.009851,12.7857175 C584.001426,13.4952924 583.50995,14.0108428 582.835926,14.0108428 C582.16752,14.0108428 581.662002,13.4786617 581.664787,12.7774022 C581.670427,8.66131375 584.51256,5.13838552 588.576361,4.20706854 Z M590.443968,8.99392695 C592.488506,8.99392695 594.153907,10.6375906 594.153907,12.655444 C594.151098,13.636653 593.763535,14.5568829 593.058618,15.249827 C592.405939,15.891401 591.55265,16.2649625 590.638036,16.3119193 L590.429926,16.3169611 C588.396621,16.305874 586.739647,14.6649821 586.736838,12.6582158 C586.736838,10.6375906 588.39943,8.99392695 590.443968,8.99392695 Z M590.455202,11.3166759 C589.699734,11.3166759 589.084687,11.9153796 589.084687,12.655444 C589.084687,13.0130032 589.227917,13.35116 589.486293,13.6061634 C589.747477,13.8639387 590.101339,13.9942122 590.472052,13.9997557 C591.199436,13.9942122 591.808866,13.376106 591.806077,12.6499005 C591.800441,11.9209232 591.193819,11.3222194 590.455202,11.3166759 Z" id="本地红"></path>
        </g>
    </g>
</svg>