<?xml version="1.0" encoding="UTF-8"?>
<svg width="27px" height="26px" viewBox="0 0 27 26" version="1.1" xmlns="http://www.w3.org/2000/svg" xmlns:xlink="http://www.w3.org/1999/xlink">
    <title>变频红@3x</title>
    <g id="页面-1" stroke="none" stroke-width="1" fill="none" fill-rule="evenodd">
        <g id="编组-62" transform="translate(-462.000000, -2.000000)" fill="#FF3939" fill-rule="nonzero">
            <path d="M486.600805,5.52367812 C488.677807,8.50936857 487.769118,10.456558 484.134365,10.7161833 C483.095864,10.8459959 482.057363,11.1056211 481.148674,11.3652464 C480.273605,11.5402603 479.457524,12.0102174 479.098075,12.6558245 C479.418977,13.0887601 479.64797,13.5951154 479.764031,14.1511677 C479.949877,14.0794881 480.152078,14.0159291 480.369798,13.961499 C483.615114,13.3124358 486.600805,13.5720611 488.418181,16.9471894 C489.84612,19.6732546 488.288369,23.5676335 485.432491,25.5148229 C482.4468,27.591825 480.499611,26.6831366 480.239986,23.048383 C480.110173,22.0098819 479.850548,20.9713809 479.590923,20.0626925 C479.424754,19.231851 478.992704,18.454186 478.396875,18.0700434 C477.91247,18.4518043 477.329932,18.7168247 476.684259,18.8311439 C476.752007,19.010128 476.812634,19.2047355 476.864857,19.4136294 C477.643733,22.6589451 477.384108,25.7744482 473.879167,27.4620123 C471.153102,28.8899513 467.258723,27.3321997 465.311533,24.4763219 C463.234531,21.4906314 464.14322,19.543442 467.777973,19.2838167 C468.816474,19.1540041 469.854975,18.8943789 470.763664,18.6347536 C471.618696,18.4637471 472.473729,18.0111499 472.846528,17.3882466 C472.485747,16.9148817 472.235288,16.3508529 472.125025,15.7280898 C471.946041,15.7958377 471.751434,15.8564649 471.54254,15.9086884 C468.297224,16.6875642 465.181721,16.4279389 463.494157,12.9229979 C462.066218,10.1969327 463.623969,6.30255389 466.479847,4.35536446 C469.465538,2.40817503 471.412727,3.31686343 471.672352,6.8218044 C471.802165,7.86030543 472.06179,8.89880646 472.321415,9.80749486 C472.496429,10.6825645 472.966386,11.4986455 473.611993,11.8580943 C474.076093,11.5142805 474.6245,11.2757223 475.228079,11.1688561 C475.160331,10.989872 475.099704,10.7952645 475.047481,10.5863706 C474.288077,7.42218781 474.515898,4.38140812 477.776351,2.66721207 L478.033171,2.53798766 C480.629424,1.11004875 484.523802,2.66780029 486.600805,5.52367812 Z M474.268605,19.6732546 C473.489729,20.3223178 472.710853,20.7117557 471.802165,20.9713809 L471.282914,21.1011935 L470.244413,21.4906314 C469.465538,21.6204441 468.816474,21.7502567 468.297224,21.8800693 L468.037599,21.8800693 C467.648161,21.8800693 467.258723,22.0098819 466.999098,22.0098819 C467.12891,22.1396946 467.258723,22.3993198 467.388536,22.6589451 L467.518348,22.9185703 C468.946287,24.8657598 471.412727,25.7744482 472.840666,25.125385 C474.658043,24.2166966 475.047481,22.9185703 474.52823,20.1925051 L474.398417,19.9328799 L474.39361,19.8944169 C474.383994,19.8463381 474.355147,19.7597964 474.268605,19.6732546 Z M481.278487,16.5577515 L480.889049,16.6875642 L480.759236,16.6875642 L480.889049,16.8173768 C481.538112,17.4664399 481.92755,18.3751283 482.187175,19.4136294 L482.316988,19.8030673 L482.576613,20.8415683 L482.687881,21.4773852 C482.780604,21.9807403 482.873328,22.4178645 482.966051,22.7887577 L482.966051,23.048383 C482.966051,23.4378209 483.095864,23.6974461 483.095864,23.9570714 L483.095864,24.2166966 C483.225676,24.086884 483.485301,23.9570714 483.744927,23.8272587 L484.004552,23.6974461 C485.951741,22.2695072 486.86043,19.8030673 486.211367,18.3751283 C485.172866,16.4279389 483.874739,15.9086884 481.278487,16.5577515 Z M475.956169,13.7018737 C475.177293,13.7018737 474.658043,14.2211242 474.658043,15 C474.658043,15.7788758 475.177293,16.2981263 475.956169,16.2981263 C476.735045,16.2981263 477.254295,15.7788758 477.254295,15 C477.254295,14.2211242 476.735045,13.7018737 475.956169,13.7018737 Z M468.946287,6.04292863 L468.491943,6.25387415 C468.329677,6.33500704 468.167411,6.43236652 468.037599,6.56217914 C466.090409,7.99011806 465.181721,10.456558 465.830784,11.8844969 C466.739472,13.7018737 468.037599,14.0913116 470.763664,13.5720611 L471.023289,13.4422485 L471.153102,13.4422485 L471.023289,13.3124358 C470.374226,12.6633727 469.984788,11.7546843 469.725163,10.7161833 L469.59535,10.3267454 L469.465538,9.28824434 C469.335725,8.50936857 469.205912,7.86030543 469.0761,7.34105492 L469.0761,7.08142966 C469.0761,6.69199177 469.0761,6.30255389 468.946287,6.04292863 Z M479.071672,4.87461497 C477.254295,5.78330337 476.864857,7.08142966 477.384108,9.80749486 L477.513921,10.1969327 L477.513921,10.3267454 L477.643733,10.1969327 C478.292796,9.5478696 479.201485,9.15843172 480.239986,8.89880646 L480.629424,8.76899383 L481.667925,8.50936857 C482.4468,8.37955594 483.095864,8.24974332 483.615114,8.11993069 L483.874739,8.11993069 C484.264177,8.11993069 484.653615,7.99011806 484.91324,7.99011806 C484.783428,7.86030543 484.653615,7.60068017 484.523802,7.34105492 L484.39399,7.08142966 C483.095864,5.0044276 480.499611,4.0957392 479.071672,4.87461497 Z" id="变频红"></path>
        </g>
    </g>
</svg>