<?xml version="1.0" encoding="UTF-8"?>
<svg width="27px" height="26px" viewBox="0 0 27 26" version="1.1" xmlns="http://www.w3.org/2000/svg" xmlns:xlink="http://www.w3.org/1999/xlink">
    <title>变频灰</title>
    <g id="页面-1" stroke="none" stroke-width="1" fill="none" fill-rule="evenodd">
        <g id="编组-62" transform="translate(-462.000000, -82.000000)" fill="#CDD8F7" fill-rule="nonzero">
            <path d="M486.600805,85.5236781 C488.677807,88.5093686 487.769118,90.456558 484.134365,90.7161833 C483.095864,90.8459959 482.057363,91.1056211 481.148674,91.3652464 C480.273605,91.5402603 479.457524,92.0102174 479.098075,92.6558245 C479.418977,93.0887601 479.64797,93.5951154 479.764031,94.1511677 C479.949877,94.0794881 480.152078,94.0159291 480.369798,93.961499 C483.615114,93.3124358 486.600805,93.5720611 488.418181,96.9471894 C489.84612,99.6732546 488.288369,103.567633 485.432491,105.514823 C482.4468,107.591825 480.499611,106.683137 480.239986,103.048383 C480.110173,102.009882 479.850548,100.971381 479.590923,100.062693 C479.424754,99.231851 478.992704,98.454186 478.396875,98.0700434 C477.91247,98.4518043 477.329932,98.7168247 476.684259,98.8311439 C476.752007,99.010128 476.812634,99.2047355 476.864857,99.4136294 C477.643733,102.658945 477.384108,105.774448 473.879167,107.462012 C471.153102,108.889951 467.258723,107.3322 465.311533,104.476322 C463.234531,101.490631 464.14322,99.543442 467.777973,99.2838167 C468.816474,99.1540041 469.854975,98.8943789 470.763664,98.6347536 C471.618696,98.4637471 472.473729,98.0111499 472.846528,97.3882466 C472.485747,96.9148817 472.235288,96.3508529 472.125025,95.7280898 C471.946041,95.7958377 471.751434,95.8564649 471.54254,95.9086884 C468.297224,96.6875642 465.181721,96.4279389 463.494157,92.9229979 C462.066218,90.1969327 463.623969,86.3025539 466.479847,84.3553645 C469.465538,82.408175 471.412727,83.3168634 471.672352,86.8218044 C471.802165,87.8603054 472.06179,88.8988065 472.321415,89.8074949 C472.496429,90.6825645 472.966386,91.4986455 473.611993,91.8580943 C474.076093,91.5142805 474.6245,91.2757223 475.228079,91.1688561 C475.160331,90.989872 475.099704,90.7952645 475.047481,90.5863706 C474.288077,87.4221878 474.515898,84.3814081 477.776351,82.6672121 L478.033171,82.5379877 C480.629424,81.1100487 484.523802,82.6678003 486.600805,85.5236781 Z M474.268605,99.6732546 C473.489729,100.322318 472.710853,100.711756 471.802165,100.971381 L471.282914,101.101194 L470.244413,101.490631 C469.465538,101.620444 468.816474,101.750257 468.297224,101.880069 L468.037599,101.880069 C467.648161,101.880069 467.258723,102.009882 466.999098,102.009882 C467.12891,102.139695 467.258723,102.39932 467.388536,102.658945 L467.518348,102.91857 C468.946287,104.86576 471.412727,105.774448 472.840666,105.125385 C474.658043,104.216697 475.047481,102.91857 474.52823,100.192505 L474.398417,99.9328799 L474.39361,99.8944169 C474.383994,99.8463381 474.355147,99.7597964 474.268605,99.6732546 Z M481.278487,96.5577515 L480.889049,96.6875642 L480.759236,96.6875642 L480.889049,96.8173768 C481.538112,97.4664399 481.92755,98.3751283 482.187175,99.4136294 L482.316988,99.8030673 L482.576613,100.841568 L482.687881,101.477385 C482.780604,101.98074 482.873328,102.417864 482.966051,102.788758 L482.966051,103.048383 C482.966051,103.437821 483.095864,103.697446 483.095864,103.957071 L483.095864,104.216697 C483.225676,104.086884 483.485301,103.957071 483.744927,103.827259 L484.004552,103.697446 C485.951741,102.269507 486.86043,99.8030673 486.211367,98.3751283 C485.172866,96.4279389 483.874739,95.9086884 481.278487,96.5577515 Z M475.956169,93.7018737 C475.177293,93.7018737 474.658043,94.2211242 474.658043,95 C474.658043,95.7788758 475.177293,96.2981263 475.956169,96.2981263 C476.735045,96.2981263 477.254295,95.7788758 477.254295,95 C477.254295,94.2211242 476.735045,93.7018737 475.956169,93.7018737 Z M468.946287,86.0429286 L468.491943,86.2538742 C468.329677,86.335007 468.167411,86.4323665 468.037599,86.5621791 C466.090409,87.9901181 465.181721,90.456558 465.830784,91.8844969 C466.739472,93.7018737 468.037599,94.0913116 470.763664,93.5720611 L471.023289,93.4422485 L471.153102,93.4422485 L471.023289,93.3124358 C470.374226,92.6633727 469.984788,91.7546843 469.725163,90.7161833 L469.59535,90.3267454 L469.465538,89.2882443 C469.335725,88.5093686 469.205912,87.8603054 469.0761,87.3410549 L469.0761,87.0814297 C469.0761,86.6919918 469.0761,86.3025539 468.946287,86.0429286 Z M479.071672,84.874615 C477.254295,85.7833034 476.864857,87.0814297 477.384108,89.8074949 L477.513921,90.1969327 L477.513921,90.3267454 L477.643733,90.1969327 C478.292796,89.5478696 479.201485,89.1584317 480.239986,88.8988065 L480.629424,88.7689938 L481.667925,88.5093686 C482.4468,88.3795559 483.095864,88.2497433 483.615114,88.1199307 L483.874739,88.1199307 C484.264177,88.1199307 484.653615,87.9901181 484.91324,87.9901181 C484.783428,87.8603054 484.653615,87.6006802 484.523802,87.3410549 L484.39399,87.0814297 C483.095864,85.0044276 480.499611,84.0957392 479.071672,84.874615 Z" id="变频灰"></path>
        </g>
    </g>
</svg>