<?xml version="1.0" encoding="UTF-8"?>
<svg width="27px" height="26px" viewBox="0 0 27 26" version="1.1" xmlns="http://www.w3.org/2000/svg" xmlns:xlink="http://www.w3.org/1999/xlink">
    <title>变频绿@3x</title>
    <g id="页面-1" stroke="none" stroke-width="1" fill="none" fill-rule="evenodd">
        <g id="编组-62" transform="translate(-462.000000, -42.000000)" fill="#35FEA7" fill-rule="nonzero">
            <path d="M486.600805,45.5236781 C488.677807,48.5093686 487.769118,50.456558 484.134365,50.7161833 C483.095864,50.8459959 482.057363,51.1056211 481.148674,51.3652464 C480.273605,51.5402603 479.457524,52.0102174 479.098075,52.6558245 C479.418977,53.0887601 479.64797,53.5951154 479.764031,54.1511677 C479.949877,54.0794881 480.152078,54.0159291 480.369798,53.961499 C483.615114,53.3124358 486.600805,53.5720611 488.418181,56.9471894 C489.84612,59.6732546 488.288369,63.5676335 485.432491,65.5148229 C482.4468,67.591825 480.499611,66.6831366 480.239986,63.048383 C480.110173,62.0098819 479.850548,60.9713809 479.590923,60.0626925 C479.424754,59.231851 478.992704,58.454186 478.396875,58.0700434 C477.91247,58.4518043 477.329932,58.7168247 476.684259,58.8311439 C476.752007,59.010128 476.812634,59.2047355 476.864857,59.4136294 C477.643733,62.6589451 477.384108,65.7744482 473.879167,67.4620123 C471.153102,68.8899513 467.258723,67.3321997 465.311533,64.4763219 C463.234531,61.4906314 464.14322,59.543442 467.777973,59.2838167 C468.816474,59.1540041 469.854975,58.8943789 470.763664,58.6347536 C471.618696,58.4637471 472.473729,58.0111499 472.846528,57.3882466 C472.485747,56.9148817 472.235288,56.3508529 472.125025,55.7280898 C471.946041,55.7958377 471.751434,55.8564649 471.54254,55.9086884 C468.297224,56.6875642 465.181721,56.4279389 463.494157,52.9229979 C462.066218,50.1969327 463.623969,46.3025539 466.479847,44.3553645 C469.465538,42.408175 471.412727,43.3168634 471.672352,46.8218044 C471.802165,47.8603054 472.06179,48.8988065 472.321415,49.8074949 C472.496429,50.6825645 472.966386,51.4986455 473.611993,51.8580943 C474.076093,51.5142805 474.6245,51.2757223 475.228079,51.1688561 C475.160331,50.989872 475.099704,50.7952645 475.047481,50.5863706 C474.288077,47.4221878 474.515898,44.3814081 477.776351,42.6672121 L478.033171,42.5379877 C480.629424,41.1100487 484.523802,42.6678003 486.600805,45.5236781 Z M474.268605,59.6732546 C473.489729,60.3223178 472.710853,60.7117557 471.802165,60.9713809 L471.282914,61.1011935 L470.244413,61.4906314 C469.465538,61.6204441 468.816474,61.7502567 468.297224,61.8800693 L468.037599,61.8800693 C467.648161,61.8800693 467.258723,62.0098819 466.999098,62.0098819 C467.12891,62.1396946 467.258723,62.3993198 467.388536,62.6589451 L467.518348,62.9185703 C468.946287,64.8657598 471.412727,65.7744482 472.840666,65.125385 C474.658043,64.2166966 475.047481,62.9185703 474.52823,60.1925051 L474.398417,59.9328799 L474.39361,59.8944169 C474.383994,59.8463381 474.355147,59.7597964 474.268605,59.6732546 Z M481.278487,56.5577515 L480.889049,56.6875642 L480.759236,56.6875642 L480.889049,56.8173768 C481.538112,57.4664399 481.92755,58.3751283 482.187175,59.4136294 L482.316988,59.8030673 L482.576613,60.8415683 L482.687881,61.4773852 C482.780604,61.9807403 482.873328,62.4178645 482.966051,62.7887577 L482.966051,63.048383 C482.966051,63.4378209 483.095864,63.6974461 483.095864,63.9570714 L483.095864,64.2166966 C483.225676,64.086884 483.485301,63.9570714 483.744927,63.8272587 L484.004552,63.6974461 C485.951741,62.2695072 486.86043,59.8030673 486.211367,58.3751283 C485.172866,56.4279389 483.874739,55.9086884 481.278487,56.5577515 Z M475.956169,53.7018737 C475.177293,53.7018737 474.658043,54.2211242 474.658043,55 C474.658043,55.7788758 475.177293,56.2981263 475.956169,56.2981263 C476.735045,56.2981263 477.254295,55.7788758 477.254295,55 C477.254295,54.2211242 476.735045,53.7018737 475.956169,53.7018737 Z M468.946287,46.0429286 L468.491943,46.2538742 C468.329677,46.335007 468.167411,46.4323665 468.037599,46.5621791 C466.090409,47.9901181 465.181721,50.456558 465.830784,51.8844969 C466.739472,53.7018737 468.037599,54.0913116 470.763664,53.5720611 L471.023289,53.4422485 L471.153102,53.4422485 L471.023289,53.3124358 C470.374226,52.6633727 469.984788,51.7546843 469.725163,50.7161833 L469.59535,50.3267454 L469.465538,49.2882443 C469.335725,48.5093686 469.205912,47.8603054 469.0761,47.3410549 L469.0761,47.0814297 C469.0761,46.6919918 469.0761,46.3025539 468.946287,46.0429286 Z M479.071672,44.874615 C477.254295,45.7833034 476.864857,47.0814297 477.384108,49.8074949 L477.513921,50.1969327 L477.513921,50.3267454 L477.643733,50.1969327 C478.292796,49.5478696 479.201485,49.1584317 480.239986,48.8988065 L480.629424,48.7689938 L481.667925,48.5093686 C482.4468,48.3795559 483.095864,48.2497433 483.615114,48.1199307 L483.874739,48.1199307 C484.264177,48.1199307 484.653615,47.9901181 484.91324,47.9901181 C484.783428,47.8603054 484.653615,47.6006802 484.523802,47.3410549 L484.39399,47.0814297 C483.095864,45.0044276 480.499611,44.0957392 479.071672,44.874615 Z" id="变频绿"></path>
        </g>
    </g>
</svg>