<?xml version="1.0" encoding="UTF-8"?>
<svg width="26px" height="28px" viewBox="0 0 26 28" version="1.1" xmlns="http://www.w3.org/2000/svg" xmlns:xlink="http://www.w3.org/1999/xlink">
    <title>形状</title>
    <g id="页面-1" stroke="none" stroke-width="1" fill="none" fill-rule="evenodd">
        <g id="加药监控备份" transform="translate(-649.000000, -452.000000)" fill="#35FEA7" fill-rule="nonzero" stroke="#35FEA7" stroke-width="0.4">
            <path d="M667.338983,461.734375 C669.409861,461.734375 671.09824,463.357883 671.198664,465.401014 L671.20339,465.59375 L671.20339,475.140625 C671.20339,477.208807 669.577765,478.894987 667.53197,478.99528 L667.338983,479 L656.559322,479 C654.488444,479 652.800065,477.376492 652.699641,475.333361 L652.694915,475.140625 L652.694915,465.59375 C652.694915,463.525568 654.32054,461.839388 656.366335,461.739095 L656.559322,461.734375 L667.338983,461.734375 Z M667.338983,463.359375 L656.559322,463.359375 C655.380085,463.359375 654.406321,464.2828 654.327221,465.441357 L654.322034,465.59375 L654.322034,475.140625 C654.322034,476.318327 655.246663,477.290823 656.40673,477.36982 L656.559322,477.375 L667.338983,477.375 C668.51822,477.375 669.491984,476.451575 669.571084,475.293018 L669.576271,475.140625 L669.576271,465.59375 C669.576271,464.416048 668.651642,463.443552 667.491575,463.364555 L667.338983,463.359375 Z M664.420339,465.289063 C665.152542,465.289063 665.833898,465.573438 666.342373,466.08125 C666.850847,466.599219 667.135593,467.279688 667.135593,468.000781 C667.135593,468.665554 666.900266,469.288359 666.475455,469.777629 L666.342373,469.920313 L661.59322,474.663281 C661.074576,475.171094 660.39322,475.455469 659.671186,475.455469 C658.938983,475.455469 658.257627,475.171094 657.749153,474.663281 C657.240678,474.145313 656.955932,473.464844 656.955932,472.74375 C656.955932,472.078977 657.191259,471.456173 657.61607,470.966902 L657.749153,470.824219 L662.498305,466.08125 C662.9698,465.619602 663.575767,465.342614 664.224521,465.296067 L664.420339,465.289063 Z M660.352542,469.544531 L658.420339,471.474219 C658.084746,471.809375 657.901695,472.25625 657.901695,472.733594 C657.901695,473.210938 658.084746,473.657813 658.420339,473.992969 C658.755932,474.328125 659.20339,474.510938 659.681356,474.510938 C660.106215,474.510938 660.506968,474.366493 660.826477,474.099003 L660.942373,473.992969 L662.884746,472.063281 C662.322881,471.064795 661.351496,470.254041 660.723337,469.799893 L660.460529,469.616223 L660.460529,469.616223 L660.352542,469.544531 Z M664.420339,466.223438 C663.99548,466.223438 663.594727,466.367882 663.275218,466.635372 L663.159322,466.741406 L660.932203,468.965625 L661.207807,469.157237 C661.809226,469.589739 662.683568,470.313009 663.320566,471.238645 L663.474576,471.474219 L665.691525,469.260156 C666.027119,468.925 666.210169,468.478125 666.2,468.000781 C666.2,467.523438 666.016949,467.076563 665.681356,466.741406 C665.345763,466.40625 664.898305,466.223438 664.420339,466.223438 Z M662.80339,467.909375 C662.966102,467.746875 663.220339,467.746875 663.372881,467.909375 C663.515254,468.042676 663.533051,468.253735 663.426271,468.41328 L663.372881,468.478125 L662.823729,469.026563 C662.742373,469.107813 662.640678,469.148438 662.538983,469.148438 C662.437288,469.148438 662.335593,469.107813 662.254237,469.026563 C662.111864,468.893262 662.094068,468.682202 662.200847,468.522658 L662.254237,468.457813 L662.80339,467.909375 Z M663.983051,466.842969 C664.105085,466.842969 664.227119,466.883594 664.308475,466.975 C664.389831,467.05625 664.440678,467.178125 664.440678,467.3 C664.440678,467.421875 664.389831,467.533594 664.308475,467.625 C664.227119,467.70625 664.105085,467.757031 663.983051,467.757031 C663.861017,467.757031 663.749153,467.70625 663.657627,467.625 C663.576271,467.54375 663.525424,467.421875 663.525424,467.3 C663.525424,467.178125 663.576271,467.05625 663.657627,466.975 C663.738983,466.89375 663.861017,466.842969 663.983051,466.842969 Z M671.20339,453 L671.20339,454.574219 L674,454.574219 L674,458.128906 L671.20339,458.128906 L671.20339,459.703125 L652.694915,459.703125 L652.694915,458.128906 L650,458.128906 L650,454.574219 L652.694915,454.574219 L652.694915,453 L671.20339,453 Z M669.576271,454.625 L654.322034,454.625 L654.322034,458.078125 L669.576271,458.078125 L669.576271,454.625 Z" id="形状"></path>
        </g>
    </g>
</svg>