<?xml version="1.0" encoding="UTF-8"?>
<svg width="32px" height="32px" viewBox="0 0 32 32" version="1.1" xmlns="http://www.w3.org/2000/svg" xmlns:xlink="http://www.w3.org/1999/xlink">
    <title>形状</title>
    <g id="页面-1" stroke="none" stroke-width="1" fill="none" fill-rule="evenodd">
        <g id="加药监控备份" transform="translate(-1012.000000, -450.000000)" fill="#CDD8F7" fill-rule="nonzero">
            <path d="M1028,450 C1036.83656,450 1044,457.163444 1044,466 C1044,474.836556 1036.83656,482 1028,482 C1019.16344,482 1012,474.836556 1012,466 C1012,457.163444 1019.16344,450 1028,450 Z M1028,452 C1020.26801,452 1014,458.268014 1014,466 C1014,473.731986 1020.26801,480 1028,480 C1035.73199,480 1042,473.731986 1042,466 C1042,458.268014 1035.73199,452 1028,452 Z M1026,466 C1026.85739,466 1027.44718,466.409421 1028.02864,466.906575 L1028.50778,467.326388 C1029.26658,467.989582 1030.12642,468.652776 1031.6218,468.652776 C1033.14784,468.652776 1034.14199,468.080101 1034.78963,467.508435 L1034.9654,467.345625 C1034.99317,467.31866 1035.02021,467.291821 1035.04651,467.26517 L1035.1958,467.108017 L1035.1958,467.108017 L1035.38917,466.887258 L1035.38917,466.887258 L1035.6778,466.536429 L1035.6778,466.536429 L1035.74847,466.457259 L1035.74847,466.457259 L1035.80796,466.401931 C1035.8893,466.338308 1035.93618,466.365187 1035.96319,466.527728 L1035.97841,466.656683 L1035.97841,466.656683 L1035.99231,466.931987 L1035.99231,466.931987 L1035.99919,467.467496 L1035.99919,467.467496 L1035.99982,468.174364 C1035.99982,472.496343 1032.41802,476 1027.99978,476 C1023.58155,476 1019.99987,472.496343 1019.99987,468.174364 C1019.99987,467.667868 1020.14471,467.662457 1020.39631,467.830165 L1020.53082,467.926927 L1020.53082,467.926927 L1020.849,468.170569 L1020.849,468.170569 L1021.03054,468.29923 C1021.31329,468.488807 1021.6418,468.652776 1022,468.652776 C1022.80896,468.652776 1023.33674,468.151306 1023.82008,467.584427 L1024.24949,467.068349 C1024.72749,466.50147 1025.23208,466 1026,466 Z M1032,464 C1032.55228,464 1033,464.447715 1033,465 C1033,465.552285 1032.55228,466 1032,466 C1031.44772,466 1031,465.552285 1031,465 C1031,464.447715 1031.44772,464 1032,464 Z M1023,461 C1024.10457,461 1025,461.895431 1025,463 C1025,464.104569 1024.10457,465 1023,465 C1021.89543,465 1021,464.104569 1021,463 C1021,461.895431 1021.89543,461 1023,461 Z" id="形状"></path>
        </g>
    </g>
</svg>