<?xml version="1.0" encoding="UTF-8"?>
<svg width="32px" height="32px" viewBox="0 0 32 32" version="1.1" xmlns="http://www.w3.org/2000/svg" xmlns:xlink="http://www.w3.org/1999/xlink">
    <title>高液灰</title>
    <g id="页面-1" stroke="none" stroke-width="1" fill="none" fill-rule="evenodd">
        <g id="编组-62" transform="translate(-231.000000, -80.000000)" fill="#CDD8F7" fill-rule="nonzero">
            <path d="M247,80 C255.836556,80 263,87.163444 263,96 C263,104.836556 255.836556,112 247,112 C238.163444,112 231,104.836556 231,96 C231,87.163444 238.163444,80 247,80 Z M247,82 C239.268014,82 233,88.2680135 233,96 C233,103.731986 239.268014,110 247,110 C254.731986,110 261,103.731986 261,96 C261,88.2680135 254.731986,82 247,82 Z M245,96 C245.857389,96 246.447182,96.4094208 247.028642,96.9065745 L247.507783,97.3263879 C248.266582,97.9895819 249.126422,98.6527758 250.621803,98.6527758 C252.147838,98.6527758 253.141991,98.080101 253.789628,97.508435 L253.965398,97.3456249 C253.993175,97.3186597 254.020206,97.2918206 254.046511,97.2651697 L254.195796,97.1080171 L254.195796,97.1080171 L254.389168,96.8872582 L254.389168,96.8872582 L254.677803,96.5364288 L254.677803,96.5364288 L254.748468,96.4572587 L254.748468,96.4572587 L254.807962,96.4019309 C254.889303,96.3383077 254.936182,96.3651872 254.96319,96.5277285 L254.978411,96.6566829 L254.978411,96.6566829 L254.992306,96.9319865 L254.992306,96.9319865 L254.999191,97.467496 L254.999191,97.467496 L254.999818,98.1743636 C254.999818,102.496343 251.418019,106 246.999782,106 C242.581546,106 238.99987,102.496343 238.99987,98.1743636 C238.99987,97.6678676 239.144714,97.6624568 239.396308,97.8301645 L239.530824,97.9269266 L239.530824,97.9269266 L239.849,98.1705693 L239.849,98.1705693 L240.030542,98.2992295 C240.31329,98.4888068 240.641799,98.6527758 241,98.6527758 C241.808955,98.6527758 242.336736,98.1513059 242.820085,97.5844269 L243.249494,97.0683489 C243.727491,96.5014699 244.232079,96 245,96 Z M251,94 C251.552285,94 252,94.4477153 252,95 C252,95.5522847 251.552285,96 251,96 C250.447715,96 250,95.5522847 250,95 C250,94.4477153 250.447715,94 251,94 Z M242,91 C243.104569,91 244,91.8954305 244,93 C244,94.1045695 243.104569,95 242,95 C240.895431,95 240,94.1045695 240,93 C240,91.8954305 240.895431,91 242,91 Z" id="高液灰"></path>
        </g>
    </g>
</svg>