<?xml version="1.0" encoding="UTF-8"?>
<svg width="32px" height="32px" viewBox="0 0 32 32" version="1.1" xmlns="http://www.w3.org/2000/svg" xmlns:xlink="http://www.w3.org/1999/xlink">
    <title>高液绿</title>
    <g id="页面-1" stroke="none" stroke-width="1" fill="none" fill-rule="evenodd">
        <g id="编组-62" transform="translate(-231.000000, -40.000000)" fill="#35FEA7" fill-rule="nonzero">
            <path d="M247,40 C255.836556,40 263,47.163444 263,56 C263,64.836556 255.836556,72 247,72 C238.163444,72 231,64.836556 231,56 C231,47.163444 238.163444,40 247,40 Z M247,42 C239.268014,42 233,48.2680135 233,56 C233,63.7319865 239.268014,70 247,70 C254.731986,70 261,63.7319865 261,56 C261,48.2680135 254.731986,42 247,42 Z M245,56 C245.857389,56 246.447182,56.4094208 247.028642,56.9065745 L247.507783,57.3263879 C248.266582,57.9895819 249.126422,58.6527758 250.621803,58.6527758 C252.147838,58.6527758 253.141991,58.080101 253.789628,57.508435 L253.965398,57.3456249 C253.993175,57.3186597 254.020206,57.2918206 254.046511,57.2651697 L254.195796,57.1080171 L254.195796,57.1080171 L254.389168,56.8872582 L254.389168,56.8872582 L254.677803,56.5364288 L254.677803,56.5364288 L254.748468,56.4572587 L254.748468,56.4572587 L254.807962,56.4019309 C254.889303,56.3383077 254.936182,56.3651872 254.96319,56.5277285 L254.978411,56.6566829 L254.978411,56.6566829 L254.992306,56.9319865 L254.992306,56.9319865 L254.999191,57.467496 L254.999191,57.467496 L254.999818,58.1743636 C254.999818,62.4963432 251.418019,66 246.999782,66 C242.581546,66 238.99987,62.4963432 238.99987,58.1743636 C238.99987,57.6678676 239.144714,57.6624568 239.396308,57.8301645 L239.530824,57.9269266 L239.530824,57.9269266 L239.849,58.1705693 L239.849,58.1705693 L240.030542,58.2992295 C240.31329,58.4888068 240.641799,58.6527758 241,58.6527758 C241.808955,58.6527758 242.336736,58.1513059 242.820085,57.5844269 L243.249494,57.0683489 C243.727491,56.5014699 244.232079,56 245,56 Z M251,54 C251.552285,54 252,54.4477153 252,55 C252,55.5522847 251.552285,56 251,56 C250.447715,56 250,55.5522847 250,55 C250,54.4477153 250.447715,54 251,54 Z M242,51 C243.104569,51 244,51.8954305 244,53 C244,54.1045695 243.104569,55 242,55 C240.895431,55 240,54.1045695 240,53 C240,51.8954305 240.895431,51 242,51 Z" id="高液绿"></path>
        </g>
    </g>
</svg>