<?xml version="1.0" encoding="UTF-8"?>
<svg width="22px" height="24px" viewBox="0 0 22 24" version="1.1" xmlns="http://www.w3.org/2000/svg" xmlns:xlink="http://www.w3.org/1999/xlink">
    <title>形状</title>
    <g id="页面-1" stroke="none" stroke-width="1" fill="none" fill-rule="evenodd">
        <g id="加药监控备份" transform="translate(-1193.000000, -454.000000)" fill="#35FEA7" fill-rule="nonzero" stroke="#35FEA7" stroke-width="0.4">
            <path d="M1207.68691,476.330316 C1208.07224,476.330316 1208.38406,476.642131 1208.38406,477.027464 C1208.38406,477.385273 1208.1152,477.679692 1207.76827,477.719926 L1207.68691,477.724612 L1200.02589,477.724612 C1199.64056,477.724612 1199.32874,477.412796 1199.32874,477.027464 C1199.32874,476.669655 1199.5976,476.375236 1199.94453,476.335002 L1200.02589,476.330316 L1207.68691,476.330316 Z M1206.34078,455.010273 L1210.30819,455.111676 C1211.114,455.116516 1211.74888,455.719609 1211.80273,456.508645 L1211.80643,456.622585 L1211.80643,462.430459 C1211.80643,463.23869 1211.20124,463.88061 1210.40979,463.937297 L1210.29551,463.941368 L1208.96966,463.941368 C1208.94009,463.941368 1208.87706,463.950171 1208.85687,464.014721 L1208.85051,464.060517 L1208.85051,474.046207 C1208.85051,474.854437 1208.24533,475.496358 1207.45389,475.553044 L1207.3396,475.557116 L1200.81937,475.557116 C1200.01114,475.557116 1199.36922,474.951933 1199.31253,474.160492 L1199.30846,474.046207 L1199.30846,464.060517 C1199.30846,464.030941 1199.29966,463.967916 1199.23511,463.94773 L1199.18931,463.941368 L1197.66066,463.941368 C1196.85243,463.941368 1196.21051,463.336186 1196.15382,462.544744 L1196.14975,462.430459 L1196.14975,456.627656 C1196.14975,455.776529 1196.81311,455.076166 1197.64952,455.016874 L1197.7646,455.012808 L1201.02218,455.012808 C1201.41723,455.012808 1201.76475,455.079706 1202.09554,455.156287 L1202.56097,455.266316 L1202.56097,455.266316 C1203.12123,455.390535 1203.6181,455.656719 1204.01104,456.042051 C1204.09977,455.933043 1204.19864,455.83164 1204.30258,455.737842 C1204.78128,455.307934 1205.39206,455.054831 1206.04314,455.015632 L1206.22163,455.010273 L1206.34078,455.010273 Z M1201.02471,456.402033 L1197.7646,456.402033 C1197.6603,456.402033 1197.57276,456.474671 1197.54988,456.572054 L1197.54405,456.622585 L1197.54405,462.430459 C1197.54405,462.519187 1197.60214,462.542777 1197.64204,462.548176 L1197.66319,462.549608 L1199.19185,462.549608 C1200.00008,462.549608 1200.642,463.154791 1200.69869,463.946232 L1200.70276,464.060517 L1200.70276,474.046207 C1200.70276,474.134935 1200.76085,474.158525 1200.80076,474.163924 L1200.82191,474.165356 L1207.34214,474.165356 C1207.43087,474.165356 1207.45446,474.10726 1207.45986,474.067356 L1207.46129,474.046207 L1207.46129,464.060517 C1207.46129,463.252287 1208.06647,462.610366 1208.85791,462.55368 L1208.9722,462.549608 L1210.29805,462.549608 C1210.38677,462.549608 1210.41036,462.491512 1210.41576,462.451608 L1210.41719,462.430459 L1210.41466,462.430459 L1210.41466,456.622585 C1210.41466,456.533857 1210.35656,456.510267 1210.31666,456.504868 L1206.3129,456.402033 L1206.2191,456.402033 C1205.4914,456.402033 1204.90703,456.893488 1204.78934,457.58756 L1204.7741,457.705066 L1203.38741,457.705066 C1203.36713,457.489584 1203.27333,457.291847 1203.10095,457.101716 C1202.91625,456.897461 1202.67567,456.747218 1202.39998,456.660567 L1202.2593,456.622585 L1201.9703,456.554138 C1201.69854,456.48924 1201.45598,456.430832 1201.21018,456.410064 L1201.02471,456.402033 Z M1204.08709,462.260609 C1204.43549,462.260609 1204.72267,462.522912 1204.76192,462.860784 L1204.7665,462.940011 L1204.7665,468.45128 C1204.7665,468.826472 1204.46229,469.130682 1204.08709,469.130682 C1203.7387,469.130682 1203.45151,468.868379 1203.41226,468.530507 L1203.40769,468.45128 L1203.40769,462.940011 C1203.40769,462.564819 1203.7119,462.260609 1204.08709,462.260609 Z M1213.25902,455.053369 C1213.61683,455.053369 1213.91125,455.32223 1213.95148,455.667128 L1213.95617,455.747982 L1213.95617,462.716924 C1213.95617,463.102256 1213.64435,463.414071 1213.25902,463.414071 C1212.90121,463.414071 1212.60679,463.14521 1212.56656,462.798283 L1212.56187,462.716924 L1212.56187,455.750517 C1212.56187,455.365184 1212.87369,455.053369 1213.25902,455.053369 Z M1194.69715,455.053369 C1195.05496,455.053369 1195.34938,455.32223 1195.38961,455.667128 L1195.3943,455.747982 L1195.3943,462.714388 C1195.3943,463.099721 1195.08248,463.411536 1194.69715,463.411536 C1194.33934,463.411536 1194.04492,463.142675 1194.00469,462.795748 L1194,462.714388 L1194,455.747982 C1194,455.365184 1194.31182,455.053369 1194.69715,455.053369 Z" id="形状"></path>
        </g>
    </g>
</svg>