<?xml version="1.0" encoding="UTF-8"?>
<svg width="20px" height="23px" viewBox="0 0 20 23" version="1.1" xmlns="http://www.w3.org/2000/svg" xmlns:xlink="http://www.w3.org/1999/xlink">
    <title>工频红</title>
    <g id="页面-1" stroke="none" stroke-width="1" fill="none" fill-rule="evenodd">
        <g id="编组-62" transform="translate(-353.000000, -4.000000)" fill="#FF3939" fill-rule="nonzero">
            <path d="M366.68691,25.3200434 C367.072243,25.3200434 367.384058,25.6318585 367.384058,26.017191 C367.384058,26.3749998 367.115197,26.6694186 366.768269,26.7096529 L366.68691,26.7143387 L359.025891,26.7143387 C358.640558,26.7143387 358.328743,26.4025236 358.328743,26.017191 C358.328743,25.6593822 358.597604,25.3649635 358.944532,25.3247292 L359.025891,25.3200434 L366.68691,25.3200434 Z M365.340781,4 L369.308185,4.1014033 C370.113996,4.106243 370.748877,4.70933597 370.80273,5.49837253 L370.806426,5.61231243 L370.806426,11.4201863 C370.806426,12.2284167 370.201237,12.8703373 369.409795,12.9270238 L369.29551,12.9310955 L367.969662,12.9310955 C367.940086,12.9310955 367.877061,12.9398978 367.856874,13.0044485 L367.850513,13.0502443 L367.850513,23.0359341 C367.850513,23.8441644 367.24533,24.486085 366.453889,24.5427716 L366.339604,24.5468432 L359.819372,24.5468432 C359.011141,24.5468432 358.369221,23.9416604 358.312534,23.150219 L358.308463,23.0359341 L358.308463,13.0502443 C358.308463,13.0206684 358.29966,12.9576434 358.23511,12.9374566 L358.189314,12.9310955 L356.660659,12.9310955 C355.852429,12.9310955 355.210508,12.3259126 355.153822,11.5344712 L355.14975,11.4201863 L355.14975,5.6173826 C355.14975,4.76625622 355.813108,4.06589297 356.649515,4.00660076 L356.764597,4.00253508 L360.022178,4.00253508 C360.417229,4.00253508 360.764746,4.06943309 361.095539,4.14601371 L361.560973,4.25604333 L361.560973,4.25604333 C362.121227,4.38026237 362.618103,4.64644602 363.011041,5.03177855 C363.099768,4.92277001 363.198637,4.82136671 363.302575,4.72756866 C363.781283,4.29766093 364.392062,4.04455759 365.043137,4.00535918 L365.221632,4 L365.340781,4 Z M360.024713,5.39176026 L356.764597,5.39176026 C356.660297,5.39176026 356.572759,5.46439813 356.549877,5.56178078 L356.544045,5.61231243 L356.544045,11.4201863 C356.544045,11.5089142 356.602141,11.5325045 356.642045,11.5379033 L356.663194,11.5393352 L358.191849,11.5393352 C359.000079,11.5393352 359.642,12.144518 359.698686,12.9359594 L359.702758,13.0502443 L359.702758,23.0359341 C359.702758,23.124662 359.760854,23.1482523 359.800758,23.1536511 L359.821907,23.1550829 L366.342139,23.1550829 C366.430867,23.1550829 366.454457,23.0969873 366.459856,23.0570832 L366.461288,23.0359341 L366.461288,13.0502443 C366.461288,12.2420139 367.066471,11.6000934 367.857912,11.5434068 L367.972197,11.5393352 L369.298045,11.5393352 C369.386773,11.5393352 369.410363,11.4812395 369.415762,11.4413355 L369.417194,11.4201863 L369.414659,11.4201863 L369.414659,5.61231243 C369.414659,5.52358455 369.356563,5.4999942 369.316659,5.49459541 L365.312895,5.39176026 L365.219097,5.39176026 C364.491395,5.39176026 363.907034,5.88321514 363.78934,6.57728737 L363.7741,6.69479264 L362.38741,6.69479264 C362.36713,6.47931063 362.273332,6.2815742 362.100946,6.09144302 C361.916247,5.8871878 361.675673,5.73694537 361.399977,5.65029433 L361.259299,5.61231243 L360.970299,5.54386521 C360.698538,5.4789671 360.455982,5.4205588 360.21018,5.3997914 L360.024713,5.39176026 Z M363.087093,11.2503358 C363.435486,11.2503358 363.722674,11.5126392 363.761924,11.850511 L363.766495,11.9297379 L363.766495,17.4410071 C363.766495,17.8161993 363.462285,18.1204092 363.087093,18.1204092 C362.7387,18.1204092 362.451512,17.8581058 362.412262,17.520234 L362.407691,17.4410071 L362.407691,11.9297379 C362.407691,11.5545457 362.711901,11.2503358 363.087093,11.2503358 Z M372.259021,4.0430964 C372.61683,4.0430964 372.911249,4.31195742 372.951483,4.6568552 L372.956169,4.73770899 L372.956169,11.7066506 C372.956169,12.0919832 372.644354,12.4037983 372.259021,12.4037983 C371.901213,12.4037983 371.606794,12.1349373 371.566559,11.7880098 L371.561874,11.7066506 L371.561874,4.74024407 C371.561874,4.35491154 371.873689,4.0430964 372.259021,4.0430964 Z M353.697148,4.0430964 C354.054956,4.0430964 354.349375,4.31195742 354.38961,4.6568552 L354.394295,4.73770899 L354.394295,11.7041155 C354.394295,12.0894481 354.08248,12.4012632 353.697148,12.4012632 C353.339339,12.4012632 353.04492,12.1324022 353.004686,11.7854747 L353,11.7041155 L353,4.73770899 C353,4.35491154 353.311815,4.0430964 353.697148,4.0430964 Z" id="工频红"></path>
        </g>
    </g>
</svg>