<?xml version="1.0" encoding="UTF-8"?>
<svg width="22px" height="24px" viewBox="0 0 22 24" version="1.1" xmlns="http://www.w3.org/2000/svg" xmlns:xlink="http://www.w3.org/1999/xlink">
    <title>工频绿</title>
    <g id="页面-1" stroke="none" stroke-width="1" fill="none" fill-rule="evenodd">
        <g id="编组-62" transform="translate(-352.000000, -43.000000)" fill="#35FEA7" fill-rule="nonzero" stroke="#35FEA7" stroke-width="0.4">
            <path d="M366.68691,65.3200434 C367.072243,65.3200434 367.384058,65.6318585 367.384058,66.017191 C367.384058,66.3749998 367.115197,66.6694186 366.768269,66.7096529 L366.68691,66.7143387 L359.025891,66.7143387 C358.640558,66.7143387 358.328743,66.4025236 358.328743,66.017191 C358.328743,65.6593822 358.597604,65.3649635 358.944532,65.3247292 L359.025891,65.3200434 L366.68691,65.3200434 Z M365.340781,44 L369.308185,44.1014033 C370.113996,44.106243 370.748877,44.709336 370.80273,45.4983725 L370.806426,45.6123124 L370.806426,51.4201863 C370.806426,52.2284167 370.201237,52.8703373 369.409795,52.9270238 L369.29551,52.9310955 L367.969662,52.9310955 C367.940086,52.9310955 367.877061,52.9398978 367.856874,53.0044485 L367.850513,53.0502443 L367.850513,63.0359341 C367.850513,63.8441644 367.24533,64.486085 366.453889,64.5427716 L366.339604,64.5468432 L359.819372,64.5468432 C359.011141,64.5468432 358.369221,63.9416604 358.312534,63.150219 L358.308463,63.0359341 L358.308463,53.0502443 C358.308463,53.0206684 358.29966,52.9576434 358.23511,52.9374566 L358.189314,52.9310955 L356.660659,52.9310955 C355.852429,52.9310955 355.210508,52.3259126 355.153822,51.5344712 L355.14975,51.4201863 L355.14975,45.6173826 C355.14975,44.7662562 355.813108,44.065893 356.649515,44.0066008 L356.764597,44.0025351 L360.022178,44.0025351 C360.417229,44.0025351 360.764746,44.0694331 361.095539,44.1460137 L361.560973,44.2560433 L361.560973,44.2560433 C362.121227,44.3802624 362.618103,44.646446 363.011041,45.0317786 C363.099768,44.92277 363.198637,44.8213667 363.302575,44.7275687 C363.781283,44.2976609 364.392062,44.0445576 365.043137,44.0053592 L365.221632,44 L365.340781,44 Z M360.024713,45.3917603 L356.764597,45.3917603 C356.660297,45.3917603 356.572759,45.4643981 356.549877,45.5617808 L356.544045,45.6123124 L356.544045,51.4201863 C356.544045,51.5089142 356.602141,51.5325045 356.642045,51.5379033 L356.663194,51.5393352 L358.191849,51.5393352 C359.000079,51.5393352 359.642,52.144518 359.698686,52.9359594 L359.702758,53.0502443 L359.702758,63.0359341 C359.702758,63.124662 359.760854,63.1482523 359.800758,63.1536511 L359.821907,63.1550829 L366.342139,63.1550829 C366.430867,63.1550829 366.454457,63.0969873 366.459856,63.0570832 L366.461288,63.0359341 L366.461288,53.0502443 C366.461288,52.2420139 367.066471,51.6000934 367.857912,51.5434068 L367.972197,51.5393352 L369.298045,51.5393352 C369.386773,51.5393352 369.410363,51.4812395 369.415762,51.4413355 L369.417194,51.4201863 L369.414659,51.4201863 L369.414659,45.6123124 C369.414659,45.5235845 369.356563,45.4999942 369.316659,45.4945954 L365.312895,45.3917603 L365.219097,45.3917603 C364.491395,45.3917603 363.907034,45.8832151 363.78934,46.5772874 L363.7741,46.6947926 L362.38741,46.6947926 C362.36713,46.4793106 362.273332,46.2815742 362.100946,46.091443 C361.916247,45.8871878 361.675673,45.7369454 361.399977,45.6502943 L361.259299,45.6123124 L360.970299,45.5438652 C360.698538,45.4789671 360.455982,45.4205588 360.21018,45.3997914 L360.024713,45.3917603 Z M363.087093,51.2503358 C363.435486,51.2503358 363.722674,51.5126392 363.761924,51.850511 L363.766495,51.9297379 L363.766495,57.4410071 C363.766495,57.8161993 363.462285,58.1204092 363.087093,58.1204092 C362.7387,58.1204092 362.451512,57.8581058 362.412262,57.520234 L362.407691,57.4410071 L362.407691,51.9297379 C362.407691,51.5545457 362.711901,51.2503358 363.087093,51.2503358 Z M372.259021,44.0430964 C372.61683,44.0430964 372.911249,44.3119574 372.951483,44.6568552 L372.956169,44.737709 L372.956169,51.7066506 C372.956169,52.0919832 372.644354,52.4037983 372.259021,52.4037983 C371.901213,52.4037983 371.606794,52.1349373 371.566559,51.7880098 L371.561874,51.7066506 L371.561874,44.7402441 C371.561874,44.3549115 371.873689,44.0430964 372.259021,44.0430964 Z M353.697148,44.0430964 C354.054956,44.0430964 354.349375,44.3119574 354.38961,44.6568552 L354.394295,44.737709 L354.394295,51.7041155 C354.394295,52.0894481 354.08248,52.4012632 353.697148,52.4012632 C353.339339,52.4012632 353.04492,52.1324022 353.004686,51.7854747 L353,51.7041155 L353,44.737709 C353,44.3549115 353.311815,44.0430964 353.697148,44.0430964 Z" id="工频绿"></path>
        </g>
    </g>
</svg>