<?xml version="1.0" encoding="UTF-8"?>
<svg width="16px" height="16px" viewBox="0 0 16 16" version="1.1" xmlns="http://www.w3.org/2000/svg" xmlns:xlink="http://www.w3.org/1999/xlink">
    <!-- Generator: Sketch 60 (88103) - https://sketch.com -->
    <title>形状备份</title>
    <desc>Created with Sketch.</desc>
    <g id="页面-1" stroke="none" stroke-width="1" fill="none" fill-rule="evenodd" opacity="0.600000024">
        <g id="集团运维地图备份-3" transform="translate(-828.000000, -195.000000)" fill="#96A8DC" fill-rule="nonzero">
            <path d="M836.000032,195 C831.583149,195 828,198.580847 828,202.999329 C828,207.417832 831.583149,211 836.000032,211 C840.419451,211 844,207.417853 844,202.999329 C844,198.580847 840.419451,195 836.000032,195 Z M837.254534,205.944159 C836.651087,206.84942 836.037582,207.549289 835.003459,207.549289 C834.2974,207.434157 834.009401,206.928277 834.162159,206.413723 L835.491719,202.010245 C835.524282,201.902573 835.469235,201.78742 835.371524,201.752317 C835.273876,201.718494 835.081074,201.846243 834.913334,202.027807 L834.112078,202.994341 C834.089531,202.832833 834.109563,202.563653 834.109563,202.45598 C834.71301,201.549462 835.704532,200.834589 836.37562,200.834589 C837.016595,200.899657 837.319597,201.410503 837.206925,201.972692 L835.869864,206.396139 C835.849831,206.49631 835.904899,206.597716 835.995024,206.630303 C836.092672,206.664126 836.30054,206.536356 836.465744,206.354878 L837.269537,205.388258 C837.292041,205.549809 837.254534,205.835251 837.254534,205.944159 Z M837.076713,200.192285 C836.568421,200.192285 836.155262,199.822871 836.155262,199.277029 C836.155262,198.732359 836.568443,198.361751 837.076713,198.361751 C837.584984,198.361751 837.995671,198.732359 837.995671,199.277029 C837.995671,199.822871 837.584963,200.192285 837.076713,200.192285 Z" id="形状备份"></path>
        </g>
    </g>
</svg>