<?xml version="1.0" encoding="UTF-8"?>
<svg width="24px" height="26px" viewBox="0 0 24 26" version="1.1" xmlns="http://www.w3.org/2000/svg" xmlns:xlink="http://www.w3.org/1999/xlink">
    <title>加药灰</title>
    <g id="页面-1" stroke="none" stroke-width="1" fill="none" fill-rule="evenodd">
        <g id="编组-62" transform="translate(0.000000, -83.000000)" fill="#CDD8F7" fill-rule="nonzero">
            <path d="M17.3389831,91.734375 C19.4098613,91.734375 21.0982397,93.3578828 21.198664,95.4010138 L21.2033898,95.59375 L21.2033898,105.140625 C21.2033898,107.208807 19.5777653,108.894987 17.5319705,108.99528 L17.3389831,109 L6.55932203,109 C4.48844376,109 2.80006537,107.376492 2.69964104,105.333361 L2.69491525,105.140625 L2.69491525,95.59375 C2.69491525,93.5255682 4.32053976,91.8393882 6.36633459,91.7390946 L6.55932203,91.734375 L17.3389831,91.734375 Z M17.3389831,93.359375 L6.55932203,93.359375 C5.38008475,93.359375 4.40632062,94.2828003 4.3272209,95.441357 L4.3220339,95.59375 L4.3220339,105.140625 C4.3220339,106.318327 5.24666314,107.290823 6.40673037,107.36982 L6.55932203,107.375 L17.3389831,107.375 C18.5182203,107.375 19.4919845,106.451575 19.5710842,105.293018 L19.5762712,105.140625 L19.5762712,95.59375 C19.5762712,94.4160482 18.6516419,93.443552 17.4915747,93.3645552 L17.3389831,93.359375 Z M14.420339,95.2890625 C15.1525424,95.2890625 15.8338983,95.5734375 16.3423729,96.08125 C16.8508475,96.5992188 17.1355932,97.2796875 17.1355932,98.0007813 C17.1355932,98.665554 16.9002661,99.2883587 16.4754549,99.777629 L16.3423729,99.9203125 L11.5932203,104.663281 C11.0745763,105.171094 10.3932203,105.455469 9.67118644,105.455469 C8.93898305,105.455469 8.25762712,105.171094 7.74915254,104.663281 C7.24067797,104.145313 6.9559322,103.464844 6.9559322,102.74375 C6.9559322,102.078977 7.19125928,101.456173 7.6160705,100.966902 L7.74915254,100.824219 L12.4983051,96.08125 C12.9697997,95.6196023 13.5757669,95.3426136 14.2245209,95.2960673 L14.420339,95.2890625 Z M10.3525424,99.5445313 L8.42033898,101.474219 C8.08474576,101.809375 7.90169492,102.25625 7.90169492,102.733594 C7.90169492,103.210938 8.08474576,103.657813 8.42033898,103.992969 C8.7559322,104.328125 9.20338983,104.510938 9.68135593,104.510938 C10.1062147,104.510938 10.506968,104.366493 10.8264769,104.099003 L10.9423729,103.992969 L12.8847458,102.063281 C12.3228814,101.064795 11.3514963,100.254041 10.7233365,99.799893 L10.4605287,99.6162226 L10.4605287,99.6162226 L10.3525424,99.5445313 Z M14.420339,96.2234375 C13.9954802,96.2234375 13.5947269,96.3678819 13.275218,96.6353717 L13.159322,96.7414063 L10.9322034,98.965625 L11.2078072,99.1572366 C11.8092264,99.5897394 12.6835676,100.313009 13.3205665,101.238645 L13.4745763,101.474219 L15.6915254,99.2601563 C16.0271186,98.925 16.2101695,98.478125 16.2,98.0007813 C16.2,97.5234375 16.0169492,97.0765625 15.6813559,96.7414063 C15.3457627,96.40625 14.8983051,96.2234375 14.420339,96.2234375 Z M12.8033898,97.909375 C12.9661017,97.746875 13.220339,97.746875 13.3728814,97.909375 C13.5152542,98.0426758 13.5330508,98.2537354 13.4262712,98.4132797 L13.3728814,98.478125 L12.8237288,99.0265625 C12.7423729,99.1078125 12.640678,99.1484375 12.5389831,99.1484375 C12.4372881,99.1484375 12.3355932,99.1078125 12.2542373,99.0265625 C12.1118644,98.8932617 12.0940678,98.6822021 12.2008475,98.5226578 L12.2542373,98.4578125 L12.8033898,97.909375 Z M13.9830508,96.8429688 C14.1050847,96.8429688 14.2271186,96.8835938 14.3084746,96.975 C14.3898305,97.05625 14.440678,97.178125 14.440678,97.3 C14.440678,97.421875 14.3898305,97.5335938 14.3084746,97.625 C14.2271186,97.70625 14.1050847,97.7570313 13.9830508,97.7570313 C13.8610169,97.7570313 13.7491525,97.70625 13.6576271,97.625 C13.5762712,97.54375 13.5254237,97.421875 13.5254237,97.3 C13.5254237,97.178125 13.5762712,97.05625 13.6576271,96.975 C13.7389831,96.89375 13.8610169,96.8429688 13.9830508,96.8429688 Z M21.2033898,83 L21.2033898,84.5742188 L24,84.5742188 L24,88.1289063 L21.2033898,88.1289063 L21.2033898,89.703125 L2.69491525,89.703125 L2.69491525,88.1289063 L0,88.1289063 L0,84.5742188 L2.69491525,84.5742188 L2.69491525,83 L21.2033898,83 Z M19.5762712,84.625 L4.3220339,84.625 L4.3220339,88.078125 L19.5762712,88.078125 L19.5762712,84.625 Z" id="加药灰"></path>
        </g>
    </g>
</svg>