<?xml version="1.0" encoding="UTF-8"?>
<svg width="24px" height="26px" viewBox="0 0 24 26" version="1.1" xmlns="http://www.w3.org/2000/svg" xmlns:xlink="http://www.w3.org/1999/xlink">
    <title>加药红</title>
    <g id="页面-1" stroke="none" stroke-width="1" fill="none" fill-rule="evenodd">
        <g id="编组-62" transform="translate(0.000000, -3.000000)" fill="#FF3939" fill-rule="nonzero">
            <path d="M17.3389831,11.734375 C19.4098613,11.734375 21.0982397,13.3578828 21.198664,15.4010138 L21.2033898,15.59375 L21.2033898,25.140625 C21.2033898,27.2088068 19.5777653,28.8949868 17.5319705,28.9952804 L17.3389831,29 L6.55932203,29 C4.48844376,29 2.80006537,27.3764922 2.69964104,25.3333612 L2.69491525,25.140625 L2.69491525,15.59375 C2.69491525,13.5255682 4.32053976,11.8393882 6.36633459,11.7390946 L6.55932203,11.734375 L17.3389831,11.734375 Z M17.3389831,13.359375 L6.55932203,13.359375 C5.38008475,13.359375 4.40632062,14.2828003 4.3272209,15.441357 L4.3220339,15.59375 L4.3220339,25.140625 C4.3220339,26.3183268 5.24666314,27.290823 6.40673037,27.3698198 L6.55932203,27.375 L17.3389831,27.375 C18.5182203,27.375 19.4919845,26.4515747 19.5710842,25.293018 L19.5762712,25.140625 L19.5762712,15.59375 C19.5762712,14.4160482 18.6516419,13.443552 17.4915747,13.3645552 L17.3389831,13.359375 Z M14.420339,15.2890625 C15.1525424,15.2890625 15.8338983,15.5734375 16.3423729,16.08125 C16.8508475,16.5992188 17.1355932,17.2796875 17.1355932,18.0007813 C17.1355932,18.665554 16.9002661,19.2883587 16.4754549,19.777629 L16.3423729,19.9203125 L11.5932203,24.6632813 C11.0745763,25.1710938 10.3932203,25.4554688 9.67118644,25.4554688 C8.93898305,25.4554688 8.25762712,25.1710938 7.74915254,24.6632813 C7.24067797,24.1453125 6.9559322,23.4648438 6.9559322,22.74375 C6.9559322,22.0789773 7.19125928,21.4561725 7.6160705,20.9669022 L7.74915254,20.8242188 L12.4983051,16.08125 C12.9697997,15.6196023 13.5757669,15.3426136 14.2245209,15.2960673 L14.420339,15.2890625 Z M10.3525424,19.5445313 L8.42033898,21.4742188 C8.08474576,21.809375 7.90169492,22.25625 7.90169492,22.7335938 C7.90169492,23.2109375 8.08474576,23.6578125 8.42033898,23.9929688 C8.7559322,24.328125 9.20338983,24.5109375 9.68135593,24.5109375 C10.1062147,24.5109375 10.506968,24.3664931 10.8264769,24.0990033 L10.9423729,23.9929688 L12.8847458,22.0632813 C12.3228814,21.0647949 11.3514963,20.2540405 10.7233365,19.799893 L10.4605287,19.6162226 L10.4605287,19.6162226 L10.3525424,19.5445313 Z M14.420339,16.2234375 C13.9954802,16.2234375 13.5947269,16.3678819 13.275218,16.6353717 L13.159322,16.7414063 L10.9322034,18.965625 L11.2078072,19.1572366 C11.8092264,19.5897394 12.6835676,20.3130088 13.3205665,21.2386449 L13.4745763,21.4742188 L15.6915254,19.2601563 C16.0271186,18.925 16.2101695,18.478125 16.2,18.0007813 C16.2,17.5234375 16.0169492,17.0765625 15.6813559,16.7414063 C15.3457627,16.40625 14.8983051,16.2234375 14.420339,16.2234375 Z M12.8033898,17.909375 C12.9661017,17.746875 13.220339,17.746875 13.3728814,17.909375 C13.5152542,18.0426758 13.5330508,18.2537354 13.4262712,18.4132797 L13.3728814,18.478125 L12.8237288,19.0265625 C12.7423729,19.1078125 12.640678,19.1484375 12.5389831,19.1484375 C12.4372881,19.1484375 12.3355932,19.1078125 12.2542373,19.0265625 C12.1118644,18.8932617 12.0940678,18.6822021 12.2008475,18.5226578 L12.2542373,18.4578125 L12.8033898,17.909375 Z M13.9830508,16.8429688 C14.1050847,16.8429688 14.2271186,16.8835938 14.3084746,16.975 C14.3898305,17.05625 14.440678,17.178125 14.440678,17.3 C14.440678,17.421875 14.3898305,17.5335938 14.3084746,17.625 C14.2271186,17.70625 14.1050847,17.7570313 13.9830508,17.7570313 C13.8610169,17.7570313 13.7491525,17.70625 13.6576271,17.625 C13.5762712,17.54375 13.5254237,17.421875 13.5254237,17.3 C13.5254237,17.178125 13.5762712,17.05625 13.6576271,16.975 C13.7389831,16.89375 13.8610169,16.8429688 13.9830508,16.8429688 Z M21.2033898,3 L21.2033898,4.57421875 L24,4.57421875 L24,8.12890625 L21.2033898,8.12890625 L21.2033898,9.703125 L2.69491525,9.703125 L2.69491525,8.12890625 L0,8.12890625 L0,4.57421875 L2.69491525,4.57421875 L2.69491525,3 L21.2033898,3 Z M19.5762712,4.625 L4.3220339,4.625 L4.3220339,8.078125 L19.5762712,8.078125 L19.5762712,4.625 Z" id="加药红"></path>
        </g>
    </g>
</svg>