<?xml version="1.0" encoding="UTF-8"?>
<svg width="26px" height="28px" viewBox="0 0 26 28" version="1.1" xmlns="http://www.w3.org/2000/svg" xmlns:xlink="http://www.w3.org/1999/xlink">
    <title>加药绿</title>
    <g id="页面-1" stroke="none" stroke-width="1" fill="none" fill-rule="evenodd">
        <g id="编组-62" transform="translate(1.000000, -42.000000)" fill="#35FEA7" fill-rule="nonzero" stroke="#35FEA7" stroke-width="0.4">
            <path d="M17.3389831,51.734375 C19.4098613,51.734375 21.0982397,53.3578828 21.198664,55.4010138 L21.2033898,55.59375 L21.2033898,65.140625 C21.2033898,67.2088068 19.5777653,68.8949868 17.5319705,68.9952804 L17.3389831,69 L6.55932203,69 C4.48844376,69 2.80006537,67.3764922 2.69964104,65.3333612 L2.69491525,65.140625 L2.69491525,55.59375 C2.69491525,53.5255682 4.32053976,51.8393882 6.36633459,51.7390946 L6.55932203,51.734375 L17.3389831,51.734375 Z M17.3389831,53.359375 L6.55932203,53.359375 C5.38008475,53.359375 4.40632062,54.2828003 4.3272209,55.441357 L4.3220339,55.59375 L4.3220339,65.140625 C4.3220339,66.3183268 5.24666314,67.290823 6.40673037,67.3698198 L6.55932203,67.375 L17.3389831,67.375 C18.5182203,67.375 19.4919845,66.4515747 19.5710842,65.293018 L19.5762712,65.140625 L19.5762712,55.59375 C19.5762712,54.4160482 18.6516419,53.443552 17.4915747,53.3645552 L17.3389831,53.359375 Z M14.420339,55.2890625 C15.1525424,55.2890625 15.8338983,55.5734375 16.3423729,56.08125 C16.8508475,56.5992188 17.1355932,57.2796875 17.1355932,58.0007813 C17.1355932,58.665554 16.9002661,59.2883587 16.4754549,59.777629 L16.3423729,59.9203125 L11.5932203,64.6632813 C11.0745763,65.1710938 10.3932203,65.4554688 9.67118644,65.4554688 C8.93898305,65.4554688 8.25762712,65.1710938 7.74915254,64.6632813 C7.24067797,64.1453125 6.9559322,63.4648438 6.9559322,62.74375 C6.9559322,62.0789773 7.19125928,61.4561725 7.6160705,60.9669022 L7.74915254,60.8242188 L12.4983051,56.08125 C12.9697997,55.6196023 13.5757669,55.3426136 14.2245209,55.2960673 L14.420339,55.2890625 Z M10.3525424,59.5445313 L8.42033898,61.4742188 C8.08474576,61.809375 7.90169492,62.25625 7.90169492,62.7335938 C7.90169492,63.2109375 8.08474576,63.6578125 8.42033898,63.9929688 C8.7559322,64.328125 9.20338983,64.5109375 9.68135593,64.5109375 C10.1062147,64.5109375 10.506968,64.3664931 10.8264769,64.0990033 L10.9423729,63.9929688 L12.8847458,62.0632813 C12.3228814,61.0647949 11.3514963,60.2540405 10.7233365,59.799893 L10.4605287,59.6162226 L10.4605287,59.6162226 L10.3525424,59.5445313 Z M14.420339,56.2234375 C13.9954802,56.2234375 13.5947269,56.3678819 13.275218,56.6353717 L13.159322,56.7414063 L10.9322034,58.965625 L11.2078072,59.1572366 C11.8092264,59.5897394 12.6835676,60.3130088 13.3205665,61.2386449 L13.4745763,61.4742188 L15.6915254,59.2601563 C16.0271186,58.925 16.2101695,58.478125 16.2,58.0007813 C16.2,57.5234375 16.0169492,57.0765625 15.6813559,56.7414063 C15.3457627,56.40625 14.8983051,56.2234375 14.420339,56.2234375 Z M12.8033898,57.909375 C12.9661017,57.746875 13.220339,57.746875 13.3728814,57.909375 C13.5152542,58.0426758 13.5330508,58.2537354 13.4262712,58.4132797 L13.3728814,58.478125 L12.8237288,59.0265625 C12.7423729,59.1078125 12.640678,59.1484375 12.5389831,59.1484375 C12.4372881,59.1484375 12.3355932,59.1078125 12.2542373,59.0265625 C12.1118644,58.8932617 12.0940678,58.6822021 12.2008475,58.5226578 L12.2542373,58.4578125 L12.8033898,57.909375 Z M13.9830508,56.8429688 C14.1050847,56.8429688 14.2271186,56.8835938 14.3084746,56.975 C14.3898305,57.05625 14.440678,57.178125 14.440678,57.3 C14.440678,57.421875 14.3898305,57.5335938 14.3084746,57.625 C14.2271186,57.70625 14.1050847,57.7570313 13.9830508,57.7570313 C13.8610169,57.7570313 13.7491525,57.70625 13.6576271,57.625 C13.5762712,57.54375 13.5254237,57.421875 13.5254237,57.3 C13.5254237,57.178125 13.5762712,57.05625 13.6576271,56.975 C13.7389831,56.89375 13.8610169,56.8429688 13.9830508,56.8429688 Z M21.2033898,43 L21.2033898,44.5742188 L24,44.5742188 L24,48.1289063 L21.2033898,48.1289063 L21.2033898,49.703125 L2.69491525,49.703125 L2.69491525,48.1289063 L0,48.1289063 L0,44.5742188 L2.69491525,44.5742188 L2.69491525,43 L21.2033898,43 Z M19.5762712,44.625 L4.3220339,44.625 L4.3220339,48.078125 L19.5762712,48.078125 L19.5762712,44.625 Z" id="加药绿"></path>
        </g>
    </g>
</svg>