<?xml version="1.0" encoding="UTF-8"?>
<svg width="26px" height="26px" viewBox="0 0 26 26" version="1.1" xmlns="http://www.w3.org/2000/svg" xmlns:xlink="http://www.w3.org/1999/xlink">
    <!-- Generator: Sketch 60 (88103) - https://sketch.com -->
    <title>形状结合</title>
    <desc>Created with Sketch.</desc>
    <g id="页面-1" stroke="none" stroke-width="1" fill="none" fill-rule="evenodd">
        <g id="集团运维地图备份-2" transform="translate(-310.000000, -454.000000)" fill="#C0CEFF" fill-rule="nonzero">
            <g id="编组-27" transform="translate(280.000000, 320.000000)">
                <g id="编组-27备份-8" transform="translate(0.000000, 52.000000)">
                    <g id="编组-13" transform="translate(30.000000, 75.000000)">
                        <g id="编组-8" transform="translate(0.000000, 7.000000)">
                            <path d="M13,0 C20.1797017,0 26,5.82029825 26,13 C26,20.1797017 20.1797017,26 13,26 C5.82029825,26 0,20.1797017 0,13 C0,5.82029825 5.82029825,0 13,0 Z M13,1 C6.372583,1 1,6.372583 1,13 C1,19.627417 6.372583,25 13,25 C19.627417,25 25,19.627417 25,13 C25,6.372583 19.627417,1 13,1 Z M14.4500181,16.5001355 C15.4165505,16.5001355 16.1999277,17.2837034 16.1999277,18.2500677 C16.1999277,19.2164321 15.4163699,20 14.4500181,20 C13.4836662,20 12.7001084,19.2164321 12.7001084,18.2500677 C12.7001084,17.2837034 13.4834856,16.5001355 14.4500181,16.5001355 Z M7.80007225,12.2999729 C9.348764,12.2999729 10.6001445,13.5511889 10.6001445,15.1000813 C10.6001445,16.6489736 9.34894463,17.9001897 7.80007225,17.9001897 C6.25119988,17.9001897 5,16.6489736 5,15.1000813 C5,13.5511889 6.25119988,12.2999729 7.80007225,12.2999729 Z M14.8000723,6 C17.119678,6 19,7.88034629 19,10.1999819 C19,12.5187144 17.1187748,14.3999639 14.8000723,14.3999639 C12.4804665,14.3999639 10.6001445,12.5196176 10.6001445,10.1999819 C10.5999639,7.88124944 12.481189,6 14.8000723,6 Z" id="形状结合"></path>
                        </g>
                    </g>
                </g>
            </g>
        </g>
    </g>
</svg>