<?xml version="1.0" encoding="UTF-8"?>
<svg width="23px" height="24px" viewBox="0 0 23 24" version="1.1" xmlns="http://www.w3.org/2000/svg" xmlns:xlink="http://www.w3.org/1999/xlink">
    <title>形状</title>
    <g id="页面-1" stroke="none" stroke-width="1" fill="none" fill-rule="evenodd">
        <g id="加药监控备份" transform="translate(-1740.000000, -454.000000)" fill="#35FEA7" fill-rule="nonzero">
            <path d="M1742.6837,472.622612 L1742.84064,472.412098 L1742.84064,472.412098 L1742.97786,472.258674 C1743.2814,471.934995 1743.63205,471.684045 1744.15779,471.816166 C1744.56221,471.921494 1744.88518,472.198671 1745.02841,472.559002 C1745.1604,472.888844 1745.12108,473.254718 1744.91888,473.565157 L1744.58098,474.059643 L1744.58098,474.059643 L1743.82729,475.126656 L1743.82729,475.126656 L1743.44445,475.663392 L1759.58732,475.663392 L1758.92825,474.718788 L1758.92825,474.718788 L1758.1157,473.579016 L1758.1157,473.579016 C1757.85171,473.127217 1757.86013,472.694819 1758.12132,472.306771 C1758.34037,471.954755 1758.76445,471.7441 1759.19133,471.788448 C1759.54772,471.803416 1759.78354,471.997995 1759.99912,472.22872 L1760.07037,472.306771 L1762.70993,476.066178 L1762.70993,476.066178 L1762.83667,476.253781 C1763.05011,476.625199 1763.05292,477.052052 1762.85352,477.398524 C1762.65529,477.73645 1762.28952,477.948607 1761.86218,477.981619 L1761.74419,477.986141 L1745.30861,477.981864 L1743.36251,477.986761 L1743.36251,477.986761 L1742.01594,477.994462 L1742.01594,477.994462 L1741.30723,478 C1740.81014,478 1740.38045,477.769943 1740.15578,477.384666 C1739.94983,477.034036 1739.94918,476.613534 1740.14736,476.2171 L1740.20633,476.109648 L1741.5327,474.229636 L1741.5327,474.229636 L1742.6837,472.622612 L1742.6837,472.622612 Z M1749.62019,454.207069 C1752.95661,453.447602 1756.55421,454.819631 1758.57066,457.627441 C1759.66876,459.149146 1760.24168,460.88705 1760.27257,462.791261 C1760.25853,463.969266 1759.94399,465.116782 1759.2503,466.519301 C1759.0722,466.878407 1758.72726,467.37873 1758.2807,467.956937 L1757.96865,468.353251 L1757.96865,468.353251 L1757.63078,468.768473 L1757.63078,468.768473 L1757.27138,469.198431 L1757.27138,469.198431 L1756.89475,469.638955 L1756.89475,469.638955 L1756.30689,470.310432 L1756.30689,470.310432 L1755.90596,470.759129 L1755.90596,470.759129 L1755.30177,471.423317 L1755.30177,471.423317 L1754.7071,472.064367 L1754.7071,472.064367 L1753.95406,472.858782 L1753.95406,472.858782 L1753.43795,473.39111 L1753.43795,473.39111 L1753.12511,473.707946 L1753.12511,473.707946 L1752.71341,474.115703 L1752.71341,474.115703 L1752.4836,474.336461 C1752.44857,474.369559 1752.41523,474.400751 1752.38369,474.429952 C1752.09161,474.701586 1751.79111,474.837403 1751.4878,474.837403 C1751.19291,474.837403 1750.90084,474.712673 1750.61438,474.457669 C1748.4128,472.513268 1745.69021,469.415706 1743.88025,466.806795 L1743.64947,466.469409 L1743.60453,466.372397 C1743.47815,465.901195 1743.39952,465.230425 1744.18307,464.872865 C1744.46672,464.73982 1744.80092,464.725961 1745.09581,464.836832 C1745.3935,464.947703 1745.63222,465.174989 1745.75579,465.463254 C1745.98787,465.879776 1746.4069,466.473601 1746.92391,467.141326 L1747.28212,467.59629 L1747.28212,467.59629 L1747.6635,468.066342 C1747.79383,468.224784 1747.92706,468.384607 1748.06219,468.544674 L1748.47232,469.024478 C1748.54131,469.104189 1748.61053,469.183679 1748.67985,469.262804 L1749.09618,469.732049 L1749.09618,469.732049 L1749.50931,470.185745 L1749.50931,470.185745 L1749.91338,470.617084 L1749.91338,470.617084 L1750.30254,471.019257 C1750.74557,471.468798 1751.14619,471.844892 1751.46252,472.098887 L1751.76792,471.793913 L1751.76792,471.793913 L1752.35694,471.197996 L1752.35694,471.197996 L1752.91722,470.620488 L1752.91722,470.620488 L1753.44908,470.061032 L1753.44908,470.061032 L1753.95282,469.519269 C1754.03445,469.43043 1754.11493,469.342313 1754.19425,469.254911 L1754.65643,468.739019 L1754.65643,468.739019 L1755.0913,468.239927 C1755.37218,467.912719 1755.63507,467.596473 1755.88039,467.290712 L1756.23524,466.839873 C1756.52006,466.470628 1756.77776,466.117393 1757.00918,465.779236 C1757.45291,465.133412 1757.7506,464.315738 1757.86856,463.417683 C1758.03706,462.170383 1757.79835,460.953573 1757.16364,459.79497 C1755.9504,457.580321 1754.09964,456.416175 1751.66192,456.33025 C1748.83664,456.219378 1746.32028,457.993316 1745.40754,460.712429 C1745.18287,461.383198 1745.06211,462.081686 1745.05368,462.785718 C1745.04526,463.495292 1744.55378,464.010843 1743.87976,464.010843 C1743.21135,464.010843 1742.70583,463.478662 1742.70862,462.777402 C1742.71426,458.661314 1745.55639,455.138386 1749.62019,454.207069 Z M1751.4878,458.993927 C1753.53234,458.993927 1755.19774,460.637591 1755.19774,462.655444 C1755.19493,463.636653 1754.80737,464.556883 1754.10245,465.249827 C1753.44977,465.891401 1752.59648,466.264963 1751.68187,466.311919 L1751.47376,466.316961 C1749.44045,466.305874 1747.78348,464.664982 1747.78067,462.658216 C1747.78067,460.637591 1749.44326,458.993927 1751.4878,458.993927 Z M1751.49903,461.316676 C1750.74356,461.316676 1750.12852,461.91538 1750.12852,462.655444 C1750.12852,463.013003 1750.27175,463.35116 1750.53012,463.606163 C1750.79131,463.863939 1751.14517,463.994212 1751.51588,463.999756 C1752.24327,463.994212 1752.8527,463.376106 1752.84991,462.6499 C1752.84427,461.920923 1752.23765,461.322219 1751.49903,461.316676 Z" id="形状"></path>
        </g>
    </g>
</svg>