<?xml version="1.0" encoding="UTF-8"?>
<svg width="27px" height="24px" viewBox="0 0 27 24" version="1.1" xmlns="http://www.w3.org/2000/svg" xmlns:xlink="http://www.w3.org/1999/xlink">
    <title>清水绿</title>
    <g id="页面-1" stroke="none" stroke-width="1" fill="none" fill-rule="evenodd">
        <g id="编组-62" transform="translate(-114.000000, -44.000000)" fill="#35FEA7" fill-rule="nonzero">
            <path d="M136.948853,52 C135.238262,52.0054154 133.716111,53.0731954 133.147443,54.6666667 L131.549123,54.6666667 L131.549123,50.6666667 C131.549123,49.930287 130.944737,49.3333333 130.19919,49.3333333 L128.849258,49.3333333 L128.849258,46.6666667 L136.948853,46.6666667 C137.6944,46.6666667 138.298785,46.069713 138.298785,45.3333333 C138.298785,44.5969537 137.6944,44 136.948853,44 L118.049798,44 C117.30425,44 116.699865,44.5969537 116.699865,45.3333333 C116.699865,46.069713 117.30425,46.6666667 118.049798,46.6666667 L126.149393,46.6666667 L126.149393,49.3333333 L124.79946,49.3333333 C124.053913,49.3333333 123.449528,49.930287 123.449528,50.6666667 L123.449528,54.6666667 L121.851207,54.6666667 C121.282539,53.0731954 119.760388,52.0054154 118.049798,52 C115.817009,52 114,53.7946667 114,56 L114,64 C114,66.2053333 115.817009,68 118.049798,68 C119.760388,67.9945846 121.282539,66.9268046 121.851207,65.3333333 L133.148793,65.3333333 C133.717461,66.9268046 135.239612,67.9945846 136.950202,68 C139.182991,68 141,66.2053333 141,64 L141,56 C140.996282,53.7918635 139.18448,52.0029362 136.948853,52 L136.948853,52 Z M126.149393,52 L128.849258,52 L128.849258,54.6666667 L126.149393,54.6666667 L126.149393,52 Z M118.049798,65.3333333 C117.305985,65.3333333 116.699865,64.7346667 116.699865,64 L116.699865,56 C116.699865,55.2653333 117.305985,54.6666667 118.049798,54.6666667 C118.79361,54.6666667 119.39973,55.2653333 119.39973,56 L119.39973,64 C119.39973,64.7346667 118.79361,65.3333333 118.049798,65.3333333 Z M122.099595,57.3333333 L132.899055,57.3333333 L132.899055,62.6666667 L122.099595,62.6666667 L122.099595,57.3333333 Z M138.298785,64 C138.298785,64.7346667 137.692665,65.3333333 136.948853,65.3333333 C136.20504,65.3333333 135.59892,64.7346667 135.59892,64 L135.59892,56 C135.59892,55.2653333 136.20504,54.6666667 136.948853,54.6666667 C137.692665,54.6666667 138.298785,55.2653333 138.298785,56 L138.298785,64 Z" id="清水绿"></path>
        </g>
    </g>
</svg>