<?xml version="1.0" encoding="UTF-8"?>
<svg width="27px" height="24px" viewBox="0 0 27 24" version="1.1" xmlns="http://www.w3.org/2000/svg" xmlns:xlink="http://www.w3.org/1999/xlink">
    <title>清水灰</title>
    <g id="页面-1" stroke="none" stroke-width="1" fill="none" fill-rule="evenodd">
        <g id="编组-62" transform="translate(-114.000000, -84.000000)" fill="#CDD8F7" fill-rule="nonzero">
            <path d="M136.948853,92 C135.238262,92.0054154 133.716111,93.0731954 133.147443,94.6666667 L131.549123,94.6666667 L131.549123,90.6666667 C131.549123,89.930287 130.944737,89.3333333 130.19919,89.3333333 L128.849258,89.3333333 L128.849258,86.6666667 L136.948853,86.6666667 C137.6944,86.6666667 138.298785,86.069713 138.298785,85.3333333 C138.298785,84.5969537 137.6944,84 136.948853,84 L118.049798,84 C117.30425,84 116.699865,84.5969537 116.699865,85.3333333 C116.699865,86.069713 117.30425,86.6666667 118.049798,86.6666667 L126.149393,86.6666667 L126.149393,89.3333333 L124.79946,89.3333333 C124.053913,89.3333333 123.449528,89.930287 123.449528,90.6666667 L123.449528,94.6666667 L121.851207,94.6666667 C121.282539,93.0731954 119.760388,92.0054154 118.049798,92 C115.817009,92 114,93.7946667 114,96 L114,104 C114,106.205333 115.817009,108 118.049798,108 C119.760388,107.994585 121.282539,106.926805 121.851207,105.333333 L133.148793,105.333333 C133.717461,106.926805 135.239612,107.994585 136.950202,108 C139.182991,108 141,106.205333 141,104 L141,96 C140.996282,93.7918635 139.18448,92.0029362 136.948853,92 L136.948853,92 Z M126.149393,92 L128.849258,92 L128.849258,94.6666667 L126.149393,94.6666667 L126.149393,92 Z M118.049798,105.333333 C117.305985,105.333333 116.699865,104.734667 116.699865,104 L116.699865,96 C116.699865,95.2653333 117.305985,94.6666667 118.049798,94.6666667 C118.79361,94.6666667 119.39973,95.2653333 119.39973,96 L119.39973,104 C119.39973,104.734667 118.79361,105.333333 118.049798,105.333333 Z M122.099595,97.3333333 L132.899055,97.3333333 L132.899055,102.666667 L122.099595,102.666667 L122.099595,97.3333333 Z M138.298785,104 C138.298785,104.734667 137.692665,105.333333 136.948853,105.333333 C136.20504,105.333333 135.59892,104.734667 135.59892,104 L135.59892,96 C135.59892,95.2653333 136.20504,94.6666667 136.948853,94.6666667 C137.692665,94.6666667 138.298785,95.2653333 138.298785,96 L138.298785,104 Z" id="清水灰"></path>
        </g>
    </g>
</svg>