<?xml version="1.0" encoding="UTF-8"?>
<svg width="22px" height="16px" viewBox="0 0 22 16" version="1.1" xmlns="http://www.w3.org/2000/svg" xmlns:xlink="http://www.w3.org/1999/xlink">
    <!-- Generator: Sketch 60 (88103) - https://sketch.com -->
    <title>形状</title>
    <desc>Created with Sketch.</desc>
    <g id="页面-1" stroke="none" stroke-width="1" fill="none" fill-rule="evenodd">
        <g id="集团概览备份" transform="translate(-1881.000000, -84.000000)" fill="#10AEFF" fill-rule="nonzero">
            <g id="编组-31" transform="translate(1654.000000, 84.009693)">
                <path d="M227.322688,8.62670273 L230.009693,8.62670273 C229.797561,6.29325035 230.7168,3.95979797 232.343146,2.33345238 C235.454416,-0.777817459 240.545584,-0.777817459 243.656854,2.33345238 L242.384062,3.60624458 C239.979899,1.20208153 236.020101,1.20208153 233.615938,3.60624458 C232.272435,4.94974747 231.636039,6.71751442 231.848171,8.62670273 L234.818019,8.62670273 L231.070354,12.3743687 L227.322688,8.62670273 Z M248.677312,7.35391052 L244.929646,3.60624458 L241.181981,7.35391052 L244.151829,7.35391052 C244.363961,9.26309883 243.727565,11.0308658 242.384062,12.3743687 C239.979899,14.7785317 236.020101,14.7785317 233.615938,12.3743687 L232.343146,13.6471609 C235.454416,16.7584307 240.545584,16.7584307 243.656854,13.6471609 C245.2832,12.0208153 246.202439,9.6873629 245.990307,7.35391052 L248.677312,7.35391052 Z" id="形状"></path>
            </g>
        </g>
    </g>
</svg>