<?xml version="1.0" encoding="UTF-8"?>
<svg width="12px" height="10px" viewBox="0 0 12 10" version="1.1" xmlns="http://www.w3.org/2000/svg" xmlns:xlink="http://www.w3.org/1999/xlink">
    <title>形状结合</title>
    <g id="页面-1" stroke="none" stroke-width="1" fill="none" fill-rule="evenodd">
        <g id="加药监控" transform="translate(-854.000000, -192.000000)" fill="#FF5656" fill-rule="nonzero">
            <g id="编组-17" transform="translate(854.000000, 190.000000)">
                <g id="编组-16" transform="translate(0.000000, 2.000000)">
                    <path d="M6,1.86517468e-14 C6.35555556,1.86517468e-14 6.67340067,0.17193426 6.85117845,0.461441214 L11.8666667,8.61567636 C12.0444444,8.90518331 12.0444444,9.24905183 11.8666667,9.53855879 C11.6888889,9.82806574 11.3710438,10 11.0154882,10 L0.984511785,10 C0.628956229,10 0.311111111,9.82806574 0.133333333,9.53855879 C-0.0444444444,9.24905183 -0.0444444444,8.90518331 0.133333333,8.61567636 L5.14882155,0.461441214 C5.32659933,0.17193426 5.64444444,1.86517468e-14 6,1.86517468e-14 Z M6.90857143,7.78002528 L5.19428571,7.78002528 L5.19428571,8.98690627 L6.90857143,8.98690627 L6.90857143,7.78002528 Z M6.90857143,2.85082174 L5.19428571,2.85082174 L5.19428571,7.14917826 L6.90857143,7.14917826 L6.90857143,2.85082174 Z" id="形状结合"></path>
                </g>
            </g>
        </g>
    </g>
</svg>