<?xml version="1.0" encoding="UTF-8"?>
<svg width="14px" height="14px" viewBox="0 0 14 14" version="1.1" xmlns="http://www.w3.org/2000/svg" xmlns:xlink="http://www.w3.org/1999/xlink">
    <title>Combined Shape</title>
    <g id="页面-1" stroke="none" stroke-width="1" fill="none" fill-rule="evenodd">
        <g id="加药监控" transform="translate(-525.000000, -189.000000)" fill="#19EBA4">
            <g id="编组-9" transform="translate(280.000000, 176.000000)">
                <g id="编组-4" transform="translate(245.000000, 13.000000)">
                    <path d="M7,0 C10.8659932,0 14,3.13400675 14,7 C14,10.8659932 10.8659932,14 7,14 C3.13400675,14 0,10.8659932 0,7 C0,3.13400675 3.13400675,0 7,0 Z M9.22194238,5.45280638 L6.23106361,7.94520535 L4.99371843,6.70786017 C4.65200968,6.36615142 4.09799032,6.36615142 3.75628157,6.70786017 C3.41457281,7.04956893 3.41457281,7.60358828 3.75628157,7.94529704 L5.55864948,9.74766495 C5.87865263,10.0676681 6.38986857,10.0908574 6.73752926,9.80114014 L10.3422651,6.79719362 C10.7135074,6.48782505 10.7636659,5.93608094 10.4542973,5.56483865 C10.1449288,5.19359637 9.59318466,5.14343781 9.22194238,5.45280638 Z" id="Combined-Shape"></path>
                </g>
            </g>
        </g>
    </g>
</svg>