<?xml version="1.0" encoding="UTF-8"?>
<svg width="14px" height="14px" viewBox="0 0 14 14" version="1.1" xmlns="http://www.w3.org/2000/svg" xmlns:xlink="http://www.w3.org/1999/xlink">
    <title>形状</title>
    <g id="页面-1" stroke="none" stroke-width="1" fill="none" fill-rule="evenodd">
        <g id="加药监控" transform="translate(-1509.000000, -189.000000)" fill="#9EB6FB">
            <g id="编组-11" transform="translate(1264.000000, 176.000000)">
                <g id="编组-2" transform="translate(245.000000, 13.000000)">
                    <path d="M7,0 C10.8659932,0 14,3.13400675 14,7 C14,10.8659932 10.8659932,14 7,14 C3.13400675,14 0,10.8659932 0,7 C0,3.13400675 3.13400675,0 7,0 Z M5.58578644,4.17157288 C5.19526215,3.78104858 4.56209717,3.78104858 4.17157288,4.17157288 C3.81108891,4.53205684 3.78335938,5.09928789 4.08838427,5.4915791 L4.17157288,5.58578644 L5.58578644,7 L4.17157288,8.41421356 C3.78104858,8.80473785 3.78104858,9.43790283 4.17157288,9.82842712 C4.53205684,10.1889111 5.09928789,10.2166406 5.4915791,9.91161573 L5.58578644,9.82842712 L7,8.41421356 L8.41421356,9.82842712 C8.80473785,10.2189514 9.43790283,10.2189514 9.82842712,9.82842712 C10.1889111,9.46794316 10.2166406,8.90071211 9.91161573,8.5084209 L9.82842712,8.41421356 L8.41421356,7 L9.82842712,5.58578644 C10.2189514,5.19526215 10.2189514,4.56209717 9.82842712,4.17157288 C9.46794316,3.81108891 8.90071211,3.78335938 8.5084209,4.08838427 L8.41421356,4.17157288 L7,5.58578644 L5.58578644,4.17157288 Z" id="形状"></path>
                </g>
            </g>
        </g>
    </g>
</svg>