<?xml version="1.0" encoding="UTF-8"?>
<svg width="14px" height="14px" viewBox="0 0 14 14" version="1.1" xmlns="http://www.w3.org/2000/svg" xmlns:xlink="http://www.w3.org/1999/xlink">
    <!-- Generator: Sketch 60 (88103) - https://sketch.com -->
    <title>形状</title>
    <desc>Created with Sketch.</desc>
    <g id="页面-1" stroke="none" stroke-width="1" fill="none" fill-rule="evenodd">
        <g id="集团概览备份" transform="translate(-1866.000000, -122.000000)" fill="#498FE1" fill-rule="nonzero">
            <g id="编组-2" transform="translate(1510.000000, 110.000000)">
                <g id="编组-3">
                    <g id="编组" transform="translate(356.000000, 12.000000)">
                        <path d="M5.39479168,13.3764757 L5.39479168,0.1625868 C5.39479168,0.0782099731 5.32341677,0.0098090332 5.23537138,0.0098090332 L4.04696557,0.0098090332 C3.95948669,0.0105711972 3.88899096,0.0787494032 3.88899457,0.1625868 L3.88899457,11.6542535 L0.262907609,8.91536458 C0.214807001,8.87996291 0.149911817,8.87378353 0.0954824855,8.89942221 C0.0410531538,8.92506088 0.00651866367,8.97807613 0.00638586957,9.03619792 L0.00638586957,10.4111979 C0.00638586957,10.5056424 0.0498641304,10.5917535 0.12667573,10.6514757 L4.3687047,13.8570312 C4.55991633,14.0004888 4.81977474,14.0268324 5.03807455,13.9248898 C5.25637436,13.8229472 5.39485676,13.6105846 5.39479168,13.3778646 L5.39479168,13.3764757 Z M10.0716033,13.834809 L10.0716033,2.34314237 L13.6976902,5.08203125 C13.7457908,5.11743292 13.810686,5.1236123 13.8651153,5.09797362 C13.9195447,5.07233495 13.9540792,5.0193197 13.954212,4.96119792 L13.954212,3.58619792 C13.954212,3.49175347 13.9107337,3.40564237 13.8339221,3.34592013 L9.59189312,0.141753467 C9.40138903,-0.00256422962 9.14155198,-0.0297862366 8.92301067,0.0716775376 C8.70446936,0.173141312 8.56570811,0.385423468 8.56580611,0.618142367 L8.56580611,13.834809 C8.56580611,13.9181424 8.63682065,13.9875868 8.72522644,13.9875868 L9.91363225,13.9875868 C10.0005888,13.9875868 10.0716033,13.9181424 10.0716033,13.834809 L10.0716033,13.834809 Z" id="形状"></path>
                    </g>
                </g>
            </g>
        </g>
    </g>
</svg>