<?xml version="1.0" encoding="UTF-8"?>
<svg width="56px" height="64px" viewBox="0 0 56 64" version="1.1" xmlns="http://www.w3.org/2000/svg" xmlns:xlink="http://www.w3.org/1999/xlink">
    <title>变频关闭</title>
    <g id="页面-1" stroke="none" stroke-width="1" fill="none" fill-rule="evenodd">
        <path d="M8.05123905,6.35917114 L8.05123905,9.8347762 L3.47560506,9.8347762 L3.47560506,53.8533139 L32.2362367,53.8533139 L26.9411525,50.7947815 C26.3990442,50.4865619 26.0636446,49.911503 26.0622738,49.2879014 C26.0609031,48.6642998 26.3937713,48.087772 26.9345194,47.7771721 C27.450688,47.4806903 28.0807214,47.4699036 28.6048271,47.7438374 L28.678955,47.7849075 L39.6340621,54.1122465 C40.1700041,54.4231375 40.4998841,54.9958595 40.4998841,55.6154457 C40.4998841,56.2080934 40.1980657,56.7578634 39.7027888,57.0766267 L39.6340621,57.1186449 L28.678955,63.4459839 C28.1409827,63.761369 27.4752662,63.7643221 26.934517,63.4537221 C26.3937679,63.1431221 26.060899,62.5665933 26.0622703,61.9429907 C26.0635819,61.3465013 26.3705087,60.7944257 26.8716252,60.4778077 L26.9411525,60.4361099 L32.3248646,57.3271812 L2.50069782,57.3271812 C1.151885,57.3271812 0.0450751209,56.2456786 0.00134225084,54.9086543 L0,54.8264834 L0,8.85986896 C0,7.51105614 1.07983362,6.40424626 2.4184268,6.36051339 L2.50069782,6.35917114 L8.05123905,6.35917114 Z M26.8247197,0.238630661 C27.362692,-0.076754483 28.0284085,-0.0797075645 28.5691576,0.23089243 C29.1099068,0.541492425 29.4427756,1.11802126 29.4414044,1.74162379 C29.4400928,2.33811317 29.1331659,2.89018878 28.6320495,3.20680681 L28.5625222,3.2485046 L23.1770722,6.35917114 L53.1159339,6.35917114 C54.4679663,6.36198461 55.5681804,7.43596059 55.6134475,8.77741192 L55.614894,8.85986896 L55.614894,54.8282212 C55.614894,56.1753309 54.5367293,57.2837757 53.1965673,57.3275747 L53.1141962,57.328919 L47.4176795,57.328919 L47.4176795,53.8533139 L52.1410268,53.8533139 L52.1410268,9.8347762 L23.2639623,9.8347762 L28.5625222,12.8950464 C29.3936578,13.3749412 29.6784162,14.4377279 29.1985579,15.2688846 C28.9690952,15.6690739 28.589514,15.9612322 28.1439237,16.0806217 C27.7280394,16.1920519 27.2867064,16.1443933 26.9054636,15.9490386 L26.8247197,15.9049204 L15.866137,9.57758142 C15.3285021,9.26714136 14.9973122,8.69346993 14.9973122,8.07264442 C14.9973122,7.47881132 15.300329,6.92812109 15.7971917,6.60967465 L15.866137,6.56770742 L26.8247197,0.238630661 Z M15.5255277,18.5203132 L15.5255277,29.6335603 L22.1708845,29.6335603 L22.1708845,18.5203132 L26.5570981,18.5203132 L26.5570981,45.1677769 L22.1708845,45.1677769 L22.1708845,34.0580055 L15.5255277,34.0580055 L15.5255277,45.1677769 L11.1393141,45.1677769 L11.1393141,18.5203132 L15.5255277,18.5203132 Z M44.4790555,25.1726212 L44.4790555,29.6335603 L44.4547262,29.6335603 L33.492668,40.7085757 L44.4182324,40.7085757 L44.4182324,45.1677769 L28.8648998,45.1677769 L28.8648998,39.1845229 L38.2803139,29.6335603 L28.9274607,29.6335603 L28.9274607,25.1726212 L44.4790555,25.1726212 Z" id="变频关闭" fill="#7894E3" fill-rule="nonzero"></path>
    </g>
</svg>