<?xml version="1.0" encoding="UTF-8"?>
<svg width="60px" height="53px" viewBox="0 0 60 53" version="1.1" xmlns="http://www.w3.org/2000/svg" xmlns:xlink="http://www.w3.org/1999/xlink">
    <title>阀门报警</title>
    <g id="页面-1" stroke="none" stroke-width="1" fill="none" fill-rule="evenodd">
        <path d="M50.9974501,17.5 C47.196138,17.5118461 43.81358,19.8476149 42.5498725,23.3333333 L38.9980501,23.3333333 L38.9980501,14.5833333 C38.9980501,12.9725028 37.6549715,11.6666667 35.9982001,11.6666667 L32.9983501,11.6666667 L32.9983501,5.83333333 L50.9974501,5.83333333 C52.6542215,5.83333333 53.9973001,4.52749719 53.9973001,2.91666667 C53.9973001,1.30583615 52.6542215,0 50.9974501,0 L8.99955002,0 C7.34277861,0 5.99970001,1.30583615 5.99970001,2.91666667 C5.99970001,4.52749719 7.34277861,5.83333333 8.99955002,5.83333333 L26.9986501,5.83333333 L26.9986501,11.6666667 L23.9988001,11.6666667 C22.3420286,11.6666667 20.9989501,12.9725028 20.9989501,14.5833333 L20.9989501,23.3333333 L17.4471276,23.3333333 C16.1834201,19.8476149 12.8008621,17.5118461 8.99955002,17.5 C4.03779811,17.5 0,21.4258333 0,26.25 L0,43.75 C0,48.5741667 4.03779811,52.5 8.99955002,52.5 C12.8008621,52.4881539 16.1834201,50.1523851 17.4471276,46.6666667 L42.5528724,46.6666667 C43.8165799,50.1523851 47.1991379,52.4881539 51.00045,52.5 C55.9622019,52.5 60,48.5741667 60,43.75 L60,26.25 C59.9917381,21.4197013 55.9655114,17.506423 50.9974501,17.5 L50.9974501,17.5 Z M26.9986501,17.5 L32.9983501,17.5 L32.9983501,23.3333333 L26.9986501,23.3333333 L26.9986501,17.5 Z M8.99955002,46.6666667 C7.34663267,46.6666667 5.99970001,45.3570833 5.99970001,43.75 L5.99970001,26.25 C5.99970001,24.6429167 7.34663267,23.3333333 8.99955002,23.3333333 C10.6524674,23.3333333 11.9994,24.6429167 11.9994,26.25 L11.9994,43.75 C11.9994,45.3570833 10.6524674,46.6666667 8.99955002,46.6666667 Z M17.9991,29.1666667 L41.9979001,29.1666667 L41.9979001,40.8333333 L17.9991,40.8333333 L17.9991,29.1666667 Z M53.9973001,43.75 C53.9973001,45.3570833 52.6503675,46.6666667 50.9974501,46.6666667 C49.3445328,46.6666667 47.9976001,45.3570833 47.9976001,43.75 L47.9976001,26.25 C47.9976001,24.6429167 49.3445328,23.3333333 50.9974501,23.3333333 C52.6503675,23.3333333 53.9973001,24.6429167 53.9973001,26.25 L53.9973001,43.75 Z" id="阀门报警" fill="#FF3939" fill-rule="nonzero"></path>
    </g>
</svg>