<?xml version="1.0" encoding="UTF-8"?>
<svg width="27px" height="24px" viewBox="0 0 27 24" version="1.1" xmlns="http://www.w3.org/2000/svg" xmlns:xlink="http://www.w3.org/1999/xlink">
    <title>形状</title>
    <g id="页面-1" stroke="none" stroke-width="1" fill="none" fill-rule="evenodd">
        <g id="加药监控备份" transform="translate(-830.000000, -454.000000)" fill="#35FEA7" fill-rule="nonzero">
            <path d="M852.948853,462 C851.238262,462.005415 849.716111,463.073195 849.147443,464.666667 L847.549123,464.666667 L847.549123,460.666667 C847.549123,459.930287 846.944737,459.333333 846.19919,459.333333 L844.849258,459.333333 L844.849258,456.666667 L852.948853,456.666667 C853.6944,456.666667 854.298785,456.069713 854.298785,455.333333 C854.298785,454.596954 853.6944,454 852.948853,454 L834.049798,454 C833.30425,454 832.699865,454.596954 832.699865,455.333333 C832.699865,456.069713 833.30425,456.666667 834.049798,456.666667 L842.149393,456.666667 L842.149393,459.333333 L840.79946,459.333333 C840.053913,459.333333 839.449528,459.930287 839.449528,460.666667 L839.449528,464.666667 L837.851207,464.666667 C837.282539,463.073195 835.760388,462.005415 834.049798,462 C831.817009,462 830,463.794667 830,466 L830,474 C830,476.205333 831.817009,478 834.049798,478 C835.760388,477.994585 837.282539,476.926805 837.851207,475.333333 L849.148793,475.333333 C849.717461,476.926805 851.239612,477.994585 852.950202,478 C855.182991,478 857,476.205333 857,474 L857,466 C856.996282,463.791863 855.18448,462.002936 852.948853,462 L852.948853,462 Z M842.149393,462 L844.849258,462 L844.849258,464.666667 L842.149393,464.666667 L842.149393,462 Z M834.049798,475.333333 C833.305985,475.333333 832.699865,474.734667 832.699865,474 L832.699865,466 C832.699865,465.265333 833.305985,464.666667 834.049798,464.666667 C834.79361,464.666667 835.39973,465.265333 835.39973,466 L835.39973,474 C835.39973,474.734667 834.79361,475.333333 834.049798,475.333333 Z M838.099595,467.333333 L848.899055,467.333333 L848.899055,472.666667 L838.099595,472.666667 L838.099595,467.333333 Z M854.298785,474 C854.298785,474.734667 853.692665,475.333333 852.948853,475.333333 C852.20504,475.333333 851.59892,474.734667 851.59892,474 L851.59892,466 C851.59892,465.265333 852.20504,464.666667 852.948853,464.666667 C853.692665,464.666667 854.298785,465.265333 854.298785,466 L854.298785,474 Z" id="形状"></path>
        </g>
    </g>
</svg>