<?xml version="1.0" encoding="UTF-8"?>
<svg width="60px" height="60px" viewBox="0 0 60 60" version="1.1" xmlns="http://www.w3.org/2000/svg" xmlns:xlink="http://www.w3.org/1999/xlink">
    <title>编组 8备份 3</title>
    <g id="除臭墙" stroke="none" stroke-width="1" fill="none" fill-rule="evenodd">
        <g id="设备运行状态备份" transform="translate(-989.000000, -486.000000)">
            <g id="编组-15" transform="translate(639.000000, 184.000000)">
                <g id="编组-11" transform="translate(141.000000, 67.000000)">
                    <g id="编组-6备份-3" transform="translate(209.000000, 198.000000)">
                        <g id="编组-8备份-3" transform="translate(0.000000, 37.000000)">
                            <circle id="椭圆形" stroke="#9EB6FB" stroke-width="2" cx="30" cy="30" r="29"></circle>
                            <g id="yaowan" transform="translate(15.000000, 15.000000)" fill="#9EB6FB" fill-rule="nonzero">
                                <path d="M15.3966959,2.50613818 C18.7383751,-0.835379392 24.1562221,-0.835379392 27.4979012,2.50613818 C30.8340329,5.84937527 30.8340329,11.2622154 27.4979012,14.6054525 L27.4979012,14.6054525 L14.6064797,27.4935439 C11.2654613,30.8350694 5.84812345,30.8355462 2.50651688,27.4946089 C-0.835089683,24.1536715 -0.835566491,18.736465 2.5054519,15.3949395 L2.5054519,15.3949395 Z M9.86305291,11.4349025 L4.20391962,17.0933661 C1.82120384,19.5002577 1.83113786,23.380003 4.22614794,25.7746619 C6.62115803,28.1693208 10.5009986,28.1787799 12.907657,25.7958274 L12.907657,25.7958274 L18.4753794,20.22895 L9.86305291,11.4349025 Z M8.25853916,15 L10,16.6428264 L7.19588524,19.2888372 C6.4423353,19.9983054 6.24687467,21.0836133 6.70936462,21.9902746 L4.49208588,23 C3.57593728,21.2034691 3.96270353,19.0531802 5.45496861,17.6466994 L8.25853916,15 Z M23.0388563,2.61139823 C20.915108,2.04251785 18.6491821,2.64982947 17.0946311,4.2045647 L17.0946311,4.2045647 L11.5620531,9.73629852 L20.1743796,18.5301685 L25.7983685,12.9068485 C27.3529195,11.3521133 27.9599224,9.08615574 27.390725,6.96254014 C26.8215276,4.83892453 25.1626047,3.18027861 23.0388563,2.61139823 Z" id="形状结合"></path>
                            </g>
                        </g>
                    </g>
                </g>
            </g>
        </g>
    </g>
</svg>