<?xml version="1.0" encoding="UTF-8"?>
<svg width="30px" height="30px" viewBox="0 0 30 30" version="1.1" xmlns="http://www.w3.org/2000/svg" xmlns:xlink="http://www.w3.org/1999/xlink">
    <!-- Generator: Sketch 60 (88103) - https://sketch.com -->
    <title>进风口滑窗</title>
    <desc>Created with Sketch.</desc>
    <g id="场区设备概览" stroke="none" stroke-width="1" fill="none" fill-rule="evenodd">
        <g id="画板备份" transform="translate(-934.000000, -68.000000)" fill="#9EB6FB" fill-rule="nonzero">
            <path d="M942.774938,78.3702128 L942.774938,80.7607565 L938.037529,80.7607565 C937.558787,80.7610906 937.170867,81.1488687 937.170867,81.6271017 L937.170867,81.6271017 L937.170867,94.8014184 L950.359214,94.8014184 C950.838193,94.8014184 951.226482,94.4135425 951.226482,93.9350733 L951.226482,93.9350733 L951.226482,89.2033097 L953.649864,89.2033097 L953.649864,93.9350733 C953.649864,95.7505155 952.17659,97.2222222 950.359214,97.2222222 L950.359214,97.2222222 L934.777778,97.2222222 L934.777778,81.6573617 C934.777778,79.8421558 936.250683,78.370547 938.067822,78.3702128 L938.067822,78.3702128 L942.774938,78.3702128 Z M963.222222,68.7777778 L963.222222,84.6037825 C963.222222,86.2749988 961.865991,87.6297872 960.192995,87.6297872 L960.192995,87.6297872 L944.350136,87.6297872 L944.350136,71.8037825 C944.350136,70.1325662 945.706367,68.7777778 947.379363,68.7777778 L947.379363,68.7777778 L963.222222,68.7777778 Z M960.79884,71.1985816 L947.379363,71.1985816 C947.044764,71.1985816 946.773518,71.4695393 946.773518,71.8037825 L946.773518,71.8037825 L946.773518,85.2089835 L960.192995,85.2089835 C960.527594,85.2089835 960.79884,84.9380258 960.79884,84.6037825 L960.79884,84.6037825 L960.79884,71.1985816 Z" id="进风口滑窗"></path>
        </g>
    </g>
</svg>