<?xml version="1.0" encoding="UTF-8"?>
<svg width="12px" height="12px" viewBox="0 0 12 12" version="1.1" xmlns="http://www.w3.org/2000/svg" xmlns:xlink="http://www.w3.org/1999/xlink">
    <title>报警备份_export</title>
    <g id="数据视图" stroke="none" stroke-width="1" fill="none" fill-rule="evenodd">
        <g id="报警备份_export" fill="#FF2727" fill-rule="nonzero">
            <path d="M11.2058824,10.6051471 L9.33419118,10.6051471 L9.33419118,6.39080882 C9.33419118,4.53566176 7.8375,3.02242647 6,3.02242647 C4.1625,3.02242647 2.66580882,4.53566176 2.66580882,6.39080882 L2.66580882,10.5963235 L0.794117647,10.5963235 C0.563602941,10.5963235 0.375,10.7849265 0.375,11.0154412 C0.375,11.2459559 0.563602941,11.4345588 0.794117647,11.4345588 L11.2058824,11.4345588 C11.4363971,11.4345588 11.625,11.2459559 11.625,11.0154412 C11.625,10.7926471 11.4363971,10.6051471 11.2058824,10.6051471 Z M3.49522059,10.6051471 L3.49522059,6.39080882 C3.49522059,5.00551471 4.62352941,3.86948529 5.99117647,3.86948529 C7.35882353,3.86948529 8.49595588,5.00661765 8.49595588,6.39080882 L8.49595588,10.5963235 C8.49595588,10.6051471 3.49522059,10.6051471 3.49522059,10.6051471 Z M4.75147059,6.39080882 C4.52095588,6.39080882 4.33235294,6.57941176 4.33235294,6.80992647 L4.33235294,9.33125 C4.33235294,9.56176471 4.52095588,9.75036765 4.75147059,9.75036765 C4.98198529,9.75036765 5.17058824,9.56176471 5.17058824,9.33125 L5.17058824,6.80882353 C5.16176471,6.57830882 4.97426471,6.39080882 4.75147059,6.39080882 Z M6,2.18419118 C6.23051471,2.18419118 6.41911765,1.99558824 6.41911765,1.76507353 L6.41911765,0.919117647 C6.41911765,0.688602941 6.23051471,0.5 6,0.5 C5.76948529,0.5 5.58088235,0.688602941 5.58088235,0.919117647 L5.58088235,1.75735294 C5.58088235,1.99669118 5.76948529,2.18419118 6,2.18419118 Z M9.16323529,3.04779412 L9.74448529,2.45772059 C9.90661765,2.30330882 9.91544118,2.03860294 9.75330882,1.87647059 L9.74448529,1.86764706 C9.58235294,1.69669118 9.32536765,1.69669118 9.16323529,1.86764706 L8.58198529,2.45772059 C8.41985294,2.61213235 8.41102941,2.87683824 8.57316176,3.03897059 L8.58198529,3.04779412 C8.74411765,3.21875 9.01764706,3.21875 9.16323529,3.04779412 Z M2.91397059,3.04779412 C3.07610294,3.21875 3.33308824,3.21875 3.49522059,3.04779412 C3.65735294,2.89338235 3.66617647,2.62867647 3.50404412,2.46654412 L3.49522059,2.45772059 L2.91397059,1.86764706 C2.75183824,1.69669118 2.49485294,1.69669118 2.33272059,1.86764706 C2.17058824,2.02205882 2.16176471,2.28676471 2.32389706,2.44889706 L2.33272059,2.45772059 L2.91397059,3.04779412 Z M0.794117647,5.75772059 L1.62352941,5.75772059 C1.85404412,5.75772059 2.04264706,5.56911765 2.04264706,5.33860294 C2.04264706,5.10808824 1.85404412,4.91948529 1.62352941,4.91948529 L0.794117647,4.91948529 C0.563602941,4.91948529 0.375,5.10808824 0.375,5.33860294 C0.375,5.57022059 0.563602941,5.75772059 0.794117647,5.75772059 Z M10.36875,5.75772059 L11.1981618,5.75772059 C11.4286765,5.75772059 11.6172794,5.56911765 11.6172794,5.33860294 C11.6172794,5.10808824 11.4286765,4.91948529 11.1981618,4.91948529 L10.36875,4.91948529 C10.1382353,4.91948529 9.94963235,5.10808824 9.94963235,5.33860294 C9.95845588,5.57022059 10.1459559,5.75772059 10.36875,5.75772059 Z" id="形状"></path>
        </g>
    </g>
</svg>