<?xml version="1.0" encoding="UTF-8"?>
<svg width="14px" height="14px" viewBox="0 0 14 14" version="1.1" xmlns="http://www.w3.org/2000/svg" xmlns:xlink="http://www.w3.org/1999/xlink">
    <title>形状</title>
    <g id="页面-1" stroke="none" stroke-width="1" fill="none" fill-rule="evenodd">
        <g id="单元驾驶舱" transform="translate(-1560.000000, -82.000000)" fill="#CDD8F7" fill-rule="nonzero">
            <g id="区域" transform="translate(955.000000, 80.000000)">
                <g id="公告" transform="translate(605.000000, 2.000000)">
                    <path d="M9.8495,0.8325 C9.9550206,1.00126654 10.011,1.19629378 10.011,1.39533333 L10.011,12.6048333 C10.011,12.9908688 9.8015644,13.3465134 9.4639242,13.5336564 C9.126284,13.7207994 8.7136765,13.7099546 8.38633333,13.5053333 L4.09416667,10.8226667 L1.82,10.8226667 C0.998936669,10.8226667 0.333333328,10.1570633 0.333333328,9.336 L0.333333328,4.66416667 C0.333333328,3.84310334 0.998936669,3.1775 1.82,3.1775 L4.09416667,3.1775 L8.38633333,0.495 C8.62515432,0.345703136 8.91350608,0.297404223 9.18794146,0.360730657 C9.46237685,0.424057092 9.7004104,0.593820315 9.84966667,0.832666672 L9.8495,0.8325 Z M11.7296667,2.91883333 C11.9565191,2.76139312 12.268049,2.81765504 12.4255,3.0445 C14.0796589,5.42090455 14.0803903,8.57566209 12.4273333,10.9528333 C12.2679301,11.1738818 11.9608661,11.2265621 11.7369,11.071285 C11.5129339,10.9160079 11.454569,10.6099734 11.6056667,10.3831667 C13.0210458,8.34878876 13.0203808,5.64834729 11.604,3.61466667 C11.4465598,3.38781419 11.5028217,3.07628436 11.7296667,2.91883333 L11.7296667,2.91883333 Z" id="形状"></path>
                </g>
            </g>
        </g>
    </g>
</svg>