<?xml version="1.0" encoding="UTF-8"?>
<svg width="20px" height="21px" viewBox="0 0 20 21" version="1.1" xmlns="http://www.w3.org/2000/svg" xmlns:xlink="http://www.w3.org/1999/xlink">
    <!-- Generator: Sketch 60 (88103) - https://sketch.com -->
    <title>形状</title>
    <desc>Created with Sketch.</desc>
    <g id="组件" stroke="none" stroke-width="1">
        <g id="编组-2">
            <path d="M18.3328989,15.605135 C17.3626522,14.2972599 16.8410424,12.7157427 16.844602,11.0926295 L16.844602,7.9533717 C16.8432651,4.93296065 14.7796494,2.29596451 11.8273993,1.54212779 L11.8273993,0.849048251 C11.8273993,0.38013185 11.4437033,0 10.9703904,0 L9.28321952,0 C8.80990662,0 8.42621071,0.38013185 8.42621071,0.849048251 L8.42621071,1.56252767 C5.51280683,2.34429904 3.48941036,4.96303143 3.4882448,7.9533717 L3.4882448,10.221632 C3.48566732,12.3872582 2.73854081,14.4874136 1.36996299,16.1760735 L0,17.8622916 L20,17.8622916 L18.3328989,15.605135 Z M3.39362978,16.2099011 C4.54204917,14.4196941 5.15337492,12.3430484 5.15638847,10.2218902 L5.15638847,7.9533717 C5.15638847,5.21617235 7.40421206,2.98922827 10.167075,2.98922827 C12.929938,2.98922827 15.1777616,5.21617235 15.1777616,7.9533717 L15.1777616,11.0926295 C15.1777556,12.9116096 15.7165309,14.6906058 16.7273106,16.2091265 L3.39362978,16.2099011 Z M10.1462232,21 C11.4417877,21 12.4920503,19.9594931 12.4920503,18.6759628 L7.80039618,18.6759628 C7.80039618,19.9594931 8.85065872,21 10.1462232,21 Z" id="形状"></path>
        </g>
    </g>
</svg>