<?xml version="1.0" encoding="UTF-8"?>
<svg width="20px" height="20px" viewBox="0 0 20 20" version="1.1" xmlns="http://www.w3.org/2000/svg" xmlns:xlink="http://www.w3.org/1999/xlink">
    <!-- Generator: Sketch 60 (88103) - https://sketch.com -->
    <title>形状</title>
    <desc>Created with Sketch.</desc>
    <g id="组件" stroke="none" stroke-width="1">
        <g id="编组-53">
            <g id="编组-76">
                <g id="编组-11">
                    <path d="M12.0009807,0.000202999479 C16.5649727,0.927122591 20,4.96239831 20,9.79996765 C20,15.3228151 15.5228475,19.7999676 10,19.7999676 C4.4771525,19.7999676 0,15.3228151 0,9.79996765 C0,4.96204508 3.43552894,0.926533289 8.0000191,4.54747351e-13 L8.00064404,2.05183688 C4.54986283,2.93969845 2,6.07205686 2,9.79996765 C2,14.2182456 5.581722,17.7999676 10,17.7999676 C14.418278,17.7999676 18,14.2182456 18,9.79996765 C18,6.07241774 15.4506308,2.94030492 12.0003581,2.05209479 L12.0009807,0.000202999479 Z M10,3.79996765 C13.3137085,3.79996765 16,6.48625915 16,9.79996765 C16,12.7726822 13.8381232,15.2404633 11.0008069,15.7168738 L11.0007613,13.6737541 C12.7256022,13.2294466 14,11.6635329 14,9.79996765 C14,7.59082865 12.209139,5.79996765 10,5.79996765 C7.790861,5.79996765 6,7.59082865 6,9.79996765 C6,11.6638948 7.27489272,13.2300547 9.00024347,13.6740128 L9.00019152,15.7170413 C6.16238395,15.2410422 4,12.7730308 4,9.79996765 C4,6.48625915 6.6862915,3.79996765 10,3.79996765 Z M10,7.79996765 C11.1045695,7.79996765 12,8.69539815 12,9.79996765 C12,10.9045371 11.1045695,11.7999676 10,11.7999676 C8.8954305,11.7999676 8,10.9045371 8,9.79996765 C8,8.69539815 8.8954305,7.79996765 10,7.79996765 Z" id="形状"></path>
                </g>
            </g>
        </g>
    </g>
</svg>