<?xml version="1.0" encoding="UTF-8"?>
<svg width="18px" height="17px" viewBox="0 0 18 17" version="1.1" xmlns="http://www.w3.org/2000/svg" xmlns:xlink="http://www.w3.org/1999/xlink">
    <!-- Generator: Sketch 60 (88103) - https://sketch.com -->
    <title>基础配置管理</title>
    <desc>Created with Sketch.</desc>
    <g id="基础配置管理" stroke="none" stroke-width="1" fill="none" fill-rule="evenodd">
        <path d="M14.625,0 L18,11 L18,17 L0,17 L0,11 L3.375,0 L14.625,0 Z M16,13 L2,13 L2,15 L16,15 L16,13 Z M13.146,2 L4.853,2 L2.091,11 L15.907,11 L13.146,2 Z M8.96308709,3.5 C10.3379253,3.5 11.477071,4.48599138 11.6784393,5.76757812 C12.4466372,5.93691911 13.0351087,6.57169921 13.1056668,7.35060827 L13.1127727,7.50821659 L13.1127727,7.71167834 C13.1127727,8.64798626 12.367622,9.41854004 11.4230885,9.49325465 L11.2723743,9.49919181 L6.84081453,9.49919181 C5.87660757,9.49919181 5.08324646,8.77545343 5.00614251,7.85806169 L5,7.71167834 L5,7.50821659 C5,6.72811153 5.52006287,6.0704472 6.23837371,5.82677802 C6.41332286,4.51629849 7.56703033,3.5 8.96308709,3.5 Z M8.96329512,4.81007543 C8.19152182,4.81007543 7.56370192,5.41904634 7.56224575,6.16844019 C7.58471246,6.23390356 7.5998983,6.30259968 7.5998983,6.37553879 C7.5998983,6.70450872 7.35044004,6.97670499 7.02516436,7.02347646 L6.92548077,7.03057651 L6.84081453,7.03057651 C6.59987518,7.03057651 6.3987123,7.1999571 6.35698399,7.42264051 L6.34904308,7.50841864 L6.34904308,7.71188039 C6.34904308,7.94589619 6.52343493,8.14127854 6.75256051,8.18180775 L6.84081453,8.18952047 L11.2723743,8.18952047 C11.5133136,8.18952047 11.7144765,8.02013989 11.7562048,7.79759838 L11.7641457,7.71188039 L11.7641457,7.50841864 C11.7641457,7.27422324 11.5897539,7.07882094 11.3606283,7.03828951 L11.2723743,7.03057651 L11.005894,7.03057651 C10.633321,7.03057651 10.3314765,6.73740571 10.3314765,6.37553879 C10.3314765,6.32772091 10.3380409,6.2816092 10.3489506,6.23702407 L10.368297,6.17126886 C10.3647605,5.42066272 9.73590052,4.81007543 8.96329512,4.81007543 Z" fill="#CDD8F7" fill-rule="nonzero"></path>
    </g>
</svg>