<?xml version="1.0" encoding="UTF-8"?>
<svg width="12px" height="12px" viewBox="0 0 12 12" version="1.1" xmlns="http://www.w3.org/2000/svg" xmlns:xlink="http://www.w3.org/1999/xlink">
    <!-- Generator: Sketch 60 (88103) - https://sketch.com -->
    <title>严重偏差</title>
    <desc>Created with Sketch.</desc>
    <g id="页面-1" stroke="none" stroke-width="1" fill="none" fill-rule="evenodd">
        <g id="场区设备概览" transform="translate(-1248.000000, -276.000000)" fill="#FF2727" fill-rule="nonzero">
            <g id="编组-42" transform="translate(280.000000, 84.000000)">
                <g id="编组-41" transform="translate(0.000000, 92.000000)">
                    <g id="编组-15" transform="translate(958.000000, 94.000000)">
                        <path d="M20.9117793,12 C20.9117793,11.7011837 20.879059,11.4836302 20.879059,11.4836302 C20.8587177,11.2689918 20.9621257,11.0610995 21.1473652,10.9442252 L21.8148585,10.5667058 C21.9915283,10.4664193 22.0523181,10.2455236 21.9509748,10.0720913 L20.6840462,7.92854858 C20.5810031,7.75595524 20.3549364,7.69683904 20.1775366,7.79609683 L19.5100433,8.17233657 C19.3132985,8.27047494 19.0772315,8.25447985 18.8962111,8.13074544 C18.8962111,8.13074544 18.7182129,7.99573424 18.4590684,7.8492055 C18.1986152,7.7020369 17.9806982,7.61565533 17.9806982,7.61565533 C17.7806362,7.52416778 17.6485102,7.33222827 17.6371355,7.1165618 L17.6371355,6.3628026 C17.6367767,6.16282732 17.4712611,6.00070383 17.2667421,6 L14.7335394,6 C14.5287648,6.0003522 14.3628519,6.16257832 14.3624917,6.3628026 L14.3624917,7.1165618 C14.3512409,7.3320848 14.2193908,7.52398892 14.0195833,7.61565533 C14.0195833,7.61565533 13.8016664,7.70267676 13.5418675,7.84856564 C13.2820686,7.99573424 13.103416,8.13074544 13.103416,8.13074544 C12.9223957,8.25447985 12.6863286,8.27047494 12.4895839,8.17233657 L11.8220905,7.79545697 C11.6448874,7.69625744 11.4190238,7.75539695 11.3162353,7.92790871 L10.0493067,10.0720913 C9.94752049,10.2456673 10.0083628,10.4670399 10.185423,10.5673456 L10.8529164,10.9435854 C11.0296058,11.0434041 11.1500164,11.2865522 11.1205681,11.4836302 C11.1205681,11.4836302 11.0878479,11.7011837 11.0878479,12 C11.0878479,12.300096 11.1205681,12.5170097 11.1205681,12.5170097 C11.1411626,12.7318679 11.0377232,12.9400701 10.852262,13.0570545 L10.185423,13.4332942 C10.0089907,13.5337987 9.94850718,13.7546433 10.0499612,13.9279087 L11.3168897,16.0714514 C11.4189769,16.2442146 11.6467099,16.3043617 11.8233993,16.204543 L12.4908927,15.8283033 C12.6873745,15.7299889 12.9233539,15.7459951 13.1040704,15.8698944 C13.1040704,15.8698944 13.2676717,15.9946678 13.5183089,16.1386371 C13.7846518,16.2909246 14.0195833,16.3843447 14.0195833,16.3843447 C14.2193908,16.4760111 14.3512409,16.6679152 14.3624917,16.8834382 L14.3624917,17.6371974 C14.3624917,17.8368348 14.529365,18 14.7335394,18 L17.2660877,18 C17.4708623,17.9996478 17.6367753,17.8374217 17.6371355,17.6371974 L17.6371355,16.8840781 C17.6371355,16.6850805 17.7915751,16.4604884 17.9806982,16.3849845 C17.9806982,16.3849845 18.1966519,16.2992428 18.455142,16.1539938 C18.7155953,16.0068252 18.8955567,15.8698944 18.8955567,15.8698944 C19.0766512,15.7462269 19.3127934,15.7304729 19.5093888,15.8289432 L20.1768822,16.2051829 C20.3535716,16.3050016 20.5826134,16.2454943 20.6840462,16.0727312 L21.9503204,13.9291884 C22.052217,13.7557795 21.9916813,13.5344582 21.8148585,13.4339341 L21.1473652,13.0576944 C20.9617886,12.9408099 20.8583129,12.7325347 20.879059,12.5176496 C20.879059,12.5176496 20.9117793,12.3007358 20.9117793,12.0006399 L20.9117793,12 Z M15.9998136,14.0002133 C15.2603625,14.0131465 14.5713502,13.6348229 14.1977535,13.0107363 C13.8241569,12.3866496 13.8241569,11.6139902 14.1977535,10.9899036 C14.5713502,10.3658169 15.2603625,9.98749333 15.9998136,10.0004266 C16.7427621,9.98204749 17.4374622,10.3590932 17.8144688,10.9853235 C18.1914754,11.6115538 18.1914754,12.3884462 17.8144688,13.0146765 C17.4374622,13.6409068 16.7427621,14.0179525 15.9998136,13.9995734 L15.9998136,14.0002133 Z" id="严重偏差"></path>
                    </g>
                </g>
            </g>
        </g>
    </g>
</svg>