<?xml version="1.0" encoding="UTF-8"?>
<svg width="16px" height="16px" viewBox="0 0 16 16" version="1.1" xmlns="http://www.w3.org/2000/svg" xmlns:xlink="http://www.w3.org/1999/xlink">
    <title>形状备份 15</title>
    <g id="页面-1" stroke="none" stroke-width="1" fill="none" fill-rule="evenodd" opacity="0.600000024">
        <g id="单元驾驶舱" transform="translate(-419.000000, -143.000000)" fill="#96A8DC" fill-rule="nonzero">
            <path d="M427.000032,143 C422.583149,143 419,146.580847 419,150.999329 C419,155.417832 422.583149,159 427.000032,159 C431.419451,159 435,155.417853 435,150.999329 C435,146.580847 431.419451,143 427.000032,143 Z M428.254534,153.944159 C427.651087,154.84942 427.037582,155.549289 426.003459,155.549289 C425.2974,155.434157 425.009401,154.928277 425.162159,154.413723 L426.491719,150.010245 C426.524282,149.902573 426.469235,149.78742 426.371524,149.752317 C426.273876,149.718494 426.081074,149.846243 425.913334,150.027807 L425.112078,150.994341 C425.089531,150.832833 425.109563,150.563653 425.109563,150.45598 C425.71301,149.549462 426.704532,148.834589 427.37562,148.834589 C428.016595,148.899657 428.319597,149.410503 428.206925,149.972692 L426.869864,154.396139 C426.849831,154.49631 426.904899,154.597716 426.995024,154.630303 C427.092672,154.664126 427.30054,154.536356 427.465744,154.354878 L428.269537,153.388258 C428.292041,153.549809 428.254534,153.835251 428.254534,153.944159 Z M428.076713,148.192285 C427.568421,148.192285 427.155262,147.822871 427.155262,147.277029 C427.155262,146.732359 427.568443,146.361751 428.076713,146.361751 C428.584984,146.361751 428.995671,146.732359 428.995671,147.277029 C428.995671,147.822871 428.584963,148.192285 428.076713,148.192285 Z" id="形状备份-15"></path>
        </g>
    </g>
</svg>