<?xml version="1.0" encoding="UTF-8"?>
<svg width="20px" height="18px" viewBox="0 0 20 18" version="1.1" xmlns="http://www.w3.org/2000/svg" xmlns:xlink="http://www.w3.org/1999/xlink">
    <!-- Generator: Sketch 60 (88103) - https://sketch.com -->
    <title>形状</title>
    <desc>Created with Sketch.</desc>
    <g id="组件" stroke="none" stroke-width="1">
        <g id="编组-52">
            <g id="编组-79">
                <path d="M14,0 L14,9 L18,9 L18,16 L20,16 L20,18 L0,18 L0,16 L1,16 L1,6 L5,6 L5,0 L14,0 Z M5,8 L3,8 L3,16 L5,16 L5,8 Z M12,2 L7,2 L7,16 L12,16 L12,2 Z M16,11 L14,11 L14,16 L16,16 L16,11 Z M11,12 L11,14 L8,14 L8,12 L11,12 Z M11,8 L11,10 L8,10 L8,8 L11,8 Z M11,4 L11,6 L8,6 L8,4 L11,4 Z" id="形状"></path>
            </g>
        </g>
    </g>
</svg>