<?xml version="1.0" encoding="UTF-8"?>
<svg width="28px" height="23px" viewBox="0 0 28 23" version="1.1" xmlns="http://www.w3.org/2000/svg" xmlns:xlink="http://www.w3.org/1999/xlink">
    <!-- Generator: Sketch 60 (88103) - https://sketch.com -->
    <title>多云转晴</title>
    <desc>Created with Sketch.</desc>
    <defs>
        <linearGradient x1="50%" y1="0%" x2="50%" y2="100%" id="linearGradient-1">
            <stop stop-color="#D6F1FF" offset="0%"></stop>
            <stop stop-color="#7DD4E4" offset="100%"></stop>
        </linearGradient>
    </defs>
    <g id="集团运维地图" stroke="none" stroke-width="1" fill="none" fill-rule="evenodd">
        <g id="更多信息" transform="translate(-1665.000000, -704.000000)" fill="url(#linearGradient-1)" fill-rule="nonzero">
            <g id="编组-25">
                <g id="编组-19">
                    <g id="编组-56" transform="translate(1440.000000, 0.000000)">
                        <g id="编组-55" transform="translate(20.000000, 435.000000)">
                            <g id="编组-54">
                                <g id="编组-49备份-4" transform="translate(153.000000, 231.000000)">
                                    <g id="编组-48" transform="translate(42.000000, 38.000000)">
                                        <path d="M30.8285408,3.25359071 C33.0393745,3.25359071 34.8316093,5.00160932 34.8316093,7.15789955 C34.8316093,8.93841325 33.6096096,10.440555 31.9389777,10.9100371 C32.0312113,11.173804 32.1093253,11.4447284 32.1728497,11.7213083 L32.1955887,11.8274529 L32.3281905,11.8720954 C34.4491889,12.6104935 35.9455191,14.5512704 36.0172491,16.8067441 L36.0199452,16.9764808 C36.0199452,19.916751 33.6167126,22.3098877 30.6192799,22.3975141 L30.4489914,22.4 L28.9118265,22.4 L28.9118265,20.4478456 L30.4489914,20.4478456 C32.4207567,20.4478456 34.018411,18.8931006 34.018411,16.9764808 C34.018411,15.3576257 32.8679709,13.9690876 31.2781413,13.6018647 L31.1278292,13.5704539 L30.4123149,13.4365135 L30.3232089,12.7312488 C29.9428466,9.72072264 27.3086974,7.43348275 24.1655585,7.43348275 C21.5272911,7.43348275 19.2102054,9.05057592 18.3288992,11.4174691 L18.2684056,11.5877964 L17.9900008,12.4110818 L17.1189261,12.2386372 C16.8402241,12.1834632 16.5546941,12.1554131 16.2648477,12.1554131 C13.9097826,12.1554131 12.0015342,14.0121052 12.0015342,16.3016293 C12.0015342,18.5411328 13.8278668,20.3669045 16.1119148,20.4452275 L16.2648477,20.4478456 L29.8541695,20.4478456 L29.8541695,22.4 L16.2648477,22.4 C12.8055755,22.4 10,19.6700748 10,16.3016293 C10,12.9329061 12.8054436,10.2032586 16.2648477,10.2032586 C16.3495952,10.2032586 16.4341493,10.2049047 16.5184743,10.2081872 L16.6690204,10.2169255 L16.7481382,10.0497093 C18.0561146,7.36435997 20.820836,5.5610403 23.95601,5.48390417 L24.1655585,5.48132833 C25.1641466,5.48132833 26.1238961,5.65590502 27.0128197,5.97644599 C27.5249946,4.39792449 29.0397506,3.25359071 30.8285408,3.25359071 Z M35.5769177,11.5037123 L36.1614126,12.6673098 C36.3228164,12.9886283 36.1853908,13.3761532 35.854464,13.5328707 C35.5235371,13.6895882 35.1244243,13.5561527 34.9630205,13.2348342 L34.3785256,12.0712367 C34.2171218,11.7499181 34.3545474,11.3623933 34.6854742,11.2056757 C35.0164011,11.0489582 35.4155139,11.1823937 35.5769177,11.5037123 Z M36.1825997,7.68066522 L37.4827564,7.97342468 C37.8417848,8.05426798 38.0656406,8.40367392 37.9827524,8.75384469 C37.8998641,9.10401547 37.5416199,9.32234853 37.1825916,9.24150524 L35.8824349,8.94874578 C35.5234065,8.86790248 35.2995507,8.51849654 35.3824389,8.16832577 C35.4653272,7.81815499 35.8235714,7.59982193 36.1825997,7.68066522 Z M30.8285408,5.20574513 C29.8101629,5.20574513 28.9694221,5.94753669 28.8433384,6.9073487 C29.7091863,7.49301977 30.4544539,8.23713115 31.0341716,9.09897023 C32.0429054,8.99954773 32.8300751,8.16838238 32.8300751,7.15789955 C32.8300751,6.07975444 31.9339577,5.20574513 30.8285408,5.20574513 Z M36.5601178,2.68743404 C36.7920049,2.96672608 36.7478486,3.37648097 36.4614918,3.60264721 L35.4245023,4.4216676 C35.1381456,4.64783383 34.7180259,4.60476686 34.4861388,4.32547482 C34.2542517,4.04618278 34.298408,3.63642788 34.5847648,3.41026165 L35.6217543,2.59124126 C35.908111,2.36507502 36.3282307,2.408142 36.5601178,2.68743404 Z M26.0353274,2.59124126 L27.0723169,3.41026165 C27.3586736,3.63642788 27.40283,4.04618278 27.1709429,4.32547482 C26.9390558,4.60476686 26.5189361,4.64783383 26.2325793,4.4216676 L25.1955898,3.60264721 C24.9092331,3.37648097 24.8650767,2.96672608 25.0969639,2.68743404 C25.328851,2.408142 25.7489706,2.36507502 26.0353274,2.59124126 Z M30.8285408,4.61852778e-14 C31.1970131,4.61852778e-14 31.4957189,0.291336435 31.4957189,0.650718141 L31.4957189,1.95215442 C31.4957189,2.31153613 31.1970131,2.60287256 30.8285408,2.60287256 C30.4600686,2.60287256 30.1613627,2.31153613 30.1613627,1.95215442 L30.1613627,0.650718141 C30.1613627,0.291336435 30.4600686,4.61852778e-14 30.8285408,4.61852778e-14 Z" id="多云转晴"></path>
                                    </g>
                                </g>
                            </g>
                        </g>
                    </g>
                </g>
            </g>
        </g>
    </g>
</svg>