<?xml version="1.0" encoding="UTF-8"?>
<svg width="30px" height="30px" viewBox="0 0 30 30" version="1.1" xmlns="http://www.w3.org/2000/svg" xmlns:xlink="http://www.w3.org/1999/xlink">
    <!-- Generator: Sketch 60 (88103) - https://sketch.com -->
    <title>定速风机</title>
    <desc>Created with Sketch.</desc>
    <g id="场区设备概览" stroke="none" stroke-width="1" fill="none" fill-rule="evenodd">
        <g id="画板备份" transform="translate(-163.000000, -68.000000)" fill="#9EB6FB" fill-rule="nonzero">
            <path d="M189.645413,72.6327419 C191.917689,75.8991383 190.923568,78.0293968 186.947086,78.3134313 C185.810948,78.4554485 184.67481,78.739483 183.680689,79.0235174 C182.723348,79.2149857 181.830542,79.7291267 181.437299,80.4354319 C181.788371,80.9090709 182.038893,81.4630322 182.165867,82.071363 C182.369185,81.9929443 182.590396,81.9234096 182.828586,81.8638621 C186.379017,81.1537759 189.645413,81.4378104 191.633655,85.1302585 C193.195844,88.1126204 191.491637,92.3731375 188.367258,94.503396 C185.100862,96.7756718 182.970603,95.7815511 182.686569,91.8050685 C182.544552,90.6689307 182.260517,89.5327928 181.976483,88.5386722 C181.794692,87.6297173 181.322021,86.7789385 180.670174,86.35868 C180.140227,86.7763329 179.50292,87.0662698 178.796543,87.1913369 C178.87066,87.3871486 178.936987,87.6000525 178.994121,87.828586 C179.846224,91.3790168 179.56219,94.7874305 175.727724,96.6336545 C172.745362,98.1958441 168.484845,96.4916373 166.354587,93.3672581 C164.082311,90.1008617 165.076432,87.9706032 169.052914,87.6865687 C170.189052,87.5445515 171.32519,87.260517 172.319311,86.9764826 C173.254731,86.7893985 174.190151,86.2942494 174.598,85.6127826 C174.203299,85.0949133 173.929293,84.4778562 173.808663,83.7965427 C173.612851,83.87066 173.399948,83.9369873 173.171414,83.9941206 C169.620983,84.8462241 166.21257,84.5621896 164.366345,80.7277242 C162.804156,77.7453623 164.508363,73.4848453 167.632742,71.3545868 C170.899138,69.2243282 173.029397,70.2184489 173.313431,74.0529142 C173.455448,75.1890521 173.739483,76.32519 174.023517,77.3193106 C174.214986,78.2766517 174.729127,79.1694583 175.435432,79.5627015 C175.943164,79.1865633 176.543132,78.9255766 177.203457,78.8086631 C177.12934,78.6128514 177.063013,78.3999475 177.005879,78.171414 C176.175079,74.7097439 176.424319,71.383079 179.99131,69.5077192 L180.272276,69.3663455 C183.11262,67.8041559 187.373137,69.5083627 189.645413,72.6327419 Z M176.153776,88.1126204 C175.301673,88.8227066 174.449569,89.2487583 173.455448,89.5327928 L172.88738,89.67481 L171.751242,90.1008617 C170.899138,90.242879 170.189052,90.3848962 169.620983,90.5269134 L169.336949,90.5269134 C168.910897,90.5269134 168.484845,90.6689307 168.200811,90.6689307 C168.342828,90.8109479 168.484845,91.0949824 168.626863,91.3790168 L168.76888,91.6630513 C170.331069,93.7933098 173.029397,94.7874305 174.591586,94.0773443 C176.579828,93.0832237 177.005879,91.6630513 176.43781,88.6806894 L176.295793,88.3966549 L176.290533,88.3545757 C176.280013,88.3019768 176.248454,88.2072986 176.153776,88.1126204 Z M183.822707,84.7042068 L183.396655,84.8462241 L183.254638,84.8462241 L183.396655,84.9882413 C184.106741,85.6983275 184.532793,86.6924481 184.816827,87.828586 L184.958844,88.2546377 L185.242879,89.3907756 L185.364608,90.0863702 C185.466049,90.6370493 185.56749,91.1152706 185.668931,91.5210341 L185.668931,91.8050685 C185.668931,92.2311203 185.810948,92.5151547 185.810948,92.7991892 L185.810948,93.0832237 C185.952965,92.9412064 186.237,92.7991892 186.521034,92.657172 L186.805069,92.5151547 C188.935327,90.9529651 189.929448,88.2546377 189.219362,86.6924481 C188.083224,84.5621896 186.663051,83.9941206 183.822707,84.7042068 Z M178,81.5798277 C177.147897,81.5798277 176.579828,82.1478966 176.579828,83 C176.579828,83.8521034 177.147897,84.4201723 178,84.4201723 C178.852103,84.4201723 179.420172,83.8521034 179.420172,83 C179.420172,82.1478966 178.852103,81.5798277 178,81.5798277 Z M170.331069,73.2008108 L169.834009,73.4315888 C169.656487,73.5203496 169.478966,73.6268625 169.336949,73.7688797 C167.20669,75.3310693 166.21257,78.0293968 166.922656,79.5915864 C167.916776,81.5798277 169.336949,82.0058794 172.319311,81.4378104 L172.603345,81.2957932 L172.745362,81.2957932 L172.603345,81.1537759 C171.893259,80.4436898 171.467207,79.4495691 171.183173,78.3134313 L171.041156,77.8873796 L170.899138,76.7512417 C170.757121,75.8991383 170.615104,75.1890521 170.473087,74.6209832 L170.473087,74.3369487 C170.473087,73.910897 170.473087,73.4848453 170.331069,73.2008108 Z M181.408414,71.9226557 C179.420172,72.9167763 178.994121,74.3369487 179.56219,77.3193106 L179.704207,77.7453623 L179.704207,77.8873796 L179.846224,77.7453623 C180.55631,77.0352761 181.550431,76.6092244 182.686569,76.32519 L183.11262,76.1831727 L184.248758,75.8991383 C185.100862,75.757121 185.810948,75.6151038 186.379017,75.4730866 L186.663051,75.4730866 C187.089103,75.4730866 187.515155,75.3310693 187.799189,75.3310693 C187.657172,75.1890521 187.515155,74.9050176 187.373137,74.6209832 L187.23112,74.3369487 C185.810948,72.0646729 182.970603,71.0705523 181.408414,71.9226557 Z" id="定速风机"></path>
        </g>
    </g>
</svg>