<?xml version="1.0" encoding="UTF-8"?>
<svg width="40px" height="43px" viewBox="0 0 40 43" version="1.1" xmlns="http://www.w3.org/2000/svg" xmlns:xlink="http://www.w3.org/1999/xlink">
    <!-- Generator: Sketch 60 (88103) - https://sketch.com -->
    <title>报警总数</title>
    <desc>Created with Sketch.</desc>
    <g id="页面-1" stroke="none" stroke-width="1" fill="none" fill-rule="evenodd">
        <g id="编组-62备份" transform="translate(-45.000000, -95.000000)" fill="#8EA0EA" fill-rule="nonzero">
            <g id="编组-10" transform="translate(45.000000, 86.000000)">
                <path d="M36.6657978,40.7056711 C34.7253044,38.048401 33.6820848,34.8351597 33.689204,31.5374059 L33.689204,25.1592314 C33.6865303,19.0225232 29.5592987,13.6648168 23.6547985,12.133212 L23.6547985,10.7250504 C23.6547985,9.77233138 22.8874067,9 21.9407809,9 L18.566439,9 C17.6198132,9 16.8524214,9.77233138 16.8524214,10.7250504 L16.8524214,12.1746594 C11.0256137,13.7630203 6.97882073,19.0836194 6.9764896,25.1592314 L6.9764896,29.7677602 C6.97133465,34.1677626 5.47708163,38.4347451 2.73992598,41.8656731 L0,45.29164 L40,45.29164 L36.6657978,40.7056711 Z M6.78725955,41.9344023 C9.08409833,38.2971562 10.3067498,34.0779396 10.3127769,29.7682849 L10.3127769,25.1592314 C10.3127769,19.5979375 14.8084241,15.0733527 20.33415,15.0733527 C25.8598759,15.0733527 30.3555231,19.5979375 30.3555231,25.1592314 L30.3555231,31.5374059 C30.3555112,35.2331116 31.4330617,38.8475801 33.4546213,41.9328284 L6.78725955,41.9344023 Z M20.2924464,51.6666667 C22.8835754,51.6666667 24.9841005,49.5526209 24.9841005,46.9448133 L15.6007924,46.9448133 C15.6007924,49.5526209 17.7013174,51.6666667 20.2924464,51.6666667 Z" id="报警总数"></path>
            </g>
        </g>
    </g>
</svg>