<?xml version="1.0" encoding="UTF-8"?>
<svg width="16px" height="16px" viewBox="0 0 16 16" version="1.1" xmlns="http://www.w3.org/2000/svg" xmlns:xlink="http://www.w3.org/1999/xlink">
    <title>时间</title>
    <g id="值守数据报表1440" stroke="none" stroke-width="1" fill="none" fill-rule="evenodd">
        <g id="报告详情2" transform="translate(-931.000000, -311.000000)" fill="#CDD8F7" fill-rule="nonzero">
            <g id="编组-8" transform="translate(852.000000, 263.000000)">
                <g id="时间" transform="translate(79.000000, 48.000000)">
                    <path d="M8.99999999,8.10000001 L11.4,10.5 L9.99999999,11.9 L7.1,8.99999999 L6.99999999,8.99999999 L6.99999999,3.99999999 L8.99999999,3.99999999 L8.99999999,8.10000001 Z M8.00000001,16 C3.60000001,16 7.81255949e-09,12.4 7.81255949e-09,8.00000001 C7.81255949e-09,3.60000001 3.60000001,7.81250264e-09 8.00000001,7.81250264e-09 C12.4,7.81250264e-09 16,3.60000001 16,8.00000001 C16,12.4 12.4,16 8.00000001,16 Z M8,14 C11.3,14 14,11.3 14,8 C14,4.7 11.3,2 8,2 C4.7,2 2,4.7 2,8 C2,11.3 4.7,14 8,14 Z" id="形状"></path>
                </g>
            </g>
        </g>
    </g>
</svg>