<?xml version="1.0" encoding="UTF-8"?>
<svg width="16px" height="16px" viewBox="0 0 16 16" version="1.1" xmlns="http://www.w3.org/2000/svg" xmlns:xlink="http://www.w3.org/1999/xlink">
    <title>对号</title>
    <g id="值守数据报表1440" stroke="none" stroke-width="1" fill="none" fill-rule="evenodd">
        <g id="报告详情" transform="translate(-931.000000, -486.000000)" fill="#00F4E7" fill-rule="nonzero">
            <g id="对号" transform="translate(931.000000, 486.000000)">
                <path d="M8,16 C3.58171429,16 0,12.4182857 0,8 C0,3.58171429 3.58171429,0 8,0 C12.4182857,0 16,3.58171429 16,8 C16,12.4182857 12.4182857,16 8,16 L8,16 Z M8,1.77828571 C4.56342857,1.77828571 1.77828571,4.56342857 1.77828571,8 C1.77828571,11.4365714 4.56342857,14.2228571 8,14.2228571 C11.4365714,14.2228571 14.2217143,11.4365714 14.2217143,8.00114286 C14.2217143,4.56571429 11.4365714,1.77828571 8,1.77828571 L8,1.77828571 Z M12.7142857,6.01028571 L7.05714286,11.6674286 C6.88342857,11.8411429 6.60228571,11.8411429 6.42857143,11.6674286 L3.28571429,8.52457143 C3.112,8.35085714 3.112,8.06971429 3.28571429,7.896 L3.91428571,7.26742857 C4.088,7.09371429 4.36914286,7.09371429 4.54285714,7.26742857 L6.74285714,9.46742857 L11.4571429,4.75314286 C11.6308571,4.57942857 11.912,4.57942857 12.0857143,4.75314286 L12.7142857,5.38171429 C12.888,5.55542857 12.888,5.83657143 12.7142857,6.01028571 L12.7142857,6.01028571 Z" id="形状"></path>
            </g>
        </g>
    </g>
</svg>