<?xml version="1.0" encoding="UTF-8"?>
<svg width="14px" height="14px" viewBox="0 0 14 14" version="1.1" xmlns="http://www.w3.org/2000/svg" xmlns:xlink="http://www.w3.org/1999/xlink">
    <!-- Generator: Sketch 60 (88103) - https://sketch.com -->
    <title>编辑</title>
    <desc>Created with Sketch.</desc>
    <g id="页面-1" stroke="none" stroke-width="1" fill="none" fill-rule="evenodd">
        <g id="参数设置" transform="translate(-1199.000000, -608.000000)" fill="#68CCFF" fill-rule="nonzero" stroke="#68CCFF" stroke-width="0.5">
            <g id="编组-33备份-2" transform="translate(1200.000000, 609.000000)">
                <path d="M6.3754386,0.777192982 C6.57017544,0.777192982 6.72807018,0.935087719 6.72807018,1.12982456 C6.72807018,1.30508772 6.60017544,1.45050877 6.43263333,1.47784035 L6.3754386,1.48245614 L1.00701754,1.48245614 C0.858869396,1.48245614 0.735672515,1.58919212 0.710124419,1.72996655 L0.705263158,1.78421053 L0.705263158,10.9929825 C0.705263158,11.1411306 0.811999134,11.2643275 0.952773566,11.2898756 L1.00701754,11.2947368 L10.2157895,11.2947368 C10.3639376,11.2947368 10.4871345,11.1880009 10.5126826,11.0472264 L10.5175439,10.9929825 L10.5175439,5.62807018 C10.5175439,5.43333333 10.6754386,5.2754386 10.8701754,5.2754386 C11.0454386,5.2754386 11.1908596,5.40333333 11.2181912,5.57087544 L11.222807,5.62807018 L11.222807,11.4175439 C11.222807,11.7156642 10.9974132,11.9623523 10.7081613,11.9960725 L10.6403509,12 L0.58245614,12 C0.28433584,12 0.0376476907,11.7746062 0.00392754846,11.4853543 L0,11.4175439 L0,1.35964912 C0,1.06152882 0.225393842,0.814840673 0.51464567,0.781120531 L0.58245614,0.777192982 L6.3754386,0.777192982 Z M9.4122807,0.205263158 C9.66804511,-0.0488721805 10.0690297,-0.0670247046 10.3441352,0.150805585 L10.4052632,0.205263158 L11.7947368,1.59473684 C12.0488722,1.84887218 12.0670247,2.25125313 11.8491944,2.52656642 L11.7947368,2.5877193 L5.08245614,9.3 C4.97039474,9.44122807 4.80460526,9.53813048 4.61682086,9.5601494 L4.53508772,9.56491228 L3.09649123,9.56491228 C2.73625731,9.56491228 2.437154,9.28982456 2.39887459,8.93934243 L2.39473684,8.86315789 L2.39473684,7.51403509 C2.39473684,7.34862155 2.45273899,7.19609739 2.54996164,7.07524423 L2.60175439,7.01754386 L9.4122807,0.205263158 Z M10.0315789,0.824561404 C9.97293233,0.765914787 9.88335124,0.757536699 9.8158662,0.799427139 L9.78421053,0.824561404 L3.28245614,7.3245614 C3.21789474,7.3877193 3.17242105,7.46884211 3.15501754,7.55894737 L3.14736842,7.62807018 L3.11403509,8.64912281 C3.11096491,8.75504386 3.18311404,8.84081689 3.28229509,8.85825452 L3.32631579,8.86140351 L4.4,8.82631579 C4.51111111,8.82339181 4.61491228,8.77660819 4.69312865,8.7032245 L4.73684211,8.65614035 L7.68947368,5.70175439 L7.69122807,5.70350877 L11.177193,2.21754386 C11.2358396,2.15889724 11.2442177,2.06931615 11.2023272,2.00183111 L11.177193,1.97017544 L10.0315789,0.824561404 Z" id="编辑"></path>
            </g>
        </g>
    </g>
</svg>