<?xml version="1.0" encoding="UTF-8"?>
<svg width="12px" height="12px" viewBox="0 0 12 12" version="1.1" xmlns="http://www.w3.org/2000/svg" xmlns:xlink="http://www.w3.org/1999/xlink">
    <!-- Generator: Sketch 60 (88103) - https://sketch.com -->
    <title>空圈</title>
    <desc>Created with Sketch.</desc>
    <g id="页面-1" stroke="none" stroke-width="1" fill="none" fill-rule="evenodd">
        <g id="画板" transform="translate(-152.000000, -254.000000)" fill="#1FBFFF">
            <path d="M162.285714,254 C163.232488,254 164,254.767512 164,255.714286 L164,264.285714 C164,265.232488 163.232488,266 162.285714,266 L153.714286,266 C152.767512,266 152,265.232488 152,264.285714 L152,255.714286 C152,254.767512 152.767512,254 153.714286,254 L162.285714,254 Z M157.315767,258.634046 L157.146782,258.636074 L156.926131,258.824654 C156.475416,259.193066 155.969449,259.507324 155.430552,259.737555 L155.158462,259.845531 L155,259.903634 L155.372386,260.424974 L155.527534,260.468471 L155.750438,260.365672 L155.698152,260.418815 L155.698152,260.837101 L155.826723,260.965672 L157.64558,260.964815 L157.64558,262.504243 L155.141009,262.505101 L155.012438,262.633672 L155.012438,263.058815 L155.141009,263.187386 L160.92158,263.187386 L161.050152,263.058815 L161.050152,262.633672 L160.92158,262.505101 L158.375866,262.504243 L158.375866,260.964815 L160.242723,260.965672 L160.371295,260.837101 L160.371295,260.418815 L160.242723,260.290243 L155.906381,260.291664 C156.432018,260.025948 156.947004,259.681626 157.411899,259.297609 L157.750801,259.004287 L157.315767,258.634046 Z M158.819994,258.637993 L158.666445,258.666043 L158.280289,259.090815 L158.427552,259.168092 L158.825137,259.383102 C159.372533,259.686962 159.967426,260.046631 160.350188,260.307157 L160.483274,260.399904 L160.656448,260.378263 L161.044376,259.918162 L160.767568,259.737404 C160.325988,259.457955 159.65363,259.074465 159.065818,258.765382 L158.819994,258.637993 Z M157.966304,256.88 L157.342335,257.051818 L157.496932,257.364336 L157.678152,257.752243 L155.141009,257.753101 L155.012438,257.881672 L155.012438,259.390243 L155.141009,259.518815 L155.586723,259.518815 L155.715295,259.390243 L155.715295,258.427672 L160.313009,258.427672 L160.313009,259.218815 L160.44158,259.347386 L160.901009,259.347386 L161.02958,259.218815 L161.02958,257.881672 L160.901009,257.753101 L158.516438,257.752243 L158.431797,257.568149 L158.262114,257.228425 L158.114274,256.944193 L157.966304,256.88 Z" id="空圈"></path>
        </g>
    </g>
</svg>