<?xml version="1.0" encoding="UTF-8"?>
<svg width="20px" height="20px" viewBox="0 0 20 20" version="1.1" xmlns="http://www.w3.org/2000/svg" xmlns:xlink="http://www.w3.org/1999/xlink">
    <!-- Generator: Sketch 60 (88103) - https://sketch.com -->
    <title>形状</title>
    <desc>Created with Sketch.</desc>
    <g id="页面-1" stroke="none" stroke-width="1" >
        <g id="场区设备概览列表样式" transform="translate(-52.000000, -459.000000)">
            <g id="编组-28" transform="translate(20.000000, 84.000000)">
                <g id="编组-26">
                    <g id="编组-75" transform="translate(0.000000, 360.000000)">
                        <path d="M48,15 L48.0006859,23.3416539 C50.3307123,24.1655203 52,26.3878187 52,29 C52,32.3137085 49.3137085,35 46,35 L32,35 L32,15 L48,15 Z M46,17 L34,17 L34,33 L41.5285648,33.0008689 C40.5780225,31.939252 40,30.5371282 40,29 C40,25.6862915 42.6862915,23 46,23 L46,17 Z M46,25 C43.790861,25 42,26.790861 42,29 C42,31.209139 43.790861,33 46,33 C48.209139,33 50,31.209139 50,29 C50,26.790861 48.209139,25 46,25 Z M39,29 L39,31 L36,31 L36,29 L39,29 Z M45,26 L47,26 L47,28 L49.0169908,28 L49.0169908,30 L45,30 L45,26 Z M40,24 L40,26 L36,26 L36,24 L40,24 Z M42,19 L42,21 L36,21 L36,19 L42,19 Z" id="形状"></path>
                    </g>
                </g>
            </g>
        </g>
    </g>
</svg>