<?xml version="1.0" encoding="UTF-8"?>
<svg width="20px" height="20px" viewBox="0 0 20 20" version="1.1" xmlns="http://www.w3.org/2000/svg" xmlns:xlink="http://www.w3.org/1999/xlink">
    <!-- Generator: Sketch 60 (88103) - https://sketch.com -->
    <title>形状</title>
    <desc>Created with Sketch.</desc>
    <g id="页面-1" stroke="none" stroke-width="1" >
        <g id="场区设备概览列表样式" transform="translate(-51.000000, -389.000000)" >
            <g id="编组-28" transform="translate(20.000000, 84.000000)">
                <g id="编组-26">
                    <g id="编组-73" transform="translate(0.000000, 290.000000)">
                        <path d="M41,15 L41,25 L51,25 C51,30.5228475 46.5228475,35 41,35 C35.4771525,35 31,30.5228475 31,25 C31,19.5707601 35.3266708,15.1520683 40.7200952,15.0038418 L41,15 Z M39,17.252 L38.851359,17.2914923 C35.4722459,18.2308902 33,21.3321967 33,25 C33,29.418278 36.581722,33 41,33 C44.6680044,33 47.7594433,30.5314298 48.7035958,27.1650102 L48.747,27 L39,27 L39,17.252 Z M43,15 C47.3349143,15 50.8645429,18.4478378 50.9961932,22.7508207 L51,22.999 L43,23 L43,15 Z M45,17.342 L45,21 L48.658,20.999 L48.6172069,20.8855589 C48.0130206,19.2809639 46.7409508,18.0056224 45.142799,17.3942274 L45,17.342 Z" id="形状"></path>
                    </g>
                </g>
            </g>
        </g>
    </g>
</svg>