<?xml version="1.0" encoding="UTF-8"?>
<svg width="28px" height="28px" viewBox="0 0 28 28" version="1.1" xmlns="http://www.w3.org/2000/svg" xmlns:xlink="http://www.w3.org/1999/xlink">
    <!-- Generator: Sketch 60 (88103) - https://sketch.com -->
    <title>形状</title>
    <desc>Created with Sketch.</desc>
    <g id="页面-1" stroke="none" stroke-width="1" fill="none" fill-rule="evenodd">
        <g id="厂区-卡片" transform="translate(-315.000000, -607.000000)" fill="#20A4FC" fill-rule="nonzero">
            <g id="编组-23">
                <g id="编组备份-17" transform="translate(300.000000, 560.000000)">
                    <g id="编组-7" transform="translate(15.000000, 40.000000)">
                        <g id="定速风机备份-4" transform="translate(0.000000, 7.000000)">
                            <g id="编组-43">
                                <path d="M22,0 C25.3137085,0 28,2.6862915 28,6 L28,22 C28,25.3137085 25.3137085,28 22,28 L6,28 C2.6862915,28 0,25.3137085 0,22 L0,6 C0,2.6862915 2.6862915,0 6,0 L22,0 Z M22,1 L6,1 C3.3112453,1 1.11818189,3.12230671 1.00461951,5.78311038 L1,6 L1,22 C1,24.6887547 3.12230671,26.8818181 5.78311038,26.9953805 L6,27 L22,27 C24.6887547,27 26.8818181,24.8776933 26.9953805,22.2168896 L27,22 L27,6 C27,3.3112453 24.8776933,1.11818189 22.2168896,1.00461951 L22,1 Z M19.0948683,9.46432457 C20.0889889,10.893373 19.6540612,11.8253611 17.91435,11.9496262 C17.4172897,12.0117587 16.9202294,12.1360238 16.4853016,12.2602889 C16.0664649,12.3440562 15.675862,12.5689929 15.5038181,12.8780015 C15.6574124,13.0852185 15.7670158,13.3275766 15.8225666,13.5937213 C15.9115183,13.5594131 16.0082983,13.5289917 16.1125064,13.5029397 L16.4685595,13.4394497 C17.8823646,13.2202182 19.1617803,13.4408071 19.9647239,14.9319881 C20.6481818,16.2367714 19.9025913,18.1007477 18.5356754,19.0327358 C17.106627,20.0268564 16.1746389,19.5919286 16.0503738,17.8522175 C15.9882413,17.3551572 15.8639762,16.8580968 15.7397111,16.4231691 C15.6601776,16.0255013 15.4533841,15.6532856 15.168201,15.4694225 C14.9363493,15.6521456 14.6575277,15.778993 14.3484874,15.8337099 C14.3809138,15.9193775 14.4099319,16.012523 14.4349278,16.1125064 C14.807723,17.6658199 14.6834579,19.1570008 13.0058794,19.9647239 C11.701096,20.6481818 9.83711981,19.9025913 8.90513171,18.5356754 C7.91101106,17.106627 8.34593885,16.1746389 10.08565,16.0503738 C10.5827103,15.9882413 11.0797706,15.8639762 11.5146984,15.7397111 C11.9239447,15.6578619 12.3331911,15.4412341 12.5116248,15.1430924 C12.3389434,14.9165246 12.2190655,14.6465621 12.1662901,14.3484874 C12.0806225,14.3809138 11.987477,14.4099319 11.8874936,14.4349278 C10.3341801,14.807723 8.84299917,14.6834579 8.03527614,13.0058794 C7.3518182,11.701096 8.09740868,9.83711981 9.46432457,8.90513171 C10.893373,7.9731436 11.8253611,8.40807139 11.9496262,10.08565 C12.0117587,10.5827103 12.1360238,11.0797706 12.2602889,11.5146984 C12.3440562,11.9335351 12.5689929,12.324138 12.8780015,12.4961819 C13.1001344,12.3316215 13.36262,12.2174397 13.6515126,12.1662901 C13.6190862,12.0806225 13.5900681,11.987477 13.5650722,11.8874936 C13.2015969,10.373013 13.3106395,8.91759705 14.8711982,8.09712715 L14.9941206,8.03527614 C16.2367714,7.3518182 18.1007477,8.09740868 19.0948683,9.46432457 Z M13.192277,16.2367714 C12.8194817,16.5474341 12.4466865,16.7338318 12.0117587,16.8580968 L11.7632286,16.9202294 L11.2661682,17.106627 C10.893373,17.1687595 10.5827103,17.2308921 10.3341801,17.2930246 L10.2099151,17.2930246 C10.0235174,17.2930246 9.83711981,17.3551572 9.71285473,17.3551572 C9.77498727,17.4172897 9.83711981,17.5415548 9.89925235,17.6658199 L9.96138489,17.7900849 C10.6448428,18.7220731 11.8253611,19.1570008 12.508819,18.8463381 C13.3786746,18.4114104 13.5650722,17.7900849 13.3165421,16.4853016 L13.2544095,16.3610365 L13.2521083,16.3426269 C13.2475059,16.3196148 13.2336987,16.2781931 13.192277,16.2367714 Z M16.5474341,14.7455905 L16.3610365,14.807723 L16.298904,14.807723 L16.3610365,14.8698556 C16.6716992,15.1805183 16.8580968,15.615446 16.9823619,16.1125064 L17.0444945,16.298904 L17.1687595,16.7959643 L17.222016,17.100287 C17.2663964,17.341209 17.3107768,17.5504309 17.3551572,17.7279524 L17.3551572,17.8522175 C17.3551572,18.0386151 17.4172897,18.1628802 17.4172897,18.2871453 L17.4172897,18.4114104 C17.4638891,18.3648109 17.5454381,18.3182115 17.6357244,18.2716121 L17.8522175,18.1628802 C18.7842056,17.4794222 19.2191334,16.298904 18.9084707,15.615446 C18.4114104,14.6834579 17.7900849,14.4349278 16.5474341,14.7455905 Z M14,13.3786746 C13.6272048,13.3786746 13.3786746,13.6272048 13.3786746,14 C13.3786746,14.3727952 13.6272048,14.6213254 14,14.6213254 C14.3727952,14.6213254 14.6213254,14.3727952 14.6213254,14 C14.6213254,13.6272048 14.3727952,13.3786746 14,13.3786746 Z M10.6448428,9.71285473 L10.4273789,9.81382011 C10.3497133,9.85265294 10.2720476,9.89925235 10.2099151,9.96138489 C9.27792695,10.6448428 8.84299917,11.8253611 9.15366187,12.508819 C9.58858965,13.3786746 10.2099151,13.5650722 11.5146984,13.3165421 L11.6389635,13.2544095 L11.701096,13.2544095 L11.6389635,13.192277 C11.3283008,12.8816143 11.1419032,12.4466865 11.0176381,11.9496262 L10.9555055,11.7632286 L10.893373,11.2661682 C10.8312405,10.893373 10.7691079,10.5827103 10.7069754,10.3341801 L10.7069754,10.2099151 C10.7069754,10.0235174 10.7069754,9.83711981 10.6448428,9.71285473 Z M15.491181,9.15366187 C14.6213254,9.58858965 14.4349278,10.2099151 14.6834579,11.5146984 L14.7455905,11.701096 L14.7455905,11.7632286 L14.807723,11.701096 C15.1183857,11.3904333 15.5533135,11.2040357 16.0503738,11.0797706 L16.2367714,11.0176381 L16.7338318,10.893373 C17.106627,10.8312405 17.4172897,10.7691079 17.6658199,10.7069754 L17.7900849,10.7069754 C17.9764826,10.7069754 18.1628802,10.6448428 18.2871453,10.6448428 C18.2250127,10.5827103 18.1628802,10.4584452 18.1007477,10.3341801 L18.0386151,10.2099151 C17.4172897,9.21579441 16.1746389,8.78086663 15.491181,9.15366187 Z" id="形状"></path>
                            </g>
                        </g>
                    </g>
                </g>
            </g>
        </g>
    </g>
</svg>