<?xml version="1.0" encoding="UTF-8"?>
<svg width="100px" height="100px" viewBox="0 0 100 100" version="1.1" xmlns="http://www.w3.org/2000/svg" xmlns:xlink="http://www.w3.org/1999/xlink">
    <title>晴转中雨@3x</title>
    <defs>
        <linearGradient x1="50%" y1="0%" x2="50%" y2="100%" id="linearGradient-1">
            <stop stop-color="#D6F1FF" offset="0%"></stop>
            <stop stop-color="#7DD4E4" offset="100%"></stop>
        </linearGradient>
    </defs>
    <g id="页面-1" stroke="none" stroke-width="1" fill="none" fill-rule="evenodd">
        <g id="天气icon" transform="translate(-1253.000000, -642.000000)">
            <g id="晴转中雨" transform="translate(1253.000000, 642.000000)">
                <rect id="矩形备份-15" opacity="0.100000001" x="0" y="0" width="100" height="100" rx="10"></rect>
                <path d="M53.9927826,60.0090565 L54.1014235,60.0210449 L54.2065708,60.0366974 C55.3363305,60.2282192 55.6628793,61.0802044 56.1101935,63.8359125 L56.3274999,65.2450444 L56.4104658,65.8407498 C56.6597562,67.7128656 56.7782483,69.4229901 56.6757259,70.2218756 C56.3820392,72.5228492 54.4729269,74.2499378 52.3143058,73.9702633 C50.1558909,73.6913844 48.7443249,71.5351845 49.0387493,69.2347 C49.1407976,68.4370671 49.6835876,66.8192766 50.3933604,65.0772603 L50.5131551,64.7858933 L50.7482754,64.2285226 L51.1995785,63.1887258 C52.3227314,60.6463439 52.853363,59.9071511 53.9927826,60.0090565 Z M62.9927826,60.0090565 L63.1014235,60.0210449 L63.2065708,60.0366974 C64.3363305,60.2282192 64.6628793,61.0802044 65.1101935,63.8359125 L65.3274999,65.2450444 L65.4104658,65.8407498 C65.6597562,67.7128656 65.7782483,69.4229901 65.6757259,70.2218756 C65.3820392,72.5228492 63.4729269,74.2499378 61.3143058,73.9702633 C59.1558909,73.6913844 57.7443249,71.5351845 58.0387493,69.2347 C58.1407976,68.4370671 58.6835876,66.8192766 59.3933604,65.0772603 L59.5131551,64.7858933 L59.7482754,64.2285226 L60.1995785,63.1887258 C61.3227314,60.6463439 61.853363,59.9071511 62.9927826,60.0090565 Z M53.4837926,64.8266614 L53.2692573,65.3205163 C52.4931471,67.1302891 51.8360817,69.0035694 51.7614877,69.5866132 C51.6496835,70.4601951 52.1091939,71.162108 52.6648171,71.2338976 C53.2203625,71.305875 53.8414253,70.7440272 53.9529953,69.869902 C54.0082497,69.4393422 53.9332081,68.2457759 53.7711838,66.8655847 L53.6775179,66.1206272 L53.5690273,65.359804 L53.4837926,64.8266614 Z M62.4837926,64.8266614 L62.2692573,65.3205163 C61.4931471,67.1302891 60.8360817,69.0035694 60.7614877,69.5866132 C60.6496835,70.4601951 61.1091939,71.162108 61.6648171,71.2338976 C62.2203625,71.305875 62.8414253,70.7440272 62.9529953,69.869902 C63.0082497,69.4393422 62.9332081,68.2457759 62.7711838,66.8655847 L62.6775179,66.1206272 L62.5690273,65.359804 L62.4837926,64.8266614 Z M43.9996173,33.9448434 C49.1920362,33.9448434 53.5477745,37.5230047 54.7355651,42.3481298 C55.8488627,41.8759063 57.0546592,41.5879065 58.3102975,41.5171452 L58.625539,41.5039914 L58.92,41.5 C63.7295483,41.5 67.8585416,44.6791183 69.2015306,49.1250687 L69.2802555,49.3988363 L69.286,49.423 L69.5508451,49.4350266 C73.858864,49.6891842 77.308065,53.1368266 77.5646787,57.4441845 L77.5762257,57.703639 L77.58,57.96 C77.58,62.4841524 74.0562823,66.2031325 69.557556,66.483687 L69.3018869,66.4958776 L69.04,66.5 L67.536,66.5 L67.321,63.5 L69.0152187,63.5002047 L69.2274922,63.496903 C72.2067728,63.3983076 74.58,60.9499972 74.58,57.96 C74.58,54.9003425 72.0996575,52.42 69.04,52.42 C68.8690057,52.42 68.6988106,52.427702 68.529964,52.4429589 L68.2777741,52.4714919 L66.7910205,52.6738131 L66.5891519,51.1869979 C66.0718713,47.3770906 62.8030544,44.5 58.92,44.5 C55.6050508,44.5 52.6970453,46.6030346 51.6189102,49.6645336 L51.5355319,49.914841 L51.0971785,51.3096327 L49.6916147,50.9071553 C49.1212057,50.743821 48.5269703,50.66 47.92,50.66 C44.3743319,50.66 41.5,53.5343319 41.5,57.08 C41.5,60.4738947 44.1381581,63.2645453 47.468133,63.4853562 L47.696226,63.4964063 L47.92,63.5 L48.357,63.5 L47.929,66.5 L47.8970865,66.5 L47.6274412,66.4955297 C42.5485091,66.3401391 38.5,62.1733548 38.5,57.08 C38.5,56.2770176 38.6004701,55.4975012 38.7895252,54.7533361 C35.3107917,52.8914705 32.9443124,49.2221471 32.9443124,44.9999652 C32.9443124,38.8940196 37.8935705,33.9448434 43.9996173,33.9448434 Z M35.3317884,53.6690421 C35.8763077,54.2135524 35.9103402,55.0752333 35.4338858,55.6593899 L35.3317884,55.7723447 L31.2543684,59.8496971 C30.6735478,60.4305081 29.7318516,60.4305081 29.151031,59.8496971 C28.6065117,59.3051868 28.5724793,58.4435059 29.0489336,57.8593493 L29.151031,57.7463945 L33.228451,53.6690421 C33.8092716,53.0882311 34.7509678,53.0882311 35.3317884,53.6690421 Z M43.9996173,36.9193625 C39.5363793,36.9193625 35.9188807,40.5368011 35.9188807,44.9999652 C35.9188807,47.9996191 37.5528826,50.6174456 39.9793557,52.0118084 C41.6520789,49.3946702 44.5834625,47.66 47.92,47.66 C48.1734307,47.66 48.42565,47.6700429 48.6762139,47.6899885 L49.0507626,47.7273163 L49.164,47.743 L49.1959598,47.6747181 C49.8670001,46.2447947 50.8380874,44.9988949 52.0209438,44.0079548 C51.5313408,40.012356 48.1272713,36.9193625 43.9996173,36.9193625 Z M30.2534239,43.5127057 C31.0748283,43.5127057 31.7407081,44.1785745 31.7407081,44.9999652 C31.7407081,45.7730389 31.150863,46.4083491 30.3966593,46.4804165 L30.2534239,46.4872247 L24.4872842,46.4872247 C23.6658798,46.4872247 23,45.821356 23,44.9999652 C23,44.2268916 23.5898451,43.5915813 24.3440488,43.5195139 L24.4872842,43.5127057 L30.2534239,43.5127057 Z M31.140716,30.0491813 L31.2536726,30.151277 L35.3310926,34.2286294 C35.9119132,34.8094404 35.9119132,35.751121 35.3310926,36.331932 C34.7865733,36.8764423 33.9248781,36.9104742 33.3407118,36.4340277 L33.2277552,36.331932 L29.1503352,32.2545796 C28.5695146,31.6737686 28.5695146,30.732088 29.1503352,30.151277 C29.6948545,29.6067667 30.5565497,29.5727348 31.140716,30.0491813 Z M58.8496849,30.1510188 C59.3941578,30.6955756 59.4281167,31.5572594 58.9516125,32.1413753 L58.8495055,32.2543214 L54.7713897,36.3316738 C54.1905196,36.9124352 53.2488233,36.9123549 52.6680523,36.3314944 C52.1235795,35.7869376 52.0896205,34.9252538 52.5661248,34.3411379 L52.6682318,34.2281918 L56.7463475,30.1508394 C57.3272177,29.570078 58.2689139,29.5701583 58.8496849,30.1510188 Z M43.9996173,24 C44.7727038,24 45.4080245,24.5898353 45.4800931,25.3440265 L45.4869015,25.4872595 L45.4869015,31.2539996 C45.4869015,32.0753903 44.8210217,32.7412591 43.9996173,32.7412591 C43.2265309,32.7412591 42.5912101,32.1514238 42.5191415,31.3972326 L42.5123332,31.2539996 L42.5123332,25.4872595 C42.5123332,24.6658688 43.1782129,24 43.9996173,24 Z" id="形状结合备份-3" fill="url(#linearGradient-1)" fill-rule="nonzero"></path>
            </g>
        </g>
    </g>
</svg>