<?xml version="1.0" encoding="UTF-8"?>
<svg width="100px" height="100px" viewBox="0 0 100 100" version="1.1" xmlns="http://www.w3.org/2000/svg" xmlns:xlink="http://www.w3.org/1999/xlink">
    <title>晴天@3x</title>
    <defs>
        <linearGradient x1="50%" y1="0%" x2="50%" y2="100%" id="linearGradient-1">
            <stop stop-color="#D6F1FF" offset="0%"></stop>
            <stop stop-color="#7DD4E4" offset="100%"></stop>
        </linearGradient>
    </defs>
    <g id="页面-1" stroke="none" stroke-width="1" fill="none" fill-rule="evenodd">
        <g id="天气icon" transform="translate(-803.000000, -642.000000)">
            <g id="晴天" transform="translate(803.000000, 642.000000)">
                <rect id="矩形备份-14" opacity="0.100000001" x="0" y="0" width="100" height="100" rx="10"></rect>
                <path d="M50.0003131,62.2587409 C50.7733996,62.2587409 51.4087203,62.8485762 51.4807889,63.6027674 L51.4875973,63.7460004 L51.4875973,69.5127405 C51.4875973,70.3341312 50.8217175,71 50.0003131,71 C49.2272267,71 48.5919059,70.4101647 48.5198373,69.6559735 L48.513029,69.5127405 L48.513029,63.7460004 C48.513029,62.9246097 49.1789088,62.2587409 50.0003131,62.2587409 Z M41.3317884,58.6690421 C41.8763077,59.2135524 41.9103402,60.0752333 41.4338858,60.6593899 L41.3317884,60.7723447 L37.2543684,64.8496971 C36.6735478,65.4305081 35.7318516,65.4305081 35.151031,64.8496971 C34.6065117,64.3051868 34.5724793,63.4435059 35.0489336,62.8593493 L35.151031,62.7463945 L39.228451,58.6690421 C39.8092716,58.0882311 40.7509678,58.0882311 41.3317884,58.6690421 Z M60.6592186,58.5662506 L60.7721753,58.6683463 L64.8495952,62.7456987 C65.4304158,63.3265097 65.4304158,64.2681903 64.8495952,64.8490013 C64.3050759,65.3935116 63.4433807,65.4275435 62.8592145,64.951097 L62.7462578,64.8490013 L58.6688378,60.7716489 C58.0880172,60.1908379 58.0880172,59.2491573 58.6688378,58.6683463 C59.2133571,58.123836 60.0750523,58.0898041 60.6592186,58.5662506 Z M49.9996173,38.9448434 C56.1062356,38.9448434 61.055618,43.8938953 61.055618,49.9999652 C61.055618,56.1061344 56.1061363,61.0557828 49.9996173,61.0557828 C43.8936698,61.0557828 38.9443124,56.1060101 38.9443124,49.9999652 C38.9443124,43.8940196 43.8935705,38.9448434 49.9996173,38.9448434 Z M49.9996173,41.9193625 C45.5363793,41.9193625 41.9188807,45.5368011 41.9188807,49.9999652 C41.9188807,54.4632955 45.5365454,58.0812638 49.9996173,58.0812638 C54.4632941,58.0812638 58.0810497,54.4633864 58.0810497,49.9999652 C58.0810497,45.5367102 54.4634603,41.9193625 49.9996173,41.9193625 Z M36.2534239,48.5127057 C37.0748283,48.5127057 37.7407081,49.1785745 37.7407081,49.9999652 C37.7407081,50.7730389 37.150863,51.4083491 36.3966593,51.4804165 L36.2534239,51.4872247 L30.4872842,51.4872247 C29.6658798,51.4872247 29,50.821356 29,49.9999652 C29,49.2268916 29.5898451,48.5915813 30.3440488,48.5195139 L30.4872842,48.5127057 L36.2534239,48.5127057 Z M69.5127158,48.5127057 C70.3341202,48.5127057 71,49.1785745 71,49.9999652 C71,50.7730389 70.4101549,51.4083491 69.6559512,51.4804165 L69.5127158,51.4872247 L63.7465761,51.4872247 C62.9251717,51.4872247 62.2592919,50.821356 62.2592919,49.9999652 C62.2592919,49.2268916 62.849137,48.5915813 63.6033407,48.5195139 L63.7465761,48.5127057 L69.5127158,48.5127057 Z M37.140716,35.0491813 L37.2536726,35.151277 L41.3310926,39.2286294 C41.9119132,39.8094404 41.9119132,40.751121 41.3310926,41.331932 C40.7865733,41.8764423 39.9248781,41.9104742 39.3407118,41.4340277 L39.2277552,41.331932 L35.1503352,37.2545796 C34.5695146,36.6737686 34.5695146,35.732088 35.1503352,35.151277 C35.6948545,34.6067667 36.5565497,34.5727348 37.140716,35.0491813 Z M64.8496849,35.1510188 C65.3941578,35.6955756 65.4281167,36.5572594 64.9516125,37.1413753 L64.8495055,37.2543214 L60.7713897,41.3316738 C60.1905196,41.9124352 59.2488233,41.9123549 58.6680523,41.3314944 C58.1235795,40.7869376 58.0896205,39.9252538 58.5661248,39.3411379 L58.6682318,39.2281918 L62.7463475,35.1508394 C63.3272177,34.570078 64.2689139,34.5701583 64.8496849,35.1510188 Z M49.9996173,29 C50.7727038,29 51.4080245,29.5898353 51.4800931,30.3440265 L51.4869015,30.4872595 L51.4869015,36.2539996 C51.4869015,37.0753903 50.8210217,37.7412591 49.9996173,37.7412591 C49.2265309,37.7412591 48.5912101,37.1514238 48.5191415,36.3972326 L48.5123332,36.2539996 L48.5123332,30.4872595 C48.5123332,29.6658688 49.1782129,29 49.9996173,29 Z" fill="url(#linearGradient-1)" fill-rule="nonzero"></path>
            </g>
        </g>
    </g>
</svg>