<?xml version="1.0" encoding="UTF-8"?>
<svg width="100px" height="100px" viewBox="0 0 100 100" version="1.1" xmlns="http://www.w3.org/2000/svg" xmlns:xlink="http://www.w3.org/1999/xlink">
    <title>晴转大雨@3x</title>
    <defs>
        <linearGradient x1="50%" y1="0%" x2="50%" y2="100%" id="linearGradient-1">
            <stop stop-color="#D6F1FF" offset="0%"></stop>
            <stop stop-color="#7DD4E4" offset="100%"></stop>
        </linearGradient>
    </defs>
    <g id="页面-1" stroke="none" stroke-width="1" fill="none" fill-rule="evenodd">
        <g id="天气icon" transform="translate(-1403.000000, -642.000000)">
            <g id="晴转大雨" transform="translate(1403.000000, 642.000000)">
                <rect id="矩形备份-15" opacity="0.100000001" x="0" y="0" width="100" height="100" rx="10"></rect>
                <path d="M58.6378626,62.0084096 L58.7387434,62.0195417 L58.8363801,62.0340762 C59.8854428,62.2119178 60.1886666,63.003047 60.6040298,65.5619188 L60.8058144,66.8703984 L60.8828542,67.4235534 C61.114338,69.1619466 61.2243664,70.7499194 61.129167,71.4917416 C60.856458,73.6283599 59.0837109,75.2320851 57.079277,74.9723873 C55.0750345,74.7134283 53.7642947,72.7112428 54.0376888,70.5750786 C54.1324479,69.8344195 54.6364672,68.3321854 55.295542,66.7145988 L55.4067799,66.4440438 L55.6251059,65.9264852 L56.044173,64.9609597 C57.0871007,62.6001765 57.5798301,61.9137832 58.6378626,62.0084096 Z M58.165229,66.4818999 L57.9660177,66.9404794 C57.2453439,68.6209828 56.6352117,70.3604573 56.5659459,70.9018551 C56.4621277,71.7130383 56.888816,72.3648146 57.4047518,72.4314764 C57.9206154,72.4983125 58.4973165,71.9765967 58.6009173,71.164909 C58.6522249,70.7651034 58.5825434,69.6567919 58.4320923,68.3751858 L58.3451168,67.6834395 L58.2443755,66.9769609 L58.165229,66.4818999 Z M50.6361553,58.0084096 L50.7370361,58.0195417 L50.8346728,58.0340762 C51.8837355,58.2119178 52.1869593,59.003047 52.6023225,61.5619188 L52.8041071,62.8703984 L52.8811469,63.4235534 C53.1126307,65.1619466 53.2226591,66.7499194 53.1274597,67.4917416 C52.8547506,69.6283599 51.0820036,71.2320851 49.0775697,70.9723873 C47.0733272,70.7134283 45.7625874,68.7112428 46.0359815,66.5750786 C46.1307406,65.8344195 46.6347599,64.3321854 47.2938347,62.7145988 L47.4050726,62.4440438 L47.6233986,61.9264852 L48.0424657,60.9609597 C49.0853934,58.6001765 49.5781228,57.9137832 50.6361553,58.0084096 Z M66.6395699,56.0084096 L66.7404507,56.0195417 L66.8380874,56.0340762 C67.8871501,56.2119178 68.1903739,57.003047 68.6057371,59.5619188 L68.8075217,60.8703984 L68.8845615,61.4235534 C69.1160453,63.1619466 69.2260737,64.7499194 69.1308743,65.4917416 C68.8581653,67.6283599 67.0854182,69.2320851 65.0809843,68.9723873 C63.0767418,68.7134283 61.766002,66.7112428 62.0393961,64.5750786 C62.1341552,63.8344195 62.6381745,62.3321854 63.2972493,60.7145988 L63.4084872,60.4440438 L63.6268132,59.9264852 L64.0458803,58.9609597 C65.088808,56.6001765 65.5815374,55.9137832 66.6395699,56.0084096 Z M50.1635217,62.4818999 L49.9643104,62.9404794 C49.2436366,64.6209828 48.6335044,66.3604573 48.5642386,66.9018551 C48.4604204,67.7130383 48.8871087,68.3648146 49.4030445,68.4314764 C49.918908,68.4983125 50.4956092,67.9765967 50.59921,67.164909 C50.6505176,66.7651034 50.5808361,65.6567919 50.430385,64.3751858 L50.3434095,63.6834395 L50.2426682,62.9769609 L50.1635217,62.4818999 Z M66.1669363,60.4818999 L65.967725,60.9404794 C65.2470512,62.6209828 64.636919,64.3604573 64.5676532,64.9018551 C64.463835,65.7130383 64.8905233,66.3648146 65.4064591,66.4314764 C65.9223227,66.4983125 66.4990238,65.9765967 66.6026246,65.164909 C66.6539322,64.7651034 66.5842507,63.6567919 66.4337996,62.3751858 L66.3468241,61.6834395 L66.2460828,60.9769609 L66.1669363,60.4818999 Z M43.9996173,33.9448434 C49.1920362,33.9448434 53.5477745,37.5230047 54.7355651,42.3481298 C55.8488627,41.8759063 57.0546592,41.5879065 58.3102975,41.5171452 L58.625539,41.5039914 L58.92,41.5 C63.7295483,41.5 67.8585416,44.6791183 69.2015306,49.1250687 L69.2802555,49.3988363 L69.286,49.423 L69.5508451,49.4350266 C73.858864,49.6891842 77.308065,53.1368266 77.5646787,57.4441845 L77.5762257,57.703639 L77.58,57.96 C77.58,62.1627513 74.5391567,65.6706675 70.5006644,66.3727787 L70.5004975,63.3057406 C72.8551939,62.6643314 74.58,60.5090084 74.58,57.96 C74.58,54.9003425 72.0996575,52.42 69.04,52.42 C68.8690057,52.42 68.6988106,52.427702 68.529964,52.4429589 L68.2777741,52.4714919 L66.7910205,52.6738131 L66.5891519,51.1869979 C66.0718713,47.3770906 62.8030544,44.5 58.92,44.5 C55.6050508,44.5 52.6970453,46.6030346 51.6189102,49.6645336 L51.5355319,49.914841 L51.0971785,51.3096327 L49.6916147,50.9071553 C49.1212057,50.743821 48.5269703,50.66 47.92,50.66 C44.3743319,50.66 41.5,53.5343319 41.5,57.08 C41.5,59.6273788 42.9862475,61.8349105 45.1357337,62.871022 L44.503956,65.861745 C40.9851541,64.4923351 38.5,61.0705525 38.5,57.08 C38.5,56.2770176 38.6004701,55.4975012 38.7895252,54.7533361 C35.3107917,52.8914705 32.9443124,49.2221471 32.9443124,44.9999652 C32.9443124,38.8940196 37.8935705,33.9448434 43.9996173,33.9448434 Z M35.3317884,53.6690421 C35.8763077,54.2135524 35.9103402,55.0752333 35.4338858,55.6593899 L35.3317884,55.7723447 L31.2543684,59.8496971 C30.6735478,60.4305081 29.7318516,60.4305081 29.151031,59.8496971 C28.6065117,59.3051868 28.5724793,58.4435059 29.0489336,57.8593493 L29.151031,57.7463945 L33.228451,53.6690421 C33.8092716,53.0882311 34.7509678,53.0882311 35.3317884,53.6690421 Z M43.9996173,36.9193625 C39.5363793,36.9193625 35.9188807,40.5368011 35.9188807,44.9999652 C35.9188807,47.9996191 37.5528826,50.6174456 39.9793557,52.0118084 C41.6520789,49.3946702 44.5834625,47.66 47.92,47.66 C48.1734307,47.66 48.42565,47.6700429 48.6762139,47.6899885 L49.0507626,47.7273163 L49.164,47.743 L49.1959598,47.6747181 C49.8670001,46.2447947 50.8380874,44.9988949 52.0209438,44.0079548 C51.5313408,40.012356 48.1272713,36.9193625 43.9996173,36.9193625 Z M30.2534239,43.5127057 C31.0748283,43.5127057 31.7407081,44.1785745 31.7407081,44.9999652 C31.7407081,45.7730389 31.150863,46.4083491 30.3966593,46.4804165 L30.2534239,46.4872247 L24.4872842,46.4872247 C23.6658798,46.4872247 23,45.821356 23,44.9999652 C23,44.2268916 23.5898451,43.5915813 24.3440488,43.5195139 L24.4872842,43.5127057 L30.2534239,43.5127057 Z M31.140716,30.0491813 L31.2536726,30.151277 L35.3310926,34.2286294 C35.9119132,34.8094404 35.9119132,35.751121 35.3310926,36.331932 C34.7865733,36.8764423 33.9248781,36.9104742 33.3407118,36.4340277 L33.2277552,36.331932 L29.1503352,32.2545796 C28.5695146,31.6737686 28.5695146,30.732088 29.1503352,30.151277 C29.6948545,29.6067667 30.5565497,29.5727348 31.140716,30.0491813 Z M58.8496849,30.1510188 C59.3941578,30.6955756 59.4281167,31.5572594 58.9516125,32.1413753 L58.8495055,32.2543214 L54.7713897,36.3316738 C54.1905196,36.9124352 53.2488233,36.9123549 52.6680523,36.3314944 C52.1235795,35.7869376 52.0896205,34.9252538 52.5661248,34.3411379 L52.6682318,34.2281918 L56.7463475,30.1508394 C57.3272177,29.570078 58.2689139,29.5701583 58.8496849,30.1510188 Z M43.9996173,24 C44.7727038,24 45.4080245,24.5898353 45.4800931,25.3440265 L45.4869015,25.4872595 L45.4869015,31.2539996 C45.4869015,32.0753903 44.8210217,32.7412591 43.9996173,32.7412591 C43.2265309,32.7412591 42.5912101,32.1514238 42.5191415,31.3972326 L42.5123332,31.2539996 L42.5123332,25.4872595 C42.5123332,24.6658688 43.1782129,24 43.9996173,24 Z" id="形状结合备份-3" fill="url(#linearGradient-1)" fill-rule="nonzero"></path>
            </g>
        </g>
    </g>
</svg>