<?xml version="1.0" encoding="UTF-8"?>
<svg width="100px" height="100px" viewBox="0 0 100 100" version="1.1" xmlns="http://www.w3.org/2000/svg" xmlns:xlink="http://www.w3.org/1999/xlink">
    <title>降霜@3x</title>
    <defs>
        <linearGradient x1="50%" y1="0%" x2="50%" y2="100%" id="linearGradient-1">
            <stop stop-color="#D6F1FF" offset="0%"></stop>
            <stop stop-color="#7DD4E4" offset="100%"></stop>
        </linearGradient>
    </defs>
    <g id="页面-1" stroke="none" stroke-width="1" fill="none" fill-rule="evenodd">
        <g id="天气icon" transform="translate(-203.000000, -199.000000)">
            <g id="降霜" transform="translate(203.000000, 199.000000)">
                <rect id="矩形备份" opacity="0.100000001" x="0" y="0" width="100" height="100" rx="10"></rect>
                <path d="M36,65 C37.6568542,65 39,66.3431458 39,68 C39,69.6568542 37.6568542,71 36,71 C34.3431458,71 33,69.6568542 33,68 C33,66.3431458 34.3431458,65 36,65 Z M46,65 C47.6568542,65 49,66.3431458 49,68 C49,69.6568542 47.6568542,71 46,71 C44.3431458,71 43,69.6568542 43,68 C43,66.3431458 44.3431458,65 46,65 Z M66,65 C67.6568542,65 69,66.3431458 69,68 C69,69.6568542 67.6568542,71 66,71 C64.3431458,71 63,69.6568542 63,68 C63,66.3431458 64.3431458,65 66,65 Z M56,65 C57.6568542,65 59,66.3431458 59,68 C59,69.6568542 57.6568542,71 56,71 C54.3431458,71 53,69.6568542 53,68 C53,66.3431458 54.3431458,65 56,65 Z M52.6162275,29 C59.5044381,29 65.3618813,33.7364951 66.9153416,40.2225946 L66.9882569,40.5429805 L67.041,40.799 L67.3308265,40.8929228 C71.0765783,42.1678059 73.7529675,45.5941234 73.9838008,49.6148786 L73.9961112,49.9030653 L74,50.1804978 C74,55.5135086 69.7263028,59.8507364 64.4038803,59.9962291 L64.1276638,60 L38.1431247,60 C31.9909778,60 27,55.0401025 27,48.9169259 C27,42.7942226 31.9912032,37.8338519 38.1431247,37.8338519 C38.3436837,37.8338519 38.5437208,37.8391981 38.7431015,37.8498382 L39.0416633,37.8697621 L39.097,37.875 L39.2520436,37.5272962 C41.5190603,32.6115284 46.3817947,29.2703916 51.9325449,29.0156629 L52.2803454,29.0037748 L52.6162275,29 Z M52.6162275,32 C47.6236638,32 43.2418086,35.1352703 41.5946553,39.7158035 L41.4972442,39.9980358 L41.0795432,41.2606313 L39.7760037,40.9971803 C39.2404332,40.8889392 38.694728,40.8338519 38.1431247,40.8338519 C33.6439104,40.8338519 30,44.4552524 30,48.9169259 C30,53.296407 33.5099509,56.8656019 37.8940521,56.9962924 L38.1431247,57 L64.1276638,57 C67.9250285,57 71,53.944354 71,50.1804978 C71,46.9842021 68.7660724,44.2455761 65.6810803,43.5391433 L65.4357854,43.487623 L64.3630644,43.2824663 L64.228911,42.1985739 C63.5116533,36.403489 58.5454725,32 52.6162275,32 Z" fill="url(#linearGradient-1)" fill-rule="nonzero"></path>
            </g>
        </g>
    </g>
</svg>