<?xml version="1.0" encoding="UTF-8"?>
<svg width="20px" height="20px" viewBox="0 0 20 20" version="1.1" xmlns="http://www.w3.org/2000/svg" xmlns:xlink="http://www.w3.org/1999/xlink">
    <!-- Generator: Sketch 60 (88103) - https://sketch.com -->
    <title>形状</title>
    <desc>Created with Sketch.</desc>
    <g id="页面-1" stroke="none" stroke-width="1" fill="none" fill-rule="evenodd">
        <g id="关注" transform="translate(-1440.000000, -297.000000)" fill="#10AEFF" fill-rule="nonzero">
            <g id="编组-23">
                <path d="M1452.63162,304.313042 C1453.01954,304.700764 1453.68438,304.700764 1454.12733,304.313042 L1457.89491,300.601161 L1457.89491,303.592734 C1457.89491,304.036107 1458.22733,304.368335 1458.67028,304.368335 L1459.22417,304.368335 C1459.66755,304.368335 1460,304.091378 1460,303.703655 L1460,298.218751 L1459.94451,298.218751 L1460,297.831073 C1460,297.609364 1459.94451,297.443127 1459.83354,297.27698 C1459.72304,297.166215 1459.50115,297.055472 1459.27965,297.055472 L1458.89177,297.055472 L1453.40738,297 C1452.96403,297 1452.63162,297.387924 1452.63162,297.775579 L1452.63162,298.329673 C1452.68709,298.828294 1453.07461,299.105251 1453.51794,299.105251 L1456.39877,299.105251 L1452.68711,302.817155 C1452.18829,303.204855 1452.18829,303.86987 1452.63164,304.313042 L1452.63162,304.313042 Z M1447.36834,309.631575 C1446.98084,309.243696 1446.316,309.243696 1445.87263,309.631575 L1442.10509,313.3433 L1442.10509,310.406975 C1442.10509,309.964027 1441.77305,309.631575 1441.32969,309.631575 L1440.77542,309.631575 C1440.33245,309.631575 1440,309.908533 1440,310.296412 L1440,315.72571 L1440.05547,315.72571 L1440,316.113589 C1440,316.335074 1440.05547,316.501087 1440.16601,316.667504 C1440.27696,316.778448 1440.49885,316.888989 1440.72031,316.888989 L1441.10821,316.888989 L1446.59258,316.944461 C1447.03633,316.944461 1447.36836,316.556559 1447.36836,316.169061 L1447.36836,315.614788 C1447.31289,315.116346 1446.92539,314.839389 1446.48204,314.839389 L1443.60125,314.839389 L1447.3684,311.127283 C1447.75628,310.739405 1447.75628,310.074546 1447.36838,309.631575 L1447.36834,309.631575 Z M1459.94446,315.78116 L1459.94446,310.351481 C1459.94446,309.908533 1459.55654,309.68707 1459.16904,309.68707 L1458.61479,309.68707 C1458.17182,309.68707 1457.83937,310.074568 1457.83937,310.46247 L1457.83937,313.398772 L1454.07183,309.68707 C1453.68436,309.299146 1453.01948,309.299146 1452.5761,309.68707 C1452.18825,310.074568 1452.18825,310.739405 1452.5761,311.182756 L1456.34328,314.894458 L1453.46245,314.894458 C1453.0195,314.894458 1452.63158,315.171773 1452.5761,315.670216 L1452.5761,316.224153 C1452.5761,316.667504 1452.96405,316.99991 1453.35155,316.99991 L1458.72573,316.944438 L1459.11366,316.944438 C1459.33512,316.944438 1459.50115,316.888966 1459.66755,316.722953 C1459.77847,316.612009 1459.83354,316.390524 1459.83354,316.169039 L1459.94446,315.78116 C1459.88899,315.78116 1459.94446,315.78116 1459.94446,315.78116 L1459.94446,315.78116 Z M1443.65668,299.105274 L1446.53751,299.105274 C1446.98088,299.105274 1447.36838,298.828294 1447.42383,298.329695 L1447.42383,297.775579 C1447.42383,297.332407 1447.03635,297 1446.64807,297 L1441.1637,297.055472 L1440.77542,297.055472 C1440.55434,297.055472 1440.38792,297.110944 1440.22153,297.27698 C1440.11097,297.387924 1440.05552,297.609387 1440.05552,297.831073 L1440.11097,298.218751 L1440.05552,298.218751 L1440.05552,303.703678 C1440.05552,304.14685 1440.38795,304.368357 1440.83092,304.368357 L1441.38481,304.368357 C1441.82856,304.368357 1442.16059,304.03613 1442.16059,303.592779 L1442.16059,300.601139 L1445.92774,304.313042 C1446.31602,304.700764 1446.98088,304.700764 1447.42383,304.313042 C1447.81178,303.925163 1447.81178,303.260327 1447.42383,302.817155 L1443.65668,299.105274 Z" id="形状"></path>
            </g>
        </g>
    </g>
</svg>