<?xml version="1.0" encoding="UTF-8"?>
<svg width="10px" height="13px" viewBox="0 0 10 13" version="1.1" xmlns="http://www.w3.org/2000/svg" xmlns:xlink="http://www.w3.org/1999/xlink">
    <!-- Generator: Sketch 60 (88103) - https://sketch.com -->
    <title>补水</title>
    <desc>Created with Sketch.</desc>
    <g id="楼房厂区概览" stroke="none" stroke-width="1" fill="#125A9E" fill-rule="evenodd">
        <g transform="translate(-1541.000000, -202.000000)" fill="#FFFFFF" fill-rule="nonzero" id="编组">
            <g transform="translate(1541.000000, 202.000000)">
                <path d="M4.97530541,0.750604504 C5.14963796,0.750446244 5.31611663,0.815020009 5.45096375,0.938361372 L5.52788602,1.01937058 L5.57670909,1.08972491 L8.59196485,6.09342347 C9.37639694,7.39649265 9.39967457,9.02067936 8.65290781,10.3456935 C7.97634202,11.5461476 6.76017873,12.3359681 5.39533123,12.4742333 L5.16654697,12.4912033 L4.98291824,12.4949784 C4.63791566,12.4947487 4.29422369,12.452525 3.9595944,12.3692809 C2.65894608,12.0466896 1.58870514,11.1257419 1.07577355,9.88773849 C0.594900193,8.72711032 0.657400136,7.4170689 1.23679098,6.311946 L1.35955318,6.09375866 L4.37501358,1.08929734 C4.48400033,0.909252825 4.66678674,0.789186194 4.87141212,0.758414162 L4.97530541,0.750604504 Z M4.975,1.936 L2.17592488,6.58499023 C1.55051807,7.62265987 1.55051807,8.92117391 2.17594723,9.95888065 C3.10603897,11.5026858 5.11924233,12.0021422 6.66290001,11.0720602 C8.15148895,10.1751581 8.66912826,8.2710002 7.87027684,6.75206383 L7.77608036,6.58494914 L4.975,1.936 Z M6.16774258,5.82622643 C6.32841098,5.82622643 6.4793153,5.89629501 6.58285701,6.01526548 L6.63899774,6.09234665 L7.63108277,7.73884588 C7.94842857,8.26621307 7.95777324,8.92346478 7.65554868,9.4596409 C7.40287298,9.90791246 6.96370201,10.2155035 6.45581351,10.3042119 L6.30150322,10.3241797 L6.17050404,10.329692 C6.03105324,10.3296155 5.89213076,10.3125559 5.7569408,10.2789235 C5.23061658,10.148299 4.79754232,9.77559644 4.58994809,9.27461282 C4.40311328,8.82372756 4.41888227,8.31711573 4.62781133,7.88156279 L4.70459547,7.73918421 L5.69657822,6.09219608 C5.7961987,5.92712518 5.9749405,5.82622643 6.16774258,5.82622643 Z M6.168,7.155 L5.52043826,8.23035495 C5.32920874,8.54771183 5.39610658,8.95688568 5.67844969,9.19681585 C5.9607928,9.43674601 6.37539932,9.43674601 6.65774243,9.19681585 C6.91185123,8.9808787 6.99144936,8.62785417 6.86541344,8.32804195 L6.81574269,8.23033642 L6.168,7.155 Z" id="补水"></path>
            </g>
        </g>
    </g>
</svg>