<?xml version="1.0" encoding="UTF-8"?>
<svg width="100px" height="100px" viewBox="0 0 100 100" version="1.1" xmlns="http://www.w3.org/2000/svg" xmlns:xlink="http://www.w3.org/1999/xlink">
    <title>冰雹@3x</title>
    <defs>
        <linearGradient x1="50%" y1="0%" x2="50%" y2="100%" id="linearGradient-1">
            <stop stop-color="#D6F1FF" offset="0%"></stop>
            <stop stop-color="#7DD4E4" offset="100%"></stop>
        </linearGradient>
    </defs>
    <g id="页面-1" stroke="none" stroke-width="1" fill="none" fill-rule="evenodd">
        <g id="天气icon" transform="translate(-53.000000, -199.000000)">
            <g id="冰雹" transform="translate(53.000000, 199.000000)">
                <rect id="矩形" opacity="0.100000001" x="0" y="0" width="100" height="100" rx="10"></rect>
                <path d="M50.8059878,60.5034036 C53.7146493,60.5034036 56.0719265,62.8530765 56.0719265,65.7517018 C56.0719265,68.6503271 53.7146493,71 50.8059878,71 C47.898299,71 45.540049,68.6499425 45.540049,65.7517018 C45.540049,62.8534612 47.898299,60.5034036 50.8059878,60.5034036 Z M50.8059878,63.4846854 C49.5502664,63.4846854 48.5313515,64.5000607 48.5313515,65.7517018 C48.5313515,67.0033429 49.5502664,68.0187182 50.8059878,68.0187182 C52.0625152,68.0187182 53.080624,67.0038937 53.080624,65.7517018 C53.080624,64.49951 52.0625152,63.4846854 50.8059878,63.4846854 Z M44.2625136,52.3669887 C46.7922295,52.3669887 48.8429455,54.4112492 48.8429455,56.9324299 C48.8429455,59.453066 46.7920666,61.4971642 44.2625136,61.4971642 C41.7329606,61.4971642 39.6820817,59.453066 39.6820817,56.9324299 C39.6820817,54.4112492 41.7327977,52.3669887 44.2625136,52.3669887 Z M57.0067085,52.0564385 C59.3470741,52.0564385 61.244387,53.9473955 61.244387,56.2799211 C61.244387,58.6129798 59.3472631,60.5034036 57.0067085,60.5034036 C54.665619,60.5034036 52.76903,58.6131681 52.76903,56.2799211 C52.76903,53.9472071 54.6658079,52.0564385 57.0067085,52.0564385 Z M52.0688596,29 C58.9213214,29 64.7304342,33.7965154 66.1413509,40.3140231 L66.1934969,40.572541 L66.2180459,40.5801483 C70.1046051,41.7912021 72.8773183,45.3503401 72.9960343,49.5046377 L73,49.7824534 C73,55.0175001 68.8139153,59.2793384 63.5963144,59.4247421 L63.3207684,59.428577 L63.3207684,56.4472952 C67.0137735,56.4472952 70.0086975,53.4627493 70.0086975,49.7824534 C70.0086975,46.6571701 67.8312253,43.9804122 64.830527,43.2920182 L64.5919441,43.2418303 L63.5224763,43.0370534 L63.3896433,41.9597799 C62.690321,36.2882911 57.8469718,31.9812818 52.0688596,31.9812818 C47.2062684,31.9812818 42.9355317,35.0439064 41.324306,39.5228055 L41.227086,39.8045659 L40.8118093,41.0610997 L39.5106499,40.7994004 C38.9892256,40.6945275 38.4576826,40.6409738 37.9213699,40.6409738 C33.541403,40.6409738 29.9913025,44.179004 29.9913025,48.5444761 C29.9913025,52.8269977 33.4087866,56.3134936 37.6743567,56.4435349 L37.9213699,56.4472952 L37.9213699,59.428577 C31.8895087,59.428577 27,54.5559374 27,48.5444761 C27,42.532454 31.8893859,37.659692 37.9213699,37.659692 C38.1176974,37.659692 38.3135617,37.6649201 38.5088085,37.6753151 L38.8320533,37.6975916 L38.8532386,37.648082 C41.0618441,32.572061 46.0537326,29.1341887 51.7339509,29.0038401 L52.0688596,29 Z M44.2625136,55.3482705 C43.3849842,55.3482705 42.6733842,56.0576304 42.6733842,56.9324299 C42.6733842,57.8065788 43.3850407,58.5158824 44.2625136,58.5158824 C45.1399865,58.5158824 45.851643,57.8065788 45.851643,56.9324299 C45.851643,56.0576304 45.140043,55.3482705 44.2625136,55.3482705 Z M57.0067085,55.0377203 C56.3179808,55.0377203 55.7603325,55.5936019 55.7603325,56.2799211 C55.7603325,56.9666516 56.3176697,57.5221218 57.0067085,57.5221218 C57.6953345,57.5221218 58.2530845,56.9663416 58.2530845,56.2799211 C58.2530845,55.5939119 57.6950234,55.0377203 57.0067085,55.0377203 Z" fill="url(#linearGradient-1)" fill-rule="nonzero"></path>
            </g>
        </g>
    </g>
</svg>