<?xml version="1.0" encoding="UTF-8"?>
<svg width="100px" height="100px" viewBox="0 0 100 100" version="1.1" xmlns="http://www.w3.org/2000/svg" xmlns:xlink="http://www.w3.org/1999/xlink">
    <title>大雨转晴@3x</title>
    <defs>
        <linearGradient x1="50%" y1="0%" x2="50%" y2="100%" id="linearGradient-1">
            <stop stop-color="#D6F1FF" offset="0%"></stop>
            <stop stop-color="#7DD4E4" offset="100%"></stop>
        </linearGradient>
    </defs>
    <g id="页面-1" stroke="none" stroke-width="1" fill="none" fill-rule="evenodd">
        <g id="天气icon" transform="translate(-353.000000, -400.000000)">
            <g id="大雨转晴" transform="translate(353.000000, 400.000000)">
                <rect id="矩形备份-18" opacity="0.100000001" x="0" y="0" width="100" height="100" rx="10"></rect>
                <path d="M62.9196192,29.1004826 C66.9445757,29.1004826 70.2074477,32.3780175 70.2074477,36.4210617 C70.2074477,39.7595248 67.9827232,42.5760407 64.9412366,43.4563196 C65.1091535,43.9508824 65.2513649,44.4588658 65.3670148,44.9774531 L65.4084126,45.1764743 L65.6498222,45.2601789 C69.5112282,46.6446753 72.2353879,50.283632 72.3659767,54.5126452 L72.3708851,54.8309015 C72.3708851,60.2436468 68.1533463,64.6674914 62.8352824,64.9821055 C62.9419949,64.6750822 63,64.344315 63,64 L63,64 L63,62 C63,61.7600592 62.9718316,61.5266975 62.9186212,61.3030414 C66.1838104,60.9582735 68.7269709,58.1912178 68.7269709,54.8309015 C68.7269709,51.7955482 66.632525,49.1920393 63.738144,48.5034964 L63.4644918,48.444601 L62.1618548,48.1934627 L61.9996318,46.8710916 C61.3071592,41.2263549 56.5115312,36.9377802 50.7892566,36.9377802 C45.9861312,36.9377802 41.7677364,39.9698299 40.1632651,44.4077546 L40.0531328,44.7271182 L39.54628,46.2707784 L37.9604358,45.9474447 C37.453042,45.8439935 36.9332174,45.7913995 36.4055345,45.7913995 C32.1179959,45.7913995 28.6439142,49.2726973 28.6439142,53.565555 C28.6439142,57.7470858 31.9411464,61.1593359 36.0750513,61.3327901 C36.025874,61.5461209 36,61.7700388 36,62 L36,62 L36,64 C36,64.3498625 36.0598893,64.6857372 36.1699754,64.9979313 L36.4055345,65 C30.10772,65 25,59.8813902 25,53.565555 C25,47.2491989 30.1074799,42.1311099 36.4055345,42.1311099 C36.5598223,42.1311099 36.7137583,42.1341964 36.867277,42.140351 L37.1413552,42.1567354 L37.2853941,41.8432049 C39.6666443,36.8081749 44.6999869,33.4269506 50.4077608,33.2823203 L50.7892566,33.2774906 C52.6072467,33.2774906 54.3545287,33.6048219 55.972868,34.2058362 C56.9053134,31.2461084 59.6630184,29.1004826 62.9196192,29.1004826 Z M71.5643267,44.5694605 L72.628435,46.7512058 C72.9222803,47.3536781 72.6720888,48.0802872 72.0696165,48.3741326 C71.4671441,48.667978 70.7405351,48.4177864 70.4466897,47.8153141 L69.3825814,45.6335688 C69.088736,45.0310965 69.3389276,44.3044874 69.9413999,44.010642 C70.5438722,43.7167966 71.2704813,43.9669882 71.5643267,44.5694605 Z M72.6670074,37.4012473 L75.0340214,37.9501713 C75.6876543,38.1017525 76.0951973,38.7568886 75.9442943,39.4134588 C75.7933912,40.070029 75.141186,40.4794035 74.4875532,40.3278223 L72.1205392,39.7788983 C71.4669063,39.6273172 71.0593633,38.972181 71.2102663,38.3156108 C71.3611694,37.6590406 72.0133746,37.2496661 72.6670074,37.4012473 Z M62.9196192,32.7607721 C61.0656005,32.7607721 59.534981,34.1516313 59.3054381,35.9512788 C60.8817666,37.0494121 62.2385714,38.4446209 63.2939825,40.0605692 C65.1304434,39.874152 66.5635334,38.315717 66.5635334,36.4210617 C66.5635334,34.3995396 64.9320975,32.7607721 62.9196192,32.7607721 Z M73.354302,28.0389388 C73.7764665,28.5626114 73.6960772,29.3309018 73.1747474,29.7549635 L71.2868452,31.2906267 C70.7655155,31.7146884 70.0006622,31.6339379 69.5784977,31.1102653 C69.1563331,30.5865927 69.2367224,29.8183023 69.7580522,29.3942406 L71.6459544,27.8585774 C72.1672842,27.4345157 72.9321374,27.5152662 73.354302,28.0389388 Z M54.193284,27.8585774 L56.0811862,29.3942406 C56.602516,29.8183023 56.6829053,30.5865927 56.2607407,31.1102653 C55.8385762,31.6339379 55.0737229,31.7146884 54.5523932,31.2906267 L52.664491,29.7549635 C52.1431612,29.3309018 52.0627719,28.5626114 52.4849364,28.0389388 C52.907101,27.5152662 53.6719542,27.4345157 54.193284,27.8585774 Z M50.1209185,62.0092889 L50.2323475,62.021585 L50.3401933,62.0376392 C51.4989475,62.2340762 51.8338769,63.107927 52.292671,65.9343582 L52.5155545,67.3796544 L52.6006496,67.990648 C52.8563378,69.9108102 52.9778709,71.6648237 52.8727173,72.484212 C52.5714934,74.8442382 50.6133853,76.6156512 48.3993649,76.3287991 C46.1855559,76.042763 44.7377632,73.831226 45.0397437,71.4717013 C45.144411,70.6535978 45.7011313,68.994288 46.4291199,67.2075642 L46.551989,66.9087195 L46.7931435,66.3370443 L47.2560289,65.2705619 C48.4080066,62.6629318 48.9522565,61.9047682 50.1209185,62.0092889 Z M49.5988656,66.9505339 L49.3788245,67.4570632 C48.582796,69.3132824 47.9088675,71.2346389 47.8323591,71.8326461 C47.7176856,72.7286478 48.188989,73.4485747 48.7588718,73.5222068 C49.3286748,73.5960314 49.9656767,73.0197642 50.0801101,72.1232053 C50.1367825,71.6815955 50.059815,70.4573973 49.8936325,69.0417845 L49.7975627,68.2777083 L49.6862878,67.4973592 L49.5988656,66.9505339 Z M41.1209185,58.0092889 L41.2323475,58.021585 L41.3401933,58.0376392 C42.4989475,58.2340762 42.8338769,59.107927 43.292671,61.9343582 L43.5155545,63.3796544 L43.6006496,63.990648 C43.8563378,65.9108102 43.9778709,67.6648237 43.8727173,68.484212 C43.5714934,70.8442382 41.6133853,72.6156512 39.3993649,72.3287991 C37.1855559,72.042763 35.7377632,69.831226 36.0397437,67.4717013 C36.144411,66.6535978 36.7011313,64.994288 37.4291199,63.2075642 L37.551989,62.9087195 L37.7931435,62.3370443 L38.2560289,61.2705619 C39.4080066,58.6629318 39.9522565,57.9047682 41.1209185,58.0092889 Z M59.1209185,56.0092889 L59.2323475,56.021585 L59.3401933,56.0376392 C60.4989475,56.2340762 60.8338769,57.107927 61.292671,59.9343582 L61.5155545,61.3796544 L61.6006496,61.990648 C61.8563378,63.9108102 61.9778709,65.6648237 61.8727173,66.484212 C61.5714934,68.8442382 59.6133853,70.6156512 57.3993649,70.3287991 C55.1855559,70.042763 53.7377632,67.831226 54.0397437,65.4717013 C54.144411,64.6535978 54.7011313,62.994288 55.4291199,61.2075642 L55.551989,60.9087195 L55.7931435,60.3370443 L56.2560289,59.2705619 C57.4080066,56.6629318 57.9522565,55.9047682 59.1209185,56.0092889 Z M40.5988656,62.9505339 L40.3788245,63.4570632 C39.582796,65.3132824 38.9088675,67.2346389 38.8323591,67.8326461 C38.7176856,68.7286478 39.188989,69.4485747 39.7588718,69.5222068 C40.3286748,69.5960314 40.9656767,69.0197642 41.0801101,68.1232053 C41.1367825,67.6815955 41.059815,66.4573973 40.8936325,65.0417845 L40.7975627,64.2777083 L40.6862878,63.4973592 L40.5988656,62.9505339 Z M58.5988656,60.9505339 L58.3788245,61.4570632 C57.582796,63.3132824 56.9088675,65.2346389 56.8323591,65.8326461 C56.7176856,66.7286478 57.188989,67.4485747 57.7588718,67.5222068 C58.3286748,67.5960314 58.9656767,67.0197642 59.0801101,66.1232053 C59.1367825,65.6815955 59.059815,64.4573973 58.8936325,63.0417845 L58.7975627,62.2777083 L58.6862878,61.4973592 L58.5988656,60.9505339 Z M62.9196192,23 C63.5904453,23 64.1342573,23.5462558 64.1342573,24.2200965 L64.1342573,26.6602895 C64.1342573,27.3341302 63.5904453,27.8803861 62.9196192,27.8803861 C62.2487931,27.8803861 61.7049811,27.3341302 61.7049811,26.6602895 L61.7049811,24.2200965 C61.7049811,23.5462558 62.2487931,23 62.9196192,23 Z" id="多云转晴备份-3" fill="url(#linearGradient-1)" fill-rule="nonzero"></path>
            </g>
        </g>
    </g>
</svg>