<?xml version="1.0" encoding="UTF-8"?>
<svg width="100px" height="100px" viewBox="0 0 100 100" version="1.1" xmlns="http://www.w3.org/2000/svg" xmlns:xlink="http://www.w3.org/1999/xlink">
    <title>大雨@3x</title>
    <defs>
        <linearGradient x1="50%" y1="0%" x2="50%" y2="100%" id="linearGradient-1">
            <stop stop-color="#D6F1FF" offset="0%"></stop>
            <stop stop-color="#7DD4E4" offset="100%"></stop>
        </linearGradient>
    </defs>
    <g id="页面-1" stroke="none" stroke-width="1" fill="none" fill-rule="evenodd">
        <g id="天气icon" transform="translate(-353.000000, -642.000000)">
            <g id="大雨" transform="translate(353.000000, 642.000000)">
                <rect id="矩形备份-5" opacity="0.100000001" x="0" y="0" width="100" height="100" rx="10"></rect>
                <path d="M50.7002235,56.6743523 C51.0293756,56.3954872 51.4144212,56.2138336 51.9193655,56.2635737 L52.0922088,56.288908 L52.194547,56.3101478 C53.3921028,56.5769203 53.6405083,57.3165363 53.9682772,60.4361614 L54.0271519,61.0117776 L54.1155275,61.9207759 C54.3188311,64.1282882 54.3889802,66.22623 54.2526882,67.1327431 C53.8900722,69.5503112 51.9610963,71.3647717 49.7544205,70.937396 C47.6125489,70.5235661 46.3770361,68.1898965 46.7340037,65.8156124 C46.8499891,65.044163 47.3569444,63.5190243 48.0192887,61.8476297 L48.2591258,61.2526419 L48.6524786,60.3171191 C49.0322937,59.4373703 49.4001636,58.6557338 49.7164057,58.0648646 C49.9238104,57.6773479 50.1115578,57.365808 50.2891921,57.1252965 C50.4178891,56.9510447 50.5471752,56.8040183 50.7002235,56.6743523 Z M41.8721781,54.699667 C42.2013311,54.4208011 42.5863774,54.2391472 43.0913223,54.2888873 L43.2641657,54.3142216 L43.3664983,54.3354607 C44.5639896,54.6022296 44.8124755,55.3420236 45.1404557,58.4615058 L45.1993692,59.0370934 L45.2878082,59.9460786 C45.4912803,62.1537301 45.561548,64.2516876 45.4251774,65.158724 C45.0617376,67.5760565 43.1329262,69.3903622 40.9270665,68.9629437 C38.7848703,68.5492453 37.5496558,66.216139 37.9058967,63.8410736 C38.0423522,62.9334728 38.719952,60.9826832 39.555085,58.9778286 L39.824404,58.342489 C40.0522969,57.8146307 40.2758895,57.3220934 40.4866101,56.884891 L40.6421032,56.5676773 L40.888349,56.0901963 C41.0957569,55.7026737 41.283507,55.3911293 41.4611436,55.1506147 C41.5898417,54.9763613 41.719129,54.8293337 41.8721781,54.699667 Z M51.1287383,62.1349725 L50.8509638,62.8197397 L50.5605201,63.5665167 C50.0989229,64.7822097 49.7598552,65.8238822 49.6955829,66.2513739 C49.5528051,67.2010261 49.9534987,67.9578669 50.3290157,68.0304205 C50.6383814,68.0903365 51.1550059,67.6043819 51.2910332,66.6974856 C51.3646717,66.207697 51.3338194,64.8274576 51.2211352,63.2599348 L51.1780033,62.70006 L51.1287383,62.1349725 Z M59.1750607,52.7283816 C59.4913538,52.4372252 59.8657169,52.240362 60.3706366,52.2675225 L60.543878,52.2850511 L60.7428054,52.3196941 C61.7793818,52.533282 62.0962725,53.1852 62.4698296,55.5959403 L62.5884399,56.4020293 L62.7820699,57.8296981 L62.862558,58.4837275 C63.0910395,60.4301057 63.1996491,62.2060052 63.1066786,63.0260246 C62.8326257,65.4499376 60.9825218,67.3402719 58.7684049,67.016417 C56.6040745,66.7016953 55.2804581,64.4183763 55.5508622,62.0267393 C55.6389765,61.251966 56.0899997,59.7063268 56.6904917,58.0082054 L56.9082888,57.403544 L57.1364133,56.7922613 L57.3967298,56.1210066 C57.6982547,55.3603195 57.9898457,54.684198 58.2472224,54.1557887 C58.4399667,53.7600736 58.6158055,53.4411191 58.7839088,53.1937684 C58.9053438,53.0150862 59.0282381,52.8635358 59.1750607,52.7283816 Z M42.3009628,60.1602861 L42.1249671,60.5905735 L41.8084965,61.3928988 C41.438837,62.3538059 41.1385654,63.223498 40.979721,63.7936858 L40.9075374,64.0737424 L40.8675517,64.2763311 C40.7250137,65.2266346 41.1256417,65.9833514 41.5016622,66.0559683 C41.8104474,66.1158001 42.3272801,65.6296497 42.4635982,64.7229625 C42.5415612,64.2044102 42.5023005,62.6875499 42.3727603,61.0070319 L42.3503389,60.7255733 L42.3009628,60.1602861 Z M59.808802,58.180663 L59.5637699,58.8557296 L59.384451,59.368279 C58.9206358,60.7168035 58.5787527,61.8962364 58.5263565,62.3569453 C58.418862,63.3077011 58.8392279,64.032858 59.2050907,64.0860597 C59.5201553,64.1321436 60.0273855,63.6138836 60.1311266,62.6963266 C60.1934014,62.1470494 60.086237,60.4996301 59.8760419,58.7246769 L59.808802,58.180663 Z M52.1646046,29 C59.3162787,29 65.3767575,33.9782819 66.831881,40.7365606 L66.8859932,41.0049363 L66.9090722,41.0122791 C70.9740391,42.2516451 73.876996,45.9387911 73.9961882,50.2432044 L74,50.5187748 C74,55.9236249 69.6439234,60.3227909 64.216092,60.4679284 L63.9391929,60.4716263 L63.9391929,57.5095967 C67.8414195,57.5095967 71.0058421,54.3793104 71.0058421,50.5187748 C71.0058421,47.2377915 68.6988133,44.4275817 65.5209727,43.7087647 L65.2810244,43.6588001 L64.2110163,43.4550525 L64.0780931,42.3851459 C63.3420816,36.4609466 58.2453519,31.9620296 52.1646046,31.9620296 C47.0429902,31.9620296 42.5459458,35.1664606 40.8534717,39.8521102 L40.7553062,40.1350129 L40.338759,41.3862239 L39.0340358,41.1228407 C38.4871998,41.0124515 37.9274399,40.9561708 37.3606459,40.9561708 C32.740166,40.9561708 28.9941579,44.6621692 28.9941579,49.2328837 C28.9941579,53.7209341 32.6049308,57.3745632 37.1094903,57.5059388 L37.3606459,57.5095967 L37.3606459,60.4716263 C31.0862737,60.4716263 26,55.4399299 26,49.2328837 C26,43.0263187 31.0865046,37.9941412 37.3606459,37.9941412 C37.6680509,37.9941412 37.9741419,38.0063722 38.2783517,38.0306516 L38.3576568,38.03797 L38.3887148,37.9645655 C40.6853444,32.7015967 45.8939072,29.1364915 51.8218267,29.0038329 L52.1646046,29 Z" fill="url(#linearGradient-1)" fill-rule="nonzero"></path>
            </g>
        </g>
    </g>
</svg>