<?xml version="1.0" encoding="UTF-8"?>
<svg width="100px" height="100px" viewBox="0 0 100 100" version="1.1" xmlns="http://www.w3.org/2000/svg" xmlns:xlink="http://www.w3.org/1999/xlink">
    <title>大雨转阴@3x</title>
    <defs>
        <linearGradient x1="50%" y1="0%" x2="50%" y2="100%" id="linearGradient-1">
            <stop stop-color="#D6F1FF" offset="0%"></stop>
            <stop stop-color="#7DD4E4" offset="100%"></stop>
        </linearGradient>
    </defs>
    <g id="页面-1" stroke="none" stroke-width="1" fill="none" fill-rule="evenodd">
        <g id="天气icon" transform="translate(-353.000000, -936.000000)">
            <g id="大雨转阴" transform="translate(353.000000, 936.000000)">
                <rect id="矩形备份-5" opacity="0.100000001" x="0" y="0" width="100" height="100" rx="10"></rect>
                <path d="M46.7002235,56.6743523 C47.0293756,56.3954872 47.4144212,56.2138336 47.9193655,56.2635737 L48.0922088,56.288908 L48.194547,56.3101478 C49.3921028,56.5769203 49.6405083,57.3165363 49.9682772,60.4361614 L50.0271519,61.0117776 L50.1155275,61.9207759 C50.3188311,64.1282882 50.3889802,66.22623 50.2526882,67.1327431 C49.8900722,69.5503112 47.9610963,71.3647717 45.7544205,70.937396 C43.6125489,70.5235661 42.3770361,68.1898965 42.7340037,65.8156124 C42.8499891,65.044163 43.3569444,63.5190243 44.0192887,61.8476297 L44.2591258,61.2526419 L44.6524786,60.3171191 C45.0322937,59.4373703 45.4001636,58.6557338 45.7164057,58.0648646 C45.9238104,57.6773479 46.1115578,57.365808 46.2891921,57.1252965 C46.4178891,56.9510447 46.5471752,56.8040183 46.7002235,56.6743523 Z M37.8721781,54.699667 C38.2013311,54.4208011 38.5863774,54.2391472 39.0913223,54.2888873 L39.2641657,54.3142216 L39.3664983,54.3354607 C40.5639896,54.6022296 40.8124755,55.3420236 41.1404557,58.4615058 L41.1993692,59.0370934 L41.2878082,59.9460786 C41.4912803,62.1537301 41.561548,64.2516876 41.4251774,65.158724 C41.0617376,67.5760565 39.1329262,69.3903622 36.9270665,68.9629437 C34.7848703,68.5492453 33.5496558,66.216139 33.9058967,63.8410736 C34.0423522,62.9334728 34.719952,60.9826832 35.555085,58.9778286 L35.824404,58.342489 C36.0522969,57.8146307 36.2758895,57.3220934 36.4866101,56.884891 L36.6421032,56.5676773 L36.888349,56.0901963 C37.0957569,55.7026737 37.283507,55.3911293 37.4611436,55.1506147 C37.5898417,54.9763613 37.719129,54.8293337 37.8721781,54.699667 Z M47.1287383,62.1349725 L46.8509638,62.8197397 L46.5605201,63.5665167 C46.0989229,64.7822097 45.7598552,65.8238822 45.6955829,66.2513739 C45.5528051,67.2010261 45.9534987,67.9578669 46.3290157,68.0304205 C46.6383814,68.0903365 47.1550059,67.6043819 47.2910332,66.6974856 C47.3646717,66.207697 47.3338194,64.8274576 47.2211352,63.2599348 L47.1780033,62.70006 L47.1287383,62.1349725 Z M55.1750607,52.7283816 C55.4913538,52.4372252 55.8657169,52.240362 56.3706366,52.2675225 L56.543878,52.2850511 L56.7428054,52.3196941 C57.7793818,52.533282 58.0962725,53.1852 58.4698296,55.5959403 L58.5884399,56.4020293 L58.7820699,57.8296981 L58.862558,58.4837275 C59.0910395,60.4301057 59.1996491,62.2060052 59.1066786,63.0260246 C58.8326257,65.4499376 56.9825218,67.3402719 54.7684049,67.016417 C52.6040745,66.7016953 51.2804581,64.4183763 51.5508622,62.0267393 C51.6389765,61.251966 52.0899997,59.7063268 52.6904917,58.0082054 L52.9082888,57.403544 L53.1364133,56.7922613 L53.3967298,56.1210066 C53.6982547,55.3603195 53.9898457,54.684198 54.2472224,54.1557887 C54.4399667,53.7600736 54.6158055,53.4411191 54.7839088,53.1937684 C54.9053438,53.0150862 55.0282381,52.8635358 55.1750607,52.7283816 Z M38.3009628,60.1602861 L38.1249671,60.5905735 L37.8084965,61.3928988 C37.438837,62.3538059 37.1385654,63.223498 36.979721,63.7936858 L36.9075374,64.0737424 L36.8675517,64.2763311 C36.7250137,65.2266346 37.1256417,65.9833514 37.5016622,66.0559683 C37.8104474,66.1158001 38.3272801,65.6296497 38.4635982,64.7229625 C38.5415612,64.2044102 38.5023005,62.6875499 38.3727603,61.0070319 L38.3503389,60.7255733 L38.3009628,60.1602861 Z M55.808802,58.180663 L55.5637699,58.8557296 L55.384451,59.368279 C54.9206358,60.7168035 54.5787527,61.8962364 54.5263565,62.3569453 C54.418862,63.3077011 54.8392279,64.032858 55.2050907,64.0860597 C55.5201553,64.1321436 56.0273855,63.6138836 56.1311266,62.6963266 C56.1934014,62.1470494 56.086237,60.4996301 55.8760419,58.7246769 L55.808802,58.180663 Z M61.9215568,28 C66.7311051,28 70.8600984,31.1791183 72.2030874,35.6250687 L72.2818123,35.8988363 L72.2875568,35.923 L72.5524019,35.9350266 C76.8604208,36.1891842 80.3096218,39.6368266 80.5662355,43.9441845 L80.5777825,44.203639 L80.5815568,44.46 C80.5815568,48.9841524 77.0578391,52.7031325 72.5591128,52.983687 L72.3034437,52.9958776 L72.0415568,53 L69.7335593,53.0005324 L69.7103413,52.8993097 C68.6527676,57.1612107 64.8199601,60.3448233 60.216092,60.4679284 L59.9391929,60.4716263 L59.9391929,57.5095967 C63.8414195,57.5095967 67.0058421,54.3793104 67.0058421,50.5187748 C67.0058421,47.2377915 64.6988133,44.4275817 61.5209727,43.7087647 L61.2810244,43.6588001 L60.2110163,43.4550525 L60.0780931,42.3851459 C59.3420816,36.4609466 54.2453519,31.9620296 48.1646046,31.9620296 C43.0429902,31.9620296 38.5459458,35.1664606 36.8534717,39.8521102 L36.7553062,40.1350129 L36.338759,41.3862239 L35.0340358,41.1228407 C34.4871998,41.0124515 33.9274399,40.9561708 33.3606459,40.9561708 C28.740166,40.9561708 24.9941579,44.6621692 24.9941579,49.2328837 C24.9941579,53.7209341 28.6049308,57.3745632 33.1094903,57.5059388 L33.3606459,57.5095967 L33.3606459,60.4716263 C27.0862737,60.4716263 22,55.4399299 22,49.2328837 C22,43.0263187 27.0865046,37.9941412 33.3606459,37.9941412 C33.6680509,37.9941412 33.9741419,38.0063722 34.2783517,38.0306516 L34.3576568,38.03797 L34.3887148,37.9645655 C36.6853444,32.7015967 41.8939072,29.1364915 47.8218267,29.0038329 L48.1646046,29 C50.5891237,29 52.888231,29.5721571 54.925004,30.5918561 C56.669197,29.0934144 58.8905717,28.1572505 61.2955825,28.0180745 L61.6270958,28.0039914 L61.9215568,28 Z M61.9215568,31 C60.3389489,31 58.8490939,31.4793352 57.6068276,32.313459 C60.2126064,34.4032992 62.1018412,37.3459121 62.831881,40.7365606 L62.8859932,41.0049363 L62.9090722,41.0122791 C66.897288,42.2282445 69.7669596,45.8004288 69.9864704,50.0000604 L72.0167755,50.0002047 L72.229049,49.996903 C75.2083296,49.8983076 77.5815568,47.4499972 77.5815568,44.46 C77.5815568,41.4003425 75.1012143,38.92 72.0415568,38.92 C71.8705625,38.92 71.7003674,38.927702 71.5315208,38.9429589 L71.2793309,38.9714919 L69.7925773,39.1738131 L69.5907087,37.6869979 C69.0734281,33.8770906 65.8046112,31 61.9215568,31 Z" id="大雨" fill="url(#linearGradient-1)" fill-rule="nonzero"></path>
            </g>
        </g>
    </g>
</svg>