<?xml version="1.0" encoding="UTF-8"?>
<svg width="11px" height="15px" viewBox="0 0 11 15" version="1.1" xmlns="http://www.w3.org/2000/svg" xmlns:xlink="http://www.w3.org/1999/xlink">
    <!-- Generator: Sketch 60 (88103) - https://sketch.com -->
    <title>湿度</title>
    <desc>Created with Sketch.</desc>
    <g id="集团运维地图" stroke="none" stroke-width="1" fill="none" fill-rule="evenodd">
        <g id="编组-49备份-3" transform="translate(-22.000000, -130.000000)" fill="#1FFFA0" fill-rule="nonzero">
            <g id="编组-47" transform="translate(20.000000, 99.000000)">
                <g id="编组-45" transform="translate(2.000000, 31.000000)">
                    <path d="M5.5,0 L6.07852447,0.668426413 C9.35950816,4.5136906 11,7.4158818 11,9.375 C11,12.4816017 8.53756612,15 5.5,15 C2.46243388,15 0,12.4816017 0,9.375 C0,7.30393219 1.83333333,4.17893219 5.5,0 Z M5.90532597,1.90044805 L5.5,1.4175 L5.36067394,1.58180776 C2.38926443,5.11388009 0.916666667,7.75531567 0.916666667,9.375 C0.916666667,11.9638348 2.9686949,14.0625 5.5,14.0625 C8.0313051,14.0625 10.0833333,11.9638348 10.0833333,9.375 C10.0833333,7.80439701 8.69863167,5.27302884 5.90532597,1.90044805 Z M2.75,9.375 C2.75,10.9283009 3.98121694,12.1875 5.5,12.1875 C7.01878306,12.1875 8.25,10.9283009 8.25,9.375 L9.16666667,9.375 C9.16666667,11.4460678 7.52504408,13.125 5.5,13.125 C3.47495592,13.125 1.83333333,11.4460678 1.83333333,9.375 L2.75,9.375 Z" id="湿度"></path>
                </g>
            </g>
        </g>
    </g>
</svg>