<?xml version="1.0" encoding="UTF-8"?>
<svg width="12px" height="16px" viewBox="0 0 12 16" version="1.1" xmlns="http://www.w3.org/2000/svg" xmlns:xlink="http://www.w3.org/1999/xlink">
    <!-- Generator: Sketch 60 (88103) - https://sketch.com -->
    <title>湿度</title>
    <desc>Created with Sketch.</desc>
    <g id="场区设备概览" stroke="none" stroke-width="1" fill="none" fill-rule="evenodd">
        <g id="场区设备概览备份" transform="translate(-1079.000000, -130.000000)" fill="#1FFFA0" fill-rule="nonzero">
            <path d="M1085,130 L1085.63112,130.712988 C1089.21037,134.814603 1091,137.910274 1091,140 C1091,143.313708 1088.31371,146 1085,146 C1081.68629,146 1079,143.313708 1079,140 C1079,137.790861 1081,134.457528 1085,130 Z M1085.44217,132.027145 L1085,131.512 L1084.84801,131.687262 C1081.60647,135.454805 1080,138.272337 1080,140 C1080,142.761424 1082.23858,145 1085,145 C1087.76142,145 1090,142.761424 1090,140 C1090,138.32469 1088.48942,135.624564 1085.44217,132.027145 Z M1082,140 C1082,141.656854 1083.34315,143 1085,143 C1086.65685,143 1088,141.656854 1088,140 L1089,140 C1089,142.209139 1087.20914,144 1085,144 C1082.79086,144 1081,142.209139 1081,140 L1082,140 Z" id="湿度"></path>
        </g>
    </g>
</svg>