<?xml version="1.0" encoding="UTF-8"?>
<svg width="18px" height="18px" viewBox="0 0 18 18" version="1.1" xmlns="http://www.w3.org/2000/svg" xmlns:xlink="http://www.w3.org/1999/xlink">
    <!-- Generator: Sketch 60 (88103) - https://sketch.com -->
    <title>基础信息维护</title>
    <desc>Created with Sketch.</desc>
    <g id="基础配置管理" stroke="none" stroke-width="1" >
        <path d="M8,10 L8,18 L0,18 L0,10 L8,10 Z M18,10 L18,18 L10,18 L10,10 L18,10 Z M6,12 L2,12 L2,16 L6,16 L6,12 Z M16,12 L12,12 L12,16 L16,16 L16,12 Z M8,0 L8,8 L0,8 L0,0 L8,0 Z M18,0 L18,8 L10,8 L10,0 L18,0 Z M6,2 L2,2 L2,6 L6,6 L6,2 Z M16,2 L12,2 L12,6 L16,6 L16,2 Z" id="基础信息维护" ></path>
    </g>
</svg>