<?xml version="1.0" encoding="UTF-8"?>
<svg width="88px" height="88px" viewBox="0 0 88 88" version="1.1" xmlns="http://www.w3.org/2000/svg" xmlns:xlink="http://www.w3.org/1999/xlink">
    <title>编组 14备份 6</title>
    <defs>
        <circle id="path-1" cx="44.5" cy="44.5" r="39.5"></circle>
        <filter x="-3.8%" y="-3.8%" width="107.6%" height="107.6%" filterUnits="objectBoundingBox" id="filter-2">
            <feGaussianBlur stdDeviation="3" in="SourceAlpha" result="shadowBlurInner1"></feGaussianBlur>
            <feOffset dx="0" dy="0" in="shadowBlurInner1" result="shadowOffsetInner1"></feOffset>
            <feComposite in="shadowOffsetInner1" in2="SourceAlpha" operator="arithmetic" k2="-1" k3="1" result="shadowInnerInner1"></feComposite>
            <feColorMatrix values="0 0 0 0 0.062745098   0 0 0 0 0.156470588   0 0 0 0 1  0 0 0 1 0" type="matrix" in="shadowInnerInner1"></feColorMatrix>
        </filter>
        <circle id="path-3" cx="44" cy="44" r="44"></circle>
        <mask id="mask-4" maskContentUnits="userSpaceOnUse" maskUnits="objectBoundingBox" x="0" y="0" width="88" height="88" fill="white">
            <use xlink:href="#path-3"></use>
        </mask>
    </defs>
    <g id="除臭墙" stroke="none" stroke-width="1" fill="none" fill-rule="evenodd">
        <g id="设备运行状态备份-2" transform="translate(-505.000000, -708.000000)">
            <g id="编组-14备份-6" transform="translate(505.000000, 708.000000)">
                <g id="椭圆形">
                    <use fill="black" fill-opacity="1" filter="url(#filter-2)" xlink:href="#path-1"></use>
                    <circle stroke="#1990FF" stroke-width="1" stroke-linejoin="square" cx="44.5" cy="44.5" r="39"></circle>
                </g>
                <use id="椭圆形备份-2" stroke="#1990FF" mask="url(#mask-4)" stroke-width="2" stroke-dasharray="2" xlink:href="#path-3"></use>
                <g id="shui" transform="translate(25.000000, 24.000000)" fill="#1990FF" fill-rule="nonzero">
                    <path d="M16.8441592,0.259289867 C16.7989653,-0.0864299556 16.2010347,-0.0864299556 16.1557908,0.259289867 C14.6579363,11.7363126 7,14.1005947 7,22.0761755 C7,27.0048832 11.3487729,31 16.5009759,31 C21.6511771,31 26,27.0048357 26,22.0761755 C26,14.1005947 18.3420137,11.7363126 16.8441592,0.259289867 Z M18.9090906,29 C18.4055871,29 18,28.592685 18,28.0892971 C18,27.5859561 18.4075024,27.178641 18.9090906,27.178641 C20.161496,27.178641 21.1799484,26.1622721 21.1799484,24.9106581 C21.1799484,24.4072703 21.5864698,24 22.089039,24 C22.453929,23.999229 22.7839223,24.217079 22.9271215,24.5532748 C22.9754444,24.6661917 23.0002431,24.7878032 23,24.9106581 C23,27.1661464 21.1645322,29 18.9090906,29 L18.9090906,29 Z M28.6268233,4.09200187 C28.6101524,3.96933271 28.3898476,3.96933271 28.3732287,4.09200187 C27.8213761,8.16452277 25,9.00342765 25,11.8334716 C25,13.582363 26.6021694,15 28.5003635,15 C30.3978306,15 32,13.582363 32,11.8334716 C32,9.00342765 29.1786758,8.16447522 28.6268233,4.09200187 L28.6268233,4.09200187 Z M29.3636223,14 C29.2671361,14.0001259 29.1745663,13.9617824 29.1063451,13.8934327 C29.0381239,13.825083 28.9998605,13.7323465 29,13.6356925 C29.0000294,13.4345324 29.1628115,13.2714672 29.3636223,13.2714381 C29.8645564,13.2714381 30.2719667,12.8649008 30.2719667,12.3642552 C30.2719108,12.2676318 30.3102029,12.1749497 30.3784073,12.1066266 C30.4466118,12.0383035 30.5391329,11.9999448 30.6355886,12 C30.7321596,11.9998047 30.824843,12.0380932 30.8932032,12.1064239 C30.9615633,12.1747546 31,12.267516 31,12.3642552 C30.9999474,13.2664295 30.2658089,14 29.3636223,14 Z M39.1270224,33.2740084 C38.3996711,32.970556 37.5605035,33.3057401 37.252637,34.0227782 C36.4375361,35.9210157 34.5458681,37.1804213 32.4188311,37.1804213 C30.2641618,37.1804213 28.3533791,35.8886493 27.5574425,33.9548725 C27.2604704,33.2332942 26.4264528,32.8857592 25.6946448,33.1784717 C25.4276327,33.2850471 25.1997411,33.4690381 25.0411279,33.7060962 C24.9647184,33.8022187 24.8955884,33.9054687 24.8449788,34.0233641 C24.031314,35.9210157 22.1400422,37.1804213 20.0128566,37.1804213 C17.908896,37.1804213 16.0447116,35.9445459 15.2159927,34.0862416 C15.1005613,33.6783187 14.8061148,33.3243397 14.3767755,33.154258 C13.6439275,32.8638888 12.8111479,33.2142064 12.5166519,33.9366634 C11.7241816,35.880692 9.80879354,37.1804213 7.64704293,37.1804213 C5.46969349,37.1804213 3.54271769,35.8607743 2.76203325,33.8960468 C2.47397481,33.1710514 1.64426547,32.8135086 0.908891928,33.0974827 C0.173468867,33.3814567 -0.189166853,34.1994016 0.0988915906,34.9243971 C1.30549844,37.9607763 4.2829442,40 7.64704293,40 C10.088384,40 12.3235234,38.92332 13.8293308,37.1723175 C15.3352866,38.9237593 17.5715155,40 20.0128566,40 C22.4632104,40 24.7106308,38.9169736 26.2170818,37.1507888 C27.7228396,38.9149721 29.9675859,40 32.4188311,40 C35.7047376,40 38.6275131,38.0541163 39.8865123,35.1218169 C40.1943787,34.4048276 39.8543242,33.5775097 39.1270224,33.2740084 Z" id="形状"></path>
                </g>
            </g>
        </g>
    </g>
</svg>