<?xml version="1.0" encoding="UTF-8"?>
<svg width="100px" height="100px" viewBox="0 0 100 100" version="1.1" xmlns="http://www.w3.org/2000/svg" xmlns:xlink="http://www.w3.org/1999/xlink">
    <title>小雨@3x</title>
    <defs>
        <linearGradient x1="50%" y1="0%" x2="50%" y2="100%" id="linearGradient-1">
            <stop stop-color="#D6F1FF" offset="0%"></stop>
            <stop stop-color="#7DD4E4" offset="100%"></stop>
        </linearGradient>
    </defs>
    <g id="页面-1" stroke="none" stroke-width="1" fill="none" fill-rule="evenodd">
        <g id="天气icon" transform="translate(-53.000000, -642.000000)">
            <g id="小雨" transform="translate(53.000000, 642.000000)">
                <rect id="矩形备份-12" opacity="0.100000001" x="0" y="0" width="100" height="100" rx="10"></rect>
                <path d="M47.9121176,60.8912698 L48.1700665,60.2797823 L48.6651878,59.1390287 C49.8973908,56.3497998 50.4795429,55.5388367 51.7295921,55.6506364 L51.8487811,55.6637888 L51.9641375,55.680961 C53.2035888,55.8910782 53.5618431,56.8257851 54.0525883,59.8490527 L54.2909936,61.3950011 L54.3820149,62.0485452 C54.6555096,64.10243 54.7855064,65.9785953 54.6730298,66.8550469 C54.3508282,69.3794284 52.2563549,71.2742049 49.8881472,70.9673761 C47.5201656,70.66142 45.9715468,68.2958686 46.2945576,65.7720236 C46.4065141,64.8969463 47.0020051,63.1220799 47.7806918,61.2109264 L47.9121176,60.8912698 Z M51.2646932,61.5209031 L51.1711827,60.9359961 L50.9358176,61.4778008 C50.0843527,63.4632896 49.363491,65.5184519 49.2816544,66.158105 C49.1589949,67.1165055 49.6631204,67.8865691 50.2726906,67.9653289 C50.8821755,68.0442948 51.563539,67.4278956 51.6859417,66.4688991 C51.7465608,65.996535 51.6642332,64.6870821 51.4864776,63.1728842 L51.3837174,62.3555967 L51.2646932,61.5209031 Z M52.1644781,29 C59.3182068,29 65.3805362,34.0591257 66.8353437,40.9270526 L66.8888092,41.1940558 L66.9260916,41.2059975 C70.9811614,42.4707036 73.8747411,46.2106857 73.9960364,50.5773685 L74,50.8630217 C74,56.3548377 69.6445481,60.825244 64.2161946,60.9752056 L63.9344777,60.9790923 L61.0547215,60.9790923 L61.0547215,57.9522706 L63.9344777,57.9522706 C67.8297509,57.9522706 70.9883028,54.7778567 70.9883028,50.8630217 C70.9883028,47.536413 68.6890298,44.6883142 65.5198054,43.9578095 L65.2743271,43.9058211 L64.1976372,43.6977709 L64.0640187,42.6040685 C63.3295624,36.5923546 58.2384547,32.0268217 52.1644781,32.0268217 C47.0504366,32.0268217 42.559243,35.2763096 40.868613,40.0271735 L40.7686227,40.3199039 L40.3503884,41.5972185 L39.0390778,41.3300774 C38.4908541,41.2183929 37.9306269,41.1613373 37.3662887,41.1613373 C32.7524339,41.1613373 29.0116972,44.9202931 29.0116972,49.5564436 C29.0116972,54.1073541 32.6150804,57.8127455 37.1108749,57.9484215 L37.3662887,57.9522706 L40.3428495,57.9522706 L40.3428495,60.9790923 L37.3662887,60.9790923 C31.0890932,60.9790923 26,55.8649559 26,49.5564436 C26,43.2485235 31.089221,38.1345156 37.3662887,38.1345156 C37.672805,38.1345156 37.9784145,38.1469099 38.2824279,38.171486 L38.3559898,38.1783324 L38.3849398,38.1098216 C40.6809088,32.7619423 45.8917687,29.138717 51.8215909,29.0038954 L52.1644781,29 Z" fill="url(#linearGradient-1)" fill-rule="nonzero"></path>
            </g>
        </g>
    </g>
</svg>