<?xml version="1.0" encoding="UTF-8"?>
<svg width="100px" height="100px" viewBox="0 0 100 100" version="1.1" xmlns="http://www.w3.org/2000/svg" xmlns:xlink="http://www.w3.org/1999/xlink">
    <title>小雪@3x</title>
    <defs>
        <linearGradient x1="50%" y1="0%" x2="50%" y2="100%" id="linearGradient-1">
            <stop stop-color="#D6F1FF" offset="0%"></stop>
            <stop stop-color="#7DD4E4" offset="100%"></stop>
        </linearGradient>
    </defs>
    <g id="页面-1" stroke="none" stroke-width="1" fill="none" fill-rule="evenodd">
        <g id="天气icon" transform="translate(-1253.000000, -199.000000)">
            <g id="小雪" transform="translate(1253.000000, 199.000000)">
                <rect id="矩形备份-10" opacity="0.100000001" x="0" y="0" width="100" height="100" rx="10"></rect>
                <path d="M54.1901329,56.2411613 C54.9698887,56.2411613 55.6106904,56.82832 55.6833807,57.5790887 L55.6902478,57.7216717 L55.689429,60.5773143 L58.584011,58.8203462 C59.2896019,58.391811 60.213593,58.6089338 60.6478028,59.3053036 C61.0564709,59.9607104 60.8856332,60.8070507 60.2758648,61.261625 L60.1564238,61.3421244 L57.0515334,63.226441 L60.1564238,65.1125157 C60.8620147,65.541051 61.0820126,66.4529667 60.6478028,67.1493365 C60.2391348,67.8047434 59.396612,68.0356269 58.71065,67.7032492 L58.584011,67.6342938 L55.689429,65.8755677 L55.6902478,69.5194895 C55.6902478,70.3371529 55.0186235,71 54.1901329,71 C53.410377,71 52.7695753,70.4128413 52.696885,69.6620726 L52.6900179,69.5194895 L52.6891991,65.8765547 L49.7962547,67.6342938 C49.0906638,68.0628291 48.1666727,67.8457063 47.7324629,67.1493365 C47.3237948,66.4939296 47.4946325,65.6475894 48.1044009,65.1930151 L48.2238419,65.1125157 L51.3270946,63.226441 L48.2238419,61.3421244 C47.518251,60.9135891 47.2982531,60.0016734 47.7324629,59.3053036 C48.1411309,58.6498967 48.9836537,58.4190131 49.6696157,58.7513908 L49.7962547,58.8203462 L52.6891991,60.5763273 L52.6900179,57.7216717 C52.6900179,56.9040084 53.3616422,56.2411613 54.1901329,56.2411613 Z M52.9051531,29 C60.8126005,29 67.5077964,34.5193388 69.0649559,41.9941551 L69.1193397,42.2714346 L69.1758948,42.2881277 C73.663808,43.6237277 76.8721771,47.6739038 76.99627,52.4048517 L77,52.6895092 C77,58.5971694 72.2235333,63.4047137 66.2748035,63.5558457 L65.986062,63.5595096 L63.5020122,63.5595096 L63.5020122,60.5984886 L65.986062,60.5984886 C70.4112687,60.5984886 73.99977,57.0570892 73.99977,52.6895092 C73.99977,48.9679355 71.3730031,45.7833387 67.7567619,44.9795986 L67.5086859,44.9285091 L66.4362149,44.7250044 L66.3030052,43.6552111 C65.4753571,37.0084562 59.7434849,31.9610209 52.9051531,31.9610209 C47.1375621,31.9610209 42.0733405,35.5669593 40.1764793,40.8355306 L40.0743724,41.1299272 L39.6574018,42.3792834 L38.3512212,42.1176827 C37.7313151,41.9935284 37.0980401,41.930177 36.4579862,41.930177 C31.235049,41.930177 27.00023,46.1094426 27.00023,51.2643328 C27.00023,56.3303456 31.0902796,60.454086 36.1887321,60.594778 L36.4579862,60.5984886 L44.4640061,60.5984886 L44.4640061,63.5595096 L36.4579862,63.5595096 C29.5781015,63.5595096 24,58.0545831 24,51.2643328 C24,44.4740825 29.5781015,38.969156 36.4579862,38.969156 C36.7945354,38.969156 37.129766,38.9824912 37.4630711,39.0089451 L37.6679289,39.0291167 L37.7208414,38.9052586 C40.2348592,33.0875017 45.9930676,29.1428236 52.5468972,29.0037974 L52.9051531,29 Z" fill="url(#linearGradient-1)" fill-rule="nonzero"></path>
            </g>
        </g>
    </g>
</svg>