<?xml version="1.0" encoding="UTF-8"?>
<svg width="10px" height="12px" viewBox="0 0 10 12" version="1.1" xmlns="http://www.w3.org/2000/svg" xmlns:xlink="http://www.w3.org/1999/xlink">
    <!-- Generator: Sketch 60 (88103) - https://sketch.com -->
    <title>参数锁定</title>
    <desc>Created with Sketch.</desc>
    <g id="页面-1" stroke="none" stroke-width="1" fill="none" fill-rule="evenodd">
        <g id="画板" transform="translate(-340.000000, -254.000000)" fill="#F9EA42" fill-rule="nonzero">
            <path d="M349.192862,259.03123 L348.267486,259.03123 L348.267486,257.033549 C348.267486,255.360508 346.80269,254 345.000426,254 C343.198131,254 341.731662,255.360508 341.731662,257.033549 L341.731662,259.03123 L340.807077,259.03123 C340.361317,259.03123 340,259.366623 340,259.780474 L340,265.249995 C340,265.664579 340.361317,266 340.807077,266 L349.193653,266 C349.639535,266 350,265.664579 350,265.249995 L350,259.780474 C350,259.366567 349.638774,259.03123 349.192862,259.03123 L349.192862,259.03123 Z M345.453669,262.657756 L345.453669,263.852092 C345.453669,263.90546 345.406094,263.950418 345.347719,263.950418 L344.653923,263.950418 C344.594819,263.950418 344.547213,263.905432 344.547213,263.852092 L344.547213,262.657756 C344.221243,262.503014 343.995443,262.192795 343.995443,261.829209 C343.995443,261.314746 344.445401,260.896323 344.999635,260.896323 C345.55469,260.896323 346.004681,261.314746 346.004681,261.829209 C346.005469,262.192824 345.779639,262.503014 345.453669,262.657756 L345.453669,262.657756 Z M347.013707,259.03123 L342.987054,259.03123 L342.987054,257.083023 C342.987054,256.052517 343.891076,255.213358 345.001186,255.213358 C346.111297,255.213358 347.013707,256.052517 347.013707,257.083023 L347.013707,259.03123 Z" id="参数锁定"></path>
        </g>
    </g>
</svg>