<?xml version="1.0" encoding="UTF-8"?>
<svg width="20px" height="20px" viewBox="0 0 20 20" version="1.1" xmlns="http://www.w3.org/2000/svg" xmlns:xlink="http://www.w3.org/1999/xlink">
    <!-- Generator: Sketch 60 (88103) - https://sketch.com -->
    <title>编辑</title>
    <desc>Created with Sketch.</desc>
    <g id="页面-1" stroke="none" stroke-width="1"  fill-rule="evenodd">
        <g id="集团运维地图备份-2" transform="translate(-1411.000000, -161.000000)" fill-rule="nonzero">
            <g id="编组-17" transform="translate(415.000000, 134.000000)">
                <g id="编组-8" transform="translate(981.000000, 0.000000)">
                    <g id="编组-15" transform="translate(0.000000, 12.000000)">
                        <path d="M27.8603312,15.2777778 C28.3336652,15.2777778 28.7169786,15.6610912 28.7169786,16.1344252 C28.7169786,16.5683147 28.3948889,16.9265619 27.9766196,16.9832566 L27.8603312,16.9910726 L16.9939765,16.9910726 L16.9939765,33.0002157 L33.0060235,33.0002157 L33.0060235,21.5646987 C33.0060235,21.0913647 33.3893369,20.7080512 33.8626709,20.7080512 C34.2992223,20.7080512 34.6576913,21.030141 34.7144046,21.4506471 L34.7222222,21.5676025 L34.7222222,33.8365359 C34.7222222,34.2837349 34.3879321,34.6552916 33.9564457,34.7141122 L33.8365359,34.7222222 L16.1605602,34.7222222 C15.7133612,34.7222222 15.3442446,34.3879321 15.2858307,33.9564457 L15.2777778,33.8365359 L15.2777778,16.1605602 C15.2777778,15.7133612 15.6096278,15.3442446 16.0407075,15.2858307 L16.1605602,15.2777778 L27.8603312,15.2777778 Z M33.2847969,15.402645 C33.5025886,15.402645 33.7610348,15.5188006 33.9730187,15.7307845 C34.2735713,16.0313371 34.3788954,16.4259757 34.2360676,16.662785 L34.1791949,16.7355303 L24.4627804,26.4519448 C24.3843754,26.5332537 24.2711237,26.5710042 24.1462565,26.5710042 C23.9284648,26.5710042 23.6700186,26.4548487 23.4580346,26.2428647 C23.1574821,25.9423122 23.052158,25.5476736 23.1949858,25.3108643 L23.2518585,25.2381189 L32.965369,15.5217045 C33.046678,15.4403956 33.1599296,15.402645 33.2847969,15.402645 Z" id="编辑"></path>
                    </g>
                </g>
            </g>
        </g>
    </g>
</svg>