<?xml version="1.0" encoding="UTF-8"?>
<svg width="21px" height="20px" viewBox="0 0 21 20" version="1.1" xmlns="http://www.w3.org/2000/svg" xmlns:xlink="http://www.w3.org/1999/xlink">
    <!-- Generator: Sketch 60 (88103) - https://sketch.com -->
    <title>总数</title>
    <desc>Created with Sketch.</desc>
    <g id="页面-1" stroke="none" stroke-width="1"  fill-rule="evenodd">
        <g id="集团运维地图备份-2" transform="translate(-431.000000, -161.000000)"  fill-rule="nonzero">
            <g id="编组-17" transform="translate(415.000000, 134.000000)">
                <g id="编组-16">
                    <g id="编组-3" transform="translate(0.000000, 12.000000)">
                        <path d="M23.9961393,15.2777778 C28.5261192,15.2777778 31.0169562,16.6382207 31.2935182,18.0637253 L31.3012209,18.106941 L31.3060645,23.0338528 C31.3711025,23.0326427 31.4361744,23.0320368 31.5012265,23.0320368 C33.7662165,23.0320368 36.0575025,23.7664952 36.1078351,25.170531 L36.108672,25.2132825 L36.1111111,32.4625809 C36.1111111,33.9451823 33.7939734,34.7199165 31.5036656,34.7199165 C30.4242313,34.7199165 29.3388373,34.5478257 28.4928746,34.2106446 C27.1783416,34.5562912 25.5616428,34.7222222 23.9961393,34.7222222 C20.5938249,34.7222222 16.9452835,33.9380467 16.6833209,32.2265101 L16.676423,32.1743613 L16.6666667,32.1743613 L16.6666667,18.1530561 L16.6861794,18.1530561 C16.8739895,16.695818 19.3716201,15.2777778 23.9961393,15.2777778 Z M18.0545102,24.3901274 L18.0545102,27.6873592 C18.0545102,28.0931723 20.135056,29.0846476 23.9937002,29.0846476 C25.0732599,29.0846476 26.0099367,29.0053196 26.8059176,28.8838773 L26.893781,28.8702123 L26.893781,30.1844935 C25.9644868,30.3159216 24.9693371,30.3804828 23.9937002,30.3804828 C21.8232128,30.3804828 19.548733,30.0609829 18.1218143,29.3845943 L18.0545102,29.3521154 L18.0545102,32.0290986 C18.0545102,32.4349118 20.135056,33.4263871 23.9937002,33.4263871 C25.170237,33.4263871 26.1781134,33.3337392 27.0151259,33.1942647 L27.0992101,33.1799808 C26.9763482,32.9766247 26.9054432,32.753632 26.89706,32.5113042 L26.8962201,32.4625809 L26.8962201,25.2132825 C26.8967536,25.0566958 26.9248813,24.9082713 26.9775538,24.7680964 C26.9293151,24.8939105 26.9010741,25.0263912 26.8950109,25.1654421 L26.893781,25.2225055 C25.9644868,25.3539336 24.9693371,25.4184948 23.9937002,25.4184948 C21.8232128,25.4184948 19.548733,25.098995 18.1218143,24.4226063 L18.0545102,24.3901274 Z M34.7208285,30.4842418 C33.8500725,30.8669974 32.6744299,31.0629867 31.5036656,31.0629867 C30.3645435,31.0629867 29.2208034,30.8774482 28.3577666,30.5148666 L28.2865028,30.4842418 L28.2865028,32.4648866 C28.2865028,32.7438832 29.4133634,33.4263871 31.5036656,33.4263871 C33.5714914,33.4263871 34.6964835,32.7584817 34.7204378,32.4740251 L34.7208285,32.4648866 L34.7208285,30.4842418 Z M34.7208285,26.8227005 C33.8500725,27.2054561 32.6744299,27.4037511 31.5036656,27.4037511 C30.3645435,27.4037511 29.2208034,27.2160299 28.3577666,26.8533302 L28.2865028,26.8227005 L28.2865028,28.881741 C28.2865028,29.1007879 29.427998,29.7648458 31.5036656,29.7648458 C33.5570142,29.7648458 34.6961722,29.1149919 34.7204328,28.88896 L34.7208285,28.881741 L34.7208285,26.8227005 Z M31.5012265,24.3324835 C29.4255589,24.3324835 28.2840637,24.9988471 28.2840637,25.2201997 C28.2840637,25.4415524 29.4255589,26.107916 31.5012265,26.107916 C33.5793332,26.107916 34.7208285,25.4392466 34.7183972,25.2201997 C34.7183972,24.9988471 33.5768941,24.3324835 31.5012265,24.3324835 Z M29.9328901,20.1775103 C28.7231003,20.8853776 26.7303618,21.383421 23.9937002,21.383421 C21.2921239,21.383421 19.3178951,20.898066 18.101518,20.2046319 L18.0545102,20.1775103 L18.0545102,22.7253712 C18.0545102,23.1311844 20.135056,24.1226597 23.9937002,24.1226597 C25.7975445,24.1226597 27.2101035,23.9045712 28.2052413,23.6331088 L28.2831522,23.6113748 C28.5344658,23.5007941 28.8112352,23.4057944 29.105962,23.3265905 C29.6370075,23.1062011 29.9175005,22.8841584 29.9322744,22.7352994 L29.9328901,22.7230655 L29.9328901,20.1775103 Z M23.9961393,16.5736129 C20.425308,16.5736129 18.0569493,17.6319551 18.0569493,18.3305994 C18.0569493,19.0292436 20.425308,20.0875858 23.9961393,20.0875858 C27.5669705,20.0875858 29.9353292,19.0315493 29.9353292,18.3305994 C29.9353292,17.6296494 27.5669705,16.5736129 23.9961393,16.5736129 Z" id="总数"></path>
                    </g>
                </g>
            </g>
        </g>
    </g>
</svg>