<?xml version="1.0" encoding="UTF-8"?>
<svg width="20px" height="20px" viewBox="0 0 20 20" version="1.1" xmlns="http://www.w3.org/2000/svg" xmlns:xlink="http://www.w3.org/1999/xlink">
    <!-- Generator: Sketch 60 (88103) - https://sketch.com -->
    <title>在线</title>
    <desc>Created with Sketch.</desc>
    <g id="页面-1" stroke="none" stroke-width="1"  fill-rule="evenodd">
        <g id="集团运维地图备份-2" transform="translate(-679.000000, -161.000000)"  fill-rule="nonzero">
            <g id="编组-17" transform="translate(415.000000, 134.000000)">
                <g id="编组-14" transform="translate(249.000000, 0.000000)">
                    <g id="编组-7" transform="translate(0.000000, 12.000000)">
                        <path d="M32.5617284,31.4814815 C33.75,31.4814815 34.7222222,30.5092593 34.7222222,29.3209877 L34.7222222,17.4382716 C34.7222222,16.25 33.75,15.2777778 32.5617284,15.2777778 L17.4382716,15.2777778 C16.25,15.2777778 15.2777778,16.25 15.2777778,17.4382716 L15.2777778,29.3209877 C15.2777778,30.5092593 16.25,31.4814815 17.4382716,31.4814815 L21.7592593,31.4814815 L21.7592593,33.6419753 L18.2484568,33.6419753 C17.9243827,33.6419753 17.7083333,33.8580247 17.7083333,34.1820988 C17.7083333,34.5061729 17.9243827,34.7222222 18.2484568,34.7222222 L31.7515432,34.7222222 C32.0756173,34.7222222 32.2916667,34.5061728 32.2916667,34.1820988 C32.2916667,33.8580247 32.0756173,33.6419753 31.7515432,33.6419753 L28.2407407,33.6419753 L28.2407407,31.4814815 L32.5617284,31.4814815 Z M17.4382716,30.4012346 C16.7901234,30.4012346 16.3580247,29.9691358 16.3580247,29.3209877 L16.3580247,17.4382716 C16.3580247,16.7901234 16.7901235,16.3580247 17.4382716,16.3580247 L32.5617284,16.3580247 C33.2098766,16.3580247 33.6419753,16.7901235 33.6419753,17.4382716 L33.6419753,29.3209877 C33.6419753,29.9691358 33.2098765,30.4012346 32.5617284,30.4012346 L17.4382716,30.4012346 L17.4382716,30.4012346 Z M31.4814815,23.9197531 C31.4814815,24.2438272 31.2654321,24.4598765 30.941358,24.4598766 L27.9166667,24.4598766 L27.1604938,21.6512346 L25.1080247,28.8888889 L22.8395062,22.9475309 L22.0833333,24.4598766 L19.058642,24.4598766 C18.7345679,24.4598766 18.5185185,24.2438272 18.5185185,23.9197531 C18.5185185,23.595679 18.7345679,23.3796296 19.058642,23.3796296 L21.4351852,23.3796296 L22.9475309,20.3549383 L25,25.5401234 L27.1604938,17.4382716 L28.6728395,23.3796296 L30.941358,23.3796296 C31.2654321,23.3796296 31.4814815,23.595679 31.4814815,23.9197531 L31.4814815,23.9197531 Z" id="在线"></path>
                    </g>
                </g>
            </g>
        </g>
    </g>
</svg>