<?xml version="1.0" encoding="UTF-8"?>
<svg width="20px" height="20px" viewBox="0 0 20 20" version="1.1" xmlns="http://www.w3.org/2000/svg" xmlns:xlink="http://www.w3.org/1999/xlink">
    <!-- Generator: Sketch 60 (88103) - https://sketch.com -->
    <title>离线</title>
    <desc>Created with Sketch.</desc>
    <g id="页面-1" stroke="none" stroke-width="1"  fill-rule="evenodd">
        <g id="集团运维地图备份-2" transform="translate(-908.000000, -161.000000)"  fill-rule="nonzero">
            <g id="编组-17" transform="translate(415.000000, 134.000000)">
                <g id="编组-12" transform="translate(478.000000, 0.000000)">
                    <g id="编组-9" transform="translate(0.000000, 12.000000)">
                        <path d="M32.5617284,15.2777778 C33.6905864,15.2777778 34.6244599,16.1552083 34.7150251,17.2617457 L34.7222222,17.4382716 L34.7222222,29.3209877 C34.7222222,30.4498457 33.8447917,31.3837191 32.7382543,31.4742843 L32.5617284,31.4814815 L28.2407407,31.4814815 L28.2407407,33.6419753 L31.7515432,33.6419753 C32.0756173,33.6419753 32.2916667,33.8580247 32.2916667,34.1820988 C32.2916667,34.4701646 32.120961,34.6728776 31.8554188,34.7143686 L31.7515432,34.7222222 L18.2484568,34.7222222 C17.9243827,34.7222222 17.7083333,34.5061729 17.7083333,34.1820988 C17.7083333,33.8940329 17.879039,33.6913199 18.1445812,33.6498289 L18.2484568,33.6419753 L21.7592593,33.6419753 L21.7592593,31.4814815 L17.4382716,31.4814815 C16.3094136,31.4814815 15.3755401,30.6040509 15.2849749,29.4975135 L15.2777778,29.3209877 L15.2777778,17.4382716 C15.2777778,16.3094136 16.1552083,15.3755401 17.2617457,15.2849749 L17.4382716,15.2777778 L32.5617284,15.2777778 Z M32.5617284,16.3580247 L17.4382716,16.3580247 C16.839981,16.3580247 16.4257798,16.7262035 16.3655968,17.2926325 L16.3580247,17.4382716 L16.3580247,29.3209877 C16.3580247,29.9192782 16.7262035,30.3334794 17.2926325,30.3936625 L17.4382716,30.4012346 L32.5617284,30.4012346 C33.160019,30.4012346 33.5742202,30.0330557 33.6344032,29.4666268 L33.6419753,29.3209877 L33.6419753,17.4382716 C33.6419753,16.839981 33.2737965,16.4257798 32.7073675,16.3655968 L32.5617284,16.3580247 Z M22.8532767,20.1694243 L25.0016046,22.3177522 L27.1499325,20.1694243 C27.3872302,19.9321265 27.7719659,19.9321265 28.0092636,20.1694243 C28.2465614,20.406722 28.2465614,20.7914577 28.0092636,21.0287554 L25.8609357,23.1770833 L28.0092636,25.3254112 C28.2465614,25.562709 28.2465614,25.9474446 28.0092636,26.1847424 C27.7719659,26.4220401 27.3872302,26.4220401 27.1499325,26.1847424 L25.0016046,24.0364145 L22.8532767,26.1847424 C22.6159789,26.4220401 22.2312433,26.4220401 21.9939455,26.1847424 C21.7566478,25.9474446 21.7566478,25.562709 21.9939455,25.3254112 L24.1422734,23.1770833 L21.9939455,21.0287554 C21.7566478,20.7914577 21.7566478,20.406722 21.9939455,20.1694243 C22.2312433,19.9321265 22.6159789,19.9321265 22.8532767,20.1694243 Z" id="离线"></path>
                    </g>
                </g>
            </g>
        </g>
    </g>
</svg>