<?xml version="1.0" encoding="UTF-8"?>
<svg width="20px" height="18px" viewBox="0 0 20 18" version="1.1" xmlns="http://www.w3.org/2000/svg" xmlns:xlink="http://www.w3.org/1999/xlink">
    <!-- Generator: Sketch 60 (88103) - https://sketch.com -->
    <title>报警</title>
    <desc>Created with Sketch.</desc>
    <g id="页面-1" stroke="none" stroke-width="1"  fill-rule="evenodd">
        <g id="集团运维地图备份-2" transform="translate(-1158.000000, -161.000000)"  fill-rule="nonzero">
            <g id="编组-17" transform="translate(415.000000, 134.000000)">
                <g id="编组-11" transform="translate(728.000000, 0.000000)">
                    <g id="编组-13" transform="translate(0.000000, 12.000000)">
                        <path d="M25,15.2777778 C25.5761317,15.2777778 26.0911585,15.5745729 26.3792243,16.0743235 L34.5061728,30.1502681 C34.7942387,30.6500187 34.7942387,31.2436089 34.5061728,31.7433595 C34.218107,32.2431101 33.7030802,32.5399052 33.1269485,32.5399052 L16.8730515,32.5399052 C16.2969198,32.5399052 15.781893,32.2431101 15.4938272,31.7433595 C15.2057613,31.2436089 15.2057613,30.6500187 15.4938272,30.1502681 L23.6207757,16.0743235 C23.9088415,15.5745729 24.4238683,15.2777778 25,15.2777778 Z M25,16.4998753 L24.9813702,16.5003589 C24.9091224,16.5040502 24.7668716,16.5319459 24.6791994,16.6853722 L16.5522509,30.7613169 C16.456229,30.9293553 16.5195161,31.0755705 16.5522509,31.1323108 L16.5627723,31.1494201 C16.6032378,31.2113972 16.6984661,31.3178077 16.8730515,31.3178077 L33.1269485,31.3178077 C33.3211747,31.3178077 33.4150143,31.189051 33.4477491,31.1323108 L33.4568568,31.1155238 C33.4902857,31.0499768 33.5354213,30.9147432 33.4477491,30.7613169 L25.3208006,16.6853722 C25.2247787,16.5173338 25.0632872,16.4998753 25,16.4998753 Z M25.6110488,28.7077566 L25.6110488,29.9298541 L24.3889512,29.9298541 L24.3889512,28.7077566 L25.6110488,28.7077566 Z M25.6110488,20.1989026 L25.6110488,27.6187804 L24.3889512,27.6187804 L24.3889512,20.1989026 L25.6110488,20.1989026 Z" id="报警"></path>
                    </g>
                </g>
            </g>
        </g>
    </g>
</svg>