<?xml version="1.0" encoding="UTF-8"?>
<svg width="20px" height="21px" viewBox="0 0 20 21" version="1.1" xmlns="http://www.w3.org/2000/svg" xmlns:xlink="http://www.w3.org/1999/xlink">
    <!-- Generator: Sketch 60 (88103) - https://sketch.com -->
    <title>集团运维地图</title>
    <desc>Created with Sketch.</desc>
    <g id="基础配置管理" stroke="none" stroke-width="1" >
        <path d="M4.20035216,14.3684211 C4.56709903,14.9992563 4.58516356,15.7349907 4.31393073,16.3555279 C5.73201636,17.8542644 7.74774575,18.7894737 9.98342464,18.7894737 C11.175095,18.7894737 12.3042745,18.5237672 13.3141683,18.0487565 L14.2655697,20.0477621 C12.9671957,20.6584194 11.5154779,21 9.98342464,21 C7.01082609,21 4.34066263,19.714068 2.50621972,17.671805 C1.65836317,17.7607008 0.798455429,17.3589794 0.34497051,16.5789474 C-0.269696359,15.5216689 0.0950742726,14.1697323 1.15970852,13.5593123 C2.22434276,12.9488923 3.58568529,13.3111426 4.20035216,14.3684211 Z M15.6857132,2.87341243 C18.2927994,4.66934441 20,7.66299646 20,11.0526316 C20,12.1435947 19.8231526,13.1935382 19.4963739,14.1757319 C19.9958329,14.859701 20.0750736,15.7994143 19.6218788,16.5789474 C19.0072119,17.6362258 17.6458694,17.9984761 16.5812351,17.3880562 C15.5166009,16.7776362 15.1518303,15.4256995 15.7664971,14.3684211 C16.1336824,13.7368317 16.7673219,13.3532661 17.4449925,13.2769105 C17.6596113,12.5743201 17.7740944,11.826753 17.7740944,11.0526316 C17.7740944,8.41620841 16.4462311,6.08778149 14.418445,4.69095263 L15.6857132,2.87341243 Z M9.98342464,7.73684211 C11.8274252,7.73684211 13.3222831,9.22137162 13.3222831,11.0526316 C13.3222831,12.8838915 11.8274252,14.3684211 9.98342464,14.3684211 C8.13942404,14.3684211 6.64456619,12.8838915 6.64456619,11.0526316 C6.64456619,9.22137162 8.13942404,7.73684211 9.98342464,7.73684211 Z M9.98342464,9.94736842 C9.36875777,9.94736842 8.87047182,10.4422116 8.87047182,11.0526316 C8.87047182,11.6630516 9.36875777,12.1578947 9.98342464,12.1578947 C10.5980915,12.1578947 11.0963775,11.6630516 11.0963775,11.0526316 C11.0963775,10.4422116 10.5980915,9.94736842 9.98342464,9.94736842 Z M9.98342464,0 C11.2127584,0 12.2093303,0.989686343 12.2093303,2.21052632 C12.2093303,3.43136629 11.2127584,4.42105263 9.98342464,4.42105263 C9.24866736,4.42105263 8.59705964,4.06750675 8.1916841,3.52237084 C4.95338195,4.2781794 2.4943561,7.0419102 2.21854454,10.4185336 L0,10.2374529 C0.362205834,5.80265053 3.65351662,2.19011767 7.95016424,1.31033066 C8.29710665,0.538056018 9.07699362,0 9.98342464,0 Z" id="集团运维地图" ></path>
    </g>
</svg>