<?xml version="1.0" encoding="UTF-8"?>
<svg width="100px" height="100px" viewBox="0 0 100 100" version="1.1" xmlns="http://www.w3.org/2000/svg" xmlns:xlink="http://www.w3.org/1999/xlink">
    <title>中雪@3x</title>
    <defs>
        <linearGradient x1="50%" y1="0%" x2="50%" y2="100%" id="linearGradient-1">
            <stop stop-color="#D6F1FF" offset="0%"></stop>
            <stop stop-color="#7DD4E4" offset="100%"></stop>
        </linearGradient>
    </defs>
    <g id="页面-1" stroke="none" stroke-width="1" fill="none" fill-rule="evenodd">
        <g id="天气icon" transform="translate(-1103.000000, -199.000000)">
            <g id="中雪" transform="translate(1103.000000, 199.000000)">
                <rect id="矩形备份-9" opacity="0.100000001" x="0" y="0" width="100" height="100" rx="10"></rect>
                <path d="M57.3782197,55.7445567 C58.1579873,55.7445567 58.7987986,56.3514721 58.87149,57.1275027 L58.8783572,57.2748833 L58.8782189,61.0394868 L61.7721639,59.223512 C62.4777655,58.7805574 63.4017704,59.0049859 63.8359868,59.7247871 C64.244661,60.4022471 64.0738207,61.277065 63.4640431,61.7469347 L63.3446004,61.8301427 L60.2393437,63.7777511 L63.3446004,65.7274 C64.0502019,66.1703546 64.2702031,67.1129544 63.8359868,67.8327556 C63.4273126,68.5102156 62.5847772,68.7488679 61.8988049,68.4053064 L61.7721639,68.3340308 L58.8782189,66.5170358 L58.8783572,69.4696734 C58.8783572,70.3148494 58.2067228,71 57.3782197,71 C56.5984521,71 55.9576408,70.3930846 55.8849494,69.6170541 L55.8780822,69.4696734 L55.8779439,66.5160155 L52.9842755,68.3340308 C52.2786739,68.7769853 51.354669,68.5525568 50.9204526,67.8327556 C50.5117784,67.1552957 50.6826187,66.2804778 51.2923963,65.810608 L51.411839,65.7274 L54.5168191,63.7777511 L51.411839,61.8301427 C50.7062375,61.3871881 50.4862363,60.4445883 50.9204526,59.7247871 C51.3291268,59.0473272 52.1716622,58.8086748 52.8576345,59.1522364 L52.9842755,59.223512 L55.8779439,61.040507 L55.8780822,57.2748833 C55.8780822,56.4297073 56.5497166,55.7445567 57.3782197,55.7445567 Z M44.6270506,59.8094867 C45.4068182,59.8094867 46.0476295,60.4164021 46.1203209,61.1924327 L46.1271881,61.3398133 L46.1270498,61.9831882 L46.6212975,61.668071 C47.3238667,61.2201286 48.2493772,61.438006 48.6884829,62.1547139 C49.1017589,62.8292624 48.9368779,63.7052695 48.3303136,64.1794476 L48.2114401,64.2634997 L47.0591353,64.9979316 L48.2114401,65.733001 C48.9140094,66.1809434 49.1275887,67.125079 48.6884829,67.8417869 C48.2752069,68.5163354 47.4310673,68.7490135 46.7474502,68.4006008 L46.6212975,68.3284297 L46.1270498,68.012675 L46.1271881,69.4696734 C46.1271881,70.3148494 45.4555537,71 44.6270506,71 C43.847283,71 43.2064717,70.3930846 43.1337803,69.6170541 L43.1269131,69.4696734 L43.1267748,67.5046065 L41.8358556,68.3284297 C41.1332864,68.7763722 40.2077759,68.5584947 39.7686702,67.8417869 C39.3553942,67.1672383 39.5202752,66.2912313 40.1268395,65.8170532 L40.245713,65.733001 L41.3976162,64.9979316 L40.245713,64.2634997 C39.5431438,63.8155573 39.3295644,62.8714217 39.7686702,62.1547139 C40.1819462,61.4801653 41.0260859,61.2474873 41.7097029,61.5959 L41.8358556,61.668071 L43.1267748,62.4912566 L43.1269131,61.3398133 C43.1269131,60.4946373 43.7985475,59.8094867 44.6270506,59.8094867 Z M52.9055877,29 C60.8130141,29 67.5084184,34.705639 69.0656295,42.4321648 L69.1198587,42.7185442 L69.1761652,42.7358737 C73.6632228,44.1158881 76.872154,48.3032007 76.9962693,53.1931991 L77,53.4874254 C77,59.5933526 72.223957,64.5615834 66.2746659,64.7177666 L65.9858964,64.721553 L65.9858964,61.6608998 C70.411759,61.6608998 73.9997249,58.0013643 73.9997249,53.4874254 C73.9997249,49.6408337 71.3723675,46.3482202 67.7574796,45.5180772 L67.5094989,45.4653148 L66.4368681,45.2550566 L66.3036413,44.1491418 C65.4759551,37.2785249 59.74382,32.0606532 52.9055877,32.0606532 C47.1374148,32.0606532 42.0736864,35.7876387 40.1767271,41.2337563 L40.0746141,41.5380743 L39.6580918,42.828061 L38.3530294,42.5593944 C37.7313051,42.4314032 37.0975342,42.3660638 36.4573765,42.3660638 C31.2345466,42.3660638 27.0002751,46.6857636 27.0002751,52.0142948 C27.0002751,57.2505823 31.0894371,61.5116875 36.1881098,61.6570656 L36.4573765,61.6608998 L36.4573765,64.721553 C29.5772701,64.721553 24,59.0329023 24,52.0142948 C24,44.9954459 29.5775067,39.3054106 36.4573765,39.3054106 C36.7936345,39.3054106 37.1285953,39.3191436 37.4617176,39.346374 L37.6689751,39.367129 L37.7210566,39.2385024 C40.2351146,33.2248023 45.9929233,29.147621 52.547301,29.003925 L52.9055877,29 Z" fill="url(#linearGradient-1)" fill-rule="nonzero"></path>
            </g>
        </g>
    </g>
</svg>