<?xml version="1.0" encoding="UTF-8"?>
<svg width="100px" height="100px" viewBox="0 0 100 100" version="1.1" xmlns="http://www.w3.org/2000/svg" xmlns:xlink="http://www.w3.org/1999/xlink">
    <title>中雨转晴@3x</title>
    <defs>
        <linearGradient x1="50%" y1="0%" x2="50%" y2="100%" id="linearGradient-1">
            <stop stop-color="#D6F1FF" offset="0%"></stop>
            <stop stop-color="#7DD4E4" offset="100%"></stop>
        </linearGradient>
    </defs>
    <g id="页面-1" stroke="none" stroke-width="1" fill="none" fill-rule="evenodd">
        <g id="天气icon" transform="translate(-203.000000, -400.000000)">
            <g id="中雨转晴" transform="translate(203.000000, 400.000000)">
                <rect id="矩形备份-18" opacity="0.100000001" x="0" y="0" width="100" height="100" rx="10"></rect>
                <path d="M62.9196192,30.1004826 C66.9445757,30.1004826 70.2074477,33.3780175 70.2074477,37.4210617 C70.2074477,40.7595248 67.9827232,43.5760407 64.9412366,44.4563196 C65.1091535,44.9508824 65.2513649,45.4588658 65.3670148,45.9774531 L65.4084126,46.1764743 L65.6498222,46.2601789 C69.5112282,47.6446753 72.2353879,51.283632 72.3659767,55.5126452 L72.3708851,55.8309015 C72.3708851,61.3439081 67.9956547,65.8310395 62.538647,65.9953389 L62.2286265,66 L62,66 L62,62.339 L62.2286265,62.3397105 C65.8183445,62.3397105 68.7269709,59.4245636 68.7269709,55.8309015 C68.7269709,52.7955482 66.632525,50.1920393 63.738144,49.5034964 L63.4644918,49.444601 L62.1618548,49.1934627 L61.9996318,47.8710916 C61.3071592,42.2263549 56.5115312,37.9377802 50.7892566,37.9377802 C45.9861312,37.9377802 41.7677364,40.9698299 40.1632651,45.4077546 L40.0531328,45.7271182 L39.54628,47.2707784 L37.9604358,46.9474447 C37.453042,46.8439935 36.9332174,46.7913995 36.4055345,46.7913995 C32.1179959,46.7913995 28.6439142,50.2726973 28.6439142,54.565555 C28.6439142,58.764624 31.9688631,62.1879459 36.1271108,62.3348015 L36.4055345,62.3397105 L37,62.339 L37,66 L36.4055345,66 C30.10772,66 25,60.8813902 25,54.565555 C25,48.2491989 30.1074799,43.1311099 36.4055345,43.1311099 C36.5598223,43.1311099 36.7137583,43.1341964 36.867277,43.140351 L37.1413552,43.1567354 L37.2853941,42.8432049 C39.6666443,37.8081749 44.6999869,34.4269506 50.4077608,34.2823203 L50.7892566,34.2774906 C52.6072467,34.2774906 54.3545287,34.6048219 55.972868,35.2058362 C56.9053134,32.2461084 59.6630184,30.1004826 62.9196192,30.1004826 Z M71.5643267,45.5694605 L72.628435,47.7512058 C72.9222803,48.3536781 72.6720888,49.0802872 72.0696165,49.3741326 C71.4671441,49.667978 70.7405351,49.4177864 70.4466897,48.8153141 L69.3825814,46.6335688 C69.088736,46.0310965 69.3389276,45.3044874 69.9413999,45.010642 C70.5438722,44.7167966 71.2704813,44.9669882 71.5643267,45.5694605 Z M72.6670074,38.4012473 L75.0340214,38.9501713 C75.6876543,39.1017525 76.0951973,39.7568886 75.9442943,40.4134588 C75.7933912,41.070029 75.141186,41.4794035 74.4875532,41.3278223 L72.1205392,40.7788983 C71.4669063,40.6273172 71.0593633,39.972181 71.2102663,39.3156108 C71.3611694,38.6590406 72.0133746,38.2496661 72.6670074,38.4012473 Z M62.9196192,33.7607721 C61.0656005,33.7607721 59.534981,35.1516313 59.3054381,36.9512788 C60.8817666,38.0494121 62.2385714,39.4446209 63.2939825,41.0605692 C65.1304434,40.874152 66.5635334,39.315717 66.5635334,37.4210617 C66.5635334,35.3995396 64.9320975,33.7607721 62.9196192,33.7607721 Z M73.354302,29.0389388 C73.7764665,29.5626114 73.6960772,30.3309018 73.1747474,30.7549635 L71.2868452,32.2906267 C70.7655155,32.7146884 70.0006622,32.6339379 69.5784977,32.1102653 C69.1563331,31.5865927 69.2367224,30.8183023 69.7580522,30.3942406 L71.6459544,28.8585774 C72.1672842,28.4345157 72.9321374,28.5152662 73.354302,29.0389388 Z M54.193284,28.8585774 L56.0811862,30.3942406 C56.602516,30.8183023 56.6829053,31.5865927 56.2607407,32.1102653 C55.8385762,32.6339379 55.0737229,32.7146884 54.5523932,32.2906267 L52.664491,30.7549635 C52.1431612,30.3309018 52.0627719,29.5626114 52.4849364,29.0389388 C52.907101,28.5152662 53.6719542,28.4345157 54.193284,28.8585774 Z M44.477546,60.0099358 L44.596735,60.0230882 L44.7120914,60.0402605 C45.9515427,60.2503776 46.309797,61.1850845 46.8005422,64.2083521 L47.0389476,65.7543006 L47.1299689,66.4078446 C47.4034635,68.4617294 47.5334603,70.3378947 47.4209837,71.2143463 C47.0987821,73.7387279 45.0043088,75.6335044 42.6361011,75.3266755 C40.2681196,75.0207195 38.7195007,72.6551681 39.0425115,70.1313231 C39.154468,69.2562457 39.749959,67.4813794 40.5286457,65.5702258 L40.6600715,65.2505692 L40.9180204,64.6390817 L41.4131418,63.4983282 C42.6453447,60.7090992 43.2274968,59.8981361 44.477546,60.0099358 Z M55.477546,60.0099358 L55.596735,60.0230882 L55.7120914,60.0402605 C56.9515427,60.2503776 57.309797,61.1850845 57.8005422,64.2083521 L58.0389476,65.7543006 L58.1299689,66.4078446 C58.4034635,68.4617294 58.5334603,70.3378947 58.4209837,71.2143463 C58.0987821,73.7387279 56.0043088,75.6335044 53.6361011,75.3266755 C51.2681196,75.0207195 49.7195007,72.6551681 50.0425115,70.1313231 C50.154468,69.2562457 50.749959,67.4813794 51.5286457,65.5702258 L51.6600715,65.2505692 L51.9180204,64.6390817 L52.4131418,63.4983282 C53.6453447,60.7090992 54.2274968,59.8981361 55.477546,60.0099358 Z M43.9191366,65.2952956 L43.6837715,65.8371002 C42.8323066,67.822589 42.1114449,69.8777513 42.0296083,70.5174045 C41.9069488,71.475805 42.4110743,72.2458685 43.0206445,72.3246284 C43.6301294,72.4035942 44.3114929,71.7871951 44.4338956,70.8281986 C44.4945148,70.3558345 44.4121872,69.0463816 44.2344315,67.5321836 L44.1316713,66.7148961 L44.0126471,65.8802025 L43.9191366,65.2952956 Z M54.9191366,65.2952956 L54.6837715,65.8371002 C53.8323066,67.822589 53.1114449,69.8777513 53.0296083,70.5174045 C52.9069488,71.475805 53.4110743,72.2458685 54.0206445,72.3246284 C54.6301294,72.4035942 55.3114929,71.7871951 55.4338956,70.8281986 C55.4945148,70.3558345 55.4121872,69.0463816 55.2344315,67.5321836 L55.1316713,66.7148961 L55.0126471,65.8802025 L54.9191366,65.2952956 Z M62.9196192,24 C63.5904453,24 64.1342573,24.5462558 64.1342573,25.2200965 L64.1342573,27.6602895 C64.1342573,28.3341302 63.5904453,28.8803861 62.9196192,28.8803861 C62.2487931,28.8803861 61.7049811,28.3341302 61.7049811,27.6602895 L61.7049811,25.2200965 C61.7049811,24.5462558 62.2487931,24 62.9196192,24 Z" id="多云转晴备份-2" fill="url(#linearGradient-1)" fill-rule="nonzero"></path>
            </g>
        </g>
    </g>
</svg>