<?xml version="1.0" encoding="UTF-8"?>
<svg width="100px" height="100px" viewBox="0 0 100 100" version="1.1" xmlns="http://www.w3.org/2000/svg" xmlns:xlink="http://www.w3.org/1999/xlink">
    <title>中雨转阴@3x</title>
    <defs>
        <linearGradient x1="50%" y1="0%" x2="50%" y2="100%" id="linearGradient-1">
            <stop stop-color="#D6F1FF" offset="0%"></stop>
            <stop stop-color="#7DD4E4" offset="100%"></stop>
        </linearGradient>
    </defs>
    <g id="页面-1" stroke="none" stroke-width="1" fill="none" fill-rule="evenodd">
        <g id="天气icon" transform="translate(-203.000000, -936.000000)">
            <g id="中雨转阴" transform="translate(203.000000, 936.000000)">
                <rect id="矩形备份-11" opacity="0.100000001" x="0" y="0" width="100" height="100" rx="10"></rect>
                <path d="M52.9121176,60.8912698 L53.1700665,60.2797823 L53.6651878,59.1390287 C54.8973908,56.3497998 55.4795429,55.5388367 56.7295921,55.6506364 L56.8487811,55.6637888 L56.9641375,55.680961 C58.2035888,55.8910782 58.5618431,56.8257851 59.0525883,59.8490527 L59.2909936,61.3950011 L59.3820149,62.0485452 C59.6555096,64.10243 59.7855064,65.9785953 59.6730298,66.8550469 C59.3508282,69.3794284 57.2563549,71.2742049 54.8881472,70.9673761 C52.5201656,70.66142 50.9715468,68.2958686 51.2945576,65.7720236 C51.4065141,64.8969463 52.0020051,63.1220799 52.7806918,61.2109264 L52.9121176,60.8912698 Z M42.8786673,60.7819648 L43.1614986,60.1811833 L43.7026047,59.0618831 C45.0893809,56.2402445 45.7008502,55.4899816 47.0253405,55.7164564 C48.2337613,55.9232716 48.6139417,56.6979353 48.9582127,59.2030073 L49.0647797,60.0372845 L49.1992095,61.2157964 L49.2679307,61.8767635 C49.4825714,64.0677753 49.5503625,66.104529 49.3948567,67.0228752 C48.9697425,69.5334047 46.798576,71.3417547 44.4436175,70.9379292 C42.0888874,70.5349463 40.6371272,68.1061311 41.0622737,65.5954112 C41.2017241,64.7735786 41.8051573,63.1667712 42.5932888,61.4079905 L42.8786673,60.7819648 Z M56.2646932,61.5209031 L56.1711827,60.9359961 L55.9358176,61.4778008 C55.0843527,63.4632896 54.363491,65.5184519 54.2816544,66.158105 C54.1589949,67.1165055 54.6631204,67.8865691 55.2726906,67.9653289 C55.8821755,68.0442948 56.563539,67.4278956 56.6859417,66.4688991 C56.7465608,65.996535 56.6642332,64.6870821 56.4864776,63.1728842 L56.3837174,62.3555967 L56.2646932,61.5209031 Z M46.1362076,60.956175 L45.8761452,61.4919625 L45.6361875,62.0015061 C44.809093,63.7841316 44.1297027,65.523202 44.0311968,66.1037329 C43.8695451,67.0583737 44.3428989,67.8503012 44.9496691,67.9541425 C45.5568019,68.0582529 46.2643205,67.4689654 46.4258471,66.5150632 C46.5195821,65.9615076 46.4626873,64.2413704 46.2907513,62.3878568 L46.2641025,62.1089585 L46.2057349,61.5482598 L46.1362076,60.956175 Z M65.9215568,28 C70.7311051,28 74.8600984,31.1791183 76.2030874,35.6250687 L76.2818123,35.8988363 L76.2875568,35.923 L76.5524019,35.9350266 C80.8604208,36.1891842 84.3096218,39.6368266 84.5662355,43.9441845 L84.5777825,44.203639 L84.5815568,44.46 C84.5815568,48.9841524 81.0578391,52.7031325 76.5591128,52.983687 L76.3034437,52.9958776 L76.0415568,53 L73.7748058,53.000652 C72.8176132,57.4717474 68.9196459,60.8452699 64.2161946,60.9752056 L63.9344777,60.9790923 L61.0547215,60.9790923 L61.0547215,57.9522706 L63.9344777,57.9522706 C67.8297509,57.9522706 70.9883028,54.7778567 70.9883028,50.8630217 C70.9883028,47.536413 68.6890298,44.6883142 65.5198054,43.9578095 L65.2743271,43.9058211 L64.1976372,43.6977709 L64.0640187,42.6040685 C63.3295624,36.5923546 58.2384547,32.0268217 52.1644781,32.0268217 C47.0504366,32.0268217 42.559243,35.2763096 40.868613,40.0271735 L40.7686227,40.3199039 L40.3503884,41.5972185 L39.0390778,41.3300774 C38.4908541,41.2183929 37.9306269,41.1613373 37.3662887,41.1613373 C32.7524339,41.1613373 29.0116972,44.9202931 29.0116972,49.5564436 C29.0116972,54.1073541 32.6150804,57.8127455 37.1108749,57.9484215 L37.3662887,57.9522706 L40.3428495,57.9522706 L40.3428495,60.9790923 L37.3662887,60.9790923 C31.0890932,60.9790923 26,55.8649559 26,49.5564436 C26,43.2485235 31.089221,38.1345156 37.3662887,38.1345156 C37.672805,38.1345156 37.9784145,38.1469099 38.2824279,38.171486 L38.3559898,38.1783324 L38.3849398,38.1098216 C40.6809088,32.7619423 45.8917687,29.138717 51.8215909,29.0038954 L52.1644781,29 C54.5817252,29 56.8743601,29.5776339 58.9067295,30.607503 C60.6540045,29.0998273 62.8823463,28.1577264 65.2955825,28.0180745 L65.6270958,28.0039914 L65.9215568,28 Z M65.9215568,31 C64.3244648,31 62.8218311,31.4881492 61.572782,32.33645 C64.1980221,34.4628719 66.1020261,37.4651708 66.8353437,40.9270526 L66.8888092,41.1940558 L66.9260916,41.2059975 C70.8012489,42.414592 73.6156942,45.8836925 73.9636611,50.0000173 L76.0167755,50.0002047 L76.229049,49.996903 C79.2083296,49.8983076 81.5815568,47.4499972 81.5815568,44.46 C81.5815568,41.4003425 79.1012143,38.92 76.0415568,38.92 C75.8705625,38.92 75.7003674,38.927702 75.5315208,38.9429589 L75.2793309,38.9714919 L73.7925773,39.1738131 L73.5907087,37.6869979 C73.0734281,33.8770906 69.8046112,31 65.9215568,31 Z" id="中雨" fill="url(#linearGradient-1)" fill-rule="nonzero"></path>
            </g>
        </g>
    </g>
</svg>