<?xml version="1.0" encoding="UTF-8"?>
<svg width="283px" height="24px" viewBox="0 0 283 24" version="1.1" xmlns="http://www.w3.org/2000/svg" xmlns:xlink="http://www.w3.org/1999/xlink">
    <!-- Generator: Sketch 60 (88103) - https://sketch.com -->
    <title>Logo</title>
    <desc>Created with Sketch.</desc>
    <g id="基础信息维护" stroke="none" stroke-width="1" fill="none" fill-rule="evenodd">
        <path d="M68.6562945,12.3236802 L69.612473,12.3907665 L68.7049444,12.9560227 C62.733634,16.6223966 29.1445623,35.8151685 0.929135293,13.030811 L0.187962371,12.4180158 C5.98028714,17.1310698 15.1719673,21.0014628 25.503013,21.4466329 L25.8196231,21.459188 C33.2169633,21.7270786 41.2545318,19.8459851 48.8968269,16.03578 C56.4882149,12.4287313 63.1165057,11.9825958 68.6562945,12.3236802 L68.6562945,12.3236802 Z M163.62,0.34 L163.05,2.92 L172.2,2.92 L172.2,18.76 L172.1925,18.9875 C172.1675,19.3625 172.08,19.7166667 171.93,20.05 C171.75,20.45 171.51,20.8 171.21,21.1 C170.91,21.4 170.56,21.635 170.16,21.805 C169.84,21.941 169.5072,22.0226 169.1616,22.0498 L168.9,22.06 L165.96,22.06 L166.44,19.45 L167.1,19.45 L167.226667,19.4425 C167.432222,19.4175 167.61,19.33 167.76,19.18 C167.91,19.03 167.9975,18.8522222 168.0225,18.6466667 L168.03,18.52 L168.03,5.89 L158.04,5.89 L159.27,0.34 L163.62,0.34 Z M189.72,0.37 L190.86,3.52 L193.83,3.52 L194.97,0.37 L198.72,0.37 L197.58,3.52 L199.77,3.52 L199.77,6.19 L193.8,6.19 L193.8,12.16 L199.77,12.16 L199.77,14.86 L193.14,14.86 L189.54,22.03 L185.46,22.03 L189.09,14.86 L184.92,14.86 L184.92,12.16 L189.93,12.16 L189.93,6.19 L184.92,6.19 L184.92,3.52 L187.11,3.52 L186,0.37 L189.72,0.37 Z M196.89,15.76 L199.77,22.03 L195.96,22.03 L193.08,15.76 L196.89,15.76 Z M144.78,0.34 L144.78,3.31 L123.51,3.31 L123.51,18.97 L122.16,22.03 L117.99,22.03 L119.34,18.97 L119.34,0.34 L144.78,0.34 Z M109.77,0.4 L109.05,2.77 L116.94,2.77 L116.94,5.74 L116.934719,6.24517857 C116.888954,8.41339286 116.545714,10.31 115.905,11.935 C115.215,13.685 114.3,15.19 113.16,16.45 C113.8,16.81 114.445,17.12 115.095,17.38 C115.615,17.588 116.1126,17.764 116.5878,17.908 L116.94,18.01 L116.94,22.03 C115.78,21.73 114.61,21.34 113.43,20.86 C112.25,20.38 111.12,19.79 110.04,19.09 C108.96,19.79 107.83,20.38 106.65,20.86 C105.666667,21.26 104.690278,21.5975 103.720833,21.8725 L103.14,22.03 L103.14,18.01 L103.5024,17.908 C103.9888,17.764 104.488,17.588 105,17.38 C105.64,17.12 106.28,16.81 106.92,16.45 C105.86,15.27 104.995,13.875 104.325,12.265 C103.706538,10.7788462 103.330917,9.04985207 103.198136,7.07801775 L103.17,6.58 L106.92,6.58 L106.953099,7.02206612 C107.082851,8.47826446 107.406818,9.76090909 107.925,10.87 C108.495,12.09 109.2,13.14 110.04,14.02 C110.96,13.06 111.715,11.905 112.305,10.555 C112.849615,9.30884615 113.151391,7.8454142 113.210325,6.16470414 L113.22,5.74 L103.41,5.74 L105.18,0.4 L109.77,0.4 Z M100.56,0.37 L100.56,6.16 L102.03,6.16 L102.03,9.13 L100.56,9.13 L100.56,13.03 L102.24,12.67 L102.24,15.97 L100.56,16.33 L100.56,22.03 L96.03,22.03 L96.03,17.32 L90.66,18.52 L90.66,15.22 L96.03,14.02 L96.03,9.13 L90.81,9.13 L91.53,2.23 L95.16,2.23 L94.77,6.16 L96.03,6.16 L96.03,0.37 L100.56,0.37 Z M184.47,0.37 L184.47,3.07 L183.72,3.07 L183.72,16.48 L184.47,16.39 L184.47,19.06 L183.72,19.15 L183.72,22.03 L180.18,22.03 L180.18,19.57 L173.43,20.38 L173.43,17.68 L174.18,17.59 L174.18,3.07 L173.43,3.07 L173.43,0.37 L184.47,0.37 Z M162.99,7.57 L160.77,22 L157.23,22 L159.45,7.57 L162.99,7.57 Z M155.76,0.34 L155.76,4.81 L157.44,4.81 L157.44,7.78 L155.76,7.78 L155.76,10.99 L157.44,10.48 L157.44,13.75 L155.76,14.29 L155.76,22 L151.2,22 L151.2,15.67 L145.8,17.32 L145.8,14.02 L151.2,12.37 L151.2,7.78 L145.89,7.78 L146.97,1.54 L150.42,1.54 L150,4.81 L151.2,4.81 L151.2,0.34 L155.76,0.34 Z M167.55,7.57 L165.33,22 L161.46,22 L163.68,7.57 L167.55,7.57 Z M141.75,15.34 L144.12,22 L140.16,22 L137.76,15.34 L141.75,15.34 Z M130.56,15.34 L128.19,22 L124.23,22 L126.6,15.34 L130.56,15.34 Z M224.07,0.37 L224.2975,0.377083333 C224.6725,0.400694444 225.026667,0.483333333 225.36,0.625 C225.76,0.795 226.11,1.03 226.41,1.33 C226.71,1.63 226.945,1.98 227.115,2.38 C227.256667,2.71333333 227.339306,3.0675 227.362917,3.4425 L227.37,3.67 L227.37,18.73 L227.362917,18.9570833 C227.339306,19.3306944 227.256667,19.68 227.115,20.005 C226.945,20.395 226.71,20.74 226.41,21.04 C226.11,21.34 225.76,21.575 225.36,21.745 C225.026667,21.8866667 224.6725,21.9693056 224.2975,21.9929167 L224.07,22 L220.68,22 L221.91,19.03 L222.54,19.03 L222.675833,19.0225 C222.895278,18.9975 223.08,18.91 223.23,18.76 C223.38,18.61 223.4675,18.4322222 223.4925,18.2266667 L223.5,18.1 L223.5,4.27 L223.4925,4.14333333 C223.4675,3.93777778 223.38,3.76 223.23,3.61 C223.08,3.46 222.895278,3.3725 222.675833,3.3475 L222.54,3.34 L204.87,3.34 L204.87,22 L201,22 L201,0.37 L224.07,0.37 Z M132.18,3.76 L131.31,5.38 L144.03,5.38 L144.03,11.62 L144.021,11.8564 C143.997,12.1668 143.925,12.458 143.805,12.73 C143.655,13.07 143.455,13.365 143.205,13.615 C142.955,13.865 142.655,14.065 142.305,14.215 C142.025,14.335 141.7354,14.407 141.4362,14.431 L141.21,14.44 L136.68,14.44 L136.68,18.64 L136.672917,18.8675 C136.649306,19.2425 136.566667,19.5966667 136.425,19.93 C136.255,20.33 136.02,20.68 135.72,20.98 C135.42,21.28 135.07,21.515 134.67,21.685 C134.336667,21.8266667 133.9825,21.9093056 133.6075,21.9329167 L133.38,21.94 L129.39,21.94 L130.68,19.3 L131.58,19.3 L131.706667,19.2925 C131.912222,19.2675 132.09,19.18 132.24,19.03 C132.39,18.88 132.4775,18.6952778 132.5025,18.4758333 L132.51,18.34 L132.51,14.44 L124.35,14.44 L124.35,5.38 L126.81,5.38 L127.68,3.76 L132.18,3.76 Z M253.98,0.46 L253.98,3.4 L243.9,3.4 L243.9,13.48 L254.97,13.48 L254.97,16.42 L243.9,16.42 L243.9,21.94 L239.73,21.94 L239.73,16.42 L228.63,16.42 L228.63,13.48 L239.73,13.48 L239.73,3.4 L229.62,3.4 L229.62,0.46 L253.98,0.46 Z M281.46,11.02 L281.46,19 L281.451,19.2364 C281.427,19.5468 281.355,19.838 281.235,20.11 C281.085,20.45 280.885,20.745 280.635,20.995 C280.385,21.245 280.085,21.445 279.735,21.595 C279.455,21.715 279.1654,21.787 278.8662,21.811 L278.64,21.82 L257.01,21.82 L257.01,11.02 L281.46,11.02 Z M277.08,13.96 L261.39,13.96 L261.39,18.91 L276.15,18.91 C276.41,18.91 276.63,18.82 276.81,18.64 C276.96,18.49 277.0475,18.3052778 277.0725,18.0858333 L277.08,17.95 L277.08,13.96 Z M217.05,4.99 L217.115625,5.33875 C217.186875,5.69125 217.275,6.055 217.38,6.43 C217.485,6.805 217.595625,7.151875 217.711875,7.470625 L217.83,7.78 C218.01,8.26 218.19,8.73 218.37,9.19 C218.503333,8.88333333 218.632222,8.57222222 218.756667,8.25666667 L218.94,7.78 C219.1,7.38 219.25,6.93 219.39,6.43 C219.495,6.055 219.583125,5.69125 219.654375,5.33875 L219.72,4.99 L222.57,4.99 L222.4668,5.5282 C222.3196,6.2434 222.134,6.949 221.91,7.645 C221.63,8.515 221.35,9.3 221.07,10 C220.73,10.8 220.38,11.57 220.02,12.31 C220.34,12.79 220.68,13.27 221.04,13.75 C221.31,14.11 221.608125,14.464375 221.934375,14.813125 L222.27,15.16 L222.27,18.73 C221.49,18.21 220.775,17.63 220.125,16.99 C219.475,16.35 218.89,15.68 218.37,14.98 C217.85,15.68 217.27,16.35 216.63,16.99 C216.096667,17.5233333 215.514722,18.015 214.884167,18.465 L214.5,18.73 L214.5,15.16 L214.823438,14.813125 C215.140312,14.464375 215.4375,14.11 215.715,13.75 C216.085,13.27 216.42,12.79 216.72,12.31 C216.36,11.57 216.01,10.8 215.67,10 C215.39,9.3 215.11,8.515 214.83,7.645 C214.606,6.949 214.4204,6.2434 214.2732,5.5282 L214.17,4.99 L217.05,4.99 Z M208.14,4.99 L208.206563,5.33875 C208.279688,5.69125 208.3725,6.055 208.485,6.43 C208.5975,6.805 208.712812,7.151875 208.830937,7.470625 L208.95,7.78 C209.13,8.26 209.31,8.73 209.49,9.19 L209.76,8.4925 L209.76,8.4925 L210.03,7.78 C210.19,7.38 210.34,6.93 210.48,6.43 C210.585,6.055 210.673125,5.69125 210.744375,5.33875 L210.81,4.99 L213.69,4.99 L213.5868,5.5282 C213.4396,6.2434 213.254,6.949 213.03,7.645 C212.75,8.515 212.47,9.3 212.19,10 C211.85,10.8 211.5,11.57 211.14,12.31 C211.44,12.79 211.775,13.27 212.145,13.75 C212.4225,14.11 212.719688,14.464375 213.036562,14.813125 L213.36,15.16 L213.36,18.73 C212.58,18.21 211.87,17.63 211.23,16.99 C210.59,16.35 210.01,15.68 209.49,14.98 C208.97,15.68 208.39,16.35 207.75,16.99 C207.216667,17.5233333 206.627778,18.015 205.983333,18.465 L205.59,18.73 L205.59,15.16 L205.925625,14.813125 C206.251875,14.464375 206.55,14.11 206.82,13.75 C207.18,13.27 207.52,12.79 207.84,12.31 C207.48,11.57 207.13,10.8 206.79,10 C206.51,9.3 206.23,8.515 205.95,7.645 C205.726,6.949 205.5404,6.2434 205.3932,5.5282 L205.29,4.99 L208.14,4.99 Z M180.18,14.2 L177.69,14.2 L177.69,17.17 L180.18,16.9 L180.18,14.2 Z M235.17,4.81 L236.79,12.31 L233.19,12.31 L231.57,4.81 L235.17,4.81 Z M252.45,4.81 L250.71,12.31 L247.11,12.31 L248.85,4.81 L252.45,4.81 Z M139.86,10.9 L128.52,10.9 L128.52,12.16 L139.2,12.16 C139.6,12.16 139.818182,11.9781818 139.854545,11.6145455 L139.86,11.5 L139.86,10.9 Z M180.18,8.74 L177.69,8.74 L177.69,11.5 L180.18,11.5 L180.18,8.74 Z M53.6822009,2.00011149 L53.6822009,10.1521676 C53.6822009,10.4109007 53.5669447,10.5215541 53.356096,10.5471742 L53.2475148,10.5531995 L52.0187302,10.5531995 L52.0187302,8.85912402 L49.7354251,9.40754175 L49.7354251,8.62810851 C49.7354251,8.35886716 49.8398189,8.17636527 50.1651934,8.09453404 L52.0187302,7.64775725 L52.0187302,3.84065377 L51.49949,3.84065377 L51.3143417,5.90003472 C51.2825379,6.191154 51.0456641,6.29462344 50.762532,6.30045804 L49.6744728,6.300722 L50.0063879,2.61171098 C50.0302099,2.39753719 50.1328299,2.26108789 50.397019,2.22766602 L50.5357104,2.21963941 L51.6453401,2.21963941 L51.592637,2.80516206 L52.0187302,2.80516206 L52.0187302,2.39218307 C52.0187302,2.15112605 52.1234238,2.00865553 52.4496153,2.00048344 L53.6822009,2.00011149 Z M68.7232455,8.24390594 C69.0629699,8.24390594 69.2181393,8.37300688 69.2941492,8.59758007 L69.9410311,10.5532569 L68.7997796,10.5532569 C68.5300962,10.5532569 68.3476677,10.4628723 68.2554953,10.1961839 L67.6101786,8.24390594 L68.7232455,8.24390594 Z M58.1093649,4.56583814 L59.4776644,4.57774375 L57.5613333,7.64079577 L59.6260351,10.5532966 L58.2448698,10.5532966 C57.9506173,10.5533581 57.7310228,10.4647968 57.5687613,10.2047453 L57.5515947,10.1762226 L56.7139589,8.99518309 L55.9891765,10.1538218 C55.8261209,10.4392053 55.6070985,10.5420003 55.3143721,10.5491639 L53.8339629,10.5532966 L55.723255,7.5981768 L54.1336832,5.35671749 L55.4858618,5.35706211 C55.8083743,5.35677062 56.0012123,5.45337659 56.1353717,5.62435694 L56.2033116,5.72512462 L56.5805971,6.25722997 L57.4137646,4.9541922 C57.5496988,4.7175107 57.7452914,4.57528808 58.1093649,4.56583814 Z M27.588626,2.49427331 C27.9940086,2.49427331 28.2616274,2.67988121 28.2719664,3.24930305 L28.272277,7.75157064 C28.272277,8.6808021 28.7066194,9.03645801 29.506561,9.04553321 C29.7994747,9.04882283 30.1474123,8.98327739 30.5139284,8.87734412 L30.799735,8.78809623 L30.799735,2.49427331 L32.2210005,2.49427331 C32.6315979,2.49427331 32.8974158,2.83768765 32.9083133,3.3327684 L32.9086616,9.80750531 C32.0670158,9.90170358 30.6694667,10.4695353 29.5471195,10.5386907 C27.4918512,10.6654063 26.2241,9.97134279 26.1161921,8.2056845 L26.1086997,7.95421179 L26.1086997,2.49427331 L27.588626,2.49427331 Z M12.6508451,2.49427331 C13.0562278,2.49427331 13.3239567,2.67988121 13.3342999,3.24930305 L13.3346108,7.75157064 C13.3346108,8.6808021 13.7689532,9.03645801 14.5687802,9.04553321 C14.8616939,9.04882283 15.2096314,8.98327739 15.5761475,8.87734412 L15.8619542,8.78809623 L15.8619542,2.49427331 L17.2833342,2.49427331 C17.6994099,2.49427331 17.9226653,2.78283675 17.9640362,3.21226889 L17.9711099,3.36457342 L17.9711099,9.80750531 C17.1295786,9.90170358 15.731915,10.4695353 14.6091095,10.5386907 C12.4805522,10.6699318 11.1971045,9.92071991 11.1716484,8.01239491 L11.1712625,2.49427331 L12.6508451,2.49427331 Z M64.8330454,8.2439404 L64.196598,10.1679975 C64.1212029,10.4119811 63.9769542,10.5187959 63.7653077,10.5459317 L63.6428716,10.5531765 L62.5012763,10.5531765 L63.14139,8.62038885 C63.2031896,8.41835079 63.3236451,8.28855043 63.5714852,8.25351638 L63.7189474,8.2439404 L64.8330454,8.2439404 Z M70.0132,2.04845128 L70.0132,2.68302597 C70.0132,2.94185809 69.8987099,3.05252514 69.6876326,3.07814711 L69.5788576,3.08417274 L62.5012878,3.08417274 C62.2476636,3.08417274 62.0936063,3.19709988 62.0836176,3.41797332 L62.0831,10.1521446 C62.0831,10.4108777 61.9684397,10.5215311 61.7576822,10.5471512 L61.6491014,10.5531765 L60.4313157,10.5531765 L60.4313157,3.25843954 C60.4313157,2.40187419 60.7930972,2.05790704 61.8139046,2.04864402 L70.0132,2.04845128 Z M67.0525682,3.33164998 L67.0525682,3.94301972 L69.6517483,3.94301972 L69.6517483,7.06707087 C69.6517483,7.50414334 69.4883725,7.8059575 68.9893018,7.81809441 L67.0440899,7.81847438 L67.0440899,10.0147875 C67.0440899,10.3068456 66.7706557,10.5402872 66.4980629,10.5526924 L65.3978051,10.553211 L65.3978051,7.81847438 L62.791407,7.81847438 L62.791407,4.70499182 C62.791407,4.184166 62.9449296,3.95184832 63.4855969,3.94326703 L65.3893267,3.94301972 L65.3893267,3.72383643 C65.3893267,3.50956352 65.4723034,3.37310063 65.7199979,3.33967689 L65.8510518,3.33164998 L67.0525682,3.33164998 Z M37.4091523,2.1513112 C39.4393416,2.1513112 40.5194439,2.77035916 40.6108358,4.62285329 L40.6171679,4.8874263 L40.6171679,10.0107783 C39.1642805,9.86546022 38.2352163,10.5387481 36.6629449,10.5042853 C34.9552495,10.4668358 33.4787603,9.76126774 33.5504824,7.73037603 C33.6455278,5.0420988 36.5721688,4.8083387 38.3675554,5.06365437 L38.5603716,5.09362861 L38.5603716,4.93854609 C38.5603716,4.00931463 38.1828569,3.65607112 37.1504487,3.64458352 C36.204508,3.63416715 35.0597975,3.91477927 34.135245,4.39623655 L34.0645669,4.43366634 L34.0645669,2.69800579 L34.3940279,2.61075318 C35.0928577,2.436362 36.4439862,2.1513112 37.4091523,2.1513112 Z M20.0032617,2.49421587 C20.4613177,2.49421587 20.6797996,2.63630443 20.9070072,3.02508763 L20.9420645,3.08686084 L22.0589123,5.30396645 L23.0541522,3.27687815 C23.3446335,2.68470765 23.58284,2.49885477 24.1635296,2.49557823 L25.7083737,2.49559439 L22.1136777,9.80756275 L22.1136777,9.80756275 C21.886041,10.2616852 21.5724181,10.431685 20.993627,10.4390163 L19.5347769,10.4412184 L20.8819143,7.69935952 L18.2019609,2.49421587 L20.0032617,2.49421587 Z M266.55,0.55 L262.65,6.64 L276.09,6.64 L273.15,1.75 L277.17,1.75 L282.27,10.27 L278.28,10.27 L277.86,9.58 L256.53,9.58 L262.32,0.55 L266.55,0.55 Z M48.3877528,4.67863276 L48.3881388,10.1966361 L46.9619467,10.1966361 C46.5564517,10.1966361 46.289051,10.011249 46.2787206,9.44172757 L46.2784102,4.93945361 C46.2784102,4.0104519 45.790219,3.65445137 44.9902774,3.64549104 C44.6969992,3.64220142 44.3486246,3.70789223 43.9815989,3.81405843 L43.6953848,3.9035024 L43.6953848,9.42294662 C43.6953848,9.73456812 43.6023298,10.1796047 42.9644631,10.1953995 L41.5881769,10.1958319 L41.5881769,2.88351894 C42.429479,2.78909092 43.8272572,2.22160378 44.9500627,2.15233359 C47.0787334,2.02120616 48.3622944,2.7704192 48.3877528,4.67863276 Z M10.1787712,4.67765214 L10.1790921,10.19574 L8.72964187,10.19574 C8.22843516,10.19574 8.08600491,9.96670668 8.06042978,9.57698918 L8.05584402,9.42239521 L8.05511232,4.85441433 C8.03967627,3.98797327 7.77780426,3.65673122 7.06044261,3.64459501 C6.78569899,3.6398851 6.48345809,3.69617431 6.17331173,3.78956844 C6.22295577,3.98151465 6.25542089,4.19288064 6.270432,4.4252819 L6.28009282,4.73580155 L6.28009282,10.19574 L4.86375394,10.19574 C4.362649,10.19574 4.22013973,9.96670668 4.19454567,9.57698918 L4.18995609,9.42239521 L4.18922407,4.85440484 C4.17378151,3.98776773 3.91180527,3.65339097 3.19455469,3.64459501 C2.98113981,3.64203492 2.73561847,3.68305735 2.47578683,3.7519344 L2.41557976,3.7683164 L2.41557976,9.42296959 C2.41557976,9.73448807 2.32987553,10.1792227 1.74044803,10.1952919 L0.29359202,10.19574 L0.29359202,2.78302547 C0.922706791,2.52007445 2.2412012,2.15637723 3.15754793,2.15132269 C4.01809812,2.14661277 4.70255116,2.25620442 5.20918847,2.52570337 C5.75581142,2.32938039 6.4225058,2.16533755 7.08816903,2.15155244 C9.08912178,2.10992829 10.1576017,2.77131552 10.1787712,4.67765214 Z M35.6989362,7.66099096 C35.6552843,8.60883233 36.3649432,9.04352288 37.2676559,9.00883035 C37.6342481,8.99494951 37.9076635,8.94815227 38.1404319,8.89468439 L38.5603716,8.78838342 L38.5603716,6.37081929 L38.4951346,6.36165875 C37.4174438,6.21778065 35.7590063,6.3612731 35.6989362,7.66099096 Z M139.86,7.66 L128.52,7.66 L128.52,8.74 L139.86,8.74 L139.86,7.66 Z M68.1452413,4.92624288 L64.5625753,4.92624288 C64.4726042,4.92624288 64.3110434,4.98457707 64.2982625,5.15673809 L64.2974557,5.41159372 L67.6101901,5.41159372 L67.6101901,5.98666267 C67.6101901,6.2168129 67.5097193,6.31772603 67.3253337,6.34324752 L67.2170936,6.35001526 L64.2974557,6.35001526 L64.2974557,6.8353661 L67.8577802,6.8353661 C68.0258263,6.8353661 68.1123044,6.78887808 68.13738,6.66437832 L68.1452413,6.57459772 L68.1452413,4.92624288 Z M180.18,3.07 L177.69,3.07 L177.69,6.04 L180.18,6.04 L180.18,3.07 Z M56.4195777,2.0001 L56.2076195,2.71152669 L59.6261038,2.71152669 L59.6261038,3.346446 C59.6261038,3.63752074 59.4748461,3.74107407 59.1992835,3.74708274 L55.8990771,3.74736302 L55.6898687,4.44936988 C55.6005442,4.79190905 55.4160911,4.91354885 55.1389122,4.92060641 L53.9590297,4.92093561 L54.6260678,2.46167152 C54.7010603,2.17828302 54.8539443,2.01047512 55.196501,2.00056517 L56.4195777,2.0001 Z" id="Logo" fill="#FFFFFF" fill-rule="nonzero"></path>
    </g>
</svg>