<?xml version="1.0" encoding="UTF-8"?>
<svg width="16px" height="16px" viewBox="0 0 16 16" version="1.1" xmlns="http://www.w3.org/2000/svg" xmlns:xlink="http://www.w3.org/1999/xlink">
    <title>形状</title>
    <g id="页面-1" stroke="none" stroke-width="1" fill="none" fill-rule="evenodd">
        <g id="编组-62" transform="translate(-18.000000, -10.000000)" fill="#FFFFFF" fill-rule="nonzero">
            <path d="M19.5276649,25.9935168 L18.5456015,26 C18.4009007,26 18.2621248,25.9432004 18.1598041,25.8420836 C18.0574835,25.7409667 18,25.6038207 18,25.4608174 L18,17.755383 C18,17.6123764 18.0574761,17.4752255 18.1597973,17.3741045 C18.2621186,17.2729836 18.4008974,17.2161766 18.5456015,17.2161817 L20.7279497,17.2161817 C20.8726538,17.2161766 21.0114326,17.2729836 21.1137538,17.3741045 C21.2160751,17.4752255 21.2735563,17.6123764 21.2735512,17.755383 L21.2735512,18.1867251 C21.2735563,18.3297317 21.2160751,18.4668826 21.1137538,18.5680036 C21.0114326,18.6691245 20.8726538,18.7259315 20.7279497,18.7259264 L19.5276649,18.7259264 L19.5276649,24.483791 L32.4614403,24.483791 L32.4614403,18.7173015 L31.2720311,18.7173015 C31.1273304,18.7173015 30.9885565,18.6604923 30.8862394,18.5593719 C30.7839223,18.4582515 30.7264437,18.3211035 30.7264488,18.1781002 L30.7264488,17.7467581 C30.7264437,17.6037514 30.7839249,17.4666005 30.8862462,17.3654796 C30.9885674,17.2643586 31.1273462,17.2075567 31.2720503,17.2075567 L33.4543985,17.2075567 C33.5991026,17.2075567 33.7378814,17.2643586 33.8402027,17.3654796 C33.9425239,17.4666005 34,17.6037514 34,17.7467581 L34,18.1781002 C34,18.2158414 33.9956267,18.2535827 33.9890861,18.2891819 L33.9890861,25.4608174 C33.9891364,25.7170776 33.8066694,25.937969 33.5526049,25.9892138 L33.5526049,25.9935358 L33.5286096,25.9935358 C33.5004532,25.9978661 33.471999,26 33.4435038,26 L32.4614403,26 L19.5276649,25.9935168 Z M26.7294506,12.6324131 L26.7294506,20.8323867 C26.7294506,21.1301689 26.4851851,21.3715691 26.1838684,21.3715691 L25.7473872,21.3715691 C25.4460704,21.3715691 25.2018049,21.1301689 25.2018049,20.8323867 L25.2018049,12.5234354 L23.025959,14.6737768 C22.9236029,14.7751898 22.7846217,14.8321847 22.6396839,14.8321847 C22.4947461,14.8321847 22.3557649,14.7751898 22.2534088,14.6737768 L21.9456892,14.3696858 C21.8430666,14.2685296 21.7853915,14.1311747 21.7853915,13.9879324 C21.7853915,13.8446902 21.8430666,13.7073352 21.9456892,13.606179 L25.3709423,10.2211244 C25.5141894,10.0795417 25.7084838,10 25.9110772,10 C26.1136706,10 26.3079651,10.0795417 26.4512121,10.2211244 L29.9287908,13.6590092 C30.1417786,13.8695602 30.1417786,14.2108655 29.9287908,14.4214165 L29.6210904,14.726607 C29.5187335,14.8280257 29.3797482,14.8850244 29.2348057,14.8850244 C29.0898632,14.8850244 28.9508779,14.8280257 28.848521,14.726607 L26.7294506,12.6312947 L26.7294506,12.6324131 Z" id="形状"></path>
        </g>
    </g>
</svg>