<?xml version="1.0" encoding="UTF-8"?>
<svg width="100px" height="100px" viewBox="0 0 100 100" version="1.1" xmlns="http://www.w3.org/2000/svg" xmlns:xlink="http://www.w3.org/1999/xlink">
    <title>夜晚多云@3x</title>
    <defs>
        <linearGradient x1="50%" y1="0%" x2="50%" y2="100%" id="linearGradient-1">
            <stop stop-color="#D6F1FF" offset="0%"></stop>
            <stop stop-color="#7DD4E4" offset="100%"></stop>
        </linearGradient>
    </defs>
    <g id="页面-1" stroke="none" stroke-width="1" fill="none" fill-rule="evenodd">
        <g id="天气icon" transform="translate(-953.000000, -199.000000)">
            <g id="夜晚多云" transform="translate(953.000000, 199.000000)">
                <rect id="矩形备份-8" opacity="0.100000001" x="0" y="0" width="100" height="100" rx="10"></rect>
                <path d="M36.9353042,29 C44.4179583,29.1607545 50.5105427,35.0114139 51.1144723,42.4306429 C52.8403113,41.5329434 54.7654778,40.9884561 56.7885533,40.8786036 L57.2235311,40.861746 L57.5510565,40.8579414 C64.1360257,40.8579414 69.7351492,45.4462889 71.2362246,51.732192 L71.3078489,52.0478884 L71.3575838,52.2981398 L71.6426379,52.3932445 C75.208885,53.646611 77.7537986,56.9639911 77.9831209,60.8545718 L77.9959581,61.1474168 L78,61.4286674 C78,66.6232301 73.9019075,70.8519221 68.7925436,70.9961949 L68.5227126,71 L43.7582601,71 C37.8549669,71 33.0684649,66.1673074 33.0684649,60.205299 C33.0684649,59.4166503 33.1522399,58.6477573 33.3112919,57.9071956 C28.7257575,56.8319607 24.892123,53.5566029 23.1128838,49.0809267 C22.5951754,47.7786312 23.9568166,46.526466 25.1916842,47.1692618 C26.5100917,47.8555434 27.9677321,48.2185981 29.4776676,48.2185981 C34.6357965,48.2185981 38.8156723,44.0109785 38.8156723,38.8240387 C38.8156723,36.0368638 37.5997736,33.4488558 35.5262573,31.6703324 C34.4975681,30.7879918 35.060318,29.1162324 36.3599588,29.0057622 L36.496998,29 L36.9353042,29 Z M57.5510565,43.8884403 C52.8292574,43.8884403 48.6837485,46.8996096 47.117599,51.3050367 L47.0211543,51.5881122 L46.6035574,52.8688987 L45.2958687,52.5985411 C44.7943308,52.4948508 44.2791597,52.441937 43.7582601,52.441937 C39.5113812,52.441937 36.0682013,55.9181268 36.0682013,60.205299 C36.0682013,64.410743 39.380121,67.8354972 43.5141524,67.9656633 L43.7582601,67.9695011 L68.5227126,67.9695011 C72.100305,67.9695011 75.0002636,65.0405025 75.0002636,61.4286674 C75.0002636,58.3641979 72.8948829,55.7402534 69.9894668,55.0608777 L69.7521652,55.0100842 L68.6801057,54.8016283 L68.5469691,53.7069283 C67.8682983,48.126639 63.1643395,43.8884403 57.5510565,43.8884403 Z M40.1423271,32.5786837 L40.1804455,32.6434778 C41.23552,34.4919912 41.8154087,36.611346 41.8154087,38.8240387 C41.8154087,45.6871153 36.290101,51.2490969 29.4776676,51.2490969 C29.0792816,51.2490969 28.6834465,51.2298871 28.2911586,51.191906 L27.90009,51.1476841 L27.7944123,51.1324079 L27.9222658,51.2830209 C29.5846269,53.1985262 31.8454528,54.5361132 34.3710766,55.039606 C36.1849094,51.6853898 39.7089022,49.4114381 43.7582601,49.4114381 L43.9750416,49.4136437 L43.9750416,49.4136437 L44.1913585,49.4202496 L44.6199336,49.4464404 L44.7644475,49.1213125 C45.5755603,47.3474535 46.7289181,45.785358 48.1310907,44.5104812 C48.1532339,44.2247713 48.1639125,43.9356614 48.1639125,43.6440452 C48.1639125,38.6164759 44.9906308,34.3343938 40.5481058,32.7170138 L40.2688125,32.6194146 L40.1423271,32.5786837 Z" fill="url(#linearGradient-1)" fill-rule="nonzero"></path>
            </g>
        </g>
    </g>
</svg>