<?xml version="1.0" encoding="UTF-8"?>
<svg width="12px" height="12px" viewBox="0 0 12 12" version="1.1" xmlns="http://www.w3.org/2000/svg" xmlns:xlink="http://www.w3.org/1999/xlink">
    <!-- Generator: Sketch 60 (88103) - https://sketch.com -->
    <title>离线</title>
    <desc>Created with Sketch.</desc>
    <g id="页面-1" stroke="none" stroke-width="1" fill="none" fill-rule="evenodd">
        <g id="画板" transform="translate(-238.000000, -184.000000)" fill="#CDD8F7">
            <path d="M244,184 C247.313708,184 250,186.686292 250,190 C250,193.313708 247.313708,196 244,196 C240.686292,196 238,193.313708 238,190 C238,186.686292 240.686292,184 244,184 Z M242.787817,187.575634 C242.453082,187.240899 241.910369,187.240899 241.575634,187.575634 C241.266648,187.88462 241.242879,188.370818 241.504329,188.707068 L241.575634,188.787817 L242.787817,190 L241.575634,191.212183 C241.240899,191.546918 241.240899,192.089631 241.575634,192.424366 C241.88462,192.733352 242.370818,192.757121 242.707068,192.495671 L242.787817,192.424366 L244,191.212183 L245.212183,192.424366 C245.546918,192.759101 246.089631,192.759101 246.424366,192.424366 C246.733352,192.11538 246.757121,191.629182 246.495671,191.292932 L246.424366,191.212183 L245.212183,190 L246.424366,188.787817 C246.759101,188.453082 246.759101,187.910369 246.424366,187.575634 C246.11538,187.266648 245.629182,187.242879 245.292932,187.504329 L245.212183,187.575634 L244,188.787817 L242.787817,187.575634 Z" id="离线"></path>
        </g>
    </g>
</svg>