<?xml version="1.0" encoding="UTF-8"?>
<svg width="25px" height="23px" viewBox="0 0 25 23" version="1.1" xmlns="http://www.w3.org/2000/svg" xmlns:xlink="http://www.w3.org/1999/xlink">
    <!-- Generator: Sketch 60 (88103) - https://sketch.com -->
    <title>在现场区</title>
    <desc>Created with Sketch.</desc>
    <g id="环控数据报表" stroke="none" stroke-width="1" fill="none" fill-rule="evenodd">
        <g id="设备在线状况备份-2" transform="translate(-431.000000, -181.000000)" fill="#FFFFFF" fill-rule="nonzero">
            <g id="编组-33" transform="translate(279.000000, 143.000000)">
                <g id="编组-12" transform="translate(139.000000, 24.000000)">
                    <path d="M26.9556858,14 C27.8353321,14 28.5663806,14.6769459 28.6493425,15.5380088 L28.6571812,15.7014954 L28.6571812,19.9565653 L32.9122511,19.9565653 C33.7918974,19.9565653 34.5229459,20.6335111 34.6059078,21.4945741 L34.6137465,21.6580607 L34.6138794,26.6518361 C34.1251433,26.1804794 33.5493595,25.7987748 32.9130073,25.5332017 L32.9122511,21.6580607 L28.6571812,21.6580607 L28.6571783,25.5425823 C28.0195715,25.8120038 27.4433578,26.1982254 26.9553528,26.6744314 L26.9556858,15.5816718 L17.5961297,15.5816718 L17.5961297,34.4206075 L26.8293537,34.4207984 C27.8301749,35.4626598 29.2374914,36.1111111 30.7962618,36.1111111 C32.3550322,36.1111111 33.7623487,35.4626598 34.7631699,34.4207984 L36.6563017,34.4206075 C37.1249452,34.4206075 37.5057181,34.8040431 37.5057181,35.2726866 C37.5057181,35.7022765 37.1835257,36.060268 36.7688521,36.11695 L36.653639,36.1247657 L13.8520791,36.1247657 C13.3834356,36.1247657 13,35.7413301 13,35.2726866 C13,34.8430967 13.3221924,34.4851052 13.736866,34.4284232 L13.8520791,34.4206075 L15.8946343,34.4206075 L15.8946343,15.7014954 C15.8946343,14.8218491 16.5739389,14.0908006 17.4330594,14.0078387 L17.5961297,14 L26.9556858,14 Z M30.7962618,26.1111111 C33.2815432,26.1111111 35.2962618,28.1258297 35.2962618,30.6111111 C35.2962618,33.0963925 33.2815432,35.1111111 30.7962618,35.1111111 C28.3109804,35.1111111 26.2962618,33.0963925 26.2962618,30.6111111 C26.2962618,28.1258297 28.3109804,26.1111111 30.7962618,26.1111111 Z M33.2711355,28.5504509 L30.0892618,31.7321111 L28.3213881,29.9646645 L27.6142813,30.6717713 L30.089155,33.146645 L33.9782423,29.2575577 L33.2711355,28.5504509 Z M24.4047741,29.3134586 C24.8734176,29.3134586 25.2568532,29.6968942 25.2568532,30.1655377 C25.2568532,30.5951275 24.9346608,30.9531191 24.5199872,31.0098011 L24.4047741,31.0176167 L20.1497042,31.0176167 C19.6810607,31.0176167 19.2976251,30.6341812 19.2976251,30.1655377 C19.2976251,29.7359478 19.6198175,29.3779562 20.0344911,29.3212742 L20.1497042,29.3134586 L24.4047741,29.3134586 Z M24.4047741,24.2089724 C24.8734176,24.2089724 25.2568532,24.592408 25.2568532,25.0610515 C25.2568532,25.4906413 24.9346608,25.8486329 24.5199872,25.9053149 L24.4047741,25.9131305 L20.1497042,25.9131305 C19.6810607,25.9131305 19.2976251,25.529695 19.2976251,25.0610515 C19.2976251,24.6314616 19.6198175,24.27347 20.0344911,24.216788 L20.1497042,24.2089724 L24.4047741,24.2089724 Z M24.4047741,19.1044862 C24.8734176,19.1044862 25.2568532,19.4879218 25.2568532,19.9565653 C25.2568532,20.3861551 24.9346608,20.7441467 24.5199872,20.8008287 L24.4047741,20.8086443 L20.1497042,20.8086443 C19.6810607,20.8086443 19.3002879,20.4252088 19.2976251,19.9565653 C19.2976251,19.5269754 19.6198175,19.1689838 20.0344911,19.1123019 L20.1497042,19.1044862 L24.4047741,19.1044862 Z" id="在现场区"></path>
                </g>
            </g>
        </g>
    </g>
</svg>