<?xml version="1.0" encoding="UTF-8"?>
<svg width="12px" height="12px" viewBox="0 0 12 12" version="1.1" xmlns="http://www.w3.org/2000/svg" xmlns:xlink="http://www.w3.org/1999/xlink">
    <!-- Generator: Sketch 60 (88103) - https://sketch.com -->
    <title>在线</title>
    <desc>Created with Sketch.</desc>
    <g id="页面-1" stroke="none" stroke-width="1" fill="none" fill-rule="evenodd">
        <g id="画板" transform="translate(-152.000000, -184.000000)" fill="#19EBA4">
            <path d="M158,184 C161.313708,184 164,186.686292 164,190 C164,193.313708 161.313708,196 158,196 C154.686292,196 152,193.313708 152,190 C152,186.686292 154.686292,184 158,184 Z M159.904522,188.673834 L157.340912,190.810176 L156.28033,189.749594 C155.987437,189.456701 155.512563,189.456701 155.21967,189.749594 C154.926777,190.042488 154.926777,190.517361 155.21967,190.810255 L156.764557,192.355141 C157.038845,192.62943 157.47703,192.649306 157.775025,192.400977 L160.864799,189.826166 C161.183006,189.560993 161.225999,189.088069 160.960826,188.769862 C160.695653,188.451654 160.22273,188.408661 159.904522,188.673834 Z" id="在线"></path>
        </g>
    </g>
</svg>