<?xml version="1.0" encoding="UTF-8"?>
<svg width="26px" height="26px" viewBox="0 0 26 26" version="1.1" xmlns="http://www.w3.org/2000/svg" xmlns:xlink="http://www.w3.org/1999/xlink">
    <!-- Generator: Sketch 60 (88103) - https://sketch.com -->
    <title>形状结合</title>
    <desc>Created with Sketch.</desc>
    <g id="环控数据报表" stroke="none" stroke-width="1" fill="none" fill-rule="evenodd">
        <g id="设备在线状况备份-2" transform="translate(-1652.000000, -179.000000)" fill="#FFFFFF" fill-rule="nonzero">
            <g id="编组-44" transform="translate(1509.000000, 143.000000)">
                <g id="编组-39" transform="translate(131.000000, 24.000000)">
                    <g id="编组-31">
                        <path d="M23.3072817,13.4729153 C23.6918582,13.4729153 24.028369,13.5709832 24.3168142,13.8099936 L24.4374908,13.9211808 C24.8142272,14.2413876 25.0025954,14.6256237 25.0025954,15.0738893 L25.0025954,24.7438526 L34.5465931,24.7438526 C34.937274,24.7438526 35.3279548,24.8956496 35.5863593,25.1542526 L35.6768022,25.2561474 C35.9907296,25.5763542 36.1163182,26.0246197 36.1163182,26.4729153 C35.6768022,33.00493 30.4024931,38 24.0607545,38 L23.7467977,38 C17.4050885,37.8078819 12.193559,32.4926051 12.0051908,26.0886791 C11.8197206,19.5310388 16.6257673,14.0288375 23.0070198,13.4943175 L23.3072817,13.4729153 Z M23.002,15.504 L22.8772037,15.5167142 C17.7195417,16.1046546 13.8513165,20.6198943 14.0043261,26.0298756 C14.1593045,31.2986547 18.3877461,35.6849748 23.4735424,35.9877069 L23.7467977,36 L24.0607545,36 C29.1730525,36 33.4431664,32.0999277 34.067337,26.9098304 L34.085,26.743 L23.0025954,26.7438526 L23.002,15.504 Z M28.5188113,12 C33.353575,12.3842362 37.6232636,16.6748933 38,21.4778452 C38,21.8620814 37.8744114,22.1822582 37.6860432,22.502465 C37.4348955,22.7586124 37.0581591,22.9507305 36.6814227,22.9507305 L28.5188113,22.9507305 C27.7653385,22.9507305 27.0746454,22.3103469 27.0746454,21.4778452 L27.0746454,13.3448266 C27.0746454,13.0086199 27.1707992,12.7214587 27.4051444,12.4833028 L27.5141613,12.3842362 C27.7339414,12.1601072 28.0498527,12.0340231 28.3777804,12.0060041 L28.5188113,12 Z M29.074,14.087 L29.074,20.95 L35.917,20.95 L35.9102246,20.9053784 C35.317998,17.6967454 32.5493213,14.8564301 29.3519898,14.1436797 L29.074,14.087 Z" id="形状结合"></path>
                    </g>
                </g>
            </g>
        </g>
    </g>
</svg>