<?xml version="1.0" encoding="UTF-8"?>
<svg width="28px" height="25px" viewBox="0 0 28 25" version="1.1" xmlns="http://www.w3.org/2000/svg" xmlns:xlink="http://www.w3.org/1999/xlink">
    <!-- Generator: Sketch 60 (88103) - https://sketch.com -->
    <title>形状</title>
    <desc>Created with Sketch.</desc>
    <g id="环控数据报表" stroke="none" stroke-width="1" fill="none" fill-rule="evenodd">
        <path d="M25.0403721,0.75 C26.1467153,0.75 27.0572593,1.61244214 27.1343457,2.69966793 L27.1396315,2.84925939 L27.1396315,16.4104949 C27.1396315,17.5187358 26.2780609,18.4275472 25.1900773,18.5044793 L25.0403721,18.5097543 L14.793,18.509 L14.7934132,21.3203018 C17.1887033,21.3742838 19.5767385,21.6694641 21.8973379,22.2060074 L22.4945219,22.3497921 L22.5984652,22.3825144 C23.0004371,22.5372935 23.2321231,22.970902 23.1255642,23.4009432 C23.0102071,23.8664915 22.5401425,24.1480207 22.0736962,24.0324404 C16.7871209,22.7093394 11.0992903,22.7161367 5.79927352,24.0570663 C5.72774542,24.0689877 5.66705666,24.0751445 5.60553649,24.0751445 C5.21160147,24.0751445 4.86492747,23.8091204 4.76764536,23.4240275 C4.6477819,22.9611066 4.93140288,22.4862661 5.3945941,22.3704691 C7.89059751,21.7398299 10.4710703,21.3907135 13.0600227,21.3233281 L13.06,18.509 L2.84925939,18.5097543 C1.7429162,18.5097543 0.832372185,17.6473122 0.75528583,16.5600864 L0.75,16.4104949 L0.75,2.84925939 C0.75,1.7429162 1.61244214,0.832372185 2.69966793,0.75528583 L2.84925939,0.75 L25.0403721,0.75 Z M25.406,15.016 L2.482,15.016 L2.4828396,16.4104949 C2.4828396,16.5876189 2.6083963,16.7353161 2.775396,16.7694728 L2.84925939,16.7769147 L25.0403721,16.7769147 C25.2174961,16.7769147 25.3651933,16.651358 25.39935,16.4843583 L25.4067919,16.4104949 L25.406,15.016 Z M25.0403721,2.4828396 L2.84925939,2.4828396 C2.67213545,2.4828396 2.52443825,2.6083963 2.49028151,2.775396 L2.4828396,2.84925939 L2.482,13.283 L25.406,13.283 L25.4067919,2.84925939 C25.4067919,2.64683203 25.2427995,2.4828396 25.0403721,2.4828396 Z M14,5 C15.6568542,5 17,6.34314575 17,8 C17,9.65685425 15.6568542,11 14,11 C12.3431458,11 11,9.65685425 11,8 C11,6.34314575 12.3431458,5 14,5 Z M15.6499158,6.62622655 L13.5286667,8.74733333 L12.3500842,7.56903559 L11.8786797,8.04044011 L13.5285955,9.69035594 L16.1213203,7.09763107 L15.6499158,6.62622655 Z" id="形状" fill="#FFFFFF" fill-rule="nonzero"></path>
    </g>
</svg>