<?xml version="1.0" encoding="UTF-8"?>
<svg width="100px" height="100px" viewBox="0 0 100 100" version="1.1" xmlns="http://www.w3.org/2000/svg" xmlns:xlink="http://www.w3.org/1999/xlink">
    <title>阴转中雨@3x</title>
    <defs>
        <linearGradient x1="50%" y1="0%" x2="50%" y2="100%" id="linearGradient-1">
            <stop stop-color="#D6F1FF" offset="0%"></stop>
            <stop stop-color="#7DD4E4" offset="100%"></stop>
        </linearGradient>
    </defs>
    <g id="页面-1" stroke="none" stroke-width="1" fill="none" fill-rule="evenodd">
        <g id="天气icon" transform="translate(-803.000000, -400.000000)">
            <g id="阴转中雨" transform="translate(803.000000, 400.000000)">
                <rect id="矩形备份-17" opacity="0.100000001" x="0" y="0" width="100" height="100" rx="10"></rect>
                <path d="M77.2670845,36.0090565 L77.3762482,36.0210449 L77.4819015,36.0366974 C78.6170988,36.2282192 78.9452192,37.0802044 79.3946862,39.8359125 L79.6130386,41.2450444 L79.6964038,41.8407498 C79.9468939,43.7128656 80.0659563,45.4229901 79.9629405,46.2218756 C79.6678403,48.5228492 77.7495397,50.2499378 75.5805293,49.9702633 C73.411726,49.6913844 71.9933663,47.5351845 72.2892077,45.2347 C72.3917472,44.4370671 72.9371496,42.8192766 73.6503385,41.0772603 L73.7707097,40.7858933 L74.0069617,40.2285226 L74.4604368,39.1887258 C75.5889954,36.6463439 76.1221809,35.9071511 77.2670845,36.0090565 Z M76.7556447,40.8266614 L76.5400769,41.3205163 C75.7602313,43.1302891 75.1000035,45.0035694 75.0250505,45.5866132 C74.9127082,46.4601951 75.3744302,47.162108 75.9327275,47.2338976 C76.4909467,47.305875 77.1149986,46.7440272 77.2271057,45.869902 C77.282626,45.4393422 77.2072232,44.2457759 77.0444191,42.8655847 L76.9503024,42.1206272 L76.8412897,41.359804 L76.7556447,40.8266614 Z M70.233394,29.0090565 L70.3425577,29.0210449 L70.4482111,29.0366974 C71.5834083,29.2282192 71.9115287,30.0802044 72.3609958,32.8359125 L72.5793481,34.2450444 L72.6627133,34.8407498 C72.9132035,36.7128656 73.0322659,38.4229901 72.92925,39.2218756 C72.6341498,41.5228492 70.7158492,43.2499378 68.5468388,42.9702633 C66.3780356,42.6913844 64.9596759,40.5351845 65.2555173,38.2347 C65.3580567,37.4370671 65.9034591,35.8192766 66.616648,34.0772603 L66.7370193,33.7858933 L66.9732712,33.2285226 L67.4267464,32.1887258 C68.5553049,29.6463439 69.0884904,28.9071511 70.233394,29.0090565 Z M69.7219542,33.8266614 L69.5063864,34.3205163 C68.7265408,36.1302891 68.066313,38.0035694 67.99136,38.5866132 C67.8790177,39.4601951 68.3407397,40.162108 68.8990371,40.2338976 C69.4572563,40.305875 70.0813082,39.7440272 70.1934152,38.869902 C70.2489355,38.4393422 70.1735327,37.2457759 70.0107286,35.8655847 L69.9166119,35.1206272 L69.8075992,34.359804 L69.7219542,33.8266614 Z M40.5936894,29 C45.1725645,29 49.1850019,31.8327467 51.1734937,36.0275217 L51.2693055,36.0221492 L51.5999601,36.0106601 L51.9320791,36.0068148 C59.1448437,36.0068148 65.2697876,41.4193133 66.8381357,48.8046856 L66.907273,49.1469373 L66.9598718,49.4381303 L67.2873931,49.5493395 C71.2119831,50.960721 74.0177104,54.8404909 74.2449945,59.3910947 L74.2563109,59.6954424 L74.2598978,59.9891256 C74.2598978,65.9741007 69.8320405,70.8432219 64.3154055,70.9962892 L64.0476358,71 L36.6991002,71 C30.3201065,71 25.1484169,65.4247408 25.1484169,58.5476732 C25.1484169,57.5645574 25.2540824,56.6080387 25.4538356,55.6906002 C22.2427696,54.1667663 20,50.6760737 20,46.6188274 C20,41.1597924 24.0593413,36.7261509 29.0754709,36.7261509 L29.2590262,36.72817 L29.4422417,36.7342155 L29.6963871,36.7503807 L29.8059277,36.4868482 C31.651301,32.1847747 35.5460211,29.2577135 39.996544,29.0161758 L40.3008325,29.0038841 L40.5936894,29 Z M51.9320791,39.0272281 C46.5957461,39.0272281 41.9109659,42.670019 40.155784,47.9928769 L40.0595782,48.2959518 L39.6706884,49.5700503 L38.4513566,49.3040736 C37.8747035,49.1782864 37.2891298,49.1141246 36.6991002,49.1141246 C31.8672251,49.1141246 27.9497614,53.3379391 27.9497614,58.5476732 C27.9497614,63.6651248 31.7309027,67.831105 36.4456477,67.9757047 L36.6991002,67.9795867 L64.0476358,67.9795867 C68.1409147,67.9795867 71.4585533,64.4025043 71.4585533,59.9891256 C71.4585533,56.2308718 69.0323775,53.0151503 65.6906107,52.2009854 L65.4559977,52.148103 L64.4545769,51.940493 L64.3302494,50.8491836 C63.5647752,44.1300796 58.2602332,39.0272281 51.9320791,39.0272281 Z M40.5936894,32.0204133 C36.7236634,32.0204133 33.3199861,34.6899953 32.0274059,38.6027557 L31.942566,38.8714445 L31.5557247,40.1552949 L30.3292213,39.8842784 C29.916416,39.7930621 29.4974942,39.7465643 29.0754709,39.7465643 C25.614632,39.7465643 22.8013445,42.8192569 22.8013445,46.6188274 C22.8013445,49.3790863 24.2865758,51.7556702 26.4263281,52.8488637 C28.3448734,48.8367374 32.2250245,46.0937112 36.6991002,46.0937112 C36.9065617,46.0937112 37.1135691,46.0997233 37.3199889,46.1116771 L37.6291613,46.1340553 L37.812816,46.1539342 L37.8581179,46.0370717 C39.7396013,41.2775007 43.5848562,37.7559598 48.1966702,36.5044711 C46.5613304,33.7906347 43.7509734,32.0204133 40.5936894,32.0204133 Z" id="多云" fill="url(#linearGradient-1)" fill-rule="nonzero"></path>
            </g>
        </g>
    </g>
</svg>