<?xml version="1.0" encoding="UTF-8"?>
<svg width="100px" height="100px" viewBox="0 0 100 100" version="1.1" xmlns="http://www.w3.org/2000/svg" xmlns:xlink="http://www.w3.org/1999/xlink">
    <title>阴转暴雨@3x</title>
    <defs>
        <linearGradient x1="50%" y1="0%" x2="50%" y2="100%" id="linearGradient-1">
            <stop stop-color="#D6F1FF" offset="0%"></stop>
            <stop stop-color="#7DD4E4" offset="100%"></stop>
        </linearGradient>
    </defs>
    <g id="页面-1" stroke="none" stroke-width="1" fill="none" fill-rule="evenodd">
        <g id="天气icon" transform="translate(-1103.000000, -400.000000)">
            <g id="阴转暴雨" transform="translate(1103.000000, 400.000000)">
                <rect id="矩形备份-17" opacity="0.100000001" x="0" y="0" width="100" height="100" rx="10"></rect>
                <path d="M76.2625664,39.0090565 L76.3717215,39.0210449 L76.4773665,39.0366974 C77.6124742,39.2282192 77.9405687,40.0802044 78.3900003,42.8359125 L78.6083355,44.2450444 L78.6916941,44.8407498 C78.9421645,46.7128656 79.0612175,48.4229901 78.9582098,49.2218756 C78.6631328,51.5228492 76.7449836,53.2499378 74.5761443,52.9702633 C72.4075122,52.6913844 70.9892644,50.5351845 71.2850824,48.2347 C71.3876138,47.4370671 71.9329732,45.8192766 72.6461058,44.0772603 L72.7664675,43.7858933 L73.0027009,43.2285226 L73.4561402,42.1887258 C74.5846097,39.6463439 75.1177531,38.9071511 76.2625664,39.0090565 Z M75.751167,43.8266614 L75.5356162,44.3205163 C74.7558321,46.1302891 74.0956564,48.0035694 74.0207093,48.5866132 C73.9083759,49.4601951 74.3700615,50.162108 74.9283148,50.2338976 C75.4864899,50.305875 76.1104926,49.7440272 76.2225908,48.869902 C76.2781067,48.4393422 76.2027099,47.2457759 76.0399186,45.8655847 L75.9458093,45.1206272 L75.8368052,44.359804 L75.751167,43.8266614 Z M69.2294309,31.0090565 L69.338586,31.0210449 L69.444231,31.0366974 C70.5793387,31.2282192 70.9074332,32.0802044 71.3568648,34.8359125 L71.5751999,36.2450444 L71.6585586,36.8407498 C71.909029,38.7128656 72.0280819,40.4229901 71.9250742,41.2218756 C71.6299973,43.5228492 69.711848,45.2499378 67.5430088,44.9702633 C65.3743766,44.6913844 63.9561288,42.5351845 64.2519469,40.2347 C64.3544782,39.4370671 64.8998376,37.8192766 65.6129702,36.0772603 L65.733332,35.7858933 L65.9695653,35.2285226 L66.4230047,34.1887258 C67.5514742,31.6463439 68.0846176,30.9071511 69.2294309,31.0090565 Z M68.7180314,35.8266614 L68.5024807,36.3205163 C67.7226966,38.1302891 67.0625209,40.0035694 66.9875738,40.5866132 C66.8752404,41.4601951 67.3369259,42.162108 67.8951792,42.2338976 C68.4533544,42.305875 69.0773571,41.7440272 69.1894552,40.869902 C69.2449711,40.4393422 69.1695743,39.2457759 69.0067831,37.8655847 L68.9126738,37.1206272 L68.8036697,36.359804 L68.7180314,35.8266614 Z M62.1962954,23.0090565 L62.3054504,23.0210449 L62.4110955,23.0366974 C63.5462031,23.2282192 63.8742977,24.0802044 64.3237293,26.8359125 L64.5420644,28.2450444 L64.625423,28.8407498 C64.8758934,30.7128656 64.9949464,32.4229901 64.8919387,33.2218756 C64.5968618,35.5228492 62.6787125,37.2499378 60.5098732,36.9702633 C58.3412411,36.6913844 56.9229933,34.5351845 57.2188113,32.2347 C57.3213427,31.4370671 57.8667021,29.8192766 58.5798347,28.0772603 L58.7001964,27.7858933 L58.9364298,27.2285226 L59.3898692,26.1887258 C60.5183386,23.6463439 61.0514821,22.9071511 62.1962954,23.0090565 Z M77.2673001,23.0090565 L77.3764552,23.0210449 L77.4821002,23.0366974 C78.6172079,23.2282192 78.9453024,24.0802044 79.394734,26.8359125 L79.6130691,28.2450444 L79.6964277,28.8407498 C79.9468981,30.7128656 80.0659511,32.4229901 79.9629434,33.2218756 C79.6678665,35.5228492 77.7497172,37.2499378 75.580878,36.9702633 C73.4122458,36.6913844 71.993998,34.5351845 72.2898161,32.2347 C72.3923474,31.4370671 72.9377068,29.8192766 73.6508394,28.0772603 L73.7712012,27.7858933 L74.0074345,27.2285226 L74.4608739,26.1887258 C75.5893434,23.6463439 76.1224868,22.9071511 77.2673001,23.0090565 Z M61.6848959,27.8266614 L61.4693451,28.3205163 C60.6895611,30.1302891 60.0293854,32.0035694 59.9544383,32.5866132 C59.8421048,33.4601951 60.3037904,34.162108 60.8620437,34.2338976 C61.4202189,34.305875 62.0442215,33.7440272 62.1563197,32.869902 C62.2118356,32.4393422 62.1364388,31.2457759 61.9736476,29.8655847 L61.8795382,29.1206272 L61.7705341,28.359804 L61.6848959,27.8266614 Z M76.7559006,27.8266614 L76.5403498,28.3205163 C75.7605658,30.1302891 75.1003901,32.0035694 75.025443,32.5866132 C74.9131096,33.4601951 75.3747951,34.162108 75.9330484,34.2338976 C76.4912236,34.305875 77.1152263,33.7440272 77.2273244,32.869902 C77.2828403,32.4393422 77.2074435,31.2457759 77.0446523,29.8655847 L76.950543,29.1206272 L76.8415389,28.359804 L76.7559006,27.8266614 Z M39.5920647,29 C44.1705786,29 48.1826994,31.8327467 50.1710343,36.0275217 L50.2668385,36.0221492 L50.597467,36.0106601 L50.9295599,36.0068148 C58.1417554,36.0068148 64.266216,41.4193133 65.8344405,48.8046856 L65.9035723,49.1469373 L65.9561669,49.4381303 L66.2836624,49.5493395 C70.2079428,50.960721 73.0134487,54.8404909 73.2407149,59.3910947 L73.2520304,59.6954424 L73.255617,59.9891256 C73.255617,65.9741007 68.8281091,70.8432219 63.3119093,70.9962892 L63.0441607,71 L35.6977828,71 C29.3192923,71 24.1480108,65.4247408 24.1480108,58.5476732 C24.1480108,57.5645574 24.2536679,56.6080387 24.4534053,55.6906002 C21.2425927,54.1667663 19,50.6760737 19,46.6188274 C19,41.1597924 23.059021,36.7261509 28.0747549,36.7261509 L28.2582958,36.72817 L28.4414968,36.7342155 L28.6956221,36.7503807 L28.8051541,36.4868482 C30.6503818,32.1847747 34.5447946,29.2577135 38.9949664,29.0161758 L39.2992308,29.0038841 L39.5920647,29 Z M50.9295599,39.0272281 C45.5936479,39.0272281 40.9092373,42.670019 39.1541938,47.9928769 L39.0579956,48.2959518 L38.6691365,49.5700503 L37.4499008,49.3040736 C36.8732933,49.1782864 36.2877658,49.1141246 35.6977828,49.1141246 C30.8662889,49.1141246 26.9491343,53.3379391 26.9491343,58.5476732 C26.9491343,63.6651248 30.7299772,67.831105 35.4443503,67.9757047 L35.6977828,67.9795867 L63.0441607,67.9795867 C67.1371166,67.9795867 70.4544935,64.4025043 70.4544935,59.9891256 C70.4544935,56.2308718 68.0285091,53.0151503 64.687006,52.2009854 L64.4524114,52.148103 L63.4510697,51.940493 L63.326752,50.8491836 C62.5613382,44.1300796 57.2572147,39.0272281 50.9295599,39.0272281 Z M39.5920647,32.0204133 C35.722344,32.0204133 32.3189352,34.6899953 31.026457,38.6027557 L30.9416238,38.8714445 L30.554813,40.1552949 L29.3284064,39.8842784 C28.9156337,39.7930621 28.4967449,39.7465643 28.0747549,39.7465643 C24.6141891,39.7465643 21.8011235,42.8192569 21.8011235,46.6188274 C21.8011235,49.3790863 23.2862376,51.7556702 25.4258211,52.8488637 C27.3442151,48.8367374 31.22406,46.0937112 35.6977828,46.0937112 C35.9052279,46.0937112 36.1122189,46.0997233 36.3186224,46.1116771 L36.6277704,46.1340553 L36.8114106,46.1539342 L36.856709,46.0370717 C38.7380439,41.2775007 42.5829954,37.7559598 47.1944457,36.5044711 C45.5592349,33.7906347 42.7490996,32.0204133 39.5920647,32.0204133 Z" id="多云" fill="url(#linearGradient-1)" fill-rule="nonzero"></path>
            </g>
        </g>
    </g>
</svg>