<?xml version="1.0" encoding="UTF-8"?>
<svg width="100px" height="100px" viewBox="0 0 100 100" version="1.1" xmlns="http://www.w3.org/2000/svg" xmlns:xlink="http://www.w3.org/1999/xlink">
    <title>阴天@3x</title>
    <defs>
        <linearGradient x1="50%" y1="0%" x2="50%" y2="100%" id="linearGradient-1">
            <stop stop-color="#D6F1FF" offset="0%"></stop>
            <stop stop-color="#7DD4E4" offset="100%"></stop>
        </linearGradient>
    </defs>
    <g id="页面-1" stroke="none" stroke-width="1" fill="none" fill-rule="evenodd">
        <g id="天气icon" transform="translate(-1253.000000, -400.000000)">
            <g id="阴天" transform="translate(1253.000000, 400.000000)">
                <rect id="矩形备份-17" opacity="0.100000001" x="0" y="0" width="100" height="100" rx="10"></rect>
                <path d="M44.4950484,27 C49.0519913,27 53.0452096,29.8327467 55.0241767,34.0275217 L55.1195296,34.0221492 L55.4486004,34.0106601 L55.7791286,34.0068148 C62.957345,34.0068148 69.0529512,39.4193133 70.6137872,46.8046856 L70.6825933,47.1469373 L70.7349402,47.4381303 L71.0608927,47.5493395 C74.9666845,48.960721 77.7589726,52.8404909 77.9851681,57.3910947 L77.9964303,57.6954424 L78,57.9891256 C78,63.9741007 73.5933516,68.8432219 68.1031405,68.9962892 L67.8366534,69 L40.6191137,69 C34.2706745,69 29.1237567,63.4247408 29.1237567,56.5476732 C29.1237567,55.5645574 29.228916,54.6080387 29.4277125,53.6906002 C26.2320271,52.1667663 24,48.6760737 24,44.6188274 C24,39.1597924 28.0398976,34.7261509 33.0320006,34.7261509 L33.2146767,34.72817 L33.3970146,34.7342155 L33.6499427,34.7503807 L33.7589586,34.4868482 C35.5954928,30.1847747 39.4715577,27.2577135 43.9007632,27.0161758 L44.2035941,27.0038841 L44.4950484,27 Z M55.7791286,37.0272281 C50.468356,37.0272281 45.8060153,40.670019 44.0592405,45.9928769 L43.9634954,46.2959518 L43.5764684,47.5700503 L42.362977,47.3040736 C41.7890861,47.1782864 41.2063171,47.1141246 40.6191137,47.1141246 C35.8103827,47.1141246 31.9116831,51.3379391 31.9116831,56.5476732 C31.9116831,61.6651248 35.6747133,65.831105 40.3668752,65.9757047 L40.6191137,65.9795867 L67.8366534,65.9795867 C71.910326,65.9795867 75.2120736,62.4025043 75.2120736,57.9891256 C75.2120736,54.2308718 72.7975188,51.0151503 69.4717587,50.2009854 L69.2382694,50.148103 L68.2416453,49.940493 L68.1179133,48.8491836 C67.3561057,42.1300796 62.0769717,37.0272281 55.7791286,37.0272281 Z M44.4950484,30.0204133 C40.6435592,30.0204133 37.2561851,32.6899953 35.9697962,36.6027557 L35.8853627,36.8714445 L35.5003743,38.1552949 L34.2797457,37.8842784 C33.8689177,37.7930621 33.4520025,37.7465643 33.0320006,37.7465643 C29.5877387,37.7465643 26.7879264,40.8192569 26.7879264,44.6188274 C26.7879264,47.3790863 28.2660437,49.7556702 30.3955468,50.8488637 C32.3049026,46.8367374 36.1664682,44.0937112 40.6191137,44.0937112 C40.8255815,44.0937112 41.0315973,44.0997233 41.2370284,44.1116771 L41.5447199,44.1340553 L41.7274949,44.1539342 L41.7725799,44.0370717 C43.6450512,39.2775007 47.4718878,35.7559598 52.0616119,34.5044711 C50.4341051,31.7906347 47.6372094,30.0204133 44.4950484,30.0204133 Z" id="多云" fill="url(#linearGradient-1)" fill-rule="nonzero"></path>
            </g>
        </g>
    </g>
</svg>