<?xml version="1.0" encoding="UTF-8"?>
<svg width="100px" height="100px" viewBox="0 0 100 100" version="1.1" xmlns="http://www.w3.org/2000/svg" xmlns:xlink="http://www.w3.org/1999/xlink">
    <title>阴转晴@3x</title>
    <defs>
        <linearGradient x1="50%" y1="0%" x2="50%" y2="100%" id="linearGradient-1">
            <stop stop-color="#D6F1FF" offset="0%"></stop>
            <stop stop-color="#7DD4E4" offset="100%"></stop>
        </linearGradient>
    </defs>
    <g id="页面-1" stroke="none" stroke-width="1" fill="none" fill-rule="evenodd">
        <g id="天气icon" transform="translate(-503.000000, -400.000000)">
            <g id="阴转晴" transform="translate(503.000000, 400.000000)">
                <rect id="矩形备份-17" opacity="0.100000001" x="0" y="0" width="100" height="100" rx="10"></rect>
                <path d="M43.4950484,29 C48.0519913,29 52.0452096,31.8327467 54.0241767,36.0275217 L54.1195296,36.0221492 L54.4486004,36.0106601 L54.7791286,36.0068148 C61.957345,36.0068148 68.0529512,41.4193133 69.6137872,48.8046856 L69.6825933,49.1469373 L69.7349402,49.4381303 L70.0608927,49.5493395 C73.9666845,50.960721 76.7589726,54.8404909 76.9851681,59.3910947 L76.9964303,59.6954424 L77,59.9891256 C77,65.9741007 72.5933516,70.8432219 67.1031405,70.9962892 L66.8366534,71 L39.6191137,71 C33.2706745,71 28.1237567,65.4247408 28.1237567,58.5476732 C28.1237567,57.5645574 28.228916,56.6080387 28.4277125,55.6906002 C25.2320271,54.1667663 23,50.6760737 23,46.6188274 C23,41.1597924 27.0398976,36.7261509 32.0320006,36.7261509 L32.2146767,36.72817 L32.3970146,36.7342155 L32.6499427,36.7503807 L32.7589586,36.4868482 C34.5954928,32.1847747 38.4715577,29.2577135 42.9007632,29.0161758 L43.2035941,29.0038841 L43.4950484,29 Z M75.3501175,47.5694605 L76.4142258,49.7512058 C76.7080712,50.3536781 76.4578796,51.0802872 75.8554073,51.3741326 C75.2529349,51.667978 74.5263259,51.4177864 74.2324805,50.8153141 L73.1683722,48.6335688 C72.8745268,48.0310965 73.1247184,47.3044874 73.7271907,47.010642 C74.329663,46.7167966 75.0562721,46.9669882 75.3501175,47.5694605 Z M66.70541,32.1004826 C70.7303665,32.1004826 73.9932385,35.3780175 73.9932385,39.4210617 C73.9932385,42.7595248 71.768514,45.5760407 68.7270275,46.4563196 C68.7357077,46.4818852 68.7152005,46.4784824 68.6687241,46.4491209 L68.5799346,46.3859858 L68.5799346,46.3859858 L68.3789909,46.2232119 L68.3789909,46.2232119 L68.1039763,45.9855242 L68.1039763,45.9855242 L67.5031398,45.4435943 L67.5031398,45.4435943 L66.7568871,44.7500016 L66.7568871,44.7500016 L65.5396341,43.5913312 L65.5396341,43.5913312 L64.7891016,42.8640521 L64.7891016,42.8640521 L63.837958,41.9291153 L63.837958,41.9291153 L62.6587791,40.7468937 L62.6587791,40.7468937 L61.8699348,39.9373389 L61.8699348,39.9373389 L61.2917351,39.3301009 L61.2917351,39.3301009 L60.6578519,38.6428588 L60.6578519,38.6428588 L60.2387548,38.1663306 L60.2387548,38.1663306 L59.9848795,37.8601918 L59.9848795,37.8601918 L59.8476669,37.6835502 L59.8476669,37.6835502 L59.7381087,37.5307623 L59.7381087,37.5307623 L59.6579397,37.4034509 L59.6579397,37.4034509 L59.608895,37.3032388 C59.5650227,37.1884099 59.6087751,37.1501728 59.7586588,37.2058362 C60.6911042,34.2461084 63.4488092,32.1004826 66.70541,32.1004826 Z M76.4527982,40.4012473 L78.8198122,40.9501713 C79.4734451,41.1017525 79.8809881,41.7568886 79.7300851,42.4134588 C79.5791821,43.070029 78.9269768,43.4794035 78.273344,43.3278223 L75.90633,42.7788983 C75.2526972,42.6273172 74.8451541,41.972181 74.9960571,41.3156108 C75.1469602,40.6590406 75.7991654,40.2496661 76.4527982,40.4012473 Z M66.70541,35.7607721 C64.8513913,35.7607721 63.3207718,37.1516313 63.0912289,38.9512788 C64.6675574,40.0494121 66.0243622,41.4446209 67.0797733,43.0605692 C68.9162342,42.874152 70.3493243,41.315717 70.3493243,39.4210617 C70.3493243,37.3995396 68.7178883,35.7607721 66.70541,35.7607721 Z M77.1400928,31.0389388 C77.5622573,31.5626114 77.481868,32.3309018 76.9605382,32.7549635 L75.0726361,34.2906267 C74.5513063,34.7146884 73.786453,34.6339379 73.3642885,34.1102653 C72.9421239,33.5865927 73.0225133,32.8183023 73.543843,32.3942406 L75.4317452,30.8585774 C75.953075,30.4345157 76.7179282,30.5152662 77.1400928,31.0389388 Z M57.9790748,30.8585774 L59.866977,32.3942406 C60.3883068,32.8183023 60.4686961,33.5865927 60.0465316,34.1102653 C59.624367,34.6339379 58.8595137,34.7146884 58.338184,34.2906267 L56.4502818,32.7549635 C55.928952,32.3309018 55.8485627,31.5626114 56.2707272,31.0389388 C56.6928918,30.5152662 57.457745,30.4345157 57.9790748,30.8585774 Z M66.70541,26 C67.3762361,26 67.9200481,26.5462558 67.9200481,27.2200965 L67.9200481,29.6602895 C67.9200481,30.3341302 67.3762361,30.8803861 66.70541,30.8803861 C66.0345839,30.8803861 65.4907719,30.3341302 65.4907719,29.6602895 L65.4907719,27.2200965 C65.4907719,26.5462558 66.0345839,26 66.70541,26 Z M54.7791286,39.0272281 C49.468356,39.0272281 44.8060153,42.670019 43.0592405,47.9928769 L42.9634954,48.2959518 L42.5764684,49.5700503 L41.362977,49.3040736 C40.7890861,49.1782864 40.2063171,49.1141246 39.6191137,49.1141246 C34.8103827,49.1141246 30.9116831,53.3379391 30.9116831,58.5476732 C30.9116831,63.6651248 34.6747133,67.831105 39.3668752,67.9757047 L39.6191137,67.9795867 L66.8366534,67.9795867 C70.910326,67.9795867 74.2120736,64.4025043 74.2120736,59.9891256 C74.2120736,56.2308718 71.7975188,53.0151503 68.4717587,52.2009854 L68.2382694,52.148103 L67.2416453,51.940493 L67.1179133,50.8491836 C66.3561057,44.1300796 61.0769717,39.0272281 54.7791286,39.0272281 Z M43.4950484,32.0204133 C39.6435592,32.0204133 36.2561851,34.6899953 34.9697962,38.6027557 L34.8853627,38.8714445 L34.5003743,40.1552949 L33.2797457,39.8842784 C32.8689177,39.7930621 32.4520025,39.7465643 32.0320006,39.7465643 C28.5877387,39.7465643 25.7879264,42.8192569 25.7879264,46.6188274 C25.7879264,49.3790863 27.2660437,51.7556702 29.3955468,52.8488637 C31.3049026,48.8367374 35.1664682,46.0937112 39.6191137,46.0937112 C39.8255815,46.0937112 40.0315973,46.0997233 40.2370284,46.1116771 L40.5447199,46.1340553 L40.7274949,46.1539342 L40.7725799,46.0370717 C42.6450512,41.2775007 46.4718878,37.7559598 51.0616119,36.5044711 C49.4341051,33.7906347 46.6372094,32.0204133 43.4950484,32.0204133 Z" id="多云备份" fill="url(#linearGradient-1)" fill-rule="nonzero"></path>
            </g>
        </g>
    </g>
</svg>