<?xml version="1.0" encoding="UTF-8"?>
<svg width="20px" height="20px" viewBox="0 0 20 20" version="1.1" xmlns="http://www.w3.org/2000/svg" xmlns:xlink="http://www.w3.org/1999/xlink">
    <!-- Generator: Sketch 60 (88103) - https://sketch.com -->
    <title>形状</title>
    <desc>Created with Sketch.</desc>
    <g id="页面-1" stroke="none" stroke-width="1" fill="none" fill-rule="evenodd">
        <g id="场区设备概览列表样式备份-16" transform="translate(-1449.000000, -340.000000)" fill="#20A4FC" fill-rule="nonzero">
            <path d="M1469,354.500245 L1469,358.999511 C1469,359.55164 1468.52808,360 1467.94693,360 L1450.05307,360 C1449.47192,360 1449,359.55164 1449,358.999511 L1449,354.500245 C1449,354.22418 1449.23493,354.000966 1449.5255,354.000966 L1450.57857,354.000966 C1450.86914,354.000966 1451.10407,354.22418 1451.10407,354.500245 L1451.10407,358.000979 L1466.89181,358.000979 L1466.89181,354.500245 C1466.89181,354.22418 1467.12674,354.000966 1467.41731,354.000966 L1468.47038,354.000966 C1468.76301,353.999021 1469,354.22418 1469,354.500245 Z M1460.05204,352.035242 L1464.70943,347.610377 C1464.91551,347.414586 1465.2473,347.414586 1465.45337,347.610377 L1466.19732,348.317181 C1466.4034,348.512971 1466.4034,348.828194 1466.19732,349.023984 L1459.49974,355.387176 C1459.29366,355.582966 1458.96188,355.582966 1458.7558,355.387176 L1452.05822,349.023984 C1451.85214,348.828194 1451.85214,348.512971 1452.05822,348.317181 L1452.80216,347.610377 C1453.00824,347.414586 1453.34003,347.414586 1453.54611,347.610377 L1457.94796,351.792462 L1457.94796,340.499266 C1457.94796,340.223201 1458.1829,340 1458.47347,340 L1459.52653,340 C1459.8171,340 1460.05204,340.223201 1460.05204,340.499266 L1460.05204,352.035242 Z" id="形状"></path>
        </g>
    </g>
</svg>