<?xml version="1.0" encoding="UTF-8"?>
<svg width="20px" height="20px" viewBox="0 0 20 20" version="1.1" xmlns="http://www.w3.org/2000/svg" xmlns:xlink="http://www.w3.org/1999/xlink">
    <!-- Generator: Sketch 60 (88103) - https://sketch.com -->
    <title>任务管理</title>
    <desc>Created with Sketch.</desc>
    <g id="基础配置管理" stroke="none" stroke-width="1">
        <path d="M19.25,0.75 L19.25,19.25 L0.75,19.25 L0.75,0.75 L19.25,0.75 Z M17.365,2.634 L2.634,2.634 L2.634,17.365 L17.365,17.365 L17.365,2.634 Z M6.53846154,10.4423077 C7.82358567,10.4423077 8.86538445,11.4841066 8.86538445,12.7695167 C8.86391531,14.0538738 7.82310458,15.0946845 6.53846154,15.0961539 C5.25333741,15.0961539 4.21153846,14.0543549 4.21153846,12.7692308 C4.21153846,11.4841066 5.25333741,10.4423077 6.53846154,10.4423077 Z M16.4807692,11.8269231 L16.4807692,13.7115385 L10.4423077,13.7115385 L10.4423077,11.8269231 L16.4807692,11.8269231 Z M6.53846154,12.3269231 C6.29418175,12.3269231 6.09615385,12.524951 6.09615385,12.7692308 C6.09615385,13.0135105 6.29418174,13.2115384 6.53846154,13.2115384 C6.78274132,13.2115384 6.98076922,13.0135106 6.98076922,12.7692308 C6.98076922,12.6519235 6.93416908,12.5394208 6.8512203,12.456472 C6.76827152,12.3735232 6.65576883,12.3269231 6.53846154,12.3269231 Z M8.16905313,5.15444206 L9.50180491,6.48719383 L6.12740835,9.86134873 L4.00780596,7.74200601 L5.34057719,6.40923481 L6.127,7.196 L8.16905313,5.15444206 Z M16.4807692,6.63461539 L16.4807692,8.51923078 L10.4423077,8.51923078 L10.4423077,6.63461539 L16.4807692,6.63461539 Z" id="任务管理"></path>
    </g>
</svg>