<?xml version="1.0" encoding="UTF-8"?>
<svg width="20px" height="17px" viewBox="0 0 20 17" version="1.1" xmlns="http://www.w3.org/2000/svg" xmlns:xlink="http://www.w3.org/1999/xlink">
    <!-- Generator: Sketch 60 (88103) - https://sketch.com -->
    <title>猪群健康分析</title>
    <desc>Created with Sketch.</desc>
    <g id="基础配置管理" stroke="none" stroke-width="1">
        <path d="M13.8051916,0 C16.855962,0 19.25,2.34169561 19.25,5.33170843 C19.25,8.12532686 17.9517185,9.86790661 12.8973337,14.4276923 L11.7587012,15.4470527 L10.5572392,16.4925691 C10.2703158,16.7414862 9.8571433,16.7663779 9.54464092,16.5669579 L9.44451326,16.4921764 L8.0473697,15.2742075 L7.11416537,14.4380646 L6.2258154,13.6300027 C1.89590245,9.65314967 0.75,7.9562683 0.75,5.33170843 C0.75,2.34208168 3.14584448,0 6.19701237,0 C7.58236558,0 8.91670952,0.489987186 9.96532594,1.37469279 L10.001,1.405 L10.0368781,1.37469279 C10.945679,0.607947933 12.069093,0.137680466 13.2543272,0.0259068277 L13.5288707,0.0065049347 L13.8051916,0 Z M8.212,7.502 L7.47216501,8.67587501 L3.642,8.675 L3.71466522,8.77448199 C4.60912639,9.983191 5.85227353,11.1826194 8.8066559,13.8200412 L9.10784872,14.0886303 L9.77145686,14.6695154 C9.88329037,14.7676254 10.0433705,14.7816411 10.1691189,14.7114485 L10.2287498,14.6693343 L10.8905062,14.090083 L12.0331128,13.0671339 L12.8369209,12.3382234 C14.5911069,10.7348563 15.5237219,9.78361195 16.222595,8.85769546 L16.388,8.632 L11.952933,8.62978443 L11.832,8.38 L11.0604152,9.93697143 C10.9237586,10.2273644 10.6542441,10.4213879 10.342438,10.4609191 L10.2237052,10.4683879 C9.90285714,10.4683879 9.61141101,10.3085249 9.44290052,10.0462226 L9.38565438,9.94316951 L8.212,7.502 Z M13.864,1.589 L13.6586359,1.59116604 C12.5580768,1.62518385 11.4979661,2.11630472 10.7019069,2.93754939 L10.5354458,3.11853703 L9.998898,3.73303688 L9.46208402,3.11823169 C8.65381644,2.18950248 7.51915002,1.62763902 6.33894283,1.59115923 C4.06961071,1.51904001 2.34331093,3.14290072 2.34537817,5.33170843 C2.34537817,5.87277657 2.45220939,6.41007816 2.66593167,6.95867365 L2.719,7.086 L6.59,7.086 L7.53449667,5.59352491 C7.68484081,5.35328783 7.93081554,5.20304344 8.20924624,5.17723725 L8.3303766,5.17389654 C8.63269939,5.18444345 8.90591886,5.3578696 9.06875527,5.61750925 L9.12448597,5.71876563 L10.22,8.002 L11.039705,6.34782781 C11.1659305,6.07772855 11.4245747,5.89238722 11.7264467,5.85254235 L11.8415008,5.8445393 C12.1402097,5.85779795 12.4047758,5.99946373 12.5616503,6.23447086 L12.6220744,6.34080074 L12.979,7.082 L17.282,7.082 L17.3356203,6.95408508 C17.5130965,6.49619173 17.6163039,6.04924825 17.6457765,5.60094907 L17.6546161,5.33170843 C17.6546161,3.27667963 16.1301653,1.71811291 14.0650417,1.59650118 L13.864,1.589 Z" id="猪群健康分析"></path>
    </g>
</svg>