<?xml version="1.0" encoding="UTF-8"?>
<svg width="60px" height="60px" viewBox="0 0 60 60" version="1.1" xmlns="http://www.w3.org/2000/svg" xmlns:xlink="http://www.w3.org/1999/xlink">
    <title>编组 8</title>
    <g id="除臭墙" stroke="none" stroke-width="1" fill="none" fill-rule="evenodd">
        <g id="设备运行状态备份" transform="translate(-1198.000000, -486.000000)">
            <g id="编组-15" transform="translate(639.000000, 184.000000)">
                <g id="编组-11" transform="translate(141.000000, 67.000000)">
                    <g id="编组-6备份-4" transform="translate(418.000000, 198.000000)">
                        <g id="编组-8" transform="translate(0.000000, 37.000000)">
                            <circle id="椭圆形" stroke="#FF3939" stroke-width="2" cx="30" cy="30" r="29"></circle>
                            <path d="M33.6231789,37 C35.2208973,37 36.8656074,39.7896288 37.7801385,39.7896288 C38.5699608,39.7896288 40.9629237,37.1803182 42.0166226,37.1803182 L42.0166226,37.1803182 C43.2040671,37.1785504 44.9337238,38.9976429 44.9915597,40.0883913 C45.0591793,41.1296051 44.7185706,42.1568878 44.0390738,42.9611078 L44.0390738,42.9611078 L43.5071273,42.9618888 C43.4640808,42.9619519 43.4185843,42.9620187 43.370698,42.9620889 L42.8768179,42.9628127 C42.8151334,42.9629031 42.7512394,42.9629967 42.685196,42.9630934 L42.2636235,42.9637105 C42.1892229,42.9638193 42.1127931,42.9639312 42.0343942,42.9640458 L41.5408529,42.9647675 C41.4548181,42.9648932 41.3669345,42.9650216 41.2772621,42.9651526 L40.7182438,42.965969 C35.5991366,42.9734411 25.7931337,42.9876667 20.2493098,42.9951389 L19.6403959,42.9959552 C19.3455238,42.9963482 19.0653897,42.996718 18.8016165,42.997062 L18.2963657,42.997715 C18.2159532,42.9978179 18.1374789,42.9979178 18.0610028,42.9980145 L17.4282926,42.9987979 C17.3643468,42.998875 17.3025795,42.9989487 17.2430509,42.999019 L16.2749625,42.9999872 L16.2749625,42.9999872 L16.223592,43 C15.4464213,43 15,41.3311727 15,40.2015321 C15,39.1832646 15.8350067,37.1308191 17.1688485,37.1308191 C18.8153659,37.1308191 19.5202417,39.7578079 20.5269489,39.7507366 C21.533656,39.7436653 23.5940621,37.1785504 25.1484035,37.1785504 C26.98831,37.1785504 27.9317591,40.0901591 29.1246257,40.0901591 C30.1891688,40.0901591 31.7796577,37 33.6231789,37 Z M27.499852,28.5862383 C27.499852,28.5862383 29.9996995,32.9383817 29.9996995,34.3776281 C29.9996995,35.8259241 28.8804796,37 27.499852,37 C26.1192243,37 25.0000044,35.8259241 25.0000044,34.3776281 C25.0000044,32.9383817 27.499852,28.5862383 27.499852,28.5862383 Z M41.9996966,16 C42.5521489,16 43.0000022,16.4698015 43.0000022,17.049331 L43.0000022,17.049331 L43.0000022,19.1518158 C42.9969928,19.7291048 42.5500213,20.1954214 41.9996966,20.1954128 L41.9996966,20.1954128 L30.0088098,20.1954128 L30.0088098,26.4952216 C30.0088098,27.0747511 29.5609587,27.5445527 29.0085063,27.5445527 L29.0085063,27.5445527 L26.0003079,27.5445527 C25.4478555,27.5445527 25.0000022,27.0747511 25.0000022,26.4952216 L25.0000022,26.4952216 L25.0000022,19.1518158 C24.9990374,18.3165851 25.3145268,17.5151881 25.8770174,16.9240528 C26.439508,16.3329176 27.2028857,16.0005065 27.9990927,16 L27.9990927,16 Z" id="形状结合" fill="#FF3939" fill-rule="nonzero"></path>
                        </g>
                    </g>
                </g>
            </g>
        </g>
    </g>
</svg>