<?xml version="1.0" encoding="UTF-8"?>
<svg width="40px" height="42px" viewBox="0 0 40 42" version="1.1" xmlns="http://www.w3.org/2000/svg" xmlns:xlink="http://www.w3.org/1999/xlink">
    <!-- Generator: Sketch 60 (88103) - https://sketch.com -->
    <title>已处理报警数</title>
    <desc>Created with Sketch.</desc>
    <g id="页面-1" stroke="none" stroke-width="1"  fill-rule="evenodd">
        <g id="编组-62备份" transform="translate(-226.000000, -95.000000)" fill="#1FFFA0" fill-rule="nonzero">
            <path d="M250.984101,132.351926 C250.984101,134.918986 248.883575,137 246.292446,137 C243.701317,137 241.600792,134.918986 241.600792,132.351926 L241.600792,132.351926 Z M247.940781,95 C248.887407,95 249.654799,95.7602637 249.654799,96.6980965 L249.654799,96.6980965 L249.654799,98.0842556 C255.559299,99.591929 259.68653,104.865921 259.689204,110.906743 L259.689204,110.906743 L259.689204,117.185259 C259.682085,120.431485 260.725304,123.59452 262.665798,126.21027 L262.665798,126.21027 L266,130.724583 L226,130.724583 L228.739926,127.352147 C231.477082,123.974827 232.971335,119.774516 232.97649,115.443264 L232.97649,115.443264 L232.97649,110.906743 C232.978821,104.926063 237.025614,99.6885981 242.852421,98.1250553 L242.852421,98.1250553 L242.852421,96.6980965 C242.852421,95.7602637 243.619813,95 244.566439,95 L244.566439,95 Z M246.33415,100.978457 C240.808424,100.978457 236.312777,105.432345 236.312777,110.906743 L236.312777,110.906743 L236.312777,115.44378 C236.30675,119.686097 235.084098,123.839388 232.78726,127.419802 L232.78726,127.419802 L259.454621,127.418253 C257.433062,124.381212 256.355511,120.823219 256.355523,117.185259 L256.355523,117.185259 L256.355523,110.906743 C256.355523,105.432345 251.859876,100.978457 246.33415,100.978457 Z M246,109 C249.865993,109 253,112.134007 253,116 C253,119.865993 249.865993,123 246,123 C242.134007,123 239,119.865993 239,116 C239,112.134007 242.134007,109 246,109 Z M248.221942,114.452806 L245.231064,116.945205 L243.993718,115.70786 C243.65201,115.366151 243.09799,115.366151 242.756282,115.70786 C242.414573,116.049569 242.414573,116.603588 242.756282,116.945297 L244.558649,118.747665 C244.878653,119.067668 245.389869,119.090857 245.737529,118.80114 L249.342265,115.797194 C249.713507,115.487825 249.763666,114.936081 249.454297,114.564839 C249.144929,114.193596 248.593185,114.143438 248.221942,114.452806 Z" id="已处理报警数"></path>
        </g>
    </g>
</svg>