<?xml version="1.0" encoding="UTF-8"?>
<svg width="60px" height="60px" viewBox="0 0 60 60" version="1.1" xmlns="http://www.w3.org/2000/svg" xmlns:xlink="http://www.w3.org/1999/xlink">
    <title>编组 8备份 2</title>
    <g id="除臭墙" stroke="none" stroke-width="1" fill="none" fill-rule="evenodd">
        <g id="设备运行状态备份" transform="translate(-780.000000, -486.000000)">
            <g id="编组-15" transform="translate(639.000000, 184.000000)">
                <g id="编组-11" transform="translate(141.000000, 67.000000)">
                    <g id="编组-6备份-2" transform="translate(0.000000, 198.000000)">
                        <g id="编组-8备份-2" transform="translate(0.000000, 37.000000)">
                            <circle id="椭圆形" stroke="#FF5656" stroke-width="2" cx="30" cy="30" r="29"></circle>
                            <g id="shuibeng" transform="translate(16.000000, 16.000000)" fill="#FF5656" fill-rule="nonzero">
                                <path d="M12.4444444,3.11111111 L1.55555556,3.11111111 C0.696445945,3.11111111 0,2.41466517 0,1.55555556 C0,0.696445945 0.696445945,0 1.55555556,0 L26.4444444,0 C27.3035541,0 28,0.696445945 28,1.55555556 L28,24.8888889 C28,26.6071081 26.6071081,28 24.8888889,28 L15.5555556,28 C13.8373363,28 12.4444444,26.6071081 12.4444444,24.8888889 L12.4444444,3.11111111 Z M15.5555556,3.11111111 L15.5555556,24.8888889 L24.8888889,24.8888889 L24.8888889,3.11111111 L15.5555556,3.11111111 Z M7.77777778,21.7777778 C6.91866817,21.7777778 6.22222222,21.0813318 6.22222222,20.2222222 L6.22222222,7.77777778 C6.22222222,6.91866817 6.91866817,6.22222222 7.77777778,6.22222222 C8.63688739,6.22222222 9.33333333,6.91866817 9.33333333,7.77777778 L9.33333333,20.2222222 C9.33333333,21.0813318 8.63688739,21.7777778 7.77777778,21.7777778 Z M7.77777778,28 C6.91866817,28 6.22222222,27.3035541 6.22222222,26.4444444 L6.22222222,24.8888889 C6.22222222,24.0297793 6.91866817,23.3333333 7.77777778,23.3333333 C8.63688739,23.3333333 9.33333333,24.0297793 9.33333333,24.8888889 L9.33333333,26.4444444 C9.33333333,27.3035541 8.63688739,28 7.77777778,28 Z M1.55555556,21.7777778 C0.696445945,21.7777778 0,21.0813318 0,20.2222222 L0,7.77777778 C0,6.91866817 0.696445945,6.22222222 1.55555556,6.22222222 C2.41466517,6.22222222 3.11111111,6.91866817 3.11111111,7.77777778 L3.11111111,20.2222222 C3.11111111,21.0813318 2.41466517,21.7777778 1.55555556,21.7777778 Z M1.55555556,28 C0.696445945,28 0,27.3035541 0,26.4444444 L0,24.8888889 C0,24.0297793 0.696445945,23.3333333 1.55555556,23.3333333 C2.41466517,23.3333333 3.11111111,24.0297793 3.11111111,24.8888889 L3.11111111,26.4444444 C3.11111111,27.3035541 2.41466517,28 1.55555556,28 Z M20.2222222,12.4444444 C19.3631126,12.4444444 18.6666667,11.7479985 18.6666667,10.8888889 L18.6666667,7.77777778 C18.6666667,6.91866817 19.3631126,6.22222222 20.2222222,6.22222222 C21.0813318,6.22222222 21.7777778,6.91866817 21.7777778,7.77777778 L21.7777778,10.8888889 C21.7777778,11.7479985 21.0813318,12.4444444 20.2222222,12.4444444 Z M20.2222222,21.7777778 C19.3631126,21.7777778 18.6666667,21.0813318 18.6666667,20.2222222 L18.6666667,17.1111111 C18.6666667,16.2520015 19.3631126,15.5555556 20.2222222,15.5555556 C21.0813318,15.5555556 21.7777778,16.2520015 21.7777778,17.1111111 L21.7777778,20.2222222 C21.7777778,21.0813318 21.0813318,21.7777778 20.2222222,21.7777778 Z" id="形状"></path>
                            </g>
                        </g>
                    </g>
                </g>
            </g>
        </g>
    </g>
</svg>