<?xml version="1.0" encoding="UTF-8"?>
<svg width="100px" height="100px" viewBox="0 0 100 100" version="1.1" xmlns="http://www.w3.org/2000/svg" xmlns:xlink="http://www.w3.org/1999/xlink">
    <title>雨夹雪@3x</title>
    <defs>
        <linearGradient x1="50%" y1="0%" x2="50%" y2="100%" id="linearGradient-1">
            <stop stop-color="#D6F1FF" offset="0%"></stop>
            <stop stop-color="#7DD4E4" offset="100%"></stop>
        </linearGradient>
    </defs>
    <g id="页面-1" stroke="none" stroke-width="1" fill="none" fill-rule="evenodd">
        <g id="天气icon" transform="translate(-803.000000, -199.000000)">
            <g id="雨夹雪" transform="translate(803.000000, 199.000000)">
                <rect id="矩形备份-7" opacity="0.100000001" x="0" y="0" width="100" height="100" rx="10"></rect>
                <path d="M39.1308616,57.132971 C39.4678653,56.8185946 39.871462,56.6108359 40.421472,56.6779698 L40.5909472,56.7065251 L40.7577113,56.7494711 C41.2336912,56.8952785 41.4964501,57.1911295 41.6969504,57.5646679 C41.7829642,57.7249146 41.8473924,57.8933919 41.9053939,58.0864466 C41.9709963,58.3048002 42.0312007,58.5682085 42.0888751,58.8795439 L42.172263,59.3730826 L42.2623741,60.00842 C42.3210346,60.4583321 42.3765798,60.9578651 42.4272801,61.4884975 L42.4916508,62.2097662 L42.5433671,62.8725742 C42.6786067,64.7336779 42.716109,66.4224394 42.6106405,67.1969054 C42.287761,69.5601982 40.5315706,71.3808197 38.4203543,70.9315252 C36.4265031,70.5068911 35.3367997,68.2369975 35.6499922,65.9458085 C35.7428788,65.2615156 36.1289931,63.9530198 36.6445568,62.4866818 L36.9681188,61.5916688 L37.1972045,60.9850023 L37.4764368,60.2739289 C37.7527047,59.5865435 38.0177732,58.9761605 38.250888,58.4962253 C38.4326832,58.1219466 38.5973823,57.8208399 38.7543444,57.5867345 C38.8706697,57.413238 38.9881244,57.2661244 39.1308616,57.132971 Z M58.465606,57.9810747 C59.2483649,57.9810747 59.8916343,58.5755746 59.9646046,59.3357301 L59.9714981,59.4800958 L59.970655,60.9151587 L61.5182438,59.9685232 C62.226552,59.53463 63.1541015,59.7544675 63.5899835,60.4595439 C64.0002254,61.1231452 63.8287297,61.9800672 63.2166131,62.4403249 L63.0967121,62.5218308 L61.3380051,63.5974072 L63.0967121,64.6754062 C63.8050204,65.1092994 64.0258655,66.0326167 63.5899835,66.7376931 C63.1797416,67.4012944 62.3339742,67.6350647 61.6453705,67.2985313 L61.5182438,67.2287138 L59.970655,66.2806549 L59.9714981,68.3055015 C59.9714981,69.133388 59.2972873,69.8045226 58.465606,69.8045226 C57.6828472,69.8045226 57.0395778,69.2100227 56.9666075,68.4498672 L56.9597139,68.3055015 L56.9588708,66.2806549 L55.4129683,67.2287138 C54.7046601,67.662607 53.7771106,67.4427695 53.3412286,66.7376931 C52.9309867,66.0740918 53.1024823,65.2171698 53.714599,64.7569121 L53.8345,64.6754062 L55.5915208,63.5984065 L53.8345,62.5218308 C53.1261917,62.0879376 52.9053466,61.1646203 53.3412286,60.4595439 C53.7514705,59.7959425 54.5972379,59.5621723 55.2858416,59.8987056 L55.4129683,59.9685232 L56.9588708,60.9151587 L56.9597139,59.4800958 C56.9597139,58.6522093 57.6339248,57.9810747 58.465606,57.9810747 Z M39.552766,63.2946049 L39.3629221,63.8383327 L39.1283462,64.5420572 C38.8623426,65.3642645 38.6776993,66.030137 38.6344644,66.3486445 C38.5668766,66.8430902 38.6364367,67.3228116 38.8039409,67.6717291 C38.9134501,67.8998409 39.0157608,67.9924397 39.0502352,67.9997818 L39.0480372,67.9974786 L39.0910731,67.9578589 L39.1707443,67.879677 C39.3840507,67.6585448 39.5612751,67.2690466 39.6262412,66.7935325 L39.6452286,66.5928222 C39.680916,66.0478333 39.6568119,64.9837611 39.5839163,63.7695589 L39.552766,63.2946049 Z M48.145874,53.1803696 C48.4673934,52.8566442 48.8550362,52.6352458 49.4013998,52.6746808 L49.5701631,52.6944948 L49.7402361,52.7293761 C50.2269329,52.8526043 50.5072371,53.1399569 50.7244699,53.506775 C50.8181316,53.6649316 50.8896155,53.8318515 50.9552042,54.0235235 C51.0473622,54.2928397 51.133004,54.6320424 51.2181951,55.0469612 L51.3162568,55.5595471 C51.3814224,55.9231883 51.4459097,56.3286225 51.5081559,56.7636002 L51.5543958,57.0951815 L51.6437683,57.786987 L51.7176393,58.414979 C51.9400385,60.3925273 52.0500176,62.2337532 51.9641911,63.0569417 C51.7206996,65.4156021 50.0339499,67.2975842 47.9181484,66.9618669 C45.8908995,66.6384441 44.7105021,64.4151984 44.9498703,62.1091559 C45.0304758,61.3322103 45.4624395,59.7396409 46.0289661,58.0176969 L46.1302941,57.7126212 L46.3402722,57.097764 L46.597024,56.3768242 C46.8515607,55.6795937 47.0973282,55.0595222 47.3152121,54.5708908 C47.4848591,54.1904363 47.6396861,53.8835838 47.7885434,53.6441687 C47.8982136,53.4677803 48.0096488,53.3175295 48.145874,53.1803696 Z M52.453146,29 C60.5052917,29 67.3234755,34.6694351 68.9092513,42.3465196 L68.9678584,42.6460888 L69.0388108,42.6668349 C73.6052052,44.0377257 76.8699316,48.1948544 76.9962045,53.0504692 L77,53.3426276 C77,59.4063048 72.1400412,64.3397779 66.0859099,64.4948683 L65.7920514,64.4986282 L65.7920514,61.5005859 C70.3187196,61.5005859 73.9882158,57.8482554 73.9882158,53.3426276 C73.9882158,49.5036126 71.3017466,46.2183321 67.60376,45.3891904 L67.3500768,45.3364864 L66.2735354,45.1304113 L66.139805,44.0472974 C65.2942806,37.1991926 59.4385662,31.9980422 52.453146,31.9980422 C46.5607214,31.9980422 41.3879296,35.7131645 39.4501141,41.1419448 L39.3458018,41.445294 L38.9272254,42.7102708 L37.6160146,42.4453992 C36.9822005,42.3173654 36.3347983,42.2520604 35.6797549,42.2520604 C30.3404684,42.2520604 26.0117842,46.5612104 26.0117842,51.8767277 C26.0117842,57.1004133 30.1923078,61.3517167 35.4044937,61.4967605 L35.6797549,61.5005859 L35.6797549,64.4986282 C28.6769509,64.4986282 23,58.8478636 23,51.8767277 C23,44.9054712 28.6770721,39.2540182 35.6797549,39.2540182 C36.0225988,39.2540182 36.3639899,39.267705 36.7033616,39.294861 L36.9295019,39.3172626 L36.9812604,39.1951738 C39.5373073,33.2059834 45.4093715,29.1444404 52.0942635,29.0037735 L52.453146,29 Z M48.7818767,59.2882211 L48.520658,60.1283114 L48.3188833,60.8189509 C48.1136595,61.5467061 47.9757317,62.127866 47.9457128,62.4172144 C47.8529282,63.3110889 48.2033306,63.971062 48.3934995,64.0014017 L48.4543156,63.9513961 C48.4766849,63.9306849 48.5056501,63.9016736 48.5419298,63.8611947 C48.752985,63.625711 48.9190078,63.2268357 48.9683408,62.7489624 C49.0027653,62.4187836 48.9792153,61.6800459 48.9118406,60.7578225 L48.8533135,60.0352682 L48.7818767,59.2882211 Z" fill="url(#linearGradient-1)" fill-rule="nonzero"></path>
            </g>
        </g>
    </g>
</svg>