<?xml version="1.0" encoding="UTF-8"?>
<svg width="100px" height="100px" viewBox="0 0 100 100" version="1.1" xmlns="http://www.w3.org/2000/svg" xmlns:xlink="http://www.w3.org/1999/xlink">
    <title>暴雨转阴@3x</title>
    <defs>
        <linearGradient x1="50%" y1="0%" x2="50%" y2="100%" id="linearGradient-1">
            <stop stop-color="#D6F1FF" offset="0%"></stop>
            <stop stop-color="#7DD4E4" offset="100%"></stop>
        </linearGradient>
    </defs>
    <g id="页面-1" stroke="none" stroke-width="1" fill="none" fill-rule="evenodd">
        <g id="天气icon" transform="translate(-503.000000, -936.000000)">
            <g id="暴雨转阴" transform="translate(503.000000, 936.000000)">
                <rect id="矩形备份-5" opacity="0.100000001" x="0" y="0" width="100" height="100" rx="10"></rect>
                <path d="M47.7002235,57.1743523 C48.0293756,56.8954872 48.4144212,56.7138336 48.9193655,56.7635737 L49.0922088,56.788908 L49.194547,56.8101478 C50.3921028,57.0769203 50.6405083,57.8165363 50.9682772,60.9361614 L51.0271519,61.5117776 L51.1155275,62.4207759 C51.3188311,64.6282882 51.3889802,66.72623 51.2526882,67.6327431 C50.8900722,70.0503112 48.9610963,71.8647717 46.7544205,71.437396 C44.6125489,71.0235661 43.3770361,68.6898965 43.7340037,66.3156124 C43.8499891,65.544163 44.3569444,64.0190243 45.0192887,62.3476297 L45.2591258,61.7526419 L45.6524786,60.8171191 C46.0322937,59.9373703 46.4001636,59.1557338 46.7164057,58.5648646 C46.9238104,58.1773479 47.1115578,57.865808 47.2891921,57.6252965 C47.4178891,57.4510447 47.5471752,57.3040183 47.7002235,57.1743523 Z M38.8721781,55.199667 C39.2013311,54.9208011 39.5863774,54.7391472 40.0913223,54.7888873 L40.2641657,54.8142216 L40.3664983,54.8354607 C41.5639896,55.1022296 41.8124755,55.8420236 42.1404557,58.9615058 L42.1993692,59.5370934 L42.2878082,60.4460786 C42.4912803,62.6537301 42.561548,64.7516876 42.4251774,65.658724 C42.0617376,68.0760565 40.1329262,69.8903622 37.9270665,69.4629437 C35.7848703,69.0492453 34.5496558,66.716139 34.9058967,64.3410736 C35.0423522,63.4334728 35.719952,61.4826832 36.555085,59.4778286 L36.824404,58.842489 C37.0522969,58.3146307 37.2758895,57.8220934 37.4866101,57.384891 L37.6421032,57.0676773 L37.888349,56.5901963 C38.0957569,56.2026737 38.283507,55.8911293 38.4611436,55.6506147 C38.5898417,55.4763613 38.719129,55.3293337 38.8721781,55.199667 Z M49.0270848,40.9189736 C49.3562377,40.6401077 49.7412841,40.4584538 50.246229,40.508194 L50.4190724,40.5335282 L50.521405,40.5547673 C51.7188963,40.8215363 51.9673821,41.5613302 52.2953624,44.6808124 L52.3542759,45.2564 L52.4427149,46.1653853 C52.646187,48.3730367 52.7164547,50.4709942 52.5800841,51.3780306 C52.2166443,53.7953631 50.2878329,55.6096688 48.0819732,55.1822503 C45.939777,54.7685519 44.7045624,52.4354456 45.0608034,50.0603802 C45.1972589,49.1527794 45.8748587,47.2019898 46.7099917,45.1971352 L46.9793106,44.5617956 C47.2072036,44.0339373 47.4307962,43.5414 47.6415168,43.1041977 L47.7970099,42.7869839 L48.0432557,42.3095029 C48.2506636,41.9219803 48.4384137,41.6104359 48.6160503,41.3699213 C48.7447484,41.1956679 48.8740356,41.0486403 49.0270848,40.9189736 Z M48.1287383,62.6349725 L47.8509638,63.3197397 L47.5605201,64.0665167 C47.0989229,65.2822097 46.7598552,66.3238822 46.6955829,66.7513739 C46.5528051,67.7010261 46.9534987,68.4578669 47.3290157,68.5304205 C47.6383814,68.5903365 48.1550059,68.1043819 48.2910332,67.1974856 C48.3646717,66.707697 48.3338194,65.3274576 48.2211352,63.7599348 L48.1780033,63.20006 L48.1287383,62.6349725 Z M56.1750607,53.2283816 C56.4913538,52.9372252 56.8657169,52.740362 57.3706366,52.7675225 L57.543878,52.7850511 L57.7428054,52.8196941 C58.7793818,53.033282 59.0962725,53.6852 59.4698296,56.0959403 L59.5884399,56.9020293 L59.7820699,58.3296981 L59.862558,58.9837275 C60.0910395,60.9301057 60.1996491,62.7060052 60.1066786,63.5260246 C59.8326257,65.9499376 57.9825218,67.8402719 55.7684049,67.516417 C53.6040745,67.2016953 52.2804581,64.9183763 52.5508622,62.5267393 C52.6389765,61.751966 53.0899997,60.2063268 53.6904917,58.5082054 L53.9082888,57.903544 L54.1364133,57.2922613 L54.3967298,56.6210066 C54.6982547,55.8603195 54.9898457,55.184198 55.2472224,54.6557887 C55.4399667,54.2600736 55.6158055,53.9411191 55.7839088,53.6937684 C55.9053438,53.5150862 56.0282381,53.3635358 56.1750607,53.2283816 Z M39.3009628,60.6602861 L39.1249671,61.0905735 L38.8084965,61.8928988 C38.438837,62.8538059 38.1385654,63.723498 37.979721,64.2936858 L37.9075374,64.5737424 L37.8675517,64.7763311 C37.7250137,65.7266346 38.1256417,66.4833514 38.5016622,66.5559683 C38.8104474,66.6158001 39.3272801,66.1296497 39.4635982,65.2229625 C39.5415612,64.7044102 39.5023005,63.1875499 39.3727603,61.5070319 L39.3503389,61.2255733 L39.3009628,60.6602861 Z M49.4558695,46.3795927 L49.2798738,46.8098801 L48.9634032,47.6122054 C48.5937437,48.5731126 48.2934721,49.4428046 48.1346277,50.0129924 L48.0624441,50.2930491 L48.0224583,50.4956377 C47.8799204,51.4459412 48.2805484,52.202658 48.6565689,52.275275 C48.9653541,52.3351067 49.4821868,51.8489563 49.6185049,50.9422691 C49.6964679,50.4237168 49.6572072,48.9068565 49.527667,47.2263385 L49.5052456,46.9448799 L49.4558695,46.3795927 Z M56.808802,58.680663 L56.5637699,59.3557296 L56.384451,59.868279 C55.9206358,61.2168035 55.5787527,62.3962364 55.5263565,62.8569453 C55.418862,63.8077011 55.8392279,64.532858 56.2050907,64.5860597 C56.5201553,64.6321436 57.0273855,64.1138836 57.1311266,63.1963266 C57.1934014,62.6470494 57.086237,60.9996301 56.8760419,59.2246769 L56.808802,58.680663 Z M50.1646046,27.5 C57.3162787,27.5 63.3767575,32.4782819 64.831881,39.2365606 L64.8859932,39.5049363 L64.9090722,39.5122791 C68.9740391,40.7516451 71.876996,44.4387911 71.9961882,48.7432044 L72,49.0187748 C72,54.4236249 67.6439234,58.8227909 62.216092,58.9679284 L61.9391929,58.9716263 L61.9391929,56.0095967 C65.8414195,56.0095967 69.0058421,52.8793104 69.0058421,49.0187748 C69.0058421,45.7377915 66.6988133,42.9275817 63.5209727,42.2087647 L63.2810244,42.1588001 L62.2110163,41.9550525 L62.0780931,40.8851459 C61.3420816,34.9609466 56.2453519,30.4620296 50.1646046,30.4620296 C45.0429902,30.4620296 40.5459458,33.6664606 38.8534717,38.3521102 L38.7553062,38.6350129 L38.338759,39.8862239 L37.0340358,39.6228407 C36.4871998,39.5124515 35.9274399,39.4561708 35.3606459,39.4561708 C30.740166,39.4561708 26.9941579,43.1621692 26.9941579,47.7328837 C26.9941579,52.2209341 30.6049308,55.8745632 35.1094903,56.0059388 L35.3606459,56.0095967 L35.3606459,58.9716263 C29.0862737,58.9716263 24,53.9399299 24,47.7328837 C24,41.5263187 29.0865046,36.4941412 35.3606459,36.4941412 C35.6680509,36.4941412 35.9741419,36.5063722 36.2783517,36.5306516 L36.3576568,36.53797 L36.3887148,36.4645655 C38.6853444,31.2015967 43.8939072,27.6364915 49.8218267,27.5038329 L50.1646046,27.5 Z M63.92,26 C68.8277024,26 73.0267885,29.3102024 74.2802555,33.8988363 L74.2802555,33.8988363 L74.286,33.923 L74.5508451,33.9350266 C78.9450243,34.1942673 82.4456895,37.7760097 82.5762257,42.203639 L82.5762257,42.203639 L82.58,42.46 C82.58,47.0695138 78.9220574,50.8431848 74.3018869,50.9958776 L74.3018869,50.9958776 L74.04,51 L71.7320025,51.0005324 C71.5277764,50.0688296 71.1545437,49.0663389 70.5952785,48.0004154 L74.0152187,48.0002047 L74.2274922,47.996903 C77.2067728,47.8983076 79.58,45.4499972 79.58,42.46 C79.58,39.4003425 77.0996575,36.92 74.04,36.92 C73.7835086,36.92 73.5288153,36.9373296 73.2777741,36.9714919 L73.2777741,36.9714919 L71.7910205,37.1738131 L71.5891519,35.6869979 C71.0718713,31.8770906 67.8030544,29 63.92,29 C61.4811224,29 59.2625175,30.1383417 57.8308444,31.9592173 C57.5974084,31.7399993 57.3540746,31.5266742 57.1022949,31.3186035 L57.1022949,31.3186035 L54.9984432,30.7567472 C56.8953621,27.9308848 60.0776737,26.1002529 63.625539,26.0039914 L63.625539,26.0039914 Z" id="大雨备份" fill="url(#linearGradient-1)" fill-rule="nonzero"></path>
            </g>
        </g>
    </g>
</svg>