<?xml version="1.0" encoding="UTF-8"?>
<svg width="100px" height="100px" viewBox="0 0 100 100" version="1.1" xmlns="http://www.w3.org/2000/svg" xmlns:xlink="http://www.w3.org/1999/xlink">
    <title>暴雨@3x</title>
    <defs>
        <linearGradient x1="50%" y1="0%" x2="50%" y2="100%" id="linearGradient-1">
            <stop stop-color="#D6F1FF" offset="0%"></stop>
            <stop stop-color="#7DD4E4" offset="100%"></stop>
        </linearGradient>
    </defs>
    <g id="页面-1" stroke="none" stroke-width="1" fill="none" fill-rule="evenodd">
        <g id="天气icon" transform="translate(-503.000000, -642.000000)">
            <g id="暴雨" transform="translate(503.000000, 642.000000)">
                <rect id="矩形备份-5" opacity="0.100000001" x="0" y="0" width="100" height="100" rx="10"></rect>
                <path d="M49.7002235,57.6743523 C50.0293756,57.3954872 50.4144212,57.2138336 50.9193655,57.2635737 L51.0922088,57.288908 L51.194547,57.3101478 C52.3921028,57.5769203 52.6405083,58.3165363 52.9682772,61.4361614 L53.0271519,62.0117776 L53.1155275,62.9207759 C53.3188311,65.1282882 53.3889802,67.22623 53.2526882,68.1327431 C52.8900722,70.5503112 50.9610963,72.3647717 48.7544205,71.937396 C46.6125489,71.5235661 45.3770361,69.1898965 45.7340037,66.8156124 C45.8499891,66.044163 46.3569444,64.5190243 47.0192887,62.8476297 L47.2591258,62.2526419 L47.6524786,61.3171191 C48.0322937,60.4373703 48.4001636,59.6557338 48.7164057,59.0648646 C48.9238104,58.6773479 49.1115578,58.365808 49.2891921,58.1252965 C49.4178891,57.9510447 49.5471752,57.8040183 49.7002235,57.6743523 Z M40.8721781,55.699667 C41.2013311,55.4208011 41.5863774,55.2391472 42.0913223,55.2888873 L42.2641657,55.3142216 L42.3664983,55.3354607 C43.5639896,55.6022296 43.8124755,56.3420236 44.1404557,59.4615058 L44.1993692,60.0370934 L44.2878082,60.9460786 C44.4912803,63.1537301 44.561548,65.2516876 44.4251774,66.158724 C44.0617376,68.5760565 42.1329262,70.3903622 39.9270665,69.9629437 C37.7848703,69.5492453 36.5496558,67.216139 36.9058967,64.8410736 C37.0423522,63.9334728 37.719952,61.9826832 38.555085,59.9778286 L38.824404,59.342489 C39.0522969,58.8146307 39.2758895,58.3220934 39.4866101,57.884891 L39.6421032,57.5676773 L39.888349,57.0901963 C40.0957569,56.7026737 40.283507,56.3911293 40.4611436,56.1506147 C40.5898417,55.9763613 40.719129,55.8293337 40.8721781,55.699667 Z M51.0270848,41.4189736 C51.3562377,41.1401077 51.7412841,40.9584538 52.246229,41.008194 L52.4190724,41.0335282 L52.521405,41.0547673 C53.7188963,41.3215363 53.9673821,42.0613302 54.2953624,45.1808124 L54.3542759,45.7564 L54.4427149,46.6653853 C54.646187,48.8730367 54.7164547,50.9709942 54.5800841,51.8780306 C54.2166443,54.2953631 52.2878329,56.1096688 50.0819732,55.6822503 C47.939777,55.2685519 46.7045624,52.9354456 47.0608034,50.5603802 C47.1972589,49.6527794 47.8748587,47.7019898 48.7099917,45.6971352 L48.9793106,45.0617956 C49.2072036,44.5339373 49.4307962,44.0414 49.6415168,43.6041977 L49.7970099,43.2869839 L50.0432557,42.8095029 C50.2506636,42.4219803 50.4384137,42.1104359 50.6160503,41.8699213 C50.7447484,41.6956679 50.8740356,41.5486403 51.0270848,41.4189736 Z M50.1287383,63.1349725 L49.8509638,63.8197397 L49.5605201,64.5665167 C49.0989229,65.7822097 48.7598552,66.8238822 48.6955829,67.2513739 C48.5528051,68.2010261 48.9534987,68.9578669 49.3290157,69.0304205 C49.6383814,69.0903365 50.1550059,68.6043819 50.2910332,67.6974856 C50.3646717,67.207697 50.3338194,65.8274576 50.2211352,64.2599348 L50.1780033,63.70006 L50.1287383,63.1349725 Z M58.1750607,53.7283816 C58.4913538,53.4372252 58.8657169,53.240362 59.3706366,53.2675225 L59.543878,53.2850511 L59.7428054,53.3196941 C60.7793818,53.533282 61.0962725,54.1852 61.4698296,56.5959403 L61.5884399,57.4020293 L61.7820699,58.8296981 L61.862558,59.4837275 C62.0910395,61.4301057 62.1996491,63.2060052 62.1066786,64.0260246 C61.8326257,66.4499376 59.9825218,68.3402719 57.7684049,68.016417 C55.6040745,67.7016953 54.2804581,65.4183763 54.5508622,63.0267393 C54.6389765,62.251966 55.0899997,60.7063268 55.6904917,59.0082054 L55.9082888,58.403544 L56.1364133,57.7922613 L56.3967298,57.1210066 C56.6982547,56.3603195 56.9898457,55.684198 57.2472224,55.1557887 C57.4399667,54.7600736 57.6158055,54.4411191 57.7839088,54.1937684 C57.9053438,54.0150862 58.0282381,53.8635358 58.1750607,53.7283816 Z M41.3009628,61.1602861 L41.1249671,61.5905735 L40.8084965,62.3928988 C40.438837,63.3538059 40.1385654,64.223498 39.979721,64.7936858 L39.9075374,65.0737424 L39.8675517,65.2763311 C39.7250137,66.2266346 40.1256417,66.9833514 40.5016622,67.0559683 C40.8104474,67.1158001 41.3272801,66.6296497 41.4635982,65.7229625 C41.5415612,65.2044102 41.5023005,63.6875499 41.3727603,62.0070319 L41.3503389,61.7255733 L41.3009628,61.1602861 Z M51.4558695,46.8795927 L51.2798738,47.3098801 L50.9634032,48.1122054 C50.5937437,49.0731126 50.2934721,49.9428046 50.1346277,50.5129924 L50.0624441,50.7930491 L50.0224583,50.9956377 C49.8799204,51.9459412 50.2805484,52.702658 50.6565689,52.775275 C50.9653541,52.8351067 51.4821868,52.3489563 51.6185049,51.4422691 C51.6964679,50.9237168 51.6572072,49.4068565 51.527667,47.7263385 L51.5052456,47.4448799 L51.4558695,46.8795927 Z M58.808802,59.180663 L58.5637699,59.8557296 L58.384451,60.368279 C57.9206358,61.7168035 57.5787527,62.8962364 57.5263565,63.3569453 C57.418862,64.3077011 57.8392279,65.032858 58.2050907,65.0860597 C58.5201553,65.1321436 59.0273855,64.6138836 59.1311266,63.6963266 C59.1934014,63.1470494 59.086237,61.4996301 58.8760419,59.7246769 L58.808802,59.180663 Z M52.1646046,28 C59.3162787,28 65.3767575,32.9782819 66.831881,39.7365606 L66.8859932,40.0049363 L66.9090722,40.0122791 C70.9740391,41.2516451 73.876996,44.9387911 73.9961882,49.2432044 L74,49.5187748 C74,54.9236249 69.6439234,59.3227909 64.216092,59.4679284 L63.9391929,59.4716263 L63.9391929,56.5095967 C67.8414195,56.5095967 71.0058421,53.3793104 71.0058421,49.5187748 C71.0058421,46.2377915 68.6988133,43.4275817 65.5209727,42.7087647 L65.2810244,42.6588001 L64.2110163,42.4550525 L64.0780931,41.3851459 C63.3420816,35.4609466 58.2453519,30.9620296 52.1646046,30.9620296 C47.0429902,30.9620296 42.5459458,34.1664606 40.8534717,38.8521102 L40.7553062,39.1350129 L40.338759,40.3862239 L39.0340358,40.1228407 C38.4871998,40.0124515 37.9274399,39.9561708 37.3606459,39.9561708 C32.740166,39.9561708 28.9941579,43.6621692 28.9941579,48.2328837 C28.9941579,52.7209341 32.6049308,56.3745632 37.1094903,56.5059388 L37.3606459,56.5095967 L37.3606459,59.4716263 C31.0862737,59.4716263 26,54.4399299 26,48.2328837 C26,42.0263187 31.0865046,36.9941412 37.3606459,36.9941412 C37.6680509,36.9941412 37.9741419,37.0063722 38.2783517,37.0306516 L38.3576568,37.03797 L38.3887148,36.9645655 C40.6853444,31.7015967 45.8939072,28.1364915 51.8218267,28.0038329 L52.1646046,28 Z" id="大雨备份" fill="url(#linearGradient-1)" fill-rule="nonzero"></path>
            </g>
        </g>
    </g>
</svg>