<?xml version="1.0" encoding="UTF-8"?>
<svg width="100px" height="100px" viewBox="0 0 100 100" version="1.1" xmlns="http://www.w3.org/2000/svg" xmlns:xlink="http://www.w3.org/1999/xlink">
    <title>雨加冰雹@3x</title>
    <defs>
        <linearGradient x1="50%" y1="0%" x2="50%" y2="100%" id="linearGradient-1">
            <stop stop-color="#D6F1FF" offset="0%"></stop>
            <stop stop-color="#7DD4E4" offset="100%"></stop>
        </linearGradient>
    </defs>
    <g id="页面-1" stroke="none" stroke-width="1" fill="none" fill-rule="evenodd">
        <g id="天气icon" transform="translate(-353.000000, -199.000000)">
            <g id="雨加冰雹" transform="translate(353.000000, 199.000000)">
                <rect id="矩形备份-2" opacity="0.100000001" x="0" y="0" width="100" height="100" rx="10"></rect>
                <path d="M40.9880875,57.6282829 C41.3476934,57.2864024 41.7818998,57.0709228 42.4049537,57.2002329 C42.9866089,57.3211606 43.2834998,57.6428076 43.5011355,58.0594045 C43.5839935,58.2180109 43.6451077,58.3834702 43.6995968,58.5725164 C43.775696,58.8365376 43.8428081,59.1670269 43.906544,59.5702744 C44.016527,60.2661207 44.1176266,61.1948838 44.1986245,62.2219014 L44.2455511,62.8590281 C44.3755065,64.758372 44.4064243,66.5185269 44.2945698,67.3061896 C43.9693659,69.5901299 42.2910903,71.358572 40.2725917,70.9377603 C38.3490727,70.5349442 37.321264,68.3286173 37.637223,66.1013564 C37.7418591,65.362161 38.2002404,63.869723 38.7896623,62.2542474 L38.9016602,61.9500577 L39.1335648,61.3367199 L39.4019649,60.6540363 C39.6674005,59.9940053 39.9217291,59.4076269 40.1450295,58.9461525 C40.3194075,58.5857814 40.4771667,58.2955335 40.6273287,58.0692389 C40.7389307,57.9010542 40.8514666,57.7581696 40.9880875,57.6282829 Z M58.2566221,60.1554199 C60.9765068,60.1554199 63.1808309,62.3842836 63.1808309,65.1334214 C63.1808309,67.8831148 60.9767195,70.1114229 58.2566221,70.1114229 C55.5377572,70.1114229 53.3347009,67.8828192 53.3347009,65.1334214 C53.3347009,62.3845792 55.5379698,60.1554199 58.2566221,60.1554199 Z M41.3802104,64.5758895 L41.3470375,63.8879254 L41.1734997,64.3931462 C40.9244749,65.1318884 40.7291966,65.7753157 40.6278695,66.1963289 L40.5976287,66.3282548 L40.5611976,66.525003 C40.4505328,67.3051028 40.6960327,67.8999445 40.8409897,67.9991886 L40.8557156,68.0057283 L40.8604553,67.9930947 L40.9418741,67.9055527 C41.140116,67.6966601 41.3070552,67.3287852 41.3707991,66.8811058 C41.4100194,66.6049224 41.4195963,66.0222868 41.4025995,65.2814064 L41.3802104,64.5758895 Z M58.2566221,63.1422208 C57.1697171,63.1422208 56.2885399,64.0337526 56.2885399,65.1334214 C56.2885399,66.2335436 57.1694035,67.124622 58.2566221,67.124622 C59.3454776,67.124622 60.2269919,66.2334305 60.2269919,65.1334214 C60.2269919,64.0338657 59.3451639,63.1422208 58.2566221,63.1422208 Z M52.810832,29 C60.4141894,29 66.8539609,34.4293716 68.3669649,41.787372 L68.421926,42.0753184 L68.4752473,42.09057 C72.7903832,43.4147814 75.8746252,47.4084017 75.9962689,52.0725067 L76,52.358885 C76,58.192723 71.3975063,62.9404008 65.6637253,63.0920341 L65.3808393,63.0957705 L65.3808393,60.1089696 C69.614046,60.1089696 73.046161,56.6387564 73.046161,52.358885 C73.046161,48.7138991 70.5357442,45.5941879 67.0801203,44.8051331 L66.8375164,44.753887 L65.7814427,44.548731 L65.6502733,43.4694632 C64.8570988,36.9431913 59.3639403,31.9868009 52.810832,31.9868009 C47.2858301,31.9868009 42.4346155,35.5245718 40.6152766,40.6942256 L40.5155491,40.9885775 L40.1054405,42.2473709 L38.8206281,41.9851976 C38.2276913,41.8642054 37.6209329,41.8025349 37.0060428,41.8025349 C32.0063645,41.8025349 27.953839,45.8998708 27.953839,50.9557523 C27.953839,55.9224525 31.8656893,59.9648915 36.7438075,60.1052028 L37.0060428,60.1089696 L37.0060428,63.0957705 C30.3753186,63.0957705 25,57.6607418 25,50.9557523 C25,44.250239 30.3750707,38.815734 37.0060428,38.815734 C37.3307353,38.815734 37.6539473,38.8287841 37.9751327,38.854692 L38.1470452,38.8714766 L38.1967863,38.7518434 C40.6219816,33.0251395 46.1585545,29.143145 52.4599808,29.0038746 L52.810832,29 Z M48.8657706,49.663003 C49.1925592,49.3526139 49.5810542,49.1465658 50.1165733,49.2085252 L50.2817251,49.2353169 L50.4483559,49.277869 C50.923645,49.4228165 51.1831281,49.7205717 51.3786619,50.0951292 C51.4614318,50.2536801 51.5225042,50.4191026 51.5769605,50.6080987 C51.6530451,50.8721579 51.720151,51.2026921 51.7838766,51.6059579 C51.8526173,52.0409605 51.91788,52.5669335 51.9769211,53.15096 L52.0115773,53.508079 L52.0758833,54.2577955 L52.1227912,54.8951478 C52.25267,56.7950575 52.2833334,58.5547864 52.1712106,59.3412649 C51.847174,61.623846 50.1682535,63.392635 48.1498746,62.9731618 C46.2261826,62.5703852 45.1971873,60.3619914 45.5143567,58.1372272 C45.6189988,57.3977423 46.0773535,55.9049397 46.6666448,54.2895148 L46.778617,53.9853397 L47.0104624,53.3720629 L47.278868,52.6892912 C47.5443119,52.029188 47.7986596,51.4427799 48.0220139,50.9812737 C48.1964621,50.6208198 48.3543125,50.3304982 48.5046106,50.1041237 C48.6163193,49.9358712 48.7289865,49.7929227 48.8657706,49.663003 Z M49.2467613,56.3616565 L49.2249262,55.9211318 L48.9883684,56.614681 C48.6931533,57.5039284 48.4849277,58.2315848 48.4381948,58.5618339 C48.3272835,59.3398156 48.5731564,59.9352338 48.7174771,60.0344167 L48.7326196,60.0409258 L48.737143,60.0281824 L48.8188783,59.9403117 C49.0171288,59.7314493 49.1838521,59.364106 49.2474667,58.9159935 L49.267535,58.71486 C49.3006561,58.2437831 49.2919771,57.374066 49.2467613,56.3616565 L49.2467613,56.3616565 Z M60.0625174,50.1994168 C62.1469718,50.1994168 63.8372396,51.9077813 63.8372396,54.0155082 C63.8372396,56.1237968 62.147161,57.8323525 60.0625174,57.8323525 C57.977868,57.8323525 56.2885399,56.1237907 56.2885399,54.0155082 C56.2885399,51.9077874 57.9780571,50.1994168 60.0625174,50.1994168 Z M60.0625174,53.1862177 C59.6094174,53.1862177 59.2423789,53.557352 59.2423789,54.0155082 C59.2423789,54.4743758 59.6093763,54.8455516 60.0625174,54.8455516 C60.5159487,54.8455516 60.8834006,54.4740825 60.8834006,54.0155082 C60.8834006,53.5576453 60.5159076,53.1862177 60.0625174,53.1862177 Z" fill="url(#linearGradient-1)" fill-rule="nonzero"></path>
            </g>
        </g>
    </g>
</svg>