<?xml version="1.0" encoding="UTF-8"?>
<svg width="100px" height="100px" viewBox="0 0 100 100" version="1.1" xmlns="http://www.w3.org/2000/svg" xmlns:xlink="http://www.w3.org/1999/xlink">
    <title>沙尘暴@3x</title>
    <defs>
        <linearGradient x1="50%" y1="0%" x2="50%" y2="100%" id="linearGradient-1">
            <stop stop-color="#D6F1FF" offset="0%"></stop>
            <stop stop-color="#7DD4E4" offset="100%"></stop>
        </linearGradient>
    </defs>
    <g id="页面-1" stroke="none" stroke-width="1" fill="none" fill-rule="evenodd">
        <g id="天气icon" transform="translate(-653.000000, -199.000000)">
            <g id="沙尘暴" transform="translate(653.000000, 199.000000)">
                <rect id="矩形备份-4" opacity="0.100000001" x="0" y="0" width="100" height="100" rx="10"></rect>
                <path d="M65.7137499,52.5151816 C70.8420123,52.5151816 75,56.6538612 75,61.7584631 C75,66.8616424 70.8416888,71 65.7137499,71 C60.5858111,71 56.4274999,66.8616424 56.4274999,61.7584631 C56.4274999,60.9306945 57.101722,60.2596555 57.933417,60.2596555 C58.7651121,60.2596555 59.4393342,60.9306945 59.4393342,61.7584631 C59.4393342,65.206053 62.2491488,68.0023847 65.7137499,68.0023847 C69.1783511,68.0023847 71.9881657,65.206053 71.9881657,61.7584631 C71.9881657,58.3859933 69.3020532,55.6374102 65.9437436,55.5169164 L65.7137499,55.5127969 L24.5059171,55.5127969 C23.6742221,55.5127969 23,54.8417579 23,54.0139892 C23,53.2349129 23.5972348,52.5946697 24.3608873,52.5220427 L24.5059171,52.5151816 L65.7137499,52.5151816 Z M68.0003158,33.7329711 C72.32244,34.3696643 75.3074661,38.3738936 74.6676243,42.6753987 C74.0276859,46.9775536 70.0049013,49.948991 65.682165,49.3102126 C64.8594881,49.1886442 64.2915948,48.4263307 64.4137399,47.6075377 C64.535885,46.7887447 65.3018145,46.2235325 66.1244914,46.3451009 C68.8010535,46.7406212 71.2919506,44.9007154 71.6882633,42.2363983 C72.0845171,39.5724775 70.2358128,37.092554 67.5593411,36.6982822 C66.7366089,36.5770853 66.1683682,35.8150283 66.2901399,34.9961803 C66.4119117,34.1773322 67.1775835,33.6117742 68.0003158,33.7329711 Z M54.9531034,29 C60.0813187,29 64.2393535,33.1377604 64.2393535,38.2415369 C64.2393535,43.2565844 60.2259803,47.3393043 55.2220988,47.481014 L54.9531034,47.4848184 L34.505634,47.4848184 C33.6739389,47.4848184 32.9997168,46.8137794 32.9997168,45.9860108 C32.9997168,45.2069344 33.5969516,44.5666912 34.3606041,44.4940642 L34.505634,44.4872031 L54.9531034,44.4872031 C58.4179232,44.4872031 61.2275192,41.6906538 61.2275192,38.2415369 C61.2275192,34.7934021 58.4180335,31.9976153 54.9531034,31.9976153 C51.4881733,31.9976153 48.6786877,34.7934021 48.6786877,38.2415369 C48.6786877,39.0693055 48.0044656,39.7403445 47.1727705,39.7403445 C46.3410754,39.7403445 45.6668534,39.0693055 45.6668534,38.2415369 C45.6668534,33.1377604 49.8248881,29 54.9531034,29 Z" fill="url(#linearGradient-1)" fill-rule="nonzero"></path>
            </g>
        </g>
    </g>
</svg>