<?xml version="1.0" encoding="UTF-8"?>
<svg width="11px" height="12px" viewBox="0 0 11 12" version="1.1" xmlns="http://www.w3.org/2000/svg" xmlns:xlink="http://www.w3.org/1999/xlink">
    <!-- Generator: Sketch 60 (88103) - https://sketch.com -->
    <title>形状</title>
    <desc>Created with Sketch.</desc>
    <g id="页面-1" stroke="none" stroke-width="1" fill="none" fill-rule="evenodd">
        <path d="M8.78153936,0.00592105263 L10.9472314,2.70065789 L10.9472314,11.9638158 L0.011558845,11.9638158 L0.011558845,0.00592105263 L8.78153936,0.00592105263 Z M8.37413194,0.826921053 L7.79455885,0.826921053 L7.79518458,2.49013158 L3.16360563,2.49013158 L3.16355885,0.826921053 L0.869258654,0.826921053 L0.869258654,11.1217105 L10.0895316,11.1217105 L10.0895316,2.97434211 L8.37413194,0.826921053 Z M5.4793951,4.38486843 C6.89459978,4.38486843 8.05249452,5.52171053 8.05249452,6.91118421 C8.05249452,8.3006579 6.89459978,9.4375 5.4793951,9.4375 C4.06419042,9.4375 2.90629569,8.3006579 2.90629569,6.91118421 C2.90629569,5.52171053 4.06419042,4.38486843 5.4793951,4.38486843 Z M5.4793951,5.22697368 C4.53592532,5.22697368 3.7639955,5.98486842 3.7639955,6.91118421 C3.7639955,7.83750001 4.53592532,8.59539474 5.4793951,8.59539474 C6.42286488,8.59539474 7.19479471,7.8375 7.19479471,6.91118421 C7.19479471,5.98486843 6.42286488,5.22697368 5.4793951,5.22697368 Z M6.93748477,0.84802632 L4.02130544,0.84802632 L4.02130544,1.64802632 L6.93748477,1.64802632 L6.93748477,0.84802632 Z" id="形状" fill="#20A4FC" fill-rule="nonzero"></path>
    </g>
</svg>