<?xml version="1.0" encoding="UTF-8"?>
<svg width="16px" height="16px" viewBox="0 0 16 16" version="1.1" xmlns="http://www.w3.org/2000/svg" xmlns:xlink="http://www.w3.org/1999/xlink">
    <!-- Generator: Sketch 60 (88103) - https://sketch.com -->
    <title>发送指令</title>
    <desc>Created with Sketch.</desc>
    <g id="页面-1" stroke="none" stroke-width="1">
    <!-- fill="#68CCFF" fill-rule="nonzero" -->
        <path d="M14.6086567,0.760813892 L14.699,0.784 L14.7815934,0.811394626 C14.9992473,0.901364222 15.1708149,1.10226983 15.2266893,1.34314296 L15.2433493,1.44861438 L15.2446252,1.55773836 L15.2162008,1.69562675 L11.4402873,14.6767559 C11.3657779,14.9328044 11.2045596,15.1226363 10.9548755,15.2085048 C10.7786203,15.2691204 10.5970306,15.2620921 10.4196148,15.1913158 L10.3137423,15.1412314 L10.225266,15.084487 L7.28146537,12.9461379 L7.26082235,12.9206621 L7.18282238,12.8787177 L7.11254826,12.8610236 L7.05596094,12.8615 L7.0533533,12.8579906 L6.9395599,12.8951096 L4.18711499,13.9854905 C3.93964999,14.0832169 3.63917911,14.0255974 3.43452011,13.8555573 C3.2900882,13.7358465 3.20345529,13.5749409 3.17889263,13.3852537 L3.17163764,13.268087 L3.17984622,13.1636573 L3.62394894,10.098731 L3.62440879,10.0447507 L3.62440879,10.0447507 L3.60832528,9.99139043 L3.57729847,9.93727396 L3.57906368,9.9246801 L3.50863414,9.87084384 L1.00795882,7.59603115 C0.806726585,7.41321933 0.711231367,7.15872165 0.764505847,6.89723144 C0.800929157,6.7184528 0.898396588,6.5724165 1.04902008,6.46044663 L1.14570979,6.39736328 L1.23774116,6.35206094 L14.2209632,0.803735461 C14.3436796,0.751983448 14.4786709,0.737470388 14.6086567,0.760813892 Z M13.324,2.795 L2.863,7.266 L4.49759521,8.75299235 C4.73988869,8.9646235 4.91258191,9.19265473 5.02142175,9.46314792 C5.12519178,9.72125144 5.14854755,9.97342721 5.11670455,10.2934181 L5.0962999,10.4594062 L4.856,12.128 L5.16125509,12.0094474 L6.03508454,11.6571045 C6.19776597,11.5927448 6.34225906,11.5376656 6.48149633,11.4873801 C6.82025163,11.3649362 7.22323361,11.3512523 7.56010479,11.4528507 C7.72707571,11.5006168 7.88636645,11.5699895 8.03702491,11.6614535 L8.18477068,11.7602993 L8.25866581,11.8192781 L10.275,13.283 L13.324,2.795 Z M10.9038073,5.47760708 C11.1646416,5.67584595 11.2413881,6.03316301 11.1098404,6.34232743 L11.0582434,6.44331455 L10.9921974,6.53129612 L8.34629224,9.48820309 C8.07647019,9.78977207 7.61588509,9.81640006 7.29419399,9.57190882 C7.0333275,9.37364542 6.95649647,9.01615247 7.08816967,8.7069982 L7.13981669,8.60602183 L7.20579883,8.51822548 L9.85148365,5.56138299 C10.1212722,5.25962289 10.582046,5.23306248 10.9038073,5.47760708 Z" id="发送指令" ></path>
    </g>
</svg>