<?xml version="1.0" encoding="UTF-8"?>
<svg width="24px" height="24px" viewBox="0 0 24 24" version="1.1" xmlns="http://www.w3.org/2000/svg" xmlns:xlink="http://www.w3.org/1999/xlink">
    <title>形状</title>
    <g id="楼房厂区概览" stroke="none" stroke-width="1" fill="none" fill-rule="evenodd">
        <g transform="translate(-1816.000000, -267.000000)" fill="#10AEFF" id="编组-19">
            <g transform="translate(1068.000000, 264.000000)">
                <g id="编组-9" transform="translate(594.000000, 0.000000)">
                    <g id="编组" transform="translate(154.000000, 3.000000)">
                        <path d="M22.2795098,14.3156569 L20.3538627,14.3156569 C20.1709858,14.9645263 19.914137,15.5902268 19.5883725,16.1804412 L20.9386471,17.5307157 C21.5628218,18.1550346 21.5628218,19.1671027 20.9386471,19.7914216 L19.8092353,20.9208333 C19.1847731,21.5446619 18.1729917,21.5446619 17.5485294,20.9208333 L16.1976275,19.5705588 C15.6134706,19.8962059 14.9891569,20.1522059 14.3328431,20.336049 L14.3328431,22.2642059 C14.3324967,23.1424185 13.6204676,23.8541667 12.7422549,23.8541667 L11.1522941,23.8541667 C10.2740815,23.8541667 9.56205232,23.1424185 9.56170588,22.2642059 L9.56170588,20.336049 C8.8901831,20.1458262 8.24373755,19.8762106 7.63605882,19.5329118 L6.2462549,20.9227157 C5.94676399,21.2223442 5.54048455,21.3906853 5.11684314,21.3906853 C4.69320172,21.3906853 4.28692229,21.2223442 3.98743137,20.9227157 L2.85801961,19.7933039 C2.23426296,19.1690569 2.23426296,18.1574725 2.85801961,17.5332255 L4.27166667,16.1195784 C3.96224832,15.5480164 3.71789809,14.94356 3.54319608,14.3175392 L1.61692157,14.3175392 C0.738834647,14.3151208 0.0279941604,13.6031583 0.0269607843,12.7250686 L0.0269607843,11.1357353 C0.0273072193,10.2575227 0.739336371,9.54577444 1.61754902,9.54577451 L3.54319608,9.54577451 C3.72892157,8.88883333 3.98554902,8.26514706 4.30868627,7.6809902 L2.85801961,6.23032353 C2.55823716,5.93091437 2.38978971,5.5246043 2.38978971,5.10091176 C2.38978971,4.67721923 2.55823716,4.27090916 2.85801961,3.9715 L3.98743137,2.84271569 C4.28692229,2.54308718 4.69320172,2.37474607 5.11684314,2.37474607 C5.54048455,2.37474607 5.94676399,2.54308718 6.2462549,2.84271569 L7.69692157,4.29338235 C8.28107843,3.96710784 8.90539216,3.71110784 9.56170588,3.52726471 L9.56170588,1.6009902 C9.56205232,0.722777615 10.2740815,0.0110294118 11.1522941,0.0110294118 L12.7422549,0.0110294118 C13.6204676,0.0110294118 14.3324967,0.722777615 14.3328431,1.6009902 L14.3328431,3.52663725 C14.9640588,3.70608824 15.5689216,3.94828431 16.1348824,4.25510784 L17.5485294,2.84208824 C18.1729917,2.21825966 19.1847731,2.21825966 19.8092353,2.84208824 L20.9386471,3.9715 C21.2382374,4.27088378 21.4065629,4.67705933 21.4065629,5.10059804 C21.4065629,5.52413675 21.2382374,5.9303123 20.9386471,6.22969608 L19.5488431,7.6195 C19.8940872,8.22622594 20.1638034,8.87291254 20.3519804,9.54514706 L22.2795098,9.54514706 C23.1577225,9.54514699 23.8697516,10.2568953 23.870098,11.1351078 L23.870098,12.7250686 C23.870098,13.6035263 23.1579674,14.3156569 22.2795098,14.3156569 Z M11.9485294,7.16271569 C9.31488919,7.16271569 7.17990196,9.29770292 7.17990196,11.9313431 C7.17990196,14.5649834 9.31488919,16.6999706 11.9485294,16.6999706 C14.5821696,16.6999706 16.7171569,14.5649834 16.7171569,11.9313431 C16.7171569,9.29770292 14.5821696,7.16271569 11.9485294,7.16271569 L11.9485294,7.16271569 Z M11.9485294,14.3156569 C10.6308824,14.3156569 9.56421569,13.2489902 9.56421569,11.9313431 C9.56421569,10.6136961 10.6308824,9.54702941 11.9485294,9.54702941 C13.2661765,9.54702941 14.3328431,10.6136961 14.3328431,11.9313431 C14.3328431,13.2489902 13.2661765,14.3156569 11.9485294,14.3156569 L11.9485294,14.3156569 Z" id="形状"></path>
                    </g>
                </g>
            </g>
        </g>
    </g>
</svg>