<?xml version="1.0" encoding="UTF-8"?>
<svg width="20px" height="20px" viewBox="0 0 20 20" version="1.1" xmlns="http://www.w3.org/2000/svg" xmlns:xlink="http://www.w3.org/1999/xlink">
    <!-- Generator: Sketch 60 (88103) - https://sketch.com -->
    <title>形状</title>
    <desc>Created with Sketch.</desc>
    <g id="页面-1" stroke="none" stroke-width="1" fill="none" fill-rule="evenodd">
        <g id="场区设备概览列表样式备份-9" transform="translate(-1460.000000, -89.000000)" fill="#20A4FC" fill-rule="nonzero">
            <path d="M1479.67414,89.2907917 C1479.28621,88.9030694 1478.62138,88.9030694 1478.17843,89.2907917 L1474.41085,93.0026729 L1474.41085,90.0111 C1474.41085,89.5677266 1474.07842,89.2354988 1473.63547,89.2354988 L1473.08158,89.2354988 C1472.63821,89.2354988 1472.30576,89.512456 1472.30576,89.9001783 L1472.30576,95.385083 L1472.36125,95.385083 L1472.30576,95.7727605 C1472.30576,95.9944696 1472.36125,96.1607066 1472.47222,96.3268541 C1472.58271,96.4376191 1472.8046,96.5483618 1473.02611,96.5483618 L1473.41399,96.5483618 L1478.89838,96.6038338 C1479.34173,96.6038338 1479.67414,96.21591 1479.67414,95.8282549 L1479.67414,95.2741613 C1479.61866,94.7755397 1479.23114,94.4985824 1478.78782,94.4985824 L1475.90699,94.4985824 L1479.61864,90.7866789 C1480.11747,90.398979 1480.11747,89.7339636 1479.67411,89.2907917 L1479.67414,89.2907917 Z M1460.29097,108.653552 C1460.67847,109.041431 1461.34331,109.041431 1461.78668,108.653552 L1465.55421,104.941827 L1465.55421,107.878152 C1465.55421,108.3211 1465.88626,108.653552 1466.32961,108.653552 L1466.88389,108.653552 C1467.32686,108.653552 1467.65931,108.376594 1467.65931,107.988715 L1467.65931,102.559417 L1467.60384,102.559417 L1467.65931,102.171538 C1467.65931,101.950053 1467.60384,101.78404 1467.4933,101.617623 C1467.38235,101.506679 1467.16046,101.396138 1466.939,101.396138 L1466.5511,101.396138 L1461.06673,101.340666 C1460.62298,101.340666 1460.29095,101.728568 1460.29095,102.116066 L1460.29095,102.670339 C1460.34642,103.168781 1460.73392,103.445738 1461.17727,103.445738 L1464.05806,103.445738 L1460.29091,107.157843 C1459.90303,107.545722 1459.90303,108.210581 1460.29093,108.653552 L1460.29097,108.653552 Z M1472.28521,102.614878 L1472.28521,108.044557 C1472.28521,108.487505 1472.67313,108.708968 1473.06063,108.708968 L1473.61488,108.708968 C1474.05785,108.708968 1474.39031,108.321469 1474.39031,107.933568 L1474.39031,104.997266 L1478.15784,108.708968 C1478.54531,109.096891 1479.21019,109.096891 1479.65357,108.708968 C1480.04142,108.321469 1480.04142,107.656633 1479.65357,107.213282 L1475.88639,103.50158 L1478.76722,103.50158 C1479.21017,103.50158 1479.5981,103.224264 1479.65357,102.725822 L1479.65357,102.171885 C1479.65357,101.728534 1479.26562,101.396127 1478.87812,101.396127 L1473.50394,101.451599 L1473.11602,101.451599 C1472.89455,101.451599 1472.72852,101.507071 1472.56212,101.673084 C1472.4512,101.784028 1472.39613,102.005514 1472.39613,102.226999 L1472.28521,102.614878 C1472.34068,102.614878 1472.28521,102.614878 1472.28521,102.614878 L1472.28521,102.614878 Z M1464.11363,94.49856 L1461.2328,94.49856 C1460.78942,94.49856 1460.40193,94.7755397 1460.34648,95.2741389 L1460.34648,95.8282549 C1460.34648,96.2714269 1460.73395,96.6038338 1461.12223,96.6038338 L1466.6066,96.5483618 L1466.99488,96.5483618 C1467.21597,96.5483618 1467.38238,96.4928897 1467.54878,96.3268541 C1467.65934,96.21591 1467.71479,95.9944472 1467.71479,95.7727605 L1467.65934,95.385083 L1467.71479,95.385083 L1467.71479,89.9001559 C1467.71479,89.456984 1467.38236,89.2354764 1466.93939,89.2354764 L1466.3855,89.2354764 C1465.94174,89.2354764 1465.60972,89.5677042 1465.60972,90.0110552 L1465.60972,93.0026953 L1461.84257,89.2907917 C1461.45428,88.9030694 1460.78942,88.9030694 1460.34648,89.2907917 C1459.95853,89.6786707 1459.95853,90.3435069 1460.34648,90.7866789 L1464.11363,94.49856 Z" id="形状"></path>
        </g>
    </g>
</svg>