<?xml version="1.0" encoding="UTF-8"?>
<svg width="12px" height="12px" viewBox="0 0 12 12" version="1.1" xmlns="http://www.w3.org/2000/svg" xmlns:xlink="http://www.w3.org/1999/xlink">
    <title>4</title>
    <defs>
        <linearGradient x1="50%" y1="40.3490618%" x2="50%" y2="100%" id="linearGradient-1">
            <stop stop-color="#00F9F1" offset="0.0710227273%"></stop>
            <stop stop-color="#00EA7E" offset="100%"></stop>
        </linearGradient>
        <linearGradient x1="50%" y1="40.3490618%" x2="50%" y2="100%" id="linearGradient-2">
            <stop stop-color="#00F9F1" offset="0.0710227273%"></stop>
            <stop stop-color="#00EA7E" offset="100%"></stop>
        </linearGradient>
        <linearGradient x1="50%" y1="40.3490618%" x2="50%" y2="100%" id="linearGradient-3">
            <stop stop-color="#00F9F1" offset="0.0710227273%"></stop>
            <stop stop-color="#00EA7E" offset="100%"></stop>
        </linearGradient>
        <linearGradient x1="50%" y1="40.3490618%" x2="50%" y2="100%" id="linearGradient-4">
            <stop stop-color="#00F9F1" offset="0.0710227273%"></stop>
            <stop stop-color="#00EA7E" offset="100%"></stop>
        </linearGradient>
    </defs>
    <g id="页面-1" stroke="none" stroke-width="1" fill="none" fill-rule="evenodd">
        <g id="iPhone-11-Pro" transform="translate(-207.000000, -195.000000)" fill-rule="nonzero">
            <g id="4" transform="translate(207.000000, 195.000000)">
                <path d="M1.85859375,11.3496094 L0.326953125,11.3496094 C0.146484375,11.3496094 0,11.203125 0,11.0226563 L0,8.41523438 C0,8.23476563 0.146484375,8.08828125 0.326953125,8.08828125 L1.85859375,8.08828125 C2.0390625,8.08828125 2.18554688,8.23476563 2.18554688,8.41523438 L2.18554688,11.0238281 C2.18554688,11.203125 2.0390625,11.3496094 1.85859375,11.3496094 L1.85859375,11.3496094 Z" id="路径" fill="url(#linearGradient-1)"></path>
                <path d="M5.0453125,11.3496094 L3.5125,11.3496094 C3.33203125,11.3496094 3.18554688,11.203125 3.18554688,11.0226563 L3.18554688,6.03046875 C3.18554688,5.85 3.33203125,5.70351563 3.5125,5.70351563 L5.04414062,5.70351563 C5.22460938,5.70351563 5.37109375,5.85 5.37109375,6.03046875 L5.37109375,11.0226563 C5.37109375,11.203125 5.22460938,11.3496094 5.0453125,11.3496094 L5.0453125,11.3496094 Z" id="路径" fill="url(#linearGradient-2)"></path>
                <path d="M8.2296875,11.3496094 L6.69804687,11.3496094 C6.51757812,11.3496094 6.37109375,11.203125 6.37109375,11.0226563 L6.37109375,3.66328125 C6.37109375,3.4828125 6.51757812,3.33632813 6.69804687,3.33632813 L8.2296875,3.33632813 C8.41015625,3.33632813 8.55664062,3.4828125 8.55664062,3.66328125 L8.55664062,11.0226563 C8.55664062,11.203125 8.41015625,11.3496094 8.2296875,11.3496094 Z" id="路径" fill="url(#linearGradient-3)"></path>
                <path d="M11.4152344,11.3496094 L9.88359375,11.3496094 C9.703125,11.3496094 9.55664063,11.203125 9.55664063,11.0226563 L9.55664063,0.326953125 C9.55664063,0.146484375 9.703125,0 9.88359375,0 L11.4152344,0 C11.5957031,0 11.7421875,0.146484375 11.7421875,0.326953125 L11.7421875,11.0238281 C11.7421875,11.203125 11.5957031,11.3496094 11.4152344,11.3496094 L11.4152344,11.3496094 Z" id="路径" fill="url(#linearGradient-4)"></path>
            </g>
        </g>
    </g>
</svg>