<?xml version="1.0" encoding="UTF-8"?>
<svg width="12px" height="12px" viewBox="0 0 12 12" version="1.1" xmlns="http://www.w3.org/2000/svg" xmlns:xlink="http://www.w3.org/1999/xlink">
    <title>离线</title>
    <g id="页面-1" stroke="none" stroke-width="1" fill="none" fill-rule="evenodd">
        <g id="iPhone-11-Pro" transform="translate(-114.000000, -195.000000)" fill="#4F609B" fill-rule="nonzero">
            <g id="小车离线" transform="translate(114.000000, 195.000000)">
                <path d="M2.35876564,8.08828125 C2.53923439,8.08828125 2.68571877,8.23476563 2.68571877,8.41523438 L2.68571877,11.0238281 C2.68571877,11.203125 2.53923439,11.3496094 2.35876564,11.3496094 L0.827125017,11.3496094 C0.646656267,11.3496094 0.500171892,11.203125 0.500171892,11.0226563 L0.500171892,8.41523438 C0.500171892,8.23476563 0.646656267,8.08828125 0.827125017,8.08828125 L2.35876564,8.08828125 Z M3.56317189,6.655 L3.98191336,7.07446632 L4.09584822,7.17744904 C4.56969781,7.56393621 5.22453245,7.61741237 5.74842878,7.33790785 L5.74900002,11.0226563 C5.74900002,11.203125 5.60251564,11.3496094 5.42321877,11.3496094 L3.89040627,11.3496094 C3.70993752,11.3496094 3.56345314,11.203125 3.56345314,11.0226563 L3.56317189,6.655 Z M8.48650002,3.33632813 C8.66696877,3.33632813 8.81345314,3.4828125 8.81345314,3.66328125 L8.81345314,11.0226563 C8.81345314,11.203125 8.66696877,11.3496094 8.48650002,11.3496094 L6.95485939,11.3496094 C6.77439064,11.3496094 6.62790627,11.203125 6.62790627,11.0226563 L6.62717189,6.545 L6.67200217,6.49612845 L6.76237678,6.3746637 C7.12401939,5.83343872 7.09591246,5.10893237 6.67805597,4.59619672 L6.62717189,4.54 L6.62790627,3.66328125 C6.62790627,3.4828125 6.77439064,3.33632813 6.95485939,3.33632813 L8.48650002,3.33632813 Z M11.5497813,0 C11.73025,0 11.8767344,0.146484375 11.8767344,0.326953125 L11.8767344,11.0238281 C11.8767344,11.203125 11.73025,11.3496094 11.5497813,11.3496094 L10.0181406,11.3496094 C9.83767189,11.3496094 9.69118752,11.203125 9.69118752,11.0226563 L9.69118752,0.326953125 C9.69118752,0.146484375 9.83767189,0 10.0181406,0 L11.5497813,0 Z M1.83709348,0.734146221 L3.15702614,2.05302296 L4.4769022,0.7342028 C4.78937823,0.421726787 5.29591022,0.421726787 5.60832965,0.734146221 L6.07973417,1.20555074 C6.3921536,1.51797017 6.3921536,2.02450216 6.07973417,2.33692159 L4.76006548,3.6560623 L6.07967762,4.97673034 C6.3921536,5.28920634 6.3921536,5.79573832 6.07973417,6.10815776 L5.60832965,6.57956228 C5.29591022,6.89198171 4.78937823,6.89198171 4.4769588,6.57956228 L3.15702614,5.25910164 L1.83706521,6.57959056 C1.52467405,6.89198171 1.01814207,6.89198171 0.705722633,6.57956228 L0.234318112,6.10815776 C-0.0781013209,5.79573832 -0.0781013209,5.28920634 0.234318112,4.97678691 L1.5539868,3.6560623 L0.234289814,2.3368933 C-0.0781013209,2.02450216 -0.0781013209,1.51797017 0.234318112,1.20555074 L0.705722633,0.734146221 C1.01814207,0.421726787 1.52467405,0.421726787 1.83709348,0.734146221 Z" id="形状结合"></path>
            </g>
        </g>
    </g>
</svg>