<?xml version="1.0" encoding="UTF-8"?>
<svg width="12px" height="14px" viewBox="0 0 12 14" version="1.1" xmlns="http://www.w3.org/2000/svg" xmlns:xlink="http://www.w3.org/1999/xlink">
    <title>形状结合</title>
    <g id="页面-1" stroke="none" stroke-width="1" fill="none" fill-rule="evenodd">
        <g id="厂区-列表" transform="translate(-768.000000, -298.000000)" fill="#1FBFFF" fill-rule="nonzero">
            <g id="编组" transform="translate(768.000000, 298.000000)">
                <path d="M10.9246793,6.15901988 C11.6962401,6.15901988 11.9964854,8.01425178 11.9999884,10.0795099 C12.0034679,12.1447681 11.2266703,14 10.6104691,14 L8.72346201,14 C8.6518919,14 8.60301475,13.928241 8.62919894,13.8617327 C8.71822518,13.6342043 8.86834785,13.1686461 8.80201458,12.7590949 C8.7172069,12.2392799 8.54585807,11.8077051 8.51788887,11.7393858 L8.51398852,11.7299662 C8.51398852,11.7299662 8.65887435,12.1482685 8.0636205,12.9323665 C7.51898941,13.6499562 7.03545475,13.9072384 6.87485841,13.9772472 C6.84169177,13.9912489 6.80677952,14 6.77012166,14 L0.751249849,14 C0.327066018,14 -0.0168196389,13.6464558 0.000636485873,13.215902 C0.00587332329,13.0863858 0.0460224102,12.9586198 0.114101297,12.848356 L0.964214571,11.4271784 C1.583907,10.3927991 1.91033653,9.20790099 1.91033653,8.00200025 L1.91033653,6.91336417 C1.90859092,6.4968121 2.24549413,6.15901988 2.65920428,6.15901988 L10.9246793,6.15901988 Z M5.08695786,7.39544072 C4.85062764,7.41402985 4.65405976,7.59929315 4.62929706,7.84350078 C4.49681466,9.15003071 3.98844836,10.4653178 3.09712483,11.792459 C2.94316469,12.0216988 3.00419092,12.3323437 3.23343072,12.4863038 C3.46267053,12.640264 3.77331546,12.5792378 3.92727559,12.349998 C4.90629496,10.8922816 5.47429265,9.42271123 5.62419536,7.94438366 C5.6520534,7.66965008 5.45192123,7.4243511 5.17718765,7.39649306 L5.17718765,7.39649306 Z M8.08695786,7.39544072 C7.85062764,7.41402985 7.65405976,7.59929315 7.62929706,7.84350078 C7.49681466,9.15003071 6.98844836,10.4653178 6.09712483,11.792459 C5.94316469,12.0216988 6.00419092,12.3323437 6.23343072,12.4863038 C6.46267053,12.640264 6.77331546,12.5792378 6.92727559,12.349998 C7.90629496,10.8922816 8.47429265,9.42271123 8.62419536,7.94438366 C8.6520534,7.66965008 8.45192123,7.4243511 8.17718765,7.39649306 L8.17718765,7.39649306 Z M7.14193711,0 C7.55739288,0 7.89429609,0.337792224 7.89429609,0.754344293 L7.89429609,3.39192399 L10.7012409,3.39192399 C11.1166967,3.39192399 11.4535999,3.72971621 11.4535999,4.14626828 L11.4535999,4.90061258 C11.4535999,5.31716465 11.1166967,5.65495687 10.7012409,5.65495687 L3.18288802,5.65495687 C2.76743226,5.65495687 2.43052905,5.31716465 2.43052905,4.90061258 L2.43052905,4.14626828 C2.43052905,3.72971621 2.76743226,3.39192399 3.18288802,3.39192399 L6.38957814,3.39192399 L6.38957814,0.754344293 C6.38957814,0.337792224 6.72648134,0 7.14193711,0 Z" id="形状结合"></path>
            </g>
        </g>
    </g>
</svg>