<?xml version="1.0" encoding="UTF-8"?>
<svg width="18px" height="17px" viewBox="0 0 18 17" version="1.1" xmlns="http://www.w3.org/2000/svg" xmlns:xlink="http://www.w3.org/1999/xlink">
    <title>rili</title>
    <g id="页面-1" stroke="none" stroke-width="1" fill="none" fill-rule="evenodd">
        <g id="场区设备概览-实时数据备份" transform="translate(-1085.000000, -1582.000000)" fill="#1DF5DD" fill-rule="nonzero">
            <g id="编组-31" transform="translate(240.000000, 1507.000000)">
                <g id="图表" transform="translate(610.000000, 46.000000)">
                    <g id="编组-22" transform="translate(26.000000, 29.000000)">
                        <g id="rili" transform="translate(209.000000, 0.000000)">
                            <path d="M4.375,4.375 C4.72017797,4.375 5,4.09517797 5,3.75 L5,0.625 C5,0.279822031 4.72017797,0 4.375,0 C4.02982203,0 3.75,0.279822031 3.75,0.625 L3.75,3.75 C3.75,4.09517797 4.02982203,4.375 4.375,4.375 Z M7.5,8.75 L3.125,8.75 C2.77982203,8.75 2.5,9.02982203 2.5,9.375 C2.5,9.72017797 2.77982203,10 3.125,10 L7.5,10 C7.84517797,10 8.125,9.72017797 8.125,9.375 C8.125,9.02982203 7.84517797,8.75 7.5,8.75 Z M14.375,8.75 L10,8.75 C9.65482203,8.75 9.375,9.02982203 9.375,9.375 C9.375,9.72017797 9.65482203,10 10,10 L14.375,10 C14.720178,10 15,9.72017797 15,9.375 C15,9.02982203 14.720178,8.75 14.375,8.75 Z M7.5,11.875 L3.125,11.875 C2.77982203,11.875 2.5,12.154822 2.5,12.5 C2.5,12.845178 2.77982203,13.125 3.125,13.125 L7.5,13.125 C7.84517797,13.125 8.125,12.845178 8.125,12.5 C8.125,12.154822 7.84517797,11.875 7.5,11.875 Z M14.375,11.875 L10,11.875 C9.65482203,11.875 9.375,12.154822 9.375,12.5 C9.375,12.845178 9.65482203,13.125 10,13.125 L14.375,13.125 C14.720178,13.125 15,12.845178 15,12.5 C15,12.154822 14.720178,11.875 14.375,11.875 Z M13.125,4.375 C13.470178,4.375 13.75,4.09517797 13.75,3.75 L13.75,0.625 C13.75,0.279822031 13.470178,0 13.125,0 C12.779822,0 12.5,0.279822031 12.5,0.625 L12.5,3.75 C12.5,4.09517797 12.779822,4.375 13.125,4.375 Z" id="形状"></path>
                            <path d="M16.875,1.25 L15,1.25 C14.654822,1.25 14.375,1.52982203 14.375,1.875 C14.375,2.22017797 14.654822,2.5 15,2.5 L16.25,2.5 L16.25,5.625 L1.25,5.625 L1.25,2.5 L2.5,2.5 C2.84517797,2.5 3.125,2.22017797 3.125,1.875 C3.125,1.52982203 2.84517797,1.25 2.5,1.25 L0.625,1.25 C0.279822031,1.25 0,1.52982203 0,1.875 L0,15.625 C0,15.970178 0.279822031,16.25 0.625,16.25 L16.875,16.25 C17.220178,16.25 17.5,15.970178 17.5,15.625 L17.5,1.875 C17.5,1.52982203 17.220178,1.25 16.875,1.25 Z M1.25,15.3125 L1.25,6.875 L16.25,6.875 L16.25,15.3125 L1.25,15.3125 Z" id="形状"></path>
                            <path d="M6.25,2.5 L11.25,2.5 C11.595178,2.5 11.875,2.22017797 11.875,1.875 C11.875,1.52982203 11.595178,1.25 11.25,1.25 L6.25,1.25 C5.90482203,1.25 5.625,1.52982203 5.625,1.875 C5.625,2.22017797 5.90482203,2.5 6.25,2.5 Z" id="路径"></path>
                        </g>
                    </g>
                </g>
            </g>
        </g>
    </g>
</svg>