<?xml version="1.0" encoding="UTF-8"?>
<svg width="18px" height="15px" viewBox="0 0 18 15" version="1.1" xmlns="http://www.w3.org/2000/svg" xmlns:xlink="http://www.w3.org/1999/xlink">
    <title>gengduo</title>
    <g id="页面-1" stroke="none" stroke-width="1" fill="none" fill-rule="evenodd">
        <g id="场区设备概览-实时数据备份" transform="translate(-876.000000, -1583.000000)" fill="#1DF5DD" fill-rule="nonzero">
            <g id="编组-31" transform="translate(240.000000, 1507.000000)">
                <g id="图表" transform="translate(610.000000, 46.000000)">
                    <g id="编组-22" transform="translate(26.000000, 29.000000)">
                        <g id="gengduo" transform="translate(0.000000, 1.000000)">
                            <path d="M16.5441211,2.08267578 L1.03400391,2.08267578 C0.462988281,2.08267578 0,1.61970703 0,1.04867187 C0,0.477636719 0.462988281,0.0146679687 1.03400391,0.0146679687 L16.5441211,0.0146679687 C17.1151367,0.0146679687 17.578125,0.47765625 17.578125,1.04867187 C17.578125,1.61970703 17.1151367,2.08267578 16.5441211,2.08267578 Z M11.3741016,8.31929688 L1.03400391,8.31929688 C0.462988281,8.31929688 0,7.85630859 0,7.28529297 C0,6.71425781 0.462988281,6.25128906 1.03400391,6.25128906 L11.3741016,6.25128906 C11.9451172,6.25128906 12.4080859,6.71427734 12.4080859,7.28529297 C12.4080859,7.85630859 11.9451172,8.31929688 11.3741016,8.31929688 Z M14.4761133,14.5556445 L1.03400391,14.5556445 C0.462988281,14.5556445 0,14.0926758 0,13.5216602 C0,12.950625 0.462988281,12.4876563 1.03400391,12.4876563 L14.4761133,12.4876563 C15.0471289,12.4876563 15.5100977,12.950625 15.5100977,13.5216602 C15.5100977,14.0926758 15.0471289,14.5556445 14.4761133,14.5556445 Z" id="形状"></path>
                        </g>
                    </g>
                </g>
            </g>
        </g>
    </g>
</svg>