<?xml version="1.0" encoding="UTF-8"?>
<svg width="40px" height="40px" viewBox="0 0 40 40" version="1.1" xmlns="http://www.w3.org/2000/svg" xmlns:xlink="http://www.w3.org/1999/xlink">
    <title>a相电压备份</title>
    <g id="页面-1" stroke="none" stroke-width="1" fill="none" fill-rule="evenodd">
        <g id="场区设备概览-实时数据备份" transform="translate(-1060.000000, -481.000000)">
            <g id="编组-13" transform="translate(240.000000, 361.000000)">
                <g id="编组-6备份-10" transform="translate(800.000000, 100.000000)">
                    <g id="a相电压备份" transform="translate(20.000000, 20.000000)">
                        <circle id="椭圆形" stroke="#F7B500" stroke-width="2" cx="20" cy="20" r="19"></circle>
                        <g id="dianyabiao" transform="translate(11.000000, 12.000000)" fill="#F7B500" fill-rule="nonzero">
                            <path d="M9.01482148,2 C8.80383341,2 8.62946311,2.1763164 8.62946311,2.3935952 L8.62946311,4.21375036 C8.62946311,4.42924818 8.80208971,4.60734555 9.01482148,4.60734555 C9.22580954,4.60734555 9.40017984,4.43102915 9.40017984,4.21375036 L9.40017984,2.3935952 C9.40017984,2.17809737 9.22755324,2 9.01482148,2 Z M6.10109376,3.07748911 C5.99472788,2.89048687 5.75932798,2.82459084 5.57449546,2.93323024 C5.39140664,3.04186964 5.32688963,3.28408207 5.43325551,3.47108431 L6.32428775,5.04724607 C6.43065363,5.23424831 6.66605354,5.30014434 6.85088605,5.19150494 C7.03397487,5.08286554 7.09849188,4.84243409 6.992126,4.65365087 L6.10109376,3.07748911 Z M5.12287638,6.26543211 L3.57795552,5.35535453 C3.39486671,5.24671513 3.1577231,5.31261116 3.05135722,5.4996134 C2.94499133,5.68661564 3.00950835,5.92882807 3.19259716,6.03746747 L4.73577432,6.94754505 C4.91886313,7.05618445 5.15600674,6.99028842 5.26237262,6.80328618 C5.3687385,6.61628393 5.3059652,6.3740715 5.12287638,6.26543211 Z M12.4272482,2.93323024 C12.2441594,2.82459084 12.0070158,2.89048687 11.9006499,3.07748911 L11.0096177,4.65365087 C10.9032518,4.84065311 10.9677688,5.08286554 11.1508576,5.19150494 C11.3339465,5.30014434 11.5710901,5.23424831 11.677456,5.04724607 L12.5684882,3.47108431 C12.6731104,3.28408207 12.6103371,3.04186964 12.4272482,2.93323024 Z M12.7376274,6.80328618 C12.8439933,6.99028842 13.0793932,7.05618445 13.2642257,6.94754505 L14.8074028,6.03746747 C14.9904917,5.92882807 15.0550087,5.68661564 14.9486428,5.4996134 C14.8422769,5.31261116 14.6051333,5.24671513 14.4220445,5.35535453 L12.8788673,6.26543211 C12.6957785,6.3740715 12.6330052,6.61628393 12.7376274,6.80328618 Z" id="形状"></path>
                            <path d="M14.4457255,0 L3.55427455,0 C1.59863214,0 0,1.63766426 0,3.64105553 L0,13.3589445 C0,15.3605341 1.59863214,17 3.55427455,17 L14.4457255,17 C16.3996092,17 18,15.3623357 18,13.3589445 L18,3.64105553 C17.9982413,1.63766426 16.3996092,0 14.4457255,0 Z M15.6820713,1.49173379 C16.1111871,1.49173379 16.4611627,1.84845273 16.4611627,2.28984739 C16.4611627,2.73124205 16.1129458,3.087961 15.6820713,3.087961 C15.2511969,3.087961 14.90298,2.73124205 14.90298,2.28984739 C14.90298,1.84845273 15.2529555,1.49173379 15.6820713,1.49173379 Z M2.42169028,1.49173379 C2.85256473,1.49173379 3.20078163,1.84845273 3.20078163,2.28984739 C3.20078163,2.73124205 2.85256473,3.087961 2.42169028,3.087961 C1.99081583,3.087961 1.64259893,2.73124205 1.64259893,2.28984739 C1.64259893,1.84845273 1.9925745,1.49173379 2.42169028,1.49173379 Z M2.42169028,15.106507 C1.99081583,15.106507 1.64259893,14.749788 1.64259893,14.3083934 C1.64259893,13.8669987 1.99081583,13.5102798 2.42169028,13.5102798 C2.85256473,13.5102798 3.20078163,13.8688003 3.20078163,14.3083934 C3.20078163,14.749788 2.85256473,15.106507 2.42169028,15.106507 L2.42169028,15.106507 Z M9.79228139,15.6686096 L8.09164631,15.6686096 C8.09164631,15.6686096 6.21866146,11.0006359 6.24855887,11.0006359 L7.78739619,11.0006359 L8.98329262,14.6200721 L10.1563263,11.0006359 L11.6951637,11.0006359 L9.79228139,15.6686096 L9.79228139,15.6686096 Z M15.6820713,15.106507 C15.2511969,15.106507 14.90298,14.749788 14.90298,14.3083934 C14.90298,13.8669987 15.2511969,13.5102798 15.6820713,13.5102798 C16.1111871,13.5102798 16.4611627,13.8669987 16.4611627,14.3083934 C16.4611627,14.749788 16.1129458,15.106507 15.6820713,15.106507 Z M16.459404,9.44044086 L10.5995115,9.44044086 C10.6012702,9.40981348 10.6047875,9.3791861 10.6047875,9.34855871 C10.6047875,9.10894447 10.553786,8.88374311 10.4640938,8.67835947 C10.4693698,8.60629504 10.4799218,8.46937262 10.4992672,8.33965663 C10.527406,8.15409072 12.0082071,6.29482832 12.228041,5.93270454 C12.4478749,5.57058075 12.2368344,5.59039847 12.2368344,5.59039847 C11.3487054,5.93270454 9.72369321,7.44966087 9.56189546,7.56676558 C9.42999511,7.66225095 9.1925745,7.69828317 9.10815828,7.70909284 C9.07122618,7.70729123 9.03605276,7.703688 8.99912066,7.703688 C8.11275037,7.703688 7.39345383,8.44054684 7.39345383,9.34855871 C7.39345383,9.3791861 7.39697118,9.40981348 7.39872985,9.44044086 L1.53883732,9.44044086 C1.53180264,9.30532005 1.5282853,9.17019924 1.5282853,9.03507842 C1.5282853,4.80849936 4.87327797,1.38183552 8.99912066,1.38183552 C13.1249634,1.38183552 16.469956,4.80849936 16.469956,9.03507842 C16.469956,9.17019924 16.4664387,9.30532005 16.459404,9.44044086 L16.459404,9.44044086 Z" id="形状"></path>
                        </g>
                    </g>
                </g>
            </g>
        </g>
    </g>
</svg>