<?xml version="1.0" encoding="UTF-8"?>
<svg width="40px" height="40px" viewBox="0 0 40 40" version="1.1" xmlns="http://www.w3.org/2000/svg" xmlns:xlink="http://www.w3.org/1999/xlink">
    <title>温度告警备份</title>
    <g id="页面-1" stroke="none" stroke-width="1" fill="none" fill-rule="evenodd">
        <g id="场区设备概览-实时数据备份" transform="translate(-660.000000, -381.000000)">
            <g id="编组-13" transform="translate(240.000000, 361.000000)">
                <g id="编组-6备份-2" transform="translate(400.000000, 0.000000)">
                    <g id="温度告警备份" transform="translate(20.000000, 20.000000)">
                        <circle id="椭圆形" stroke="#F7B500" stroke-width="2" cx="20" cy="20" r="19"></circle>
                        <path d="M21.2,23.0795454 L21.2,16.0909091 C21.2,15.4659091 20.66,14.9545454 20,14.9545454 C19.34,14.9545454 18.8,15.4659091 18.8,16.0909091 L18.8,23.0795454 C17.42,23.5340909 16.4,24.7840909 16.4,26.3181818 C16.4,28.1931818 18.02,29.7272727 20,29.7272727 C21.98,29.7272727 23.6,28.1931818 23.6,26.3181818 C23.6,24.8409091 22.58,23.5909091 21.2,23.0795454 Z M23.6,21.7727272 L23.6,10.4090909 C23.6,8.53409091 21.98,7 20,7 C18.02,7 16.4,8.53409091 16.4,10.4090909 L16.4,21.7727273 C14.96,22.7954545 14,24.4431818 14,26.3181818 C14,29.4431818 16.7,32 20,32 C23.3,32 26,29.4431818 26,26.3181818 C26,24.4431818 25.04,22.7954545 23.6,21.7727272 Z M20,30.8636364 C17.36,30.8636364 15.2,28.8181818 15.2,26.3181818 C15.2,24.6136363 16.16,23.1931818 17.6,22.3977273 L17.6,10.4090909 C17.6,9.15909092 18.68,8.13636364 20,8.13636364 C21.32,8.13636364 22.4,9.15909092 22.4,10.4090909 L22.4,22.3977273 C23.84,23.1931818 24.8,24.6704545 24.8,26.3181818 C24.8,28.8181818 22.64,30.8636364 20,30.8636364 Z" id="形状" fill="#F7B500" fill-rule="nonzero"></path>
                    </g>
                </g>
            </g>
        </g>
    </g>
</svg>