<?xml version="1.0" encoding="UTF-8"?>
<svg width="40px" height="40px" viewBox="0 0 40 40" version="1.1" xmlns="http://www.w3.org/2000/svg" xmlns:xlink="http://www.w3.org/1999/xlink">
    <title>温度</title>
    <g id="页面-1" stroke="none" stroke-width="1" fill="none" fill-rule="evenodd">
        <g id="场区设备概览-实时数据备份" transform="translate(-460.000000, -381.000000)" fill-rule="nonzero">
            <g id="编组-13" transform="translate(240.000000, 361.000000)">
                <g id="编组-6备份" transform="translate(200.000000, 0.000000)">
                    <g id="温度" transform="translate(20.000000, 20.000000)">
                        <circle id="椭圆形" stroke="#1DF5DD" stroke-width="2" cx="20" cy="20" r="19"></circle>
                        <path d="M21.2,24.0795454 L21.2,17.0909091 C21.2,16.4659091 20.66,15.9545454 20,15.9545454 C19.34,15.9545454 18.8,16.4659091 18.8,17.0909091 L18.8,24.0795454 C17.42,24.5340909 16.4,25.7840909 16.4,27.3181818 C16.4,29.1931818 18.02,30.7272727 20,30.7272727 C21.98,30.7272727 23.6,29.1931818 23.6,27.3181818 C23.6,25.8409091 22.58,24.5909091 21.2,24.0795454 Z M23.6,22.7727272 L23.6,11.4090909 C23.6,9.53409091 21.98,8 20,8 C18.02,8 16.4,9.53409091 16.4,11.4090909 L16.4,22.7727273 C14.96,23.7954545 14,25.4431818 14,27.3181818 C14,30.4431818 16.7,33 20,33 C23.3,33 26,30.4431818 26,27.3181818 C26,25.4431818 25.04,23.7954545 23.6,22.7727272 Z M20,31.8636364 C17.36,31.8636364 15.2,29.8181818 15.2,27.3181818 C15.2,25.6136363 16.16,24.1931818 17.6,23.3977273 L17.6,11.4090909 C17.6,10.1590909 18.68,9.13636364 20,9.13636364 C21.32,9.13636364 22.4,10.1590909 22.4,11.4090909 L22.4,23.3977273 C23.84,24.1931818 24.8,25.6704545 24.8,27.3181818 C24.8,29.8181818 22.64,31.8636364 20,31.8636364 Z" id="形状" fill="#1DF5DD"></path>
                    </g>
                </g>
            </g>
        </g>
    </g>
</svg>