<?xml version="1.0" encoding="UTF-8"?>
<svg width="60px" height="60px" viewBox="0 0 60 60" version="1.1" xmlns="http://www.w3.org/2000/svg" xmlns:xlink="http://www.w3.org/1999/xlink">
    <title>编组 9</title>
    <g id="页面-1" stroke="none" stroke-width="1" fill="none" fill-rule="evenodd">
        <g id="场区设备概览-实时数据备份" transform="translate(-1080.000000, -170.000000)">
            <g id="编组-8" transform="translate(240.000000, 79.000000)">
                <g id="编组-9" transform="translate(840.000000, 91.000000)">
                    <circle id="椭圆形备份-3" stroke="#4988FD" stroke-width="2" cx="30" cy="30" r="29"></circle>
                    <g id="191" transform="translate(18.000000, 18.000000)" fill-rule="nonzero">
                        <path d="M5.703125,13.59375 L19.296875,13.59375 C22.4465625,13.59375 25,16.1471875 25,19.296875 C25,22.4465625 22.4465625,25 19.296875,25 L5.703125,25 C2.55335937,25 0,22.4465625 0,19.296875 C0,16.1471875 2.55335937,13.59375 5.703125,13.59375 Z" id="路径" fill="#DFECFD"></path>
                        <path d="M19.296875,25 L5.703125,25 C2.5584375,25 0,22.4415625 0,19.296875 C0,16.1521875 2.5584375,13.59375 5.703125,13.59375 L19.296875,13.59375 C22.4415625,13.59375 25,16.1521875 25,19.296875 C25,22.4415625 22.4415625,25 19.296875,25 Z M5.703125,15.9375 C3.85078125,15.9375 2.34375,17.4445313 2.34375,19.296875 C2.34375,21.1492187 3.85078125,22.65625 5.703125,22.65625 L19.296875,22.65625 C21.1492187,22.65625 22.65625,21.1492187 22.65625,19.296875 C22.65625,17.4445313 21.1492187,15.9375 19.296875,15.9375 L5.703125,15.9375 Z" id="形状" fill="#DFECFD"></path>
                        <path d="M5.703125,0 L19.296875,0 C22.4465625,0 25,2.55335937 25,5.703125 C25,8.85289063 22.4465625,11.40625 19.296875,11.40625 L5.703125,11.40625 C2.55335937,11.40625 0,8.85289063 0,5.703125 C0,2.55335937 2.55335937,0 5.703125,0 Z" id="路径" fill="#4988FD"></path>
                        <path d="M19.296875,11.40625 L5.703125,11.40625 C2.5584375,11.40625 0,8.8478125 0,5.703125 C0,2.5584375 2.5584375,0 5.703125,0 L19.296875,0 C22.4415625,0 25,2.5584375 25,5.703125 C25,8.8478125 22.4415625,11.40625 19.296875,11.40625 Z M5.703125,2.34375 C3.85078125,2.34375 2.34375,3.85078125 2.34375,5.703125 C2.34375,7.55546875 3.85078125,9.0625 5.703125,9.0625 L19.296875,9.0625 C21.1492187,9.0625 22.65625,7.55546875 22.65625,5.703125 C22.65625,3.85078125 21.1492187,2.34375 19.296875,2.34375 L5.703125,2.34375 Z" id="形状" fill="#4988FD"></path>
                        <path d="M3.75,19.296875 C3.75,20.7207341 4.90426588,21.875 6.328125,21.875 C7.75198412,21.875 8.90625,20.7207341 8.90625,19.296875 C8.90625,17.8730159 7.75198412,16.71875 6.328125,16.71875 C4.90426588,16.71875 3.75,17.8730159 3.75,19.296875 Z" id="路径" fill="#4988FD"></path>
                        <path d="M6.328125,21.875 C4.9065625,21.875 3.75,20.7184375 3.75,19.296875 C3.75,17.8753125 4.9065625,16.71875 6.328125,16.71875 C7.7496875,16.71875 8.90625,17.8753125 8.90625,19.296875 C8.90625,20.7184375 7.7496875,21.875 6.328125,21.875 Z M6.328125,18.28125 C5.768125,18.28125 5.3125,18.736875 5.3125,19.296875 C5.3125,19.856875 5.768125,20.3125 6.328125,20.3125 C6.888125,20.3125 7.34375,19.856875 7.34375,19.296875 C7.34375,18.736875 6.888125,18.28125 6.328125,18.28125 Z" id="形状" fill="#4988FD"></path>
                        <path d="M16.09375,5.703125 C16.09375,7.12698412 17.2480159,8.28125 18.671875,8.28125 C20.0957341,8.28125 21.25,7.12698412 21.25,5.703125 C21.25,4.27926588 20.0957341,3.125 18.671875,3.125 C17.2480159,3.125 16.09375,4.27926588 16.09375,5.703125 Z" id="路径" fill="#DFECFD"></path>
                    </g>
                </g>
            </g>
        </g>
    </g>
</svg>