<?xml version="1.0" encoding="UTF-8"?>
<svg width="40px" height="40px" viewBox="0 0 40 40" version="1.1" xmlns="http://www.w3.org/2000/svg" xmlns:xlink="http://www.w3.org/1999/xlink">
    <title>dian告警</title>
    <g id="页面-1" stroke="none" stroke-width="1" fill="none" fill-rule="evenodd">
        <g id="场区设备概览-实时数据备份" transform="translate(-260.000000, -381.000000)">
            <g id="编组-13" transform="translate(240.000000, 361.000000)">
                <g id="dian告警" transform="translate(20.000000, 20.000000)">
                    <circle id="椭圆形" stroke="#FF5656" stroke-width="2" cx="20" cy="20" r="19"></circle>
                    <path d="M26.519643,17.5299471 L23.8762708,17.5299471 C23.3089717,17.5299471 21.7036361,17.8154306 21.1604774,17.4678855 C21.0518456,17.0706911 21.4018812,16.3507761 21.4984428,16.003231 C21.7760572,14.9978326 22.0416015,14.0048465 22.3192159,12.9870358 L23.5020948,8.6054847 C23.6590073,8.0345177 22.9347957,7.78627118 22.6330409,8.22070259 L13.0734482,21.712901 C12.8561847,22.0232091 13.1579396,22.4576406 13.495905,22.4576406 L17.3704368,22.4576406 C17.6359811,22.4576406 18.6619475,22.283868 18.8309302,22.5445268 C18.9878427,22.7555364 18.6860879,23.4133897 18.6257369,23.6492239 C17.9015253,26.2309877 17.2014541,28.8127515 16.501383,31.3945153 C16.3444705,31.9654823 17.068682,32.2137288 17.3704368,31.7792974 L26.9179593,18.287099 C27.147293,17.9643785 26.8576084,17.5299471 26.519643,17.5299471 Z" id="路径" fill="#FF5656" fill-rule="nonzero"></path>
                </g>
            </g>
        </g>
    </g>
</svg>