<?xml version="1.0" encoding="UTF-8"?>
<svg width="40px" height="40px" viewBox="0 0 40 40" version="1.1" xmlns="http://www.w3.org/2000/svg" xmlns:xlink="http://www.w3.org/1999/xlink">
    <title>a相电压告警</title>
    <g id="页面-1" stroke="none" stroke-width="1" fill="none" fill-rule="evenodd">
        <g id="场区设备概览-实时数据备份" transform="translate(-260.000000, -681.000000)">
            <g id="编组-13" transform="translate(240.000000, 361.000000)">
                <g id="编组-6备份-18" transform="translate(0.000000, 300.000000)">
                    <g id="a相电压告警" transform="translate(20.000000, 20.000000)">
                        <circle id="椭圆形" stroke="#FF5656" stroke-width="2" cx="20" cy="20" r="19"></circle>
                        <g id="dianyabiao" transform="translate(11.000000, 12.000000)" fill="#FF5656" fill-rule="nonzero">
                            <path d="M9.01482148,2 C8.80383341,2 8.62946311,2.1763164 8.62946311,2.3935952 L8.62946311,4.21375036 C8.62946311,4.42924818 8.80208971,4.60734555 9.01482148,4.60734555 C9.22580954,4.60734555 9.40017984,4.43102915 9.40017984,4.21375036 L9.40017984,2.3935952 C9.40017984,2.17809737 9.22755324,2 9.01482148,2 Z M6.10109376,3.07748911 C5.99472788,2.89048687 5.75932798,2.82459084 5.57449546,2.93323024 C5.39140664,3.04186964 5.32688963,3.28408207 5.43325551,3.47108431 L6.32428775,5.04724607 C6.43065363,5.23424831 6.66605354,5.30014434 6.85088605,5.19150494 C7.03397487,5.08286554 7.09849188,4.84243409 6.992126,4.65365087 L6.10109376,3.07748911 Z M5.12287638,6.26543211 L3.57795552,5.35535453 C3.39486671,5.24671513 3.1577231,5.31261116 3.05135722,5.4996134 C2.94499133,5.68661564 3.00950835,5.92882807 3.19259716,6.03746747 L4.73577432,6.94754505 C4.91886313,7.05618445 5.15600674,6.99028842 5.26237262,6.80328618 C5.3687385,6.61628393 5.3059652,6.3740715 5.12287638,6.26543211 Z M12.4272482,2.93323024 C12.2441594,2.82459084 12.0070158,2.89048687 11.9006499,3.07748911 L11.0096177,4.65365087 C10.9032518,4.84065311 10.9677688,5.08286554 11.1508576,5.19150494 C11.3339465,5.30014434 11.5710901,5.23424831 11.677456,5.04724607 L12.5684882,3.47108431 C12.6731104,3.28408207 12.6103371,3.04186964 12.4272482,2.93323024 Z M12.7376274,6.80328618 C12.8439933,6.99028842 13.0793932,7.05618445 13.2642257,6.94754505 L14.8074028,6.03746747 C14.9904917,5.92882807 15.0550087,5.68661564 14.9486428,5.4996134 C14.8422769,5.31261116 14.6051333,5.24671513 14.4220445,5.35535453 L12.8788673,6.26543211 C12.6957785,6.3740715 12.6330052,6.61628393 12.7376274,6.80328618 Z" id="形状"></path>
                            <path d="M14.4457255,0 L3.55427455,0 C1.59863214,0 0,1.54133107 0,3.42687579 L0,12.5731242 C0,14.4569733 1.59863214,16 3.55427455,16 L14.4457255,16 C16.3996092,16 18,14.4586689 18,12.5731242 L18,3.42687579 C17.9982413,1.54133107 16.3996092,0 14.4457255,0 Z M15.6820713,1.40398474 C16.1111871,1.40398474 16.4611627,1.73972022 16.4611627,2.15515049 C16.4611627,2.57058075 16.1129458,2.90631624 15.6820713,2.90631624 C15.2511969,2.90631624 14.90298,2.57058075 14.90298,2.15515049 C14.90298,1.73972022 15.2529555,1.40398474 15.6820713,1.40398474 Z M2.42169028,1.40398474 C2.85256473,1.40398474 3.20078163,1.73972022 3.20078163,2.15515049 C3.20078163,2.57058075 2.85256473,2.90631624 2.42169028,2.90631624 C1.99081583,2.90631624 1.64259893,2.57058075 1.64259893,2.15515049 C1.64259893,1.73972022 1.9925745,1.40398474 2.42169028,1.40398474 Z M2.42169028,14.2178889 C1.99081583,14.2178889 1.64259893,13.8821535 1.64259893,13.4667232 C1.64259893,13.0512929 1.99081583,12.7155574 2.42169028,12.7155574 C2.85256473,12.7155574 3.20078163,13.0529886 3.20078163,13.4667232 C3.20078163,13.8821535 2.85256473,14.2178889 2.42169028,14.2178889 L2.42169028,14.2178889 Z M9.79228139,14.7469267 L8.09164631,14.7469267 C8.09164631,14.7469267 6.21866146,10.3535396 6.24855887,10.3535396 L7.78739619,10.3535396 L8.98329262,13.7600678 L10.1563263,10.3535396 L11.6951637,10.3535396 L9.79228139,14.7469267 L9.79228139,14.7469267 Z M15.6820713,14.2178889 C15.2511969,14.2178889 14.90298,13.8821535 14.90298,13.4667232 C14.90298,13.0512929 15.2511969,12.7155574 15.6820713,12.7155574 C16.1111871,12.7155574 16.4611627,13.0512929 16.4611627,13.4667232 C16.4611627,13.8821535 16.1129458,14.2178889 15.6820713,14.2178889 Z M16.459404,8.88512081 L10.5995115,8.88512081 C10.6012702,8.85629504 10.6047875,8.82746927 10.6047875,8.79864349 C10.6047875,8.57312421 10.553786,8.36116999 10.4640938,8.16786774 C10.4693698,8.10004239 10.4799218,7.97117423 10.4992672,7.8490886 C10.527406,7.67443832 12.0082071,5.9245443 12.228041,5.58372192 C12.4478749,5.24289953 12.2368344,5.2615515 12.2368344,5.2615515 C11.3487054,5.58372192 9.72369321,7.01144553 9.56189546,7.12166172 C9.42999511,7.21153031 9.1925745,7.24544298 9.10815828,7.25561679 C9.07122618,7.25392115 9.03605276,7.25052989 8.99912066,7.25052989 C8.11275037,7.25052989 7.39345383,7.94404409 7.39345383,8.79864349 C7.39345383,8.82746927 7.39697118,8.85629504 7.39872985,8.88512081 L1.53883732,8.88512081 C1.53180264,8.75794828 1.5282853,8.63077575 1.5282853,8.50360322 C1.5282853,4.52564646 4.87327797,1.30055108 8.99912066,1.30055108 C13.1249634,1.30055108 16.469956,4.52564646 16.469956,8.50360322 C16.469956,8.63077575 16.4664387,8.75794828 16.459404,8.88512081 L16.459404,8.88512081 Z" id="形状"></path>
                        </g>
                    </g>
                </g>
            </g>
        </g>
    </g>
</svg>