<?xml version="1.0" encoding="UTF-8"?>
<svg width="40px" height="40px" viewBox="0 0 40 40" version="1.1" xmlns="http://www.w3.org/2000/svg" xmlns:xlink="http://www.w3.org/1999/xlink">
    <title>开关</title>
    <g id="页面-1" stroke="none" stroke-width="1" fill="none" fill-rule="evenodd">
        <g id="场区设备概览-实时数据备份" transform="translate(-1260.000000, -381.000000)">
            <g id="编组-13" transform="translate(240.000000, 361.000000)">
                <g id="编组-6备份-5" transform="translate(1000.000000, 0.000000)">
                    <g id="开关" transform="translate(20.000000, 20.000000)">
                        <circle id="椭圆形" stroke="#1DF5DD" stroke-width="2" cx="20" cy="20" r="19"></circle>
                        <g id="191" transform="translate(12.000000, 12.000000)" fill-rule="nonzero">
                            <path d="M3.65,9 L12.35,9 C14.3658,9 16,10.5670411 16,12.5 C16,14.4329589 14.3658,16 12.35,16 L3.65,16 C1.63415,16 0,14.4329589 0,12.5 C0,10.5670411 1.63415,9 3.65,9 Z" id="路径" stroke="#1DF5DD"></path>
                            <path d="M3.65,0 L12.35,0 C14.3658,0 16,1.56699315 16,3.5 C16,5.43300685 14.3658,7 12.35,7 L3.65,7 C1.63415,7 0,5.43300685 0,3.5 C0,1.56699315 1.63415,0 3.65,0 Z" id="路径" fill="#1DF5DD"></path>
                            <path d="M12.35,7 L3.65,7 C1.6374,7 0,5.42989041 0,3.5 C0,1.57010959 1.6374,0 3.65,0 L12.35,0 C14.3626,0 16,1.57010959 16,3.5 C16,5.42989041 14.3626,7 12.35,7 Z M3.65,1.43835616 C2.4645,1.43835616 1.5,2.36321918 1.5,3.5 C1.5,4.63678082 2.4645,5.56164384 3.65,5.56164384 L12.35,5.56164384 C13.5355,5.56164384 14.5,4.63678082 14.5,3.5 C14.5,2.36321918 13.5355,1.43835616 12.35,1.43835616 L3.65,1.43835616 Z" id="形状" fill="#1DF5DD"></path>
                            <path d="M3,12.5 C3,13.3284271 3.67157288,14 4.5,14 C5.32842712,14 6,13.3284271 6,12.5 C6,11.6715729 5.32842712,11 4.5,11 C3.67157288,11 3,11.6715729 3,12.5 Z" id="路径" fill="#1DF5DD"></path>
                            <path d="M4.5,14 C3.67290909,14 3,13.3270909 3,12.5 C3,11.6729091 3.67290909,11 4.5,11 C5.32709091,11 6,11.6729091 6,12.5 C6,13.3270909 5.32709091,14 4.5,14 Z M4.5,11.9090909 C4.17418182,11.9090909 3.90909091,12.1741818 3.90909091,12.5 C3.90909091,12.8258182 4.17418182,13.0909091 4.5,13.0909091 C4.82581818,13.0909091 5.09090909,12.8258182 5.09090909,12.5 C5.09090909,12.1741818 4.82581818,11.9090909 4.5,11.9090909 Z" id="形状" fill="#1DF5DD"></path>
                            <path d="M10,3.5 C10,4.32842712 10.6715729,5 11.5,5 C12.3284271,5 13,4.32842712 13,3.5 C13,2.67157288 12.3284271,2 11.5,2 C10.6715729,2 10,2.67157288 10,3.5 Z" id="路径" fill="#DFECFD"></path>
                        </g>
                    </g>
                </g>
            </g>
        </g>
    </g>
</svg>