<?xml version="1.0" encoding="UTF-8"?>
<svg width="60px" height="60px" viewBox="0 0 60 60" version="1.1" xmlns="http://www.w3.org/2000/svg" xmlns:xlink="http://www.w3.org/1999/xlink">
    <title>编组 28</title>
    <g id="页面-1" stroke="none" stroke-width="1" fill="none" fill-rule="evenodd">
        <g id="场区设备概览-实时数据备份" transform="translate(-643.000000, -215.000000)">
            <g id="编组-8" transform="translate(240.000000, 79.000000)">
                <g id="编组-28" transform="translate(403.000000, 136.000000)">
                    <circle id="椭圆形备份-3" stroke="#426AFF" stroke-width="2" cx="30" cy="30" r="29"></circle>
                    <g id="xiangmu" transform="translate(18.000000, 19.000000)" fill="#426AFF" fill-rule="nonzero">
                        <path d="M18.5066898,11.3424563 L10.4893512,11.3424563 C9.82123971,11.3424563 9.28675047,10.7964487 9.28675047,10.1139391 C9.28675047,9.43142948 9.82123971,8.8854218 10.4893512,8.8854218 L18.5066898,8.8854218 C19.1748013,8.8854218 19.7092906,9.43142948 19.7092906,10.1139391 C19.7092906,10.7964487 19.1748013,11.3424563 18.5066898,11.3424563 Z M4.81040312,14.9597572 C4.81040312,15.7105178 5.34489236,16.2565254 6.07981506,16.2565254 C6.81473775,16.2565254 7.34922699,15.6422668 7.34922699,14.9597572 C7.34922699,14.2772476 6.81473775,13.662989 6.07981506,13.662989 C5.34489236,13.662989 4.81040312,14.2089966 4.81040312,14.9597572 L4.81040312,14.9597572 Z M4.81040312,10.1139391 C4.81040312,10.8646996 5.34489236,11.4107073 6.07981506,11.4107073 C6.81473775,11.4107073 7.34922699,10.7964487 7.34922699,10.1139391 C7.34922699,9.43142948 6.81473775,8.81717084 6.07981506,8.81717084 C5.34489236,8.81717084 4.81040312,9.43142948 4.81040312,10.1139391 L4.81040312,10.1139391 Z M18.5066898,16.1882745 L10.4893512,16.1882745 C9.82123971,16.1882745 9.28675047,15.6422668 9.28675047,14.9597572 C9.28675047,14.2772476 9.82123971,13.7312399 10.4893512,13.7312399 L18.5066898,13.7312399 C19.1748013,13.7312399 19.7092906,14.2772476 19.7092906,14.9597572 C19.7092906,15.6422668 19.1748013,16.1882745 18.5066898,16.1882745 Z M23.9852045,20.1468301 L23.9852045,4.79036423 C23.9852045,2.94758832 22.3149256,3.08409024 22.3149256,3.08409024 L12.8945528,3.08409024 C12.3600636,3.08409024 12.0260078,2.8110864 12.0260078,2.8110864 C12.0260078,2.8110864 11.6251409,2.1285768 10.8902182,1.03656145 C10.2221066,-0.191955824 9.35356162,0.0127970549 9.35356162,0.0127970549 L2.07114579,0.0127970549 C0,0.0127970549 0,1.99207488 0,1.99207488 L0,20.0103282 C0,22.2626099 1.67027886,21.989606 1.67027886,21.989606 L22.5153591,21.989606 C24.2524491,21.989606 23.9852045,20.1468301 23.9852045,20.1468301 L23.9852045,20.1468301 Z" id="形状"></path>
                    </g>
                </g>
            </g>
        </g>
    </g>
</svg>