<?xml version="1.0" encoding="UTF-8"?>
<svg width="18px" height="18px" viewBox="0 0 18 18" version="1.1" xmlns="http://www.w3.org/2000/svg" xmlns:xlink="http://www.w3.org/1999/xlink">
    <title>download</title>
    <g id="页面-1" stroke="none" stroke-width="1" fill="none" fill-rule="evenodd">
        <g id="场区设备概览-实时数据备份" transform="translate(-1346.000000, -1582.000000)" fill="#1DF5DD" fill-rule="nonzero">
            <g id="编组-31" transform="translate(240.000000, 1507.000000)">
                <g id="图表" transform="translate(610.000000, 46.000000)">
                    <g id="编组-22" transform="translate(26.000000, 29.000000)">
                        <g id="download" transform="translate(470.000000, 0.000000)">
                            <polygon id="路径" points="8.75312176 10.8418763 11.4694631 8.12553492 12.2969641 8.95303393 8.91011777 12.3398802 8.75320559 12.4967924 8.75312176 12.4967086 8.75303793 12.4967924 5.20928145 8.95303393 6.03678244 8.12553492"></polygon>
                            <polygon id="路径" points="8.12553492 0.00748503906 9.37446506 0.00748503906 9.37446506 11.2478623 8.12553492 11.2478623 8.12553492 0.00748503906"></polygon>
                            <path d="M1.25641574,8.12553465 L1.25641574,15.6194795 C1.25641574,15.9639321 1.53570035,16.2435843 1.87868951,16.2435843 L15.6213105,16.2435843 C15.9616358,16.2435843 16.2435843,15.9619393 16.2435843,15.6194795 L16.2435843,8.12553465 L16.8680496,8.12553465 L17.492515,8.12553465 L17.492515,15.6194795 C17.492515,16.6539284 16.6491756,17.492515 15.6213105,17.492515 L1.87868951,17.492515 C0.845251816,17.492515 0.00748503906,16.6530145 0.00748503906,15.6194795 L0.00748503906,8.12553465 L0.631950391,8.12553465 L1.25641574,8.12553465 Z" id="路径"></path>
                        </g>
                    </g>
                </g>
            </g>
        </g>
    </g>
</svg>