<?xml version="1.0" encoding="UTF-8"?>
<svg width="40px" height="40px" viewBox="0 0 40 40" version="1.1" xmlns="http://www.w3.org/2000/svg" xmlns:xlink="http://www.w3.org/1999/xlink">
    <title>编组 33</title>
    <g id="页面-1" stroke="none" stroke-width="1" fill="none" fill-rule="evenodd">
        <g id="场区设备概览-实时数据备份" transform="translate(-1260.000000, -681.000000)">
            <g id="编组-13" transform="translate(240.000000, 361.000000)">
                <g id="编组-6备份-25" transform="translate(1000.000000, 300.000000)">
                    <g id="编组-33" transform="translate(20.000000, 20.000000)">
                        <circle id="椭圆形" stroke="#FF5656" stroke-width="2" cx="20" cy="20" r="19"></circle>
                        <path d="M32.7,21.2857143 L28.54,21.2857143 L26.2,12.0285714 C25.94,11.5142857 25.42,11 24.9,11 C24.38,11 23.86,11.2571429 23.6,11.7714286 L19.96,23.0857143 L18.4,17.1714286 C18.14,16.6571429 17.62,16.1428571 17.1,16.1428571 C16.58,16.1428571 16.06,16.4 15.8,16.9142857 L13.72,21.2857143 L9.3,21.2857143 C8.52,21.2857143 8,22.0571429 8,22.5714286 C8,23.3428571 8.52,23.8571429 9.3,23.8571429 L14.5,23.8571429 C15.02,23.8571429 15.54,23.6 15.54,23.0857143 L16.58,21.0285714 L18.4,27.9714286 C18.66,28.4857143 18.92,29 19.7,29 C20.22,29 20.74,28.7428571 21,28.2285714 L24.64,16.9142857 L26.2,22.8285714 C26.46,23.3428571 26.98,23.8571429 27.5,23.8571429 L32.7,23.8571429 C33.48,23.8571429 34,23.0857143 34,22.5714286 C34,21.8 33.48,21.2857143 32.7,21.2857143 L32.7,21.2857143 Z" id="路径" fill="#FF5656" fill-rule="nonzero"></path>
                    </g>
                </g>
            </g>
        </g>
    </g>
</svg>