<?xml version="1.0" encoding="UTF-8"?>
<svg width="60px" height="60px" viewBox="0 0 60 60" version="1.1" xmlns="http://www.w3.org/2000/svg" xmlns:xlink="http://www.w3.org/1999/xlink">
    <title>编组 24</title>
    <g id="页面-1" stroke="none" stroke-width="1" fill="none" fill-rule="evenodd">
        <g id="场区设备概览-实时数据备份" transform="translate(-643.000000, -125.000000)">
            <g id="编组-8" transform="translate(240.000000, 79.000000)">
                <g id="编组-24" transform="translate(403.000000, 46.000000)">
                    <circle id="椭圆形备份-2" stroke="#40C3CB" stroke-width="2" cx="30" cy="30" r="29"></circle>
                    <g id="huabanfuben" transform="translate(18.000000, 18.000000)" fill="#1DF5DD" fill-rule="nonzero">
                        <path d="M15.8571429,10 C15.5540383,10 15.2633481,9.88239232 15.0490208,9.67304939 C14.8346935,9.46370646 14.7142857,9.17977651 14.7142857,8.8837209 C14.7142857,7.41952415 13.4990586,6.23255819 12,6.23255819 C10.5009414,6.23255819 9.28571434,7.41952415 9.2857143,8.8837209 C9.28571432,9.282529 9.06788698,9.6510429 8.71428574,9.85044696 C8.3606845,10.049851 7.9250298,10.049851 7.57142857,9.85044696 C7.21782733,9.6510429 7,9.282529 7,8.8837209 C7,6.18651632 9.23857625,4 12,4 C14.7614237,4 17,6.18651632 17,8.8837209 C17,9.5002248 16.4883254,10 15.8571429,10 L15.8571429,10 Z" id="路径"></path>
                        <path d="M19.789916,10 C19.4689817,10 19.1611921,9.87513264 18.9342573,9.6528673 C18.7073226,9.43060197 18.5798319,9.12914548 18.5798319,8.81481483 C18.579832,6.51243659 17.3257231,4.38495135 15.289916,3.23376222 C13.2541089,2.08257309 10.7458911,2.08257309 8.710084,3.23376222 C6.6742769,4.38495135 5.42016803,6.51243659 5.42016806,8.81481483 C5.42016806,9.46937453 4.87839499,10 4.21008403,10 C3.54177307,10 3,9.46937453 3,8.81481483 C3,5.66558483 4.71539025,2.75557628 7.5,1.18096126 C10.2846097,-0.393653754 13.7153903,-0.393653754 16.5,1.18096126 C19.2846097,2.75557628 21,5.66558483 21,8.81481483 C21,9.46937453 20.4582269,10 19.789916,10 L19.789916,10 Z" id="路径"></path>
                        <path d="M22.5,14.3117207 L13.2,14.3117207 L13.2,10.1970075 C13.2,9.5359185 12.6627417,9 12,9 C11.3372583,9 10.8,9.5359185 10.8,10.1970075 L10.8,14.3117207 L1.5,14.3117207 C0.671572871,14.3117207 0,14.9816188 0,15.80798 L0,22.5037407 C0,23.3301019 0.671572871,24 1.5,24 L22.5,24 C23.3284271,24 24,23.3301019 24,22.5037407 L24,15.80798 C24,14.9816188 23.3284271,14.3117207 22.5,14.3117207 L22.5,14.3117207 Z M3.69975,20.3528678 C3.0370083,20.3528678 2.49975,19.8169493 2.49975,19.1558604 C2.49975,18.4947714 3.03700828,17.9588529 3.69974998,17.9588529 C4.36249167,17.9588529 4.89974999,18.4947714 4.89974999,19.1558603 C4.89974999,19.4733265 4.7733218,19.77779 4.54827814,20.0022725 C4.32323449,20.2267549 4.01800979,20.3528678 3.69975,20.3528678 L3.69975,20.3528678 Z M7.33649998,20.3528678 C6.67375829,20.3528678 6.13650001,19.8169493 6.13650001,19.1558604 C6.13650001,18.4947714 6.67375831,17.9588529 7.3365,17.9588529 C7.99924169,17.9588529 8.53650001,18.4947714 8.53650001,19.1558603 C8.53650001,19.4733265 8.41007181,19.77779 8.18502815,20.0022725 C7.95998449,20.2267549 7.65475978,20.3528678 7.33649998,20.3528678 L7.33649998,20.3528678 Z" id="形状"></path>
                    </g>
                </g>
            </g>
        </g>
    </g>
</svg>