<?xml version="1.0" encoding="UTF-8"?>
<svg width="11px" height="12px" viewBox="0 0 11 12" version="1.1" xmlns="http://www.w3.org/2000/svg" xmlns:xlink="http://www.w3.org/1999/xlink">
    <title>编组 16</title>
    <g id="页面-1" stroke="none" stroke-width="1" fill="none" fill-rule="evenodd">
        <g id="场区设备概览-实时数据备份" transform="translate(-696.000000, -318.000000)" fill="#F7B500" fill-rule="nonzero">
            <g id="编组-23" transform="translate(551.000000, 318.000000)">
                <g id="编组-16" transform="translate(145.000000, 0.000000)">
                    <path d="M5.52479352,-4.54747351e-13 C4.32589568,-0.0064717928 3.17248712,0.437524051 2.31404455,1.23602468 C1.4758347,2.026698 1.00286371,3.10372698 1,4.22830977 L1,10 L10,10 L10,4.22829822 C9.99896168,3.10218717 9.52316151,2.02381238 8.67974496,1.23601313 C7.83621491,0.448790534 6.70475688,0.00555142197 5.52478141,-4.54747351e-13 L5.52479352,-4.54747351e-13 Z M5.22941565,8 L5.10588538,5.33769643 L3,5.33769643 L5.76469047,2 L5.99998622,4.15009463 L8,4.21763721 L5.20586309,8 L5.22941565,8 Z M0.189441968,11.1473917 C0.3122626,11.0530621 0.479523413,11 0.654018176,11 L10.3460094,11 C10.5189837,11.0016392 10.6844648,11.0539796 10.808011,11.1461276 C10.9294575,11.2418141 10.9981561,11.3692559 11,11.5022831 C11,11.7771611 10.7072003,12 10.3460094,12 L0.654018176,12 C0.292827237,12 -5.23773383e-05,11.7771611 -5.23773383e-05,11.5022831 C-0.0015733049,11.3694925 0.0666213358,11.2417214 0.189441968,11.1473917 Z" id="形状"></path>
                </g>
            </g>
        </g>
    </g>
</svg>