<?xml version="1.0" encoding="UTF-8"?>
<svg width="63px" height="76px" viewBox="0 0 63 76" version="1.1" xmlns="http://www.w3.org/2000/svg" xmlns:xlink="http://www.w3.org/1999/xlink">
    <title>编组 7</title>
    <g id="页面-1" stroke="none" stroke-width="1" fill="none" fill-rule="evenodd">
        <g id="场区设备概览-实时数据备份" transform="translate(-260.000000, -137.000000)">
            <g id="编组-8" transform="translate(240.000000, 79.000000)">
                <g id="编组-7" transform="translate(20.000000, 58.000000)">
                    <path d="M63,73.5 C63,74.8807119 61.8807119,76 60.5,76 L2.5,76 C1.11928813,76 1.69088438e-16,74.8807119 0,73.5 C-1.69088438e-16,72.1192881 1.11928813,71 2.5,71 L60.5,71 C61.8807119,71 63,72.1192881 63,73.5 Z" id="直线-2" fill="#35EEEA" fill-rule="nonzero"></path>
                    <path d="M28.7423387,13.3539671 C29.4884562,12.043973 31.1169286,11.6095125 32.3796337,12.3835724 C33.595572,13.1289635 34.0289377,14.7232025 33.3931229,16.0100354 L33.3149985,16.1570861 L27.3125464,26.6942616 L36.3399437,26.6942616 C38.4028925,26.6942616 39.6590806,29.0160606 38.6378681,30.8308836 L38.5590596,30.9627297 L31.7189296,41.7579735 C30.9132872,43.0294561 29.266653,43.3826351 28.0410692,42.546821 C26.8608774,41.7419629 26.5014868,40.1280492 27.1958853,38.8742295 L27.280698,38.7312226 L31.4155065,32.2044469 L22.6596839,32.2044469 C20.6535944,32.2044469 19.3900255,29.9961762 20.3009362,28.1830014 L20.3733541,28.0477947 L28.7423387,13.3539671 Z" id="路径-2" fill="#2294FF" fill-rule="nonzero"></path>
                    <path d="M42.4642857,50 L42.4642857,59.625 L60.8125,59.625 C62.0206229,59.625 63,60.6043771 63,61.8125 C63,63.0206229 62.0206229,64 60.8125,64 L38,64 L38,64 L38,50 L42.4642857,50 Z" id="路径" fill="#35EEEA"></path>
                    <path d="M20.5357143,50 L20.5357143,59.625 L2.1875,59.625 C0.97937711,59.625 -1.47952383e-16,60.6043771 0,61.8125 C1.47952383e-16,63.0206229 0.97937711,64 2.1875,64 L25,64 L25,64 L25,50 L20.5357143,50 Z" id="路径" fill="#35EEEA"></path>
                    <circle id="椭圆形" stroke="#35EEEA" stroke-width="5" cx="30" cy="27" r="24.5"></circle>
                </g>
            </g>
        </g>
    </g>
</svg>