<?xml version="1.0" encoding="UTF-8"?>
<svg width="100px" height="100px" viewBox="0 0 100 100" version="1.1" xmlns="http://www.w3.org/2000/svg" xmlns:xlink="http://www.w3.org/1999/xlink">
    <title>雾霾@3x</title>
    <defs>
        <linearGradient x1="50%" y1="0%" x2="50%" y2="100%" id="linearGradient-1">
            <stop stop-color="#D6F1FF" offset="0%"></stop>
            <stop stop-color="#7DD4E4" offset="100%"></stop>
        </linearGradient>
    </defs>
    <g id="页面-1" stroke="none" stroke-width="1" fill="none" fill-rule="evenodd">
        <g id="天气icon" transform="translate(-503.000000, -199.000000)">
            <g id="雾霾" transform="translate(503.000000, 199.000000)">
                <rect id="矩形备份-3" opacity="0.100000001" x="0" y="0" width="100" height="100" rx="10"></rect>
                <path d="M62.5,68 C63.3284271,68 64,68.6715729 64,69.5 C64,70.3284271 63.3284271,71 62.5,71 L37.5,71 C36.6715729,71 36,70.3284271 36,69.5 C36,68.6715729 36.6715729,68 37.5,68 L62.5,68 Z M62.5,63 C63.3284271,63 64,63.6715729 64,64.5 C64,65.3284271 63.3284271,66 62.5,66 L37.5,66 C36.6715729,66 36,65.3284271 36,64.5 C36,63.6715729 36.6715729,63 37.5,63 L62.5,63 Z M52.1643236,29 C59.2007991,29 65.1840068,33.8996946 66.7608101,40.6067747 L66.833654,40.9327084 L66.886,41.1953303 L67.1953478,41.2961384 C71.0184222,42.6089136 73.7508883,46.1466623 73.9838546,50.2983596 L73.9960349,50.5889888 L74,50.8751109 C74,56.3762869 69.6407349,60.8486887 64.2142121,60.9962407 L63.9373834,61 L37.3622866,61 C31.0898546,61 26,55.8848041 26,49.5682492 C26,43.2521834 31.0900856,38.1364984 37.3622866,38.1364984 C37.5663871,38.1364984 37.7700061,38.1419907 37.973011,38.1529168 L38.36,38.1809593 L38.5280828,37.7996314 C40.8432284,32.7243512 45.8079502,29.2761227 51.4738965,29.0158343 L51.8216507,29.0038949 L52.1643236,29 Z M52.1643236,32.040724 C47.0412795,32.040724 42.5459617,35.294871 40.85778,40.0475948 L40.7598751,40.3345425 L40.3421058,41.6108978 L39.041252,41.3464939 C38.4894914,41.2343463 37.9284169,41.1772224 37.3622866,41.1772224 C32.7412806,41.1772224 29,44.9373189 29,49.5682492 C29,54.1154271 32.6062159,57.8222736 37.1111075,57.9555648 L37.3622866,57.959276 L63.9373834,57.959276 C67.8405877,57.959276 71,54.7843175 71,50.8751109 C71,47.5510255 68.698912,44.7023856 65.522371,43.9733131 L65.2825112,43.9226325 L64.2093137,43.715266 L64.0748156,42.6163342 C63.3394121,36.6076401 58.2463519,32.040724 52.1643236,32.040724 Z" fill="url(#linearGradient-1)" fill-rule="nonzero"></path>
            </g>
        </g>
    </g>
</svg>