<?xml version="1.0" encoding="UTF-8"?>
<svg width="30px" height="30px" viewBox="0 0 30 30" version="1.1" xmlns="http://www.w3.org/2000/svg" xmlns:xlink="http://www.w3.org/1999/xlink">
    <!-- Generator: Sketch 60 (88103) - https://sketch.com -->
    <title>喷淋</title>
    <desc>Created with Sketch.</desc>
    <g id="场区设备概览" stroke="none" stroke-width="1" fill="none" fill-rule="evenodd">
        <g id="画板备份" transform="translate(-249.000000, -68.000000)" fill="#9EB6FB" fill-rule="nonzero">
            <path d="M258.269031,97.2222222 C257.482557,97.2222222 256.847157,96.5874173 256.847157,95.8016798 L256.847157,84.4107056 C256.847157,84.033374 256.998231,83.66936 257.269275,83.4030083 L260.153013,80.5441667 C260.419615,80.2822542 260.779526,80.1313216 261.152768,80.1313216 L265.3784,80.1313216 L265.3784,74.4491521 L258.79779,74.4491521 L252.621525,79.7717468 L252.621525,95.8016798 C252.621525,96.5874173 251.986126,97.2222222 251.199652,97.2222222 C250.413178,97.2222222 249.777778,96.5874173 249.777778,95.8016798 L249.777778,79.1191852 C249.777778,78.70634 249.959955,78.3112517 250.27099,78.0449 L257.335926,71.9543245 C257.59364,71.7323647 257.922449,71.6080673 258.264587,71.6080673 L266.79583,71.6080673 C267.582304,71.6080673 268.217704,72.2428722 268.217704,73.0286097 L268.217704,81.551864 C268.217704,82.3376015 267.582304,82.9724064 266.79583,82.9724064 L261.739291,82.9724064 L259.690904,85.0011185 L259.690904,95.8016798 C259.690904,96.5874173 259.055504,97.2222222 258.269031,97.2222222 Z M272.492212,74.4491521 C272.030103,74.4491521 271.576881,74.2227531 271.301393,73.809908 C270.870387,73.1529071 271.052565,72.2739465 271.710181,71.8433446 L276.020236,69.0111382 C276.677853,68.5805363 277.557638,68.7625433 277.988643,69.4195442 C278.419649,70.076545 278.237471,70.9555056 277.579854,71.3861075 L273.269799,74.2183139 C273.029858,74.3736857 272.758813,74.4491521 272.492212,74.4491521 Z M276.797824,78.7640496 L272.487769,78.7640496 C271.701295,78.7640496 271.065895,78.1292447 271.065895,77.3435072 C271.065895,76.5577697 271.701295,75.9229648 272.487769,75.9229648 L276.797824,75.9229648 C277.584298,75.9229648 278.219698,76.5577697 278.219698,77.3435072 C278.219698,78.1292447 277.584298,78.7640496 276.797824,78.7640496 L276.797824,78.7640496 Z M276.797824,85.8312479 C276.526779,85.8312479 276.255734,85.7557816 276.01135,85.5959706 L271.701295,82.7371291 C271.048121,82.3020879 270.870387,81.4231273 271.301393,80.7661265 C271.736842,80.1135648 272.616626,79.935997 273.274243,80.3665989 L277.584298,83.2254405 C278.237471,83.6604816 278.415205,84.5394422 277.9842,85.1964431 C277.708712,85.6092882 277.259933,85.8312479 276.797824,85.8312479 Z" id="喷淋"></path>
        </g>
    </g>
</svg>