<?xml version="1.0" encoding="UTF-8"?>
<svg width="20px" height="20px" viewBox="0 0 20 20" version="1.1" xmlns="http://www.w3.org/2000/svg" xmlns:xlink="http://www.w3.org/1999/xlink">
    <!-- Generator: Sketch 60 (88103) - https://sketch.com -->
    <title>形状</title>
    <desc>Created with Sketch.</desc>
    <g id="组件" stroke="none" stroke-width="1">
        <g id="编组-15">
            <path d="M5.97041207,20 C5.41742257,20 4.97065704,19.5536528 4.97065704,19.0011811 L4.97065704,10.9919023 C4.97065704,10.7265911 5.07688101,10.4706437 5.26745931,10.2833652 L7.29508749,8.27324224 C7.48254155,8.08908501 7.73560455,7.98296051 7.99804024,7.98296051 L10.9691872,7.98296051 L10.9691872,3.98768504 L6.34219597,3.98768504 L1.99951006,7.73013448 L1.99951006,19.0011811 C1.99951006,19.5536528 1.55274453,20 0.99975503,20 C0.446765529,20 0,19.5536528 0,19.0011811 L0,7.27130207 C0,6.98102033 0.128093613,6.70322384 0.346790026,6.5159453 L5.31432283,2.23350941 C5.49552843,2.07744396 5.72672178,1.99004731 5.96728784,1.99004731 L11.965818,1.99004731 C12.5188075,1.99004731 12.965573,2.43639449 12.965573,2.98886617 L12.965573,8.98177938 C12.965573,9.53425106 12.5188075,9.98059824 11.965818,9.98059824 L8.41043919,9.98059824 L6.9701671,11.4070364 L6.9701671,19.0011811 C6.9701671,19.5536528 6.52340157,20 5.97041207,20 Z M15.9710866,3.98768504 C15.6461662,3.98768504 15.3274943,3.82849828 15.1337918,3.53821655 C14.830741,3.07626282 14.9588346,2.45824365 15.4212213,2.15547668 L18.4517288,0.164081567 C18.9141155,-0.138685403 19.5327139,-0.010711735 19.8357646,0.451241991 C20.1388154,0.913195717 20.0107218,1.53121489 19.5483351,1.83398186 L16.5178276,3.82537698 C16.349119,3.93462279 16.1585407,3.98768504 15.9710866,3.98768504 Z M18.9984698,7.02159735 L15.9679624,7.02159735 C15.4149729,7.02159735 14.9682073,6.57525017 14.9682073,6.02277848 C14.9682073,5.4703068 15.4149729,5.02395962 15.9679624,5.02395962 L18.9984698,5.02395962 C19.5514593,5.02395962 19.9982248,5.4703068 19.9982248,6.02277848 C19.9982248,6.57525017 19.5514593,7.02159735 18.9984698,7.02159735 L18.9984698,7.02159735 Z M18.9984698,11.9907212 C18.8078915,11.9907212 18.6173132,11.937659 18.4454803,11.8252918 L15.4149729,9.81516887 C14.9557104,9.50928059 14.830741,8.89126142 15.1337918,8.42930769 C15.4399667,7.97047527 16.0585652,7.84562291 16.5209519,8.14838988 L19.5514593,10.1585129 C20.0107218,10.4644011 20.1356912,11.0824203 19.8326404,11.544374 C19.6389379,11.8346558 19.3233902,11.9907212 18.9984698,11.9907212 Z" id="形状"></path>
        </g>
    </g>
</svg>