<?xml version="1.0" encoding="UTF-8"?>
<svg width="10px" height="16px" viewBox="0 0 10 16" version="1.1" xmlns="http://www.w3.org/2000/svg" xmlns:xlink="http://www.w3.org/1999/xlink">
    <!-- Generator: Sketch 60 (88103) - https://sketch.com -->
    <title>温度</title>
    <desc>Created with Sketch.</desc>
    <g id="场区设备概览" stroke="none" stroke-width="1" fill="none" fill-rule="evenodd">
        <g id="场区设备概览备份" transform="translate(-984.000000, -130.000000)" fill="#1FBFFF" fill-rule="nonzero">
            <path d="M989,130 C990.559,130 991.829578,131.240224 991.84612,132.770508 L993.408784,132.770829 C993.679054,132.770829 993.898649,132.98691 993.898649,133.252857 C993.898649,133.518803 993.679054,133.734885 993.408784,133.734885 L991.846,133.734 L991.846,134.183 L993.408784,134.183669 C993.679054,134.183669 993.898649,134.399751 993.898649,134.665697 C993.898649,134.931643 993.679054,135.147725 993.408784,135.147725 L991.846,135.147 L991.846,135.596 L993.408784,135.596509 C993.679054,135.596509 993.898649,135.812591 993.898649,136.078537 C993.898649,136.344484 993.679054,136.560565 993.408784,136.560565 L991.846,136.56 L991.846284,137.047579 C993.199324,137.971743 994,139.459381 994,141.079992 C994,143.792645 991.756757,146 989,146 C986.243243,146 984,143.792645 984,141.079992 C984,139.459381 984.800676,137.971743 986.153716,137.045917 L986.153716,132.800748 C986.153716,131.256597 987.430743,130 989,130 Z M989,130.965718 C987.971284,130.965718 987.135135,131.78849 987.135135,132.800748 L987.135135,137.306877 C987.135135,137.474756 987.047297,137.629337 986.902027,137.717432 C985.699324,138.448785 984.981419,139.705381 984.981419,141.079992 C984.981419,143.260752 986.783784,145.034282 989,145.034282 C991.216216,145.034282 993.018581,143.260752 993.018581,141.079992 C993.018581,139.705381 992.300676,138.448785 991.097973,137.717432 C990.952947,137.629832 990.864652,137.474324 990.864865,137.306877 L990.864865,132.800748 C990.864865,131.78849 990.028716,130.965718 989,130.965718 Z M989.04223,131.810098 C989.3125,131.810098 989.532104,132.026179 989.532104,132.292125 L989.533293,138.831609 C990.600795,139.067527 991.400338,140.007415 991.400338,141.128194 C991.400338,142.426345 990.327703,143.48182 989.008446,143.48182 C987.689189,143.48182 986.616554,142.426345 986.616554,141.128194 C986.616554,139.983412 987.450711,139.027351 988.55255,138.817425 L988.552365,132.292125 C988.552365,132.026179 988.771959,131.810098 989.04223,131.810098 Z M989.008446,139.740287 C988.231419,139.740287 987.597973,140.363599 987.597973,141.128194 C987.597973,141.89279 988.22973,142.516102 989.008446,142.516102 C989.787162,142.516102 990.418919,141.894453 990.418919,141.128194 C990.418919,140.361936 989.785473,139.740287 989.008446,139.740287 Z" id="温度"></path>
        </g>
    </g>
</svg>