<?xml version="1.0" encoding="UTF-8"?>
<svg width="10px" height="16px" viewBox="0 0 10 16" version="1.1" xmlns="http://www.w3.org/2000/svg" xmlns:xlink="http://www.w3.org/1999/xlink">
    <!-- Generator: Sketch 60 (88103) - https://sketch.com -->
    <title>温度</title>
    <desc>Created with Sketch.</desc>
    <g id="集团运维地图" stroke="none" stroke-width="1" fill="none" fill-rule="evenodd">
        <g id="编组-49备份-3" transform="translate(-22.000000, -99.000000)" fill="#1FBFFF" fill-rule="nonzero">
            <g id="编组-47" transform="translate(20.000000, 99.000000)">
                <g id="编组-44" transform="translate(2.000000, 0.000000)">
                    <path d="M5,-6.83897383e-14 C6.55900018,-6.83897383e-14 7.82957814,1.2402243 7.8461204,2.77050762 L9.40878378,2.770829 C9.67905405,2.770829 9.89864865,2.98691045 9.89864865,3.25285685 C9.89864865,3.51880324 9.67905405,3.73488469 9.40878378,3.73488469 L7.846,3.734 L7.846,4.183 L9.40878378,4.18366923 C9.67905405,4.18366923 9.89864865,4.39975068 9.89864865,4.66569707 C9.89864865,4.93164347 9.67905405,5.14772491 9.40878378,5.14772491 L7.846,5.147 L7.846,5.596 L9.40878378,5.59650945 C9.67905405,5.59650945 9.89864865,5.8125909 9.89864865,6.07853729 C9.89864865,6.34448369 9.67905405,6.56056514 9.40878378,6.56056514 L7.846,6.56 L7.84628378,7.04757947 C9.19932432,7.9717432 10,9.45938084 10,11.0799917 C10,13.7926449 7.75675676,16 5,16 C2.24324324,16 -4.17443857e-14,13.7926449 -4.17443857e-14,11.0799917 C-4.17443857e-14,9.45938084 0.800675676,7.9717432 2.15371622,7.04591731 L2.15371622,2.80074797 C2.15371622,1.25659672 3.43074324,-6.83897383e-14 5,-6.83897383e-14 Z M5,0.965717847 C3.97128378,0.965717847 3.13513514,1.78848951 3.13513514,2.80074797 L3.13513514,7.30687721 C3.13513514,7.47475587 3.0472973,7.62933721 2.90202703,7.71743196 C1.69932432,8.44878454 0.981418919,9.70538126 0.981418919,11.0799917 C0.981418919,13.2607521 2.78378378,15.0342822 5,15.0342822 C7.21621622,15.0342822 9.01858108,13.2607521 9.01858108,11.0799917 C9.01858108,9.70538126 8.30067568,8.44878454 7.09797297,7.71743196 C6.95294744,7.62983178 6.8646522,7.47432442 6.86486486,7.30687721 L6.86486486,2.80074797 C6.86486486,1.78848951 6.02871622,0.965717847 5,0.965717847 Z M5.04222973,1.81009765 C5.3125,1.81009765 5.53210427,2.0261791 5.53210427,2.29212549 L5.53329325,8.83160925 C6.60079507,9.06752727 7.40033784,10.0074154 7.40033784,11.1281945 C7.40033784,12.4263453 6.3277027,13.4818201 5.00844595,13.4818201 C3.68918919,13.4818201 2.61655405,12.4263453 2.61655405,11.1281945 C2.61655405,9.98341166 3.45071125,9.027351 4.55255034,8.81742511 L4.55236486,2.29212549 C4.55236486,2.0261791 4.77195946,1.81009765 5.04222973,1.81009765 Z M5.00844595,9.74028672 C4.23141892,9.74028672 3.59797297,10.3635986 3.59797297,11.1281945 C3.59797297,11.8927904 4.22972973,12.5161022 5.00844595,12.5161022 C5.78716216,12.5161022 6.41891892,11.8944525 6.41891892,11.1281945 C6.41891892,10.3619364 5.78547297,9.74028672 5.00844595,9.74028672 Z" id="温度"></path>
                </g>
            </g>
        </g>
    </g>
</svg>