<?xml version="1.0" encoding="UTF-8"?>
<svg width="28px" height="25px" viewBox="0 0 28 25" version="1.1" xmlns="http://www.w3.org/2000/svg" xmlns:xlink="http://www.w3.org/1999/xlink">
    <!-- Generator: Sketch 60 (88103) - https://sketch.com -->
    <title>形状</title>
    <desc>Created with Sketch.</desc>
    <g id="环控数据报表" stroke="none" stroke-width="1" fill="none" fill-rule="evenodd">
        <path d="M25.0403721,0.75 C26.1467153,0.75 27.0572593,1.61244214 27.1343457,2.69966793 L27.1396315,2.84925939 L27.1396315,16.4104949 C27.1396315,17.5187358 26.2780609,18.4275472 25.1900773,18.5044793 L25.0403721,18.5097543 L14.793,18.509 L14.7934132,21.3203018 C17.1887033,21.3742838 19.5767385,21.6694641 21.8973379,22.2060074 L22.4945219,22.3497921 L22.5984652,22.3825144 C23.0004371,22.5372935 23.2321231,22.970902 23.1255642,23.4009432 C23.0102071,23.8664915 22.5401425,24.1480207 22.0736962,24.0324404 C16.7871209,22.7093394 11.0992903,22.7161367 5.79927352,24.0570663 C5.72774542,24.0689877 5.66705666,24.0751445 5.60553649,24.0751445 C5.21160147,24.0751445 4.86492747,23.8091204 4.76764536,23.4240275 C4.6477819,22.9611066 4.93140288,22.4862661 5.3945941,22.3704691 C7.89059751,21.7398299 10.4710703,21.3907135 13.0600227,21.3233281 L13.06,18.509 L2.84925939,18.5097543 C1.7429162,18.5097543 0.832372185,17.6473122 0.75528583,16.5600864 L0.75,16.4104949 L0.75,2.84925939 C0.75,1.7429162 1.61244214,0.832372185 2.69966793,0.75528583 L2.84925939,0.75 L25.0403721,0.75 Z M25.407,15.016 L2.482,15.016 L2.4828396,16.4104949 C2.4828396,16.5876189 2.6083963,16.7353161 2.775396,16.7694728 L2.84925939,16.7769147 L25.0403721,16.7769147 C25.2174961,16.7769147 25.3651933,16.651358 25.39935,16.484439 L25.407,16.4106153 L25.407,15.016 Z M25.0403721,2.4828396 L2.84925939,2.4828396 C2.67213545,2.4828396 2.52443825,2.6083963 2.49028151,2.77540916 L2.48283959,2.84927904 L2.482,13.283 L25.407,13.283 L25.407,2.84925939 C25.407,2.67213545 25.2812352,2.52443825 25.1142355,2.49028151 L25.0403721,2.4828396 Z M14.5277065,3.85343039 C14.8684574,3.85343039 15.1500611,4.10618162 15.1984456,4.43513632 L15.2057904,4.53593228 L15.206,4.887 L15.327204,4.93541364 C15.4725082,5.00056809 15.6136784,5.07741094 15.7502774,5.16521838 L15.9516931,5.30506249 L16.062,5.394 L16.5972665,5.08155622 C16.8596723,4.92875471 17.181155,4.97265677 17.3936867,5.16756695 L17.4679509,5.24764752 L17.5244281,5.3313817 L18.0524958,6.25384352 C18.2223441,6.55022787 18.1461257,6.92185888 17.8874207,7.12847443 L17.8043982,7.18526837 L17.276,7.494 L17.2912036,7.59779379 L17.3113139,7.79968826 L17.3180984,7.99710328 C17.3180984,8.12786461 17.3089699,8.25971593 17.291202,8.39644676 L17.276,8.501 L17.804287,8.80889176 C18.0662172,8.96114203 18.188904,9.26270066 18.1277757,9.54485259 L18.0961492,9.64942036 L18.0525198,9.74034169 L17.5243888,10.6628774 C17.3541912,10.9599111 16.995595,11.0795866 16.6878153,10.9568273 L16.5972451,10.9126615 L16.062,10.601 L15.9519776,10.6887573 C15.820176,10.7873156 15.6835028,10.8753074 15.542404,10.9520216 L15.3274922,11.0585456 L15.206,11.108 L15.2057812,11.458256 C15.2057812,11.7664414 15.0027751,12.0271926 14.7236583,12.1118233 L14.6279746,12.1333341 L14.5276974,12.1407397 L13.4715753,12.1407397 C13.1307999,12.1407397 12.8490126,11.8879805 12.8005949,11.5590453 L12.793245,11.458256 L12.794,11.108 L12.6716312,11.0585811 C12.5262878,10.9933455 12.3851533,10.9164736 12.2486339,10.8286591 L12.047367,10.6888173 L11.938,10.601 L11.4018321,10.9126371 C11.1396356,11.0654634 10.8182078,11.0215731 10.6055036,10.8266364 L10.531164,10.7465441 L10.4745999,10.662796 L9.94689695,9.74049734 C9.77682042,9.44423123 9.85304082,9.07254495 10.1116737,8.86579421 L10.1946721,8.80895742 L10.724,8.501 L10.7078431,8.39538575 L10.6877517,8.19371353 L10.6809735,7.99710328 C10.6809735,7.86698509 10.690091,7.73573013 10.7078418,7.59885438 L10.724,7.494 L10.1947218,7.18529634 C9.93292464,7.03295286 9.81024022,6.73132304 9.87145416,6.44929822 L9.9031171,6.34478777 L9.94678812,6.25393563 L10.4746953,5.3312283 C10.6451477,5.03428362 11.0037687,4.91461439 11.3112444,5.037362 L11.4017134,5.08152393 L11.938,5.394 L12.0476428,5.30501106 C12.1795597,5.20639852 12.3162182,5.11841379 12.4572159,5.04176556 L12.6719163,4.9353842 L12.794,4.887 L12.7932359,4.53593228 C12.7932359,4.22776659 12.9963914,3.9669906 13.2755753,3.88235026 L13.371278,3.86083697 L13.4715662,3.85343039 L14.5277065,3.85343039 Z M14.2635916,4.68595968 L13.7355168,4.68595968 C13.6853431,4.68595968 13.6425423,4.71901621 13.6274289,4.76531408 L13.6216027,4.80221063 L13.6216027,5.38826758 L13.5016203,5.53523337 C13.0386972,5.62978489 12.6154359,5.85674093 12.277022,6.1848141 L12.137314,6.33151652 L11.9491835,6.36210787 L11.2155485,5.9349641 C11.1749268,5.91134633 11.1257312,5.9159735 11.090379,5.94302754 L11.0604715,5.97734171 L10.7963149,6.43858884 C10.7723341,6.48045539 10.7770588,6.53128201 10.8041034,6.56757482 L10.8383514,6.59815288 L11.5749504,7.02688555 L11.6419041,7.20363679 C11.554732,7.46714129 11.5093403,7.73141124 11.5093403,7.99712154 C11.5093403,8.19638899 11.5348749,8.39485378 11.5844174,8.59281195 L11.6419061,8.79061222 L11.5749554,8.96735463 L10.8383797,9.3961117 C10.7971331,9.42012333 10.7761235,9.46639613 10.7816851,9.51163749 L10.7963383,9.55567235 L11.0605595,10.0170323 C11.0841461,10.0583066 11.129001,10.0791164 11.1728345,10.0735911 L11.2155021,10.0590701 L11.9489701,9.63213572 L12.1370554,9.66270112 C12.450405,10.0189197 12.854954,10.2785016 13.305787,10.4104204 L13.5017039,10.4590504 L13.621621,10.6060029 L13.621621,11.1920416 C13.621621,11.2436106 13.6544556,11.2870698 13.6996458,11.3023907 L13.7355351,11.3082925 L14.2636098,11.3082925 C14.3137718,11.3082925 14.3567315,11.275094 14.371909,11.2288529 L14.3777613,11.1920416 L14.3777613,10.6060029 L14.4976659,10.459053 C14.9606114,10.3642416 15.38381,10.1373268 15.7222984,9.80935366 L15.8620474,9.66269702 L16.0501278,9.6321349 L16.7836264,10.0590765 C16.8244321,10.0828332 16.8736292,10.0782762 16.9089731,10.0512323 L16.9388753,10.0169085 L17.2029743,9.55577807 C17.2269568,9.51382296 17.2222125,9.46299302 17.1952065,9.42670302 L17.1610194,9.39612686 L16.4241648,8.96736681 L16.3572327,8.79049284 C16.4445611,8.52721961 16.4900236,8.2629503 16.4900236,7.99712153 C16.4900236,7.79776762 16.4644503,7.59927265 16.4148221,7.40140898 L16.3572318,7.2037473 L16.4241672,7.02687486 L17.1608618,6.59822633 C17.2020501,6.57419261 17.2231098,6.52773736 17.2176095,6.48251589 L17.2030176,6.43858179 L16.9387828,5.97721389 C16.9151901,5.93592443 16.8702334,5.91506938 16.8263391,5.92049934 L16.7836295,5.93490766 L16.0501432,6.36209766 L15.8620253,6.33155075 C15.548564,5.97520298 15.1439775,5.71551376 14.6934676,5.58376842 L14.4977121,5.53523065 L14.377743,5.38826758 L14.377743,4.80221063 C14.377743,4.73769229 14.3264001,4.68595968 14.2635916,4.68595968 Z M13.9996866,6.51593071 C14.8118768,6.51593071 15.4697045,7.1793076 15.4697045,7.99713067 C15.4697045,8.8149717 14.8118771,9.47836713 13.9996866,9.47836713 C13.1872684,9.47836713 12.5293492,8.81500896 12.5293492,7.99713067 C12.5293492,7.17926431 13.1872565,6.51593071 13.9996866,6.51593071 Z M13.9996866,7.34840522 C13.6451938,7.34840522 13.3574604,7.63848609 13.3574604,7.99712154 C13.3574604,8.35576152 13.6451984,8.64585612 13.9996866,8.64585612 C14.3541576,8.64585612 14.6419127,8.35575119 14.6419127,7.99712154 C14.6419127,7.63849987 14.3541565,7.34840522 13.9996866,7.34840522 Z" id="形状" fill="#FFFFFF" fill-rule="nonzero"></path>
    </g>
</svg>