<?xml version="1.0" encoding="utf-8"?>
<!-- Generator: Adobe Illustrator 22.0.0, SVG Export Plug-In . SVG Version: 6.00 Build 0)  -->
<svg version="1.1" id="图层_1" xmlns="http://www.w3.org/2000/svg" xmlns:xlink="http://www.w3.org/1999/xlink" x="0px" y="0px"
	 viewBox="93.5 92 13 16" style="enable-background:new 93.5 92 13 16;" xml:space="preserve">

<g>
	<path class="st0" d="M100,93.2c0.6,0,1.1,0.5,1.1,1.1v0.3c1.8,0.4,3.4,1.9,3.4,3.7l0.4,3.9l0.4,0.9v0.1c0,0.4-0.3,0.8-0.7,0.8h-9.2
		c-0.4,0-0.7-0.4-0.7-0.8V103l0.4-0.9l0.4-3.9c0-1.8,1.7-3.3,3.4-3.7v-0.3C98.9,93.7,99.4,93.2,100,93.2 M100,92
		c-1,0-1.9,0.7-2.2,1.6c-0.8,0.3-1.5,0.8-2.1,1.4c-0.4,0.4-0.8,0.9-1,1.4c-0.3,0.6-0.4,1.1-0.4,1.7l-0.3,3.6l-0.3,0.7
		c-0.1,0.2-0.1,0.3-0.1,0.5v0.1c0,0.5,0.2,0.9,0.5,1.3c0.4,0.4,0.9,0.7,1.4,0.7h9.2c0.5,0,1-0.2,1.4-0.7c0.3-0.4,0.5-0.9,0.5-1.3
		V103c0-0.2,0-0.3-0.1-0.5l-0.3-0.7l-0.3-3.6c0-0.6-0.1-1.2-0.4-1.7c-0.2-0.5-0.6-1-1-1.4c-0.6-0.6-1.3-1.1-2.1-1.4
		C101.9,92.7,101,92,100,92z"/>
	<path class="st0" d="M100,108c-1.3,0-2.4-1.1-2.4-2.4h1.2c0,0.7,0.5,1.2,1.2,1.2s1.2-0.5,1.2-1.2h1.2
		C102.4,106.9,101.3,108,100,108z"/>
</g>
</svg>
