<?xml version="1.0" encoding="UTF-8"?>
<svg width="20px" height="20px" viewBox="0 0 20 20" version="1.1" xmlns="http://www.w3.org/2000/svg" xmlns:xlink="http://www.w3.org/1999/xlink">
    <title>形状</title>
    <defs>
        <linearGradient x1="50%" y1="0%" x2="50%" y2="100%" id="linearGradient-1">
            <stop stop-color="#FFFFFF" offset="0%"></stop>
            <stop stop-color="#50EEFF" offset="100%"></stop>
        </linearGradient>
    </defs>
    <g id="页面-1" stroke="none" stroke-width="1" fill="none" fill-rule="evenodd">
        <g id="单元驾驶舱" transform="translate(-801.000000, -722.000000)" fill="url(#linearGradient-1)" fill-rule="nonzero">
            <g id="icon/20/normal/environs" transform="translate(801.000000, 722.000000)">
                <path d="M1.61860238,13.7865535 L9.28657113,17.6184866 C9.73236883,17.8401639 10.2555391,17.8401639 10.7013368,17.6184866 L18.3763758,13.7865535 C18.7187406,13.5740692 19.1512384,13.5744988 19.4931847,13.7876626 C19.835131,14.0008264 20.0276829,14.3900428 19.990398,14.7927089 C19.9531131,15.195375 19.6924075,15.5421992 19.3171961,15.6882887 L11.6350672,19.5202414 C11.124694,19.7733751 10.5630918,19.9047528 9.99395394,19.9041572 C9.4248176,19.9047196 8.86321549,19.7733487 8.35284066,19.5202218 L0.677782064,15.6882887 C0.302570711,15.5421992 0.0418651132,15.195375 0.00458022697,14.7927089 C-0.0327046592,14.3900428 0.159847229,14.0008264 0.501793507,13.7876626 C0.843739784,13.5744988 1.2762376,13.5740692 1.61860238,13.7865535 Z M1.61860238,9.27925132 L9.28657113,13.1111648 C9.73323881,13.3290712 10.2546691,13.3290712 10.7013368,13.1111648 L18.3763758,9.27925132 C18.7187406,9.06676711 19.1512384,9.06719663 19.4931847,9.28036044 C19.835131,9.49352425 20.0276829,9.88274067 19.990398,10.2854068 C19.9531131,10.6880729 19.6924075,11.0348971 19.3171961,11.1809866 L11.6350672,15.0129197 C11.1246924,15.2660465 10.5630903,15.3974175 9.99395394,15.3968159 C9.42486123,15.3970344 8.86334465,15.2656835 8.35284066,15.0129197 L0.677782064,11.1809866 C0.302570711,11.0348971 0.0418651132,10.6880729 0.00458022697,10.2854068 C-0.0327046592,9.88274067 0.159847229,9.49352425 0.501793507,9.28036044 C0.843739784,9.06719663 1.2762376,9.06676711 1.61860238,9.27925132 Z M11.1858875,0.264627423 L19.0094813,4.0041257 C19.5542078,4.21616244 19.9132703,4.74289768 19.9132703,5.33001294 C19.9132703,5.91712821 19.5542274,6.44386345 19.0094813,6.65590019 L11.1858875,10.3953985 C10.430042,10.748235 9.55786589,10.748235 8.80202035,10.3953985 L0.978426596,6.65591982 C0.433700033,6.44386345 0.0746375332,5.91712821 0.0746375332,5.33001294 C0.0746375332,4.74289768 0.433680502,4.21616244 0.978426596,4.0041257 L8.80202035,0.264627423 C9.55786589,-0.0882091409 10.430042,-0.0882091409 11.1858875,0.264627423 Z" id="形状"></path>
            </g>
        </g>
    </g>
</svg>