<?xml version="1.0" encoding="UTF-8"?>
<svg width="20px" height="20px" viewBox="0 0 20 20" version="1.1" xmlns="http://www.w3.org/2000/svg" xmlns:xlink="http://www.w3.org/1999/xlink">
    <!-- Generator: Sketch 60 (88103) - https://sketch.com -->
    <title>单元巡栏</title>
    <desc>Created with Sketch.</desc>
    <g id="基础配置管理" stroke="none" stroke-width="1">
        <path d="M10,0 C15.5228475,0 20,4.4771525 20,10 C20,15.5228475 15.5228475,20 10,20 C4.4771525,20 0,15.5228475 0,10 C0,4.4771525 4.4771525,0 10,0 Z M16.471347,5.2956746 L14.2562325,7.37484522 C14.7278324,8.13783843 15,9.03713514 15,10 C15,12.7614237 12.7614237,15 10,15 C7.23857625,15 5,12.7614237 5,10 C5,9.74513679 5.01906866,9.4947273 5.05585709,9.25012041 L2.2025494,8.20332352 C2.0700175,8.78086015 2,9.38225334 2,10 C2,14.418278 5.581722,18 10,18 C14.418278,18 18,14.418278 18,10 C18,8.24174228 17.4327809,6.61596569 16.471347,5.2956746 Z M12.7472792,8.7929421 L10.684472,10.7290392 C10.6432761,10.7677167 10.5996702,10.802228 10.5541739,10.8325896 L10.4769572,10.879174 L10.4769572,10.879174 L10.3521296,10.9362301 L10.3521296,10.9362301 L10.2623032,10.9651716 L10.2623032,10.9651716 L10.1234407,10.9924216 L10.1234407,10.9924216 L10.0175327,10.9998537 L10.0175327,10.9998537 L9.9334785,10.9980462 L9.9334785,10.9980462 L9.83847898,10.9870555 L9.83847898,10.9870555 L9.74204634,10.9662979 L9.65536174,10.9387356 L7.00021222,9.96394427 L7,10 C7,11.6568542 8.34314575,13 10,13 C11.6568542,13 13,11.6568542 13,10 C13,9.5706038 12.9097866,9.16227806 12.7472792,8.7929421 Z M10,7 C9.07026807,7 8.23931709,7.42293149 7.68904181,8.0868997 L9.764,8.848 L11.3778703,7.33443878 C10.9652713,7.12072653 10.4967342,7 10,7 Z M10,2 C6.90636778,2 4.22287005,3.75599455 2.89186402,6.32562647 L5.74500958,7.37283678 C6.62616216,5.94873939 8.2022861,5 10,5 C11.0752408,5 12.0712095,5.33940423 12.886616,5.91692266 L15.1016827,3.83751268 C13.7169388,2.68985106 11.9390311,2 10,2 Z" id="单元巡栏"></path>
    </g>
</svg>