<?xml version="1.0" encoding="UTF-8"?>
<svg width="14px" height="14px" viewBox="0 0 14 14" version="1.1" xmlns="http://www.w3.org/2000/svg" xmlns:xlink="http://www.w3.org/1999/xlink">
    <title>形状</title>
    <g id="除臭墙" stroke="none" stroke-width="1" fill="none" fill-rule="evenodd">
        <g transform="translate(-754.000000, -234.000000)" fill="#1990FF" fill-rule="nonzero" id="编组-15备份">
            <g transform="translate(240.000000, 84.000000)">
                <g id="编组-13备份-15" transform="translate(494.000000, 142.000000)">
                    <path d="M31.9560219,10.0439781 C29.2307177,7.31867396 24.7692823,7.31867396 22.0439781,10.0439781 C19.318674,12.7692823 19.318674,17.2307177 22.0439781,19.9560219 C24.7692823,22.681326 29.2307177,22.681326 31.9560219,19.9560219 C34.681326,17.2307177 34.681326,12.7692823 31.9560219,10.0439781 Z M31.3981471,15.6586673 L22.6065409,15.6586673 C22.2658779,15.6586673 21.9877218,15.3805112 21.9877218,15.0398482 L21.9877218,14.9632772 C21.9877218,14.6226141 22.2658779,14.3444581 22.6065409,14.3444581 L31.3997098,14.3444581 C31.7403728,14.3444581 32.0185289,14.6226141 32.0185289,14.9632772 L32.0185289,15.0398482 C32.0169662,15.3805112 31.7388101,15.6586673 31.3981471,15.6586673 L31.3981471,15.6586673 Z" id="形状"></path>
                </g>
            </g>
        </g>
    </g>
</svg>