<?xml version="1.0" encoding="UTF-8"?>
<svg width="13px" height="16px" viewBox="0 0 13 16" version="1.1" xmlns="http://www.w3.org/2000/svg" xmlns:xlink="http://www.w3.org/1999/xlink">
    <!-- Generator: Sketch 60 (88103) - https://sketch.com -->
    <title>形状</title>
    <desc>Created with Sketch.</desc>
    <g id="页面-1" stroke="none" stroke-width="1" fill="none" fill-rule="evenodd">
        <g id="关注" transform="translate(-1650.000000, -174.000000)" fill="#CDD8F7" fill-rule="nonzero">
            <g id="编组-23">
                <g id="编组-29" transform="translate(280.000000, 172.000000)">
                    <g id="编组-24" transform="translate(1328.000000, 2.000000)">
                        <g id="编组-3">
                            <path d="M51.7379131,8.70931576 C52.8022768,8.70931576 53.7106369,9.4788122 53.8856172,10.528694 L54.2485053,12.706023 C54.446196,13.8921672 53.6448962,15.013987 52.458752,15.2116777 C52.3404546,15.2313939 52.2207305,15.2413026 52.1008013,15.2413026 L44.1773289,15.2413026 C42.9748234,15.2413026 42,14.2664792 42,13.0639736 C42,12.9440445 42.0099087,12.8243204 42.0296249,12.706023 L42.3925131,10.528694 C42.5674934,9.4788122 43.4758535,8.70931576 44.5402171,8.70931576 L51.7379131,8.70931576 Z M51.7379131,9.70931576 L44.5402171,9.70931576 C44.0058015,9.70931576 43.5441201,10.0680816 43.4051377,10.5738613 L43.378907,10.693093 L43.0160188,12.870422 C43.0053578,12.9343879 43,12.9991253 43,13.0639736 C43,13.6735557 43.4632786,14.1749332 44.0569539,14.2352242 L44.1773289,14.2413026 L52.1008013,14.2413026 C52.1656496,14.2413026 52.230387,14.2359447 52.294353,14.2252838 C52.8929686,14.1255145 53.3103115,13.5904539 53.2763866,12.9980952 L53.2621114,12.870422 L52.8992233,10.693093 C52.8113659,10.1659487 52.3815815,9.76952977 51.8598349,9.715588 L51.7379131,9.70931576 Z M48,0 C49.9329966,0 51.5,1.56700338 51.5,3.5 C51.5,5.43299662 49.9329966,7 48,7 C46.0670034,7 44.5,5.43299662 44.5,3.5 C44.5,1.56700338 46.0670034,0 48,0 Z M48,1 C46.6192881,1 45.5,2.11928813 45.5,3.5 C45.5,4.88071187 46.6192881,6 48,6 C49.3807119,6 50.5,4.88071187 50.5,3.5 C50.5,2.11928813 49.3807119,1 48,1 Z" id="形状"></path>
                        </g>
                    </g>
                </g>
            </g>
        </g>
    </g>
</svg>