<?xml version="1.0" encoding="UTF-8"?>
<svg width="13px" height="17px" viewBox="0 0 13 17" version="1.1" xmlns="http://www.w3.org/2000/svg" xmlns:xlink="http://www.w3.org/1999/xlink">
    <!-- Generator: Sketch 60 (88103) - https://sketch.com -->
    <title>形状</title>
    <desc>Created with Sketch.</desc>
    <g id="页面-1" stroke="none" stroke-width="1" fill="none" fill-rule="evenodd">
        <g id="关注" transform="translate(-1747.000000, -173.000000)" fill="#CDD8F7" fill-rule="nonzero">
            <g id="编组-23">
                <g id="编组-29" transform="translate(280.000000, 172.000000)">
                    <g id="编组-24" transform="translate(1328.000000, 1.000000)">
                        <g id="编组-3">
                            <path d="M149.357005,0.9 C150.245454,0.9 150.981989,1.56149384 151.057058,2.39930732 L151.063374,2.5404923 L151.063374,15.0004544 C151.027169,15.789804 150.371889,16.4301088 149.544811,16.4988175 L149.397164,16.504923 L141.606353,16.504923 C140.717903,16.504923 139.981368,15.8434292 139.906299,15.0056157 L139.9,14.8644307 L139.9,2.5404923 C139.9,1.68458519 140.589775,0.978043615 141.459772,0.906041751 L141.606353,0.9 L149.357005,0.9 Z M150.059,13.346 L140.902,13.346 L140.903176,14.8644307 C140.903176,15.198475 141.164121,15.4790885 141.50265,15.5273484 L141.606353,15.5346769 L149.357005,15.5346769 C149.709217,15.5346769 150.002181,15.284431 150.052536,14.9628916 L150.060181,14.86447 L150.059,13.346 Z M145.501758,13.6090615 C145.933117,13.6090615 146.284458,13.9459981 146.284458,14.3637707 C146.284458,14.7815434 145.933117,15.11848 145.501758,15.11848 C145.0704,15.11848 144.719058,14.7815434 144.719058,14.3637707 C144.719058,13.9459981 145.0704,13.6090615 145.501758,13.6090615 Z M149.357005,1.87024615 L141.606353,1.87024615 C141.254141,1.87024615 140.961177,2.12049202 140.910821,2.44206859 L140.903176,2.54050257 L140.902,12.376 L150.059,12.376 L150.060181,2.5404923 C150.060181,2.20644808 149.799237,1.92583455 149.460708,1.8775746 L149.357005,1.87024615 Z M146.78684,2.55602923 C147.082107,2.55602923 147.288429,2.75389172 147.288429,3.0411523 C147.288429,3.28656349 147.103902,3.47899524 146.874638,3.51872809 L146.78684,3.52627538 L144.256835,3.52627538 C143.961568,3.52627538 143.755247,3.32841288 143.755247,3.0411523 C143.755247,2.78580956 143.918266,2.60110235 144.161868,2.56320868 L144.256835,2.55602923 L146.78684,2.55602923 Z" id="形状"></path>
                        </g>
                    </g>
                </g>
            </g>
        </g>
    </g>
</svg>