<?xml version="1.0" encoding="UTF-8"?>
<svg width="16px" height="16px" viewBox="0 0 16 16" version="1.1" xmlns="http://www.w3.org/2000/svg" xmlns:xlink="http://www.w3.org/1999/xlink">
    <!-- Generator: Sketch 60 (88103) - https://sketch.com -->
    <title>形状</title>
    <desc>Created with Sketch.</desc>
    <g id="场区设备概览" stroke="none" stroke-width="1" fill="none" fill-rule="evenodd">
        <g id="场区设备概览-卡片视图备份" transform="translate(-1854.000000, -124.000000)" fill="#7894E3" fill-rule="nonzero">
            <path d="M1861,133 L1861,140 L1854,140 L1854,133 L1861,133 Z M1870,133 L1870,140 L1863,140 L1863,133 L1870,133 Z M1859,135 L1856,135 L1856,138 L1859,138 L1859,135 Z M1868,135 L1865,135 L1865,138 L1868,138 L1868,135 Z M1861,124 L1861,131 L1854,131 L1854,124 L1861,124 Z M1870,124 L1870,131 L1863,131 L1863,124 L1870,124 Z M1859,126 L1856,126 L1856,129 L1859,129 L1859,126 Z M1868,126 L1865,126 L1865,129 L1868,129 L1868,126 Z" id="形状"></path>
        </g>
    </g>
</svg>