<?xml version="1.0" encoding="UTF-8"?>
<svg width="34px" height="30px" viewBox="0 0 34 30" version="1.1" xmlns="http://www.w3.org/2000/svg" xmlns:xlink="http://www.w3.org/1999/xlink">
    <!-- Generator: Sketch 60 (88103) - https://sketch.com -->
    <title>暖灯</title>
    <desc>Created with Sketch.</desc>
    <g id="场区设备概览" stroke="none" stroke-width="1" fill="none" fill-rule="evenodd">
        <g id="画板备份" transform="translate(-75.000000, -68.000000)" fill="#9EB6FB" fill-rule="nonzero">
            <path d="M97.2696998,68.7777778 C98.1051112,68.7777778 98.7800481,69.4473342 98.7800481,70.276086 L98.780208,74.7062615 C101.496776,75.9107988 103.823412,77.8081906 105.557736,80.2445176 C107.540069,83.0304344 108.592593,86.3126658 108.592593,89.7306813 C108.589856,90.2139291 108.361792,90.6420814 108.00777,90.9165621 C107.968223,90.9473174 107.926863,90.9762244 107.884042,91.003054 C107.869439,91.0121214 107.855079,91.0207851 107.840565,91.0292151 L107.725527,91.0896206 C107.568513,91.1635308 107.396517,91.2113774 107.215186,91.2275596 L107.077524,91.2336717 L107.077524,91.2336717 L99.4692327,91.2333229 C98.7695367,94.6455873 95.7207529,97.2222222 92.0778773,97.2222222 C88.4350018,97.2222222 85.386218,94.6455873 84.686522,91.2333229 L76.9177558,91.2336717 L76.9177558,91.2336717 C76.0823443,91.2336717 75.4074074,90.5641152 75.4074074,89.7353635 C75.4074074,86.3126658 76.4552116,83.0304344 78.4422636,80.2445176 C80.1763752,77.8126755 82.5026521,75.9121527 85.2187912,74.7068465 L85.2199519,70.276086 C85.2199519,69.4473342 85.8948888,68.7777778 86.7303002,68.7777778 L97.2696998,68.7777778 Z M96.3416196,91.233307 L87.814135,91.233307 C88.4360506,92.9742854 90.1132258,94.2256059 92.0778773,94.2256059 C94.0425289,94.2256059 95.7197041,92.9742854 96.3416196,91.233307 Z M95.7593514,71.7743941 L88.2406486,71.7743941 L88.242464,75.6961686 C88.2439506,75.8220369 88.2293188,75.9464276 88.199823,76.0666185 C88.1939306,76.0894888 88.1880212,76.1117463 88.1816162,76.1337934 C88.1774662,76.1480202 88.172847,76.1628205 88.168,76.1775414 C88.1445583,76.2502577 88.1157009,76.3201504 88.0819304,76.3871652 C88.0767879,76.3951515 88.0720782,76.404213 88.0672754,76.4132272 C87.8868478,76.7559144 87.5768101,77.0192457 87.2016145,77.1410073 L87.2589221,77.1167993 C82.453497,78.8932853 79.0859568,83.2512859 78.5179019,88.2369803 L105.481879,88.2371325 C104.915003,83.2744794 101.567738,78.9309085 96.7963267,77.1374286 C96.3793176,77.0040469 96.0437234,76.6938359 95.8759466,76.2960335 C95.8719304,76.2849225 95.8673844,76.2738867 95.8629708,76.2627976 C95.8513868,76.2347976 95.8412536,76.2065623 95.8319627,76.1779488 C95.827153,76.1628205 95.8225338,76.1480202 95.818145,76.1331458 C95.8119788,76.1117463 95.8060694,76.0894888 95.8006682,76.0670336 C95.7715354,75.9499085 95.7569094,75.8292386 95.7574474,75.7071009 L95.7593514,71.7743941 Z" id="暖灯"></path>
        </g>
    </g>
</svg>