<?xml version="1.0" encoding="UTF-8"?>
<svg width="12px" height="10px" viewBox="0 0 12 10" version="1.1" xmlns="http://www.w3.org/2000/svg" xmlns:xlink="http://www.w3.org/1999/xlink">
    <!-- Generator: Sketch 60 (88103) - https://sketch.com -->
    <title>报警</title>
    <desc>Created with Sketch.</desc>
    <g id="页面-1" stroke="none" stroke-width="1" fill="none" fill-rule="evenodd">
        <g id="画板" transform="translate(-320.000000, -185.000000)" fill="#FF2727" fill-rule="nonzero">
            <path d="M326,185 C326.355556,185 326.673401,185.171934 326.851178,185.461441 L331.866667,193.615676 C332.044444,193.905183 332.044444,194.249052 331.866667,194.538559 C331.688889,194.828066 331.371044,195 331.015488,195 L320.984512,195 C320.628956,195 320.311111,194.828066 320.133333,194.538559 C319.955556,194.249052 319.955556,193.905183 320.133333,193.615676 L325.148822,185.461441 C325.326599,185.171934 325.644444,185 326,185 Z M326.908571,192.780025 L325.194286,192.780025 L325.194286,193.986906 L326.908571,193.986906 L326.908571,192.780025 Z M326.908571,187.850822 L325.194286,187.850822 L325.194286,192.149178 L326.908571,192.149178 L326.908571,187.850822 Z" id="报警"></path>
        </g>
    </g>
</svg>