<?xml version="1.0" encoding="UTF-8"?>
<svg width="12px" height="13px" viewBox="0 0 12 13" version="1.1" xmlns="http://www.w3.org/2000/svg" xmlns:xlink="http://www.w3.org/1999/xlink">
    <!-- Generator: Sketch 60 (88103) - https://sketch.com -->
    <title>提醒</title>
    <desc>Created with Sketch.</desc>
    <g id="场区设备概览" stroke="none" stroke-width="1" fill="none" fill-rule="evenodd">
        <g id="场区设备概览备份" transform="translate(-1165.000000, -131.000000)" fill="#FFBA46" fill-rule="nonzero">
            <path d="M1171,131.5 C1174.31371,131.5 1177,134.186292 1177,137.5 C1177,140.813708 1174.31371,143.5 1171,143.5 C1167.68629,143.5 1165,140.813708 1165,137.5 C1165,134.186292 1167.68629,131.5 1171,131.5 Z M1171,132.625 C1168.30761,132.625 1166.125,134.807612 1166.125,137.5 C1166.125,140.192388 1168.30761,142.375 1171,142.375 C1173.69239,142.375 1175.875,140.192388 1175.875,137.5 C1175.875,134.807612 1173.69239,132.625 1171,132.625 Z M1171,139.375 C1171.31066,139.375 1171.5625,139.62684 1171.5625,139.9375 C1171.5625,140.24816 1171.31066,140.5 1171,140.5 C1170.68934,140.5 1170.4375,140.24816 1170.4375,139.9375 C1170.4375,139.62684 1170.68934,139.375 1171,139.375 Z M1171,134.3125 C1171.31066,134.3125 1171.5625,134.56434 1171.5625,134.875 L1171.5625,138.25 C1171.5625,138.56066 1171.31066,138.8125 1171,138.8125 C1170.68934,138.8125 1170.4375,138.56066 1170.4375,138.25 L1170.4375,134.875 C1170.4375,134.56434 1170.68934,134.3125 1171,134.3125 Z" id="提醒"></path>
        </g>
    </g>
</svg>