<?xml version="1.0" encoding="UTF-8"?>
<svg width="32px" height="32px" viewBox="0 0 32 32" version="1.1" xmlns="http://www.w3.org/2000/svg" xmlns:xlink="http://www.w3.org/1999/xlink">
    <title>水过滤</title>
    <g id="页面-1" stroke="none" stroke-width="1" fill="none" fill-rule="evenodd">
        <g id="水务场区概览" transform="translate(-318.000000, -541.000000)">
            <g id="编组-9" transform="translate(298.000000, 481.000000)">
                <g id="编组-34" transform="translate(20.000000, 54.000000)">
                    <g id="水过滤" transform="translate(0.000000, 6.000000)">
                        <circle id="椭圆形" stroke="#41F5FF" cx="16" cy="16" r="15.5"></circle>
                        <g id="guolv" transform="translate(8.000000, 7.000000)" fill="#41F5FF" fill-rule="nonzero">
                            <path d="M2.26315789,2.2201087 C2.26310471,2.61365341 2.47709889,2.97732603 2.82451843,3.17411345 C3.17193797,3.37090087 3.59999185,3.37090087 3.94741139,3.17411345 C4.29483094,2.97732603 4.50882511,2.61365341 4.50877193,2.2201087 C4.50882511,1.826564 4.29483094,1.46289137 3.94741139,1.26610395 C3.59999185,1.06931654 3.17193797,1.06931654 2.82451843,1.26610395 C2.47709889,1.46289137 2.26310471,1.826564 2.26315789,2.2201087 L2.26315789,2.2201087 Z" id="路径"></path>
                            <path d="M0.0175438618,5.52445652 C0.0175438618,5.91796645 0.231549661,6.28158462 0.578947365,6.47833959 C0.926345069,6.67509456 1.35435669,6.67509456 1.7017544,6.47833959 C2.0491521,6.28158462 2.2631579,5.91796645 2.2631579,5.52445652 C2.2631579,5.13094659 2.0491521,4.76732841 1.7017544,4.57057345 C1.35435669,4.37381848 0.92634507,4.37381848 0.578947367,4.57057345 C0.231549664,4.76732841 0.0175438618,5.13094659 0.0175438618,5.52445652 L0.0175438618,5.52445652 Z" id="路径"></path>
                            <path d="M3.38596491,7.72735507 C3.38591173,8.12089977 3.59990591,8.4845724 3.94732545,8.68135982 C4.29474499,8.87814723 4.72279887,8.87814723 5.07021841,8.68135982 C5.41763796,8.4845724 5.63163213,8.12089977 5.63157895,7.72735507 C5.63163213,7.33381037 5.41763796,6.97013774 5.07021841,6.77335032 C4.72279887,6.57656291 4.29474499,6.57656291 3.94732545,6.77335032 C3.59990591,6.97013774 3.38591173,7.33381037 3.38596491,7.72735507 L3.38596491,7.72735507 Z" id="路径"></path>
                            <path d="M10.122807,7.72735507 C10.122807,8.33566871 10.6255048,8.82880435 11.245614,8.82880435 C11.8657232,8.82880435 12.3684211,8.33566871 12.3684211,7.72735507 C12.3684211,7.11904143 11.8657232,6.62590579 11.245614,6.62590579 C10.6255048,6.62590579 10.122807,7.11904143 10.122807,7.72735507 L10.122807,7.72735507 Z" id="路径"></path>
                            <path d="M10.122807,11.0317029 C10.122807,11.6400165 10.6255048,12.1331522 11.245614,12.1331522 C11.8657232,12.1331522 12.3684211,11.6400165 12.3684211,11.0317029 C12.3684211,10.4233893 11.8657232,9.93025363 11.245614,9.93025363 C10.6255048,9.93025363 10.122807,10.4233893 10.122807,11.0317029 L10.122807,11.0317029 Z" id="路径"></path>
                            <path d="M13.4912281,11.0317029 C13.4911749,11.4252476 13.7051691,11.7889202 14.0525886,11.9857077 C14.4000081,12.1824951 14.828062,12.1824951 15.1754816,11.9857077 C15.5229011,11.7889202 15.7368953,11.4252476 15.7368421,11.0317029 C15.7368953,10.6381582 15.5229011,10.2744856 15.1754816,10.0776982 C14.828062,9.88091074 14.4000081,9.88091074 14.0525886,10.0776982 C13.7051691,10.2744856 13.4911749,10.6381582 13.4912281,11.0317029 L13.4912281,11.0317029 Z" id="路径"></path>
                            <path d="M13.4912281,7.72735507 C13.4911749,8.12089977 13.7051691,8.4845724 14.0525886,8.68135982 C14.4000081,8.87814723 14.828062,8.87814723 15.1754816,8.68135982 C15.5229011,8.4845724 15.7368953,8.12089977 15.7368421,7.72735507 C15.7368953,7.33381037 15.5229011,6.97013774 15.1754816,6.77335032 C14.828062,6.57656291 14.4000081,6.57656291 14.0525886,6.77335032 C13.7051691,6.97013774 13.4911749,7.33381037 13.4912281,7.72735507 L13.4912281,7.72735507 Z" id="路径"></path>
                            <path d="M1.14035088,15.4375 C1.14035088,15.8310099 1.35435668,16.1946281 1.70175438,16.3913831 C2.04915209,16.588138 2.47716371,16.588138 2.82456142,16.3913831 C3.17195912,16.1946281 3.38596492,15.8310099 3.38596492,15.4375 C3.38596492,15.0439901 3.17195912,14.6803719 2.82456142,14.4836169 C2.47716371,14.286862 2.04915209,14.286862 1.70175439,14.4836169 C1.35435668,14.6803719 1.14035088,15.0439901 1.14035088,15.4375 L1.14035088,15.4375 Z" id="路径"></path>
                            <path d="M2.2631579,11.5824275 C2.2631579,12.1726924 2.5841666,12.7181197 3.10526315,13.0132521 C3.6263597,13.3083846 4.26837714,13.3083846 4.78947369,13.0132521 C5.31057024,12.7181197 5.63157894,12.1726924 5.63157894,11.5824275 C5.63157894,10.9921626 5.31057024,10.4467354 4.78947369,10.1516029 C4.26837714,9.85647048 3.6263597,9.85647048 3.10526315,10.1516029 C2.5841666,10.4467354 2.2631579,10.9921626 2.2631579,11.5824275 L2.2631579,11.5824275 Z" id="路径"></path>
                            <polygon id="路径" points="6.75438596 18.7418478 12.3684211 15.4375 12.3684211 13.2346015 11.245614 13.2346015 11.245614 14.7766304 7.87719298 16.7592391 7.87719298 1.99981884 11.245614 3.98242754 11.245614 5.52445652 12.3684211 5.52445652 12.3684211 3.32155798 6.75438596 0.0172101471"></polygon>
                        </g>
                    </g>
                </g>
            </g>
        </g>
    </g>
</svg>