<?xml version="1.0" encoding="UTF-8"?>
<svg width="12px" height="15px" viewBox="0 0 12 15" version="1.1" xmlns="http://www.w3.org/2000/svg" xmlns:xlink="http://www.w3.org/1999/xlink">
    <title>形状</title>
    <g id="页面-1" stroke="none" stroke-width="1" fill="none" fill-rule="evenodd">
        <g id="水务场区概览" transform="translate(-1582.000000, -221.000000)" stroke="#CDD8F7">
            <g id="编组-35" transform="translate(1500.000000, 174.000000)">
                <g id="编组-2" transform="translate(82.000000, 47.000000)">
                    <path d="M9.51706179,9.07142857 C9.91451669,9.07142857 10.2827501,9.21628917 10.5680141,9.45963712 C10.8543952,9.70393802 11.0571888,10.0474159 11.1227675,10.4436451 L11.1227675,10.4436451 L11.4774255,12.5865022 C11.5515967,13.0346476 11.4385394,13.4707095 11.1954793,13.8133778 C10.9602482,14.1450086 10.6030996,14.389172 10.1762729,14.471004 L10.1762729,14.471004 L2.12794813,14.5 C1.67879974,14.5 1.27233238,14.3164019 0.97804703,14.0200547 C0.690278758,13.7302702 0.509681999,13.3327683 0.500377764,12.8928936 L0.500377764,12.8928936 L0.876900453,10.4436451 C0.942479177,10.0474159 1.14527279,9.70393802 1.43165387,9.45963712 C1.71691786,9.21628917 2.08515126,9.07142857 2.48260615,9.07142857 L2.48260615,9.07142857 Z M5.86392279,0.5 C6.6700331,0.5 7.39966883,0.829299274 7.92788208,1.36121333 C8.45735438,1.89439527 8.78454441,2.6310606 8.78454441,3.44458748 C8.78454441,4.25811435 8.45735438,4.99477968 7.92788208,5.52796162 C7.39966883,6.05987568 6.6700331,6.38917495 5.86392279,6.38917495 C5.05781247,6.38917495 4.32817674,6.05987568 3.79996349,5.52796162 C3.27049119,4.99477968 2.94330116,4.25811435 2.94330116,3.44458748 C2.94330116,2.6310606 3.27049119,1.89439527 3.79996349,1.36121333 C4.32817674,0.829299274 5.05781247,0.5 5.86392279,0.5 Z" id="形状"></path>
                </g>
            </g>
        </g>
    </g>
</svg>