<?xml version="1.0" encoding="UTF-8"?>
<svg width="32px" height="32px" viewBox="0 0 32 32" version="1.1" xmlns="http://www.w3.org/2000/svg" xmlns:xlink="http://www.w3.org/1999/xlink">
    <title>编组 25备份 2</title>
    <g id="页面-1" stroke="none" stroke-width="1" fill="none" fill-rule="evenodd">
        <g id="水务场区概览" transform="translate(-444.000000, -645.000000)">
            <g id="编组-9" transform="translate(298.000000, 481.000000)">
                <g id="编组-34" transform="translate(20.000000, 54.000000)">
                    <g id="编组-28备份-4" transform="translate(126.000000, 104.000000)">
                        <g id="编组-25备份-2" transform="translate(0.000000, 6.000000)">
                            <circle id="椭圆形" stroke="#41F5FF" cx="16" cy="16" r="15.5"></circle>
                            <path d="M22.0525227,8.69814982 L23.0385493,7.5350335 C23.2145497,7.3341316 23.1403327,7.16495104 22.8731513,7.16072153 L17.7097648,7.09303259 C17.4425834,7.09093455 17.3068722,7.2897217 17.4065351,7.53714826 L19.3510219,12.2340234 C19.4549258,12.4835647 19.6436491,12.489909 19.7708784,12.2572857 L20.5384948,10.8742347 C21.666594,11.9696788 22.3705958,13.5028776 22.3705958,15.1967979 C22.3705958,15.5309295 22.3430294,15.8608315 22.2900173,16.1801598 L24.8812527,16.622144 C24.9597107,16.1568975 25,15.683192 25,15.1967979 C25,12.6062206 23.8591778,10.2842175 22.0525227,8.69814982 L22.0525227,8.69814982 Z M12.0289793,13.5959269 L10.4449754,13.6234187 C10.8330245,12.1007937 11.8105692,10.7283165 13.2843078,9.8824137 C13.5748146,9.71323314 13.8738033,9.57577394 14.177033,9.45946231 L13.2673439,7 C12.8262826,7.16495104 12.3894622,7.36585295 11.9696057,7.61116475 C9.7197687,8.90328124 8.27359638,11.0476448 7.80072772,13.403484 L6.29730224,13.1327951 C6.03436182,13.0820409 5.92409648,13.2300739 6.05556669,13.4626972 L8.57470558,17.9586704 C8.70617579,18.1934084 8.94791134,18.2103265 9.11118886,17.996736 L12.2198232,13.9702388 C12.3831007,13.7587632 12.2982812,13.5874678 12.0289793,13.5959269 Z M22.3451499,19.9338534 L17.2962697,19.2634754 C17.0290883,19.2275246 16.9251845,19.3861314 17.0672571,19.6145251 L17.8836447,20.9700843 C16.3674963,21.3972652 14.6859499,21.2365437 13.2143317,20.3864114 C12.923825,20.2172308 12.6524026,20.0290175 12.4021851,19.8260008 L10.7185182,21.8392494 C11.083242,22.1374301 11.4734117,22.4123485 11.8975091,22.6555456 C14.1367437,23.9497768 16.7258587,24.1316459 19.0053825,23.3639891 L19.5227814,24.7956796 C19.6076009,25.0494504 19.7920833,25.070598 19.9320354,24.8379747 L22.576283,20.416018 C22.7141147,20.1855095 22.6080904,19.9676895 22.3451499,19.9338534 L22.3451499,19.9338534 Z" id="形状" fill="#41F5FF" fill-rule="nonzero"></path>
                        </g>
                    </g>
                </g>
            </g>
        </g>
    </g>
</svg>