<?xml version="1.0" encoding="UTF-8"?>
<svg width="13px" height="17px" viewBox="0 0 13 17" version="1.1" xmlns="http://www.w3.org/2000/svg" xmlns:xlink="http://www.w3.org/1999/xlink">
    <title>形状</title>
    <g id="页面-1" stroke="none" stroke-width="1" fill="none" fill-rule="evenodd">
        <g id="水务场区概览" transform="translate(-1695.000000, -220.000000)" fill="#CDD8F7" fill-rule="nonzero" stroke="#CDD8F7" stroke-width="0.2">
            <g id="编组-35" transform="translate(1500.000000, 174.000000)">
                <g id="编组-2" transform="translate(82.000000, 47.000000)">
                    <path d="M123.386912,0 C124.273229,0 124.998399,0.675 124.998399,1.5 L124.998399,13.5 C125.038686,14.325 124.313517,15 123.427199,15 L115.611487,15 C114.725169,15 114,14.325 114,13.5 L114,1.5 C114,0.675 114.725169,0 115.611487,0 L123.386912,0 Z M124.192019,11.925 L114.80472,11.925 L114.805743,13.5 C114.805743,13.9125 115.168328,14.25 115.611487,14.25 L123.386912,14.25 C123.83007,14.25 124.192655,13.9125 124.192655,13.5 L124.192019,11.925 Z M119.519343,12.375 C119.897593,12.375 120.204225,12.6604185 120.204225,13.0125 C120.204225,13.3645815 119.897593,13.65 119.519343,13.65 C119.141093,13.65 118.834461,13.3645815 118.834461,13.0125 C118.834461,12.6604185 119.141093,12.375 119.519343,12.375 Z M123.386912,0.75 L115.611487,0.75 C115.168328,0.75 114.805743,1.0875 114.805743,1.5 L114.80472,11.175 L124.192019,11.175 L124.192655,1.5 C124.192655,1.0875 123.83007,0.75 123.386912,0.75 Z M120.808532,1.6125 C121.050255,1.6125 121.211404,1.7625 121.211404,1.9875 C121.211404,2.2125 121.009968,2.3625 120.808532,2.3625 L118.27044,2.3625 C118.028717,2.3625 117.867569,2.2125 117.867569,1.9875 C117.867569,1.7625 118.028717,1.6125 118.27044,1.6125 L120.808532,1.6125 Z" id="形状"></path>
                </g>
            </g>
        </g>
    </g>
</svg>