<?xml version="1.0" encoding="UTF-8"?>
<svg width="32px" height="32px" viewBox="0 0 32 32" version="1.1" xmlns="http://www.w3.org/2000/svg" xmlns:xlink="http://www.w3.org/1999/xlink">
    <title>编组 25备份 2</title>
    <g id="页面-1" stroke="none" stroke-width="1" fill="none" fill-rule="evenodd">
        <g id="水务场区概览" transform="translate(-444.000000, -593.000000)">
            <g id="编组-9" transform="translate(298.000000, 481.000000)">
                <g id="编组-34" transform="translate(20.000000, 54.000000)">
                    <g id="编组-28备份" transform="translate(126.000000, 52.000000)">
                        <g id="编组-25备份-2" transform="translate(0.000000, 6.000000)">
                            <circle id="椭圆形" stroke="#41F5FF" cx="16" cy="16" r="15.5"></circle>
                            <g id="code-branch" transform="translate(11.000000, 6.000000)" fill="#41F5FF" fill-rule="nonzero">
                                <path d="M12.0000522,5.57786038 C12.0000522,4.2980883 10.966273,3.26237532 9.69735966,3.28083357 C8.46695969,3.29929183 7.46763979,4.31859747 7.45953172,5.56350396 C7.45345066,6.64228619 8.18115015,7.54879142 9.16628092,7.8031051 C9.45006345,7.8769381 9.64871122,8.13125178 9.65479228,8.4265838 C9.66492737,8.98648409 9.56560348,9.60381004 9.20276725,10.1185902 C8.62101307,10.9451096 7.56696368,11.2445435 6.63656239,11.5091117 C6.04872715,11.675236 5.62102634,11.7183053 5.24400098,11.7552218 C4.70886821,11.8085456 4.2021137,11.8598185 3.56968406,12.2269326 C3.43590087,12.3048675 3.3041447,12.391006 3.1804966,12.4853481 C3.07306464,12.5673848 2.92103828,12.48945 2.92103828,12.3540895 L2.92103828,4.94822893 C2.92103828,4.69801708 3.05887551,4.46626348 3.27982048,4.35551397 C4.03184418,3.97814528 4.54873379,3.19059324 4.54265273,2.2820371 C4.53251764,0.994061353 3.46427912,-0.0437025429 2.19131178,0.00141762646 C0.975100947,0.0424359623 5.21710444e-05,1.05353794 5.21710444e-05,2.29639352 C5.21710444e-05,3.1987969 0.514967847,3.9801962 1.26293751,4.35551397 C1.48388248,4.46626348 1.62171971,4.69391524 1.62171971,4.94207617 L1.62171971,16.0518924 C1.62171971,16.3021043 1.48388248,16.5338579 1.26293751,16.6446074 C0.510913811,17.0219761 -0.00597579398,17.8095281 5.21710444e-05,18.7180843 C0.00821333243,20.00606 1.07645185,21.041773 2.34941919,20.9987037 C3.56765704,20.9576854 4.54062571,19.9445325 4.54062571,18.7037278 C4.54062571,17.8013245 4.02576313,17.0199252 3.27779346,16.6446074 C3.05684849,16.5338579 2.91901127,16.3062061 2.91901127,16.0580452 L2.91901127,15.6642692 C2.91901127,14.8028841 3.32238786,13.9866192 4.01968207,13.4923483 C4.08251963,13.4472281 4.14941123,13.4041589 4.21630282,13.3651914 C4.60751731,13.1375397 4.89535387,13.1088268 5.37170312,13.0616557 C5.78116077,13.0206374 6.2899423,12.9693645 6.98723651,12.7724765 C8.01088063,12.4812463 9.41155011,12.0854194 10.2588437,10.8794803 C10.745328,10.1883213 10.9764081,9.34129269 10.9500568,8.35685263 C10.9460028,8.21533937 10.9358677,8.07382611 10.9216786,7.92821102 C10.8993814,7.70876293 10.9926242,7.4975185 11.1608667,7.35805615 C11.6737023,6.93966913 12.0000522,6.29773217 12.0000522,5.57786038 Z M1.00005217,2 C1.00005217,1.44791667 1.44796884,1 2.00005217,1 C2.5521355,1 3.00005217,1.44791667 3.00005217,2 C3.00005217,2.55208333 2.5521355,3 2.00005217,3 C1.44796884,3 1.00005217,2.55208333 1.00005217,2 Z M3.00005217,19 C3.00005217,19.5520833 2.5521355,20 2.00005217,20 C1.44796884,20 1.00005217,19.5520833 1.00005217,19 C1.00005217,18.4479167 1.44796884,18 2.00005217,18 C2.5521355,18 3.00005217,18.4479167 3.00005217,19 Z M10.0000522,7 C9.44796884,7 9.00005217,6.55208333 9.00005217,6 C9.00005217,5.44791667 9.44796884,5 10.0000522,5 C10.5521355,5 11.0000522,5.44791667 11.0000522,6 C11.0000522,6.55208333 10.5521355,7 10.0000522,7 Z" id="形状"></path>
                            </g>
                        </g>
                    </g>
                </g>
            </g>
        </g>
    </g>
</svg>