<?xml version="1.0" encoding="UTF-8"?>
<svg width="32px" height="32px" viewBox="0 0 32 32" version="1.1" xmlns="http://www.w3.org/2000/svg" xmlns:xlink="http://www.w3.org/1999/xlink">
    <title>检测</title>
    <g id="页面-1" stroke="none" stroke-width="1" fill="none" fill-rule="evenodd">
        <g id="水务场区概览" transform="translate(-318.000000, -593.000000)">
            <g id="编组-9" transform="translate(298.000000, 481.000000)">
                <g id="编组-34" transform="translate(20.000000, 54.000000)">
                    <g id="编组-28" transform="translate(0.000000, 52.000000)">
                        <g id="检测" transform="translate(0.000000, 6.000000)">
                            <circle id="椭圆形" stroke="#41F5FF" cx="16" cy="16" r="15.5"></circle>
                            <g id="jiance" transform="translate(8.727273, 7.757576)" fill="#41F5FF" fill-rule="nonzero">
                                <path d="M6.43062201,12.5454545 C6.31004785,12.5454545 6.18755981,12.5045455 6.08803828,12.4188312 C5.86028708,12.225974 5.82966507,11.8811688 6.01913876,11.6512987 L8.19521531,8.99415584 L5.72440191,8.15649351 C5.55598086,8.09805195 5.4277512,7.96168831 5.37990431,7.78831169 C5.33014354,7.61493506 5.37033493,7.42792208 5.48325359,7.28961039 L8.16267943,4.01688312 C8.35215311,3.78701299 8.69090909,3.75584416 8.91674641,3.94675325 C9.14449761,4.13961039 9.17511962,4.48441558 8.98564593,4.71428571 L6.80956938,7.37142857 L9.28038278,8.20909091 C9.44880383,8.26753247 9.57703349,8.4038961 9.62488038,8.57727273 C9.67464115,8.75064935 9.63444976,8.93766234 9.5215311,9.07597403 L6.84210526,12.3487013 C6.73684211,12.4792208 6.58373206,12.5454545 6.43062201,12.5454545 Z" id="路径"></path>
                                <path d="M7.50239234,1.09090909 L13.9330144,3.92922078 L13.9330144,7.60519481 C13.9330144,13.5331169 9.01052632,15.8045455 7.50239234,16.3597403 C5.99425837,15.8045455 1.07177033,13.5311688 1.07177033,7.60519481 L1.07559809,3.91753247 L7.50239234,1.09090909 M7.50239234,0 C7.35885167,0 7.215311,0.0292207792 7.07942584,0.0896103896 L0.648803828,2.92012987 C0.254545455,3.09350649 0,3.49090909 0,3.93116883 L0,7.60714286 C0,14.3123377 5.63253589,16.8350649 7.13684211,17.3883117 C7.25741627,17.4331169 7.37990431,17.4545455 7.50239234,17.4545455 C7.62488038,17.4545455 7.74736842,17.4331169 7.86794258,17.3883117 C9.3722488,16.8350649 15.0047847,14.3123377 15.0047847,7.60714286 L15.0047847,3.93116883 C15.0047847,3.49090909 14.7483254,3.09350649 14.3559809,2.92012987 L7.92535885,0.0896103896 C7.78947368,0.0292207792 7.64593301,0 7.50239234,0 Z" id="形状"></path>
                            </g>
                        </g>
                    </g>
                </g>
            </g>
        </g>
    </g>
</svg>