<?xml version="1.0" encoding="UTF-8"?>
<svg width="32px" height="32px" viewBox="0 0 32 32" version="1.1" xmlns="http://www.w3.org/2000/svg" xmlns:xlink="http://www.w3.org/1999/xlink">
    <title>消毒</title>
    <g id="页面-1" stroke="none" stroke-width="1" fill="none" fill-rule="evenodd">
        <g id="水务场区概览" transform="translate(-444.000000, -541.000000)">
            <g id="编组-9" transform="translate(298.000000, 481.000000)">
                <g id="编组-34" transform="translate(20.000000, 54.000000)">
                    <g id="编组-25备份" transform="translate(126.000000, 0.000000)">
                        <g id="消毒" transform="translate(0.000000, 6.000000)">
                            <circle id="椭圆形" stroke="#41F5FF" cx="16" cy="16" r="15.5"></circle>
                            <path d="M19.4925512,11.910985 L19.4925512,10.7220593 C19.4930442,10.1393117 19.0401942,9.6661374 18.4803018,9.66437929 L16.6801324,9.66437929 L16.6801324,8.36837929 L20.3228665,8.36837929 L20.3228665,7.01846982 L12.0129935,7.01846982 C11.7884665,7.01755643 10.1306029,7.06343071 9.01389706,9.00701929 L10.1218076,9.70151071 C10.8870971,8.36909929 11.9500429,8.37311071 11.9825559,8.36807071 L15.3880147,8.36807071 L15.3880147,9.66407071 L13.5714406,9.66407071 C13.0114164,9.66582896 12.5584903,10.1391746 12.5590924,10.7220593 L12.5590924,11.913145 C10.7633327,12.1477086 9.41621982,13.7370164 9.41650412,15.6207336 L9.41650412,22.9613393 C9.4160648,23.754812 10.0327395,24.3989576 10.7950924,24.4013393 L21.2728571,24.4013393 C22.0352485,24.3990142 22.6519833,23.754852 22.6515444,22.9613393 L22.6515444,15.6207336 C22.6518572,13.7304374 21.295605,12.1377289 19.4925512,11.910985 L19.4925512,11.910985 Z M18.2004335,11.0143793 L18.2004335,11.8846536 L13.85121,11.8846536 L13.85121,11.0143793 L18.2004335,11.0143793 Z M21.3594271,22.9613393 C21.3594271,23.0111117 21.3206774,23.051478 21.2728571,23.0516479 L10.79529,23.0516479 C10.7474631,23.0515344 10.7088188,23.0111184 10.7088188,22.9613393 L10.7088188,15.6207336 C10.7078874,14.3058743 11.7297356,13.2383609 12.9930265,13.2344479 L19.0752194,13.2344479 C20.3385103,13.2383609 21.3603584,14.3058743 21.3594271,15.6207336 L21.3594271,22.9613393 Z" id="形状" fill="#41F5FF" fill-rule="nonzero"></path>
                            <polygon id="路径" fill="#41F5FF" fill-rule="nonzero" points="18.5041182 17.5911679 16.5763676 17.5911679 16.5763676 15.5777393 15.2866218 15.5777393 15.2866218 17.5911679 13.35897 17.5911679 13.35897 18.9385964 15.2866218 18.9385964 15.2866218 20.952025 16.5763676 20.952025 16.5763676 18.938185 18.5041182 18.938185 18.5041182 17.5907564"></polygon>
                        </g>
                    </g>
                </g>
            </g>
        </g>
    </g>
</svg>