<?xml version="1.0" encoding="UTF-8"?>
<svg width="32px" height="32px" viewBox="0 0 32 32" version="1.1" xmlns="http://www.w3.org/2000/svg" xmlns:xlink="http://www.w3.org/1999/xlink">
    <title>编组 25备份 2</title>
    <g id="页面-1" stroke="none" stroke-width="1" fill="none" fill-rule="evenodd">
        <g id="水务场区概览" transform="translate(-318.000000, -645.000000)">
            <g id="编组-9" transform="translate(298.000000, 481.000000)">
                <g id="编组-34" transform="translate(20.000000, 54.000000)">
                    <g id="编组-28备份-5" transform="translate(0.000000, 104.000000)">
                        <g id="编组-25备份-2" transform="translate(0.000000, 6.000000)">
                            <circle id="椭圆形" stroke="#41F5FF" cx="16" cy="16" r="15.5"></circle>
                            <path d="M23.5031493,15 C23.2297147,15 23.0062986,15.2234161 23.0062986,15.4968507 C23.0062986,19.6383846 19.6383846,23.0062986 15.4968507,23.0062986 C15.2234161,23.0062986 15,23.2297147 15,23.5031493 C15,23.7765839 15.2234161,24 15.4968507,24 C20.1852538,24 24,20.1852538 24,15.4968507 C24,15.2234161 23.7799185,15 23.5031493,15 Z M19,15.8849558 C19,14.1675095 17.6058786,12.7733881 15.8884324,12.7733881 C15.4086599,12.7733881 14.960177,12.8915929 14.55689,13.0828066 L9.76959545,8.30246523 C9.36630847,7.89917826 8.70922882,7.89917826 8.30246523,8.30246523 C7.89917826,8.70575221 7.89917826,9.36283186 8.30246523,9.76959545 L13.0897598,14.55689 C12.8950695,14.9636536 12.7803413,15.4121365 12.7803413,15.8884324 C12.7803413,17.6058786 14.1744627,19 15.891909,19 C17.6058786,18.9965234 19,17.602402 19,15.8849558 L19,15.8849558 Z" id="形状" fill="#41F5FF" fill-rule="nonzero"></path>
                        </g>
                    </g>
                </g>
            </g>
        </g>
    </g>
</svg>