<?xml version="1.0" encoding="UTF-8"?>
<svg width="88px" height="88px" viewBox="0 0 88 88" version="1.1" xmlns="http://www.w3.org/2000/svg" xmlns:xlink="http://www.w3.org/1999/xlink">
    <title>编组 14备份 7</title>
    <defs>
        <circle id="path-1" cx="44.5" cy="44.5" r="39.5"></circle>
        <filter x="-3.8%" y="-3.8%" width="107.6%" height="107.6%" filterUnits="objectBoundingBox" id="filter-2">
            <feGaussianBlur stdDeviation="3" in="SourceAlpha" result="shadowBlurInner1"></feGaussianBlur>
            <feOffset dx="0" dy="0" in="shadowBlurInner1" result="shadowOffsetInner1"></feOffset>
            <feComposite in="shadowOffsetInner1" in2="SourceAlpha" operator="arithmetic" k2="-1" k3="1" result="shadowInnerInner1"></feComposite>
            <feColorMatrix values="0 0 0 0 0.062745098   0 0 0 0 0.156470588   0 0 0 0 1  0 0 0 1 0" type="matrix" in="shadowInnerInner1"></feColorMatrix>
        </filter>
        <circle id="path-3" cx="44" cy="44" r="44"></circle>
        <mask id="mask-4" maskContentUnits="userSpaceOnUse" maskUnits="objectBoundingBox" x="0" y="0" width="88" height="88" fill="white">
            <use xlink:href="#path-3"></use>
        </mask>
    </defs>
    <g id="除臭墙" stroke="none" stroke-width="1" fill="none" fill-rule="evenodd">
        <g id="设备运行状态备份-2" transform="translate(-623.000000, -708.000000)">
            <g id="编组-14备份-7" transform="translate(623.000000, 708.000000)">
                <g id="椭圆形">
                    <use fill="black" fill-opacity="1" filter="url(#filter-2)" xlink:href="#path-1"></use>
                    <circle stroke="#1990FF" stroke-width="1" stroke-linejoin="square" cx="44.5" cy="44.5" r="39"></circle>
                </g>
                <g id="tree-round-unknown" transform="translate(25.000000, 24.000000)" fill="#1990FF" fill-rule="nonzero">
                    <path d="M20,0.0260416668 C8.95415218,0.0260416668 0,8.98019384 0,20.0260417 C0,31.0718895 8.95415218,40.0260417 20,40.0260417 C31.0458478,40.0260417 40,31.0718895 40,20.0260417 C40,8.9801938 31.0458478,0.0260416668 20,0.0260416668 Z M19.8733387,31.0223845 C19.4723558,31.0223845 19.0877961,30.8630947 18.8042583,30.5795569 C18.5207206,30.2960192 18.3614307,29.9114595 18.3614307,29.5104766 C18.3614307,28.6754729 19.038335,27.9985687 19.8733387,27.9985687 C20.6983426,28.0127375 21.3597228,28.685574 21.3597228,29.5106996 C21.3597228,30.3358252 20.6983426,31.0086617 19.8733387,31.0228305 L19.8733387,31.0223845 Z M26.180091,17.5396444 C25.7367764,18.3370755 24.8712574,19.3060643 23.583534,20.4466108 C22.7183124,21.2128225 22.1563643,21.7783385 21.8887699,22.1413748 C21.614128,22.5194602 21.4122267,22.9453434 21.2933726,23.3972842 C21.1976333,23.7499141 21.1322213,24.2668171 21.0971367,24.9479933 C21.0750608,25.3689972 20.7270856,25.6989364 20.3055035,25.6985957 L19.3042548,25.6985957 C18.8666861,25.6983507 18.5118208,25.3440838 18.5108376,24.9065162 L18.5108376,24.9011643 C18.5108376,23.8590331 18.6581631,22.9593215 18.9528142,22.2020295 C19.1686736,21.6311616 19.5177355,21.0556852 20,20.4756001 C20.3550084,20.0519091 20.9915856,19.4343609 21.9097315,18.6229554 C22.8278774,17.81155 23.4252074,17.1653097 23.7017215,16.6842345 C23.9776904,16.204486 24.1205701,15.6597572 24.1156007,15.10632 C24.1156007,14.0728112 23.7127226,13.1659638 22.9069664,12.3857776 C22.1012101,11.6055915 21.1125977,11.2146065 19.9411292,11.2128225 C18.8112865,11.2128225 17.8671246,11.5666417 17.1086433,12.27428 C16.556507,12.7913317 16.1427764,13.5197829 15.8674516,14.4596337 C15.7284045,14.9353806 15.3454883,15.3004012 14.8636357,15.4165363 C14.3817832,15.5326713 13.8746185,15.3821761 13.534102,15.0220126 C13.1935855,14.6618491 13.0717462,14.1470481 13.2146998,13.6724604 C13.5881426,12.419227 14.2094074,11.408315 15.0784943,10.6397247 C16.2933726,9.56934735 17.8989385,9.03341539 19.8951922,9.03192876 C22.009782,9.03192876 23.6965183,9.60740521 24.9554009,10.7583581 C26.2142836,11.909311 26.8437249,13.3009502 26.8437249,14.9332756 C26.8508761,15.844745 26.6222685,16.7425831 26.180091,17.5396444 L26.180091,17.5396444 Z" id="形状"></path>
                </g>
                <use id="椭圆形备份-2" stroke="#1990FF" mask="url(#mask-4)" stroke-width="2" stroke-dasharray="2" xlink:href="#path-3"></use>
            </g>
        </g>
    </g>
</svg>