<?xml version="1.0" encoding="UTF-8"?>
<svg width="13px" height="12px" viewBox="0 0 13 12" version="1.1" xmlns="http://www.w3.org/2000/svg" xmlns:xlink="http://www.w3.org/1999/xlink">
    <!-- Generator: Sketch 60 (88103) - https://sketch.com -->
    <title>风力</title>
    <desc>Created with Sketch.</desc>
    <g id="集团运维地图" stroke="none" stroke-width="1" fill="none" fill-rule="evenodd">
        <g id="编组-49备份-3" transform="translate(-20.000000, -160.000000)" fill="#FFBF35" fill-rule="nonzero">
            <g id="编组-47" transform="translate(20.000000, 99.000000)">
                <g id="编组-46" transform="translate(0.000000, 61.000000)">
                    <path d="M4.17869237,3.69088359 L9.75084657,3.69088359 C10.0065121,3.69088359 10.2147695,3.48387097 10.2147695,3.22973352 C10.2147695,2.97559607 10.0065121,2.76858345 9.75084657,2.76858345 L4.17869237,2.76858345 C3.92302683,2.76858345 3.71476947,2.97559607 3.71476947,3.22973352 C3.71476947,3.485554 3.92302683,3.69088359 4.17869237,3.69088359 Z M1.85738474,5.5371669 L10.2147695,5.5371669 C11.7538421,5.5371669 13,4.29677419 13,2.76858345 C13,1.23870968 11.752149,0 10.2147695,0 L10.2147695,0.92230014 C11.525267,1.16802244 12.0721542,1.7486676 12.0721542,2.76858345 C12.0721542,3.7884993 10.9986976,4.61486676 9.67296171,4.61486676 L1.85738474,4.61486676 C1.6017192,4.61486676 1.39346184,4.82187938 1.39346184,5.07601683 C1.39346184,5.33015428 1.60002605,5.5371669 1.85738474,5.5371669 L1.85738474,5.5371669 Z M6.50169315,8.30743338 C6.5,8.30743338 6.5,8.30743338 6.50169315,8.30743338 L2.78692368,8.30743338 C2.53125814,8.30743338 2.32300078,8.514446 2.32300078,8.76858345 C2.32300078,9.0227209 2.53125814,9.22973352 2.78692368,9.22973352 L6.50169315,9.22973352 C7.01471737,9.22973352 7.42953894,9.64375877 7.42953894,10.1520337 C7.42953894,10.6619916 7.01302423,11.0743338 6.50169315,11.0743338 L6.50169315,11.9966339 C7.5277416,11.9966339 8.35907788,11.1702665 8.35907788,10.1503506 C8.35738474,9.13380084 7.52604845,8.30743338 6.50169315,8.30743338 L6.50169315,8.30743338 Z M10.2147695,6.46115007 L0.463922897,6.46115007 C0.208257359,6.46115007 0,6.66816269 0,6.92230014 C0,7.17643759 0.208257359,7.38345021 0.463922897,7.38345021 L9.67296171,7.38345021 C10.9986976,7.38345021 12.0721542,8.20981767 12.0721542,9.22973352 C12.0721542,10.2496494 11.2780672,11.0760168 9.28692368,11.0760168 L9.28692368,12 L10.2147695,12 C11.7538421,12 13,10.7596073 13,9.23141655 C13,7.69985975 11.7538421,6.46115007 10.2147695,6.46115007 Z" id="风力"></path>
                </g>
            </g>
        </g>
    </g>
</svg>