<?xml version="1.0" encoding="UTF-8"?>
<svg width="60px" height="60px" viewBox="0 0 60 60" version="1.1" xmlns="http://www.w3.org/2000/svg" xmlns:xlink="http://www.w3.org/1999/xlink">
    <title>编组 8备份 7</title>
    <g id="除臭墙" stroke="none" stroke-width="1" fill="none" fill-rule="evenodd">
        <g id="设备运行状态备份-2" transform="translate(-780.000000, -305.000000)">
            <g id="编组-15" transform="translate(639.000000, 184.000000)">
                <g id="编组-11" transform="translate(141.000000, 67.000000)">
                    <g id="编组" transform="translate(0.000000, 17.000000)">
                        <g id="编组-8备份-7" transform="translate(0.000000, 37.000000)">
                            <circle id="椭圆形" stroke="#7894E3" stroke-width="2" cx="30" cy="30" r="29"></circle>
                            <path d="M20.6661911,40.5564516 C22.6198413,38.4758065 25.7844318,38.4758065 27.7340455,40.5564516 C28.7068342,41.5967742 30.2891294,41.5967742 31.2659545,40.5564516 C33.2196047,38.4758065 36.3841951,38.4758065 38.3338089,40.5564516 C39.3065975,41.5967742 40.8888928,41.5967742 41.8657179,40.5564516 C42.3541304,40.0362903 43.145278,40.0362903 43.6336906,40.5564516 C44.1221031,41.0766129 44.1221031,41.9193548 43.6336906,42.4395161 C41.6800404,44.5201613 38.5154499,44.5201613 36.5658362,42.4395161 C35.5930475,41.3991935 34.0107523,41.3991935 33.0339272,42.4395161 C31.080277,44.5201613 27.9156865,44.5201613 25.9660728,42.4395161 C24.9932842,41.3991935 23.4109889,41.3991935 22.4341638,42.4395161 C20.4805136,44.5201613 17.3159232,44.5201613 15.3663094,42.4395161 C14.8778969,41.9193548 14.8778969,41.0766129 15.3663094,40.5564516 C15.7820656,40.108871 16.4238639,40.0443548 16.9042035,40.3629032 C18.0263414,41.1008065 19.4027768,41.3145161 20.55317,40.625 L20.55317,40.625 Z M29.569198,15 C30.43577,15 31.138396,15.6898314 31.138396,16.5406234 L31.1385165,28.3027086 C32.7114581,28.9071606 33.8541511,30.3542548 33.9870438,32.0721693 C35.5215602,31.8018741 37.1512058,32.2983993 38.3338089,33.5604839 C39.3065975,34.6008065 40.8888928,34.6008065 41.8657179,33.5604839 C42.3541304,33.0403226 43.145278,33.0403226 43.6336906,33.5604839 C44.1221031,34.0806452 44.1221031,34.9233871 43.6336906,35.4435484 C41.6800404,37.5241935 38.5154499,37.5241935 36.5658362,35.4435484 C35.5930475,34.4032258 34.0107523,34.4032258 33.0339272,35.4435484 C31.080277,37.5241935 27.9156865,37.5241935 25.9660728,35.4435484 C24.9932842,34.4032258 23.4109889,34.4032258 22.4341638,35.4435484 C20.4805136,37.5241935 17.3159232,37.5241935 15.3663094,35.4435484 C14.8778969,34.9233871 14.8778969,34.0806452 15.3663094,33.5604839 C15.7820656,33.1129032 16.4238639,33.0483871 16.9042035,33.3669355 C18.0263414,34.1048387 19.4027768,34.3185484 20.55317,33.6290323 L20.55317,33.6290323 L20.6661911,33.5604839 C21.850471,32.2992212 23.4797281,31.8025211 25.0135833,32.0703838 C25.1497624,30.3007467 26.3567232,28.8207879 27.9998655,28.2510232 L28,16.5406234 C28,15.6898314 28.702626,15 29.569198,15 Z M29.4980341,31.0993256 C28.7588467,31.0993256 28.1612058,31.6845399 28.1612058,32.4083575 C28.1612058,33.1283251 28.7627785,33.7173894 29.4980341,33.7173894 C30.2332896,33.7173894 30.8348624,33.1283251 30.8348624,32.4083575 C30.8348624,31.6883899 30.2372215,31.0993256 29.4980341,31.0993256 Z M38.1646558,26.0219724 C38.6252661,26.0219724 39,26.3898825 39,26.8421053 C39,27.2943281 38.6252661,27.6622381 38.1646558,27.6622381 L34.8506033,27.6622381 C34.3899929,27.6622381 34.015259,27.2943281 34.015259,26.8421053 C34.015259,26.3898825 34.3899929,26.0219724 34.8506033,26.0219724 L38.1646558,26.0219724 Z M38.1646558,21.5112417 C38.6252661,21.5112417 39,21.8791518 39,22.3313746 C39,22.7835973 38.6252661,23.1515074 38.1646558,23.1515074 L34.8506033,23.1515074 C34.3899929,23.1515074 34.015259,22.7835973 34.015259,22.3313746 C34.015259,21.8791518 34.3899929,21.5112417 34.8506033,21.5112417 L38.1646558,21.5112417 Z M38.1646558,16.9966786 C38.6252661,16.9966786 39,17.3645887 39,17.8168114 C39,18.2690342 38.6252661,18.6369443 38.1646558,18.6369443 L34.8506033,18.6369443 C34.3899929,18.6369443 34.015259,18.2690342 34.015259,17.8168114 C34.015259,17.3645887 34.3899929,16.9966786 34.8506033,16.9966786 L38.1646558,16.9966786 Z" id="形状结合" fill="#7894E3" fill-rule="nonzero"></path>
                        </g>
                    </g>
                </g>
            </g>
        </g>
    </g>
</svg>