<?xml version="1.0" encoding="UTF-8"?>
<svg width="20px" height="22px" viewBox="0 0 20 22" version="1.1" xmlns="http://www.w3.org/2000/svg" xmlns:xlink="http://www.w3.org/1999/xlink">
    <title>形状</title>
    <defs>
        <linearGradient x1="5.11244889%" y1="50%" x2="98.4567328%" y2="50%" id="linearGradient-1">
            <stop stop-color="#005CD9" offset="0%"></stop>
            <stop stop-color="#00CFE6" offset="100%"></stop>
        </linearGradient>
    </defs>
    <g id="页面-1" stroke="none" stroke-width="1" fill="none" fill-rule="evenodd">
        <g id="单元驾驶舱备份-2" transform="translate(-300.000000, -919.000000)" fill="url(#linearGradient-1)" fill-rule="nonzero">
            <g id="疾病预警" transform="translate(280.000000, 900.000000)">
                <path d="M38.3328989,34.8528356 C37.3626522,33.5242005 36.8410424,31.9175799 36.844602,30.268703 L36.844602,27.0796157 C36.8432651,24.0112616 34.7796494,21.3324084 31.8273993,20.566606 L31.8273993,19.8625252 C31.8273993,19.3861657 31.4437033,19 30.9703904,19 L29.2832195,19 C28.8099066,19 28.4262107,19.3861657 28.4262107,19.8625252 L28.4262107,20.5873297 C25.5128068,21.3815101 23.4894104,24.0418097 23.4882448,27.0796157 L23.4882448,29.3838801 C23.4856673,31.5838813 22.7385408,33.7173726 21.369963,35.4328366 L20,37.14582 L40,37.14582 L38.3328989,34.8528356 Z M23.3936298,35.4672012 C24.5420492,33.6485781 25.1533749,31.5389698 25.1563885,29.3841424 L25.1563885,27.0796157 C25.1563885,24.2989687 27.4042121,22.0366763 30.167075,22.0366763 C32.929938,22.0366763 35.1777616,24.2989687 35.1777616,27.0796157 L35.1777616,30.268703 C35.1777556,32.1165558 35.7165309,33.92379 36.7273106,35.4664142 L23.3936298,35.4672012 Z M30.1462232,40.3333333 C31.4417877,40.3333333 32.4920503,39.2763105 32.4920503,37.9724067 L27.8003962,37.9724067 C27.8003962,39.2763105 28.8506587,40.3333333 30.1462232,40.3333333 Z" id="形状"></path>
            </g>
        </g>
    </g>
</svg>