<?xml version="1.0" encoding="UTF-8"?>
<svg width="40px" height="40px" viewBox="0 0 40 40" version="1.1" xmlns="http://www.w3.org/2000/svg" xmlns:xlink="http://www.w3.org/1999/xlink">
    <title>冰雹@3x</title>
    <defs>
        <linearGradient x1="50%" y1="0%" x2="50%" y2="100%" id="linearGradient-1">
            <stop stop-color="#D6F1FF" offset="0%"></stop>
            <stop stop-color="#7DD4E4" offset="100%"></stop>
        </linearGradient>
    </defs>
    <g id="页面-1" stroke="none" stroke-width="1" fill="none" fill-rule="evenodd">
        <g id="天气icon40宽-12种定版" transform="translate(-232.000000, -156.000000)" fill="url(#linearGradient-1)" fill-rule="nonzero">
            <g id="冰雹" transform="translate(232.000000, 156.000000)">
                <g transform="translate(0.000000, 1.500000)" id="冰雹备份-2">
                    <path d="M20.5764976,27.3044687 C23.0388565,27.3044687 25.0344351,29.2936098 25.0344351,31.7474724 C25.0344351,34.2013351 23.0388565,36.1904762 20.5764976,36.1904762 C18.1149621,36.1904762 16.11856,34.2010095 16.11856,31.7474724 C16.11856,29.2939354 18.1149621,27.3044687 20.5764976,27.3044687 Z M20.5764976,29.8283051 C19.5134531,29.8283051 18.6508796,30.6878821 18.6508796,31.7474724 C18.6508796,32.8070628 19.5134531,33.6666397 20.5764976,33.6666397 C21.6402245,33.6666397 22.5021156,32.807529 22.5021156,31.7474724 C22.5021156,30.6874158 21.6402245,29.8283051 20.5764976,29.8283051 Z M15.0370486,20.4164984 C17.178607,20.4164984 18.9146629,22.1470893 18.9146629,24.2814221 C18.9146629,26.415294 17.1784691,28.1457475 15.0370486,28.1457475 C12.895628,28.1457475 11.1594343,26.415294 11.1594343,24.2814221 C11.1594343,22.1470893 12.8954902,20.4164984 15.0370486,20.4164984 Z M25.825785,20.1535987 C27.8070469,20.1535987 29.4132376,21.7544089 29.4132376,23.7290337 C29.4132376,25.7041099 27.8072069,27.3044687 25.825785,27.3044687 C23.8439102,27.3044687 22.2383323,25.7042693 22.2383323,23.7290337 C22.2383323,21.7542494 23.8440702,20.1535987 25.825785,20.1535987 Z M21.6455954,0.634920635 C27.4466213,0.634920635 32.3643887,4.69546273 33.5588156,10.2129296 L33.6029603,10.4317807 L33.6237426,10.4382208 C36.9139514,11.4634515 39.2612219,14.4764784 39.3617222,17.9933441 L39.3650794,18.228532 C39.3650794,22.6603175 35.8213039,26.268223 31.4042873,26.3913161 L31.1710209,26.3945625 L31.1710209,23.8707261 C34.2973744,23.8707261 36.8327598,21.3441264 36.8327598,18.228532 C36.8327598,15.5827895 34.9893971,13.3167511 32.4491234,12.7339837 L32.2471485,12.6914966 L31.3417789,12.5181404 L31.2293276,11.6061629 C30.6373088,6.80490253 26.537119,3.15875709 21.6455954,3.15875709 C17.5291161,3.15875709 13.9136777,5.7514552 12.549677,9.54311579 L12.4673744,9.78164312 L12.1158174,10.8453754 L11.0143068,10.623831 C10.5728894,10.5350497 10.1229059,10.4897133 9.6688846,10.4897133 C5.96097605,10.4897133 2.95559997,13.4848711 2.95559997,17.1805089 C2.95559997,20.805924 5.84870821,23.7574549 9.45977286,23.8675428 L9.6688846,23.8707261 L9.6688846,26.3945625 C4.56254703,26.3945625 0.423280423,22.2695767 0.423280423,17.1805089 C0.423280423,12.0909663 4.56244306,7.96587683 9.6688846,7.96587683 C9.83508779,7.96587683 10.0008988,7.9703027 10.1661871,7.97910275 L10.4398335,7.9979611 L10.4577681,7.95604828 C12.3274871,3.65888764 16.5534244,0.748519541 21.3620749,0.638171493 L21.6455954,0.634920635 Z M15.0370486,22.9403348 C14.2941665,22.9403348 13.6917538,23.5408512 13.6917538,24.2814221 C13.6917538,25.0214424 14.2942143,25.621911 15.0370486,25.621911 C15.7798828,25.621911 16.3823433,25.0214424 16.3823433,24.2814221 C16.3823433,23.5408512 15.7799306,22.9403348 15.0370486,22.9403348 Z M25.825785,22.6774352 C25.242735,22.6774352 24.7706518,23.1480228 24.7706518,23.7290337 C24.7706518,24.3103929 25.2424717,24.7806322 25.825785,24.7806322 C26.4087488,24.7806322 26.8809181,24.3101305 26.8809181,23.7290337 C26.8809181,23.1482852 26.4084854,22.6774352 25.825785,22.6774352 Z"></path>
                </g>
            </g>
        </g>
    </g>
</svg>