<?xml version="1.0" encoding="UTF-8"?>
<svg width="40px" height="40px" viewBox="0 0 40 40" version="1.1" xmlns="http://www.w3.org/2000/svg" xmlns:xlink="http://www.w3.org/1999/xlink">
    <title>冻雨@3x</title>
    <defs>
        <linearGradient x1="50%" y1="0%" x2="50%" y2="100%" id="linearGradient-1">
            <stop stop-color="#D6F1FF" offset="0%"></stop>
            <stop stop-color="#7DD4E4" offset="100%"></stop>
        </linearGradient>
    </defs>
    <g id="页面-1" stroke="none" stroke-width="1" fill="none" fill-rule="evenodd">
        <g id="天气icon40宽-12种定版" transform="translate(-172.000000, -156.000000)" fill="url(#linearGradient-1)" fill-rule="nonzero">
            <g id="冻雨" transform="translate(172.000000, 156.000000)">
                <g id="雨加冰雹备份" transform="translate(0.000000, 3.000000)">
                    <path d="M12.3718762,22.3834537 C12.6458616,22.1229733 12.9766855,21.9587983 13.4513933,22.0573203 C13.8945592,22.1494557 14.1207618,22.3945201 14.2865794,22.7119273 C14.3497094,22.8327702 14.3962726,22.9588344 14.437788,23.1028697 C14.4957684,23.3040287 14.5469014,23.5558301 14.5954621,23.8630662 C14.6792587,24.3932348 14.756287,25.1008638 14.8179997,25.8833534 L14.8537532,26.3687833 C14.9527668,27.8159025 14.9763233,29.1569729 14.8911008,29.7570969 C14.6433264,31.4972418 13.3646402,32.8446263 11.8267365,32.5240079 C10.3611983,32.2171003 9.57810593,30.5360894 9.81883655,28.8391287 C9.89855933,28.2759322 10.2478022,27.1388365 10.6968856,25.907998 L10.7822173,25.6762345 L10.9589065,25.2089295 L11.1634018,24.6887895 C11.3656385,24.1859088 11.5594127,23.7391443 11.7295463,23.3875448 C11.8624057,23.1129763 11.9826032,22.8918351 12.0970123,22.7194201 C12.1820424,22.5912794 12.2677841,22.482415 12.3718762,22.3834537 Z M12.6706365,27.6768682 L12.6453619,27.1527051 L12.5131426,27.5376352 C12.3234095,28.1004864 12.174626,28.5907167 12.0974244,28.9114887 L12.0743837,29.0120036 L12.0466268,29.1619071 C11.9623107,29.7562688 12.1493583,30.2094815 12.2598017,30.285096 L12.2710214,30.2900787 L12.2746326,30.2804531 L12.336666,30.2137544 C12.4877075,30.0545982 12.6148992,29.7743126 12.663466,29.4332235 C12.6933481,29.222798 12.7006448,28.7788852 12.6876949,28.2144049 L12.6706365,27.6768682 Z M21.3796815,0.571428571 C27.1727158,0.571428571 32.0792083,4.70809264 33.2319733,10.3141882 L33.2738484,10.5335759 L33.3144741,10.5451962 C36.6021968,11.5541192 38.9520954,14.5968775 39.0447763,18.1504813 L39.047619,18.3686743 C39.047619,22.8135033 35.5409572,26.4307816 31.1723621,26.5463117 L30.9568299,26.5491585 L30.9568299,24.2735006 C34.1821303,24.2735006 36.797075,21.6295287 36.797075,18.3686743 C36.797075,15.5915422 34.8843766,13.2146194 32.2515203,12.6134348 L32.0666791,12.5743901 L31.2620516,12.4180807 L31.162113,11.5957815 C30.5577896,6.62338387 26.372526,2.84708641 21.3796815,2.84708641 C17.1701563,2.84708641 13.4739927,5.54253089 12.0878298,9.48131473 L12.0118469,9.70558289 L11.6993832,10.6646636 L10.7204786,10.4649124 C10.2687172,10.3727279 9.80642503,10.3257409 9.33793739,10.3257409 C5.52865865,10.3257409 2.44102021,13.4475206 2.44102021,17.2996208 C2.44102021,21.0837734 5.42147754,24.1637269 9.13813902,24.2706307 L9.33793739,24.2735006 L9.33793739,26.5491585 C4.28595702,26.5491585 0.19047619,22.4081842 0.19047619,17.2996208 C0.19047619,12.1906583 4.28576813,8.05008306 9.33793739,8.05008306 C9.58532214,8.05008306 9.83157889,8.06002601 10.0762916,8.07976536 L10.2072725,8.09255358 L10.2451705,8.00140448 C12.0929384,3.63820152 16.3112796,0.680491397 21.1123663,0.574380683 L21.3796815,0.571428571 Z M18.3739204,16.314669 C18.6229022,16.078182 18.9188985,15.921193 19.326913,15.9684002 L19.4527429,15.9888129 L19.5796997,16.0212335 C19.9418248,16.1316697 20.1395261,16.3585308 20.2885043,16.643908 C20.3515671,16.7647086 20.3980984,16.8907449 20.439589,17.0347419 C20.4975582,17.2359298 20.5486865,17.4877654 20.5972393,17.7950156 C20.6496132,18.1264461 20.6993371,18.5271874 20.7443209,18.97216 L20.7707256,19.2442507 L20.8197206,19.8154632 L20.8554599,20.301065 C20.9544152,21.7486153 20.9777778,23.089361 20.8923509,23.6885828 C20.6454659,25.4276922 19.3662884,26.7753409 17.8284759,26.4557423 C16.3628058,26.1488649 15.5788094,24.4662792 15.8204622,22.7712207 C15.9001896,22.2078036 16.2494122,21.0704303 16.6983961,19.8396304 L16.7837082,19.6078778 L16.9603523,19.1406194 L17.1648518,18.6204123 C17.3670948,18.1174765 17.5608835,17.6706894 17.7310582,17.3190657 C17.8639711,17.0444341 17.9842381,16.8232367 18.0987509,16.6507609 C18.1838624,16.5225685 18.269704,16.4136554 18.3739204,16.314669 Z M18.6641991,21.418405 L18.6475628,21.0827671 L18.4673283,21.6111855 C18.2424025,22.2887074 18.0837544,22.8431122 18.0481484,23.0947306 C17.9636446,23.6874786 18.1509763,24.1411305 18.2609349,24.2166985 L18.2724721,24.2216578 L18.2759185,24.2119485 L18.338193,24.1449994 C18.489241,23.9858662 18.6162683,23.7059855 18.6647365,23.3645665 L18.6800266,23.2113219 C18.7052618,22.8524062 18.6986492,22.1897646 18.6641991,21.418405 L18.6641991,21.418405 Z M30.22566,24 L21.5,24 L24.2373905,33.864643 L30.22566,24 Z M26.215028,26.2698958 L25.0101163,28.2546926 L24.4592483,26.2698958 L26.215028,26.2698958 Z M30.0720434,16 L24,16 L25.904905,22.864643 L30.0720434,16 Z M27.2811105,17.5795832 L26.4426323,18.9607707 L26.0592923,17.5795832 L27.2811105,17.5795832 Z" id="雨加冰雹备份-2"></path>
                </g>
            </g>
        </g>
    </g>
</svg>