<?xml version="1.0" encoding="UTF-8"?>
<svg width="40px" height="40px" viewBox="0 0 40 40" version="1.1" xmlns="http://www.w3.org/2000/svg" xmlns:xlink="http://www.w3.org/1999/xlink">
    <title>浮尘@3x</title>
    <defs>
        <linearGradient x1="50%" y1="0%" x2="50%" y2="100%" id="linearGradient-1">
            <stop stop-color="#D6F1FF" offset="0%"></stop>
            <stop stop-color="#7DD4E4" offset="100%"></stop>
        </linearGradient>
    </defs>
    <g id="页面-1" stroke="none" stroke-width="1" fill="none" fill-rule="evenodd">
        <g id="天气icon40宽-12种定版" transform="translate(-112.000000, -156.000000)" fill="url(#linearGradient-1)" fill-rule="nonzero">
            <g id="浮尘" transform="translate(112.000000, 156.000000)">
                <g id="天气-浮尘_export" transform="translate(1.000000, 4.500000)">
                    <g id="天气-浮尘" transform="translate(0.000000, 0.500000)">
                        <path d="M8.5,8 C7.67157288,8 7,7.32842712 7,6.5 C7,5.67157288 7.67157288,5 8.5,5 C9.32842712,5 10,5.67157288 10,6.5 C10,7.32842712 9.32842712,8 8.5,8 Z M19,8 C18.1715729,8 17.5,7.32842712 17.5,6.5 C17.5,5.67157288 18.1715729,5 19,5 C19.8284271,5 20.5,5.67157288 20.5,6.5 C20.5,7.32842712 19.8284271,8 19,8 Z M29.5,8 C28.6715729,8 28,7.32842712 28,6.5 C28,5.67157288 28.6715729,5 29.5,5 C30.3284271,5 31,5.67157288 31,6.5 C31,7.32842712 30.3284271,8 29.5,8 Z M2.5,13 C1.67157288,13 1,12.3284271 1,11.5 C1,10.6715729 1.67157288,10 2.5,10 C3.32842712,10 4,10.6715729 4,11.5 C4,12.3284271 3.32842712,13 2.5,13 Z M13.4995,13 C12.6710729,13 11.9995,12.3284271 11.9995,11.5 C11.9995,10.6715729 12.6710729,10 13.4995,10 C14.3279271,10 14.9995,10.6715729 14.9995,11.5 C14.9995,12.3284271 14.3279271,13 13.4995,13 Z M24.5005,13 C23.6720729,13 23.0005,12.3284271 23.0005,11.5 C23.0005,10.6715729 23.6720729,10 24.5005,10 C25.3289271,10 26.0005,10.6715729 26.0005,11.5 C26.0005,12.3284271 25.3289271,13 24.5005,13 Z M35.5,13 C34.6715729,13 34,12.3284271 34,11.5 C34,10.6715729 34.6715729,10 35.5,10 C36.3284271,10 37,10.6715729 37,11.5 C37,12.3284271 36.3284271,13 35.5,13 Z M2.5,3 C1.67157288,3 1,2.32842712 1,1.5 C1,0.671572875 1.67157288,0 2.5,0 C3.32842712,0 4,0.671572875 4,1.5 C4,2.32842712 3.32842712,3 2.5,3 Z M13.4995,3 C12.6710729,3 11.9995,2.32842712 11.9995,1.5 C11.9995,0.671572875 12.6710729,0 13.4995,0 C14.3279271,0 14.9995,0.671572875 14.9995,1.5 C14.9995,2.32842712 14.3279271,3 13.4995,3 Z M24.5005,3 C23.6720729,3 23.0005,2.32842712 23.0005,1.5 C23.0005,0.671572875 23.6720729,0 24.5005,0 C25.3289271,0 26.0005,0.671572875 26.0005,1.5 C26.0005,2.32842712 25.3289271,3 24.5005,3 Z M35.5,3 C34.6715729,3 34,2.32842712 34,1.5 C34,0.671572875 34.6715729,0 35.5,0 C36.3284271,0 37,0.671572875 37,1.5 C37,2.32842712 36.3284271,3 35.5,3 Z M1.425,16.5 L36.575,16.5 C37.3620058,16.5 38,17.1715729 38,18 C38,18.8284271 37.3620058,19.5 36.575,19.5 L1.425,19.5 C0.637994231,19.5 0,18.8284271 0,18 C0,17.1715729 0.637994231,16.5 1.425,16.5 Z M1.425,24.5 L36.575,24.5 C37.3620058,24.5 38,25.1715729 38,26 C38,26.8284271 37.3620058,27.5 36.575,27.5 L1.425,27.5 C0.637994231,27.5 0,26.8284271 0,26 C0,25.1715729 0.637994231,24.5 1.425,24.5 Z" id="形状"></path>
                    </g>
                </g>
            </g>
        </g>
    </g>
</svg>