<?xml version="1.0" encoding="UTF-8"?>
<svg width="40px" height="40px" viewBox="0 0 40 40" version="1.1" xmlns="http://www.w3.org/2000/svg" xmlns:xlink="http://www.w3.org/1999/xlink">
    <title>晴天@3x</title>
    <defs>
        <linearGradient x1="50%" y1="0%" x2="50%" y2="100%" id="linearGradient-1">
            <stop stop-color="#D6F1FF" offset="0%"></stop>
            <stop stop-color="#7DD4E4" offset="100%"></stop>
        </linearGradient>
    </defs>
    <g id="页面-1" stroke="none" stroke-width="1" fill="none" fill-rule="evenodd">
        <g id="天气icon40宽-12种定版" transform="translate(-112.000000, -31.000000)" fill="url(#linearGradient-1)" fill-rule="nonzero">
            <g id="晴天" transform="translate(112.000000, 31.000000)">
                <path d="M19.5921289,31.0285629 C20.3133757,31.0285629 20.9060948,31.5788466 20.9733308,32.2824652 L20.9796826,32.4160937 L20.9796826,37.7961427 C20.9796826,38.5624548 20.3584536,39.1836735 19.5921289,39.1836735 C18.870882,39.1836735 18.2781629,38.6333898 18.210927,37.9297712 L18.2045751,37.7961427 L18.2045751,32.4160937 C18.2045751,31.6497816 18.8258041,31.0285629 19.5921289,31.0285629 Z M11.5048755,27.6795728 C12.0128818,28.1875708 12.0446322,28.9914713 11.6001267,29.5364571 L11.5048755,29.6418376 L7.70086851,33.4457816 C7.15899507,33.987646 6.28044465,33.987646 5.73857121,33.4457816 C5.23056486,32.9377836 5.19881446,32.1338831 5.64332002,31.5888973 L5.73857121,31.4835168 L9.54257816,27.6795728 C10.0844516,27.1377084 10.963002,27.1377084 11.5048755,27.6795728 Z M29.5362972,27.5836741 L29.6416795,27.6789237 L33.4456865,31.4828676 C33.9875599,32.0247321 33.9875599,32.903268 33.4456865,33.4451324 C32.9376801,33.9531303 32.1337663,33.9848802 31.5887715,33.540382 L31.4833892,33.4451324 L27.6793822,29.6411885 C27.1375088,29.099324 27.1375088,28.2207881 27.6793822,27.6789237 C28.1873886,27.1709258 28.9913024,27.1391759 29.5362972,27.5836741 Z M19.5914797,9.27798803 C25.2886163,9.27798803 29.906116,13.8951793 29.906116,19.5918043 C29.906116,25.2885219 25.2885237,29.9062697 19.5914797,29.9062697 C13.8949689,29.9062697 9.27749259,25.2884059 9.27749259,19.5918043 C9.27749259,13.8952952 13.8948763,9.27798803 19.5914797,9.27798803 Z M19.5914797,12.0530495 C15.4275258,12.0530495 12.0526001,15.4279194 12.0526001,19.5918043 C12.0526001,23.7558442 15.4276809,27.1312082 19.5914797,27.1312082 C23.7558429,27.1312082 27.1310085,23.755929 27.1310085,19.5918043 C27.1310085,15.4278346 23.755998,12.0530495 19.5914797,12.0530495 Z M6.76704275,18.2042735 C7.53336751,18.2042735 8.15459648,18.8254922 8.15459648,19.5918043 C8.15459648,20.3130392 7.60430369,20.9057484 6.90067343,20.9729833 L6.76704275,20.979335 L1.38755373,20.979335 C0.621228966,20.979335 0,20.3581163 0,19.5918043 C0,18.8705694 0.550292786,18.2778601 1.25392305,18.2106253 L1.38755373,18.2042735 L6.76704275,18.2042735 Z M37.7961197,18.2042735 C38.5624445,18.2042735 39.1836735,18.8254922 39.1836735,19.5918043 C39.1836735,20.3130392 38.6333807,20.9057484 37.9297504,20.9729833 L37.7961197,20.979335 L32.4166307,20.979335 C31.650306,20.979335 31.029077,20.3581163 31.029077,19.5918043 C31.029077,18.8705694 31.5793698,18.2778601 32.283,18.2106253 L32.4166307,18.2042735 L37.7961197,18.2042735 Z M7.59483705,5.6435511 L7.70021936,5.73880071 L11.5042263,9.54274464 C12.0460998,10.0846091 12.0460998,10.963145 11.5042263,11.5050094 C10.99622,12.0130074 10.1923061,12.0447572 9.64731132,11.6002591 L9.54192901,11.5050094 L5.73792206,7.7010655 C5.19604862,7.15920104 5.19604862,6.28066517 5.73792206,5.73880071 C6.24592841,5.23080278 7.04984227,5.19905291 7.59483705,5.6435511 Z M33.4457702,5.73855985 C33.9537332,6.24660112 33.985415,7.05050437 33.540863,7.5954522 L33.4456028,7.70082464 L29.6409467,11.5047686 C29.099027,12.0465868 28.2204766,12.0465118 27.6786494,11.5046012 C27.1706864,10.9965599 27.1390046,10.1926566 27.5835566,9.64770881 L27.6788168,9.54233637 L31.4834729,5.73839244 C32.0253926,5.19657421 32.903943,5.19664916 33.4457702,5.73855985 Z M19.5914797,0 C20.3127265,0 20.9054456,0.55028367 20.9726816,1.25390227 L20.9790334,1.38753074 L20.9790334,6.76757978 C20.9790334,7.53389185 20.3578045,8.15511052 19.5914797,8.15511052 C18.8702329,8.15511052 18.2775138,7.60482685 18.2102778,6.90120825 L18.203926,6.76757978 L18.203926,1.38753074 C18.203926,0.621218674 18.8251549,0 19.5914797,0 Z" id="晴天备份-2"></path>
            </g>
        </g>
    </g>
</svg>