<?xml version="1.0" encoding="UTF-8"?>
<svg width="40px" height="40px" viewBox="0 0 40 40" version="1.1" xmlns="http://www.w3.org/2000/svg" xmlns:xlink="http://www.w3.org/1999/xlink">
    <title>台风@3x</title>
    <defs>
        <linearGradient x1="50%" y1="0%" x2="50%" y2="100%" id="linearGradient-1">
            <stop stop-color="#D6F1FF" offset="0%"></stop>
            <stop stop-color="#7DD4E4" offset="100%"></stop>
        </linearGradient>
    </defs>
    <g id="页面-1" stroke="none" stroke-width="1" fill="none" fill-rule="evenodd">
        <g id="天气icon40宽-12种定版" transform="translate(-352.000000, -156.000000)" fill="url(#linearGradient-1)" fill-rule="nonzero">
            <g id="台风" transform="translate(352.000000, 156.000000)">
                <g id="形状-2" transform="translate(5.000000, 3.000000)">
                    <path d="M17.5671651,3.57788823 C18.9577838,3.86926604 20.28173,4.32674898 21.5191918,4.93402724 C24.1471911,6.08594889 26.3243494,8.01031264 27.6476463,10.4939202 C28.2953621,11.574231 28.7867624,12.7396632 29.1125822,13.9556393 C31.2435364,21.9084684 25.8238977,30.266183 17.0087399,32.6251091 C10.8114919,34.288745 4.58441557,32.5446701 0.691546344,28.5970049 C3.84670535,30.2871092 7.78255484,30.8106429 11.7071031,29.7590633 L12.0088843,29.675113 L12.0088843,29.675113 C10.6182657,29.3837352 9.29431948,28.9262522 8.05685766,28.318974 C5.43096772,27.1633988 3.25170006,25.2426886 1.92840315,22.7590811 C1.28068737,21.6787702 0.789287066,20.513338 0.463467265,19.2973619 C-1.66748688,11.3445328 3.75215182,2.9868182 12.5673095,0.62789215 C18.7645576,-1.03574379 24.9916339,0.708331108 28.8845031,4.65599632 C25.7293441,2.96589203 21.7934946,2.44235832 17.8689463,3.49393786 L17.5671651,3.57788823 L17.5671651,3.57788823 Z M13.129343,11.1969216 C9.98855181,12.0384941 8.12386431,15.2682276 8.9633274,18.4126723 C9.80489987,21.5534635 13.0346334,23.418151 16.1790781,22.5786879 C19.3198694,21.7371155 21.1845569,18.507382 20.3450938,15.3629372 C19.5035213,12.222146 16.2737878,10.3574585 13.129343,11.1969216 Z" id="形状"></path>
                </g>
            </g>
        </g>
    </g>
</svg>