<?xml version="1.0" encoding="UTF-8"?>
<svg width="40px" height="40px" viewBox="0 0 40 40" version="1.1" xmlns="http://www.w3.org/2000/svg" xmlns:xlink="http://www.w3.org/1999/xlink">
    <title>雾@3x</title>
    <defs>
        <linearGradient x1="50%" y1="0%" x2="50%" y2="100%" id="linearGradient-1">
            <stop stop-color="#D6F1FF" offset="0%"></stop>
            <stop stop-color="#7DD4E4" offset="100%"></stop>
        </linearGradient>
    </defs>
    <g id="页面-1" stroke="none" stroke-width="1" fill="none" fill-rule="evenodd">
        <g id="天气icon40宽-12种定版" transform="translate(-292.000000, -31.000000)" fill="url(#linearGradient-1)" fill-rule="nonzero">
            <g id="雾" transform="translate(292.000000, 31.000000)">
                <g id="天气-雾" transform="translate(1.000000, 4.325000)">
                    <path d="M29.0672857,23.0714286 L26.3557143,23.0714286 C28.2086585,19.645603 27.3761905,15.3873056 24.369518,12.9115019 C21.3628456,10.4356982 17.0239402,10.4356982 14.0172677,12.9115019 C11.0105953,15.3873056 10.1781272,19.645603 12.0310714,23.0714286 L8.93271429,23.0714286 C7.10259117,18.5372305 8.52916966,13.339101 12.4173412,10.3742359 C16.3055127,7.40937087 21.6958445,7.40937087 25.584016,10.3742359 C29.4721875,13.339101 30.898766,18.5372305 29.0686429,23.0714286 L29.0672857,23.0714286 Z M19,0 C19.7495293,0 20.3571429,0.607613554 20.3571429,1.35714286 L20.3571429,5.42857143 C20.3571429,6.17810073 19.7495293,6.78571429 19,6.78571429 C18.2504707,6.78571429 17.6428571,6.17810073 17.6428571,5.42857143 L17.6428571,1.35714286 C17.6428571,0.607613554 18.2504707,0 19,0 Z M32.4357143,5.56428571 C32.6905546,5.81884263 32.8337462,6.16426602 32.8337462,6.52446429 C32.8337462,6.88466255 32.6905546,7.23008594 32.4357143,7.48464286 L29.5558571,10.3631429 C29.0233429,10.8774623 28.1768849,10.8701068 27.6533891,10.3466109 C27.1298932,9.82311505 27.1225377,8.97665706 27.6368571,8.44414286 L30.5153571,5.56428571 C31.0453212,5.03448166 31.9043931,5.03448166 32.4343571,5.56428571 L32.4357143,5.56428571 Z M38,19 C38,19.7495293 37.3923864,20.3571429 36.6428571,20.3571429 L32.5714286,20.3571429 C31.8218993,20.3571429 31.2142857,19.7495293 31.2142857,19 C31.2142857,18.2504707 31.8218993,17.6428571 32.5714286,17.6428571 L36.6428571,17.6428571 C37.3923864,17.6428571 38,18.2504707 38,19 Z M0,19 C0,18.2504707 0.607613554,17.6428571 1.35714286,17.6428571 L5.42857143,17.6428571 C6.17810073,17.6428571 6.78571429,18.2504707 6.78571429,19 C6.78571429,19.7495293 6.17810073,20.3571429 5.42857143,20.3571429 L1.35714286,20.3571429 C0.607613554,20.3571429 0,19.7495293 0,19 Z M5.56428571,5.56428571 C5.81884263,5.30944544 6.16426602,5.16625382 6.52446429,5.16625382 C6.88466255,5.16625382 7.23008594,5.30944544 7.48464286,5.56428571 L10.3631429,8.44414286 C10.7159411,8.78488678 10.8574314,9.28947714 10.7332319,9.76397423 C10.6090323,10.2384713 10.2384713,10.6090323 9.76397423,10.7332319 C9.28947714,10.8574314 8.78488678,10.7159411 8.44414286,10.3631429 L5.56428571,7.48464286 C5.03448166,6.95467877 5.03448166,6.09560694 5.56428571,5.56564286 L5.56428571,5.56428571 Z M1.35714286,23.0714286 L36.6428571,23.0714286 C37.3923864,23.0714286 38,23.6790421 38,24.4285714 C38,25.1781007 37.3923864,25.7857143 36.6428571,25.7857143 L1.35714286,25.7857143 C0.607613554,25.7857143 0,25.1781007 0,24.4285714 C0,23.6790421 0.607613554,23.0714286 1.35714286,23.0714286 Z M1.35714286,28.5 L36.6428571,28.5 C37.3923864,28.5 38,29.1076136 38,29.8571429 C38,30.6066722 37.3923864,31.2142857 36.6428571,31.2142857 L1.35714286,31.2142857 C0.607613554,31.2142857 0,30.6066722 0,29.8571429 C0,29.1076136 0.607613554,28.5 1.35714286,28.5 Z" id="形状"></path>
                </g>
            </g>
        </g>
    </g>
</svg>