<?xml version="1.0" encoding="UTF-8"?>
<svg width="40px" height="40px" viewBox="0 0 40 40" version="1.1" xmlns="http://www.w3.org/2000/svg" xmlns:xlink="http://www.w3.org/1999/xlink">
    <title>雾霾@3x</title>
    <defs>
        <linearGradient x1="50%" y1="0%" x2="50%" y2="100%" id="linearGradient-1">
            <stop stop-color="#D6F1FF" offset="0%"></stop>
            <stop stop-color="#7DD4E4" offset="100%"></stop>
        </linearGradient>
    </defs>
    <g id="页面-1" stroke="none" stroke-width="1" fill="none" fill-rule="evenodd">
        <g id="天气icon40宽-12种定版" transform="translate(-292.000000, -156.000000)" fill="url(#linearGradient-1)" fill-rule="nonzero">
            <g id="雾霾" transform="translate(292.000000, 156.000000)">
                <g id="天气-雾霾" transform="translate(0.000000, 5.714286)">
                    <path d="M20,9.65142857 C22.4217119,5.44794016 27.3656042,3.39609994 32.0520691,4.64951534 C36.738534,5.90293074 39.9980728,10.1488142 39.9980728,15 C39.9980728,19.8511858 36.738534,24.0970693 32.0520691,25.3504847 C27.3656042,26.6039001 22.4217119,24.5520598 20,20.3485714 C17.5782881,24.5520598 12.6343958,26.6039001 7.94793087,25.3504847 C3.26146595,24.0970693 0.00192723296,19.8511858 0.00192723296,15 C0.00192723296,10.1488142 3.26146595,5.90293074 7.94793087,4.64951534 C12.6343958,3.39609994 17.5782881,5.44794016 20,9.65142857 L20,9.65142857 Z M10.7142857,22.8571429 C15.0536659,22.8571429 18.5714286,19.3393802 18.5714286,15 C18.5714286,10.6606198 15.0536659,7.14285714 10.7142857,7.14285714 C6.37490554,7.14285714 2.85714286,10.6606198 2.85714286,15 C2.85714286,19.3393802 6.37490554,22.8571429 10.7142857,22.8571429 Z M29.3857143,22.8571429 C33.7250945,22.8571429 37.2428571,19.3393802 37.2428571,15 C37.2428571,10.6606198 33.7250945,7.14285714 29.3857143,7.14285714 C25.0463341,7.14285714 21.5285714,10.6606198 21.5285714,15 C21.5285714,19.3393802 25.0463341,22.8571429 29.3857143,22.8571429 Z M4.28571429,2.85714286 C3.49673607,2.85714286 2.85714286,2.21754964 2.85714286,1.42857143 C2.85714286,0.639593215 3.49673607,0 4.28571429,0 C5.0746925,0 5.71428571,0.639593215 5.71428571,1.42857143 C5.71428571,2.21754964 5.0746925,2.85714286 4.28571429,2.85714286 Z M20,2.85714286 C19.2110218,2.85714286 18.5714286,2.21754964 18.5714286,1.42857143 C18.5714286,0.639593215 19.2110218,0 20,0 C20.7889782,0 21.4285714,0.639593215 21.4285714,1.42857143 C21.4285714,2.21754964 20.7889782,2.85714286 20,2.85714286 Z M35.7142857,2.85714286 C34.9253075,2.85714286 34.2857143,2.21754964 34.2857143,1.42857143 C34.2857143,0.639593215 34.9253075,0 35.7142857,0 C36.5032639,0 37.1428571,0.639593215 37.1428571,1.42857143 C37.1428571,2.21754964 36.5032639,2.85714286 35.7142857,2.85714286 Z M4.28571429,28.5714286 C3.49673607,28.5714286 2.85714286,27.9318354 2.85714286,27.1428571 C2.85714286,26.3538789 3.49673607,25.7142857 4.28571429,25.7142857 C5.0746925,25.7142857 5.71428571,26.3538789 5.71428571,27.1428571 C5.71428571,27.9318354 5.0746925,28.5714286 4.28571429,28.5714286 Z M20,28.5714286 C19.2110218,28.5714286 18.5714286,27.9318354 18.5714286,27.1428571 C18.5714286,26.3538789 19.2110218,25.7142857 20,25.7142857 C20.7889782,25.7142857 21.4285714,26.3538789 21.4285714,27.1428571 C21.4285714,27.9318354 20.7889782,28.5714286 20,28.5714286 Z M35.7142857,28.5714286 C34.9253075,28.5714286 34.2857143,27.9318354 34.2857143,27.1428571 C34.2857143,26.3538789 34.9253075,25.7142857 35.7142857,25.7142857 C36.5032639,25.7142857 37.1428571,26.3538789 37.1428571,27.1428571 C37.1428571,27.9318354 36.5032639,28.5714286 35.7142857,28.5714286 Z" id="形状"></path>
                </g>
            </g>
        </g>
    </g>
</svg>