<?xml version="1.0" encoding="UTF-8"?>
<svg width="40px" height="40px" viewBox="0 0 40 40" version="1.1" xmlns="http://www.w3.org/2000/svg" xmlns:xlink="http://www.w3.org/1999/xlink">
    <title>雪@3x</title>
    <defs>
        <linearGradient x1="50%" y1="0%" x2="50%" y2="100%" id="linearGradient-1">
            <stop stop-color="#D6F1FF" offset="0%"></stop>
            <stop stop-color="#7DD4E4" offset="100%"></stop>
        </linearGradient>
    </defs>
    <g id="页面-1" stroke="none" stroke-width="1" fill="none" fill-rule="evenodd">
        <g id="天气icon40宽-12种定版" transform="translate(-352.000000, -31.000000)" fill="url(#linearGradient-1)" fill-rule="nonzero">
            <g id="雪" transform="translate(352.000000, 31.000000)">
                <g id="雪-(1)" transform="translate(3.000000, 1.000000)">
                    <path d="M32.4807247,26.7619394 L28.8095383,24.6472502 L30.8920242,24.0890581 C31.5253575,23.9173067 31.8903293,23.2732389 31.7293123,22.6399056 C31.5575609,22.0065722 30.9134931,21.630866 30.2801598,21.8026174 L25.9112332,22.9726739 L22.6694253,21.1048773 L26.5230976,20.0743688 C27.0061485,19.9455553 27.3603858,19.5161767 27.3925892,19.0116569 C27.4247926,18.5071372 27.134962,18.0348208 26.6733801,17.8416005 L23.2705553,16.4031824 L25.9004987,14.8788886 L30.2694253,16.0489451 C30.3767699,16.0811485 30.4733801,16.0918829 30.5807247,16.0918829 C31.1067134,16.0918829 31.5790298,15.7483801 31.7185778,15.2116569 C31.8903293,14.5783236 31.5146231,13.9342558 30.8812897,13.7625044 L28.7988038,13.2043123 L32.4699903,11.0896231 C33.0389168,10.7675892 33.2321372,10.0376456 32.8993688,9.47945358 C32.5773349,8.91052704 31.8473914,8.71730669 31.2891993,9.05007503 L27.6180129,11.1647643 L28.176205,9.08227843 C28.3479564,8.44894509 27.9722502,7.8048773 27.3389168,7.63312587 C26.7055835,7.46137444 26.0615157,7.83708066 25.8897643,8.47041401 L24.7197078,12.8393406 L22.0897643,14.3636344 L22.5406117,10.7031824 C22.6050185,10.230866 22.3688603,9.76928407 21.9609508,9.53312587 C21.5530412,9.29696767 21.0377869,9.32917107 20.6620807,9.6190016 L17.7315722,11.830301 L17.7315722,8.7924479 L20.9304423,5.59357785 C21.3920242,5.13199593 21.3920242,4.38058348 20.9304423,3.9190016 C20.4688603,3.45741968 19.7174479,3.45741968 19.255866,3.9190016 L17.7315722,5.45402982 L17.7315722,1.21391683 C17.7315722,0.559114559 17.2055835,0.0331258691 16.5507813,0.0331258691 C15.895979,0.0331258691 15.3699903,0.559114559 15.3699903,1.21391683 L15.3699903,5.45402982 L13.8456965,3.92973604 C13.3841146,3.46815413 12.6327022,3.46815413 12.1711202,3.92973604 C11.7095383,4.39131796 11.7095383,5.14273041 12.1711202,5.60431233 L15.3699903,8.7924479 L15.3699903,11.830301 L12.4180129,9.59753268 C12.0101033,9.29696771 11.4626456,9.27549878 11.0440016,9.55459479 C10.6253575,9.83369084 10.4321372,10.3489451 10.5609508,10.8427304 L11.5914592,14.7071372 L8.34965131,12.8393406 L7.19032927,8.47041401 C7.01857785,7.83708066 6.37451006,7.46137448 5.74117675,7.63312587 C5.1078434,7.8048773 4.74287166,8.44894509 4.90388861,9.08227843 L5.4620807,11.1647643 L1.80162872,9.05007503 C1.23270219,8.72804113 0.513493146,8.92126148 0.191459215,9.47945358 C-0.130574717,10.0376457 0.0626456719,10.7675892 0.620837766,11.0896231 L4.29202419,13.2043123 L2.20953831,13.7732389 C1.57620497,13.9449903 1.20049878,14.5890581 1.37225017,15.2223914 C1.5117982,15.7483801 1.99484904,16.1026174 2.51010329,16.1026174 C2.60671346,16.1026174 2.71405808,16.0918829 2.82140274,16.0596796 L7.19032927,14.8896231 L10.4321372,16.7574197 L6.56773041,17.7879281 C6.08467957,17.9167417 5.73044227,18.3461202 5.69823886,18.85064 C5.66603546,19.3551598 5.95586599,19.8274762 6.4174479,20.0206965 L9.82027276,21.4591146 L7.17959479,22.9834084 L2.81066826,21.8133519 C2.17733491,21.6416004 1.53326712,22.0173067 1.36151573,22.65064 C1.1897643,23.2839733 1.56547053,23.9280411 2.19880383,24.0997926 L4.28128974,24.6579847 L0.620837766,26.7619394 C0.0519112285,27.0839733 -0.141309123,27.8139169 0.191459215,28.3721089 C0.40614849,28.7478151 0.803323637,28.9625044 1.21123323,28.9625044 C1.41518802,28.9625044 1.61914282,28.9088321 1.80162872,28.8014875 L5.47281514,26.6867982 L4.91462305,28.7692841 C4.74287162,29.4026174 5.11857785,30.0466852 5.75191119,30.2184366 C5.85925581,30.25064 5.95586599,30.2613745 6.05247616,30.2613745 C6.57846485,30.2613745 7.05078125,29.9178717 7.19032927,29.3811485 L8.36038575,25.0122219 L10.9903293,23.4879281 L10.5394818,27.1483801 C10.4858095,27.6206965 10.7112332,28.0822784 11.1191428,28.3184366 C11.5270524,28.5545948 12.0423067,28.5223914 12.4180129,28.2325609 L15.3592558,26.010527 L15.3592558,29.0483801 L12.1603858,32.2472502 C11.6988038,32.7088321 11.6988038,33.4602445 12.1603858,33.9218265 C12.6219677,34.3834084 13.3733801,34.3834084 13.834962,33.9218265 L15.3592558,32.3975327 L15.3592558,36.6376457 C15.3592558,37.2924479 15.8852445,37.8184366 16.5400468,37.8184366 C17.194849,37.8184366 17.7208377,37.2924479 17.7208378,36.6376457 L17.7208378,32.4082671 L19.2451315,33.9325609 C19.4812897,34.1687191 19.7818547,34.2760637 20.0824197,34.2760638 C20.3829847,34.2760638 20.6835496,34.1579847 20.9197078,33.9325609 C21.3812897,33.470979 21.3812897,32.7195665 20.9197078,32.2579847 L17.7315722,29.069849 L17.7315722,26.0319959 L20.6835496,28.2647643 C20.8982389,28.4257812 21.1451315,28.5009225 21.3920242,28.5009225 C21.6174479,28.5009225 21.8536061,28.4365157 22.0468265,28.2969677 C22.4654705,28.0178717 22.6586909,27.5026174 22.5298773,27.0088321 L21.4993688,23.1551598 L24.7411767,25.0229564 L25.9112332,29.3918829 C26.0507813,29.9178716 26.5338321,30.2721089 27.0490863,30.2721089 C27.1456965,30.2721089 27.2530411,30.2613744 27.3603858,30.2291711 C27.9937191,30.0574196 28.3586908,29.4133519 28.1976739,28.7800185 L27.6394818,26.6975327 L31.2999338,28.8122219 C31.4824196,28.9195665 31.6863744,28.9732389 31.8903293,28.9732389 C32.2982389,28.9732389 32.695414,28.7585496 32.9101033,28.3828434 C33.2321372,27.8031824 33.0389168,27.0839733 32.4807247,26.7619394 L32.4807247,26.7619394 Z M22.6050185,18.6788886 L19.7925892,19.430301 L18.9123632,18.9257812 L20.7264875,17.8845383 L22.6050185,18.6788886 L22.6050185,18.6788886 Z M19.8677304,13.1721089 L19.534962,15.8342558 L17.7208378,16.8754987 L17.7208378,14.7822784 L19.8677304,13.1721089 L19.8677304,13.1721089 Z M13.7383519,13.5585496 L15.3699903,14.7930129 L15.3699903,16.8862332 L14.5004987,16.3817135 L13.7383519,13.5585496 L13.7383519,13.5585496 Z M10.496544,19.1726739 L13.3089733,18.4212615 L14.1784649,18.9257812 L12.3643406,19.9670242 L10.496544,19.1726739 Z M13.2230976,24.6794536 L13.555866,22.0173067 L15.3699903,20.9653293 L15.3699903,23.0585496 L13.2230976,24.6794536 Z M19.3632106,24.2930129 L17.7315722,23.0585496 L17.7315722,20.9653293 L18.6010638,21.469849 L19.3632106,24.2930129 L19.3632106,24.2930129 Z" id="形状"></path>
                </g>
            </g>
        </g>
    </g>
</svg>