<?xml version="1.0" encoding="UTF-8"?>
<svg width="40px" height="40px" viewBox="0 0 40 40" version="1.1" xmlns="http://www.w3.org/2000/svg" xmlns:xlink="http://www.w3.org/1999/xlink">
    <title>扬沙@3x</title>
    <defs>
        <linearGradient x1="50%" y1="0%" x2="50%" y2="100%" id="linearGradient-1">
            <stop stop-color="#D6F1FF" offset="0%"></stop>
            <stop stop-color="#7DD4E4" offset="100%"></stop>
        </linearGradient>
    </defs>
    <g id="页面-1" stroke="none" stroke-width="1" fill="none" fill-rule="evenodd">
        <g id="天气icon40宽-12种定版" transform="translate(-52.000000, -156.000000)" fill="url(#linearGradient-1)" fill-rule="nonzero">
            <g id="扬沙" transform="translate(52.000000, 156.000000)">
                <g id="天气-扬沙" transform="translate(1.000000, 7.000000)">
                    <path d="M8.247,7.443 C7.41857288,7.443 6.747,6.77142712 6.747,5.943 C6.747,5.11457288 7.41857288,4.443 8.247,4.443 C9.07542712,4.443 9.747,5.11457288 9.747,5.943 C9.747,6.77142712 9.07542712,7.443 8.247,7.443 Z M3,12 C2.17157288,12 1.5,11.3284271 1.5,10.5 C1.5,9.67157288 2.17157288,9 3,9 C3.82842712,9 4.5,9.67157288 4.5,10.5 C4.5,11.3284271 3.82842712,12 3,12 Z M13.5,12 C12.6715729,12.0004142 11.9996642,11.3291771 11.9992498,10.50075 C11.9988358,9.67232288 12.6700729,9.00041421 13.4985,9 C14.3269271,9 14.9985,9.67157288 14.9985,10.5 C14.9985,11.3284271 14.3269271,12 13.4985,12 L13.5,12 Z M3,3.006 C2.17157288,3.006 1.5,2.33442712 1.5,1.506 C1.5,0.677572875 2.17157288,0.006 3,0.006 C3.82842712,0.006 4.5,0.677572875 4.5,1.506 C4.5,2.33442712 3.82842712,3.006 3,3.006 Z M28.5,18 L1.5,18 C0.671572875,18 0,17.3284271 0,16.5 C0,15.6715729 0.671572875,15 1.5,15 L28.5,15 C30.9363828,14.9996162 33.1306364,13.525971 34.0527351,11.2708224 C34.9748339,9.01567378 34.441676,6.42682816 32.7035363,4.71954039 C30.9653965,3.01225262 28.3674185,2.52554 26.129144,3.48787498 C23.8908695,4.45020995 22.4567542,6.67050101 22.5,9.1065 C22.494641,9.6423984 22.2037907,10.13473 21.7370096,10.3980382 C21.2702285,10.6613463 20.6984317,10.6556284 20.2370096,10.3830382 C19.7755875,10.1104479 19.494641,9.6123984 19.5,9.0765 L19.5,9 C19.5,4.02943725 23.5294373,0 28.5,0 C33.4705627,0 37.5,4.02943725 37.5,9 C37.5,13.9705627 33.4705627,18 28.5,18 Z M13.5,3.006 C12.6715729,3.00641421 11.9996642,2.33517712 11.9992498,1.50675 C11.9988358,0.678322875 12.6700729,0.00641421356 13.4985,0.006 C14.3269271,0.006 14.9985,0.677572875 14.9985,1.506 C14.9985,2.33442712 14.3269271,3.006 13.4985,3.006 L13.5,3.006 Z M1.5,22.5 L36.5,22.5 C37.3284271,22.5 38,23.1715729 38,24 C38,24.8284271 37.3284271,25.5 36.5,25.5 L1.5,25.5 C0.671572875,25.5 0,24.8284271 0,24 C0,23.1715729 0.671572875,22.5 1.5,22.5 Z" id="形状"></path>
                </g>
            </g>
        </g>
    </g>
</svg>