<?xml version="1.0" encoding="UTF-8"?>
<svg width="40px" height="40px" viewBox="0 0 40 40" version="1.1" xmlns="http://www.w3.org/2000/svg" xmlns:xlink="http://www.w3.org/1999/xlink">
    <title>阴@3x</title>
    <defs>
        <linearGradient x1="50%" y1="0%" x2="50%" y2="100%" id="linearGradient-1">
            <stop stop-color="#D6F1FF" offset="0%"></stop>
            <stop stop-color="#7DD4E4" offset="100%"></stop>
        </linearGradient>
    </defs>
    <g id="页面-1" stroke="none" stroke-width="1" fill="none" fill-rule="evenodd">
        <g id="天气icon40宽-12种定版" transform="translate(-232.000000, -31.000000)" fill="url(#linearGradient-1)" fill-rule="nonzero">
            <g id="阴" transform="translate(232.000000, 31.000000)">
                <g id="多云" transform="translate(0.000000, 3.000000)">
                    <path d="M29.7228386,5.11981499 C32.8591429,5.11981499 35.4016199,7.67371756 35.4016199,10.824116 C35.4016199,13.4254948 33.6680824,15.6201647 31.2981122,16.3060907 C31.4289554,16.6914612 31.5397686,17.0872892 31.6298847,17.4913799 L31.6621425,17.6464601 L31.8502523,17.7116839 C34.8591156,18.7905035 36.9818203,21.6260312 37.0835769,24.9213394 L37.0874017,25.1693294 C37.0874017,29.4651438 33.6781589,32.9615814 29.4259796,33.0896059 L29.1844072,33.0932379 L27.0037741,33.0932379 L27.0037741,30.2410874 L29.1844072,30.2410874 C31.9815673,30.2410874 34.248011,27.9695628 34.248011,25.1693294 C34.248011,22.8041382 32.6159885,20.7754464 30.360645,20.2389238 L30.1474112,20.1930317 L29.1323776,19.9973411 L29.0059712,18.9669304 C28.4663865,14.56847 24.7295638,11.2267506 20.2706847,11.2267506 C16.52802,11.2267506 13.2409858,13.5893675 11.9907586,17.0474626 L11.9049419,17.2963153 L11.5099949,18.4991577 L10.2742822,18.2472114 C9.87891355,18.1666007 9.47385874,18.1256187 9.06268059,18.1256187 C5.72176853,18.1256187 3.0147139,20.8382963 3.0147139,24.183353 C3.0147139,27.4553284 5.60556211,30.1228302 8.84572883,30.2372623 L9.06268059,30.2410874 L28.3405886,30.2410874 L28.3405886,33.0932379 L9.06268059,33.0932379 C4.15533253,33.0932379 0.175323252,29.1047431 0.175323252,24.183353 C0.175323252,19.2615571 4.15514542,15.2734682 9.06268059,15.2734682 C9.18290387,15.2734682 9.30285303,15.2758732 9.42247704,15.280669 L9.63604275,15.2934359 L9.74827991,15.0491284 C11.6037845,11.1257603 15.5258378,8.49106139 19.9734178,8.3783634 L20.2706847,8.37460004 C21.6872889,8.37460004 23.0487963,8.62966132 24.3098297,9.09798037 C25.0364046,6.79171767 27.1852482,5.11981499 29.7228386,5.11981499 Z M36.4589197,17.1734662 L37.2880882,18.8735137 C37.5170568,19.3429688 37.3221039,19.9091531 36.8526488,20.1381217 C36.3831936,20.3670902 35.8170093,20.1721374 35.5880408,19.7026822 L34.7588722,18.0026348 C34.5299036,17.5331796 34.7248565,16.9669953 35.1943117,16.7380268 C35.6637668,16.5090582 36.2299511,16.7040111 36.4589197,17.1734662 Z M37.3181444,11.5878908 L39.1625559,12.0156204 C39.6718761,12.1337346 39.9894395,12.6442261 39.8718537,13.1558351 C39.7542679,13.6674441 39.2460602,13.9864347 38.73674,13.8683204 L36.8923285,13.4405909 C36.3830083,13.3224767 36.0654449,12.8119851 36.1830307,12.3003761 C36.3006166,11.7887671 36.8088243,11.4697766 37.3181444,11.5878908 Z M29.7228386,7.97196551 C28.2781605,7.97196551 27.0854796,9.05574309 26.9066165,10.4580545 C28.1349144,11.3137358 29.1921563,12.4009026 30.0145479,13.6600729 C31.4455448,13.5148139 32.5622293,12.3004588 32.5622293,10.824116 C32.5622293,9.2489168 31.2909908,7.97196551 29.7228386,7.97196551 Z M37.8536943,4.29264476 C38.182651,4.700698 38.1200105,5.29936101 37.7137828,5.62979601 L36.2427021,6.82640699 C35.8364744,7.15684199 35.2404897,7.09391998 34.911533,6.68586673 C34.5825763,6.27781349 34.6452168,5.67915049 35.0514445,5.34871549 L36.5225251,4.1521045 C36.9287529,3.8216695 37.5247376,3.88459152 37.8536943,4.29264476 Z M22.9231521,4.1521045 L24.3942328,5.34871549 C24.8004605,5.67915049 24.863101,6.27781349 24.5341443,6.68586673 C24.2051876,7.09391998 23.6092029,7.15684199 23.2029752,6.82640699 L21.7318945,5.62979601 C21.3256668,5.29936101 21.2630263,4.700698 21.591983,4.29264476 C21.9209397,3.88459152 22.5169244,3.8216695 22.9231521,4.1521045 Z M29.7228386,0.366230794 C30.245556,0.366230794 30.6693022,0.791881221 30.6693022,1.31694763 L30.6693022,3.21838131 C30.6693022,3.74344773 30.245556,4.16909815 29.7228386,4.16909815 C29.2001213,4.16909815 28.7763751,3.74344773 28.7763751,3.21838131 L28.7763751,1.31694763 C28.7763751,0.791881221 29.2001213,0.366230794 29.7228386,0.366230794 Z" id="多云转晴备份-4"></path>
                </g>
            </g>
        </g>
    </g>
</svg>