<?xml version="1.0" encoding="UTF-8"?>
<svg width="40px" height="40px" viewBox="0 0 40 40" version="1.1" xmlns="http://www.w3.org/2000/svg" xmlns:xlink="http://www.w3.org/1999/xlink">
    <title>雨@3x</title>
    <defs>
        <linearGradient x1="50%" y1="0%" x2="50%" y2="100%" id="linearGradient-1">
            <stop stop-color="#D6F1FF" offset="0%"></stop>
            <stop stop-color="#7DD4E4" offset="100%"></stop>
        </linearGradient>
    </defs>
    <g id="页面-1" stroke="none" stroke-width="1" fill="none" fill-rule="evenodd">
        <g id="天气icon40宽-12种定版" transform="translate(-172.000000, -31.000000)" fill="url(#linearGradient-1)" fill-rule="nonzero">
            <g id="雨" transform="translate(172.000000, 31.000000)">
                <g id="大雨" transform="translate(0.000000, 2.000000)">
                    <path d="M20.5979067,23.4864162 C20.8702132,23.255712 21.1887601,23.1054306 21.6064988,23.1465804 L21.7494915,23.1675393 L21.8341556,23.1851109 C22.8248895,23.4058109 23.0303945,24.0176928 23.3015566,26.5985482 L23.3502635,27.0747536 L23.4233763,27.8267649 C23.5915687,29.6530324 23.6496028,31.3886526 23.5368489,32.1386078 C23.2368579,34.1386539 21.6410225,35.6397509 19.815447,35.2861845 C18.0434839,34.9438244 17.0213483,33.0131873 17.3166663,31.04895 C17.4126207,30.4107326 17.8320231,29.1489904 18.3799784,27.7662512 L18.5783948,27.2740198 L18.9038143,26.5000649 C19.218034,25.7722517 19.5223715,25.1256064 19.7839975,24.6367823 C19.9555828,24.316191 20.1109056,24.0584552 20.2578618,23.8594808 C20.3643324,23.7153228 20.4712904,23.5936884 20.5979067,23.4864162 Z M13.2944943,21.8527656 C13.5668015,21.6220608 13.885349,21.4717791 14.3030882,21.512929 L14.446081,21.5338879 L14.5307404,21.5514589 C15.521421,21.772156 15.7269925,22.3841851 15.9983295,24.9649222 L16.0470684,25.4411039 L16.1202337,26.1931044 C16.2885654,28.0194871 16.3466977,29.7551203 16.2338788,30.5055084 C15.9332063,32.5053595 14.337507,34.0063285 12.5126067,33.6527267 C10.7403749,33.3104754 9.71848606,31.3803044 10.013203,29.4154207 C10.1260922,28.6645655 10.6866682,27.0506839 11.3775709,25.3920744 L11.6003776,24.86646 C11.7889127,24.4297646 11.9738901,24.0222902 12.1482186,23.6605941 L12.2768574,23.3981643 L12.4805758,23.0031458 C12.6521637,22.6825497 12.8074887,22.4248101 12.9544469,22.2258331 C13.0609184,22.0816739 13.1678773,21.9600384 13.2944943,21.8527656 Z M20.9524156,28.0039689 L20.7226137,28.5704746 L20.4823305,29.1882807 C20.1004527,30.1940195 19.8199432,31.0557916 19.7667709,31.409454 C19.6486514,32.1950982 19.9801438,32.82123 20.2908078,32.8812533 C20.546745,32.9308217 20.9741467,32.5287931 21.0866817,31.7785208 C21.1476025,31.3733203 21.1220785,30.2314528 21.0288552,28.9346465 L20.9931724,28.471464 L20.9524156,28.0039689 Z M27.6091112,20.2219277 C27.8707794,19.981055 28.1804887,19.8181908 28.5982071,19.8406606 L28.7415292,19.8551619 L28.9061011,19.883822 C29.7636573,20.0605225 30.0258199,20.5998521 30.3348625,22.5942495 L30.4329884,23.2611242 L30.5931778,24.4422299 L30.6597654,24.9833062 C30.8487874,26.5935384 30.9386397,28.0627341 30.8617255,28.7411334 C30.6350024,30.7464285 29.1044177,32.3102957 27.2726862,32.0423717 C25.4821429,31.7820035 24.3871195,29.8930213 24.6108239,27.914428 C24.6837205,27.2734607 25.0568505,25.9947585 25.5536356,24.5899084 L25.7338184,24.089674 L25.922545,23.5839618 L26.137904,23.0286351 C26.3873545,22.3993212 26.6285868,21.8399682 26.8415137,21.4028169 C27.0009703,21.0754431 27.1464413,20.8115732 27.2855125,20.6069407 C27.3859753,20.4591175 27.4876453,20.3337404 27.6091112,20.2219277 Z M13.6492264,26.3703175 L13.5036258,26.7262928 L13.2418108,27.3900539 C12.9359927,28.1850091 12.687579,28.9045024 12.5561675,29.3762169 L12.4964503,29.6079068 L12.4633702,29.7755078 C12.3454491,30.5616906 12.6768873,31.1877199 12.9879677,31.2477957 C13.2434247,31.2972943 13.6709987,30.8951037 13.7837742,30.1450044 C13.8482727,29.7160078 13.8157925,28.4611144 13.7086243,27.0708275 L13.6900752,26.8379777 L13.6492264,26.3703175 Z M28.1334032,24.7325819 L27.930689,25.2910623 L27.782339,25.7150927 C27.3986263,26.8307225 27.1157876,27.8064634 27.0724404,28.1876063 C26.9835105,28.9741634 27.3312779,29.5740833 27.6339549,29.6180969 C27.8946068,29.6562219 28.3142367,29.2274672 28.4000613,28.4683753 C28.4515811,28.0139601 28.3629243,26.6510557 28.1890306,25.1826428 L28.1334032,24.7325819 Z M21.8093843,0.591517107 C27.7259403,0.591517107 32.7397542,4.71003304 33.9435729,10.3011344 L33.9883398,10.5231607 L34.007433,10.5292354 C37.3703665,11.5545588 39.771973,14.6049223 39.8705803,18.165949 L39.8737338,18.3939275 C39.8737338,22.8653419 36.2699663,26.5047572 31.7795395,26.624829 L31.5504618,26.6278882 L31.5504618,24.177411 C34.7787608,24.177411 37.3966771,21.5877357 37.3966771,18.3939275 C37.3966771,15.6795809 35.4880798,13.3547038 32.859063,12.7600289 L32.6605545,12.7186934 L31.7753404,12.5501337 L31.6653735,11.6650035 C31.0564736,6.76393326 26.8399662,3.04199428 21.8093843,3.04199428 C17.5722899,3.04199428 13.8519001,5.69300936 12.4517219,9.56943157 L12.3705099,9.80347598 L12.0259018,10.8385987 L10.9465087,10.6207026 C10.4941131,10.529378 10.0310256,10.4828172 9.56211885,10.4828172 C5.73961127,10.4828172 2.6405513,13.5487773 2.6405513,17.3301141 C2.6405513,21.0430632 5.62773167,24.0656983 9.35433868,24.1743849 L9.56211885,24.177411 L9.56211885,26.6278882 C4.37135169,26.6278882 0.163494501,22.4651826 0.163494501,17.3301141 C0.163494501,12.1954436 4.37154272,8.03234001 9.56211885,8.03234001 C9.81643393,8.03234001 10.069662,8.04245869 10.3213337,8.06254495 L10.3869426,8.06859941 L10.4126368,8.00787214 C12.3126308,3.65383567 16.6216573,0.704436086 21.5258053,0.594688019 L21.8093843,0.591517107 Z" id="大雨备份-3"></path>
                </g>
            </g>
        </g>
    </g>
</svg>