<?xml version="1.0" encoding="UTF-8"?>
<svg width="16px" height="16px" viewBox="0 0 16 16" version="1.1" xmlns="http://www.w3.org/2000/svg" xmlns:xlink="http://www.w3.org/1999/xlink">
    <title>形状结合</title>
    <defs>
        <linearGradient x1="50%" y1="0%" x2="50%" y2="100%" id="linearGradient-1">
            <stop stop-color="#FFFFFF" offset="0%"></stop>
            <stop stop-color="#50EEFF" offset="100%"></stop>
        </linearGradient>
    </defs>
    <g id="页面-1" stroke="none" stroke-width="1" fill="none" fill-rule="evenodd">
        <g id="首页大屏" transform="translate(-301.000000, -148.000000)" fill="url(#linearGradient-1)" fill-rule="nonzero">
            <g id="编组备份-5" transform="translate(301.000000, 148.000000)">
                <path d="M6.70755556,1.25777778 L6.70755556,8.60888889 C6.70731961,8.78679684 6.77782793,8.95749893 6.90354456,9.08338229 C7.02926119,9.20926566 7.19986968,9.28000016 7.37777778,9.28 L7.37777778,9.28 L14.7111111,9.28 C14.3733333,13.0435556 11.2195556,15.9928889 7.37777778,15.9928889 C3.30844445,15.9928889 0.0106666719,12.6871111 0.0106666719,8.60888889 C0.0106666719,4.75822222 2.95466667,1.59822222 6.70755556,1.25777778 L6.70755556,1.25777778 Z M8.03111111,0.0106666719 C12.2524445,0.392888891 15.6106667,3.76 15.9928889,7.99288889 L15.9928889,7.99288889 L8.03111111,7.99288889 Z" id="形状结合"></path>
            </g>
        </g>
    </g>
</svg>