<?xml version="1.0" encoding="UTF-8"?>
<svg width="40px" height="26px" viewBox="0 0 40 26" version="1.1" xmlns="http://www.w3.org/2000/svg" xmlns:xlink="http://www.w3.org/1999/xlink">
    <title>形状</title>
    <g id="页面-1" stroke="none" stroke-width="1" fill="none" fill-rule="evenodd">
        <path d="M19.8632574,0 C25.4401551,0 30.1971616,3.50210107 32.0517985,8.42395252 C36.4995577,8.77508369 40,12.488277 40,17.0202751 C40,21.2569696 36.940748,24.7777739 32.908581,25.5058824 C32.7441699,24.4110411 32.3474938,23.3927983 31.7723842,22.4999326 C34.4776864,22.1816965 36.5767283,19.88534 36.5767283,17.0980954 C36.5767283,14.0931795 34.1375708,11.657254 31.1285738,11.657254 C30.6199063,11.657254 30.1280845,11.7283073 29.6610138,11.8585717 C29.1051027,7.02083764 24.9930358,3.26309503 20,3.26309503 C15.0438555,3.26309503 10.9563515,6.96585591 10.3526323,11.7518978 C9.83587118,11.5894902 9.28607728,11.5016135 8.71557906,11.5016135 C5.7066762,11.5016135 3.26742457,13.9375389 3.26742457,16.9424548 C3.26742457,19.7812037 5.44457829,22.1108312 8.22206328,22.3600817 C7.62201434,23.2958989 7.19691694,24.3534278 6.99156769,25.488025 C3.00880875,24.7202546 0,21.2220069 0,17.0202751 C0,12.5848945 3.35268874,8.93307392 7.66483465,8.45008059 C9.51241318,3.5145072 14.2765721,0 19.8632574,0 Z M17.0093632,12.5176471 L19.8133972,14.8449198 L20.2807205,14.8449198 L23.0847545,12.5176471 L26.8235294,12.5176471 L26.8235294,25.3176471 L23.0847545,25.3176471 L23.0847545,17.1721925 L21.6827847,18.5684997 L21.6827847,21.1285373 L18.411333,21.1285373 L18.411333,18.5684997 L17.0093632,17.1721925 L17.0093632,25.3176471 L13.2705882,25.3176471 L13.2705882,12.5176471 L17.0093632,12.5176471 Z M21.4588235,22.7764706 L21.4588235,25.3176471 L18.6352941,25.3176471 L18.6352941,22.7764706 L21.4588235,22.7764706 Z" id="形状" fill="#74C747" fill-rule="nonzero"></path>
    </g>
</svg>