<?xml version="1.0" encoding="UTF-8"?>
<svg width="288px" height="31px" viewBox="0 0 288 31" version="1.1" xmlns="http://www.w3.org/2000/svg" xmlns:xlink="http://www.w3.org/1999/xlink">
    <title>i管书@3x</title>
    <defs>
        <linearGradient x1="0%" y1="50%" x2="100%" y2="50%" id="linearGradient-1">
            <stop stop-color="#E2F1FF" offset="0%"></stop>
            <stop stop-color="#A6D1FE" offset="100%"></stop>
        </linearGradient>
    </defs>
    <g id="页面-1" stroke="none" stroke-width="1" fill="none" fill-rule="evenodd">
        <path d="M14.432,30.041 L14.432,22.251 L16.728,21.759 L16.728,17.249 L14.432,17.741 L14.432,12.411 L16.441,12.411 L16.441,8.352 L14.432,8.352 L14.432,0.439 L8.241,0.439 L8.241,8.352 L6.519,8.352 L7.052,2.981 L2.091,2.981 L1.107,12.411 L8.241,12.411 L8.241,19.094 L0.902,20.734 L0.902,25.244 L8.241,23.604 L8.241,30.041 L14.432,30.041 Z M36.818,30.041 L36.818,24.547 C36.0253333,24.3283333 35.1848333,24.0413333 34.2965,23.686 C33.4081667,23.3306667 32.5266667,22.907 31.652,22.415 C33.21,20.693 34.4605,18.6361667 35.4035,16.2445 C36.3465,13.8528333 36.818,11.0306667 36.818,7.778 L36.818,7.778 L36.818,3.719 L26.035,3.719 L27.019,0.48 L20.746,0.48 L18.327,7.778 L31.734,7.778 C31.7066667,10.32 31.2898333,12.5135 30.4835,14.3585 C29.6771667,16.2035 28.6453333,17.782 27.388,19.094 C26.24,17.8913333 25.2765,16.4563333 24.4975,14.789 C23.7185,13.1216667 23.2606667,11.1673333 23.124,8.926 L23.124,8.926 L17.999,8.926 C18.1356667,11.9053333 18.6618333,14.4951667 19.5775,16.6955 C20.4931667,18.8958333 21.6753333,20.8023333 23.124,22.415 C22.2493333,22.907 21.3746667,23.3306667 20.5,23.686 C19.6253333,24.0413333 18.778,24.3283333 17.958,24.547 L17.958,24.547 L17.958,30.041 C19.5433333,29.631 21.1423333,29.098 22.755,28.442 C24.3676667,27.786 25.912,26.9796667 27.388,26.023 C28.864,26.9796667 30.4083333,27.786 32.021,28.442 C33.6336667,29.098 35.2326667,29.631 36.818,30.041 L36.818,30.041 Z M48.045023,30.041 L49.890023,25.859 L49.890023,4.457 L78.959023,4.457 L78.959023,0.398 L44.191023,0.398 L44.191023,25.859 L42.346023,30.041 L48.045023,30.041 Z M63.379023,29.918 C64.0076897,29.918 64.5953563,29.8018333 65.142023,29.5695 C65.6886897,29.3371667 66.167023,29.016 66.577023,28.606 C66.987023,28.196 67.3081897,27.7176667 67.540523,27.171 C67.7728563,26.6243333 67.889023,26.0366667 67.889023,25.408 L67.889023,25.408 L67.889023,19.668 L74.080023,19.668 C74.5993563,19.668 75.0981897,19.5655 75.576523,19.3605 C76.0548563,19.1555 76.4648563,18.8821667 76.806523,18.5405 C77.1481897,18.1988333 77.421523,17.7956667 77.626523,17.331 C77.831523,16.8663333 77.934023,16.3606667 77.934023,15.814 L77.934023,15.814 L77.934023,7.286 L60.550023,7.286 L61.739023,5.072 L55.589023,5.072 L54.400023,7.286 L51.038023,7.286 L51.038023,19.668 L62.190023,19.668 L62.190023,24.998 C62.190023,25.3806667 62.067023,25.695 61.821023,25.941 C61.575023,26.187 61.2743563,26.31 60.919023,26.31 L60.919023,26.31 L59.689023,26.31 L57.926023,29.918 L63.379023,29.918 Z M72.235023,11.878 L56.737023,11.878 L56.737023,10.402 L72.235023,10.402 L72.235023,11.878 Z M71.333023,16.552 L56.737023,16.552 L56.737023,14.83 L72.235023,14.83 L72.235023,15.65 C72.235023,16.2513333 71.9343563,16.552 71.333023,16.552 L71.333023,16.552 Z M56.286023,30 L59.525023,20.898 L54.113023,20.898 L50.874023,30 L56.286023,30 Z M78.057023,30 L74.818023,20.898 L69.365023,20.898 L72.645023,30 L78.057023,30 Z M116.016046,30.082 C116.617379,30.082 117.191379,29.9658333 117.738046,29.7335 C118.284713,29.5011667 118.763046,29.18 119.173046,28.77 C119.583046,28.36 119.911046,27.8816667 120.157046,27.335 C120.403046,26.7883333 120.526046,26.2006667 120.526046,25.572 L120.526046,25.572 L120.526046,3.924 L108.021046,3.924 L108.800046,0.398 L102.855046,0.398 L101.174046,7.983 L114.827046,7.983 L114.827046,25.244 C114.827046,25.5993333 114.704046,25.9 114.458046,26.146 C114.212046,26.392 113.911379,26.515 113.556046,26.515 L113.556046,26.515 L112.654046,26.515 L111.998046,30.082 L116.016046,30.082 Z M98.058046,30 L98.058046,19.463 L100.354046,18.725 L100.354046,14.256 L98.058046,14.953 L98.058046,10.566 L100.354046,10.566 L100.354046,6.507 L98.058046,6.507 L98.058046,0.398 L91.826046,0.398 L91.826046,6.507 L90.186046,6.507 L90.760046,2.038 L86.045046,2.038 L84.569046,10.566 L91.826046,10.566 L91.826046,16.839 L84.446046,19.094 L84.446046,23.604 L91.826046,21.349 L91.826046,30 L98.058046,30 Z M104.905046,30 L107.939046,10.279 L103.101046,10.279 L100.067046,30 L104.905046,30 Z M111.137046,30 L114.171046,10.279 L108.882046,10.279 L105.848046,30 L111.137046,30 Z M140.363069,30.041 L140.363069,26.105 L141.388069,25.982 L141.388069,22.333 L140.363069,22.456 L140.363069,4.129 L141.388069,4.129 L141.388069,0.439 L126.300069,0.439 L126.300069,4.129 L127.325069,4.129 L127.325069,23.973 L126.300069,24.096 L126.300069,27.786 L135.525069,26.679 L135.525069,30.041 L140.363069,30.041 Z M148.317069,30.041 L153.237069,20.242 L162.298069,20.242 L162.298069,16.552 L154.139069,16.552 L154.139069,8.393 L162.298069,8.393 L162.298069,4.744 L159.305069,4.744 L160.863069,0.439 L155.738069,0.439 L154.180069,4.744 L150.121069,4.744 L148.563069,0.439 L143.479069,0.439 L144.996069,4.744 L142.003069,4.744 L142.003069,8.393 L148.850069,8.393 L148.850069,16.552 L142.003069,16.552 L142.003069,20.242 L147.702069,20.242 L142.741069,30.041 L148.317069,30.041 Z M135.525069,8.188 L132.122069,8.188 L132.122069,4.129 L135.525069,4.129 L135.525069,8.188 Z M135.525069,15.65 L132.122069,15.65 L132.122069,11.878 L135.525069,11.878 L135.525069,15.65 Z M132.122069,23.399 L132.122069,19.34 L135.525069,19.34 L135.525069,23.03 L132.122069,23.399 Z M162.298069,30.041 L158.362069,21.472 L153.155069,21.472 L157.091069,30.041 L162.298069,30.041 Z M173.361092,30 L173.361092,4.498 L197.510092,4.498 C197.892759,4.498 198.207092,4.621 198.453092,4.867 C198.699092,5.113 198.822092,5.41366667 198.822092,5.769 L198.822092,5.769 L198.822092,24.67 C198.822092,25.0253333 198.699092,25.326 198.453092,25.572 C198.207092,25.818 197.892759,25.941 197.510092,25.941 L197.510092,25.941 L196.649092,25.941 L194.968092,30 L199.601092,30 C200.229759,30 200.817425,29.8838333 201.364092,29.6515 C201.910759,29.4191667 202.389092,29.098 202.799092,28.688 C203.209092,28.278 203.530259,27.8065 203.762592,27.2735 C203.994925,26.7405 204.111092,26.1596667 204.111092,25.531 L204.111092,25.531 L204.111092,4.949 C204.111092,4.32033333 203.994925,3.73266667 203.762592,3.186 C203.530259,2.63933333 203.209092,2.161 202.799092,1.751 C202.389092,1.341 201.910759,1.01983333 201.364092,0.7875 C200.817425,0.555166667 200.229759,0.439 199.601092,0.439 L199.601092,0.439 L168.072092,0.439 L168.072092,30 L173.361092,30 Z M184.964092,25.531 L184.964092,20.652 C184.362759,20.0233333 183.809259,19.381 183.303592,18.725 C182.797925,18.069 182.340092,17.413 181.930092,16.757 C182.422092,15.7456667 182.900425,14.6933333 183.365092,13.6 C183.747759,12.6433333 184.130425,11.5705 184.513092,10.3815 C184.895759,9.1925 185.196425,7.983 185.415092,6.753 L185.415092,6.753 L181.479092,6.753 C181.369759,7.38166667 181.219425,8.03766667 181.028092,8.721 C180.836759,9.40433333 180.631759,10.0193333 180.413092,10.566 C180.167092,11.222 179.921092,11.8643333 179.675092,12.493 C179.429092,11.8643333 179.183092,11.222 178.937092,10.566 C178.718425,10.0193333 178.506592,9.40433333 178.301592,8.721 C178.096592,8.03766667 177.939425,7.38166667 177.830092,6.753 L177.830092,6.753 L173.935092,6.753 C174.153759,7.983 174.454425,9.1925 174.837092,10.3815 C175.219759,11.5705 175.602425,12.6433333 175.985092,13.6 C176.449759,14.6933333 176.928092,15.7456667 177.420092,16.757 C176.982759,17.413 176.518092,18.069 176.026092,18.725 C175.534092,19.381 174.973759,20.0233333 174.345092,20.652 L174.345092,20.652 L174.345092,25.531 C175.438425,24.8203333 176.422425,24.0276667 177.297092,23.153 C178.171759,22.2783333 178.964425,21.3626667 179.675092,20.406 C180.385759,21.3626667 181.178425,22.2783333 182.053092,23.153 C182.927759,24.0276667 183.898092,24.8203333 184.964092,25.531 L184.964092,25.531 Z M197.141092,25.531 L197.141092,20.652 C196.512425,20.0233333 195.952092,19.381 195.460092,18.725 C194.968092,18.069 194.503425,17.413 194.066092,16.757 C194.558092,15.7456667 195.036425,14.6933333 195.501092,13.6 C195.883759,12.6433333 196.266425,11.5705 196.649092,10.3815 C197.031759,9.1925 197.332425,7.983 197.551092,6.753 L197.551092,6.753 L193.656092,6.753 C193.546759,7.38166667 193.396425,8.03766667 193.205092,8.721 C193.013759,9.40433333 192.808759,10.0193333 192.590092,10.566 C192.344092,11.222 192.084425,11.8643333 191.811092,12.493 C191.565092,11.8643333 191.319092,11.222 191.073092,10.566 C190.854425,10.0193333 190.649425,9.40433333 190.458092,8.721 C190.266759,8.03766667 190.116425,7.38166667 190.007092,6.753 L190.007092,6.753 L186.071092,6.753 C186.289759,7.983 186.590425,9.1925 186.973092,10.3815 C187.355759,11.5705 187.738425,12.6433333 188.121092,13.6 C188.585759,14.6933333 189.064092,15.7456667 189.556092,16.757 C189.146092,17.413 188.688259,18.069 188.182592,18.725 C187.676925,19.381 187.123425,20.0233333 186.522092,20.652 L186.522092,20.652 L186.522092,25.531 C187.588092,24.8203333 188.558425,24.0276667 189.433092,23.153 C190.307759,22.2783333 191.100425,21.3626667 191.811092,20.406 C192.521759,21.3626667 193.321259,22.2783333 194.209592,23.153 C195.097925,24.0276667 196.075092,24.8203333 197.141092,25.531 L197.141092,25.531 Z M230.795115,29.918 L230.795115,22.374 L245.924115,22.374 L245.924115,18.356 L230.795115,18.356 L230.795115,4.58 L244.571115,4.58 L244.571115,0.562 L211.279115,0.562 L211.279115,4.58 L225.096115,4.58 L225.096115,18.356 L209.926115,18.356 L209.926115,22.374 L225.096115,22.374 L225.096115,29.918 L230.795115,29.918 Z M240.102115,16.757 L242.480115,6.507 L237.560115,6.507 L235.182115,16.757 L240.102115,16.757 Z M221.078115,16.757 L218.864115,6.507 L213.944115,6.507 L216.158115,16.757 L221.078115,16.757 Z M287.327138,13.969 L280.357138,2.325 L274.863138,2.325 L278.881138,9.008 L260.513138,9.008 L265.843138,0.685 L260.062138,0.685 L252.149138,13.026 L281.300138,13.026 L281.874138,13.969 L287.327138,13.969 Z M282.366138,29.754 C282.885471,29.754 283.384305,29.6515 283.862638,29.4465 C284.340971,29.2415 284.750971,28.9681667 285.092638,28.6265 C285.434305,28.2848333 285.707638,27.8816667 285.912638,27.417 C286.117638,26.9523333 286.220138,26.4466667 286.220138,25.9 L286.220138,25.9 L286.220138,14.994 L252.805138,14.994 L252.805138,29.754 L282.366138,29.754 Z M278.963138,25.777 L258.791138,25.777 L258.791138,19.012 L280.234138,19.012 L280.234138,24.465 C280.234138,24.8476667 280.111138,25.162 279.865138,25.408 C279.619138,25.654 279.318471,25.777 278.963138,25.777 L278.963138,25.777 Z" id="i管书" fill="url(#linearGradient-1)" fill-rule="nonzero"></path>
    </g>
</svg>
