<?xml version="1.0" encoding="UTF-8"?>
<svg width="18px" height="18px" viewBox="0 0 18 18" version="1.1" xmlns="http://www.w3.org/2000/svg" xmlns:xlink="http://www.w3.org/1999/xlink">
    <title>截屏</title>
    <g id="单元巡栏客户端" stroke="none" stroke-width="1" fill="none" fill-rule="evenodd">
        <g id="画板" transform="translate(-326.000000, -287.000000)" fill="#FFFFFF" fill-rule="nonzero">
            <g id="截屏" transform="translate(326.000000, 287.000000)">
                <path d="M15.2909074,11.752 C14.5325074,10.99296 13.5686674,10.60128 12.6681874,10.60128 L12.1843474,10.60128 L11.1232274,9.5344 L15.3683474,5.26688 C16.4294674,4.20064 16.4294674,2.06688 15.3683474,1 L9.00034737,7.40128 L2.63234737,1 C1.57186737,2.06688 1.57186737,4.2 2.63234737,5.26752 L6.87810737,9.5344 L5.81698737,10.60128 L5.33314737,10.60128 C4.43266737,10.60128 3.46818737,10.99296 2.70978737,11.75264 C1.35426737,13.10944 1.17122737,15.12736 2.30082737,16.25824 C2.79874737,16.75616 3.46754737,16.99936 4.17730737,16.99936 C5.07778737,16.99936 6.04226737,16.60768 6.80066737,15.848 C7.69026737,14.95648 8.07426737,13.7808 7.91426737,12.75872 L8.99970737,11.66688 L10.0857874,12.75872 C9.92514737,13.78144 10.3097874,14.95648 11.1993874,15.848 C11.9577874,16.60768 12.9222674,17 13.8227474,17 C14.5318674,17 15.2019474,16.7568 15.6992274,16.2576 C16.8288274,15.12672 16.6457874,13.11008 15.2896274,11.752 L15.2909074,11.752 Z M6.36034737,14.02592 C6.23234737,14.32416 6.04482737,14.59872 5.80162737,14.84192 C5.55842737,15.08512 5.28450737,15.27392 4.98562737,15.40192 C4.71746737,15.51712 4.43842737,15.57856 4.17730737,15.57856 C3.92578737,15.57856 3.56930737,15.5216 3.29922737,15.25152 C3.03170737,14.98272 2.97538737,14.62944 2.97538737,14.37984 C2.97538737,14.12064 3.03554737,13.84224 3.15010737,13.576 C3.27810737,13.27776 3.46562737,13.00384 3.70882737,12.76064 C3.95138737,12.51744 4.22594737,12.32864 4.52482737,12.2 C4.79234737,12.0848 5.07202737,12.024 5.33314737,12.024 C5.58466737,12.024 5.94114737,12.08032 6.21122737,12.35104 C6.47874737,12.61984 6.53506737,12.97312 6.53506737,13.22272 C6.53506737,13.48192 6.47490737,13.75968 6.36034737,14.02592 L6.36034737,14.02592 Z M9.00034737,11.04352 C8.60129163,11.0425029 8.21898438,10.8830024 7.9375295,10.6001073 C7.65607462,10.3172121 7.49852764,9.93409573 7.49954068,9.53504 C7.49835757,9.13587354 7.6558294,8.75259265 7.93730268,8.46955896 C8.21877596,8.18652527 8.60118044,8.02693695 9.00034737,8.02592 C9.39951431,8.02693695 9.78191879,8.18652527 10.0633921,8.46955896 C10.3448654,8.75259265 10.5023372,9.13587354 10.5011541,9.53504 C10.5023372,9.93420646 10.3448654,10.3174873 10.0633921,10.600521 C9.78191879,10.8835547 9.39951431,11.0431431 9.00034737,11.04416 L9.00034737,11.04352 Z M14.7008274,15.25152 C14.4313874,15.52096 14.0749074,15.57792 13.8233874,15.57792 C13.5622674,15.57792 13.2825874,15.51712 13.0150674,15.40192 C12.7096361,15.2690339 12.4324421,15.0789519 12.1984274,14.84192 C11.9622304,14.6081062 11.7728167,14.3313711 11.6403474,14.02656 C11.5286411,13.7730642 11.4690077,13.4997078 11.4649874,13.22272 C11.4649874,12.97312 11.5213074,12.6192 11.7894674,12.35104 C12.0595474,12.08096 12.4153874,12.02464 12.6675474,12.02464 C12.9280274,12.02464 13.2077074,12.0848 13.4758674,12.2 C13.7741074,12.32864 14.0493074,12.5168 14.2918674,12.76064 C14.5350674,13.00384 14.7225874,13.27776 14.8505874,13.576 C14.9645074,13.84288 15.0253074,14.12064 15.0253074,14.37984 C15.0253074,14.62944 14.9689874,14.98272 14.7008274,15.25152 L14.7008274,15.25152 Z" id="形状"></path>
            </g>
        </g>
    </g>
</svg>