<?xml version="1.0" encoding="UTF-8"?>
<svg width="12px" height="14px" viewBox="0 0 12 14" version="1.1" xmlns="http://www.w3.org/2000/svg" xmlns:xlink="http://www.w3.org/1999/xlink">
    <title>形状备份 2</title>
    <g id="环控数据报表" stroke="none" stroke-width="1" fill="none" fill-rule="evenodd">
        <g id="场区解锁统计" transform="translate(-1402.000000, -131.000000)" fill="#F9EA42" fill-rule="nonzero">
            <path d="M1413.03143,136.869769 L1411.92098,136.869769 L1411.92098,134.539141 C1411.92098,132.58726 1410.16323,131 1408.00051,131 C1405.83776,131 1404.07799,132.58726 1404.07799,134.539141 L1404.07799,136.869769 L1402.96849,136.869769 C1402.43358,136.869769 1402,137.26106 1402,137.743886 L1402,144.124994 C1402,144.608675 1402.43358,145 1402.96849,145 L1413.03238,145 C1413.56744,145 1414,144.608676 1414,144.124994 L1414,137.743886 C1414,137.260994 1413.56653,136.869769 1413.03143,136.869769 L1413.03143,136.869769 Z M1408.5444,141.100716 L1408.5444,142.494107 C1408.5444,142.55637 1408.48731,142.608821 1408.41726,142.608821 L1407.58471,142.608821 C1407.51378,142.608821 1407.45666,142.556337 1407.45666,142.494107 L1407.45666,141.100716 C1407.06549,140.920183 1406.79453,140.558261 1406.79453,140.134077 C1406.79453,139.53387 1407.33448,139.045711 1407.99956,139.045711 C1408.66563,139.045711 1409.20562,139.53387 1409.20562,140.134077 C1409.20656,140.558294 1408.93557,140.920183 1408.5444,141.100716 L1408.5444,141.100716 Z M1410.41645,136.869769 L1405.58446,136.869769 L1405.58446,134.59686 C1405.58446,133.394603 1406.66929,132.415584 1408.00142,132.415584 C1409.33356,132.415584 1410.41645,133.394603 1410.41645,134.59686 L1410.41645,136.869769 Z" id="形状备份-2"></path>
        </g>
    </g>
</svg>