<?xml version="1.0" encoding="UTF-8"?>
<svg width="12px" height="14px" viewBox="0 0 12 14" version="1.1" xmlns="http://www.w3.org/2000/svg" xmlns:xlink="http://www.w3.org/1999/xlink">
    <title>形状结合备份</title>
    <g id="环控数据报表" stroke="none" stroke-width="1" fill="none" fill-rule="evenodd">
        <g id="场区解锁统计" transform="translate(-1594.000000, -131.000000)" fill="#1FFFA0" fill-rule="nonzero">
            <path d="M1605.03143,136.869769 C1605.56653,136.869769 1606,137.260994 1606,137.743886 L1606,137.743886 L1606,144.124994 C1606,144.608676 1605.56744,145 1605.03238,145 L1605.03238,145 L1594.96849,145 C1594.43358,145 1594,144.608675 1594,144.124994 L1594,144.124994 L1594,137.743886 C1594,137.26106 1594.43358,136.869769 1594.96849,136.869769 L1594.96849,136.869769 L1596.07799,136.869769 L1596.07799,134.539141 C1596.07799,132.58726 1597.83776,131 1600.00051,131 C1602.16323,131 1603.92098,132.58726 1603.92098,134.539141 L1603.92098,134.539141 L1603.92,135 L1602.416,135 L1602.41645,134.59686 C1602.41645,133.444697 1601.42192,132.497556 1600.16658,132.420628 L1600.00142,132.415584 C1598.66929,132.415584 1597.58446,133.394603 1597.58446,134.59686 L1597.58446,134.59686 L1597.58446,136.869769 Z M1599.99956,139.045711 C1599.33448,139.045711 1598.79453,139.53387 1598.79453,140.134077 C1598.79453,140.558261 1599.06549,140.920183 1599.45666,141.100716 L1599.45666,141.100716 L1599.45666,142.494107 C1599.45666,142.556337 1599.51378,142.608821 1599.58471,142.608821 L1599.58471,142.608821 L1600.41726,142.608821 C1600.48731,142.608821 1600.5444,142.55637 1600.5444,142.494107 L1600.5444,142.494107 L1600.5444,141.100716 C1600.93557,140.920183 1601.20656,140.558294 1601.20562,140.134077 C1601.20562,139.53387 1600.66563,139.045711 1599.99956,139.045711 Z" id="形状结合备份"></path>
        </g>
    </g>
</svg>