<?xml version="1.0" encoding="UTF-8"?>
<svg width="14px" height="14px" viewBox="0 0 14 14" version="1.1" xmlns="http://www.w3.org/2000/svg" xmlns:xlink="http://www.w3.org/1999/xlink">
    <title>形状备份 3</title>
    <g id="环控数据报表" stroke="none" stroke-width="1" fill="none" fill-rule="evenodd">
        <g id="场区解锁统计" transform="translate(-1777.000000, -132.000000)" fill="#1FBFFF" fill-rule="nonzero">
            <path d="M1784,132 L1784,139 L1791,139 C1791,142.865993 1787.86599,146 1784,146 C1780.13401,146 1777,142.865993 1777,139 C1777,135.199532 1780.02867,132.106448 1783.80407,132.002689 L1784,132 Z M1782.6,133.5764 L1782.49595,133.604045 C1780.13057,134.261623 1778.4,136.432538 1778.4,139 C1778.4,142.092795 1780.90721,144.6 1784,144.6 C1786.5676,144.6 1788.73161,142.872001 1789.39252,140.515507 L1789.4229,140.4 L1782.6,140.4 L1782.6,133.5764 Z M1785.4,132 C1788.43444,132 1790.90518,134.413486 1790.99734,137.425574 L1791,137.5993 L1785.4,137.6 L1785.4,132 Z M1786.8,133.6394 L1786.8,136.2 L1789.3606,136.1993 L1789.33204,136.119891 C1788.90911,134.996675 1788.01867,134.103936 1786.89996,133.675959 L1786.8,133.6394 Z" id="形状备份-3"></path>
        </g>
    </g>
</svg>