<?xml version="1.0" encoding="UTF-8"?>
<svg width="18px" height="18px" viewBox="0 0 18 18" version="1.1" xmlns="http://www.w3.org/2000/svg" xmlns:xlink="http://www.w3.org/1999/xlink">
    <title>收全屏_export</title>
    <g id="单元巡栏客户端" stroke="none" stroke-width="1" fill="none" fill-rule="evenodd">
        <g id="画板" transform="translate(-394.000000, -287.000000)" fill="#FFFFFF" fill-rule="nonzero">
            <g id="收全屏_export" transform="translate(394.000000, 287.000000)">
                <path d="M13.7850904,12.527569 L16.7120904,15.454569 C16.9529308,15.6758266 17.0530193,16.0113495 16.9727576,16.3283939 C16.8924959,16.6454382 16.6448158,16.8929214 16.3277077,16.972931 C16.0105997,17.0529406 15.6751564,16.9525853 15.4540904,16.711569 L12.8200904,14.076569 L12.8200904,16.082569 L11.0420904,16.082569 L11.0420904,10.749569 L16.3750904,10.749569 L16.3750904,12.527569 L13.7850904,12.527569 Z M4.15159477,12.5908838 L1.55859477,12.5908838 L1.55859477,10.8128838 L6.89159477,10.8128838 L6.89159477,16.1458838 L5.11359477,16.1458838 L5.11359477,14.1438838 L2.49159477,16.7658838 C2.14026169,17.088135 1.59739775,17.0763135 1.26042588,16.7390736 C0.923454014,16.4018336 0.912064206,15.8589605 1.23459477,15.5078838 L4.15159477,12.5908838 Z M14.1057523,5.1502477 L16.4007523,5.1502477 L16.4007523,6.9282477 L11.0677523,6.9282477 L11.0677523,1.5952477 L12.8457523,1.5952477 L12.8457523,3.8972477 L15.4797523,1.2612477 C15.8271394,0.913308326 16.3908129,0.912860621 16.7387523,1.26024772 C17.0866917,1.60763482 17.0871394,2.1713083 16.7397523,2.5192477 L14.1067523,5.1502477 L14.1057523,5.1502477 Z M3.87032445,5.12732445 L1.24832445,2.50532445 C0.912590942,2.15632577 0.917951984,1.60281266 1.26038232,1.26038232 C1.60281266,0.917951984 2.15632577,0.912590942 2.50532445,1.24832445 L5.12732445,3.87032445 L5.12732445,1.57232445 L6.90532445,1.57232445 L6.90532445,6.90532445 L1.57232445,6.90532445 L1.57232445,5.12732445 L3.87032445,5.12732445 Z" id="收全屏"></path>
            </g>
        </g>
    </g>
</svg>