<?xml version="1.0" encoding="UTF-8"?>
<svg width="18px" height="18px" viewBox="0 0 18 18" version="1.1" xmlns="http://www.w3.org/2000/svg" xmlns:xlink="http://www.w3.org/1999/xlink">
    <title>全屏_export_export</title>
    <g id="单元巡栏客户端" stroke="none" stroke-width="1" fill="none" fill-rule="evenodd">
        <g id="画板" transform="translate(-360.000000, -287.000000)" fill="#FFFFFF" fill-rule="nonzero">
            <g id="全屏_export" transform="translate(360.000000, 287.000000)">
                <path d="M14.257,15.222 L11.33,12.295 C11.0891596,12.0737424 10.989071,11.7382194 11.0693328,11.4211751 C11.1495945,11.1041307 11.3972746,10.8566475 11.7143826,10.7766379 C12.0314907,10.6966284 12.3669339,10.7969837 12.588,11.038 L15.222,13.673 L15.222,11.667 L17,11.667 L17,17 L11.667,17 L11.667,15.222 L14.257,15.222 Z M3.74,15.222 L6.333,15.222 L6.333,17 L1,17 L1,11.667 L2.778,11.667 L2.778,13.669 L5.4,11.047 C5.75133308,10.7247487 6.29419702,10.7365702 6.63116889,11.0738102 C6.96814076,11.4110501 6.97953057,11.9539233 6.657,12.305 L3.74,15.222 Z M13.962,2.778 L11.667,2.778 L11.667,1 L17,1 L17,6.333 L15.222,6.333 L15.222,4.031 L12.588,6.667 C12.2406129,7.01493937 11.6769394,7.01538708 11.329,6.66799998 C10.9810606,6.32061288 10.9806129,5.7569394 11.328,5.409 L13.961,2.778 L13.962,2.778 Z M4.035,2.778 L6.657,5.4 C6.99273351,5.74899868 6.98737247,6.3025118 6.64494213,6.64494213 C6.3025118,6.98737247 5.74899868,6.99273351 5.4,6.657 L2.778,4.035 L2.778,6.333 L1,6.333 L1,1 L6.333,1 L6.333,2.778 L4.035,2.778 Z" id="全屏"></path>
            </g>
        </g>
    </g>
</svg>