<?xml version="1.0" encoding="UTF-8"?>
<svg width="10px" height="16px" viewBox="0 0 10 16" version="1.1" xmlns="http://www.w3.org/2000/svg" xmlns:xlink="http://www.w3.org/1999/xlink">
    <title>形状</title>
    <g id="页面-1" stroke="none" stroke-width="1" fill="none" fill-rule="evenodd">
        <g id="企业微信备份-20" transform="translate(-1656.000000, -976.000000)" fill="#CEDBFF" fill-rule="nonzero">
            <g id="编组-4" transform="translate(1641.000000, 968.000000)">
                <path d="M23.6290039,8 C24.3765507,8 24.9849978,8.62801237 24.9997268,9.40766237 L25,9.43660674 L25,22.5633933 C25,23.3448931 24.4006693,23.9842354 23.6566263,23.9997129 L23.6290039,24 L16.3709961,24 C15.6251878,24 15.0150446,23.3719876 15.000274,22.5923376 L15,22.5633933 L15,9.43660674 C15,8.6551069 15.5993307,8.01576456 16.3433737,8.00028707 L16.3709961,8 L23.6290039,8 Z M24.2977825,20.9589673 L15.7039775,20.9589673 L15.7039775,22.5633933 C15.7039775,22.9414122 15.9917712,23.2502483 16.3498531,23.2619868 L16.3709961,23.2623329 L23.6290039,23.2623329 C23.9896198,23.2623329 24.2842632,22.9609983 24.2973376,22.5859809 L24.2977825,22.5633933 L24.2977825,20.9589673 Z M20,21.1710466 C20.5035639,21.1710466 20.9116508,21.598663 20.9116508,22.1263255 C20.9116794,22.4676333 20.7379141,22.7830237 20.4558254,22.9536653 C20.1737944,23.1242508 19.8262056,23.1242508 19.5441746,22.9536653 C19.2621436,22.7828492 19.0883492,22.4674965 19.0883492,22.1263255 C19.0883492,21.598663 19.4964361,21.1710466 20,21.1710466 Z M24.2977825,10.8123559 L15.7039775,10.8123559 L15.7039775,20.2213001 L24.2977825,20.2213001 L24.2977825,10.8123559 Z M23.6290039,8.73766714 L16.3709961,8.73766714 C16.0102415,8.73766714 15.7155102,9.03923358 15.7043078,9.41445184 L15.7039775,9.43660674 L15.7039775,10.0746888 L24.2960225,10.0746888 L24.2960225,9.43660674 C24.2960225,9.0585878 24.0082288,8.74975176 23.6501469,8.73801325 L23.6290039,8.73766714 Z M21.2759592,9.00507148 C21.4167547,9.00507148 21.531151,9.12494238 21.531151,9.2724758 C21.531151,9.41474018 21.4247799,9.53128264 21.2909394,9.53942564 L21.2759592,9.53988013 L18.7222809,9.53988013 C18.5814854,9.53988013 18.4670891,9.42000921 18.4670891,9.2724758 C18.4670891,9.13021143 18.5734602,9.01366897 18.7073007,9.00552597 L18.7222809,9.00507148 L21.2759592,9.00507148 Z" id="形状"></path>
            </g>
        </g>
    </g>
</svg>