<?xml version="1.0" encoding="UTF-8"?>
<svg width="375px" height="45px" viewBox="0 0 375 45" version="1.1" xmlns="http://www.w3.org/2000/svg" xmlns:xlink="http://www.w3.org/1999/xlink">
    <!-- Generator: Sketch 60 (88103) - https://sketch.com -->
    <title>形状结合</title>
    <desc>Created with Sketch.</desc>
    <defs>
        <linearGradient x1="50%" y1="10.9074464%" x2="50%" y2="86.3429785%" id="linearGradient-1">
            <stop stop-color="#FFFFFF" offset="0%"></stop>
            <stop stop-color="#DDE7FA" offset="49.242066%"></stop>
            <stop stop-color="#BACFF4" offset="100%"></stop>
        </linearGradient>
        <path d="M12.6843011,34.6808527 L12.7198505,34.6850838 L24.591966,36.3640371 C24.6693693,36.3749835 24.7265582,36.4401133 24.7258136,36.5164616 C24.7250358,36.5946828 24.6640855,36.6585853 24.586294,36.6666667 L12.5340207,36.5545673 C12.4891424,36.554146 12.4443846,36.5499503 12.4002443,36.5420266 C11.98736,36.4679095 11.7104218,36.089526 11.7676274,35.6875516 L11.8394863,35.3019452 C11.9132596,34.9102842 12.2823015,34.6419873 12.6843011,34.6808527 Z M32.064097,24.4938631 C32.1725312,24.6796096 32.2109318,24.8965543 32.1726357,25.1070528 L30.4034375,34.8316138 C30.312897,35.329278 29.8262382,35.6610619 29.3164545,35.5726739 L29.2649454,35.5622801 L18.1572637,33.0017465 C17.6533602,32.8855871 17.3413247,32.3926382 17.4603129,31.9007143 C17.5201098,31.6535005 17.682462,31.4416677 17.9085265,31.3158971 L30.7854063,24.1518697 C31.2352457,23.9016024 31.807735,24.0547181 32.064097,24.4938631 Z M177.792,0.344 L176.88,4.472 L191.52,4.472 L191.52,29.816 L191.51325,30.08975 C191.48175,30.72325 191.34,31.32 191.088,31.88 C190.8,32.52 190.416,33.08 189.936,33.56 C189.456,34.04 188.896,34.416 188.256,34.688 C187.616,34.96 186.944,35.096 186.24,35.096 L186.24,35.096 L181.536,35.096 L182.304,30.92 L183.36,30.92 L183.513,30.91325 C183.863,30.88175 184.164,30.74 184.416,30.488 C184.704,30.2 184.848,29.848 184.848,29.432 L184.848,29.432 L184.848,9.224 L168.864,9.224 L170.832,0.344 L177.792,0.344 Z M211.152,0.392 L211.152,4.712 L209.952,4.712 L209.952,26.168 L211.152,26.024 L211.152,30.296 L209.952,30.44 L209.952,35.048 L204.288,35.048 L204.288,31.112 L193.488,32.408 L193.488,28.088 L194.688,27.944 L194.688,4.712 L193.488,4.712 L193.488,0.392 L211.152,0.392 Z M76.896,0.392 L76.896,9.656 L79.248,9.656 L79.248,14.408 L76.896,14.408 L76.896,20.648 L79.584,20.072 L79.584,25.352 L76.896,25.928 L76.896,35.048 L69.648,35.048 L69.648,27.512 L61.056,29.432 L61.056,24.152 L69.648,22.232 L69.648,14.408 L61.296,14.408 L62.448,3.368 L68.256,3.368 L67.632,9.656 L69.648,9.656 L69.648,0.392 L76.896,0.392 Z M91.632,0.44 L90.48,4.232 L103.104,4.232 L103.104,8.984 L103.098889,9.614 C103.040963,13.1575556 102.490667,16.2515556 101.448,18.896 C100.344,21.696 98.88,24.104 97.056,26.12 C98.08,26.696 99.112,27.192 100.152,27.608 C101.192,28.024 102.176,28.36 103.104,28.616 L103.104,28.616 L103.104,35.048 C101.248,34.568 99.376,33.944 97.488,33.176 C95.6,32.408 93.792,31.464 92.064,30.344 C90.336,31.464 88.528,32.408 86.64,33.176 C84.752,33.944 82.88,34.568 81.024,35.048 L81.024,35.048 L81.024,28.616 L81.60384,28.4528 C82.38208,28.2224 83.1808,27.9408 84,27.608 C85.024,27.192 86.048,26.696 87.072,26.12 C85.376,24.232 83.992,22 82.92,19.424 C81.848,16.848 81.232,13.816 81.072,10.328 L81.072,10.328 L87.072,10.328 L87.1090133,10.84832 C87.3051378,13.2555733 87.8288,15.3701333 88.68,17.192 C89.592,19.144 90.72,20.824 92.064,22.232 C93.536,20.696 94.744,18.848 95.688,16.688 C96.632,14.528 97.12,11.96 97.152,8.984 L97.152,8.984 L81.456,8.984 L84.288,0.44 L91.632,0.44 Z M147.648,0.344 L147.648,5.096 L113.616,5.096 L113.616,30.152 L111.456,35.048 L104.784,35.048 L106.944,30.152 L106.944,0.344 L147.648,0.344 Z M231.024,25.016 L235.632,35.048 L229.536,35.048 L224.928,25.016 L231.024,25.016 Z M219.552,0.392 L221.376,5.432 L226.128,5.432 L227.952,0.392 L233.952,0.392 L232.128,5.432 L235.632,5.432 L235.632,9.704 L226.08,9.704 L226.08,19.256 L235.632,19.256 L235.632,23.576 L225.024,23.576 L219.264,35.048 L212.736,35.048 L218.544,23.576 L211.872,23.576 L211.872,19.256 L219.888,19.256 L219.888,9.704 L211.872,9.704 L211.872,5.432 L215.376,5.432 L213.6,0.392 L219.552,0.392 Z M176.784,11.912 L173.232,35 L167.568,35 L171.12,11.912 L176.784,11.912 Z M165.216,0.344 L165.216,7.496 L167.904,7.496 L167.904,12.248 L165.216,12.248 L165.216,17.384 L167.904,16.568 L167.904,21.8 L165.216,22.664 L165.216,35 L157.92,35 L157.92,24.872 L149.28,27.512 L149.28,22.232 L157.92,19.592 L157.92,12.248 L149.424,12.248 L151.152,2.264 L156.672,2.264 L156,7.496 L157.92,7.496 L157.92,0.344 L165.216,0.344 Z M184.08,11.912 L180.528,35 L174.336,35 L177.888,11.912 L184.08,11.912 Z M274.512,0.392 L274.82449,0.400326531 C275.443592,0.433632653 276.027429,0.566857143 276.576,0.8 C277.216,1.072 277.776,1.448 278.256,1.928 C278.736,2.408 279.112,2.968 279.384,3.608 C279.656,4.248 279.792,4.936 279.792,5.672 L279.792,5.672 L279.792,29.768 L279.783673,30.08 C279.750367,30.6971429 279.617143,31.2731429 279.384,31.808 C279.112,32.432 278.736,32.984 278.256,33.464 C277.776,33.944 277.216,34.32 276.576,34.592 C275.936,34.864 275.248,35 274.512,35 L274.512,35 L269.088,35 L271.056,30.248 L272.064,30.248 L272.22825,30.24125 C272.60275,30.20975 272.916,30.068 273.168,29.816 C273.456,29.528 273.6,29.176 273.6,28.76 L273.6,28.76 L273.6,6.632 L273.59325,6.479 C273.56175,6.129 273.42,5.828 273.168,5.576 C272.88,5.288 272.512,5.144 272.064,5.144 L272.064,5.144 L243.792,5.144 L243.792,35 L237.6,35 L237.6,0.392 L274.512,0.392 Z M124.896,24.344 L121.104,35 L114.768,35 L118.56,24.344 L124.896,24.344 Z M142.8,24.344 L146.592,35 L140.256,35 L136.416,24.344 L142.8,24.344 Z M127.488,5.816 L126.096,8.408 L146.448,8.408 L146.448,18.392 L146.440653,18.6633469 C146.411265,19.2001633 146.293714,19.7017143 146.088,20.168 C145.848,20.712 145.528,21.184 145.128,21.584 C144.728,21.984 144.248,22.304 143.688,22.544 C143.128,22.784 142.544,22.904 141.936,22.904 L141.936,22.904 L134.688,22.904 L134.688,29.624 L134.679673,29.9364898 C134.646367,30.5555918 134.513143,31.1394286 134.28,31.688 C134.008,32.328 133.632,32.888 133.152,33.368 C132.672,33.848 132.112,34.224 131.472,34.496 C130.832,34.768 130.144,34.904 129.408,34.904 L129.408,34.904 L123.024,34.904 L125.088,30.68 L126.528,30.68 L126.681,30.67325 C127.031,30.64175 127.332,30.5 127.584,30.248 C127.872,29.96 128.016,29.592 128.016,29.144 L128.016,29.144 L128.016,22.904 L114.96,22.904 L114.96,8.408 L118.896,8.408 L120.288,5.816 L127.488,5.816 Z M322.368,0.536 L322.368,5.24 L306.24,5.24 L306.24,21.368 L323.952,21.368 L323.952,26.072 L306.24,26.072 L306.24,34.904 L299.568,34.904 L299.568,26.072 L281.808,26.072 L281.808,21.368 L299.568,21.368 L299.568,5.24 L283.392,5.24 L283.392,0.536 L322.368,0.536 Z M366.336,17.432 L366.336,30.2 L366.328653,30.4713469 C366.299265,31.0081633 366.181714,31.5097143 365.976,31.976 C365.736,32.52 365.416,32.992 365.016,33.392 C364.616,33.792 364.136,34.112 363.576,34.352 C363.016,34.592 362.432,34.712 361.824,34.712 L361.824,34.712 L327.216,34.712 L327.216,17.432 L366.336,17.432 Z M0.989905565,22.7494639 L10.0080376,32.4917847 C10.2142535,32.7145955 10.2228798,33.0492337 10.0327691,33.2814553 L9.15670537,34.2493153 C9.11877583,34.2911687 9.07513623,34.3277369 9.02701049,34.3579941 C8.74617245,34.5345601 8.37490183,34.4636913 8.18185575,34.2021764 L0.75560299,22.946824 C0.71416507,22.8840113 0.725430489,22.8011425 0.782216349,22.7510552 C0.841672231,22.6986129 0.931112447,22.6990825 0.989905565,22.7494639 Z M39.1239627,21.6086771 C39.1701164,21.8167164 39.1365193,22.0340559 39.0295343,22.2195347 L33.5629258,31.6969527 C33.5205776,31.770353 33.4252986,31.7963518 33.3501017,31.7550259 C33.2877454,31.720738 33.2572138,31.6494793 33.2760019,31.5820635 L35.9773928,21.8889161 C36.0692609,21.5592743 36.3415491,21.3070237 36.6835633,21.2347124 L38.0646142,20.9427198 C38.5455227,20.8410424 39.0198091,21.1392016 39.1239627,21.6086771 Z M359.328,22.136 L334.224,22.136 L334.224,30.056 L357.84,30.056 C358.256,30.056 358.608,29.912 358.896,29.624 C359.184,29.336 359.328,28.968 359.328,28.52 L359.328,28.52 L359.328,22.136 Z M249.024,7.784 L249.10752,8.22944 C249.22784,8.82848 249.384,9.448 249.576,10.088 C249.816,10.888 250.064,11.608 250.32,12.248 C250.608,13.016 250.896,13.768 251.184,14.504 C251.472,13.768 251.76,13.016 252.048,12.248 C252.304,11.608 252.544,10.888 252.768,10.088 C252.992,9.288 253.168,8.52 253.296,7.784 L253.296,7.784 L257.904,7.784 L257.768,8.502 C257.528,9.69533333 257.221333,10.872 256.848,12.032 C256.4,13.424 255.952,14.68 255.504,15.8 C254.96,17.08 254.4,18.312 253.824,19.496 C254.304,20.264 254.84,21.032 255.432,21.8 C256.024,22.568 256.672,23.32 257.376,24.056 L257.376,24.056 L257.376,29.768 C256.128,28.936 254.992,28.008 253.968,26.984 C252.944,25.96 252.016,24.888 251.184,23.768 C250.352,24.888 249.424,25.96 248.4,26.984 C247.376,28.008 246.224,28.936 244.944,29.768 L244.944,29.768 L244.944,24.056 L245.376,23.61248 C245.9392,23.01856 246.4512,22.4144 246.912,21.8 C247.488,21.032 248.032,20.264 248.544,19.496 C247.968,18.312 247.408,17.08 246.864,15.8 C246.416,14.68 245.968,13.424 245.52,12.032 C245.072,10.64 244.72,9.224 244.464,7.784 L244.464,7.784 L249.024,7.784 Z M263.28,7.784 L263.36256,8.22944 C263.48032,8.82848 263.6288,9.448 263.808,10.088 C264.032,10.888 264.272,11.608 264.528,12.248 C264.816,13.016 265.104,13.768 265.392,14.504 C265.712,13.768 266.016,13.016 266.304,12.248 C266.56,11.608 266.8,10.888 267.024,10.088 C267.248,9.288 267.424,8.52 267.552,7.784 L267.552,7.784 L272.112,7.784 L271.976,8.502 C271.736,9.69533333 271.429333,10.872 271.056,12.032 C270.608,13.424 270.16,14.68 269.712,15.8 C269.168,17.08 268.608,18.312 268.032,19.496 C268.544,20.264 269.088,21.032 269.664,21.8 C270.24,22.568 270.896,23.32 271.632,24.056 L271.632,24.056 L271.632,29.768 C270.384,28.936 269.24,28.008 268.2,26.984 C267.16,25.96 266.224,24.888 265.392,23.768 C264.56,24.888 263.632,25.96 262.608,26.984 C261.584,28.008 260.448,28.936 259.2,29.768 L259.2,29.768 L259.2,24.056 L259.61568,23.61248 C260.16096,23.01856 260.6704,22.4144 261.144,21.8 C261.736,21.032 262.272,20.264 262.752,19.496 C262.176,18.312 261.616,17.08 261.072,15.8 C260.624,14.68 260.176,13.424 259.728,12.032 C259.28,10.64 258.928,9.224 258.672,7.784 L258.672,7.784 L263.28,7.784 Z M14.9974309,11.1937988 C15.1609306,11.1943379 15.3214444,11.236606 15.4630401,11.3164128 L29.5165785,19.2373315 C29.9649731,19.4900577 30.1186044,20.0497867 29.8597237,20.4875213 C29.7745877,20.6314755 29.6508987,20.7500764 29.5019349,20.830592 L15.3951307,28.4553837 C14.9421631,28.7002147 14.3716522,28.5402165 14.1208588,28.0980176 C14.0433945,27.9614324 14.0030095,27.8077723 14.0035391,27.6516505 L14.0568102,12.1059401 C14.0585421,11.6004905 14.4796723,11.1921133 14.9974309,11.1937988 Z M10.2762012,11.9888446 C10.3894771,12.1437111 10.4504863,12.3291965 10.4507396,12.5194915 L10.4697534,26.8041525 C10.4704254,27.3096045 10.0512425,27.7198866 9.53348145,27.7205442 C9.28605101,27.7208573 9.04852649,27.6256671 8.8726912,27.4557255 L0.277918054,19.1490363 C-0.0900264223,18.7934248 -0.0930038647,18.213958 0.271267751,17.8547609 C0.308736178,17.8178144 0.349361364,17.7840519 0.392702446,17.7538398 L8.96846261,11.775868 C9.38982873,11.482143 9.97532323,11.5774959 10.2762012,11.9888446 Z M204.288,22.52 L200.304,22.52 L200.304,27.272 L204.288,26.84 L204.288,22.52 Z M292.272,7.496 L294.864,19.496 L289.104,19.496 L286.512,7.496 L292.272,7.496 Z M319.92,7.496 L317.136,19.496 L311.376,19.496 L314.16,7.496 L319.92,7.496 Z M139.776,17.24 L121.632,17.24 L121.632,19.256 L138.72,19.256 C139.424,19.256 139.776,18.904 139.776,18.2 L139.776,18.2 L139.776,17.24 Z M204.288,13.784 L200.304,13.784 L200.304,18.2 L204.288,18.2 L204.288,13.784 Z M33.3898754,4.41166697 L39.8839227,15.9470114 C40.1332973,16.3899743 39.9676181,16.9464187 39.5138679,17.1898647 C39.4381585,17.2304843 39.3570612,17.2606931 39.2728781,17.2796334 L37.3649757,17.7088916 C36.8653988,17.8212912 36.3659884,17.5210864 36.2439095,17.0349979 L33.1011903,4.52145501 C33.0806418,4.43963616 33.1319266,4.3570471 33.2157379,4.33698718 C33.284406,4.32055173 33.3558226,4.3511791 33.3898754,4.41166697 Z M342.48,0.68 L336.24,10.424 L357.744,10.424 L353.04,2.6 L359.472,2.6 L367.632,16.232 L361.248,16.232 L360.576,15.128 L326.448,15.128 L335.712,0.68 L342.48,0.68 Z M30.348457,2.01105715 C30.3851501,2.08888 30.4104683,2.17134699 30.4236702,2.25604308 L32.4352186,15.1610864 C32.5131084,15.6607866 32.1612985,16.1275147 31.6494293,16.2035527 C31.4390169,16.2348094 31.2239723,16.1952413 31.0396523,16.091354 L17.4075212,8.40795082 C16.9591266,8.15522464 16.8054952,7.59549559 17.064376,7.157761 C17.1613647,6.9937654 17.3080749,6.86317784 17.4842823,6.78400008 L29.104865,1.56236002 C29.5751951,1.35101996 30.1319702,1.55190851 30.348457,2.01105715 Z M8.13484498,3.40593111 C8.30854407,3.50813258 8.44360989,3.6625669 8.51977608,3.84606149 L9.67652642,6.63282854 C9.83246233,7.00849911 9.71669329,7.43955196 9.39200679,7.69220501 L0.452914102,14.6481121 C0.385434604,14.7006209 0.287128248,14.6897852 0.23334071,14.62391 C0.192624348,14.5740434 0.187981778,14.504713 0.221677496,14.4500825 L6.84798153,3.71734236 C7.11525104,3.28443916 7.69139943,3.14501559 8.13484498,3.40593111 Z M139.776,12.056 L121.632,12.056 L121.632,13.784 L139.776,13.784 L139.776,12.056 Z M204.288,4.712 L200.304,4.712 L200.304,9.464 L204.288,9.464 L204.288,4.712 Z M25.8736002,-6.75494105e-14 C25.9598858,-0.00113284887 26.0307868,0.0662224385 26.0319766,0.150456687 C26.0328597,0.214795032 25.9923042,0.272764022 25.9305894,0.295356298 L13.7351458,4.75980622 C13.2503491,4.9372783 12.7099705,4.69748564 12.5281765,4.22421431 L11.6175229,1.36415945 C11.4640912,0.881410209 11.7405861,0.368640656 12.2350916,0.218856597 C12.3209676,0.19284503 12.4102302,0.179029266 12.5001366,0.177833832 L25.8736002,-6.75494105e-14 Z" id="path-2"></path>
        <filter x="-1.9%" y="-13.6%" width="103.8%" height="138.2%" filterUnits="objectBoundingBox" id="filter-3">
            <feOffset dx="0" dy="2" in="SourceAlpha" result="shadowOffsetOuter1"></feOffset>
            <feGaussianBlur stdDeviation="2" in="shadowOffsetOuter1" result="shadowBlurOuter1"></feGaussianBlur>
            <feColorMatrix values="0 0 0 0 0.0434048617   0 0 0 0 0.0454352289   0 0 0 0 0.226137908  0 0 0 0.8 0" type="matrix" in="shadowBlurOuter1"></feColorMatrix>
        </filter>
    </defs>
    <g id="页面-1" stroke="none" stroke-width="1" fill="none" fill-rule="evenodd">
        <g id="登录备份-3" transform="translate(-422.000000, -304.000000)" fill-rule="nonzero">
            <g id="编组-12" transform="translate(426.000000, 306.000000)">
                <g id="形状结合">
                    <use fill="black" fill-opacity="1" filter="url(#filter-3)" xlink:href="#path-2"></use>
                    <use fill="#FFFFFF" xlink:href="#path-2"></use>
                    <use fill="url(#linearGradient-1)" xlink:href="#path-2"></use>
                </g>
            </g>
        </g>
    </g>
</svg>