<?xml version="1.0" standalone="no"?><!DOCTYPE svg PUBLIC "-//W3C//DTD SVG 1.1//EN" "http://www.w3.org/Graphics/SVG/1.1/DTD/svg11.dtd"><svg t="1602472034158" class="icon" viewBox="0 0 1024 1024" version="1.1" xmlns="http://www.w3.org/2000/svg" p-id="1162" width="15" height="10" xmlns:xlink="http://www.w3.org/1999/xlink"><defs><style type="text/css"></style></defs><path d="M363.229916 275.453327h497.82454a43.350032 43.350032 0 1 0 0-86.700064H363.229916a43.350032 43.350032 0 0 0 0 86.700064zM861.054456 471.930121H363.229916a43.350032 43.350032 0 0 0 0 86.700063h497.82454a43.350032 43.350032 0 0 0 0-86.700063zM861.054456 755.099753H363.229916a43.350032 43.350032 0 0 0 0 86.700064h497.82454a43.350032 43.350032 0 1 0 0-86.700064z" fill="#CDD8F7" p-id="1163"></path><path d="M201.707698 232.103295m-76.585056 0a76.585056 76.585056 0 1 0 153.170112 0 76.585056 76.585056 0 1 0-153.170112 0Z" fill="#CDD8F7" p-id="1164"></path><path d="M201.707698 513.878501m-76.585056 0a76.585056 76.585056 0 1 0 153.170112 0 76.585056 76.585056 0 1 0-153.170112 0Z" fill="#CDD8F7" p-id="1165"></path><path d="M201.707698 795.653708m-76.585056 0a76.585056 76.585056 0 1 0 153.170112 0 76.585056 76.585056 0 1 0-153.170112 0Z" fill="#CDD8F7" p-id="1166"></path></svg>