<?xml version="1.0" encoding="UTF-8"?>
<svg width="18px" height="18px" viewBox="0 0 18 18" version="1.1" xmlns="http://www.w3.org/2000/svg" xmlns:xlink="http://www.w3.org/1999/xlink">
    <title>静音</title>
    <g id="单元巡栏客户端" stroke="none" stroke-width="1" fill="none" fill-rule="evenodd">
        <g id="画板" transform="translate(-156.000000, -287.000000)" fill="#FFFFFF" fill-rule="nonzero">
            <g id="静音" transform="translate(156.000000, 287.000000)">
                <g transform="translate(0.500000, 1.000000)" id="形状结合">
                    <path d="M8.62687831,0.00959360689 C8.79897915,0.00959360689 8.96895529,0.0462100893 9.12618321,0.118277304 C9.35883804,0.19841175 9.55909118,0.355453768 9.69879034,0.571117643 C9.80502541,0.749672268 9.86664176,0.95189075 9.87938998,1.1557227 L9.88098351,1.27780671 L9.88098351,13.8250336 C9.89054467,14.0761933 9.82786596,14.3252017 9.69560328,14.5440924 C9.57130824,14.7377059 9.39283328,14.8861429 9.22285714,14.9490672 C9.04331984,15.0829832 8.82447557,15.1496723 8.59713249,15.1367647 C8.35250561,15.1148045 8.1194423,15.0213854 7.92625792,14.8678571 L7.8359581,14.7877227 L4.15119411,11.6511849 L1.27009855,11.6511849 C0.931933434,11.6463262 0.608660129,11.5095439 0.367631499,11.2693361 C0.16786449,11.0506941 0.0435436799,10.7723353 0.0133374779,10.4760588 L0.00590102292,10.3480588 L0.00590102292,4.77091596 C0.00210323019,4.52988079 0.0724593118,4.2936194 0.207216508,4.09488236 L0.279987548,3.99753782 L0.441996049,3.82005882 L0.572134039,3.76305043 L0.594443404,3.76305043 C0.76372866,3.65730655 0.95435148,3.59150083 1.15217762,3.57051261 L1.27169208,3.5629832 L4.14535118,3.5629832 L7.8248034,0.337168071 C8.0409918,0.124731089 8.32942007,0.00694958929 8.62687831,0.00959360689 Z M8.42290695,1.78120168 L8.42237577,1.78120168 L4.73495591,5.01723529 L4.61809732,5.06079832 L1.46291524,5.06079832 L1.46291524,10.1560588 L4.61066086,10.1560588 L4.72539474,10.1985462 L4.8778421,10.3286975 L8.42290695,13.3453025 L8.42290695,1.78120168 Z M15.9146053,4.63484873 L16.9785496,5.71209243 L14.848755,7.86655003 L16.9785496,10.0226807 L15.9146053,11.0999244 L13.784755,8.94455003 L11.6572341,11.0999244 L10.5932898,10.0226807 L12.721755,7.86655003 L10.5932898,5.71209243 L11.6572341,4.63484873 L13.785755,6.78955003 L15.9146053,4.63484873 Z"></path>
                </g>
            </g>
        </g>
    </g>
</svg>