<?xml version="1.0" encoding="utf-8"?>
<!-- Generator: Adobe Illustrator 24.1.0, SVG Export Plug-In . SVG Version: 6.00 Build 0)  -->
<svg version="1.1" id="图层_1" xmlns="http://www.w3.org/2000/svg" xmlns:xlink="http://www.w3.org/1999/xlink" x="0px" y="0px"
	 viewBox="0 0 197 179" style="enable-background:new 0 0 197 179;" xml:space="preserve">
<style type="text/css">
	.st0{opacity:0.37;fill-rule:evenodd;clip-rule:evenodd;fill:url(#椭圆形_1_);enable-background:new    ;}
	.st1{opacity:0.7;}
	.st2{fill-rule:evenodd;clip-rule:evenodd;fill:url(#路径_1_);}
	.st3{fill-rule:evenodd;clip-rule:evenodd;fill:url(#路径备份_1_);}
	.st4{fill-rule:evenodd;clip-rule:evenodd;fill:url(#路径-3_2_);}
	.st5{fill-rule:evenodd;clip-rule:evenodd;fill:url(#矩形_2_);}
	.st6{fill-rule:evenodd;clip-rule:evenodd;fill:url(#矩形备份-3_2_);}
	.st7{fill-rule:evenodd;clip-rule:evenodd;fill:url(#矩形备份-4_2_);}
	.st8{fill-rule:evenodd;clip-rule:evenodd;fill:url(#路径-2_2_);}
	.st9{fill-rule:evenodd;clip-rule:evenodd;fill:url(#路径-4_2_);}
	.st10{fill-rule:evenodd;clip-rule:evenodd;fill:url(#路径-5_2_);}
	.st11{fill-rule:evenodd;clip-rule:evenodd;fill:url(#路径-3_3_);}
	.st12{fill-rule:evenodd;clip-rule:evenodd;fill:url(#矩形_3_);}
	.st13{fill-rule:evenodd;clip-rule:evenodd;fill:url(#矩形备份-3_3_);}
	.st14{fill-rule:evenodd;clip-rule:evenodd;fill:url(#矩形备份-4_3_);}
	.st15{fill-rule:evenodd;clip-rule:evenodd;fill:url(#路径-2_3_);}
	.st16{fill-rule:evenodd;clip-rule:evenodd;fill:url(#路径-4_3_);}
	.st17{fill-rule:evenodd;clip-rule:evenodd;fill:url(#路径-5_3_);}
	.st18{fill:#3171D4;}
	.st19{font-family:'SourceHanSansCN-Normal-GBpc-EUC-H';}
	.st20{font-size:14px;}
</style>
<g id="页面-1">
	<g id="缺省调暗1210" transform="translate(-139.000000, -602.000000)">
		<g id="数据" transform="translate(68.000000, 598.000000)">
			
				<radialGradient id="椭圆形_1_" cx="-787.0123" cy="638.7144" r="0.5356" gradientTransform="matrix(1.106401e-14 180.6889 185.2674 -1.134435e-14 -118163.0156 142291.7812)" gradientUnits="userSpaceOnUse">
				<stop  offset="0" style="stop-color:#578CFF"/>
				<stop  offset="1" style="stop-color:#0E5DB2;stop-opacity:0"/>
				<stop  offset="1" style="stop-color:#0E5DB2;stop-opacity:0"/>
			</radialGradient>
			<ellipse id="椭圆形" class="st0" cx="169.9" cy="189.8" rx="169.9" ry="90.3"/>
			<g id="编组-4" transform="translate(68.000000, 0.000000)" class="st1">
				
					<linearGradient id="路径_1_" gradientUnits="userSpaceOnUse" x1="-873.4136" y1="616.987" x2="-872.5306" y2="617.1627" gradientTransform="matrix(-49.2523 8.6845 -6.2566 -35.4828 -39103.3086 29498.3691)">
					<stop  offset="0" style="stop-color:#5278C7;stop-opacity:0"/>
					<stop  offset="1" style="stop-color:#4677DB"/>
				</linearGradient>
				<path id="路径" class="st2" d="M27,4.4c-7.2,1.3-12.2,6.9-11.4,12.7l0,0.2l-0.4,0.1C8,18.6,2.9,24.4,4,30.2s7.8,9.5,15.1,8.2
					c4.1-0.7,17.5,0.9,23.5-0.2c7.3-1.3,12.4-7.1,11.3-12.9c-0.9-5-5.3-8.3-11.3-8.3C44.9,8,34.3,3.1,27,4.4z"/>
				
					<linearGradient id="路径备份_1_" gradientUnits="userSpaceOnUse" x1="-883.1357" y1="606.5646" x2="-882.2528" y2="606.7397" gradientTransform="matrix(-30.1869 5.3228 -3.8287 -21.7134 -24137.4922 17928.7246)">
					<stop  offset="0" style="stop-color:#4F7BD6"/>
					<stop  offset="1" style="stop-color:#0F3C9A;stop-opacity:0"/>
				</linearGradient>
				<path id="路径备份" class="st3" d="M182.7,47.4c-4.4,0.8-7.5,4.2-7,7.7l0,0.1l-0.2,0c-4.5,0.8-7.6,4.3-7,7.9
					c0.6,3.6,4.8,5.8,9.2,5c2.5-0.4,10.7,0.5,14.4-0.1c4.5-0.8,7.6-4.3,7-7.9c-0.5-3.1-3.2-5.1-7-5.1
					C193.7,49.7,187.2,46.6,182.7,47.4z"/>
			</g>
			<g id="编组-11备份" transform="translate(106.477400, 20.994923)">
				
					<linearGradient id="路径-3_2_" gradientUnits="userSpaceOnUse" x1="-873.2424" y1="598.8526" x2="-874.0646" y2="598.3009" gradientTransform="matrix(38.4749 0 0 -32.3638 33633.8906 19428.7891)">
					<stop  offset="9.014423e-04" style="stop-color:#426FCF"/>
					<stop  offset="1" style="stop-color:#2857BA"/>
				</linearGradient>
				<path id="路径-3" class="st4" d="M18,39.1l-14.8,18c-0.4,0.5-0.3,1.2,0.2,1.5c0.1,0,0.1,0.1,0.2,0.1l23.2,12.7l0,0l14.7-24.1
					L18,39.1z"/>
				
					<linearGradient id="矩形_2_" gradientUnits="userSpaceOnUse" x1="-901.9147" y1="601.439" x2="-902.0114" y2="601.3331" gradientTransform="matrix(8.3351 -25.6528 -81.9257 -26.6193 56849.8867 -7089.6851)">
					<stop  offset="0" style="stop-color:#548DFF"/>
					<stop  offset="1" style="stop-color:#3061C3"/>
				</linearGradient>
				<path id="矩形" class="st5" d="M17.8,39.2l41.6-10.6c0.2,0,0.4,0,0.5,0l48.1,11.6l0,0L67,54.4L17.8,39.2z"/>
				
					<linearGradient id="矩形备份-3_2_" gradientUnits="userSpaceOnUse" x1="-898.5167" y1="599.2996" x2="-899.0356" y2="598.3123" gradientTransform="matrix(17.6464 -54.31 -66.5947 -21.6379 55781.8281 -35780.1914)">
					<stop  offset="0" style="stop-color:#5289F9"/>
					<stop  offset="1" style="stop-color:#3264C9"/>
				</linearGradient>
				<path id="矩形备份-3" class="st6" d="M17.8,92.4l0-53.2l0,0L67,54.4v60L18.5,93.4C18.1,93.2,17.8,92.8,17.8,92.4z"/>
				
					<linearGradient id="矩形备份-4_2_" gradientUnits="userSpaceOnUse" x1="-907.643" y1="623.7818" x2="-908.3504" y2="622.978" gradientTransform="matrix(-17.8278 -54.8684 59.1531 -19.22 -52978.2773 -37760.6172)">
					<stop  offset="9.014423e-04" style="stop-color:#426FCF"/>
					<stop  offset="1" style="stop-color:#2857BA"/>
				</linearGradient>
				<path id="矩形备份-4" class="st7" d="M108.3,91.3v-51l0,0L67,54.4l0,60l40.8-22.2C108.1,92.1,108.3,91.7,108.3,91.3z"/>
				
					<linearGradient id="路径-2_2_" gradientUnits="userSpaceOnUse" x1="-880.58" y1="602.364" x2="-881.3163" y2="601.9036" gradientTransform="matrix(57.0184 0 0 -43.2474 50321.7148 26101.5332)">
					<stop  offset="0" style="stop-color:#5288F6"/>
					<stop  offset="1" style="stop-color:#3264C9"/>
				</linearGradient>
				<path id="路径-2" class="st8" d="M67,54.4l41.1-14.2l15.7,21.5c0.4,0.5,0.3,1.2-0.2,1.5c-0.1,0-0.1,0.1-0.2,0.1L82,83.3
					c-0.5,0.3-1.2,0-1.5-0.5c0,0,0,0,0,0L67,54.4L67,54.4z"/>
				
					<linearGradient id="路径-4_2_" gradientUnits="userSpaceOnUse" x1="-805.4037" y1="590.3967" x2="-805.6931" y2="589.5942" gradientTransform="matrix(9.9304 1.0437 1.6647 -15.8381 7072.334 10201.8789)">
					<stop  offset="0" style="stop-color:#5989EC"/>
					<stop  offset="1" style="stop-color:#3264C9"/>
				</linearGradient>
				<polygon id="路径-4" class="st9" points="51.4,6.8 58,7.5 59.6,23.7 				"/>
				
					<linearGradient id="路径-5_2_" gradientUnits="userSpaceOnUse" x1="-783.5723" y1="597.1179" x2="-783.6641" y2="596.3154" gradientTransform="matrix(7.9907 0.8399 2.3777 -22.6219 4911.7764 14170.8984)">
					<stop  offset="0" style="stop-color:#5989EC"/>
					<stop  offset="1" style="stop-color:#3264C9"/>
				</linearGradient>
				<polygon id="路径-5" class="st10" points="66.6,2.5 64.5,22.8 74.8,1 				"/>
			</g>
			<g id="编组-11备份-2" transform="translate(106.477400, 20.994923)">
				
					<linearGradient id="路径-3_3_" gradientUnits="userSpaceOnUse" x1="-873.2424" y1="598.8526" x2="-874.0646" y2="598.3009" gradientTransform="matrix(38.4749 0 0 -32.3638 33633.8906 19428.7891)">
					<stop  offset="9.014423e-04" style="stop-color:#426FCF"/>
					<stop  offset="1" style="stop-color:#2857BA"/>
				</linearGradient>
				<path id="路径-3_1_" class="st11" d="M18,39.1l-14.8,18c-0.4,0.5-0.3,1.2,0.2,1.5c0.1,0,0.1,0.1,0.2,0.1l23.2,12.7l0,0
					l14.7-24.1L18,39.1z"/>
				
					<linearGradient id="矩形_3_" gradientUnits="userSpaceOnUse" x1="-901.9936" y1="601.5284" x2="-901.9624" y2="601.22" gradientTransform="matrix(8.3351 -25.6528 -81.9257 -26.6193 56849.8867 -7089.6851)">
					<stop  offset="0" style="stop-color:#376DD9"/>
					<stop  offset="1" style="stop-color:#3061C3"/>
				</linearGradient>
				<path id="矩形_1_" class="st12" d="M17.8,39.2l41.6-10.6c0.2,0,0.4,0,0.5,0l48.1,11.6l0,0L67,54.4L17.8,39.2z"/>
				
					<linearGradient id="矩形备份-3_3_" gradientUnits="userSpaceOnUse" x1="-898.5167" y1="599.2996" x2="-899.0356" y2="598.3123" gradientTransform="matrix(17.6464 -54.31 -66.5947 -21.6379 55781.8281 -35780.1914)">
					<stop  offset="0" style="stop-color:#5289F9"/>
					<stop  offset="1" style="stop-color:#3264C9"/>
				</linearGradient>
				<path id="矩形备份-3_1_" class="st13" d="M17.8,92.4l0-53.2l0,0L67,54.4v60L18.5,93.4C18.1,93.2,17.8,92.8,17.8,92.4z"/>
				
					<linearGradient id="矩形备份-4_3_" gradientUnits="userSpaceOnUse" x1="-907.643" y1="623.7818" x2="-908.3504" y2="622.978" gradientTransform="matrix(-17.8278 -54.8684 59.1531 -19.22 -52978.2773 -37760.6172)">
					<stop  offset="9.014423e-04" style="stop-color:#426FCF"/>
					<stop  offset="1" style="stop-color:#2857BA"/>
				</linearGradient>
				<path id="矩形备份-4_1_" class="st14" d="M108.3,91.3v-51l0,0L67,54.4l0,60l40.8-22.2C108.1,92.1,108.3,91.7,108.3,91.3z"/>
				
					<linearGradient id="路径-2_3_" gradientUnits="userSpaceOnUse" x1="-880.58" y1="602.364" x2="-881.3163" y2="601.9036" gradientTransform="matrix(57.0184 0 0 -43.2474 50321.7148 26101.5332)">
					<stop  offset="0" style="stop-color:#5288F6"/>
					<stop  offset="1" style="stop-color:#3264C9"/>
				</linearGradient>
				<path id="路径-2_1_" class="st15" d="M67,54.4l41.1-14.2l15.7,21.5c0.4,0.5,0.3,1.2-0.2,1.5c-0.1,0-0.1,0.1-0.2,0.1L82,83.3
					c-0.5,0.3-1.2,0-1.5-0.5c0,0,0,0,0,0L67,54.4L67,54.4z"/>
				
					<linearGradient id="路径-4_3_" gradientUnits="userSpaceOnUse" x1="-805.4037" y1="590.3967" x2="-805.6931" y2="589.5942" gradientTransform="matrix(9.9304 1.0437 1.6647 -15.8381 7072.334 10201.8789)">
					<stop  offset="0" style="stop-color:#5989EC"/>
					<stop  offset="1" style="stop-color:#3264C9"/>
				</linearGradient>
				<polygon id="路径-4_1_" class="st16" points="51.4,6.8 58,7.5 59.6,23.7 				"/>
				
					<linearGradient id="路径-5_3_" gradientUnits="userSpaceOnUse" x1="-783.5723" y1="597.1179" x2="-783.6641" y2="596.3154" gradientTransform="matrix(7.9907 0.8399 2.3777 -22.6219 4911.7764 14170.8984)">
					<stop  offset="0" style="stop-color:#5989EC"/>
					<stop  offset="1" style="stop-color:#3264C9"/>
				</linearGradient>
				<polygon id="路径-5_1_" class="st17" points="66.6,2.5 64.5,22.8 74.8,1 				"/>
			</g>
			<text transform="matrix(1 0 0 1 142 178.5)" class="st18 st19 st20">暂无数据</text>
		</g>
	</g>
</g>
</svg>
