<?xml version="1.0" encoding="UTF-8"?>
<svg width="13px" height="24px" viewBox="0 0 13 24" version="1.1" xmlns="http://www.w3.org/2000/svg" xmlns:xlink="http://www.w3.org/1999/xlink">
    <title>？</title>
    <g id="集团运维地图" stroke="none" stroke-width="1" fill="none" fill-rule="evenodd">
        <g id="集团运维地图备份-2" transform="translate(-1623.000000, -902.000000)" fill="#CDD8F7" fill-rule="nonzero">
            <g id="编组-25" transform="translate(1605.000000, 888.000000)">
                <path d="M25.31,29.74 C24.914,27.5253333 26.2245481,26.1639407 27.6676685,24.8144988 L28.0633511,24.4461333 C29.4514667,23.1534667 30.83,21.802 30.83,19.66 C30.83,16.3 28.46,14.17 24.74,14.17 C21.83,14.17 19.82,15.49 17.99,17.41 L19.61,18.91 C21.11,17.26 22.7,16.42 24.44,16.42 C26.99,16.42 28.16,17.92 28.16,19.9 C28.16,23.32 21.92,24.7 22.85,29.74 L25.31,29.74 Z M24.14,37.15 C25.46,37.15 26.54,36.22 26.54,34.78 C26.54,33.34 25.46,32.44 24.14,32.44 C22.82,32.44 21.71,33.34 21.71,34.78 C21.71,36.22 22.82,37.15 24.14,37.15 Z" id="？"></path>
            </g>
        </g>
    </g>
</svg>