<?xml version="1.0" encoding="UTF-8"?>
<svg width="21px" height="21px" viewBox="0 0 21 21" version="1.1" xmlns="http://www.w3.org/2000/svg" xmlns:xlink="http://www.w3.org/1999/xlink">
    <title>编组 6_export</title>
    <g id="页面-1" stroke="none" stroke-width="1" fill="none" fill-rule="evenodd">
        <g id="登录-copy-2备份-2" transform="translate(-1459.000000, -678.000000)" fill="#FF2E2E">
            <g id="分组-2" transform="translate(1459.000000, 678.000000)">
                <g id="编组-6_export" transform="translate(0.000000, 0.000079)">
                    <g id="编组-16" transform="translate(1.500000, 0.000000)">
                        <path d="M9.12345492,20.9942953 C9.06303505,20.9942953 9.00284569,20.9868444 8.94430294,20.9719007 C8.85332733,20.9481071 6.69090684,20.3798594 4.50749201,18.8325741 C1.55848233,16.7422343 -3.55271368e-15,13.8688044 -3.55271368e-15,10.523001 L-3.55271368e-15,3.14697782 C-3.55271368e-15,2.74318602 0.324013163,2.41637363 0.722906276,2.41637361 C4.66145074,2.41637361 8.72666125,0.118189532 8.76655057,0.0950957251 C8.99049055,-0.0329699449 9.26341742,-0.0315703277 9.48595776,0.0985947885 C9.52514727,0.121688595 13.4986823,2.41637363 17.4722174,2.41637361 C17.8711105,2.41637361 18.1951237,2.74318602 18.1951237,3.14627799 L18.1951237,10.5223012 C18.1951237,13.8492096 16.6464388,16.7156414 13.716324,18.8129793 C11.5462056,20.3665629 9.39708158,20.9467075 9.30680578,20.9705011 C9.24698184,20.986363 9.18534595,20.9942953 9.12345492,20.9942953 Z M1.3996249,3.7257227 L1.3996249,10.4880104 C1.3996249,13.4048287 2.70547493,15.8233805 5.28008494,17.6764839 C6.45401639,18.5095739 7.74944104,19.1565781 9.12065567,19.5946698 C10.4843656,19.1492559 11.771617,18.4971335 12.9374328,17.661088 C15.4973467,15.8002867 16.7954988,13.3873334 16.7954988,10.4880104 L16.7954988,3.72642251 C13.3552208,3.52417672 10.1738734,1.96569439 9.11925605,1.39954612 C8.05204206,1.96149552 4.81331004,3.52207728 1.3996249,3.7257227 Z" id="形状" fill-rule="nonzero"></path>
                        <path d="M9.76748374,6.14835872 L9.76748374,9.64735872 L13.2674837,9.64835872 L13.2674837,10.6483587 L9.76748374,10.6473587 L9.76748374,14.1483587 L8.76748374,14.1483587 L8.76748374,10.6473587 L5.26748374,10.6483587 L5.26748374,9.64835872 L8.76748374,9.64735872 L8.76748374,6.14835872 L9.76748374,6.14835872 Z" id="形状结合" stroke="#FF2E2E" stroke-width="0.6" transform="translate(9.267484, 10.148359) rotate(-45.000000) translate(-9.267484, -10.148359) "></path>
                    </g>
                </g>
            </g>
        </g>
    </g>
</svg>