<?xml version="1.0" encoding="UTF-8"?>
<svg width="18px" height="18px" viewBox="0 0 18 18" version="1.1" xmlns="http://www.w3.org/2000/svg" xmlns:xlink="http://www.w3.org/1999/xlink">
    <title>录像</title>
    <g id="单元巡栏客户端" stroke="none" stroke-width="1" fill="none" fill-rule="evenodd">
        <g id="画板" transform="translate(-258.000000, -287.000000)" fill="#FFFFFF" fill-rule="nonzero">
            <g id="录像" transform="translate(258.000000, 287.000000)">
                <path d="M9,1 C13.418278,1 17,4.581722 17,9 C17,13.418278 13.418278,17 9,17 C4.581722,17 1,13.418278 1,9 C1,4.581722 4.581722,1 9,1 Z M9,2.6 C5.4653776,2.6 2.6,5.4653776 2.6,9 C2.6,12.5346224 5.4653776,15.4 9,15.4 C12.5346224,15.4 15.4,12.5346224 15.4,9 C15.4,5.4653776 12.5346224,2.6 9,2.6 Z M9,4.37142857 C11.5562894,4.37142857 13.6285714,6.44371059 13.6285714,9 C13.6285714,11.5562894 11.5562894,13.6285714 9,13.6285714 C6.44371059,13.6285714 4.37142857,11.5562894 4.37142857,9 C4.37142857,6.44371059 6.44371059,4.37142857 9,4.37142857 Z" id="形状结合"></path>
            </g>
        </g>
    </g>
</svg>