<?xml version="1.0" encoding="UTF-8"?>
<svg width="18px" height="18px" viewBox="0 0 18 18" version="1.1" xmlns="http://www.w3.org/2000/svg" xmlns:xlink="http://www.w3.org/1999/xlink">
    <title>录像开</title>
    <g id="单元巡栏客户端" stroke="none" stroke-width="1" fill="none" fill-rule="evenodd">
        <g id="画板" transform="translate(-292.000000, -287.000000)" fill="#FF3B3B" fill-rule="nonzero">
            <g id="录像开" transform="translate(292.000000, 287.000000)">
                <g id="录屏" transform="translate(1.000000, 1.000000)">
                    <path d="M8,0 C12.418278,0 16,3.581722 16,8 C16,12.418278 12.418278,16 8,16 C3.581722,16 0,12.418278 0,8 C0,3.581722 3.581722,0 8,0 Z M8,1.6 C4.4653776,1.6 1.6,4.4653776 1.6,8 C1.6,11.5346224 4.4653776,14.4 8,14.4 C11.5346224,14.4 14.4,11.5346224 14.4,8 C14.4,4.4653776 11.5346224,1.6 8,1.6 Z M8,3.37142857 C10.5562894,3.37142857 12.6285714,5.44371059 12.6285714,8 C12.6285714,10.5562894 10.5562894,12.6285714 8,12.6285714 C5.44371059,12.6285714 3.37142857,10.5562894 3.37142857,8 C3.37142857,5.44371059 5.44371059,3.37142857 8,3.37142857 Z" id="形状结合"></path>
                </g>
            </g>
        </g>
    </g>
</svg>