<?xml version="1.0" encoding="UTF-8"?>
<svg width="15px" height="13px" viewBox="0 0 15 13" version="1.1" xmlns="http://www.w3.org/2000/svg" xmlns:xlink="http://www.w3.org/1999/xlink">
    <!-- Generator: Sketch 60 (88103) - https://sketch.com -->
    <title>形状结合</title>
    <desc>Created with Sketch.</desc>
    <g id="基础信息维护" stroke="none" stroke-width="1" fill="none" fill-rule="evenodd">
        <g id="推送目标维护备份" transform="translate(-1342.000000, -232.000000)" fill="#CDD8F7" fill-rule="nonzero">
            <path d="M1354.84283,232 C1355.93552,232 1356.8193,232.88561 1356.8193,233.976667 L1356.8193,233.976667 L1356.8193,240.445083 C1356.8193,241.53426 1355.93551,242.418685 1354.84291,242.418685 L1354.84291,242.418685 L1352.58319,242.418685 C1352.58319,242.418685 1352.58213,244.346849 1352.58521,244.534932 C1352.58731,244.635103 1352.55221,244.697123 1352.47358,244.697123 C1352.40326,244.697123 1352.29783,244.648592 1352.15107,244.534932 C1351.83889,244.29106 1349.5378,242.418685 1349.5378,242.418685 L1349.5378,242.418685 L1343.97545,242.418685 C1342.88483,242.418685 1342,241.53426 1342,240.445083 L1342,240.445083 L1342,233.976681 C1342,232.885596 1342.88482,232 1343.97545,232 L1343.97545,232 Z M1354.84282,233.058095 L1343.97544,233.058095 C1343.46991,233.058095 1343.05847,233.470374 1343.05847,233.976667 L1343.05847,233.976667 L1343.05847,240.445083 C1343.05847,240.950363 1343.46994,241.360604 1343.97544,241.360604 L1343.97544,241.360604 L1349.5378,241.360604 C1349.78176,241.360604 1350.01746,241.444338 1350.20556,241.598275 C1350.20556,241.598275 1350.8651,242.134521 1351.52465,242.669843 L1351.52465,242.669843 L1351.52465,242.417716 C1351.52465,241.833921 1351.99802,241.360604 1352.58312,241.360604 L1352.58312,241.360604 L1354.84283,241.360604 C1355.34939,241.360604 1355.76084,240.950349 1355.76084,240.445083 L1355.76084,240.445083 L1355.76084,233.976681 C1355.76084,233.470432 1355.34937,233.058095 1354.84283,233.058095 L1354.84282,233.058095 Z M1352.58521,236.496968 C1353.02253,236.496968 1353.37909,236.851319 1353.37909,237.290474 C1353.37909,237.729629 1353.02252,238.084009 1352.58521,238.084009 C1352.14698,238.084009 1351.79129,237.729629 1351.79129,237.290474 C1351.79129,236.851319 1352.14698,236.496968 1352.58521,236.496968 Z M1349.4097,236.496968 C1349.84692,236.496968 1350.20357,236.851319 1350.20357,237.290474 C1350.20357,237.729629 1349.84692,238.084009 1349.4097,238.084009 C1348.97085,238.084009 1348.61577,237.729629 1348.61577,237.290474 C1348.61577,236.851319 1348.97086,236.496968 1349.4097,236.496968 Z M1346.23409,236.496968 C1346.67138,236.496968 1347.02795,236.851319 1347.02795,237.290474 C1347.02795,237.729629 1346.67138,238.084009 1346.23409,238.084009 C1345.79523,238.084009 1345.44023,237.729629 1345.44023,237.290474 C1345.44023,236.851319 1345.79523,236.496968 1346.23409,236.496968 Z" id="形状结合" transform="translate(1349.409649, 238.348562) scale(-1, 1) translate(-1349.409649, -238.348562) "></path>
        </g>
    </g>
</svg>