<?xml version="1.0" encoding="UTF-8"?>
<svg width="15px" height="13px" viewBox="0 0 15 13" version="1.1" xmlns="http://www.w3.org/2000/svg" xmlns:xlink="http://www.w3.org/1999/xlink">
    <title>短信</title>
    <g id="页面-1" stroke="none" stroke-width="1" fill="none" fill-rule="evenodd">
        <path d="M1.97646443,3.41060513e-13 C0.933442175,3.41060513e-13 0.0807747754,0.806930196 0.00541456186,1.82922372 L-4.54747351e-13,1.97666683 L-4.54747351e-13,8.44508274 C-4.54747351e-13,9.48475167 0.80527047,10.3378594 1.82875849,10.4132666 L1.97639215,10.4186847 L4.2361091,10.4186847 L4.23408514,12.5349322 L4.23408514,12.5349322 C4.2319889,12.6351035 4.26709007,12.6971233 4.34572072,12.6971233 C4.40197511,12.6971233 4.48070349,12.6660631 4.58508129,12.5954453 L4.71202651,12.5004 L4.71202651,12.5004 L7.2814965,10.4186847 L12.8438455,10.4186847 C13.8848944,10.4186847 14.7384337,9.61283467 14.8138773,8.59227392 L14.819298,8.44508274 L14.819298,1.97668129 C14.819298,0.935190794 14.0130923,0.0809332926 12.9912293,0.00542535967 L12.8438455,3.41060513e-13 L1.97646443,3.41060513e-13 Z M1.97647889,1.05809481 L12.84386,1.05809481 C13.3132771,1.05809481 13.70157,1.41358084 13.7546454,1.86973056 L13.7608273,1.97666683 L13.7608273,8.44508274 C13.7608273,8.91427167 13.4060393,9.30151359 12.950626,9.35444004 L12.84386,9.36060437 L7.2814965,9.36060437 C7.0863294,9.36060437 6.8964454,9.41419408 6.73199246,9.51444531 L6.60616798,9.60442752 L6.60616798,9.60442752 L5.29465207,10.6698431 L5.29465207,10.4177161 C5.29465207,9.87284042 4.88229056,9.42420424 4.3516039,9.36680775 L4.23618138,9.36060437 L1.97646443,9.36060437 C1.50609417,9.36060437 1.11772079,9.00686349 1.06463873,8.55178489 L1.05845623,8.44508274 L1.05845623,1.97668129 C1.05845623,1.50659293 1.4132442,1.1174793 1.86949098,1.06429005 L1.97647889,1.05809481 Z M4.23408514,4.496968 C3.79676627,4.496968 3.44020321,4.85131916 3.44020321,5.29047405 C3.44020321,5.72962893 3.79678073,6.08400901 4.23408514,6.08400901 C4.67231479,6.08400901 5.02801044,5.72962893 5.02801044,5.29047405 C5.02801044,4.85131916 4.67231479,4.496968 4.23408514,4.496968 Z M7.4095984,4.496968 C6.97238073,4.496968 6.61573093,4.85131916 6.61573093,5.29047405 C6.61573093,5.72962893 6.97238073,6.08400901 7.4095984,6.08400901 C7.84844969,6.08400901 8.2035237,5.72962893 8.2035237,5.29047405 C8.2035237,4.85131916 7.84843524,4.496968 7.4095984,4.496968 Z M10.5852129,4.496968 C10.1479229,4.496968 9.79134539,4.85131916 9.79134539,5.29047405 C9.79134539,5.72962893 10.1479229,6.08400901 10.5852129,6.08400901 C11.0240641,6.08400901 11.3790659,5.72962893 11.3790659,5.29047405 C11.3790659,4.85131916 11.0240641,4.496968 10.5852129,4.496968 Z" id="短信" fill="#0090E7" fill-rule="nonzero"></path>
    </g>
</svg>