<?xml version="1.0" encoding="UTF-8"?>
<svg width="21px" height="19px" viewBox="0 0 21 19" version="1.1" xmlns="http://www.w3.org/2000/svg" xmlns:xlink="http://www.w3.org/1999/xlink">
    <title>主题</title>
    <g id="页面-1" stroke="none" stroke-width="1" fill="none" fill-rule="evenodd">
        <g id="单元驾驶舱" transform="translate(-1712.000000, -20.000000)" fill="#FFFFFF" fill-rule="nonzero">
            <path d="M1718.74281,21.2467635 L1718.26161,20.4737443 L1712.9222,25.4436189 L1713.34796,25.9859594 C1713.53788,26.2278716 1713.84206,26.472602 1714.28636,26.7159807 L1715.88613,27.5621857 L1716.07798,27.6481634 C1716.35221,27.7679785 1716.509,27.8475244 1716.68374,27.9685873 C1717.13705,28.2826565 1717.3422,28.6594153 1717.26272,29.2390519 L1717.18441,29.8538802 L1717.0729,30.8653145 L1716.92384,32.4049851 L1716.82593,33.5073077 L1716.66558,35.4467714 L1716.59102,36.4119538 L1716.76809,36.6403429 C1717.30075,37.3273888 1718.62801,37.8478233 1721.08197,38.0235444 L1721.69272,38.0590077 C1722.11454,38.0781161 1722.56588,38.088035 1723.04811,38.088035 C1726.74277,38.088035 1728.59836,37.4898456 1729.24134,36.6342656 L1729.41108,36.4084042 L1729.29709,34.9408136 L1729.19505,33.6990708 L1729.0423,31.9684084 L1728.91847,30.7001423 L1728.83094,29.8986209 L1728.77544,29.4418374 C1728.76639,29.3711107 1728.75745,29.3031325 1728.74861,29.2379727 C1728.64685,28.4869134 1728.98477,28.0919859 1729.75642,27.7228133 L1730.1185,27.5574493 L1730.82724,27.1812259 L1731.48606,26.8220618 C1732.03106,26.5446817 1732.40135,26.2574964 1732.61534,25.9767176 L1733.02437,25.4400366 L1727.76996,20.4787233 L1727.28598,21.2607239 C1726.44831,22.6142404 1725.06855,23.1423998 1723.57819,23.1423998 C1723.40761,23.1423998 1723.25632,23.1342736 1723.11961,23.1211808 L1722.97701,23.121142 C1722.82297,23.1358098 1722.66842,23.1429036 1722.51382,23.1424037 C1720.99507,23.1423998 1719.59112,22.6095381 1718.74281,21.2467635 Z M1718.003,22.763 L1718.08535,22.8572137 C1719.25004,24.1373687 1720.84697,24.6423998 1722.51139,24.6423998 L1722.81469,24.6358845 L1723.042,24.619 L1722.97661,24.6143491 C1723.15832,24.6317511 1723.35657,24.6423998 1723.57819,24.6423998 L1723.82227,24.6386517 C1725.36448,24.5909692 1726.83232,24.0843979 1727.92446,22.8945441 L1728.023,22.781 L1730.858,25.457 L1729.44831,26.2152193 L1729.30748,26.2784346 C1728.75325,26.5237974 1728.3883,26.7352461 1728.00972,27.1178986 C1727.42077,27.7131894 1727.13454,28.4971751 1727.26221,29.4394598 L1727.3361,30.0300149 L1727.41502,30.7451792 L1727.52702,31.8751178 L1727.64542,33.1847027 L1727.75246,34.4505601 L1727.864,35.864 L1727.8151,35.8916521 C1727.68619,35.9589715 1727.49971,36.0380833 1727.24266,36.12095 C1726.33964,36.4120563 1724.96843,36.588035 1723.04811,36.588035 C1721.10128,36.588035 1719.70744,36.4119969 1718.78551,36.1201976 L1718.63516,36.0703826 C1718.44589,36.0046602 1718.30082,35.9420713 1718.19334,35.8867357 L1718.137,35.856 L1718.31337,33.7176435 L1718.44729,32.2207246 L1718.56383,31.030573 L1718.67285,30.0399919 L1718.74873,29.4434726 C1718.91251,28.2489651 1718.42195,27.3480359 1717.53798,26.7355981 C1717.31759,26.5829033 1717.1285,26.4787962 1716.8791,26.3634869 L1716.49347,26.1896315 L1715.111,25.454 L1718.003,22.763 Z" id="主题"></path>
        </g>
    </g>
</svg>