<?xml version="1.0" encoding="UTF-8"?>
<svg width="18px" height="18px" viewBox="0 0 18 18" version="1.1" xmlns="http://www.w3.org/2000/svg" xmlns:xlink="http://www.w3.org/1999/xlink">
    <title>对讲</title>
    <g id="单元巡栏客户端" stroke="none" stroke-width="1" fill="none" fill-rule="evenodd">
        <g id="画板" transform="translate(-190.000000, -287.000000)" fill="#FFFFFF" fill-rule="nonzero">
            <g id="对讲" transform="translate(190.000000, 287.000000)">
                <path d="M14.0458008,7.48125 C14.4641602,7.48125 14.812207,7.90839844 14.812207,8.32851562 C14.812207,11.2833984 12.646582,13.7460937 9.84638672,14.0958984 L9.84638672,14.0958984 L9.84638672,15.9925781 L12.4954102,15.9925781 C12.9208008,15.9925781 13.2688477,16.3494141 13.2688477,16.7695312 C13.2688477,17.1966797 12.9137695,17.5464844 12.4954102,17.5464844 L12.4954102,17.5464844 L5.56435547,17.5464844 C5.13896484,17.5464844 4.79091797,17.1896484 4.79091797,16.7695312 C4.79091797,16.3423828 5.14599609,15.9925781 5.56435547,15.9925781 L5.56435547,15.9925781 L8.22392578,15.9925781 L8.22392578,14.0958984 C5.35517578,13.6757812 3.18779297,11.2130859 3.18779297,8.25820312 C3.18779297,7.83808594 3.54287109,7.48828125 3.96123047,7.48828125 C4.38662109,7.48828125 4.73466797,7.83808594 4.73466797,8.25820312 C4.73466797,10.6523437 6.62080078,12.5419922 9.00263672,12.5419922 C11.3844727,12.5419922 13.2723633,10.6453125 13.2723633,8.25117187 C13.2723633,7.83105469 13.6274414,7.48125 14.0458008,7.48125 Z M8.93408203,0.453515625 C10.753418,0.453515625 12.1526367,1.93007812 12.1526367,3.68789062 L12.1526367,3.68789062 L12.1526367,7.97871094 C12.1526367,9.80683594 10.6831055,11.2130859 8.93408203,11.2130859 C7.18505859,11.2130859 5.78583984,9.80507812 5.71552734,7.97871094 L5.71552734,7.97871094 L5.71552734,3.68789062 C5.71552734,1.85976562 7.18505859,0.453515625 8.93408203,0.453515625 Z" id="形状结合"></path>
            </g>
        </g>
    </g>
</svg>