<?xml version="1.0" encoding="UTF-8"?>
<svg width="18px" height="18px" viewBox="0 0 18 18" version="1.1" xmlns="http://www.w3.org/2000/svg" xmlns:xlink="http://www.w3.org/1999/xlink">
    <title>对讲-开</title>
    <g id="单元巡栏客户端" stroke="none" stroke-width="1" fill="none" fill-rule="evenodd">
        <g id="画板" transform="translate(-224.000000, -287.000000)" fill="#F9D200" fill-rule="nonzero">
            <g id="对讲-开" transform="translate(224.000000, 287.000000)">
                <g id="对讲" transform="translate(3.000000, 0.000000)">
                    <path d="M10.8632812,7.04179687 C11.2816406,7.04179687 11.6296875,7.46894531 11.6296875,7.8890625 C11.6296875,10.8439453 9.4640625,13.3066406 6.66386719,13.6564453 L6.66386719,13.6564453 L6.66386719,15.553125 L9.31289062,15.553125 C9.73828125,15.553125 10.0863281,15.9099609 10.0863281,16.3300781 C10.0863281,16.7572266 9.73125,17.1070312 9.31289062,17.1070312 L9.31289062,17.1070312 L2.38183594,17.1070312 C1.95644531,17.1070312 1.60839844,16.7501953 1.60839844,16.3300781 C1.60839844,15.9029297 1.96347656,15.553125 2.38183594,15.553125 L2.38183594,15.553125 L5.04140625,15.553125 L5.04140625,13.6564453 C2.17265625,13.2363281 0.0052734375,10.7736328 0.0052734375,7.81875 C0.0052734375,7.39863281 0.360351562,7.04882812 0.778710937,7.04882812 C1.20410156,7.04882812 1.55214844,7.39863281 1.55214844,7.81875 C1.55214844,10.2128906 3.43828125,12.1025391 5.82011719,12.1025391 C8.20195312,12.1025391 10.0898437,10.2058594 10.0898437,7.81171875 C10.0898437,7.39160156 10.4449219,7.04179687 10.8632812,7.04179687 Z M5.7515625,0.0140625 C7.57089844,0.0140625 8.97011719,1.490625 8.97011719,3.2484375 L8.97011719,3.2484375 L8.97011719,7.53925781 C8.97011719,9.36738281 7.50058594,10.7736328 5.7515625,10.7736328 C4.00253906,10.7736328 2.60332031,9.365625 2.53300781,7.53925781 L2.53300781,7.53925781 L2.53300781,3.2484375 C2.53300781,1.4203125 4.00253906,0.0140625 5.7515625,0.0140625 Z" id="形状结合"></path>
                </g>
            </g>
        </g>
    </g>
</svg>