<?xml version="1.0" encoding="UTF-8"?>
<svg width="18px" height="18px" viewBox="0 0 18 18" version="1.1" xmlns="http://www.w3.org/2000/svg" xmlns:xlink="http://www.w3.org/1999/xlink">
    <title>声音</title>
    <g id="单元巡栏客户端" stroke="none" stroke-width="1" fill="none" fill-rule="evenodd">
        <g id="画板" transform="translate(-122.000000, -287.000000)" fill="#FFFFFF" fill-rule="nonzero">
            <g id="声音" transform="translate(122.000000, 287.000000)">
                <g transform="translate(0.500000, 0.500000)" id="形状结合">
                    <path d="M8.86332082,0.935647986 C9.03542166,0.935647986 9.2053978,0.972264468 9.36262572,1.04433168 C9.59528055,1.12446613 9.79553369,1.28150815 9.93523284,1.49717202 C10.0414679,1.67572665 10.1030843,1.87794513 10.1158325,2.08177708 L10.117426,2.20386109 L10.117426,14.751088 C10.1269872,15.0022476 10.0643085,15.2512561 9.93204579,15.4701468 C9.80775075,15.6637603 9.62927579,15.8121972 9.45929965,15.8751216 C9.27976235,16.0090376 9.06091808,16.0757266 8.833575,16.0628191 C8.58894812,16.0408589 8.35588481,15.9474398 8.16270043,15.7939115 L8.0724006,15.7137771 L4.38763662,12.5772393 L1.50654106,12.5772393 C1.16837594,12.5723806 0.845102639,12.4355983 0.604074009,12.1953905 C0.404306999,11.9767485 0.27998619,11.6983896 0.249779988,11.4021132 L0.242343533,11.2741132 L0.242343533,5.69697034 C0.23854574,5.45593517 0.308901821,5.21967378 0.443659018,5.02093674 L0.516430058,4.9235922 L0.678438559,4.7461132 L0.808576548,4.68910481 L0.830885914,4.68910481 C1.00017117,4.58336093 1.19079399,4.51755521 1.38862013,4.49656699 L1.50813459,4.48903758 L4.38179369,4.48903758 L8.06124591,1.26322245 C8.27743431,1.05078547 8.56586258,0.933003968 8.86332082,0.935647986 Z M8.65881828,2.70725606 L4.97139842,5.94328966 L4.85453983,5.9868527 L1.69935775,5.9868527 L1.69935775,11.0821132 L4.84710337,11.0821132 L4.96183725,11.1246006 L5.11428461,11.2547519 L8.65934946,14.2713569 L8.65934946,2.70725606 L8.65881828,2.70725606 Z M13.7779625,3.82797438 C14.0284106,3.57926206 14.4328928,3.58012083 14.6822825,3.82989438 C16.0560425,5.20941438 16.7578025,6.75021438 16.7578025,8.42829438 C16.7578025,10.1082944 16.0550825,11.6442944 14.6803625,13.0113344 C14.4271752,13.2435175 14.0358796,13.2345358 13.7936125,12.9909799 C13.5513453,12.7474241 13.5444394,12.3560864 13.7779625,12.1041344 C14.9213225,10.9665344 15.4781225,9.74925438 15.4781225,8.42829438 C15.4781225,7.10637438 14.9213225,5.88333438 13.7750825,4.73325438 C13.5257309,4.48269505 13.5265903,4.07747377 13.7770025,3.82797438 L13.7779625,3.82797438 Z M11.7648425,5.80845438 C11.9691337,5.52029392 12.3681881,5.45199503 12.6566825,5.65581438 C13.6502825,6.36045438 14.1706025,7.30125438 14.1706025,8.42829438 C14.1706025,9.55533438 13.6502825,10.4961344 12.6566825,11.2007744 C12.3683385,11.3933114 11.9791285,11.3213697 11.7786623,11.038481 C11.5781961,10.7555922 11.639307,10.3645353 11.9165225,10.1562944 C12.5818025,9.68493438 12.8899625,9.12621438 12.8899625,8.42829438 C12.8899625,7.73037438 12.5818025,7.17165438 11.9165225,6.70029438 C11.778009,6.60202099 11.6842109,6.45274544 11.6557649,6.28531048 C11.627319,6.11787552 11.6665557,5.94599834 11.7648425,5.80749438 L11.7648425,5.80845438 Z"></path>
                </g>
            </g>
        </g>
    </g>
</svg>