<?xml version="1.0" encoding="UTF-8"?>
<svg width="165px" height="134px" viewBox="0 0 165 134" version="1.1" xmlns="http://www.w3.org/2000/svg" xmlns:xlink="http://www.w3.org/1999/xlink">
    <!-- Generator: Sketch 60 (88103) - https://sketch.com -->
    <title>形状</title>
    <desc>Created with Sketch.</desc>
    <g id="页面-1" stroke="none" stroke-width="1" fill="none" fill-rule="evenodd">
        <g id="企业微信备份-9" transform="translate(-1467.000000, -829.000000)" fill="#2787F5" fill-rule="nonzero">
            <path d="M1622.67427,936.007655 C1619.59407,936.621719 1616.65709,937.810466 1614.01694,939.511726 C1611.42954,942.227053 1608.16289,944.200811 1604.5557,945.228339 C1605.03664,941.999023 1606.63762,939.051466 1609.05619,936.87329 C1611.08146,933.782061 1612.54026,930.354984 1613.36433,926.752443 C1613.35304,921.631423 1617.49393,917.470144 1622.61494,917.456252 C1627.73596,917.442429 1631.89931,921.581235 1631.91578,926.702241 C1631.93215,931.823248 1627.79543,935.98867 1622.67443,936.007655 L1622.67427,936.007655 Z M1605.70342,913.793811 C1602.62661,911.754212 1599.21103,910.2791 1595.61678,909.437622 C1591.86509,909.437622 1588.48282,907.177662 1587.04712,903.711559 C1585.61141,900.245455 1586.405,896.255797 1589.05784,893.602956 C1591.71068,890.950115 1595.70034,890.156522 1599.16644,891.592229 C1602.63255,893.027937 1604.89251,896.410206 1604.89251,900.161889 C1605.49697,903.246932 1606.67139,906.192217 1608.35554,908.846743 C1611.05349,911.455005 1613.00771,914.735058 1614.0171,918.349349 C1610.81035,917.837637 1607.88113,916.22731 1605.73078,913.793974 L1605.69658,913.793974 L1605.70342,913.793811 Z M1590.42231,881.101954 C1587.6259,857.67899 1563.3715,839.32671 1534.0259,839.32671 C1502.76303,839.32671 1477.32687,860.131922 1477.32687,885.719218 C1477.82746,900.086246 1485.41363,913.271958 1497.58241,920.925896 C1499.55658,922.380659 1501.62212,923.707166 1503.76629,924.897231 L1501.25163,934.935668 C1502.15847,935.361726 1503.03795,935.815147 1503.96547,936.20684 L1516.66303,929.858143 C1518.51808,930.339088 1520.46954,930.648208 1522.407,930.978013 C1523.64381,931.197883 1524.88062,931.424593 1526.15179,931.575733 C1534.07013,932.574032 1542.10437,932.112943 1549.85651,930.215309 C1550.09639,933.650816 1550.72327,937.04827 1551.72524,940.34316 C1545.92323,941.703271 1539.98501,942.397115 1534.02573,942.411238 C1528.67953,942.38107 1523.35102,941.79386 1518.12655,940.659121 L1495.08795,952.161238 C1493.29663,953.077518 1491.13349,952.851287 1489.57052,951.584202 C1488.00141,950.327169 1487.30667,948.272325 1487.79104,946.32101 L1491.91352,929.720847 C1476.80656,920.113725 1467.47352,903.616468 1467.02036,885.719218 C1467.02036,854.401629 1497.01873,829.020358 1534.02573,829.020358 C1569.16352,829.020358 1597.93909,851.928013 1600.74235,881.047068 C1599.12847,880.798688 1597.5023,880.638137 1595.87101,880.566124 C1594.05016,880.634853 1592.22932,880.806515 1590.42215,881.095114 L1590.42231,881.101954 Z M1569.01938,917.675896 C1572.10456,917.057492 1575.03844,915.875733 1577.67687,914.171824 C1580.2678,911.460454 1583.53679,909.491435 1587.14495,908.468893 C1586.65321,911.687217 1585.0602,914.635277 1582.63762,916.810261 C1580.61075,919.902117 1579.15407,923.337622 1578.32964,926.937948 C1578.33716,932.058065 1574.19462,936.215909 1569.07451,936.227298 C1563.9544,936.23864 1559.79344,932.099228 1559.77819,926.979128 C1559.76301,921.859028 1563.89929,917.69496 1569.01938,917.675896 L1569.01938,917.675896 Z M1585.72948,939.992671 C1588.79397,942.047068 1592.20195,943.53127 1595.7886,944.390065 C1599.54028,944.390065 1602.92255,946.650025 1604.35826,950.116129 C1605.79397,953.582233 1605.00037,957.571891 1602.34753,960.224732 C1599.69469,962.877573 1595.70503,963.671165 1592.23893,962.235458 C1588.77283,960.799751 1586.51287,957.417482 1586.51287,953.665798 C1585.92168,950.576976 1584.75636,947.62645 1583.07736,944.967264 C1580.38955,942.347075 1578.44935,939.057327 1577.45684,935.437296 C1580.66657,935.965478 1583.59188,937.59578 1585.72948,940.04772 L1585.72948,939.992671 L1585.72948,939.992671 Z" id="形状"></path>
        </g>
    </g>
</svg>