<?xml version="1.0" encoding="UTF-8"?>
<svg width="15px" height="12px" viewBox="0 0 15 12" version="1.1" xmlns="http://www.w3.org/2000/svg" xmlns:xlink="http://www.w3.org/1999/xlink">
    <!-- Generator: Sketch 60 (88103) - https://sketch.com -->
    <title>形状</title>
    <desc>Created with Sketch.</desc>
    <g id="基础信息维护" stroke="none" stroke-width="1" fill="none" fill-rule="evenodd">
        <g id="推送目标维护备份" transform="translate(-1405.000000, -231.000000)" fill="#CDD8F7" fill-rule="nonzero">
            <g id="编组-15" transform="translate(1405.002961, 231.000000)">
                <path d="M14.1593258,9.58953316 C13.8791302,9.64455628 13.6119631,9.75107367 13.3717969,9.90351469 C13.13643,10.1468209 12.8392732,10.323679 12.5111392,10.4157504 C12.5548891,10.1263883 12.7005248,9.86227315 12.9205339,9.6670982 C13.1047657,9.39010937 13.2374684,9.08302692 13.3124315,8.76022206 C13.3114041,8.30135423 13.6880873,7.92848385 14.1539292,7.92723901 C14.619771,7.92600038 14.9984974,8.29685718 14.9999956,8.75572376 C15.001485,9.21459034 14.6251809,9.58783203 14.1593406,9.58953316 L14.1593258,9.58953316 Z M12.6155435,7.59906684 C12.3356561,7.41630904 12.0249517,7.284132 11.6979945,7.20873154 C11.3567161,7.20873154 11.0490422,7.00622837 10.9184406,6.69564893 C10.787839,6.3850695 10.8600295,6.02757711 11.1013498,5.78986991 C11.34267,5.5521627 11.7055961,5.48105304 12.0208962,5.60969925 C12.3361963,5.73834547 12.5417775,6.04141288 12.5417775,6.37758164 C12.5967638,6.65401614 12.7035964,6.91792773 12.8567979,7.15578592 C13.1022215,7.38949865 13.2799909,7.68340705 13.3718118,8.00726472 C13.0801039,7.96141291 12.8136425,7.81711992 12.6180325,7.59908143 L12.6149212,7.59908143 L12.6155435,7.59906684 Z M11.2254712,4.66972058 C10.9710903,2.57091129 8.76474733,0.926459477 6.09527407,0.926459477 C3.2513936,0.926459477 0.937549849,2.79070566 0.937549849,5.08344944 C0.983086703,6.37080364 1.67317529,7.55230628 2.78012969,8.23813564 C2.95971364,8.36848936 3.14760913,8.48735073 3.34265663,8.59398624 L3.11390644,9.49347802 C3.19639874,9.5316549 3.27640204,9.57228352 3.3607759,9.60738115 L4.51583103,9.03850762 C4.68457874,9.08160255 4.86209719,9.10930122 5.03834151,9.13885328 C5.15084986,9.15855466 5.26335821,9.17886896 5.37899262,9.19241183 C6.09929793,9.28186417 6.83014681,9.24054844 7.53533357,9.0705114 C7.55715452,9.37834915 7.61417954,9.6827773 7.70532578,9.97801508 C7.17753597,10.0998875 6.63735544,10.1620593 6.09525925,10.1633247 C5.6089327,10.1606216 5.12421603,10.1080047 4.64896246,10.0063267 L2.55321661,11.0369712 C2.39026663,11.1190743 2.19349251,11.0988029 2.05131439,10.9852661 C1.90857716,10.87263 1.84537891,10.6885061 1.88944103,10.513659 L2.26444912,9.0262052 C0.89021887,8.16536128 0.0412230255,6.68712835 0,5.08344944 C0,2.27724407 2.72885349,0.00296120817 6.09525925,0.00296120817 C9.29162836,0.00296120817 11.9092476,2.05559631 12.1642508,4.66480254 C12.0174418,4.64254649 11.8695142,4.62816033 11.7211213,4.6217076 C11.5554849,4.62786611 11.3898484,4.64324777 11.2254564,4.66910765 L11.2254712,4.66972058 Z M9.27851671,7.94692014 C9.55916534,7.8915082 9.82605044,7.78561696 10.0660604,7.63293861 C10.3017484,7.38998695 10.5991177,7.21355346 10.9273404,7.12192874 C10.882608,7.410306 10.7376972,7.67446617 10.5173234,7.8693551 C10.3329455,8.1464002 10.2004363,8.45423782 10.1254406,8.77684418 C10.1261243,9.23563109 9.74929113,9.60819372 9.28353151,9.60921423 C8.81777189,9.61023055 8.43926326,9.23931952 8.43787539,8.78053414 C8.43649513,8.32174877 8.81275917,7.94862841 9.27851671,7.94692014 L9.27851671,7.94692014 Z M10.7985795,9.94660963 C11.0773466,10.1306934 11.3873594,10.263685 11.7136247,10.3406371 C12.0549031,10.3406371 12.362577,10.5431403 12.4931786,10.8537197 C12.6237802,11.1642991 12.5515897,11.5217915 12.3102694,11.7594987 C12.0689492,11.9972059 11.7060231,12.0683156 11.3907229,11.9396694 C11.0754228,11.8110232 10.8698417,11.5079558 10.8698417,11.171787 C10.8160635,10.8950139 10.7100584,10.6306326 10.5573251,10.3923569 C10.3128241,10.1575755 10.1363299,9.86279837 10.0460447,9.53842634 C10.3380234,9.58575394 10.6041289,9.73183678 10.7985795,9.95154227 L10.7985795,9.94660963 L10.7985795,9.94660963 Z" id="形状"></path>
            </g>
        </g>
    </g>
</svg>