<?xml version="1.0" encoding="UTF-8"?>
<svg width="86px" height="89px" viewBox="0 0 86 89" version="1.1" xmlns="http://www.w3.org/2000/svg" xmlns:xlink="http://www.w3.org/1999/xlink">
    <title>形状</title>
    <defs>
        <linearGradient x1="84.7222222%" y1="0%" x2="15.2777778%" y2="100%" id="linearGradient-1">
            <stop stop-color="#A8F4FF" offset="0%"></stop>
            <stop stop-color="#00A4FF" offset="100%"></stop>
        </linearGradient>
        <path d="M54.1822947,717.007768 C55.3673877,717.007768 56.3782839,717.779116 56.7536233,718.853363 L59.1823052,718.853902 C60.1850588,718.853902 61.0004962,719.682123 61.0004962,720.700073 L61.0004962,739.161655 C61.0004962,740.179799 60.1850588,741.007768 59.1823052,741.007768 L42.8186872,741.007768 C41.8159336,741.007768 41.0004962,740.179794 41.0004962,739.161623 L41.0004962,720.700047 C41.0004962,719.682094 41.8159336,718.853902 42.8186872,718.853902 L45.2473418,718.853363 C45.6226794,717.779116 46.633572,717.007768 47.8186713,717.007768 L54.1822947,717.007768 Z M45.2473427,720.700591 L42.8186872,720.70002 L42.8186872,739.161602 L59.1823317,739.161602 L59.1823317,720.70002 L56.7536266,720.700591 C56.3782945,721.774838 55.3674127,722.546186 54.1822947,722.546186 L47.8186713,722.546186 C46.6335783,722.546186 45.6226821,721.774838 45.2473427,720.700591 Z M55.3336218,726.081396 L56.9587026,727.694517 L50.6612994,734.234399 C50.2935139,734.616334 49.6842376,734.602534 49.3335879,734.204354 L45.5653317,729.925129 L47.2596646,728.386835 L50.0561794,731.562564 L55.3336218,726.081396 Z M54.1822947,718.853907 L47.8186713,718.853907 C47.3175247,718.853907 46.909589,719.267894 46.909589,719.776966 C46.909589,720.286038 47.3175247,720.700025 47.8186713,720.700025 L54.1822947,720.700025 C54.6834413,720.700025 55.0913769,720.286038 55.0913769,719.776966 C55.0913769,719.267894 54.6834413,718.853907 54.1822947,718.853907 Z" id="path-2"></path>
        <filter x="-230.0%" y="-275.0%" width="660.0%" height="566.7%" filterUnits="objectBoundingBox" id="filter-3">
            <feOffset dx="10" dy="-10" in="SourceAlpha" result="shadowOffsetOuter1"></feOffset>
            <feGaussianBlur stdDeviation="17" in="shadowOffsetOuter1" result="shadowBlurOuter1"></feGaussianBlur>
            <feColorMatrix values="0 0 0 0 0.0247206595   0 0 0 0 0.0614244116   0 0 0 0 0.3534024  0 0 0 0.5 0" type="matrix" in="shadowBlurOuter1"></feColorMatrix>
        </filter>
    </defs>
    <g id="页面-1" stroke="none" stroke-width="1" fill="none" fill-rule="evenodd">
        <g id="形状" transform="translate(-18.000000, -675.000000)">
            <use fill="black" fill-opacity="1" filter="url(#filter-3)" xlink:href="#path-2"></use>
            <use fill="url(#linearGradient-1)" fill-rule="evenodd" xlink:href="#path-2"></use>
        </g>
    </g>
</svg>