<?xml version="1.0" encoding="UTF-8"?>
<svg width="85px" height="84px" viewBox="0 0 85 84" version="1.1" xmlns="http://www.w3.org/2000/svg" xmlns:xlink="http://www.w3.org/1999/xlink">
    <title>形状</title>
    <defs>
        <linearGradient x1="100%" y1="9.5%" x2="0%" y2="90.5%" id="linearGradient-1">
            <stop stop-color="#A8F4FF" offset="0%"></stop>
            <stop stop-color="#289CFF" offset="100%"></stop>
        </linearGradient>
        <path d="M549.998731,780 C551.153789,780 552.452254,780.393894 553.761352,781.133456 C554.965449,781.813123 556.163795,782.772571 557.228827,783.9077 C558.317912,785.069721 559.235901,786.391364 559.887605,787.734676 C560.623767,789.261744 561,790.765603 561,792.20638 C561,793.027726 560.65391,793.833341 559.861348,794.502126 C559.681555,794.653351 559.479014,794.796593 559.254393,794.931872 L559.022438,795.064497 L558.941732,795.105156 L558.980636,795.234171 C559.065752,795.543513 559.126057,795.851743 559.160682,796.156353 L559.186715,796.459663 L559.195435,796.760002 C559.195435,797.466297 558.884549,798.136442 558.185267,798.64271 C557.789683,798.93105 557.26381,799.163974 556.61757,799.344763 C555.559554,799.638977 554.164435,799.8 552.684005,799.8 C551.174637,799.8 549.74898,799.6378 548.661165,799.339709 C548.007578,799.161435 547.470951,798.930577 547.066547,798.648535 C546.341462,798.143097 546.017752,797.470948 546.017752,796.760002 L546.020128,796.602833 L546.027241,796.444704 L546.032236,796.376033 L545.69739,796.333474 C544.497132,796.170631 543.426752,795.943018 542.527571,795.658101 L542.198485,795.548585 L541.916429,795.4455 C541.119925,795.140861 540.484614,794.780763 540.019891,794.362009 C539.310554,793.724334 539,792.966274 539,792.203564 C539,790.763213 539.371042,789.259954 540.096208,787.739491 C540.736726,786.397093 541.647768,785.074014 542.731559,783.909353 C543.789794,782.770073 544.988843,781.808773 546.199283,781.129941 C547.514986,780.392623 548.82558,780 549.998731,780 Z M552.605324,792.202182 C551.894725,792.202182 550.833913,792.804728 549.958566,793.745048 C549.180503,794.581504 548.672906,795.52624 548.534524,796.333699 L548.524952,796.39939 L548.56965,796.422949 C548.787099,796.528225 549.092814,796.633278 549.487065,796.727349 L549.691569,796.773419 C550.616704,796.967249 551.784036,797.065 552.971791,797.045861 C554.04254,797.029398 555.050736,796.917106 555.804305,796.731601 C555.999917,796.683734 556.172927,796.632433 556.317936,796.581348 L556.453411,796.53047 L556.687283,796.424872 L556.677228,796.348474 C556.550755,795.603565 556.103143,794.735753 555.412922,793.942744 L555.235358,793.746164 C554.355348,792.805824 553.298457,792.202182 552.605324,792.202182 Z M549.996193,782.751374 C548.397843,782.751374 546.254521,783.948966 544.45394,785.88486 C542.667925,787.809828 541.577435,790.069237 541.485986,791.952036 L541.481234,792.122789 L541.52581,792.176154 L541.627592,792.266253 L541.730285,792.343998 L541.88898,792.447156 L542.055453,792.542303 L542.380649,792.701475 L542.63734,792.809824 L542.926796,792.918503 L543.256891,793.02852 L543.431323,793.081718 L543.607167,793.132289 L544.005979,793.236725 L544.209509,793.285276 L544.662241,793.382941 L544.900232,793.429244 L545.140958,793.472867 L545.668806,793.558127 L546.089009,793.616913 L546.521574,793.669851 L546.843684,793.702626 L546.996641,793.427643 C547.277684,792.943813 547.613764,792.47506 547.998145,792.03158 L548.234516,791.768606 C549.581568,790.322014 551.204648,789.450808 552.607863,789.450808 C553.990618,789.450808 555.605138,790.321377 556.95729,791.764637 C557.144429,791.964351 557.321681,792.16985 557.488352,792.380181 L557.729344,792.697179 L557.758892,792.684026 C557.974434,792.579506 558.150445,792.474577 558.285572,792.373063 L558.379229,792.297629 L558.489363,792.197013 C558.50336,792.185373 558.5113,792.181879 558.515038,792.188535 L558.51687,792.203389 L558.511916,791.964069 C558.423025,790.088975 557.318593,787.82455 555.507019,785.889359 C553.690206,783.948986 551.560883,782.751374 549.996193,782.751374 Z" id="path-2"></path>
        <filter x="-209.1%" y="-333.3%" width="609.1%" height="665.7%" filterUnits="objectBoundingBox" id="filter-3">
            <feOffset dx="10" dy="-10" in="SourceAlpha" result="shadowOffsetOuter1"></feOffset>
            <feGaussianBlur stdDeviation="17" in="shadowOffsetOuter1" result="shadowBlurOuter1"></feGaussianBlur>
            <feColorMatrix values="0 0 0 0 0.0247206595   0 0 0 0 0.0614244116   0 0 0 0 0.3534024  0 0 0 0.5 0" type="matrix" in="shadowBlurOuter1"></feColorMatrix>
        </filter>
    </defs>
    <g id="页面-1" stroke="none" stroke-width="1" fill="none" fill-rule="evenodd">
        <g id="形状" transform="translate(-518.000000, -738.000000)">
            <use fill="black" fill-opacity="1" filter="url(#filter-3)" xlink:href="#path-2"></use>
            <use fill="url(#linearGradient-1)" fill-rule="evenodd" xlink:href="#path-2"></use>
        </g>
    </g>
</svg>