<?xml version="1.0" encoding="UTF-8"?>
<svg width="20px" height="18px" viewBox="0 0 20 18" version="1.1" xmlns="http://www.w3.org/2000/svg" xmlns:xlink="http://www.w3.org/1999/xlink">
    <!-- Generator: Sketch 60 (88103) - https://sketch.com -->
    <title>工号</title>
    <desc>Created with Sketch.</desc>
    <defs>
        <linearGradient x1="100%" y1="13.4425541%" x2="0%" y2="86.5574459%" id="linearGradient-1">
            <stop stop-color="#FFE951" offset="0%"></stop>
            <stop stop-color="#D19C00" offset="100%"></stop>
        </linearGradient>
    </defs>
    <g id="场区设备概览" stroke="none" stroke-width="1" fill="none" fill-rule="evenodd">
        <g id="单元状态监控备份-3" transform="translate(-350.000000, -611.000000)" fill="url(#linearGradient-1)" fill-rule="nonzero">
            <path d="M361.573194,611.004516 C362.035621,611.004516 362.411344,611.380238 362.411344,611.842666 C362.409032,611.925903 362.409032,611.925903 362.395159,612.006828 L362.017032,613.894516 L368.072616,613.894689 C369.10961,613.894689 369.951228,614.736308 369.951228,615.773302 L369.951228,626.177926 C369.951228,627.214921 369.10961,628.056539 368.072616,628.056539 L351.887645,628.056539 C350.850115,628.056539 350.009032,627.215455 350.009032,626.177926 L350.009032,615.773302 C350.009032,614.736308 350.85065,613.894689 351.887645,613.894689 L357.944032,613.894516 L357.566257,612.006828 C357.475512,611.553235 357.7694,611.111885 358.222905,611.020701 C358.303829,611.006828 358.303829,611.006828 358.387066,611.004516 L361.573194,611.004516 Z M368.072616,615.339776 L351.887645,615.339776 C351.648215,615.339776 351.454118,615.533872 351.454118,615.773302 L351.454118,626.177926 C351.454118,626.417233 351.648338,626.611452 351.887645,626.611452 L368.072616,626.611452 C368.312045,626.611452 368.506142,626.417356 368.506142,626.177926 L368.506142,615.773302 C368.506142,615.533872 368.312045,615.339776 368.072616,615.339776 Z M362.504986,618.351337 C363.254118,618.351337 363.85065,618.594111 364.287645,619.086597 C364.703829,619.551337 364.911922,620.168678 364.911922,620.931684 C364.911922,621.687753 364.703829,622.298158 364.287645,622.769834 C363.85065,623.255383 363.254118,623.498158 362.504986,623.498158 C361.748916,623.498158 361.152384,623.248447 360.722327,622.762897 C360.306142,622.291221 360.104986,621.680816 360.104986,620.931684 C360.104986,620.175614 360.306142,619.56521 360.722327,619.093533 C361.152384,618.594111 361.748916,618.351337 362.504986,618.351337 Z M356.019436,618.448447 L358.551228,622.131684 L358.578974,622.131684 L358.578974,618.448447 L359.335043,618.448447 L359.335043,623.401048 L358.599783,623.401048 L356.040246,619.676192 L356.0125,619.676192 L356.0125,623.401048 L355.256431,623.401048 L355.256431,618.448447 L356.019436,618.448447 Z M362.504986,619.017233 C361.977818,619.017233 361.568569,619.190643 361.27724,619.551337 C360.999783,619.891221 360.861055,620.349025 360.861055,620.931684 C360.861055,621.507406 360.999783,621.96521 361.27724,622.305094 C361.568569,622.651915 361.977818,622.832262 362.504986,622.832262 C363.032153,622.832262 363.441402,622.658851 363.725795,622.318967 C364.003251,621.986019 364.148916,621.521279 364.148916,620.931684 C364.148916,620.335152 364.003251,619.870412 363.725795,619.530527 C363.441402,619.183707 363.032153,619.017233 362.504986,619.017233 Z M360.833309,612.449603 L359.126951,612.449603 L359.415968,613.894689 L360.544292,613.894689 L360.833309,612.449603 Z" id="工号"></path>
        </g>
    </g>
</svg>