<?xml version="1.0" encoding="UTF-8"?>
<svg width="18px" height="19px" viewBox="0 0 18 19" version="1.1" xmlns="http://www.w3.org/2000/svg" xmlns:xlink="http://www.w3.org/1999/xlink">
    <!-- Generator: Sketch 60 (88103) - https://sketch.com -->
    <title>饲养员</title>
    <desc>Created with Sketch.</desc>
    <defs>
        <linearGradient x1="95.351474%" y1="0%" x2="4.64852601%" y2="97.9648813%" id="linearGradient-1">
            <stop stop-color="#00D0FF" offset="0%"></stop>
            <stop stop-color="#0098E7" offset="100%"></stop>
        </linearGradient>
    </defs>
    <g id="场区设备概览" stroke="none" stroke-width="1" fill="none" fill-rule="evenodd">
        <g id="单元状态监控备份-3" transform="translate(-351.000000, -540.000000)" fill="url(#linearGradient-1)" fill-rule="nonzero">
            <g id="编组" transform="translate(351.000000, 540.000000)">
                <path d="M13.4699888,9.87284966 C15.8726074,9.87298848 17.8488864,11.7653893 17.9531601,14.1657442 L17.9576477,14.3605086 L17.9576477,16.1555722 C17.9576477,17.5813531 16.8463432,18.7600341 15.423018,18.8436799 L15.2650523,18.8481675 L2.69960734,18.8481675 C1.27382638,18.8481675 0.0951454395,17.736863 0.0114996278,16.3135378 L0.00701196008,16.1555722 L0.00701196008,14.3605086 C0.00701196008,11.9578899 1.89955165,9.98161097 4.29990651,9.87733732 L4.4946709,9.87284966 L13.4699888,9.87284966 Z M13.4699888,11.6679132 L4.4946709,11.6679132 C3.06888995,11.6678338 1.89020901,12.7792178 1.80656319,14.202543 L1.80207554,14.3605086 L1.80207554,16.1555722 C1.80207554,16.6105982 2.14269525,16.9935832 2.59459611,17.0468212 L2.69960734,17.053104 L15.2650523,17.053104 C15.7200784,17.0530439 16.1030634,16.7124843 16.1563014,16.2605834 L16.1625841,16.1555722 L16.1625841,14.3605086 C16.1625841,12.8734292 14.9570681,11.6679132 13.4699888,11.6679132 L13.4699888,11.6679132 Z M11.6749252,13.4629768 C12.1706183,13.4629768 12.572457,13.8648155 12.572457,14.3605086 C12.572457,14.8562017 12.1706183,15.2580404 11.6749252,15.2580404 L6.28973449,15.2580404 C5.79404136,15.2580404 5.39220269,14.8562017 5.39220269,14.3605086 C5.39220269,13.8648155 5.79404136,13.4629768 6.28973449,13.4629768 L11.6749252,13.4629768 L11.6749252,13.4629768 Z M8.98232984,0 C11.4607954,0 13.4699888,2.00919335 13.4699888,4.48765894 C13.4699888,6.96612454 11.4607954,8.97531788 8.98232984,8.97531788 C6.50386425,8.97531788 4.4946709,6.96612454 4.4946709,4.48765894 C4.4946709,2.00919335 6.50386425,0 8.98232984,0 Z M8.98232984,1.79506358 C8.02035816,1.79506358 7.13145966,2.30826934 6.65047381,3.14136125 C6.16948797,3.97445316 6.16948797,5.00086473 6.65047381,5.83395664 C7.13145966,6.66704855 8.02035816,7.1802543 8.98232984,7.1802543 C10.4694092,7.1802543 11.6749252,5.97473829 11.6749252,4.48765894 C11.6749252,3.00057959 10.4694092,1.79506358 8.98232984,1.79506358 Z" id="饲养员"></path>
            </g>
        </g>
    </g>
</svg>