<?xml version="1.0" encoding="UTF-8"?>
<svg width="23px" height="22px" viewBox="0 0 23 22" version="1.1" xmlns="http://www.w3.org/2000/svg" xmlns:xlink="http://www.w3.org/1999/xlink">
    <!-- Generator: Sketch 60 (88103) - https://sketch.com -->
    <title>形状</title>
    <desc>Created with Sketch.</desc>
    <defs>
        <linearGradient x1="100%" y1="4.4299318%" x2="0%" y2="95.5700682%" id="linearGradient-1">
            <stop stop-color="#FF5C5C" offset="0%"></stop>
            <stop stop-color="#D73F3F" offset="100%"></stop>
        </linearGradient>
    </defs>
    <g id="场区设备概览" stroke="none" stroke-width="1" fill="none" fill-rule="evenodd">
        <path d="M3.318144,0.279144038 L5.89066555,2.66914668 C7.50505178,1.64257727 9.41953671,1.04751562 11.4705665,1.04751562 C13.5227606,1.04751562 15.4382549,1.64325312 17.0532166,2.67089551 L19.6229889,0.281705277 C19.8330105,0.0870511433 20.1147467,-0.0179596392 20.396483,0.00509150816 C20.6807804,0.0230201783 20.9471493,0.156204585 21.1289972,0.373909866 C22.5735358,2.08737849 23.1600594,3.67022394 22.8680782,5.08146641 C22.6705465,6.03303752 22.0884941,6.86206908 21.1344552,7.55811605 C21.6262769,8.76780253 21.8973688,10.0899574 21.8973688,11.4743179 C21.8973688,17.2242986 17.2205471,21.9011203 11.4705665,21.9011203 C5.7205858,21.9011203 1.04376412,17.2242986 1.04376412,11.4743179 C1.04376412,10.0899574 1.31485597,8.76780253 1.8067484,7.55814454 C0.852691866,6.86197367 0.27059543,6.03241909 0.0730546965,5.07890517 C-0.218926503,3.67022394 0.365035897,2.08481725 1.8121357,0.371348627 C1.99654488,0.153643347 2.26035246,0.0204589397 2.54464994,0.00253026957 C2.83150867,-0.0179596392 3.10812243,0.0870511433 3.318144,0.279144038 Z M11.4705665,3.13236383 C6.87058193,3.13236383 3.12861234,6.87433342 3.12861234,11.4743179 C3.12861234,16.0743025 6.87058193,19.8162721 11.4705665,19.8162721 C16.070551,19.8162721 19.8125206,16.0743025 19.8125206,11.4743179 C19.8125206,6.87433342 16.070551,3.13236383 11.4705665,3.13236383 Z M13.5554147,9.38690849 C15.8554069,9.38690849 17.7276723,11.2591739 17.7276723,13.5591662 C17.7276723,15.8591584 15.8554069,17.7314238 13.5554147,17.7314238 L9.38571823,17.7314238 C7.08572597,17.7314238 5.21346056,15.8591584 5.21346056,13.5591662 C5.21346056,11.2591739 7.08572597,9.38690849 9.38571823,9.38690849 L13.5554147,9.38690849 Z M13.5554147,11.4743179 L9.38571823,11.4743179 C8.2357221,11.4743179 7.30087002,12.40917 7.30087002,13.5591662 C7.30087002,14.7091623 8.2357221,15.6440144 9.38571823,15.6440144 L13.5554147,15.6440144 C14.7054108,15.6440144 15.6402629,14.7091623 15.6402629,13.5591662 C15.6402629,12.40917 14.7054108,11.4743179 13.5554147,11.4743179 Z M14.5978388,6.25963616 C15.1735537,6.25963616 15.6402629,6.72634533 15.6402629,7.30206027 C15.6402629,7.87777521 15.1735537,8.34448438 14.5978388,8.34448438 C14.0221238,8.34448438 13.5554147,7.87777521 13.5554147,7.30206027 C13.5554147,6.72634533 14.0221238,6.25963616 14.5978388,6.25963616 Z M8.34329413,6.25963616 C8.91900906,6.25963616 9.38571823,6.72634533 9.38571823,7.30206027 C9.38571823,7.87777521 8.91900906,8.34448438 8.34329413,8.34448438 C7.76757919,8.34448438 7.30087002,7.87777521 7.30087002,7.30206027 C7.30087002,6.72634533 7.76757919,6.25963616 8.34329413,6.25963616 Z M2.74442655,2.59706497 C2.2168114,3.40641636 2.00166736,4.10819574 2.11436186,4.6563008 C2.19004413,5.01838853 2.41877098,5.36414005 2.79854974,5.69056636 C3.21450033,5.06863067 3.69562141,4.49382628 4.23198752,3.97587871 L2.74442655,2.59706497 Z M20.1941451,2.59450373 L18.7093872,3.97611224 C19.2447857,4.49315846 19.7251334,5.06685857 20.1406725,5.68745479 C20.5200157,5.3612538 20.7485631,5.01565711 20.8242098,4.65373956 C20.9394655,4.10307326 20.7217603,3.40385513 20.1941451,2.59450373 Z" id="形状" fill="url(#linearGradient-1)" fill-rule="nonzero"></path>
    </g>
</svg>