<?xml version="1.0" encoding="UTF-8"?>
<svg width="20px" height="23px" viewBox="0 0 20 23" version="1.1" xmlns="http://www.w3.org/2000/svg" xmlns:xlink="http://www.w3.org/1999/xlink">
    <!-- Generator: Sketch 60 (88103) - https://sketch.com -->
    <title>形状</title>
    <desc>Created with Sketch.</desc>
    <defs>
        <linearGradient x1="86.9057584%" y1="0%" x2="13.0942416%" y2="100%" id="linearGradient-1">
            <stop stop-color="#FFE951" offset="0%"></stop>
            <stop stop-color="#D19C00" offset="100%"></stop>
        </linearGradient>
    </defs>
    <g id="楼房厂区概览" stroke="none" stroke-width="1" fill="none" fill-rule="evenodd">
        <g id="单元状态监控备份-2" transform="translate(-360.000000, -539.000000)" fill="url(#linearGradient-1)" fill-rule="nonzero">
            <g id="编组-87">
                <g id="编组-68" transform="translate(320.000000, 510.000000)">
                    <g id="编组-66" transform="translate(25.000000, 15.000000)">
                        <g id="编组-56">
                            <path d="M31.4113615,14.8499211 C32.8543846,14.8391273 34.0438173,15.9548113 34.1433945,17.3768794 L34.15,17.5422772 L34.15,33.4595342 C34.1354946,34.9025057 32.9989703,36.0720387 31.5777078,36.1465389 L31.4125,36.1503832 L18.5886385,36.1503832 C17.1456154,36.161177 15.9561827,35.045493 15.8566055,33.623425 L15.85,33.4580272 L15.85,17.5407701 C15.8645054,16.0977986 17.0010297,14.9282656 18.4233088,14.8537692 L18.5886385,14.8499211 L31.4113615,14.8499211 Z M31.4136285,16.7059424 L18.5863527,16.7059424 C18.1556405,16.702698 17.7974773,17.0217763 17.7412569,17.4366847 L17.7336175,17.5422772 L17.7336175,33.456526 C17.7379281,33.8872185 18.0632911,34.2396804 18.4812212,34.2885462 L18.5875,34.2943601 L31.4136285,34.2943601 C31.8442766,34.2975515 32.2023465,33.9784764 32.2585073,33.5636087 L32.2661323,33.4580272 L32.2661323,17.5437599 C32.2615207,17.0772454 31.880164,16.7024828 31.4136285,16.7059424 Z M22.0352618,23.407513 L22.2424609,23.4438777 L24.253,26.26 L24.3558293,26.2329267 C24.4495797,26.2108714 24.5443697,26.1936836 24.6398083,26.1814225 L24.7834037,26.1667332 L24.9999799,26.1586522 C26.1193688,26.1585025 27.1277045,26.8352845 27.5516377,27.8712922 C27.975571,28.9073 27.7309176,30.0968038 26.9325266,30.8814077 C26.1341355,31.6660115 24.9405509,31.8899094 23.9120842,31.4479955 C22.8836176,31.0060816 22.2245012,29.9861109 22.2441255,28.8691545 C22.2453932,28.3588518 22.391879,27.8610272 22.6642572,27.4330044 L22.725,27.345 L20.701666,24.5116793 L20.7386368,24.301013 L22.0352618,23.407513 Z M25.0026663,28.0146238 C24.815591,28.0140347 24.6363869,28.071156 24.4857966,28.1787678 C24.2607328,28.336387 24.1269364,28.5940769 24.1274869,28.8676409 C24.1322941,29.344428 24.5220686,29.727388 25.002879,29.7238048 C25.3121312,29.7297415 25.6004629,29.568141 25.756806,29.3012534 C25.9131492,29.0343659 25.9131081,28.7038362 25.7566985,28.4369875 C25.6002889,28.1701388 25.311917,28.0086102 25.0026663,28.0146238 Z M30.4044344,21.1808289 L30.6587739,21.3532331 L30.693717,21.5645525 L29.769842,22.8283025 L29.5626262,22.8625888 C26.8899164,20.9883046 23.3279557,21.0440017 20.720264,22.9710281 L20.4858812,23.1513659 L20.2770017,23.1304366 L19.2723767,21.9276866 L19.2937273,21.7144516 C22.5006256,19.1458571 26.986076,18.9431321 30.4044344,21.1808289 Z" id="形状"></path>
                        </g>
                    </g>
                </g>
            </g>
        </g>
    </g>
</svg>