<?xml version="1.0" encoding="UTF-8"?>
<svg width="24px" height="24px" viewBox="0 0 24 24" version="1.1" xmlns="http://www.w3.org/2000/svg" xmlns:xlink="http://www.w3.org/1999/xlink">
    <!-- Generator: Sketch 60 (88103) - https://sketch.com -->
    <title>形状</title>
    <desc>Created with Sketch.</desc>
    <defs>
        <linearGradient x1="100%" y1="0%" x2="0%" y2="97.9648813%" id="linearGradient-1">
            <stop stop-color="#00D0FF" offset="0%"></stop>
            <stop stop-color="#0098E7" offset="100%"></stop>
        </linearGradient>
    </defs>
    <g id="楼房厂区概览" stroke="none" stroke-width="1" fill="none" fill-rule="evenodd">
        <g id="单元状态监控备份-2" transform="translate(-358.000000, -438.000000)" fill="url(#linearGradient-1)" fill-rule="nonzero">
            <g id="编组-87">
                <g id="编组-60" transform="translate(320.000000, 410.000000)">
                    <g id="编组-52" transform="translate(25.000000, 15.000000)">
                        <g id="编组-51">
                            <path d="M25.0799999,13 L25.1508342,13.0094119 L25.2354226,13.0279783 L25.3086288,13.0512867 L25.4263415,13.1061009 L25.3941463,13.0856103 L25.4531042,13.1138807 L25.5257906,13.1584248 L36.5702084,20.3794865 C36.8374656,20.5549189 36.9971097,20.8491954 36.9971097,21.1677296 C36.9971097,21.4476853 36.8738428,21.7107818 36.6646089,21.8864994 L36.5697826,21.9562517 L32.4626252,24.6420548 C32.0267139,24.9271467 31.4435596,24.805301 31.1585697,24.3693224 C30.8954957,23.9668709 30.9790439,23.4389446 31.336364,23.1358388 L31.4313555,23.0649489 L34.3297561,21.1696088 L25.9414634,15.6840036 L25.9414634,21.0925254 L36.5730988,28.0437364 C36.7735417,28.1753108 36.9134522,28.3737349 36.9708797,28.5991051 L36.9926183,28.713851 L37,28.8319795 C37,29.1119353 36.8767332,29.3750317 36.6674797,29.5507622 L36.5726438,29.6205207 L25.5132613,36.8506837 C25.3580053,36.9487652 25.1797966,37 24.9985548,37 C24.8613445,37 24.7259366,36.9706324 24.6017452,36.9124393 L24.5324293,36.8765516 L13.4269012,29.6173316 C13.159644,29.4418991 13,29.1476227 13,28.8290885 C13,28.5491328 13.1232668,28.2860363 13.3325008,28.1103186 L13.427327,28.0405664 L17.5344844,25.3547633 C17.9703957,25.0696714 18.55355,25.191517 18.8385399,25.6274956 C19.1016139,26.0299471 19.0180658,26.5578734 18.6607456,26.8609792 L18.5657541,26.9318692 L15.6663415,28.8262335 L24.0546341,34.3089116 L24.0546341,28.9042927 L13.4269012,21.9559727 C13.2264583,21.8243984 13.0865478,21.6259743 13.0291203,21.400604 L13.0073817,21.2858581 L13,21.1677296 C13,20.8877738 13.1232668,20.6246774 13.3325137,20.4489513 L13.4273463,20.3791949 L24.5073171,13.135373 L24.6160145,13.0783159 C24.6491166,13.063738 24.6790378,13.0522067 24.7146123,13.041152 L24.8218189,13.0137911 L24.9093813,13.0012797 L25.0799999,13 Z M29.6956098,25.7975394 L29.7032566,25.8448587 C29.7299802,26.1429791 29.6134402,26.4449719 29.3752175,26.6470485 L29.2802222,26.7179409 L25.9414634,28.8984382 L25.9414634,34.3079358 L34.3297561,28.8262335 L29.6956098,25.7975394 Z M24.9980488,22.7278641 L21.7481395,24.8559946 C21.6810762,24.8998549 21.6105279,24.9340835 21.5381164,24.9590184 L21.4868293,24.9720641 L24.9980488,27.2679782 L28.2489702,25.1408234 C28.3160334,25.0969632 28.3865818,25.0627345 28.4589932,25.0377996 L28.5102439,25.0228025 L24.9980488,22.7278641 Z M24.0546341,15.6830278 L15.6663415,21.1676573 L20.3004878,24.1963515 L20.2938507,24.1519609 C20.2671223,23.8538436 20.3836483,23.55186 20.6218285,23.3498112 L20.7168064,23.2789301 L24.0546341,21.0954526 L24.0546341,15.6830278 Z" id="形状"></path>
                        </g>
                    </g>
                </g>
            </g>
        </g>
    </g>
</svg>