<?xml version="1.0" encoding="UTF-8"?>
<svg width="24px" height="21px" viewBox="0 0 24 21" version="1.1" xmlns="http://www.w3.org/2000/svg" xmlns:xlink="http://www.w3.org/1999/xlink">
    <!-- Generator: Sketch 60 (88103) - https://sketch.com -->
    <title>日龄</title>
    <desc>Created with Sketch.</desc>
    <defs>
        <linearGradient x1="100%" y1="11.71875%" x2="0%" y2="88.28125%" id="linearGradient-1">
            <stop stop-color="#00FFA6" offset="0%"></stop>
            <stop stop-color="#00BC72" offset="100%"></stop>
        </linearGradient>
    </defs>
    <g id="楼房厂区概览" stroke="none" stroke-width="1" fill="none" fill-rule="evenodd">
        <g id="单元状态监控备份-2" transform="translate(-358.000000, -339.000000)" fill="url(#linearGradient-1)" fill-rule="nonzero">
            <g id="编组-87">
                <g id="编组-48" transform="translate(320.000000, 310.000000)">
                    <g id="编组-47" transform="translate(25.000000, 15.000000)">
                        <g id="编组-62" transform="translate(13.000000, 14.000000)">
                            <path d="M16,0 C16.5522847,-1.01453063e-16 17,0.44771525 17,1 L17,3 L21,3 C22.5976809,3 23.9036609,4.24891996 23.9949073,5.82372721 L24,6 L24,18 C24,19.6568542 22.6568542,21 21,21 L21,21 L3,21 C1.34314575,21 0,19.6568542 0,18 L0,18 L0,6 C0,4.34314575 1.34314575,3 3,3 L3,3 L7,3 L7,1 C7,0.44771525 7.44771525,1.01453063e-16 8,0 C8.55228475,-1.01453063e-16 9,0.44771525 9,1 L9,3 L15,3 L15,1 C15,0.44771525 15.4477153,1.01453063e-16 16,0 Z M7,5 L3,5 C2.44771525,5 2,5.44771525 2,6 L2,6 L2,18 C2,18.5522847 2.44771525,19 3,19 L3,19 L21,19 C21.5522847,19 22,18.5522847 22,18 L22,18 L22,6 C22,5.44771525 21.5522847,5 21,5 L21,5 L17,5 L17,7 C17,7.55228475 16.5522847,8 16,8 C15.4477153,8 15,7.55228475 15,7 L15,5 L9,5 L9,7 C9,7.55228475 8.55228475,8 8,8 C7.44771525,8 7,7.55228475 7,7 L7,5 Z M8,14 L8,16 L4,16 L4,14 L8,14 Z M14,14 L14,16 L10,16 L10,14 L14,14 Z M20,14 L20,16 L16,16 L16,14 L20,14 Z M8,10 L8,12 L4,12 L4,10 L8,10 Z M14,10 L14,12 L10,12 L10,10 L14,10 Z M20,10 L20,12 L16,12 L16,10 L20,10 Z" id="日龄"></path>
                        </g>
                    </g>
                </g>
            </g>
        </g>
    </g>
</svg>