<?xml version="1.0" encoding="UTF-8"?>
<svg width="24px" height="24px" viewBox="0 0 24 24" version="1.1" xmlns="http://www.w3.org/2000/svg" xmlns:xlink="http://www.w3.org/1999/xlink">
    <!-- Generator: Sketch 60 (88103) - https://sketch.com -->
    <title>开启</title>
    <desc>Created with Sketch.</desc>
    <g id="场区设备概览" stroke="none" stroke-width="1" fill="none" fill-rule="evenodd">
        <g id="编组-97" fill="#50BF63" fill-rule="nonzero">
            <path d="M12,0 C18.627,0 24,5.3724 24,12 C24,18.627 18.627,24 12,24 C5.3724,24 0,18.627 0,12 C0,5.3724 5.3724,0 12,0 Z M12,1.5456 L11.7047162,1.55065931 L10.9721739,1.58275308 L10.9721739,7.01904783 L13.0278261,7.01904783 L13.0272,3.6756 L13.2584,3.70732809 L13.5387321,3.75451715 C17.4409288,4.47982282 20.3843478,7.90458657 20.3843478,11.9856 C20.3843478,16.6079205 16.6223205,20.3699478 12,20.3699478 C7.37767955,20.3699478 3.61565217,16.6079205 3.61565217,11.9856 C3.61565217,9.86090646 4.41360049,7.85942869 5.81988156,6.32554668 L6.07432509,6.05978564 L6.49844972,5.63552159 L5.04200719,4.17907905 L4.61774313,4.6032157 L4.35771279,4.87256053 C2.57397153,6.78711032 1.56,9.30645317 1.56,11.9856 C1.56,17.7514317 6.23416828,22.4256 12,22.4256 C17.7658317,22.4256 22.44,17.7514317 22.44,11.9856 C22.44,6.32460158 17.9342563,1.71593064 12.3133957,1.55021401 L12,1.5456 Z M6.4284,7.5822 C6.2172,7.746 6.1776,8.0496 6.3402,8.2614 L10.8168,12.8328 C10.8354,12.8562 10.8618,12.876 10.8828,12.8982 C11.1468,13.227 11.5464,13.4406 12,13.4406 C12.795,13.4406 13.44,12.7962 13.44,12.0006 C13.44,11.5776 13.2546,11.202 12.966,10.938 C12.9282,10.896 12.8934,10.8528 12.8382,10.8108 L10.2910179,9.4512 C8.95700725,8.72895 7.50215725,7.9218 7.0188,7.5822 C6.8496,7.4526 6.606,7.446 6.4284,7.5822 Z" id="开启"></path>
        </g>
    </g>
</svg>