<?xml version="1.0" encoding="UTF-8"?>
<svg width="16px" height="16px" viewBox="0 0 16 16" version="1.1" xmlns="http://www.w3.org/2000/svg" xmlns:xlink="http://www.w3.org/1999/xlink">
    <!-- Generator: Sketch 60 (88103) - https://sketch.com -->
    <title>设备状态</title>
    <desc>Created with Sketch.</desc>
    <g id="页面-1" stroke="none" stroke-width="1" fill="none" fill-rule="evenodd">
        <g id="画板备份" transform="translate(-214.000000, -27.000000)" fill="#10AEFF" fill-rule="nonzero">
            <path d="M219.420092,40.417249 C220.213692,40.7991526 221.103984,41.0132411 222.044496,41.0132411 C222.803603,41.0132411 223.529996,40.873774 224.199237,40.6191702 L224.77802,41.6019918 C224.891384,41.7943591 224.908881,42.0270571 224.825518,42.2336768 C224.741875,42.4399661 224.567032,42.5976068 224.350537,42.6619263 C223.592189,42.886399 222.801055,43 221.999727,43 C221.030534,43 220.084394,42.8352274 219.188649,42.5104583 C218.983703,42.4365503 218.822604,42.2773778 218.748654,42.0757271 C218.68684,41.9078258 218.69049,41.7247493 218.756501,41.5609774 L218.803567,41.4653067 L219.420092,40.417249 Z M229.25941,35.7276051 C229.481464,35.7274742 229.691812,35.8253451 229.832283,35.9941524 C229.973414,36.1628047 230.029551,36.3849287 229.985088,36.5987734 C229.620859,38.3702206 228.639038,39.9836045 227.220234,41.1432667 C227.087104,41.2521537 226.919238,41.3116797 226.745948,41.3114514 C226.702968,41.3114514 226.659177,41.3078119 226.616197,41.3005341 C226.436914,41.269156 226.277048,41.174289 226.165638,41.0359586 L226.104839,40.9479049 L225.504853,39.9287656 C226.875676,38.9727222 227.829257,37.4640641 228.039441,35.7275457 L229.25941,35.7276051 Z M216.049551,35.7275457 C216.238283,37.2868406 217.026419,38.6624113 218.177817,39.6191312 L217.565024,40.6617988 C217.45166,40.8541896 217.254889,40.9851317 217.030844,41.0172709 C216.806956,41.049612 216.580305,40.9795595 216.415686,40.8271399 C215.182356,39.6871503 214.35195,38.2252344 214.015061,36.6002517 C213.970375,36.3863137 214.026294,36.1640005 214.167287,35.9950621 C214.284369,35.8540197 214.450167,35.7623288 214.630896,35.7357365 L214.740856,35.7277189 L216.049551,35.7275457 Z M222.044496,31.9942457 C223.712018,31.9942457 225.063812,33.3402263 225.063812,35.0005775 C225.063812,36.6609287 223.712018,38.0069093 222.044496,38.0069093 C220.376973,38.0069093 219.025179,36.6609287 219.025179,35.0005775 C219.025179,33.3402263 220.376973,31.9942457 222.044496,31.9942457 Z M222.044496,32.9963563 C220.932814,32.9963563 220.031618,33.8936767 220.031618,35.0005775 C220.031618,36.1074783 220.932814,37.0047987 222.044496,37.0047987 C223.156177,37.0047987 224.057373,36.1074783 224.057373,35.0005775 C224.057373,33.8936767 223.156177,32.9963563 222.044496,32.9963563 Z M216.923336,28.9756762 C216.959344,28.9755352 216.995314,28.9779676 217.03096,28.9829603 C217.217641,29.0102044 217.385306,29.1057885 217.501708,29.2482119 L217.56514,29.3391146 L218.177817,30.3820239 C217.026484,31.3386903 216.238371,32.7141605 216.049582,34.2733476 L214.74074,34.2731945 C214.51833,34.2731945 214.307701,34.1750629 214.167171,34.0058513 C214.026291,33.8368139 213.970425,33.6145028 214.015061,33.4005481 C214.35195,31.7754516 215.182356,30.3136494 216.415802,29.1737735 C216.553778,29.045617 216.736356,28.9756762 216.923336,28.9756762 Z M226.745948,28.688553 C226.91933,28.688553 227.087191,28.7484017 227.220234,28.857533 C228.639038,30.0163993 229.620859,31.6304654 229.985088,33.4021401 C230.029517,33.615984 229.973384,33.8380937 229.832283,34.006761 C229.715068,34.147238 229.54954,34.2385778 229.369156,34.2652148 L229.25941,34.2733082 L228.039409,34.2733476 C227.829162,32.5369393 226.875607,31.0283848 225.504853,30.0723895 L226.104839,29.0527811 C226.213987,28.8670024 226.401122,28.7379968 226.616197,28.7002656 C226.659177,28.6929878 226.702968,28.688553 226.745948,28.688553 Z M221.999727,27.0000018 C222.795991,26.9994701 223.588027,27.113604 224.350537,27.3387597 C224.567169,27.4029097 224.742091,27.5606636 224.825518,27.7671229 C224.895026,27.939226 224.894489,28.1294615 224.826791,28.2993771 L224.778136,28.3985805 L224.199237,29.3819849 C223.529996,29.1273811 222.803603,28.987914 222.044496,28.987914 C221.103984,28.987914 220.213692,29.2020025 219.420092,29.583906 L218.803567,28.5356067 C218.694567,28.3498516 218.674497,28.1263878 218.748706,27.9247787 C218.822916,27.7231695 218.983863,27.5639033 219.188649,27.4894317 C220.084394,27.1646626 221.030534,27.0000018 221.999727,27.0000018 Z" id="设备状态"></path>
        </g>
    </g>
</svg>