<?xml version="1.0" encoding="UTF-8"?>
<svg width="12px" height="16px" viewBox="0 0 12 16" version="1.1" xmlns="http://www.w3.org/2000/svg" xmlns:xlink="http://www.w3.org/1999/xlink">
    <!-- Generator: Sketch 60 (88103) - https://sketch.com -->
    <title>单元基础信息</title>
    <desc>Created with Sketch.</desc>
    <g id="页面-1" stroke="none" stroke-width="1" fill="none" fill-rule="evenodd">
        <g id="画板备份" transform="translate(-115.000000, -27.000000)" fill="#10AEFF" fill-rule="nonzero">
            <path d="M121.545455,28.1428571 L116.636364,28.1428571 C116.309091,28.1428571 116.090909,28.3714286 116.090909,28.7142857 L116.090909,41.2857143 C116.090909,41.6285714 116.309091,41.8571429 116.636364,41.8571429 L125.363636,41.8571429 C125.690909,41.8571429 125.909091,41.6285714 125.909091,41.2857143 L125.909091,32.7142857 L122.636364,32.7142857 C122.036364,32.7142857 121.545455,32.2 121.545455,31.5714286 L121.545455,28.1428571 Z M122.636364,28.3714286 L122.636364,31.5714286 L125.690909,31.5714286 L122.636364,28.3714286 Z M116.636364,27 L122.636364,27 C122.8,27 122.909091,27.0571429 123.018182,27.1714286 L126.836364,31.1714286 C126.945455,31.2857143 127,31.4 127,31.5714286 L127,41.2857143 C127,42.2571429 126.290909,43 125.363636,43 L116.636364,43 C115.709091,43 115,42.2571429 115,41.2857143 L115,28.7142857 C115,27.7428571 115.709091,27 116.636364,27 Z M117.727273,33.2857143 L120.454545,33.2857143 C120.781818,33.2857143 121,33.5142857 121,33.8571429 C121,34.2 120.781818,34.4285714 120.454545,34.4285714 L117.727273,34.4285714 C117.4,34.4285714 117.181818,34.2 117.181818,33.8571429 C117.181818,33.5142857 117.4,33.2857143 117.727273,33.2857143 Z M117.727273,35.5714286 L124.272727,35.5714286 C124.6,35.5714286 124.818182,35.8 124.818182,36.1428571 C124.818182,36.4857143 124.6,36.7142857 124.272727,36.7142857 L117.727273,36.7142857 C117.4,36.7142857 117.181818,36.4857143 117.181818,36.1428571 C117.181818,35.8 117.4,35.5714286 117.727273,35.5714286 Z M117.727273,37.8571429 L124.272727,37.8571429 C124.6,37.8571429 124.818182,38.0857143 124.818182,38.4285714 C124.818182,38.7714286 124.6,39 124.272727,39 L117.727273,39 C117.4,39 117.181818,38.7714286 117.181818,38.4285714 C117.181818,38.0857143 117.4,37.8571429 117.727273,37.8571429 Z" id="单元基础信息"></path>
        </g>
    </g>
</svg>