<?xml version="1.0" encoding="UTF-8"?>
<svg width="22px" height="16px" viewBox="0 0 22 16" version="1.1" xmlns="http://www.w3.org/2000/svg" xmlns:xlink="http://www.w3.org/1999/xlink">
    <!-- Generator: Sketch 60 (88103) - https://sketch.com -->
    <title>天气状况</title>
    <desc>Created with Sketch.</desc>
    <g id="页面-1" stroke="none" stroke-width="1" fill="none" fill-rule="evenodd">
        <g id="画板备份" transform="translate(-162.000000, -27.000000)" fill="#10AEFF" fill-rule="nonzero">
            <path d="M179.391426,32.403286 C178.954442,29.1541167 176.018083,26.7960372 172.68137,27.0139566 C169.344657,27.2325021 166.754029,29.9523194 166.761526,33.2292505 C164.0096,33.3515692 161.879947,35.6370089 162.005258,38.3336567 C162.129285,41.0307218 164.461792,43.1168196 167.213718,42.9949184 L178.539736,42.9949184 C181.385699,43.0072337 183.759335,40.8664474 183.982968,38.0860969 C184.206601,35.3065814 182.203973,32.8278531 179.391426,32.403286 Z M181.787982,39.3938218 C181.125223,40.5172337 179.899527,41.209399 178.573152,41.209399 L167.650702,41.209399 L167.651345,41.2100252 C167.550025,41.1931177 167.44592,41.1931177 167.344599,41.2100252 L166.982803,41.2100252 C165.189027,41.2100252 163.734985,39.7864524 163.734985,38.0318258 C163.734985,36.276573 165.189027,34.8536264 166.983017,34.8536264 C168.77315,34.8586361 170.222051,36.2803303 170.222051,38.0318258 C170.223551,38.3589136 170.400701,38.6599095 170.685168,38.8183394 C170.973492,38.9807352 171.325007,38.9807352 171.61333,38.8183394 C171.900583,38.6559435 172.07709,38.3557826 172.07709,38.0318258 C172.073448,35.7996135 170.559214,33.8404266 168.365299,33.2286243 L168.365299,33.0378405 C168.365299,30.5305154 170.442685,28.4978538 173.005252,28.4978538 C175.567819,28.4978538 177.644562,30.5305154 177.644562,33.0378405 C177.645205,33.2799731 177.743312,33.511669 177.91682,33.6797007 C178.090362,33.8499861 178.326443,33.9457777 178.572724,33.9458378 C179.899098,33.9452116 181.123938,34.6373769 181.787553,35.761415 C182.451169,36.8806522 182.451169,38.2747934 181.787982,39.3938218 Z" id="天气状况"></path>
        </g>
    </g>
</svg>