<?xml version="1.0" encoding="UTF-8"?>
<svg width="26px" height="26px" viewBox="0 0 26 26" version="1.1" xmlns="http://www.w3.org/2000/svg" xmlns:xlink="http://www.w3.org/1999/xlink">
    <!-- Generator: Sketch 60 (88103) - https://sketch.com -->
    <title>形状</title>
    <desc>Created with Sketch.</desc>
    <defs>
        <filter x="-80.0%" y="-80.0%" width="260.0%" height="260.0%" filterUnits="objectBoundingBox" id="filter-1">
            <feOffset dx="0" dy="1" in="SourceAlpha" result="shadowOffsetOuter1"></feOffset>
            <feGaussianBlur stdDeviation="3.5" in="shadowOffsetOuter1" result="shadowBlurOuter1"></feGaussianBlur>
            <feColorMatrix values="0 0 0 0 0.0645847799   0 0 0 0 0.0912565722   0 0 0 0 0.20238904  0 0 0 0.547557911 0" type="matrix" in="shadowBlurOuter1" result="shadowMatrixOuter1"></feColorMatrix>
            <feMerge>
                <feMergeNode in="shadowMatrixOuter1"></feMergeNode>
                <feMergeNode in="SourceGraphic"></feMergeNode>
            </feMerge>
        </filter>
    </defs>
    <g id="场区设备概览" stroke="none" stroke-width="1" fill="none" fill-rule="evenodd">
        <g id="单元状态监控" transform="translate(-866.000000, -644.000000)" fill="#67A8C9" fill-rule="nonzero">
            <g id="编组-90备份-3" transform="translate(869.000000, 646.000000)">
                <g id="编组-50" filter="url(#filter-1)">
                    <path d="M10,8.46948361 C10.3037566,8.46948361 10.5547928,8.69555996 10.5945227,8.98887871 L10.6,9.07042257 L10.6,11.1361503 L15.25,11.1361503 C15.632351,11.1361503 15.9478765,11.4227119 15.9941564,11.7930983 L16,11.887324 L16,15.2488263 C16,15.6317756 15.7138861,15.9477949 15.3440784,15.9941473 L15.25,16 L4.74999999,16 C4.36764902,16 4.05212352,15.7134384 4.00584356,15.3430519 L4,15.2488263 L4,11.887324 C4,11.5043746 4.28611389,11.1883554 4.65592159,11.142003 L4.74999999,11.1361503 L9.4,11.1361503 L9.4,9.07042257 C9.4,8.73853315 9.66862915,8.46948361 10,8.46948361 Z M5.84987499,12.9671362 C5.51850414,12.9671362 5.249875,13.2361857 5.249875,13.5680751 C5.249875,13.8999646 5.51850415,14.1690141 5.849875,14.1690141 C6.00900489,14.1690141 6.16161724,14.1057011 6.27413907,13.9930032 C6.3866609,13.8803052 6.449875,13.7274541 6.449875,13.5680751 C6.449875,13.2361857 6.18124584,12.9671362 5.84987499,12.9671362 Z M7.66825,12.9671362 C7.33687916,12.9671362 7.06825001,13.2361857 7.06825001,13.5680751 C7.06825001,13.8999646 7.33687915,14.1690141 7.66824999,14.1690141 C7.82737989,14.1690141 7.97999224,14.1057011 8.09251407,13.9930032 C8.2050359,13.8803052 8.26825,13.7274541 8.26825,13.5680751 C8.26825,13.2361857 7.99962085,12.9671362 7.66825,12.9671362 Z M9.98125,5.84037564 C11.4309975,5.84037564 12.60625,7.01746737 12.60625,8.46948361 C12.60625,8.80137303 12.3376208,9.0704226 12.00625,9.0704226 C11.8471201,9.0704226 11.6945078,9.00710954 11.5819859,8.89441163 C11.4694641,8.78171371 11.40625,8.62886253 11.40625,8.46948361 C11.40625,7.68124624 10.7682558,7.0422536 9.98125,7.0422536 C9.19424425,7.0422536 8.55625002,7.68124624 8.55625,8.46948361 C8.55625001,8.68417843 8.44189066,8.88256463 8.25625001,8.98991204 C8.07060936,9.09725945 7.84189064,9.09725945 7.65624999,8.98991204 C7.47060934,8.88256463 7.35624999,8.68417843 7.35624999,8.46948361 C7.35624999,7.01746737 8.53150253,5.84037564 9.98125,5.84037564 Z M12.2125,4.59879726 C13.5932023,5.39719362 14.44375,6.87269092 14.44375,8.46948361 C14.44375,8.80137303 14.1751209,9.07042257 13.84375,9.07042257 C13.6846201,9.07042257 13.5320078,9.00710954 13.4194859,8.89441163 C13.3069641,8.78171371 13.24375,8.62886253 13.24375,8.46948361 C13.24375,7.30208055 12.621921,6.22335563 11.6125,5.63965409 C10.603079,5.05595256 9.35942101,5.05595256 8.34999999,5.63965409 C7.34057897,6.22335563 6.71874998,7.30208055 6.71875,8.46948361 C6.71875,8.80137303 6.45012085,9.07042257 6.11875,9.07042257 C5.78737915,9.07042257 5.51875,8.80137303 5.51875,8.46948361 C5.51875,6.87269092 6.36929767,5.39719362 7.74999998,4.59879726 C9.1307023,3.80040091 10.8317977,3.80040091 12.2125,4.59879726 Z" id="形状"></path>
                </g>
            </g>
        </g>
    </g>
</svg>