<?xml version="1.0" encoding="UTF-8"?>
<svg width="14px" height="14px" viewBox="0 0 14 14" version="1.1" xmlns="http://www.w3.org/2000/svg" xmlns:xlink="http://www.w3.org/1999/xlink">
    <title>sensing-on</title>
    <g id="页面-1" stroke="none" stroke-width="1" fill="none" fill-rule="evenodd">
        <g id="智能电力" transform="translate(-642.000000, -2233.000000)" fill="#67A8C9" fill-rule="nonzero">
            <g id="sensing-on" transform="translate(642.000000, 2233.000000)">
                <path d="M7,5.21439755 C7.3543827,5.21439755 7.64725827,5.47815329 7.69360982,5.8203585 L7.7,5.915493 L7.7,8.32550868 L13.125,8.32550868 C13.5710762,8.32550868 13.9391892,8.65983055 13.9931825,9.09194802 L14,9.201878 L14,13.1236307 C14,13.5704049 13.6662004,13.9390941 13.2347581,13.9931719 L13.125,14 L0.874999988,14 C0.428923857,14 0.0608107733,13.6656781 0.00681748667,13.2335606 L0,13.1236307 L0,9.201878 C0,8.7551037 0.333799538,8.38641463 0.765241855,8.33233683 L0.874999988,8.32550868 L6.3,8.32550868 L6.3,5.915493 C6.3,5.52828868 6.61340067,5.21439755 7,5.21439755 Z M2.15818749,10.4616589 C1.77158816,10.4616589 1.4581875,10.77555 1.4581875,11.1627543 C1.4581875,11.5499587 1.77158817,11.8638498 2.1581875,11.8638498 C2.34383904,11.8638498 2.52188678,11.7899846 2.65316225,11.6585037 C2.78443772,11.5270227 2.8581875,11.3486965 2.8581875,11.1627543 C2.8581875,10.77555 2.54478681,10.4616589 2.15818749,10.4616589 Z M4.279625,10.4616589 C3.89302569,10.4616589 3.57962501,10.77555 3.57962501,11.1627543 C3.57962501,11.5499587 3.89302567,11.8638498 4.27962499,11.8638498 C4.46527654,11.8638498 4.64332428,11.7899846 4.77459975,11.6585037 C4.90587522,11.5270227 4.979625,11.3486965 4.979625,11.1627543 C4.979625,10.77555 4.66622432,10.4616589 4.279625,10.4616589 Z M6.978125,2.14710492 C8.66949708,2.14710492 10.040625,3.5203786 10.040625,5.21439755 C10.040625,5.60160187 9.72722427,5.91549304 9.340625,5.91549304 C9.15497345,5.91549304 8.97692577,5.8416278 8.84565022,5.7101469 C8.71437478,5.578666 8.640625,5.40033962 8.640625,5.21439755 C8.640625,4.29478728 7.89629843,3.54929587 6.978125,3.54929587 C6.05995163,3.54929587 5.31562502,4.29478728 5.315625,5.21439755 C5.31562501,5.46487484 5.18220577,5.6963254 4.96562501,5.82156405 C4.74904425,5.94680269 4.48220575,5.94680269 4.26562499,5.82156405 C4.04904423,5.6963254 3.91562499,5.46487484 3.91562499,5.21439755 C3.91562499,3.5203786 5.28675295,2.14710492 6.978125,2.14710492 Z M9.58125,0.698596806 C11.1920693,1.63005923 12.184375,3.35147274 12.184375,5.21439755 C12.184375,5.60160187 11.8709744,5.915493 11.484375,5.915493 C11.2987234,5.915493 11.1206758,5.8416278 10.9894002,5.7101469 C10.8581248,5.578666 10.784375,5.40033962 10.784375,5.21439755 C10.784375,3.85242731 10.0589078,2.5939149 8.88125,1.91292977 C7.70359217,1.23194466 6.25265784,1.23194466 5.07499999,1.91292977 C3.89734213,2.5939149 3.17187498,3.85242731 3.171875,5.21439755 C3.171875,5.60160187 2.85847432,5.915493 2.471875,5.915493 C2.08527567,5.915493 1.771875,5.60160187 1.771875,5.21439755 C1.771875,3.35147274 2.76418061,1.63005923 4.37499998,0.698596806 C5.98581935,-0.232865602 7.97043065,-0.232865602 9.58125,0.698596806 Z" id="形状"></path>
            </g>
        </g>
    </g>
</svg>