<?xml version="1.0" encoding="UTF-8"?>
<svg width="12px" height="12px" viewBox="0 0 12 12" version="1.1" xmlns="http://www.w3.org/2000/svg" xmlns:xlink="http://www.w3.org/1999/xlink">
    <!-- Generator: Sketch 60 (88103) - https://sketch.com -->
    <title>温湿度传感器</title>
    <desc>Created with Sketch.</desc>
    <g id="场区设备概览" stroke="none" stroke-width="1" fill="none" fill-rule="evenodd">
        <path d="M6,4.46948361 C6.30375661,4.46948361 6.55479277,4.69555996 6.59452271,4.98887871 L6.6,5.07042257 L6.6,7.13615027 L11.25,7.13615027 C11.632351,7.13615027 11.9478765,7.4227119 11.9941564,7.79309833 L12,7.88732397 L12,11.2488263 C12,11.6317756 11.7138861,11.9477949 11.3440784,11.9941473 L11.25,12 L0.749999995,12 C0.367649017,12 0.0521235174,11.7134384 0.00584356471,11.3430519 L0,11.2488263 L0,7.88732397 C0,7.50437463 0.286113886,7.18835535 0.655921589,7.14200298 L0.749999995,7.13615027 L5.4,7.13615027 L5.4,5.07042257 C5.4,4.73853315 5.66862915,4.46948361 6,4.46948361 Z M1.84987499,8.96713618 C1.51850414,8.96713618 1.249875,9.23618572 1.249875,9.56807514 C1.249875,9.89996457 1.51850415,10.1690141 1.849875,10.1690141 C2.00900489,10.1690141 2.16161724,10.1057011 2.27413907,9.99300315 C2.3866609,9.88030523 2.449875,9.72745405 2.449875,9.56807513 C2.449875,9.2361857 2.18124584,8.96713618 1.84987499,8.96713618 Z M3.66825,8.96713618 C3.33687916,8.96713618 3.06825001,9.23618571 3.06825001,9.56807514 C3.06825001,9.89996456 3.33687915,10.1690141 3.66824999,10.1690141 C3.82737989,10.1690141 3.97999224,10.1057011 4.09251407,9.99300316 C4.2050359,9.88030524 4.26825,9.72745405 4.26825,9.56807513 C4.26825,9.23618571 3.99962085,8.96713618 3.66825,8.96713618 Z M5.98125,1.84037564 C7.43099747,1.84037564 8.60625,3.01746737 8.60625,4.46948361 C8.60625,4.80137303 8.33762085,5.0704226 8.00625,5.0704226 C7.84712011,5.0704226 7.69450776,5.00710954 7.58198593,4.89441163 C7.4694641,4.78171371 7.40625,4.62886253 7.40625,4.46948361 C7.40624998,3.68124624 6.76825576,3.0422536 5.98125,3.0422536 C5.19424425,3.0422536 4.55625002,3.68124624 4.55625,4.46948361 C4.55625001,4.68417843 4.44189066,4.88256463 4.25625001,4.98991204 C4.07060936,5.09725945 3.84189064,5.09725945 3.65624999,4.98991204 C3.47060934,4.88256463 3.35624999,4.68417843 3.35624999,4.46948361 C3.35624999,3.01746737 4.53150253,1.84037564 5.98125,1.84037564 Z M8.21250002,0.598797264 C9.59320234,1.39719362 10.44375,2.87269092 10.44375,4.46948361 C10.44375,4.80137303 10.1751209,5.07042257 9.84375,5.07042257 C9.68462011,5.07042257 9.53200776,5.00710954 9.41948594,4.89441163 C9.30696411,4.78171371 9.24375001,4.62886253 9.24375001,4.46948361 C9.24375002,3.30208055 8.62192104,2.22335563 7.61250002,1.63965409 C6.603079,1.05595256 5.35942101,1.05595256 4.34999999,1.63965409 C3.34057897,2.22335563 2.71874998,3.30208055 2.71875,4.46948361 C2.71875,4.80137303 2.45012085,5.07042257 2.11875,5.07042257 C1.78737915,5.07042257 1.51875,4.80137303 1.51875,4.46948361 C1.51875,2.87269092 2.36929767,1.39719362 3.74999998,0.598797264 C5.1307023,-0.199599088 6.83179771,-0.199599088 8.21250002,0.598797264 Z" id="温湿度传感器" fill="#FFFFFF" fill-rule="nonzero"></path>
    </g>
</svg>