<?xml version="1.0" encoding="UTF-8"?>
<svg width="70px" height="50px" viewBox="0 0 70 50" version="1.1" xmlns="http://www.w3.org/2000/svg" xmlns:xlink="http://www.w3.org/1999/xlink">
    <title>编组</title>
    <g id="页面-1" stroke="none" stroke-width="1" fill="none" fill-rule="evenodd">
        <g id="首页" transform="translate(-415.000000, -144.000000)" fill="#FFFFFF" fill-rule="nonzero">
            <g id="编组" transform="translate(415.000000, 144.000000)">
                <path d="M38.8141643,46.0666992 C37.789385,45.0255567 36.3976945,44.4417101 34.9472381,44.4444241 C33.4354368,44.4444241 32.0661312,45.0666992 31.0748239,46.0722656 L34.9472381,50 L38.8141643,46.0666992 L38.8141643,46.0666992 Z M34.9472381,5.55556641 C46.5653395,5.54796833 57.7077781,10.2351632 65.9103763,18.5805664 L69.8075347,14.6472656 C60.5725413,5.25339951 48.0260837,-0.0182217987 34.9470456,-4.70821199e-05 C21.3332279,-4.70821199e-05 9.01207636,5.59726562 0.0895411532,14.6445313 L3.97832306,18.5888672 C12.1802532,10.2379842 23.3255893,5.54742851 34.9470456,5.55556641 M34.9470456,20.8333008 C42.5716428,20.8287258 49.88407,23.9044486 55.2678807,29.3805664 L59.1622469,25.4555664 C52.7484624,18.9282319 44.0328916,15.2650323 34.9471418,15.2777986 C25.8654655,15.2653473 17.1535189,18.9252742 10.7402206,25.4472656 L14.6235145,29.3861328 C20.00592,23.9054925 27.3203794,20.8273693 34.9471418,20.8333984 M34.9471418,36.1111328 C38.7182686,36.1111328 42.1388369,37.6666992 44.6172975,40.175 L48.5061757,36.2555664 C44.9154038,32.5996505 40.0349174,30.5479724 34.9471418,30.5555454 C29.8615726,30.5496913 24.9831967,32.5988868 21.3908038,36.25 L25.268706,40.1833008 C27.8329188,37.5749681 31.3155734,36.1096183 34.9471418,36.1110352" id="形状"></path>
            </g>
        </g>
    </g>
</svg>