<?xml version="1.0" encoding="UTF-8"?>
<svg width="50px" height="35px" viewBox="0 0 50 35" version="1.1" xmlns="http://www.w3.org/2000/svg" xmlns:xlink="http://www.w3.org/1999/xlink">
    <title>编组备份</title>
    <g id="页面-1" stroke="none" stroke-width="1" fill="none" fill-rule="evenodd">
        <g id="首页" transform="translate(-550.000000, -159.000000)" fill="#FFFFFF" fill-rule="nonzero">
            <g id="编组备份" transform="translate(550.000000, 159.000000)">
                <path d="M28.8141643,31.0666992 C27.789385,30.0255567 26.3976945,29.4417101 24.9472381,29.4444241 C23.4354368,29.4444241 22.0661312,30.0666992 21.0748239,31.0722656 L24.9472381,35 L28.8141643,31.0666992 L28.8141643,31.0666992 Z M24.9470456,5.83330078 C32.5716428,5.82872575 39.88407,8.90444861 45.2678807,14.3805664 L49.1622469,10.4555664 C42.7484624,3.92823194 34.0328916,0.265032269 24.9471418,0.277798601 C15.8654655,0.265347271 7.15351886,3.92527419 0.740220621,10.4472656 L4.62351452,14.3861328 C10.00592,8.90549254 17.3203794,5.82736935 24.9471418,5.83339844 M24.9471418,21.1111328 C28.7182686,21.1111328 32.1388369,22.6666992 34.6172975,25.175 L38.5061757,21.2555664 C34.9154038,17.5996505 30.0349174,15.5479724 24.9471418,15.5555454 C19.8615726,15.5496913 14.9831967,17.5988868 11.3908038,21.25 L15.268706,25.1833008 C17.8329188,22.5749681 21.3155734,21.1096183 24.9471418,21.1110352" id="形状"></path>
            </g>
        </g>
    </g>
</svg>