<?xml version="1.0" encoding="UTF-8"?>
<svg width="16px" height="11px" viewBox="0 0 16 11" version="1.1" xmlns="http://www.w3.org/2000/svg" xmlns:xlink="http://www.w3.org/1999/xlink">
    <title>76-100</title>
    <g id="场区设备概览" stroke="none" stroke-width="1" fill="none" fill-rule="evenodd">
        <g id="画板" transform="translate(-19.000000, -28.000000)" fill="#FFFFFF" fill-rule="nonzero">
            <path d="M29,26 L29,27.5 L32,27.5 L32,40.5 L22,40.5 L22,27.5 L25,27.5 L25,26 L29,26 Z M30.5,29 L23.5,29 L23.5,39 L30.5,39 L30.5,29 Z M30,36.75 L30,38.25 L24,38.25 L24,36.75 L30,36.75 Z M30,34.416667 L30,35.916667 L24,35.916667 L24,34.416667 L30,34.416667 Z M30,32.083333 L30,33.583333 L24,33.583333 L24,32.083333 L30,32.083333 Z M30,29.75 L30,31.25 L24,31.25 L24,29.75 L30,29.75 Z" id="76-100" transform="translate(27.000000, 33.250000) rotate(-270.000000) translate(-27.000000, -33.250000) "></path>
        </g>
    </g>
</svg>