<?xml version="1.0" encoding="UTF-8"?>
<svg width="13px" height="12px" viewBox="0 0 13 12" version="1.1" xmlns="http://www.w3.org/2000/svg" xmlns:xlink="http://www.w3.org/1999/xlink">
    <!-- Generator: Sketch 60 (88103) - https://sketch.com -->
    <title>电池电压</title>
    <desc>Created with Sketch.</desc>
    <g id="场区设备概览" stroke="none" stroke-width="1" fill="none" fill-rule="evenodd">
        <path d="M6.75,0 C10.0634055,0 12.75,2.68659452 12.75,6 C12.75,9.31340548 10.0634055,12 6.75,12 C3.43659452,12 0.75,9.31340548 0.75,6 C0.75,2.68659452 3.43659452,0 6.75,0 Z M6.75,1.2 C4.10411977,1.2 1.95,3.35411977 1.95,6 C1.95,8.64588023 4.10411977,10.8 6.75,10.8 C9.39588023,10.8 11.55,8.64588023 11.55,6 C11.55,3.35411977 9.39588023,1.2 6.75,1.2 Z M8.43672296,4.01342635 L8.52168541,4.06025285 L8.59864489,4.12100379 C8.78741291,4.2965581 8.84329592,4.57439736 8.73684817,4.80741885 L8.6892635,4.89241376 L7.2492635,7.05241376 C7.13670112,7.22125732 6.94856419,7.32 6.75,7.32 C6.63102996,7.32 6.51494287,7.28556268 6.41758624,7.2192635 C6.16902143,7.05355363 6.08339083,6.73472549 6.2031511,6.47258067 L6.2507365,6.38758624 L7.6907365,4.22758624 C7.8558305,3.97994524 8.17466159,3.89557598 8.43672296,4.01342635 Z M11.31,5.4 L11.31,6.6 L10.11,6.6 L10.11,5.4 L11.31,5.4 Z M3.39,5.4 L3.39,6.6 L2.19,6.6 L2.19,5.4 L3.39,5.4 Z M3.950115,2.35134232 L4.79862625,3.19985357 L3.950115,4.04838626 L3.10158232,3.19985357 L3.950115,2.35134232 Z M9.55031357,2.35125232 L10.3988248,3.19976357 L9.55031357,4.04829626 L8.70178089,3.19976357 L9.55031357,2.35125232 Z M7.35,1.44 L7.35,2.64 L6.15,2.64 L6.15,1.44 L7.35,1.44 Z" id="电池电压" fill="#FFFFFF" fill-rule="nonzero"></path>
    </g>
</svg>