<?xml version="1.0" encoding="UTF-8"?>
<svg width="13px" height="12px" viewBox="0 0 13 12" version="1.1" xmlns="http://www.w3.org/2000/svg" xmlns:xlink="http://www.w3.org/1999/xlink">
    <!-- Generator: Sketch 60 (88103) - https://sketch.com -->
    <title>风力</title>
    <desc>Created with Sketch.</desc>
    <g id="楼房厂区概览" stroke="none" stroke-width="1" fill="none" fill-rule="evenodd">
        <g id="单元状态监控备份-2" transform="translate(-1226.000000, -550.000000)" fill="#FFBF35" fill-rule="nonzero">
            <g id="编组-87">
                <g id="编组-83备份-2" transform="translate(1202.000000, 310.000000)">
                    <g id="编组-81" transform="translate(24.000000, 234.000000)">
                        <path d="M4.17869237,9.69088359 L9.75084657,9.69088359 C10.0065121,9.69088359 10.2147695,9.48387097 10.2147695,9.22973352 C10.2147695,8.97559607 10.0065121,8.76858345 9.75084657,8.76858345 L4.17869237,8.76858345 C3.92302683,8.76858345 3.71476947,8.97559607 3.71476947,9.22973352 C3.71476947,9.485554 3.92302683,9.69088359 4.17869237,9.69088359 Z M1.85738474,11.5371669 L10.2147695,11.5371669 C11.7538421,11.5371669 13,10.2967742 13,8.76858345 C13,7.23870968 11.752149,6 10.2147695,6 L10.2147695,6.92230014 C11.525267,7.16802244 12.0721542,7.7486676 12.0721542,8.76858345 C12.0721542,9.7884993 10.9986976,10.6148668 9.67296171,10.6148668 L1.85738474,10.6148668 C1.6017192,10.6148668 1.39346184,10.8218794 1.39346184,11.0760168 C1.39346184,11.3301543 1.60002605,11.5371669 1.85738474,11.5371669 L1.85738474,11.5371669 Z M6.50169315,14.3074334 C6.5,14.3074334 6.5,14.3074334 6.50169315,14.3074334 L2.78692368,14.3074334 C2.53125814,14.3074334 2.32300078,14.514446 2.32300078,14.7685835 C2.32300078,15.0227209 2.53125814,15.2297335 2.78692368,15.2297335 L6.50169315,15.2297335 C7.01471737,15.2297335 7.42953894,15.6437588 7.42953894,16.1520337 C7.42953894,16.6619916 7.01302423,17.0743338 6.50169315,17.0743338 L6.50169315,17.9966339 C7.5277416,17.9966339 8.35907788,17.1702665 8.35907788,16.1503506 C8.35738474,15.1338008 7.52604845,14.3074334 6.50169315,14.3074334 L6.50169315,14.3074334 Z M10.2147695,12.4611501 L0.463922897,12.4611501 C0.208257359,12.4611501 0,12.6681627 0,12.9223001 C0,13.1764376 0.208257359,13.3834502 0.463922897,13.3834502 L9.67296171,13.3834502 C10.9986976,13.3834502 12.0721542,14.2098177 12.0721542,15.2297335 C12.0721542,16.2496494 11.2780672,17.0760168 9.28692368,17.0760168 L9.28692368,18 L10.2147695,18 C11.7538421,18 13,16.7596073 13,15.2314165 C13,13.6998597 11.7538421,12.4611501 10.2147695,12.4611501 Z" id="风力"></path>
                    </g>
                </g>
            </g>
        </g>
    </g>
</svg>