<?xml version="1.0" encoding="UTF-8"?>
<svg width="11px" height="15px" viewBox="0 0 11 15" version="1.1" xmlns="http://www.w3.org/2000/svg" xmlns:xlink="http://www.w3.org/1999/xlink">
    <!-- Generator: Sketch 60 (88103) - https://sketch.com -->
    <title>湿度</title>
    <desc>Created with Sketch.</desc>
    <g id="楼房厂区概览" stroke="none" stroke-width="1" fill="none" fill-rule="evenodd">
        <g id="单元状态监控备份-2" transform="translate(-1227.000000, -505.000000)" fill="#1FFFA0" fill-rule="nonzero">
            <g id="编组-87">
                <g id="编组-83备份-2" transform="translate(1202.000000, 310.000000)">
                    <g id="编组-72" transform="translate(25.000000, 190.000000)">
                        <path d="M5.5,5 L6.07852447,5.66842641 C9.35950816,9.5136906 11,12.4158818 11,14.375 C11,17.4816017 8.53756612,20 5.5,20 C2.46243388,20 0,17.4816017 0,14.375 C0,12.3039322 1.83333333,9.17893219 5.5,5 Z M5.90532597,6.90044805 L5.5,6.4175 L5.36067394,6.58180776 C2.38926443,10.1138801 0.916666667,12.7553157 0.916666667,14.375 C0.916666667,16.9638348 2.9686949,19.0625 5.5,19.0625 C8.0313051,19.0625 10.0833333,16.9638348 10.0833333,14.375 C10.0833333,12.804397 8.69863167,10.2730288 5.90532597,6.90044805 Z M2.75,14.375 C2.75,15.9283009 3.98121694,17.1875 5.5,17.1875 C7.01878306,17.1875 8.25,15.9283009 8.25,14.375 L9.16666667,14.375 C9.16666667,16.4460678 7.52504408,18.125 5.5,18.125 C3.47495592,18.125 1.83333333,16.4460678 1.83333333,14.375 L2.75,14.375 Z" id="湿度"></path>
                    </g>
                </g>
            </g>
        </g>
    </g>
</svg>