<?xml version="1.0" encoding="UTF-8"?>
<svg width="10px" height="16px" viewBox="0 0 10 16" version="1.1" xmlns="http://www.w3.org/2000/svg" xmlns:xlink="http://www.w3.org/1999/xlink">
    <!-- Generator: Sketch 60 (88103) - https://sketch.com -->
    <title>温度</title>
    <desc>Created with Sketch.</desc>
    <g id="楼房厂区概览" stroke="none" stroke-width="1" fill="none" fill-rule="evenodd">
        <g id="单元状态监控备份-2" transform="translate(-1227.000000, -460.000000)" fill="#1FBFFF" fill-rule="nonzero">
            <g id="编组-87">
                <g id="编组-83备份-2" transform="translate(1202.000000, 310.000000)">
                    <g id="编组-71" transform="translate(25.000000, 146.000000)">
                        <path d="M5,4 C6.55900018,4 7.82957814,5.2402243 7.8461204,6.77050762 L9.40878378,6.770829 C9.67905405,6.770829 9.89864865,6.98691045 9.89864865,7.25285685 C9.89864865,7.51880324 9.67905405,7.73488469 9.40878378,7.73488469 L7.846,7.734 L7.846,8.183 L9.40878378,8.18366923 C9.67905405,8.18366923 9.89864865,8.39975068 9.89864865,8.66569707 C9.89864865,8.93164347 9.67905405,9.14772491 9.40878378,9.14772491 L7.846,9.147 L7.846,9.596 L9.40878378,9.59650945 C9.67905405,9.59650945 9.89864865,9.8125909 9.89864865,10.0785373 C9.89864865,10.3444837 9.67905405,10.5605651 9.40878378,10.5605651 L7.846,10.56 L7.84628378,11.0475795 C9.19932432,11.9717432 10,13.4593808 10,15.0799917 C10,17.7926449 7.75675676,20 5,20 C2.24324324,20 -4.17443857e-14,17.7926449 -4.17443857e-14,15.0799917 C-4.17443857e-14,13.4593808 0.800675676,11.9717432 2.15371622,11.0459173 L2.15371622,6.80074797 C2.15371622,5.25659672 3.43074324,4 5,4 Z M5,4.96571785 C3.97128378,4.96571785 3.13513514,5.78848951 3.13513514,6.80074797 L3.13513514,11.3068772 C3.13513514,11.4747559 3.0472973,11.6293372 2.90202703,11.717432 C1.69932432,12.4487845 0.981418919,13.7053813 0.981418919,15.0799917 C0.981418919,17.2607521 2.78378378,19.0342822 5,19.0342822 C7.21621622,19.0342822 9.01858108,17.2607521 9.01858108,15.0799917 C9.01858108,13.7053813 8.30067568,12.4487845 7.09797297,11.717432 C6.95294744,11.6298318 6.8646522,11.4743244 6.86486486,11.3068772 L6.86486486,6.80074797 C6.86486486,5.78848951 6.02871622,4.96571785 5,4.96571785 Z M5.04222973,5.81009765 C5.3125,5.81009765 5.53210427,6.0261791 5.53210427,6.29212549 L5.53329325,12.8316093 C6.60079507,13.0675273 7.40033784,14.0074154 7.40033784,15.1281945 C7.40033784,16.4263453 6.3277027,17.4818201 5.00844595,17.4818201 C3.68918919,17.4818201 2.61655405,16.4263453 2.61655405,15.1281945 C2.61655405,13.9834117 3.45071125,13.027351 4.55255034,12.8174251 L4.55236486,6.29212549 C4.55236486,6.0261791 4.77195946,5.81009765 5.04222973,5.81009765 Z M5.00844595,13.7402867 C4.23141892,13.7402867 3.59797297,14.3635986 3.59797297,15.1281945 C3.59797297,15.8927904 4.22972973,16.5161022 5.00844595,16.5161022 C5.78716216,16.5161022 6.41891892,15.8944525 6.41891892,15.1281945 C6.41891892,14.3619364 5.78547297,13.7402867 5.00844595,13.7402867 Z" id="温度"></path>
                    </g>
                </g>
            </g>
        </g>
    </g>
</svg>