<?xml version="1.0" encoding="UTF-8"?>
<svg width="64px" height="64px" viewBox="0 0 64 64" version="1.1" xmlns="http://www.w3.org/2000/svg" xmlns:xlink="http://www.w3.org/1999/xlink">
    <!-- Generator: Sketch 60 (88103) - https://sketch.com -->
    <title>形状</title>
    <desc>Created with Sketch.</desc>
    <g id="页面-1" stroke="none" stroke-width="1" fill="" fill-rule="evenodd">
        <path d="M50,0 C57.7319865,0 64,6.2680135 64,14 L64,50 C64,57.7319865 57.7319865,64 50,64 L14,64 C6.2680135,64 0,57.7319865 0,50 L0,14 C0,6.2680135 6.2680135,0 14,0 L50,0 Z M50,1 L14,1 C6.92286542,1 1.16657167,6.65519183 1.00355044,13.6931438 L1,14 L1,50 C1,57.0771346 6.65519183,62.8334283 13.6931438,62.9964496 L14,63 L50,63 C57.0771346,63 62.8334283,57.3448082 62.9964496,50.3068562 L63,50 L63,14 C63,6.92286542 57.3448082,1.16657167 50.3068562,1.00355044 L50,1 Z M32,36.7210123 C33.1221023,36.7210123 34.031746,37.6068602 34.031746,38.699609 L34.031746,46.6139959 C34.031746,47.7067447 33.1221023,48.5925926 32,48.5925926 C30.8778977,48.5925926 29.968254,47.7067447 29.968254,46.6139959 L29.968254,38.699609 C29.968254,37.6068602 30.8778977,36.7210123 32,36.7210123 Z M20.994709,32.7638189 C22.1168113,32.7638189 23.026455,33.6496668 23.026455,34.7424156 L23.026455,42.6568024 C23.026455,43.7495512 22.1168113,44.6353992 20.994709,44.6353992 C19.8726066,44.6353992 18.962963,43.7495512 18.962963,42.6568024 L18.962963,34.7424156 C18.962963,33.6496668 19.8726066,32.7638189 20.994709,32.7638189 Z M43.005291,32.7638189 C44.1273934,32.7638189 45.037037,33.6496668 45.037037,34.7424156 L45.037037,42.6568024 C45.037037,43.7495512 44.1273934,44.6353992 43.005291,44.6353992 C41.8831887,44.6353992 40.973545,43.7495512 40.973545,42.6568024 L40.973545,34.7424156 C40.973545,33.6496668 41.8831887,32.7638189 43.005291,32.7638189 Z M31.888,14.222 L32.0082302,14.2276655 C32.3093837,14.2560792 32.5902865,14.3946573 32.792381,14.6181142 L33.3262698,15.2072877 C34.6390476,16.6696716 36.3834921,18.7039164 37.7701587,20.4351885 C40.7950007,23.602254 40.7950007,28.5065523 37.7701587,31.6736178 C34.5310306,34.7655428 29.3470647,34.7655428 26.1079365,31.6736178 C22.9646561,28.6513114 23.1524074,24.2062444 25.9273088,20.660283 L27.0617194,19.2603769 C28.3899937,17.6319127 29.8951111,15.821101 30.984127,14.6181142 C31.1862214,14.3946573 31.4671242,14.2560792 31.7682778,14.2276655 L31.888,14.222 Z M32,19.6635358 L31.8984127,19.7031077 L30.1307937,21.8597781 L29.2571429,22.9084344 C27.5487148,24.4923405 27.4147134,27.1022594 28.952381,28.8442245 C30.608941,30.415007 33.2488368,30.415007 34.9053968,28.8442245 C36.3482409,27.1491526 36.2811765,24.689506 34.7812277,23.0726257 L34.6209524,22.9084344 L34.6209524,22.7897186 L32,19.6635358 Z" id="形状"  fill-rule="nonzero"></path>
    </g>
</svg>