<?xml version="1.0" encoding="UTF-8"?>
<svg width="20px" height="22px" viewBox="0 0 20 22" version="1.1" xmlns="http://www.w3.org/2000/svg" xmlns:xlink="http://www.w3.org/1999/xlink">
    <title>形状</title>
    <defs>
        <linearGradient x1="50%" y1="0%" x2="50%" y2="100%" id="linearGradient-1">
            <stop stop-color="#FFFFFF" offset="0%"></stop>
            <stop stop-color="#50EEFF" offset="100%"></stop>
        </linearGradient>
    </defs>
    <g id="页面-1" stroke="none" stroke-width="1" fill="none" fill-rule="evenodd">
        <g id="单元驾驶舱" transform="translate(-300.000000, -920.000000)" fill="url(#linearGradient-1)" fill-rule="nonzero">
            <g id="疾病预警" transform="translate(280.000000, 900.000000)">
                <path d="M38.3328989,35.8528356 C37.3626522,34.5242005 36.8410424,32.9175799 36.844602,31.268703 L36.844602,28.0796157 C36.8432651,25.0112616 34.7796494,22.3324084 31.8273993,21.566606 L31.8273993,20.8625252 C31.8273993,20.3861657 31.4437033,20 30.9703904,20 L29.2832195,20 C28.8099066,20 28.4262107,20.3861657 28.4262107,20.8625252 L28.4262107,21.5873297 C25.5128068,22.3815101 23.4894104,25.0418097 23.4882448,28.0796157 L23.4882448,30.3838801 C23.4856673,32.5838813 22.7385408,34.7173726 21.369963,36.4328366 L20,38.14582 L40,38.14582 L38.3328989,35.8528356 Z M23.3936298,36.4672012 C24.5420492,34.6485781 25.1533749,32.5389698 25.1563885,30.3841424 L25.1563885,28.0796157 C25.1563885,25.2989687 27.4042121,23.0366763 30.167075,23.0366763 C32.929938,23.0366763 35.1777616,25.2989687 35.1777616,28.0796157 L35.1777616,31.268703 C35.1777556,33.1165558 35.7165309,34.92379 36.7273106,36.4664142 L23.3936298,36.4672012 Z M30.1462232,41.3333333 C31.4417877,41.3333333 32.4920503,40.2763105 32.4920503,38.9724067 L27.8003962,38.9724067 C27.8003962,40.2763105 28.8506587,41.3333333 30.1462232,41.3333333 Z" id="形状"></path>
            </g>
        </g>
    </g>
</svg>