<?xml version="1.0" encoding="UTF-8"?>
<svg width="20px" height="18px" viewBox="0 0 20 18" version="1.1" xmlns="http://www.w3.org/2000/svg" xmlns:xlink="http://www.w3.org/1999/xlink">
    <title>形状结合</title>
    <defs>
        <linearGradient x1="50%" y1="0%" x2="50%" y2="100%" id="linearGradient-1">
            <stop stop-color="#FFFFFF" offset="0%"></stop>
            <stop stop-color="#50EEFF" offset="100%"></stop>
        </linearGradient>
    </defs>
    <g id="页面-1" stroke="none" stroke-width="1" fill="none" fill-rule="evenodd">
        <g id="单元驾驶舱" transform="translate(-801.000000, -1083.000000)" fill="url(#linearGradient-1)" fill-rule="nonzero">
            <g id="编组-11" transform="translate(780.000000, 1062.000000)">
                <g id="icon/20/normal/environs" transform="translate(21.000000, 21.000000)">
                    <path d="M20,15 L20,18 L5,18 L5,15 L20,15 Z M3.5,15 L3.5,18 L0.5,18 L0.5,15 L3.5,15 Z M20,7.5 L20,10.5 L5,10.5 L5,7.5 L20,7.5 Z M3.5,7.5 L3.5,10.5 L0.5,10.5 L0.5,7.5 L3.5,7.5 Z M20,0 L20,3 L5,3 L5,0 L20,0 Z M3.5,0 L3.5,3 L0.5,3 L0.5,0 L3.5,0 Z" id="形状结合"></path>
                </g>
            </g>
        </g>
    </g>
</svg>