<?xml version="1.0" encoding="UTF-8"?>
<svg width="46px" height="42px" viewBox="0 0 46 42" version="1.1" xmlns="http://www.w3.org/2000/svg" xmlns:xlink="http://www.w3.org/1999/xlink">
    <!-- Generator: Sketch 60 (88103) - https://sketch.com -->
    <title>冰雹</title>
    <desc>Created with Sketch.</desc>
    <defs>
        <linearGradient x1="50%" y1="0%" x2="50%" y2="100%" id="linearGradient-1">
            <stop stop-color="#D6F1FF" offset="0%"></stop>
            <stop stop-color="#7DD4E4" offset="100%"></stop>
        </linearGradient>
    </defs>
    <g id="页面-1" stroke="none" stroke-width="1" fill="none" fill-rule="evenodd">
        <g id="天气icon" transform="translate(-177.000000, -279.000000)" fill="url(#linearGradient-1)" fill-rule="nonzero">
            <path d="M200.805988,310.503404 C203.714649,310.503404 206.071926,312.853077 206.071926,315.751702 C206.071926,318.650327 203.714649,321 200.805988,321 C197.898299,321 195.540049,318.649942 195.540049,315.751702 C195.540049,312.853461 197.898299,310.503404 200.805988,310.503404 Z M200.805988,313.484685 C199.550266,313.484685 198.531352,314.500061 198.531352,315.751702 C198.531352,317.003343 199.550266,318.018718 200.805988,318.018718 C202.062515,318.018718 203.080624,317.003894 203.080624,315.751702 C203.080624,314.49951 202.062515,313.484685 200.805988,313.484685 Z M194.262514,302.366989 C196.792229,302.366989 198.842946,304.411249 198.842946,306.93243 C198.842946,309.453066 196.792067,311.497164 194.262514,311.497164 C191.732961,311.497164 189.682082,309.453066 189.682082,306.93243 C189.682082,304.411249 191.732798,302.366989 194.262514,302.366989 Z M207.006708,302.056439 C209.347074,302.056439 211.244387,303.947395 211.244387,306.279921 C211.244387,308.61298 209.347263,310.503404 207.006708,310.503404 C204.665619,310.503404 202.76903,308.613168 202.76903,306.279921 C202.76903,303.947207 204.665808,302.056439 207.006708,302.056439 Z M202.06886,279 C208.921321,279 214.730434,283.796515 216.141351,290.314023 L216.193497,290.572541 L216.218046,290.580148 C220.104605,291.791202 222.877318,295.35034 222.996034,299.504638 L223,299.782453 C223,305.0175 218.813915,309.279338 213.596314,309.424742 L213.320768,309.428577 L213.320768,306.447295 C217.013773,306.447295 220.008698,303.462749 220.008698,299.782453 C220.008698,296.65717 217.831225,293.980412 214.830527,293.292018 L214.591944,293.24183 L213.522476,293.037053 L213.389643,291.95978 C212.690321,286.288291 207.846972,281.981282 202.06886,281.981282 C197.206268,281.981282 192.935532,285.043906 191.324306,289.522806 L191.227086,289.804566 L190.811809,291.0611 L189.51065,290.7994 C188.989226,290.694527 188.457683,290.640974 187.92137,290.640974 C183.541403,290.640974 179.991302,294.179004 179.991302,298.544476 C179.991302,302.826998 183.408787,306.313494 187.674357,306.443535 L187.92137,306.447295 L187.92137,309.428577 C181.889509,309.428577 177,304.555937 177,298.544476 C177,292.532454 181.889386,287.659692 187.92137,287.659692 C188.117697,287.659692 188.313562,287.66492 188.508808,287.675315 L188.832053,287.697592 L188.853239,287.648082 C191.061844,282.572061 196.053733,279.134189 201.733951,279.00384 L202.06886,279 Z M194.262514,305.348271 C193.384984,305.348271 192.673384,306.05763 192.673384,306.93243 C192.673384,307.806579 193.385041,308.515882 194.262514,308.515882 C195.139987,308.515882 195.851643,307.806579 195.851643,306.93243 C195.851643,306.05763 195.140043,305.348271 194.262514,305.348271 Z M207.006708,305.03772 C206.317981,305.03772 205.760332,305.593602 205.760332,306.279921 C205.760332,306.966652 206.31767,307.522122 207.006708,307.522122 C207.695335,307.522122 208.253085,306.966342 208.253085,306.279921 C208.253085,305.593912 207.695023,305.03772 207.006708,305.03772 Z" id="冰雹"></path>
        </g>
    </g>
</svg>