<?xml version="1.0" encoding="UTF-8"?>
<svg width="48px" height="42px" viewBox="0 0 48 42" version="1.1" xmlns="http://www.w3.org/2000/svg" xmlns:xlink="http://www.w3.org/1999/xlink">
    <!-- Generator: Sketch 60 (88103) - https://sketch.com -->
    <title>大雨</title>
    <desc>Created with Sketch.</desc>
    <defs>
        <linearGradient x1="50%" y1="0%" x2="50%" y2="100%" id="linearGradient-1">
            <stop stop-color="#D6F1FF" offset="0%"></stop>
            <stop stop-color="#7DD4E4" offset="100%"></stop>
        </linearGradient>
    </defs>
    <g id="页面-1" stroke="none" stroke-width="1" fill="none" fill-rule="evenodd">
        <g id="天气icon" transform="translate(-926.000000, -279.000000)" fill="url(#linearGradient-1)" fill-rule="nonzero">
            <path d="M950.700224,306.674352 C951.029376,306.395487 951.414421,306.213834 951.919366,306.263574 L952.092209,306.288908 L952.194547,306.310148 C953.392103,306.57692 953.640508,307.316536 953.968277,310.436161 L954.027152,311.011778 L954.115527,311.920776 C954.318831,314.128288 954.38898,316.22623 954.252688,317.132743 C953.890072,319.550311 951.961096,321.364772 949.75442,320.937396 C947.612549,320.523566 946.377036,318.189896 946.734004,315.815612 C946.849989,315.044163 947.356944,313.519024 948.019289,311.84763 L948.259126,311.252642 L948.652479,310.317119 C949.032294,309.43737 949.400164,308.655734 949.716406,308.064865 C949.92381,307.677348 950.111558,307.365808 950.289192,307.125296 C950.417889,306.951045 950.547175,306.804018 950.700224,306.674352 Z M941.872178,304.699667 C942.201331,304.420801 942.586377,304.239147 943.091322,304.288887 L943.264166,304.314222 L943.366498,304.335461 C944.56399,304.60223 944.812475,305.342024 945.140456,308.461506 L945.199369,309.037093 L945.287808,309.946079 C945.49128,312.15373 945.561548,314.251688 945.425177,315.158724 C945.061738,317.576056 943.132926,319.390362 940.927067,318.962944 C938.78487,318.549245 937.549656,316.216139 937.905897,313.841074 C938.042352,312.933473 938.719952,310.982683 939.555085,308.977829 L939.824404,308.342489 C940.052297,307.814631 940.275889,307.322093 940.48661,306.884891 L940.642103,306.567677 L940.888349,306.090196 C941.095757,305.702674 941.283507,305.391129 941.461144,305.150615 C941.589842,304.976361 941.719129,304.829334 941.872178,304.699667 Z M951.128738,312.134972 L950.850964,312.81974 L950.56052,313.566517 C950.098923,314.78221 949.759855,315.823882 949.695583,316.251374 C949.552805,317.201026 949.953499,317.957867 950.329016,318.03042 C950.638381,318.090337 951.155006,317.604382 951.291033,316.697486 C951.364672,316.207697 951.333819,314.827458 951.221135,313.259935 L951.178003,312.70006 L951.128738,312.134972 Z M959.175061,302.728382 C959.491354,302.437225 959.865717,302.240362 960.370637,302.267522 L960.543878,302.285051 L960.742805,302.319694 C961.779382,302.533282 962.096272,303.1852 962.46983,305.59594 L962.58844,306.402029 L962.78207,307.829698 L962.862558,308.483728 C963.09104,310.430106 963.199649,312.206005 963.106679,313.026025 C962.832626,315.449938 960.982522,317.340272 958.768405,317.016417 C956.604075,316.701695 955.280458,314.418376 955.550862,312.026739 C955.638976,311.251966 956.09,309.706327 956.690492,308.008205 L956.908289,307.403544 L957.136413,306.792261 L957.39673,306.121007 C957.698255,305.36032 957.989846,304.684198 958.247222,304.155789 C958.439967,303.760074 958.615806,303.441119 958.783909,303.193768 C958.905344,303.015086 959.028238,302.863536 959.175061,302.728382 Z M942.300963,310.160286 L942.124967,310.590573 L941.808497,311.392899 C941.438837,312.353806 941.138565,313.223498 940.979721,313.793686 L940.907537,314.073742 L940.867552,314.276331 C940.725014,315.226635 941.125642,315.983351 941.501662,316.055968 C941.810447,316.1158 942.32728,315.62965 942.463598,314.722963 C942.541561,314.20441 942.502301,312.68755 942.37276,311.007032 L942.350339,310.725573 L942.300963,310.160286 Z M959.808802,308.180663 L959.56377,308.85573 L959.384451,309.368279 C958.920636,310.716804 958.578753,311.896236 958.526357,312.356945 C958.418862,313.307701 958.839228,314.032858 959.205091,314.08606 C959.520155,314.132144 960.027386,313.613884 960.131127,312.696327 C960.193401,312.147049 960.086237,310.49963 959.876042,308.724677 L959.808802,308.180663 Z M952.164605,279 C959.316279,279 965.376758,283.978282 966.831881,290.736561 L966.885993,291.004936 L966.909072,291.012279 C970.974039,292.251645 973.876996,295.938791 973.996188,300.243204 L974,300.518775 C974,305.923625 969.643923,310.322791 964.216092,310.467928 L963.939193,310.471626 L963.939193,307.509597 C967.841419,307.509597 971.005842,304.37931 971.005842,300.518775 C971.005842,297.237791 968.698813,294.427582 965.520973,293.708765 L965.281024,293.6588 L964.211016,293.455052 L964.078093,292.385146 C963.342082,286.460947 958.245352,281.96203 952.164605,281.96203 C947.04299,281.96203 942.545946,285.166461 940.853472,289.85211 L940.755306,290.135013 L940.338759,291.386224 L939.034036,291.122841 C938.4872,291.012451 937.92744,290.956171 937.360646,290.956171 C932.740166,290.956171 928.994158,294.662169 928.994158,299.232884 C928.994158,303.720934 932.604931,307.374563 937.10949,307.505939 L937.360646,307.509597 L937.360646,310.471626 C931.086274,310.471626 926,305.43993 926,299.232884 C926,293.026319 931.086505,287.994141 937.360646,287.994141 C937.668051,287.994141 937.974142,288.006372 938.278352,288.030652 L938.357657,288.03797 L938.388715,287.964565 C940.685344,282.701597 945.893907,279.136492 951.821827,279.003833 L952.164605,279 Z" id="大雨"></path>
        </g>
    </g>
</svg>