<?xml version="1.0" encoding="UTF-8"?>
<svg width="54px" height="42px" viewBox="0 0 54 42" version="1.1" xmlns="http://www.w3.org/2000/svg" xmlns:xlink="http://www.w3.org/1999/xlink">
    <!-- Generator: Sketch 60 (88103) - https://sketch.com -->
    <title>多云</title>
    <desc>Created with Sketch.</desc>
    <defs>
        <linearGradient x1="50%" y1="0%" x2="50%" y2="100%" id="linearGradient-1">
            <stop stop-color="#D6F1FF" offset="0%"></stop>
            <stop stop-color="#7DD4E4" offset="100%"></stop>
        </linearGradient>
    </defs>
    <g id="页面-1" stroke="none" stroke-width="1" fill="none" fill-rule="evenodd">
        <g id="天气icon" transform="translate(-923.000000, -671.000000)" fill="url(#linearGradient-1)" fill-rule="nonzero">
            <g id="编组-4" transform="translate(900.000000, 642.000000)">
                <path d="M43.4950484,29 C48.0519913,29 52.0452096,31.8327467 54.0241767,36.0275217 L54.1195296,36.0221492 L54.4486004,36.0106601 L54.7791286,36.0068148 C61.957345,36.0068148 68.0529512,41.4193133 69.6137872,48.8046856 L69.6825933,49.1469373 L69.7349402,49.4381303 L70.0608927,49.5493395 C73.9666845,50.960721 76.7589726,54.8404909 76.9851681,59.3910947 L76.9964303,59.6954424 L77,59.9891256 C77,65.9741007 72.5933516,70.8432219 67.1031405,70.9962892 L66.8366534,71 L39.6191137,71 C33.2706745,71 28.1237567,65.4247408 28.1237567,58.5476732 C28.1237567,57.5645574 28.228916,56.6080387 28.4277125,55.6906002 C25.2320271,54.1667663 23,50.6760737 23,46.6188274 C23,41.1597924 27.0398976,36.7261509 32.0320006,36.7261509 L32.2146767,36.72817 L32.3970146,36.7342155 L32.6499427,36.7503807 L32.7589586,36.4868482 C34.5954928,32.1847747 38.4715577,29.2577135 42.9007632,29.0161758 L43.2035941,29.0038841 L43.4950484,29 Z M54.7791286,39.0272281 C49.468356,39.0272281 44.8060153,42.670019 43.0592405,47.9928769 L42.9634954,48.2959518 L42.5764684,49.5700503 L41.362977,49.3040736 C40.7890861,49.1782864 40.2063171,49.1141246 39.6191137,49.1141246 C34.8103827,49.1141246 30.9116831,53.3379391 30.9116831,58.5476732 C30.9116831,63.6651248 34.6747133,67.831105 39.3668752,67.9757047 L39.6191137,67.9795867 L66.8366534,67.9795867 C70.910326,67.9795867 74.2120736,64.4025043 74.2120736,59.9891256 C74.2120736,56.2308718 71.7975188,53.0151503 68.4717587,52.2009854 L68.2382694,52.148103 L67.2416453,51.940493 L67.1179133,50.8491836 C66.3561057,44.1300796 61.0769717,39.0272281 54.7791286,39.0272281 Z M43.4950484,32.0204133 C39.6435592,32.0204133 36.2561851,34.6899953 34.9697962,38.6027557 L34.8853627,38.8714445 L34.5003743,40.1552949 L33.2797457,39.8842784 C32.8689177,39.7930621 32.4520025,39.7465643 32.0320006,39.7465643 C28.5877387,39.7465643 25.7879264,42.8192569 25.7879264,46.6188274 C25.7879264,49.3790863 27.2660437,51.7556702 29.3955468,52.8488637 C31.3049026,48.8367374 35.1664682,46.0937112 39.6191137,46.0937112 C39.8255815,46.0937112 40.0315973,46.0997233 40.2370284,46.1116771 L40.5447199,46.1340553 L40.7274949,46.1539342 L40.7725799,46.0370717 C42.6450512,41.2775007 46.4718878,37.7559598 51.0616119,36.5044711 C49.4341051,33.7906347 46.6372094,32.0204133 43.4950484,32.0204133 Z" id="多云"></path>
            </g>
        </g>
    </g>
</svg>