<?xml version="1.0" encoding="UTF-8"?>
<svg width="51px" height="42px" viewBox="0 0 51 42" version="1.1" xmlns="http://www.w3.org/2000/svg" xmlns:xlink="http://www.w3.org/1999/xlink">
    <!-- Generator: Sketch 60 (88103) - https://sketch.com -->
    <title>多云转晴</title>
    <desc>Created with Sketch.</desc>
    <defs>
        <linearGradient x1="50%" y1="0%" x2="50%" y2="100%" id="linearGradient-1">
            <stop stop-color="#D6F1FF" offset="0%"></stop>
            <stop stop-color="#7DD4E4" offset="100%"></stop>
        </linearGradient>
    </defs>
    <g id="页面-1" stroke="none" stroke-width="1" fill="none" fill-rule="evenodd">
        <g id="天气icon" transform="translate(-475.000000, -671.000000)" fill="url(#linearGradient-1)" fill-rule="nonzero">
            <g id="编组-5" transform="translate(450.000000, 642.000000)">
                <path d="M62.9196192,35.1004826 C66.9445757,35.1004826 70.2074477,38.3780175 70.2074477,42.4210617 C70.2074477,45.7595248 67.9827232,48.5760407 64.9412366,49.4563196 C65.1091535,49.9508824 65.2513649,50.4588658 65.3670148,50.9774531 L65.4084126,51.1764743 L65.6498222,51.2601789 C69.5112282,52.6446753 72.2353879,56.283632 72.3659767,60.5126452 L72.3708851,60.8309015 C72.3708851,66.3439081 67.9956547,70.8310395 62.538647,70.9953389 L62.2286265,71 L59.4301247,71 L59.4301247,67.3397105 L62.2286265,67.3397105 C65.8183445,67.3397105 68.7269709,64.4245636 68.7269709,60.8309015 C68.7269709,57.7955482 66.632525,55.1920393 63.738144,54.5034964 L63.4644918,54.444601 L62.1618548,54.1934627 L61.9996318,52.8710916 C61.3071592,47.2263549 56.5115312,42.9377802 50.7892566,42.9377802 C45.9861312,42.9377802 41.7677364,45.9698299 40.1632651,50.4077546 L40.0531328,50.7271182 L39.54628,52.2707784 L37.9604358,51.9474447 C37.453042,51.8439935 36.9332174,51.7913995 36.4055345,51.7913995 C32.1179959,51.7913995 28.6439142,55.2726973 28.6439142,59.565555 C28.6439142,63.764624 31.9688631,67.1879459 36.1271108,67.3348015 L36.4055345,67.3397105 L61.1457172,67.3397105 L61.1457172,71 L36.4055345,71 C30.10772,71 25,65.8813902 25,59.565555 C25,53.2491989 30.1074799,48.1311099 36.4055345,48.1311099 C36.5598223,48.1311099 36.7137583,48.1341964 36.867277,48.140351 L37.1413552,48.1567354 L37.2853941,47.8432049 C39.6666443,42.8081749 44.6999869,39.4269506 50.4077608,39.2823203 L50.7892566,39.2774906 C52.6072467,39.2774906 54.3545287,39.6048219 55.972868,40.2058362 C56.9053134,37.2461084 59.6630184,35.1004826 62.9196192,35.1004826 Z M71.5643267,50.5694605 L72.628435,52.7512058 C72.9222803,53.3536781 72.6720888,54.0802872 72.0696165,54.3741326 C71.4671441,54.667978 70.7405351,54.4177864 70.4466897,53.8153141 L69.3825814,51.6335688 C69.088736,51.0310965 69.3389276,50.3044874 69.9413999,50.010642 C70.5438722,49.7167966 71.2704813,49.9669882 71.5643267,50.5694605 Z M72.6670074,43.4012473 L75.0340214,43.9501713 C75.6876543,44.1017525 76.0951973,44.7568886 75.9442943,45.4134588 C75.7933912,46.070029 75.141186,46.4794035 74.4875532,46.3278223 L72.1205392,45.7788983 C71.4669063,45.6273172 71.0593633,44.972181 71.2102663,44.3156108 C71.3611694,43.6590406 72.0133746,43.2496661 72.6670074,43.4012473 Z M62.9196192,38.7607721 C61.0656005,38.7607721 59.534981,40.1516313 59.3054381,41.9512788 C60.8817666,43.0494121 62.2385714,44.4446209 63.2939825,46.0605692 C65.1304434,45.874152 66.5635334,44.315717 66.5635334,42.4210617 C66.5635334,40.3995396 64.9320975,38.7607721 62.9196192,38.7607721 Z M73.354302,34.0389388 C73.7764665,34.5626114 73.6960772,35.3309018 73.1747474,35.7549635 L71.2868452,37.2906267 C70.7655155,37.7146884 70.0006622,37.6339379 69.5784977,37.1102653 C69.1563331,36.5865927 69.2367224,35.8183023 69.7580522,35.3942406 L71.6459544,33.8585774 C72.1672842,33.4345157 72.9321374,33.5152662 73.354302,34.0389388 Z M54.193284,33.8585774 L56.0811862,35.3942406 C56.602516,35.8183023 56.6829053,36.5865927 56.2607407,37.1102653 C55.8385762,37.6339379 55.0737229,37.7146884 54.5523932,37.2906267 L52.664491,35.7549635 C52.1431612,35.3309018 52.0627719,34.5626114 52.4849364,34.0389388 C52.907101,33.5152662 53.6719542,33.4345157 54.193284,33.8585774 Z M62.9196192,29 C63.5904453,29 64.1342573,29.5462558 64.1342573,30.2200965 L64.1342573,32.6602895 C64.1342573,33.3341302 63.5904453,33.8803861 62.9196192,33.8803861 C62.2487931,33.8803861 61.7049811,33.3341302 61.7049811,32.6602895 L61.7049811,30.2200965 C61.7049811,29.5462558 62.2487931,29 62.9196192,29 Z" id="多云转晴"></path>
            </g>
        </g>
    </g>
</svg>