<?xml version="1.0" encoding="UTF-8"?>
<svg width="47px" height="42px" viewBox="0 0 47 42" version="1.1" xmlns="http://www.w3.org/2000/svg" xmlns:xlink="http://www.w3.org/1999/xlink">
    <!-- Generator: Sketch 60 (88103) - https://sketch.com -->
    <title>降霜</title>
    <desc>Created with Sketch.</desc>
    <defs>
        <linearGradient x1="50%" y1="0%" x2="50%" y2="100%" id="linearGradient-1">
            <stop stop-color="#D6F1FF" offset="0%"></stop>
            <stop stop-color="#7DD4E4" offset="100%"></stop>
        </linearGradient>
    </defs>
    <g id="页面-1" stroke="none" stroke-width="1" fill="none" fill-rule="evenodd">
        <g id="天气icon" transform="translate(-327.000000, -279.000000)" fill="url(#linearGradient-1)" fill-rule="nonzero">
            <path d="M336,315 C337.656854,315 339,316.343146 339,318 C339,319.656854 337.656854,321 336,321 C334.343146,321 333,319.656854 333,318 C333,316.343146 334.343146,315 336,315 Z M346,315 C347.656854,315 349,316.343146 349,318 C349,319.656854 347.656854,321 346,321 C344.343146,321 343,319.656854 343,318 C343,316.343146 344.343146,315 346,315 Z M366,315 C367.656854,315 369,316.343146 369,318 C369,319.656854 367.656854,321 366,321 C364.343146,321 363,319.656854 363,318 C363,316.343146 364.343146,315 366,315 Z M356,315 C357.656854,315 359,316.343146 359,318 C359,319.656854 357.656854,321 356,321 C354.343146,321 353,319.656854 353,318 C353,316.343146 354.343146,315 356,315 Z M352.616228,279 C359.504438,279 365.361881,283.736495 366.915342,290.222595 L366.988257,290.542981 L367.041,290.799 L367.330827,290.892923 C371.076578,292.167806 373.752968,295.594123 373.983801,299.614879 L373.996111,299.903065 L374,300.180498 C374,305.513509 369.726303,309.850736 364.40388,309.996229 L364.127664,310 L338.143125,310 C331.990978,310 327,305.040103 327,298.916926 C327,292.794223 331.991203,287.833852 338.143125,287.833852 C338.343684,287.833852 338.543721,287.839198 338.743101,287.849838 L339.041663,287.869762 L339.097,287.875 L339.252044,287.527296 C341.51906,282.611528 346.381795,279.270392 351.932545,279.015663 L352.280345,279.003775 L352.616228,279 Z M352.616228,282 C347.623664,282 343.241809,285.13527 341.594655,289.715803 L341.497244,289.998036 L341.079543,291.260631 L339.776004,290.99718 C339.240433,290.888939 338.694728,290.833852 338.143125,290.833852 C333.64391,290.833852 330,294.455252 330,298.916926 C330,303.296407 333.509951,306.865602 337.894052,306.996292 L338.143125,307 L364.127664,307 C367.925028,307 371,303.944354 371,300.180498 C371,296.984202 368.766072,294.245576 365.68108,293.539143 L365.435785,293.487623 L364.363064,293.282466 L364.228911,292.198574 C363.511653,286.403489 358.545473,282 352.616228,282 Z" id="降霜"></path>
        </g>
    </g>
</svg>