<?xml version="1.0" encoding="UTF-8"?>
<svg width="47px" height="42px" viewBox="0 0 47 42" version="1.1" xmlns="http://www.w3.org/2000/svg" xmlns:xlink="http://www.w3.org/1999/xlink">
    <!-- Generator: Sketch 60 (88103) - https://sketch.com -->
    <title>雷阵雨</title>
    <desc>Created with Sketch.</desc>
    <defs>
        <linearGradient x1="50%" y1="0%" x2="50%" y2="100%" id="linearGradient-1">
            <stop stop-color="#D6F1FF" offset="0%"></stop>
            <stop stop-color="#7DD4E4" offset="100%"></stop>
        </linearGradient>
    </defs>
    <g id="页面-1" stroke="none" stroke-width="1" fill="none" fill-rule="evenodd">
        <g id="天气icon" transform="translate(-176.000000, -671.000000)" fill="url(#linearGradient-1)" fill-rule="nonzero">
            <g id="编组-7" transform="translate(150.000000, 642.000000)">
                <path d="M49.3556343,46.2621951 C50.0976463,44.9761868 52.022168,45.4468848 52.141726,46.871559 L52.1475612,47.0123819 L52.1472323,54.1369533 L56.0062111,55.6779276 C56.7645967,55.9806866 57.1250938,56.8235214 56.86552,57.5644536 L56.8132309,57.6940178 L56.747797,57.8206824 L49.5778264,70.2484779 C48.8358932,71.5346096 46.9112359,71.0639679 46.7916694,69.6392338 L46.7858338,69.4984048 L46.7851651,62.3318595 L42.940077,60.837937 C42.1743072,60.5404303 41.8071032,59.6933515 42.0672816,58.9479991 L42.1197547,58.8176549 L42.1855324,58.690218 L49.3556343,46.2621951 Z M49.1544506,52.5999087 L45.6499032,58.6751324 L48.8232817,59.9079013 C49.3105438,60.097206 49.6572049,60.5238213 49.752337,61.0254608 L49.7719625,61.1640097 L49.7786155,61.3055473 L49.7779468,63.9078798 L53.2904749,57.8206636 L50.0972202,56.5463957 C49.6157033,56.3541669 49.2742959,55.9295846 49.1806444,55.431709 L49.1613266,55.294227 L49.1547795,55.1538277 L49.1544506,52.5999087 Z M51.6172762,29 C58.6196178,29 64.5546412,33.9315209 65.9870725,40.6291937 L66.0407226,40.8951842 L66.0639103,40.9024627 C70.0399849,42.1385404 72.8771818,45.7938521 72.9961137,50.0616884 L73,50.3408754 C73,55.7084593 68.7293218,60.0782497 63.406824,60.2248363 L63.1306009,60.2286356 L60.3136451,60.2286356 L60.3136451,57.2304992 L63.1306009,57.2304992 C66.9278423,57.2304992 70.0072183,54.1452565 70.0072183,50.3408754 C70.0072183,47.1082844 67.7657035,44.3406619 64.676126,43.6308051 L64.436817,43.5802863 L63.3668895,43.3742078 L63.2341101,42.2908705 C62.5171048,36.4408748 57.5469406,31.9981364 51.6172762,31.9981364 C46.6243,31.9981364 42.2402929,35.1599817 40.5897651,39.7833 L40.4921459,40.0681719 L40.07663,41.3331024 L38.7737849,41.0688372 C38.2378086,40.9601214 37.6919653,40.9047096 37.1410975,40.9047096 C32.6408476,40.9047096 28.9927817,44.5593025 28.9927817,49.0676044 C28.9927817,53.4924191 32.5069851,57.0948511 36.8919781,57.2267571 L37.1410975,57.2304992 L38.6870563,57.2304992 L38.6870563,60.2286356 L37.1410975,60.2286356 C30.9879799,60.2286356 26,55.2317312 26,49.0676044 C26,42.9034775 30.9879799,37.9065732 37.1410975,37.9065732 C37.4416755,37.9065732 37.7411833,37.9186699 38.03913,37.9426677 L38.094127,37.9480162 L38.1167769,37.8965918 C40.3662501,32.6737047 45.4711646,29.1354632 51.2813084,29.003804 L51.6172762,29 Z" id="雷阵雨"></path>
            </g>
        </g>
    </g>
</svg>