<?xml version="1.0" encoding="UTF-8"?>
<svg width="42px" height="42px" viewBox="0 0 42 42" version="1.1" xmlns="http://www.w3.org/2000/svg" xmlns:xlink="http://www.w3.org/1999/xlink">
    <!-- Generator: Sketch 60 (88103) - https://sketch.com -->
    <title>晴天</title>
    <desc>Created with Sketch.</desc>
    <defs>
        <linearGradient x1="50%" y1="0%" x2="50%" y2="100%" id="linearGradient-1">
            <stop stop-color="#D6F1FF" offset="0%"></stop>
            <stop stop-color="#7DD4E4" offset="100%"></stop>
        </linearGradient>
    </defs>
    <g id="页面-1" stroke="none" stroke-width="1" fill="none" fill-rule="evenodd">
        <g id="天气icon" transform="translate(-329.000000, -671.000000)" fill="url(#linearGradient-1)" fill-rule="nonzero">
            <path d="M350.000313,704.259292 C350.7734,704.259292 351.40872,704.849137 351.480789,705.603341 L351.487597,705.746576 L351.487597,711.513412 C351.487597,712.334816 350.821717,713.000696 350.000313,713.000696 C349.227227,713.000696 348.591906,712.410851 348.519837,711.656647 L348.513029,711.513412 L348.513029,705.746576 C348.513029,704.925172 349.178909,704.259292 350.000313,704.259292 Z M341.331788,700.669534 C341.876308,701.214053 341.91034,702.075748 341.433886,702.659914 L341.331788,702.772871 L337.254368,706.850291 C336.673548,707.431112 335.731852,707.431112 335.151031,706.850291 C334.606512,706.305772 334.572479,705.444077 335.048934,704.85991 L335.151031,704.746954 L339.228451,700.669534 C339.809272,700.088713 340.750968,700.088713 341.331788,700.669534 Z M360.659219,700.56674 L360.772175,700.668838 L364.849595,704.746258 C365.430416,705.327078 365.430416,706.268775 364.849595,706.849595 C364.305076,707.394115 363.443381,707.428147 362.859214,706.951693 L362.746258,706.849595 L358.668838,702.772175 C358.088017,702.191355 358.088017,701.249658 358.668838,700.668838 C359.213357,700.124319 360.075052,700.090286 360.659219,700.56674 Z M349.999617,680.945008 C356.106236,680.945008 361.055618,685.894142 361.055618,692.000313 C361.055618,698.106583 356.106136,703.056314 349.999617,703.056314 C343.89367,703.056314 338.944312,698.106459 338.944312,692.000313 C338.944312,685.894266 343.893571,680.945008 349.999617,680.945008 Z M349.999617,683.919576 C345.536379,683.919576 341.918881,687.537075 341.918881,692.000313 C341.918881,696.463717 345.536545,700.081746 349.999617,700.081746 C354.463294,700.081746 358.08105,696.463808 358.08105,692.000313 C358.08105,687.536984 354.46346,683.919576 349.999617,683.919576 Z M336.253424,690.513029 C337.074828,690.513029 337.740708,691.178909 337.740708,692.000313 C337.740708,692.7734 337.150863,693.40872 336.396659,693.480789 L336.253424,693.487597 L330.487284,693.487597 C329.66588,693.487597 329,692.821717 329,692.000313 C329,691.227227 329.589845,690.591906 330.344049,690.519837 L330.487284,690.513029 L336.253424,690.513029 Z M369.512716,690.513029 C370.33412,690.513029 371,691.178909 371,692.000313 C371,692.7734 370.410155,693.40872 369.655951,693.480789 L369.512716,693.487597 L363.746576,693.487597 C362.925172,693.487597 362.259292,692.821717 362.259292,692.000313 C362.259292,691.227227 362.849137,690.591906 363.603341,690.519837 L363.746576,690.513029 L369.512716,690.513029 Z M337.140716,677.049282 L337.253673,677.151379 L341.331093,681.228799 C341.911913,681.809619 341.911913,682.751316 341.331093,683.332136 C340.786573,683.876656 339.924878,683.910688 339.340712,683.434234 L339.227755,683.332136 L335.150335,679.254716 C334.569515,678.673896 334.569515,677.7322 335.150335,677.151379 C335.694855,676.60686 336.55655,676.572827 337.140716,677.049282 Z M364.849685,677.151121 C365.394158,677.695687 365.428117,678.557385 364.951612,679.14151 L364.849505,679.254458 L360.77139,683.331878 C360.19052,683.912649 359.248823,683.912569 358.668052,683.331699 C358.123579,682.787133 358.089621,681.925435 358.566125,681.341309 L358.668232,681.228361 L362.746348,677.150941 C363.327218,676.57017 364.268914,676.570251 364.849685,677.151121 Z M349.999617,671 C350.772704,671 351.408025,671.589845 351.480093,672.344049 L351.486901,672.487284 L351.486901,678.25412 C351.486901,679.075524 350.821022,679.741404 349.999617,679.741404 C349.226531,679.741404 348.59121,679.151559 348.519142,678.397355 L348.512333,678.25412 L348.512333,672.487284 C348.512333,671.66588 349.178213,671 349.999617,671 Z" id="晴天"></path>
        </g>
    </g>
</svg>