<?xml version="1.0" encoding="UTF-8"?>
<svg width="52px" height="42px" viewBox="0 0 52 42" version="1.1" xmlns="http://www.w3.org/2000/svg" xmlns:xlink="http://www.w3.org/1999/xlink">
    <!-- Generator: Sketch 60 (88103) - https://sketch.com -->
    <title>沙尘暴</title>
    <desc>Created with Sketch.</desc>
    <defs>
        <linearGradient x1="50%" y1="0%" x2="50%" y2="100%" id="linearGradient-1">
            <stop stop-color="#D6F1FF" offset="0%"></stop>
            <stop stop-color="#7DD4E4" offset="100%"></stop>
        </linearGradient>
    </defs>
    <g id="页面-1" stroke="none" stroke-width="1" fill="none" fill-rule="evenodd">
        <g id="天气icon" transform="translate(-773.000000, -279.000000)" fill="url(#linearGradient-1)" fill-rule="nonzero">
            <path d="M815.71375,302.515182 C820.842012,302.515182 825,306.653861 825,311.758463 C825,316.861642 820.841689,321 815.71375,321 C810.585811,321 806.4275,316.861642 806.4275,311.758463 C806.4275,310.930695 807.101722,310.259655 807.933417,310.259655 C808.765112,310.259655 809.439334,310.930695 809.439334,311.758463 C809.439334,315.206053 812.249149,318.002385 815.71375,318.002385 C819.178351,318.002385 821.988166,315.206053 821.988166,311.758463 C821.988166,308.385993 819.302053,305.63741 815.943744,305.516916 L815.71375,305.512797 L774.505917,305.512797 C773.674222,305.512797 773,304.841758 773,304.013989 C773,303.234913 773.597235,302.59467 774.360887,302.522043 L774.505917,302.515182 L815.71375,302.515182 Z M818.000316,283.732971 C822.32244,284.369664 825.307466,288.373894 824.667624,292.675399 C824.027686,296.977554 820.004901,299.948991 815.682165,299.310213 C814.859488,299.188644 814.291595,298.426331 814.41374,297.607538 C814.535885,296.788745 815.301814,296.223532 816.124491,296.345101 C818.801054,296.740621 821.291951,294.900715 821.688263,292.236398 C822.084517,289.572477 820.235813,287.092554 817.559341,286.698282 C816.736609,286.577085 816.168368,285.815028 816.29014,284.99618 C816.411912,284.177332 817.177584,283.611774 818.000316,283.732971 Z M804.953103,279 C810.081319,279 814.239353,283.13776 814.239353,288.241537 C814.239353,293.256584 810.22598,297.339304 805.222099,297.481014 L804.953103,297.484818 L784.505634,297.484818 C783.673939,297.484818 782.999717,296.813779 782.999717,295.986011 C782.999717,295.206934 783.596952,294.566691 784.360604,294.494064 L784.505634,294.487203 L804.953103,294.487203 C808.417923,294.487203 811.227519,291.690654 811.227519,288.241537 C811.227519,284.793402 808.418034,281.997615 804.953103,281.997615 C801.488173,281.997615 798.678688,284.793402 798.678688,288.241537 C798.678688,289.069305 798.004466,289.740345 797.172771,289.740345 C796.341075,289.740345 795.666853,289.069305 795.666853,288.241537 C795.666853,283.13776 799.824888,279 804.953103,279 Z" id="沙尘暴"></path>
        </g>
    </g>
</svg>