<?xml version="1.0" encoding="UTF-8"?>
<svg width="48px" height="42px" viewBox="0 0 48 42" version="1.1" xmlns="http://www.w3.org/2000/svg" xmlns:xlink="http://www.w3.org/1999/xlink">
    <!-- Generator: Sketch 60 (88103) - https://sketch.com -->
    <title>雾霾</title>
    <desc>Created with Sketch.</desc>
    <defs>
        <linearGradient x1="50%" y1="0%" x2="50%" y2="100%" id="linearGradient-1">
            <stop stop-color="#D6F1FF" offset="0%"></stop>
            <stop stop-color="#7DD4E4" offset="100%"></stop>
        </linearGradient>
    </defs>
    <g id="页面-1" stroke="none" stroke-width="1" fill="none" fill-rule="evenodd">
        <g id="天气icon" transform="translate(-626.000000, -279.000000)" fill="url(#linearGradient-1)" fill-rule="nonzero">
            <path d="M662.5,318 C663.328427,318 664,318.671573 664,319.5 C664,320.328427 663.328427,321 662.5,321 L637.5,321 C636.671573,321 636,320.328427 636,319.5 C636,318.671573 636.671573,318 637.5,318 L662.5,318 Z M662.5,313 C663.328427,313 664,313.671573 664,314.5 C664,315.328427 663.328427,316 662.5,316 L637.5,316 C636.671573,316 636,315.328427 636,314.5 C636,313.671573 636.671573,313 637.5,313 L662.5,313 Z M652.164324,279 C659.200799,279 665.184007,283.899695 666.76081,290.606775 L666.833654,290.932708 L666.886,291.19533 L667.195348,291.296138 C671.018422,292.608914 673.750888,296.146662 673.983855,300.29836 L673.996035,300.588989 L674,300.875111 C674,306.376287 669.640735,310.848689 664.214212,310.996241 L663.937383,311 L637.362287,311 C631.089855,311 626,305.884804 626,299.568249 C626,293.252183 631.090086,288.136498 637.362287,288.136498 C637.566387,288.136498 637.770006,288.141991 637.973011,288.152917 L638.36,288.180959 L638.528083,287.799631 C640.843228,282.724351 645.80795,279.276123 651.473896,279.015834 L651.821651,279.003895 L652.164324,279 Z M652.164324,282.040724 C647.041279,282.040724 642.545962,285.294871 640.85778,290.047595 L640.759875,290.334543 L640.342106,291.610898 L639.041252,291.346494 C638.489491,291.234346 637.928417,291.177222 637.362287,291.177222 C632.741281,291.177222 629,294.937319 629,299.568249 C629,304.115427 632.606216,307.822274 637.111107,307.955565 L637.362287,307.959276 L663.937383,307.959276 C667.840588,307.959276 671,304.784317 671,300.875111 C671,297.551025 668.698912,294.702386 665.522371,293.973313 L665.282511,293.922632 L664.209314,293.715266 L664.074816,292.616334 C663.339412,286.60764 658.246352,282.040724 652.164324,282.040724 Z" id="雾霾"></path>
        </g>
    </g>
</svg>