<?xml version="1.0" encoding="UTF-8"?>
<svg width="53px" height="42px" viewBox="0 0 53 42" version="1.1" xmlns="http://www.w3.org/2000/svg" xmlns:xlink="http://www.w3.org/1999/xlink">
    <!-- Generator: Sketch 60 (88103) - https://sketch.com -->
    <title>小雪</title>
    <desc>Created with Sketch.</desc>
    <defs>
        <linearGradient x1="50%" y1="0%" x2="50%" y2="100%" id="linearGradient-1">
            <stop stop-color="#D6F1FF" offset="0%"></stop>
            <stop stop-color="#7DD4E4" offset="100%"></stop>
        </linearGradient>
    </defs>
    <g id="页面-1" stroke="none" stroke-width="1" fill="none" fill-rule="evenodd">
        <g id="天气icon" transform="translate(-624.000000, -475.000000)" fill="url(#linearGradient-1)" fill-rule="nonzero">
            <path d="M654.190133,502.241161 C654.969889,502.241161 655.61069,502.82832 655.683381,503.579089 L655.690248,503.721672 L655.689429,506.577314 L658.584011,504.820346 C659.289602,504.391811 660.213593,504.608934 660.647803,505.305304 C661.056471,505.96071 660.885633,506.807051 660.275865,507.261625 L660.156424,507.342124 L657.051533,509.226441 L660.156424,511.112516 C660.862015,511.541051 661.082013,512.452967 660.647803,513.149337 C660.239135,513.804743 659.396612,514.035627 658.71065,513.703249 L658.584011,513.634294 L655.689429,511.875568 L655.690248,515.51949 C655.690248,516.337153 655.018623,517 654.190133,517 C653.410377,517 652.769575,516.412841 652.696885,515.662073 L652.690018,515.51949 L652.689199,511.876555 L649.796255,513.634294 C649.090664,514.062829 648.166673,513.845706 647.732463,513.149337 C647.323795,512.49393 647.494633,511.647589 648.104401,511.193015 L648.223842,511.112516 L651.327095,509.226441 L648.223842,507.342124 C647.518251,506.913589 647.298253,506.001673 647.732463,505.305304 C648.141131,504.649897 648.983654,504.419013 649.669616,504.751391 L649.796255,504.820346 L652.689199,506.576327 L652.690018,503.721672 C652.690018,502.904008 653.361642,502.241161 654.190133,502.241161 Z M652.905153,475 C660.812601,475 667.507796,480.519339 669.064956,487.994155 L669.11934,488.271435 L669.175895,488.288128 C673.663808,489.623728 676.872177,493.673904 676.99627,498.404852 L677,498.689509 C677,504.597169 672.223533,509.404714 666.274804,509.555846 L665.986062,509.55951 L663.502012,509.55951 L663.502012,506.598489 L665.986062,506.598489 C670.411269,506.598489 673.99977,503.057089 673.99977,498.689509 C673.99977,494.967935 671.373003,491.783339 667.756762,490.979599 L667.508686,490.928509 L666.436215,490.725004 L666.303005,489.655211 C665.475357,483.008456 659.743485,477.961021 652.905153,477.961021 C647.137562,477.961021 642.073341,481.566959 640.176479,486.835531 L640.074372,487.129927 L639.657402,488.379283 L638.351221,488.117683 C637.731315,487.993528 637.09804,487.930177 636.457986,487.930177 C631.235049,487.930177 627.00023,492.109443 627.00023,497.264333 C627.00023,502.330346 631.09028,506.454086 636.188732,506.594778 L636.457986,506.598489 L644.464006,506.598489 L644.464006,509.55951 L636.457986,509.55951 C629.578101,509.55951 624,504.054583 624,497.264333 C624,490.474083 629.578101,484.969156 636.457986,484.969156 C636.794535,484.969156 637.129766,484.982491 637.463071,485.008945 L637.667929,485.029117 L637.720841,484.905259 C640.234859,479.087502 645.993068,475.142824 652.546897,475.003797 L652.905153,475 Z" id="小雪"></path>
        </g>
    </g>
</svg>