<?xml version="1.0" encoding="UTF-8"?>
<svg width="48px" height="42px" viewBox="0 0 48 42" version="1.1" xmlns="http://www.w3.org/2000/svg" xmlns:xlink="http://www.w3.org/1999/xlink">
    <!-- Generator: Sketch 60 (88103) - https://sketch.com -->
    <title>小雨</title>
    <desc>Created with Sketch.</desc>
    <defs>
        <linearGradient x1="50%" y1="0%" x2="50%" y2="100%" id="linearGradient-1">
            <stop stop-color="#D6F1FF" offset="0%"></stop>
            <stop stop-color="#7DD4E4" offset="100%"></stop>
        </linearGradient>
    </defs>
    <g id="页面-1" stroke="none" stroke-width="1" fill="none" fill-rule="evenodd">
        <g id="天气icon" transform="translate(-926.000000, -475.000000)" fill="url(#linearGradient-1)" fill-rule="nonzero">
            <path d="M947.912118,506.89127 L948.170066,506.279782 L948.665188,505.139029 C949.897391,502.3498 950.479543,501.538837 951.729592,501.650636 L951.848781,501.663789 L951.964137,501.680961 C953.203589,501.891078 953.561843,502.825785 954.052588,505.849053 L954.290994,507.395001 L954.382015,508.048545 C954.65551,510.10243 954.785506,511.978595 954.67303,512.855047 C954.350828,515.379428 952.256355,517.274205 949.888147,516.967376 C947.520166,516.66142 945.971547,514.295869 946.294558,511.772024 C946.406514,510.896946 947.002005,509.12208 947.780692,507.210926 L947.912118,506.89127 Z M951.264693,507.520903 L951.171183,506.935996 L950.935818,507.477801 C950.084353,509.46329 949.363491,511.518452 949.281654,512.158105 C949.158995,513.116506 949.66312,513.886569 950.272691,513.965329 C950.882175,514.044295 951.563539,513.427896 951.685942,512.468899 C951.746561,511.996535 951.664233,510.687082 951.486478,509.172884 L951.383717,508.355597 L951.264693,507.520903 Z M952.164478,475 C959.318207,475 965.380536,480.059126 966.835344,486.927053 L966.888809,487.194056 L966.926092,487.205998 C970.981161,488.470704 973.874741,492.210686 973.996036,496.577368 L974,496.863022 C974,502.354838 969.644548,506.825244 964.216195,506.975206 L963.934478,506.979092 L961.054721,506.979092 L961.054721,503.952271 L963.934478,503.952271 C967.829751,503.952271 970.988303,500.777857 970.988303,496.863022 C970.988303,493.536413 968.68903,490.688314 965.519805,489.957809 L965.274327,489.905821 L964.197637,489.697771 L964.064019,488.604069 C963.329562,482.592355 958.238455,478.026822 952.164478,478.026822 C947.050437,478.026822 942.559243,481.27631 940.868613,486.027174 L940.768623,486.319904 L940.350388,487.597218 L939.039078,487.330077 C938.490854,487.218393 937.930627,487.161337 937.366289,487.161337 C932.752434,487.161337 929.011697,490.920293 929.011697,495.556444 C929.011697,500.107354 932.61508,503.812745 937.110875,503.948422 L937.366289,503.952271 L940.342849,503.952271 L940.342849,506.979092 L937.366289,506.979092 C931.089093,506.979092 926,501.864956 926,495.556444 C926,489.248524 931.089221,484.134516 937.366289,484.134516 C937.672805,484.134516 937.978414,484.14691 938.282428,484.171486 L938.35599,484.178332 L938.38494,484.109822 C940.680909,478.761942 945.891769,475.138717 951.821591,475.003895 L952.164478,475 Z" id="小雨"></path>
        </g>
    </g>
</svg>