<?xml version="1.0" encoding="UTF-8"?>
<svg width="55px" height="42px" viewBox="0 0 55 42" version="1.1" xmlns="http://www.w3.org/2000/svg" xmlns:xlink="http://www.w3.org/1999/xlink">
    <!-- Generator: Sketch 60 (88103) - https://sketch.com -->
    <title>夜晚多云</title>
    <desc>Created with Sketch.</desc>
    <defs>
        <linearGradient x1="50%" y1="0%" x2="50%" y2="100%" id="linearGradient-1">
            <stop stop-color="#D6F1FF" offset="0%"></stop>
            <stop stop-color="#7DD4E4" offset="100%"></stop>
        </linearGradient>
    </defs>
    <g id="页面-1" stroke="none" stroke-width="1" fill="none" fill-rule="evenodd">
        <g id="天气icon" transform="translate(-323.000000, -475.000000)" fill="url(#linearGradient-1)" fill-rule="nonzero">
            <path d="M336.935304,475 C344.417958,475.160755 350.510543,481.011414 351.114472,488.430643 C352.840311,487.532943 354.765478,486.988456 356.788553,486.878604 L357.223531,486.861746 L357.551057,486.857941 C364.136026,486.857941 369.735149,491.446289 371.236225,497.732192 L371.307849,498.047888 L371.357584,498.29814 L371.642638,498.393244 C375.208885,499.646611 377.753799,502.963991 377.983121,506.854572 L377.995958,507.147417 L378,507.428667 C378,512.62323 373.901907,516.851922 368.792544,516.996195 L368.522713,517 L343.75826,517 C337.854967,517 333.068465,512.167307 333.068465,506.205299 C333.068465,505.41665 333.15224,504.647757 333.311292,503.907196 C328.725757,502.831961 324.892123,499.556603 323.112884,495.080927 C322.595175,493.778631 323.956817,492.526466 325.191684,493.169262 C326.510092,493.855543 327.967732,494.218598 329.477668,494.218598 C334.635796,494.218598 338.815672,490.010978 338.815672,484.824039 C338.815672,482.036864 337.599774,479.448856 335.526257,477.670332 C334.497568,476.787992 335.060318,475.116232 336.359959,475.005762 L336.496998,475 L336.935304,475 Z M357.551057,489.88844 C352.829257,489.88844 348.683749,492.89961 347.117599,497.305037 L347.021154,497.588112 L346.603557,498.868899 L345.295869,498.598541 C344.794331,498.494851 344.27916,498.441937 343.75826,498.441937 C339.511381,498.441937 336.068201,501.918127 336.068201,506.205299 C336.068201,510.410743 339.380121,513.835497 343.514152,513.965663 L343.75826,513.969501 L368.522713,513.969501 C372.100305,513.969501 375.000264,511.040502 375.000264,507.428667 C375.000264,504.364198 372.894883,501.740253 369.989467,501.060878 L369.752165,501.010084 L368.680106,500.801628 L368.546969,499.706928 C367.868298,494.126639 363.164339,489.88844 357.551057,489.88844 Z M340.142327,478.578684 L340.180446,478.643478 C341.23552,480.491991 341.815409,482.611346 341.815409,484.824039 C341.815409,491.687115 336.290101,497.249097 329.477668,497.249097 C329.079282,497.249097 328.683447,497.229887 328.291159,497.191906 L327.90009,497.147684 L327.794412,497.132408 L327.922266,497.283021 C329.584627,499.198526 331.845453,500.536113 334.371077,501.039606 C336.184909,497.68539 339.708902,495.411438 343.75826,495.411438 L343.975042,495.413644 L343.975042,495.413644 L344.191358,495.42025 L344.619934,495.44644 L344.764447,495.121312 C345.57556,493.347453 346.728918,491.785358 348.131091,490.510481 C348.153234,490.224771 348.163912,489.935661 348.163912,489.644045 C348.163912,484.616476 344.990631,480.334394 340.548106,478.717014 L340.268813,478.619415 L340.142327,478.578684 Z" id="夜晚多云"></path>
        </g>
    </g>
</svg>