<?xml version="1.0" encoding="UTF-8"?>
<svg width="64px" height="39px" viewBox="0 0 64 39" version="1.1" xmlns="http://www.w3.org/2000/svg" xmlns:xlink="http://www.w3.org/1999/xlink">
    <!-- Generator: Sketch 60 (88103) - https://sketch.com -->
    <title>编组</title>
    <desc>Created with Sketch.</desc>
    <defs>
        <linearGradient x1="50%" y1="0%" x2="50%" y2="100%" id="linearGradient-1">
            <stop stop-color="#D6F1FF" offset="0%"></stop>
            <stop stop-color="#7DD4E4" offset="100%"></stop>
        </linearGradient>
        <linearGradient x1="50%" y1="0%" x2="50%" y2="100%" id="linearGradient-2">
            <stop stop-color="#D6F1FF" offset="0%"></stop>
            <stop stop-color="#7DD4E4" offset="100%"></stop>
        </linearGradient>
    </defs>
    <g id="页面-1" stroke="none" stroke-width="1" fill="none" fill-rule="evenodd">
        <g id="天气icon" transform="translate(-850.000000, -873.000000)" fill-rule="nonzero">
            <g id="编组" transform="translate(850.000000, 873.000000)">
                <path d="M28.90409,3 C36.8065804,3 43.4989731,8.62463216 45.0633118,16.2439176 L45.1201957,16.5401928 L45.1927361,16.5620975 C49.6703176,17.9318789 52.8699356,22.0586437 52.9961293,26.8779544 L53,27.173862 C53,33.2048507 48.2220286,38.1123052 42.2702724,38.2665779 L41.9813833,38.2703179 L37.5942968,38.2703179 L37.5942968,35.2341733 L41.9813833,35.2341733 C46.4016037,35.2341733 49.9851533,31.6253083 49.9851533,27.173862 C49.9851533,23.3837846 47.3642813,20.1395771 43.755245,19.3177032 L43.501869,19.2643169 L42.4244223,19.0555004 L42.2905759,17.9587841 C41.4635978,11.1826563 35.7362952,6.03614458 28.90409,6.03614458 C23.1428302,6.03614458 18.0842002,9.71048743 16.1898067,15.0787302 L16.0859728,15.3843888 L15.66704,16.6669549 L14.3532902,16.3975865 C13.7337318,16.2705536 13.1014539,16.2058558 12.4622658,16.2058558 C7.24482491,16.2058558 3.0148467,20.4659299 3.0148467,25.7200145 C3.0148467,30.8824214 7.09742462,35.0844086 12.1885781,35.2302578 L12.4622658,35.2341733 L18.9930099,35.2341733 L18.9930099,38.2703179 L12.4622658,38.2703179 C5.57947896,38.2703179 0,32.6514236 0,25.7200145 C0,18.7891477 5.57973716,13.1697112 12.4622658,13.1697112 C12.7990873,13.1697112 13.1345809,13.1833614 13.4681861,13.2104587 L13.66831,13.2307952 L13.717758,13.1105299 C16.2300784,7.17247018 21.9899106,3.14579277 28.5457254,3.00387638 L28.90409,3 Z M28.1385692,18.6506024 C31.1911679,18.6506024 33.6657881,21.1427042 33.6657881,24.2168675 C33.6657881,27.2910308 31.1911679,29.7831325 28.1385692,29.7831325 C25.0859704,29.7831325 22.6113502,27.2910308 22.6113502,24.2168675 C22.6113502,21.1427042 25.0859704,18.6506024 28.1385692,18.6506024 Z M28.1385692,21.686747 C26.7510243,21.686747 25.6261969,22.8195205 25.6261969,24.2168675 C25.6261969,25.6142144 26.7510243,26.746988 28.1385692,26.746988 C29.5261141,26.746988 30.6509414,25.6142144 30.6509414,24.2168675 C30.6509414,22.8195205 29.5261141,21.686747 28.1385692,21.686747 Z" id="阴天" fill="url(#linearGradient-1)"></path>
                <path d="M45.8144075,0 C51.7785513,0 56.8294136,4.30574708 58.0100466,10.1384336 L58.0529779,10.365237 L58.1077254,10.3820055 C61.4870321,11.4305953 63.9018382,14.5897006 63.9970787,18.2789611 L64,18.5054832 C64,23.1223027 60.3939839,26.8790387 55.9020924,26.997137 L55.6840629,27 L52.3730542,27 L52.3730542,24.6757821 L55.6840629,24.6757821 C59.0200783,24.6757821 61.724644,21.9131375 61.724644,18.5054832 C61.724644,15.6041175 59.7466274,13.1206241 57.0228264,12.4914662 L56.8315992,12.4505982 L56.0184319,12.2907458 L55.9174158,11.4511917 C55.2932813,6.26395605 50.9707888,2.32421788 45.8144075,2.32421788 C41.7702838,2.32421788 38.1848892,4.75742898 36.5529834,8.40406049 L34.5811361,7.22491851 C36.5823764,2.96274773 40.7853172,0.107453353 45.5439437,0.00296742989 L45.8144075,0 Z" id="形状结合" fill="url(#linearGradient-2)" opacity="0.5"></path>
            </g>
        </g>
    </g>
</svg>