<?xml version="1.0" encoding="UTF-8"?>
<svg width="51px" height="42px" viewBox="0 0 51 42" version="1.1" xmlns="http://www.w3.org/2000/svg" xmlns:xlink="http://www.w3.org/1999/xlink">
    <!-- Generator: Sketch 60 (88103) - https://sketch.com -->
    <title>雨加冰雹</title>
    <desc>Created with Sketch.</desc>
    <defs>
        <linearGradient x1="50%" y1="0%" x2="50%" y2="100%" id="linearGradient-1">
            <stop stop-color="#D6F1FF" offset="0%"></stop>
            <stop stop-color="#7DD4E4" offset="100%"></stop>
        </linearGradient>
    </defs>
    <g id="页面-1" stroke="none" stroke-width="1" fill="none" fill-rule="evenodd">
        <g id="天气icon" transform="translate(-475.000000, -279.000000)" fill="url(#linearGradient-1)" fill-rule="nonzero">
            <path d="M490.988087,307.628283 C491.347693,307.286402 491.7819,307.070923 492.404954,307.200233 C492.986609,307.321161 493.2835,307.642808 493.501136,308.059405 C493.583994,308.218011 493.645108,308.38347 493.699597,308.572516 C493.775696,308.836538 493.842808,309.167027 493.906544,309.570274 C494.016527,310.266121 494.117627,311.194884 494.198625,312.221901 L494.245551,312.859028 C494.375506,314.758372 494.406424,316.518527 494.29457,317.30619 C493.969366,319.59013 492.29109,321.358572 490.272592,320.93776 C488.349073,320.534944 487.321264,318.328617 487.637223,316.101356 C487.741859,315.362161 488.20024,313.869723 488.789662,312.254247 L488.90166,311.950058 L489.133565,311.33672 L489.401965,310.654036 C489.6674,309.994005 489.921729,309.407627 490.145029,308.946153 C490.319408,308.585781 490.477167,308.295534 490.627329,308.069239 C490.738931,307.901054 490.851467,307.75817 490.988087,307.628283 Z M508.256622,310.15542 C510.976507,310.15542 513.180831,312.384284 513.180831,315.133421 C513.180831,317.883115 510.97672,320.111423 508.256622,320.111423 C505.537757,320.111423 503.334701,317.882819 503.334701,315.133421 C503.334701,312.384579 505.53797,310.15542 508.256622,310.15542 Z M491.38021,314.57589 L491.347037,313.887925 L491.1735,314.393146 C490.924475,315.131888 490.729197,315.775316 490.62787,316.196329 L490.597629,316.328255 L490.561198,316.525003 C490.450533,317.305103 490.696033,317.899945 490.84099,317.999189 L490.855716,318.005728 L490.860455,317.993095 L490.941874,317.905553 C491.140116,317.69666 491.307055,317.328785 491.370799,316.881106 C491.410019,316.604922 491.419596,316.022287 491.4026,315.281406 L491.38021,314.57589 Z M508.256622,313.142221 C507.169717,313.142221 506.28854,314.033753 506.28854,315.133421 C506.28854,316.233544 507.169403,317.124622 508.256622,317.124622 C509.345478,317.124622 510.226992,316.23343 510.226992,315.133421 C510.226992,314.033866 509.345164,313.142221 508.256622,313.142221 Z M502.810832,279 C510.414189,279 516.853961,284.429372 518.366965,291.787372 L518.421926,292.075318 L518.475247,292.09057 C522.790383,293.414781 525.874625,297.408402 525.996269,302.072507 L526,302.358885 C526,308.192723 521.397506,312.940401 515.663725,313.092034 L515.380839,313.095771 L515.380839,310.10897 C519.614046,310.10897 523.046161,306.638756 523.046161,302.358885 C523.046161,298.713899 520.535744,295.594188 517.08012,294.805133 L516.837516,294.753887 L515.781443,294.548731 L515.650273,293.469463 C514.857099,286.943191 509.36394,281.986801 502.810832,281.986801 C497.28583,281.986801 492.434615,285.524572 490.615277,290.694226 L490.515549,290.988578 L490.10544,292.247371 L488.820628,291.985198 C488.227691,291.864205 487.620933,291.802535 487.006043,291.802535 C482.006364,291.802535 477.953839,295.899871 477.953839,300.955752 C477.953839,305.922453 481.865689,309.964891 486.743807,310.105203 L487.006043,310.10897 L487.006043,313.095771 C480.375319,313.095771 475,307.660742 475,300.955752 C475,294.250239 480.375071,288.815734 487.006043,288.815734 C487.330735,288.815734 487.653947,288.828784 487.975133,288.854692 L488.147045,288.871477 L488.196786,288.751843 C490.621982,283.025139 496.158554,279.143145 502.459981,279.003875 L502.810832,279 Z M498.865771,299.663003 C499.192559,299.352614 499.581054,299.146566 500.116573,299.208525 L500.281725,299.235317 L500.448356,299.277869 C500.923645,299.422816 501.183128,299.720572 501.378662,300.095129 C501.461432,300.25368 501.522504,300.419103 501.576961,300.608099 C501.653045,300.872158 501.720151,301.202692 501.783877,301.605958 C501.852617,302.04096 501.91788,302.566933 501.976921,303.15096 L502.011577,303.508079 L502.075883,304.257795 L502.122791,304.895148 C502.25267,306.795058 502.283333,308.554786 502.171211,309.341265 C501.847174,311.623846 500.168254,313.392635 498.149875,312.973162 C496.226183,312.570385 495.197187,310.361991 495.514357,308.137227 C495.618999,307.397742 496.077353,305.90494 496.666645,304.289515 L496.778617,303.98534 L497.010462,303.372063 L497.278868,302.689291 C497.544312,302.029188 497.79866,301.44278 498.022014,300.981274 C498.196462,300.62082 498.354313,300.330498 498.504611,300.104124 C498.616319,299.935871 498.728986,299.792923 498.865771,299.663003 Z M499.246761,306.361657 L499.224926,305.921132 L498.988368,306.614681 C498.693153,307.503928 498.484928,308.231585 498.438195,308.561834 C498.327284,309.339816 498.573156,309.935234 498.717477,310.034417 L498.73262,310.040926 L498.737143,310.028182 L498.818878,309.940312 C499.017129,309.731449 499.183852,309.364106 499.247467,308.915993 L499.267535,308.71486 C499.300656,308.243783 499.291977,307.374066 499.246761,306.361657 L499.246761,306.361657 Z M510.062517,300.199417 C512.146972,300.199417 513.83724,301.907781 513.83724,304.015508 C513.83724,306.123797 512.147161,307.832352 510.062517,307.832352 C507.977868,307.832352 506.28854,306.123791 506.28854,304.015508 C506.28854,301.907787 507.978057,300.199417 510.062517,300.199417 Z M510.062517,303.186218 C509.609417,303.186218 509.242379,303.557352 509.242379,304.015508 C509.242379,304.474376 509.609376,304.845552 510.062517,304.845552 C510.515949,304.845552 510.883401,304.474082 510.883401,304.015508 C510.883401,303.557645 510.515908,303.186218 510.062517,303.186218 Z" id="雨加冰雹"></path>
        </g>
    </g>
</svg>