<?xml version="1.0" encoding="UTF-8"?>
<svg width="54px" height="42px" viewBox="0 0 54 42" version="1.1" xmlns="http://www.w3.org/2000/svg" xmlns:xlink="http://www.w3.org/1999/xlink">
    <!-- Generator: Sketch 60 (88103) - https://sketch.com -->
    <title>雨夹雪</title>
    <desc>Created with Sketch.</desc>
    <defs>
        <linearGradient x1="50%" y1="0%" x2="50%" y2="100%" id="linearGradient-1">
            <stop stop-color="#D6F1FF" offset="0%"></stop>
            <stop stop-color="#7DD4E4" offset="100%"></stop>
        </linearGradient>
    </defs>
    <g id="页面-1" stroke="none" stroke-width="1" fill="none" fill-rule="evenodd">
        <g id="天气icon" transform="translate(-173.000000, -475.000000)" fill="url(#linearGradient-1)" fill-rule="nonzero">
            <path d="M189.130862,503.132971 C189.467865,502.818595 189.871462,502.610836 190.421472,502.67797 L190.590947,502.706525 L190.757711,502.749471 C191.233691,502.895279 191.49645,503.191129 191.69695,503.564668 C191.782964,503.724915 191.847392,503.893392 191.905394,504.086447 C191.970996,504.3048 192.031201,504.568208 192.088875,504.879544 L192.172263,505.373083 L192.262374,506.00842 C192.321035,506.458332 192.37658,506.957865 192.42728,507.488498 L192.491651,508.209766 L192.543367,508.872574 C192.678607,510.733678 192.716109,512.422439 192.61064,513.196905 C192.287761,515.560198 190.531571,517.38082 188.420354,516.931525 C186.426503,516.506891 185.3368,514.236997 185.649992,511.945808 C185.742879,511.261516 186.128993,509.95302 186.644557,508.486682 L186.968119,507.591669 L187.197205,506.985002 L187.476437,506.273929 C187.752705,505.586544 188.017773,504.976161 188.250888,504.496225 C188.432683,504.121947 188.597382,503.82084 188.754344,503.586735 C188.87067,503.413238 188.988124,503.266124 189.130862,503.132971 Z M208.465606,503.981075 C209.248365,503.981075 209.891634,504.575575 209.964605,505.33573 L209.971498,505.480096 L209.970655,506.915159 L211.518244,505.968523 C212.226552,505.53463 213.154101,505.754467 213.589983,506.459544 C214.000225,507.123145 213.82873,507.980067 213.216613,508.440325 L213.096712,508.521831 L211.338005,509.597407 L213.096712,510.675406 C213.80502,511.109299 214.025865,512.032617 213.589983,512.737693 C213.179742,513.401294 212.333974,513.635065 211.645371,513.298531 L211.518244,513.228714 L209.970655,512.280655 L209.971498,514.305501 C209.971498,515.133388 209.297287,515.804523 208.465606,515.804523 C207.682847,515.804523 207.039578,515.210023 206.966607,514.449867 L206.959714,514.305501 L206.958871,512.280655 L205.412968,513.228714 C204.70466,513.662607 203.777111,513.44277 203.341229,512.737693 C202.930987,512.074092 203.102482,511.21717 203.714599,510.756912 L203.8345,510.675406 L205.591521,509.598406 L203.8345,508.521831 C203.126192,508.087938 202.905347,507.16462 203.341229,506.459544 C203.75147,505.795943 204.597238,505.562172 205.285842,505.898706 L205.412968,505.968523 L206.958871,506.915159 L206.959714,505.480096 C206.959714,504.652209 207.633925,503.981075 208.465606,503.981075 Z M189.552766,509.294605 L189.362922,509.838333 L189.128346,510.542057 C188.862343,511.364264 188.677699,512.030137 188.634464,512.348644 C188.566877,512.84309 188.636437,513.322812 188.803941,513.671729 C188.91345,513.899841 189.015761,513.99244 189.050235,513.999782 L189.048037,513.997479 L189.091073,513.957859 L189.170744,513.879677 C189.384051,513.658545 189.561275,513.269047 189.626241,512.793533 L189.645229,512.592822 C189.680916,512.047833 189.656812,510.983761 189.583916,509.769559 L189.552766,509.294605 Z M198.145874,499.18037 C198.467393,498.856644 198.855036,498.635246 199.4014,498.674681 L199.570163,498.694495 L199.740236,498.729376 C200.226933,498.852604 200.507237,499.139957 200.72447,499.506775 C200.818132,499.664932 200.889615,499.831852 200.955204,500.023523 C201.047362,500.29284 201.133004,500.632042 201.218195,501.046961 L201.316257,501.559547 C201.381422,501.923188 201.44591,502.328622 201.508156,502.7636 L201.554396,503.095181 L201.643768,503.786987 L201.717639,504.414979 C201.940039,506.392527 202.050018,508.233753 201.964191,509.056942 C201.7207,511.415602 200.03395,513.297584 197.918148,512.961867 C195.8909,512.638444 194.710502,510.415198 194.94987,508.109156 C195.030476,507.33221 195.462439,505.739641 196.028966,504.017697 L196.130294,503.712621 L196.340272,503.097764 L196.597024,502.376824 C196.851561,501.679594 197.097328,501.059522 197.315212,500.570891 C197.484859,500.190436 197.639686,499.883584 197.788543,499.644169 C197.898214,499.46778 198.009649,499.317529 198.145874,499.18037 Z M202.453146,475 C210.505292,475 217.323475,480.669435 218.909251,488.34652 L218.967858,488.646089 L219.038811,488.666835 C223.605205,490.037726 226.869932,494.194854 226.996204,499.050469 L227,499.342628 C227,505.406305 222.140041,510.339778 216.08591,510.494868 L215.792051,510.498628 L215.792051,507.500586 C220.31872,507.500586 223.988216,503.848255 223.988216,499.342628 C223.988216,495.503613 221.301747,492.218332 217.60376,491.38919 L217.350077,491.336486 L216.273535,491.130411 L216.139805,490.047297 C215.294281,483.199193 209.438566,477.998042 202.453146,477.998042 C196.560721,477.998042 191.38793,481.713165 189.450114,487.141945 L189.345802,487.445294 L188.927225,488.710271 L187.616015,488.445399 C186.982201,488.317365 186.334798,488.25206 185.679755,488.25206 C180.340468,488.25206 176.011784,492.56121 176.011784,497.876728 C176.011784,503.100413 180.192308,507.351717 185.404494,507.496761 L185.679755,507.500586 L185.679755,510.498628 C178.676951,510.498628 173,504.847864 173,497.876728 C173,490.905471 178.677072,485.254018 185.679755,485.254018 C186.022599,485.254018 186.36399,485.267705 186.703362,485.294861 L186.929502,485.317263 L186.98126,485.195174 C189.537307,479.205983 195.409371,475.14444 202.094264,475.003774 L202.453146,475 Z M198.781877,505.288221 L198.520658,506.128311 L198.318883,506.818951 C198.113659,507.546706 197.975732,508.127866 197.945713,508.417214 C197.852928,509.311089 198.203331,509.971062 198.393499,510.001402 L198.454316,509.951396 C198.476685,509.930685 198.50565,509.901674 198.54193,509.861195 C198.752985,509.625711 198.919008,509.226836 198.968341,508.748962 C199.002765,508.418784 198.979215,507.680046 198.911841,506.757823 L198.853314,506.035268 L198.781877,505.288221 Z" id="雨夹雪"></path>
        </g>
    </g>
</svg>