<?xml version="1.0" encoding="UTF-8"?>
<svg width="48px" height="42px" viewBox="0 0 48 42" version="1.1" xmlns="http://www.w3.org/2000/svg" xmlns:xlink="http://www.w3.org/1999/xlink">
    <!-- Generator: Sketch 60 (88103) - https://sketch.com -->
    <title>中雨</title>
    <desc>Created with Sketch.</desc>
    <defs>
        <linearGradient x1="50%" y1="0%" x2="50%" y2="100%" id="linearGradient-1">
            <stop stop-color="#D6F1FF" offset="0%"></stop>
            <stop stop-color="#7DD4E4" offset="100%"></stop>
        </linearGradient>
    </defs>
    <g id="页面-1" stroke="none" stroke-width="1" fill="none" fill-rule="evenodd">
        <g id="天气icon" transform="translate(-776.000000, -475.000000)" fill="url(#linearGradient-1)" fill-rule="nonzero">
            <path d="M802.912118,506.89127 L803.170066,506.279782 L803.665188,505.139029 C804.897391,502.3498 805.479543,501.538837 806.729592,501.650636 L806.848781,501.663789 L806.964137,501.680961 C808.203589,501.891078 808.561843,502.825785 809.052588,505.849053 L809.290994,507.395001 L809.382015,508.048545 C809.65551,510.10243 809.785506,511.978595 809.67303,512.855047 C809.350828,515.379428 807.256355,517.274205 804.888147,516.967376 C802.520166,516.66142 800.971547,514.295869 801.294558,511.772024 C801.406514,510.896946 802.002005,509.12208 802.780692,507.210926 L802.912118,506.89127 Z M792.878667,506.781965 L793.161499,506.181183 L793.702605,505.061883 C795.089381,502.240244 795.70085,501.489982 797.02534,501.716456 C798.233761,501.923272 798.613942,502.697935 798.958213,505.203007 L799.06478,506.037285 L799.199209,507.215796 L799.267931,507.876764 C799.482571,510.067775 799.550363,512.104529 799.394857,513.022875 C798.969743,515.533405 796.798576,517.341755 794.443618,516.937929 C792.088887,516.534946 790.637127,514.106131 791.062274,511.595411 C791.201724,510.773579 791.805157,509.166771 792.593289,507.40799 L792.878667,506.781965 Z M806.264693,507.520903 L806.171183,506.935996 L805.935818,507.477801 C805.084353,509.46329 804.363491,511.518452 804.281654,512.158105 C804.158995,513.116506 804.66312,513.886569 805.272691,513.965329 C805.882175,514.044295 806.563539,513.427896 806.685942,512.468899 C806.746561,511.996535 806.664233,510.687082 806.486478,509.172884 L806.383717,508.355597 L806.264693,507.520903 Z M796.136208,506.956175 L795.876145,507.491962 L795.636187,508.001506 C794.809093,509.784132 794.129703,511.523202 794.031197,512.103733 C793.869545,513.058374 794.342899,513.850301 794.949669,513.954142 C795.556802,514.058253 796.264321,513.468965 796.425847,512.515063 C796.519582,511.961508 796.462687,510.24137 796.290751,508.387857 L796.264103,508.108959 L796.205735,507.54826 L796.136208,506.956175 Z M802.164478,475 C809.318207,475 815.380536,480.059126 816.835344,486.927053 L816.888809,487.194056 L816.926092,487.205998 C820.981161,488.470704 823.874741,492.210686 823.996036,496.577368 L824,496.863022 C824,502.354838 819.644548,506.825244 814.216195,506.975206 L813.934478,506.979092 L811.054721,506.979092 L811.054721,503.952271 L813.934478,503.952271 C817.829751,503.952271 820.988303,500.777857 820.988303,496.863022 C820.988303,493.536413 818.68903,490.688314 815.519805,489.957809 L815.274327,489.905821 L814.197637,489.697771 L814.064019,488.604069 C813.329562,482.592355 808.238455,478.026822 802.164478,478.026822 C797.050437,478.026822 792.559243,481.27631 790.868613,486.027174 L790.768623,486.319904 L790.350388,487.597218 L789.039078,487.330077 C788.490854,487.218393 787.930627,487.161337 787.366289,487.161337 C782.752434,487.161337 779.011697,490.920293 779.011697,495.556444 C779.011697,500.107354 782.61508,503.812745 787.110875,503.948422 L787.366289,503.952271 L790.342849,503.952271 L790.342849,506.979092 L787.366289,506.979092 C781.089093,506.979092 776,501.864956 776,495.556444 C776,489.248524 781.089221,484.134516 787.366289,484.134516 C787.672805,484.134516 787.978414,484.14691 788.282428,484.171486 L788.35599,484.178332 L788.38494,484.109822 C790.680909,478.761942 795.891769,475.138717 801.821591,475.003895 L802.164478,475 Z" id="中雨"></path>
        </g>
    </g>
</svg>