<?xml version="1.0" encoding="UTF-8"?>
<svg width="42px" height="42px" viewBox="0 0 42 42" version="1.1" xmlns="http://www.w3.org/2000/svg" xmlns:xlink="http://www.w3.org/1999/xlink">
    <!-- Generator: Sketch 60 (88103) - https://sketch.com -->
    <title>中雨转晴</title>
    <desc>Created with Sketch.</desc>
    <defs>
        <linearGradient x1="50%" y1="0%" x2="50%" y2="100%" id="linearGradient-1">
            <stop stop-color="#D6F1FF" offset="0%"></stop>
            <stop stop-color="#7DD4E4" offset="100%"></stop>
        </linearGradient>
    </defs>
    <g id="页面-1" stroke="none" stroke-width="1" fill="none" fill-rule="evenodd">
        <g id="天气icon" transform="translate(-629.000000, -671.000000)" fill="url(#linearGradient-1)" fill-rule="nonzero">
            <g id="编组-2" transform="translate(600.000000, 642.000000)">
                <path d="M54.3589008,57.4777035 L54.4840183,57.4916335 L54.5985467,57.5082787 C55.7478383,57.6952169 56.0747335,58.3883508 56.4911552,60.8689901 L56.6242733,61.6976493 L56.7620123,62.6082469 L56.8512907,63.2579051 L56.929307,63.8922264 C57.0974787,65.3486115 57.1660402,66.6187923 57.0815337,67.2760949 C56.7921305,69.5404786 54.90492,71.2476328 52.7583307,70.9704571 C50.6113622,70.6933553 49.2156703,68.5622474 49.5051472,66.2972881 C49.6015295,65.545106 50.0928294,64.0698727 50.7411851,62.4677209 L50.8645342,62.1659756 L51.3666261,60.9870618 L51.7110552,60.2051374 L51.9202788,59.7480992 C52.7961834,57.8750952 53.2966206,57.3794339 54.3589008,57.4777035 Z M45.7142278,57.5142999 L45.835006,57.5329307 L45.948704,57.5541876 C47.0495338,57.7793284 47.3654551,58.4444936 47.669562,60.7370912 L47.8014242,61.8227336 L47.9346404,63.0661775 L47.992151,63.7118792 L48.0387306,64.3381048 C48.127355,65.6684128 48.1345603,66.8087816 48.0314467,67.4160456 C47.6492685,69.6667959 45.6942414,71.2948474 43.5608669,70.9289292 C41.4273541,70.5637801 40.1193099,68.3768844 40.5014294,66.1264804 C40.6203908,65.4256162 41.1120193,64.1041051 41.7605458,62.6445101 L42.0278128,62.0544514 L42.3087469,61.4565269 L42.7041352,60.635983 C43.9860569,58.0044011 44.4899442,57.3479249 45.7142278,57.5142999 Z M53.7808579,62.9779384 L53.5780641,63.4683304 L53.378436,63.9674809 L53.120418,64.6419993 C52.7699718,65.5840892 52.5237185,66.3636029 52.4829463,66.6817951 C52.3928369,67.3868398 52.7475657,67.9284817 53.1410318,67.9792651 C53.5342755,68.0300422 54.013655,67.5963996 54.1038158,66.8909553 C54.1573249,66.4747533 54.069438,65.2046886 53.8909847,63.7859484 L53.8199187,63.2483289 L53.7808579,62.9779384 Z M44.9842943,63.7839316 L44.9090574,62.9849752 L44.5692361,63.7258694 C43.9854228,65.030131 43.5313293,66.2191347 43.4610058,66.6334473 C43.3421348,67.3335105 43.6744575,67.8891149 44.0656743,67.9560715 C44.4563971,68.0230885 44.9529201,67.6096083 45.0718863,66.9089844 C45.142399,66.4937163 45.105751,65.2141775 44.9842943,63.7839316 Z M60.2428112,34.0263222 C63.5590618,34.0263222 66.247414,36.7267556 66.247414,40.0579089 C66.247414,42.8085425 64.4144144,45.129132 61.9084665,45.8544132 C62.0468169,46.2618945 62.163988,46.6804332 62.2592745,47.1077087 L62.2933831,47.2716866 L62.4922858,47.3406527 C65.6737834,48.4813699 67.9182787,51.4795867 68.0258737,54.963964 L68.0299178,55.2261824 C68.0299178,59.7684702 64.425069,63.4655168 59.9289198,63.6008867 L59.6734871,63.6047271 L57.3677397,63.6047271 L57.3677397,60.5889337 L59.6734871,60.5889337 C62.631135,60.5889337 65.0276165,58.1870799 65.0276165,55.2261824 C65.0276165,52.7252878 63.3019563,50.5801993 60.9172119,50.0128936 L60.6917438,49.9643684 L59.6184724,49.75745 L59.4848133,48.6679192 C58.9142699,44.0170961 54.9630461,40.4836447 50.2483377,40.4836447 C46.2909367,40.4836447 42.8153081,42.9818174 41.4933488,46.6383215 L41.4026084,46.9014523 L40.9850012,48.173308 L39.6783891,47.9069062 C39.2603361,47.8216704 38.8320412,47.7783371 38.3972716,47.7783371 C34.8646739,47.7783371 32.0023014,50.6466552 32.0023014,54.1836354 C32.0023014,57.6433411 34.7418001,60.4638915 38.1678722,60.5848891 L38.3972716,60.5889337 L40.7812542,60.5889337 L40.7812542,63.6047271 L38.3972716,63.6047271 C33.2083633,63.6047271 29,59.3873914 29,54.1836354 C29,48.9794502 33.2081654,44.7625438 38.3972716,44.7625438 C38.5243927,44.7625438 38.651224,44.7650868 38.7777115,44.7701577 L39.0035306,44.7836571 L39.1222074,44.5253324 C41.0841719,40.3768601 45.2312541,37.5909947 49.934015,37.4718307 L50.2483377,37.4678514 C51.7462199,37.4678514 53.1858441,37.7375469 54.5192296,38.2327358 C55.2874919,35.7941507 57.5596259,34.0263222 60.2428112,34.0263222 Z M67.3653766,46.7715546 L68.2421188,48.5691427 C68.4842245,49.065533 68.2780862,49.6642022 67.7816959,49.9063079 C67.2853057,50.1484136 66.6866365,49.9422752 66.4445308,49.445885 L65.5677885,47.6482969 C65.3256828,47.1519067 65.5318211,46.5532374 66.0282114,46.3111317 C66.5246016,46.069026 67.1232709,46.2751644 67.3653766,46.7715546 Z M68.2738996,40.8655055 L70.2241346,41.3177761 C70.7626772,41.4426672 71.0984609,41.9824483 70.9741285,42.523411 C70.8497962,43.0643737 70.3124299,43.4016664 69.7738874,43.2767753 L67.8236523,42.8245047 C67.2851098,42.6996136 66.9493261,42.1598325 67.0736584,41.6188698 C67.1979908,41.0779071 67.735357,40.7406144 68.2738996,40.8655055 Z M60.2428112,37.0421156 C58.7152443,37.0421156 57.4541331,38.1880752 57.2650076,39.6708445 C58.5637795,40.5756207 59.6816809,41.7251641 60.5512574,43.0565795 C62.0643581,42.9029863 63.2451126,41.6189573 63.2451126,40.0579089 C63.2451126,38.3923323 61.9009365,37.0421156 60.2428112,37.0421156 Z M68.8401767,33.1516929 C69.1880074,33.5831583 69.1217728,34.2161698 68.6922377,34.5655635 L67.1367535,35.8308304 C66.7072184,36.1802242 66.0770389,36.113692 65.7292082,35.6822266 C65.3813775,35.2507612 65.447612,34.6177497 65.8771472,34.268356 L67.4326314,33.0030891 C67.8621665,32.6536953 68.492346,32.7202275 68.8401767,33.1516929 Z M53.0529911,33.0030891 L54.6084753,34.268356 C55.0380105,34.6177497 55.104245,35.2507612 54.7564143,35.6822266 C54.4085836,36.113692 53.7784041,36.1802242 53.348869,35.8308304 L51.7933848,34.5655635 C51.3638496,34.2161698 51.2976151,33.5831583 51.6454458,33.1516929 C51.9932765,32.7202275 52.623456,32.6536953 53.0529911,33.0030891 Z M60.2428112,29 C60.7955197,29 61.2435784,29.4500722 61.2435784,30.0052644 L61.2435784,32.0157933 C61.2435784,32.5709856 60.7955197,33.0210578 60.2428112,33.0210578 C59.6901028,33.0210578 59.2420441,32.5709856 59.2420441,32.0157933 L59.2420441,30.0052644 C59.2420441,29.4500722 59.6901028,29 60.2428112,29 Z" id="中雨转晴"></path>
            </g>
        </g>
    </g>
</svg>