<?xml version="1.0" encoding="UTF-8"?>
<svg width="53px" height="42px" viewBox="0 0 53 42" version="1.1" xmlns="http://www.w3.org/2000/svg" xmlns:xlink="http://www.w3.org/1999/xlink">
    <!-- Generator: Sketch 60 (88103) - https://sketch.com -->
    <title>中雪</title>
    <desc>Created with Sketch.</desc>
    <defs>
        <linearGradient x1="50%" y1="0%" x2="50%" y2="100%" id="linearGradient-1">
            <stop stop-color="#D6F1FF" offset="0%"></stop>
            <stop stop-color="#7DD4E4" offset="100%"></stop>
        </linearGradient>
    </defs>
    <g id="页面-1" stroke="none" stroke-width="1" fill="none" fill-rule="evenodd">
        <g id="天气icon" transform="translate(-474.000000, -475.000000)" fill="url(#linearGradient-1)" fill-rule="nonzero">
            <path d="M507.37822,501.744557 C508.157987,501.744557 508.798799,502.351472 508.87149,503.127503 L508.878357,503.274883 L508.878219,507.039487 L511.772164,505.223512 C512.477765,504.780557 513.40177,505.004986 513.835987,505.724787 C514.244661,506.402247 514.073821,507.277065 513.464043,507.746935 L513.3446,507.830143 L510.239344,509.777751 L513.3446,511.7274 C514.050202,512.170355 514.270203,513.112954 513.835987,513.832756 C513.427313,514.510216 512.584777,514.748868 511.898805,514.405306 L511.772164,514.334031 L508.878219,512.517036 L508.878357,515.469673 C508.878357,516.314849 508.206723,517 507.37822,517 C506.598452,517 505.957641,516.393085 505.884949,515.617054 L505.878082,515.469673 L505.877944,512.516016 L502.984275,514.334031 C502.278674,514.776985 501.354669,514.552557 500.920453,513.832756 C500.511778,513.155296 500.682619,512.280478 501.292396,511.810608 L501.411839,511.7274 L504.516819,509.777751 L501.411839,507.830143 C500.706237,507.387188 500.486236,506.444588 500.920453,505.724787 C501.329127,505.047327 502.171662,504.808675 502.857635,505.152236 L502.984275,505.223512 L505.877944,507.040507 L505.878082,503.274883 C505.878082,502.429707 506.549717,501.744557 507.37822,501.744557 Z M494.627051,505.809487 C495.406818,505.809487 496.04763,506.416402 496.120321,507.192433 L496.127188,507.339813 L496.12705,507.983188 L496.621298,507.668071 C497.323867,507.220129 498.249377,507.438006 498.688483,508.154714 C499.101759,508.829262 498.936878,509.705269 498.330314,510.179448 L498.21144,510.2635 L497.059135,510.997932 L498.21144,511.733001 C498.914009,512.180943 499.127589,513.125079 498.688483,513.841787 C498.275207,514.516335 497.431067,514.749013 496.74745,514.400601 L496.621298,514.32843 L496.12705,514.012675 L496.127188,515.469673 C496.127188,516.314849 495.455554,517 494.627051,517 C493.847283,517 493.206472,516.393085 493.13378,515.617054 L493.126913,515.469673 L493.126775,513.504607 L491.835856,514.32843 C491.133286,514.776372 490.207776,514.558495 489.76867,513.841787 C489.355394,513.167238 489.520275,512.291231 490.12684,511.817053 L490.245713,511.733001 L491.397616,510.997932 L490.245713,510.2635 C489.543144,509.815557 489.329564,508.871422 489.76867,508.154714 C490.181946,507.480165 491.026086,507.247487 491.709703,507.5959 L491.835856,507.668071 L493.126775,508.491257 L493.126913,507.339813 C493.126913,506.494637 493.798548,505.809487 494.627051,505.809487 Z M502.905588,475 C510.813014,475 517.508418,480.705639 519.06563,488.432165 L519.119859,488.718544 L519.176165,488.735874 C523.663223,490.115888 526.872154,494.303201 526.996269,499.193199 L527,499.487425 C527,505.593353 522.223957,510.561583 516.274666,510.717767 L515.985896,510.721553 L515.985896,507.6609 C520.411759,507.6609 523.999725,504.001364 523.999725,499.487425 C523.999725,495.640834 521.372367,492.34822 517.75748,491.518077 L517.509499,491.465315 L516.436868,491.255057 L516.303641,490.149142 C515.475955,483.278525 509.74382,478.060653 502.905588,478.060653 C497.137415,478.060653 492.073686,481.787639 490.176727,487.233756 L490.074614,487.538074 L489.658092,488.828061 L488.353029,488.559394 C487.731305,488.431403 487.097534,488.366064 486.457377,488.366064 C481.234547,488.366064 477.000275,492.685764 477.000275,498.014295 C477.000275,503.250582 481.089437,507.511687 486.18811,507.657066 L486.457377,507.6609 L486.457377,510.721553 C479.57727,510.721553 474,505.032902 474,498.014295 C474,490.995446 479.577507,485.305411 486.457377,485.305411 C486.793634,485.305411 487.128595,485.319144 487.461718,485.346374 L487.668975,485.367129 L487.721057,485.238502 C490.235115,479.224802 495.992923,475.147621 502.547301,475.003925 L502.905588,475 Z" id="中雪"></path>
        </g>
    </g>
</svg>