<?xml version="1.0" encoding="UTF-8"?>
<svg width="94px" height="77px" viewBox="0 0 94 77" version="1.1" xmlns="http://www.w3.org/2000/svg" xmlns:xlink="http://www.w3.org/1999/xlink">
    <!-- Generator: Sketch 60 (88103) - https://sketch.com -->
    <title>设备参数导出</title>
    <desc>Created with Sketch.</desc>
    <defs>
        <linearGradient x1="0%" y1="83.550249%" x2="100%" y2="16.449751%" id="linearGradient-1">
            <stop stop-color="#00FFC4" offset="0%"></stop>
            <stop stop-color="#04A8FC" offset="100%"></stop>
        </linearGradient>
    </defs>
    <g id="环控数据报表" stroke="none" stroke-width="1" fill="export-com" fill-rule="evenodd">
        <path d="M88.5060697,0 C91.5354045,0 94,2.45893439 94,5.4814163 L94,55.0041548 C94,58.0265313 91.5354045,60.4854657 88.505964,60.4854657 L50.0628538,60.4852634 L50.0628538,72.4685849 L65.1134831,72.4688588 C66.3624157,72.4688588 67.3842697,73.4883656 67.3842697,74.7344294 C67.3842697,75.9804932 66.3624157,77 65.1134831,77 L29.1056742,77 C27.8567416,77 26.8348876,75.9804932 26.8348876,74.7344294 C26.8348876,73.4883656 27.8567416,72.4688588 29.1056742,72.4688588 L44.0701066,72.4685849 L44.0701066,60.4852634 L5.49403596,60.4854657 C2.46459551,60.4854657 0,58.0265313 0,55.0040494 L0,5.4814163 C0,2.45893439 2.46459551,0 5.49403596,0 L88.5060697,0 Z M88.505964,2.95051052 L5.49403596,2.95051052 C4.09523146,2.95051052 2.95730337,4.08582482 2.95730337,5.4814163 L2.95730337,55.0041548 C2.95730337,56.3996409 4.09523146,57.5349552 5.49403596,57.5349552 L88.5060697,57.5349552 C89.9047685,57.5349552 91.0426966,56.3996409 91.0426966,55.0040494 L91.0426966,5.4814163 C91.0426966,4.08582482 89.9047685,2.95051052 88.505964,2.95051052 Z M87.096809,5.12187552 C87.9927762,5.12187552 88.7191011,5.8465321 88.7191011,6.74044129 L88.7191011,53.7449191 C88.7191011,54.6388283 87.9927762,55.3634848 87.096809,55.3634848 L6.88766517,55.3634848 C5.99169796,55.3634848 5.26537303,54.6388283 5.26537303,53.7449191 L5.26537303,6.74044129 C5.26537303,5.8465321 5.99169796,5.12187552 6.88766517,5.12187552 L87.096809,5.12187552 Z M45.7531513,21.9731676 C45.2629539,22.4622391 45.2629539,23.2550407 45.7531513,23.7441122 L49.8869222,27.8683879 L37.8534649,27.8683879 C37.1599001,27.8683879 36.5981353,28.4288623 36.5981353,29.120834 C36.5981353,29.8128057 37.1599001,30.3732801 37.8534649,30.3732801 L49.8869222,30.3732801 L45.7531513,34.4975558 C45.5083451,34.7417754 45.3853448,35.0624078 45.3853448,35.3830403 C45.3853448,35.7036727 45.5077357,36.0242808 45.7531513,36.2685247 C46.2433488,36.7575962 47.0379756,36.7575962 47.5281731,36.2685247 L53.8047478,30.0062698 C54.2949452,29.5171984 54.2949452,28.7243967 53.8047478,28.2353253 L47.5281731,21.9731676 C47.0379756,21.4840962 46.2433488,21.4840962 45.7531513,21.9731676 Z" id="设备参数导出" fill="url(#linearGradient-1)" fill-rule="nonzero"></path>
    </g>
</svg>