<?xml version="1.0" encoding="UTF-8"?>
<svg width="40px" height="40px" viewBox="0 0 40 40" version="1.1" xmlns="http://www.w3.org/2000/svg" xmlns:xlink="http://www.w3.org/1999/xlink">
    <!-- Generator: Sketch 60 (88103) - https://sketch.com -->
    <title>3</title>
    <desc>Created with Sketch.</desc>
    <g id="基础资料" stroke="none" stroke-width="1" fill="none" fill-rule="evenodd">
        <g id="设备固件管理-固件信息" transform="translate(-1557.000000, -175.000000)" fill="#E24444" fill-rule="nonzero">
            <g id="编组-14">
                <path d="M1581.28571,175 C1582.02828,175 1582.63852,175.56656 1582.70775,176.29099 L1582.71429,176.428571 L1582.71429,177.857143 L1584.14286,177.857143 C1589.56368,177.857143 1593.9905,182.192088 1594.13901,187.577659 L1594.14286,187.857143 L1594.14286,189.285714 L1595.57143,189.285714 C1596.36041,189.285714 1597,189.925308 1597,190.714286 C1597,191.456853 1596.43344,192.067094 1595.70901,192.136318 L1595.57143,192.142857 L1594.14286,192.142857 L1594.14286,197.857143 L1595.57143,197.857143 C1596.36041,197.857143 1597,198.496736 1597,199.285714 C1597,200.028282 1596.43344,200.638523 1595.70901,200.707746 L1595.57143,200.714286 L1594.14286,200.714286 L1594.14286,202.142857 C1594.14286,207.56368 1589.80791,211.990504 1584.42234,212.139008 L1584.14286,212.142857 L1582.71429,212.142857 L1582.71429,213.571429 C1582.71429,214.360407 1582.07469,215 1581.28571,215 C1580.54315,215 1579.93291,214.43344 1579.86368,213.70901 L1579.85714,213.571429 L1579.85714,212.142857 L1574.14286,212.142857 L1574.14286,213.571429 C1574.14286,214.360407 1573.50326,215 1572.71429,215 C1571.97172,215 1571.36148,214.43344 1571.29225,213.70901 L1571.28571,213.571429 L1571.28571,212.142857 L1569.85714,212.142857 C1564.43632,212.142857 1560.0095,207.807912 1559.86099,202.422341 L1559.85714,202.142857 L1559.85714,200.714286 L1558.42857,200.714286 C1557.63959,200.714286 1557,200.074692 1557,199.285714 C1557,198.543147 1557.56656,197.932906 1558.29099,197.863682 L1558.42857,197.857143 L1559.85714,197.857143 L1559.85714,192.142857 L1558.42857,192.142857 C1557.63959,192.142857 1557,191.503264 1557,190.714286 C1557,189.971718 1557.56656,189.361477 1558.29099,189.292254 L1558.42857,189.285714 L1559.85714,189.285714 L1559.85714,187.857143 C1559.85714,182.43632 1564.19209,178.009496 1569.57766,177.860992 L1569.85714,177.857143 L1571.28571,177.857143 L1571.28571,176.428571 C1571.28571,175.639593 1571.92531,175 1572.71429,175 C1573.45685,175 1574.06709,175.56656 1574.13632,176.29099 L1574.14286,176.428571 L1574.14286,177.857143 L1579.85714,177.857143 L1579.85714,176.428571 C1579.85714,175.639593 1580.49674,175 1581.28571,175 Z M1584.14286,180.714286 L1569.85714,180.714286 C1565.99895,180.714286 1562.84538,183.789119 1562.71827,187.616944 L1562.71429,187.857143 L1562.71429,202.142857 C1562.71429,206.00105 1565.78912,209.154621 1569.61694,209.281732 L1569.85714,209.285714 L1584.14286,209.285714 C1588.00105,209.285714 1591.15462,206.210881 1591.28173,202.383056 L1591.28571,202.142857 L1591.28571,187.857143 C1591.28571,183.99895 1588.21088,180.845379 1584.38306,180.718268 L1584.14286,180.714286 Z M1583.59052,188.409482 C1584.13649,188.955459 1584.13649,189.840661 1583.59052,190.386638 L1578.97716,195 L1583.59052,199.613362 C1584.13649,200.159339 1584.13649,201.044541 1583.59052,201.590518 C1583.04454,202.136494 1582.15934,202.136494 1581.61336,201.590518 L1577,196.977155 L1572.38664,201.590518 C1571.84066,202.136494 1570.95546,202.136494 1570.40948,201.590518 C1569.86351,201.044541 1569.86351,200.159339 1570.40948,199.613362 L1575.02284,195 L1570.40948,190.386638 C1569.86351,189.840661 1569.86351,188.955459 1570.40948,188.409482 C1570.95546,187.863506 1571.84066,187.863506 1572.38664,188.409482 L1577,193.022845 L1581.61336,188.409482 C1582.15934,187.863506 1583.04454,187.863506 1583.59052,188.409482 Z" id="3"></path>
            </g>
        </g>
    </g>
</svg>