<?xml version="1.0" encoding="UTF-8"?>
<svg width="40px" height="40px" viewBox="0 0 40 40" version="1.1" xmlns="http://www.w3.org/2000/svg" xmlns:xlink="http://www.w3.org/1999/xlink">
    <!-- Generator: Sketch 60 (88103) - https://sketch.com -->
    <title>2</title>
    <desc>Created with Sketch.</desc>
    <g id="基础资料" stroke="none" stroke-width="1" fill="none" fill-rule="evenodd">
        <g id="设备固件管理-固件信息" transform="translate(-1025.000000, -175.000000)" fill="#1AF0A1" fill-rule="nonzero">
            <g id="编组-14">
                <g id="编组-7" transform="translate(1025.000000, 168.000000)">
                    <path d="M24.2857143,7 C25.028282,7 25.6385226,7.56656008 25.7077461,8.29099047 L25.7142857,8.42857143 L25.7142857,9.85714286 L27.1428571,9.85714286 C32.5636804,9.85714286 36.9905035,14.1920877 37.1390081,19.5776587 L37.1428571,19.8571429 L37.1428571,21.2857143 L38.5714286,21.2857143 C39.3604068,21.2857143 40,21.9253075 40,22.7142857 C40,23.4568534 39.4334399,24.067094 38.7090095,24.1363175 L38.5714286,24.1428571 L37.1428571,24.1428571 L37.1428571,29.8571429 L38.5714286,29.8571429 C39.3604068,29.8571429 40,30.4967361 40,31.2857143 C40,32.028282 39.4334399,32.6385226 38.7090095,32.7077461 L38.5714286,32.7142857 L37.1428571,32.7142857 L37.1428571,34.1428571 C37.1428571,39.5636804 32.8079123,43.9905035 27.4223413,44.1390081 L27.1428571,44.1428571 L25.7142857,44.1428571 L25.7142857,45.5714286 C25.7142857,46.3604068 25.0746925,47 24.2857143,47 C23.5431466,47 22.932906,46.4334399 22.8636825,45.7090095 L22.8571429,45.5714286 L22.8571429,44.1428571 L17.1428571,44.1428571 L17.1428571,45.5714286 C17.1428571,46.3604068 16.5032639,47 15.7142857,47 C14.971718,47 14.3614774,46.4334399 14.2922539,45.7090095 L14.2857143,45.5714286 L14.2857143,44.1428571 L12.8571429,44.1428571 C7.43631961,44.1428571 3.00949645,39.8079123 2.86099191,34.4223413 L2.85714286,34.1428571 L2.85714286,32.7142857 L1.42857143,32.7142857 C0.639593215,32.7142857 0,32.0746925 0,31.2857143 C0,30.5431466 0.566560079,29.932906 1.29099047,29.8636825 L1.42857143,29.8571429 L2.85714286,29.8571429 L2.85714286,24.1428571 L1.42857143,24.1428571 C0.639593215,24.1428571 0,23.5032639 0,22.7142857 C0,21.971718 0.566560079,21.3614774 1.29099047,21.2922539 L1.42857143,21.2857143 L2.85714286,21.2857143 L2.85714286,19.8571429 C2.85714286,14.4363196 7.19208766,10.0094965 12.5776587,9.86099191 L12.8571429,9.85714286 L14.2857143,9.85714286 L14.2857143,8.42857143 C14.2857143,7.63959321 14.9253075,7 15.7142857,7 C16.4568534,7 17.067094,7.56656008 17.1363175,8.29099047 L17.1428571,8.42857143 L17.1428571,9.85714286 L22.8571429,9.85714286 L22.8571429,8.42857143 C22.8571429,7.63959321 23.4967361,7 24.2857143,7 Z M27.1428571,12.7142857 L12.8571429,12.7142857 C8.99895044,12.7142857 5.84537871,15.7891188 5.71826841,19.6169443 L5.71428571,19.8571429 L5.71428571,34.1428571 C5.71428571,38.0010496 8.78911882,41.1546213 12.6169443,41.2817316 L12.8571429,41.2857143 L27.1428571,41.2857143 C31.0010496,41.2857143 34.1546213,38.2108812 34.2817316,34.3830557 L34.2857143,34.1428571 L34.2857143,19.8571429 C34.2857143,15.9989504 31.2108812,12.8453787 27.3830557,12.7182684 L27.1428571,12.7142857 Z M28.8388348,21.8180195 C29.3901632,22.3693479 29.4225943,23.2430778 28.936128,23.8323358 L28.8388348,23.9393398 L21.0606602,31.7175144 C19.3535111,33.4246635 16.615981,33.4734392 14.849953,31.8638415 L14.6966991,31.7175144 L11.1611652,28.1819805 C10.5753788,27.5961941 10.5753788,26.6464466 11.1611652,26.0606602 C11.7124936,25.5093318 12.5862235,25.4769007 13.1754815,25.9633669 L13.2824856,26.0606602 L16.8180195,29.5961941 C17.3693479,30.1475225 18.2430778,30.1799536 18.8323358,29.6934873 L18.9393398,29.5961941 L26.7175144,21.8180195 C27.3033009,21.232233 28.2530483,21.232233 28.8388348,21.8180195 Z" id="2"></path>
                </g>
            </g>
        </g>
    </g>
</svg>